G04 #@! TF.GenerationSoftware,KiCad,Pcbnew,(5.99.0-11177-g6c67dfa032)*
G04 #@! TF.CreationDate,2021-10-11T00:02:07+03:00*
G04 #@! TF.ProjectId,chocofi-topplate,63686f63-6f66-4692-9d74-6f70706c6174,2.1*
G04 #@! TF.SameCoordinates,Original*
G04 #@! TF.FileFunction,Copper,L2,Bot*
G04 #@! TF.FilePolarity,Positive*
%FSLAX46Y46*%
G04 Gerber Fmt 4.6, Leading zero omitted, Abs format (unit mm)*
G04 Created by KiCad (PCBNEW (5.99.0-11177-g6c67dfa032)) date 2021-10-11 00:02:07*
%MOMM*%
%LPD*%
G01*
G04 APERTURE LIST*
G04 #@! TA.AperFunction,ComponentPad*
%ADD10C,2.300000*%
G04 #@! TD*
G04 APERTURE END LIST*
D10*
X95000000Y-66802000D03*
X148971000Y-69850000D03*
X123952000Y-104140000D03*
X167005000Y-110363000D03*
X95000000Y-83820000D03*
G04 #@! TA.AperFunction,NonConductor*
G36*
X130294775Y-44338144D02*
G01*
X130295999Y-44338360D01*
X130296002Y-44338360D01*
X130309999Y-44340828D01*
X130309999Y-44341200D01*
X130325334Y-44340328D01*
X130340270Y-44343135D01*
X130349501Y-44343911D01*
X130361392Y-44346625D01*
X130388019Y-44355942D01*
X130402283Y-44362811D01*
X130426175Y-44377824D01*
X130438554Y-44387696D01*
X130458504Y-44407646D01*
X130468376Y-44420025D01*
X130483389Y-44443917D01*
X130490258Y-44458181D01*
X130499576Y-44484810D01*
X130502289Y-44496696D01*
X130502993Y-44505075D01*
X130506029Y-44518113D01*
X130505000Y-44536201D01*
X130505372Y-44536201D01*
X130508086Y-44551593D01*
X130510000Y-44573472D01*
X130510000Y-50016130D01*
X130508086Y-50038009D01*
X130505372Y-50053401D01*
X130505000Y-50053401D01*
X130507578Y-50143812D01*
X130547815Y-50320100D01*
X130550887Y-50326479D01*
X130600163Y-50428801D01*
X130626271Y-50483016D01*
X130739012Y-50624388D01*
X130880384Y-50737129D01*
X131043300Y-50815585D01*
X131173929Y-50845401D01*
X131209126Y-50853434D01*
X131219588Y-50855822D01*
X131228931Y-50856088D01*
X131291890Y-50857884D01*
X131291891Y-50857884D01*
X131309999Y-50858400D01*
X131309999Y-50858028D01*
X131325199Y-50855348D01*
X131347191Y-50853434D01*
X143034751Y-50864184D01*
X148255850Y-50868986D01*
X148277613Y-50870900D01*
X148279198Y-50871180D01*
X148279202Y-50871180D01*
X148293199Y-50873648D01*
X148293199Y-50874020D01*
X148308532Y-50873148D01*
X148323473Y-50875956D01*
X148332701Y-50876731D01*
X148344592Y-50879445D01*
X148371219Y-50888762D01*
X148385483Y-50895631D01*
X148409375Y-50910644D01*
X148421754Y-50920516D01*
X148441704Y-50940466D01*
X148451576Y-50952845D01*
X148466589Y-50976737D01*
X148473458Y-50991001D01*
X148482776Y-51017630D01*
X148485489Y-51029516D01*
X148486193Y-51037895D01*
X148489229Y-51050933D01*
X148488200Y-51069021D01*
X148488572Y-51069021D01*
X148490613Y-51080594D01*
X148491286Y-51084413D01*
X148493200Y-51106292D01*
X148493200Y-52531750D01*
X148491286Y-52553629D01*
X148488572Y-52569021D01*
X148488200Y-52569021D01*
X148490778Y-52659432D01*
X148531015Y-52835720D01*
X148609471Y-52998636D01*
X148722212Y-53140008D01*
X148863584Y-53252749D01*
X149026500Y-53331205D01*
X149138563Y-53356783D01*
X149192085Y-53368999D01*
X149202788Y-53371442D01*
X149213045Y-53371734D01*
X149275093Y-53373504D01*
X149275094Y-53373504D01*
X149293199Y-53374020D01*
X149293199Y-53373648D01*
X149308763Y-53370904D01*
X149330536Y-53368990D01*
X150994866Y-53367623D01*
X166323299Y-53355031D01*
X166345280Y-53356945D01*
X166347240Y-53357291D01*
X166347242Y-53357291D01*
X166360497Y-53359628D01*
X166360497Y-53360000D01*
X166375646Y-53359232D01*
X166387441Y-53361486D01*
X166400875Y-53362647D01*
X166415962Y-53366068D01*
X166442448Y-53375276D01*
X166459327Y-53383348D01*
X166483119Y-53398184D01*
X166497790Y-53409785D01*
X166517719Y-53429524D01*
X166529459Y-53444082D01*
X166544524Y-53467734D01*
X166547198Y-53473191D01*
X166560052Y-53528551D01*
X166589950Y-98663896D01*
X166589982Y-98712802D01*
X166588956Y-98728928D01*
X166585704Y-98754245D01*
X166588124Y-98765000D01*
X166596551Y-98802458D01*
X166597478Y-98806962D01*
X166603477Y-98839051D01*
X166603479Y-98839060D01*
X166605522Y-98849988D01*
X166608234Y-98854382D01*
X166608927Y-98857460D01*
X166608927Y-98857461D01*
X166608584Y-98857604D01*
X166650055Y-98949698D01*
X166653284Y-98954380D01*
X166653287Y-98954385D01*
X166760980Y-99110531D01*
X166764699Y-99115923D01*
X166911188Y-99254899D01*
X167083213Y-99360642D01*
X167169605Y-99394198D01*
X167186721Y-99402379D01*
X186953582Y-110752676D01*
X187845162Y-111264629D01*
X187860426Y-111274946D01*
X187877446Y-111288364D01*
X187877270Y-111288692D01*
X187889537Y-111295123D01*
X187898741Y-111299948D01*
X187922438Y-111316049D01*
X187959676Y-111348103D01*
X187978358Y-111368107D01*
X188008185Y-111407969D01*
X188022105Y-111431534D01*
X188042620Y-111476898D01*
X188051122Y-111502912D01*
X188061357Y-111551636D01*
X188064040Y-111578870D01*
X188063962Y-111586215D01*
X188063510Y-111628655D01*
X188060247Y-111655831D01*
X188049128Y-111703684D01*
X188039514Y-111730671D01*
X188028833Y-111752439D01*
X188029169Y-111752600D01*
X188027784Y-111757575D01*
X188023022Y-111770765D01*
X178379820Y-128517753D01*
X175555713Y-133422273D01*
X175524504Y-133458367D01*
X175512129Y-133468118D01*
X175498848Y-133477268D01*
X175355925Y-133562799D01*
X175340852Y-133570495D01*
X175188095Y-133635955D01*
X175172140Y-133641557D01*
X175011990Y-133685950D01*
X174995419Y-133689364D01*
X174830773Y-133711892D01*
X174813887Y-133713055D01*
X174728957Y-133713186D01*
X174647706Y-133713312D01*
X174630821Y-133712201D01*
X174522420Y-133697712D01*
X174465716Y-133690132D01*
X174449897Y-133686976D01*
X174403792Y-133674662D01*
X174373296Y-133662043D01*
X174337831Y-133641563D01*
X160648678Y-125736596D01*
X160635849Y-125728103D01*
X160620177Y-125716291D01*
X160613076Y-125710939D01*
X160605330Y-125707988D01*
X160602354Y-125707176D01*
X160602350Y-125707175D01*
X160569149Y-125698120D01*
X160560338Y-125695366D01*
X160524412Y-125682676D01*
X160514949Y-125682948D01*
X160508297Y-125681524D01*
X150157874Y-122858682D01*
X143255554Y-120976231D01*
X143241895Y-120971652D01*
X143222212Y-120963775D01*
X143222209Y-120963774D01*
X143213957Y-120960472D01*
X143205708Y-120959654D01*
X143189679Y-120959637D01*
X143170066Y-120959616D01*
X143159865Y-120959191D01*
X143140609Y-120957607D01*
X143123340Y-120956185D01*
X143113375Y-120959117D01*
X143104856Y-120959548D01*
X125411758Y-120940851D01*
X125390014Y-120938936D01*
X125384831Y-120938022D01*
X125384830Y-120938022D01*
X125374400Y-120936183D01*
X125374400Y-120935810D01*
X125359960Y-120936216D01*
X125355776Y-120935367D01*
X125329530Y-120932581D01*
X125305597Y-120926734D01*
X125277412Y-120916145D01*
X125276080Y-120915453D01*
X125225731Y-120867809D01*
X125157026Y-120751703D01*
X124985416Y-120461699D01*
X145304272Y-120461699D01*
X145306502Y-120473116D01*
X145306531Y-120476483D01*
X145306890Y-120479845D01*
X145305987Y-120491447D01*
X145309321Y-120502595D01*
X145309321Y-120502597D01*
X145316018Y-120524989D01*
X145318965Y-120536939D01*
X145325678Y-120571315D01*
X145331871Y-120581168D01*
X145333115Y-120584310D01*
X145334655Y-120587307D01*
X145337988Y-120598452D01*
X145345110Y-120607651D01*
X145345111Y-120607652D01*
X145359423Y-120626136D01*
X145366473Y-120636223D01*
X145385111Y-120665876D01*
X145394428Y-120672833D01*
X145396705Y-120675301D01*
X145399241Y-120677561D01*
X145406365Y-120686761D01*
X145416322Y-120692779D01*
X145416323Y-120692780D01*
X145436329Y-120704872D01*
X145446542Y-120711748D01*
X145474601Y-120732701D01*
X145482361Y-120735617D01*
X145485330Y-120736413D01*
X145488269Y-120737356D01*
X145488234Y-120737463D01*
X145492535Y-120738845D01*
X145501948Y-120744535D01*
X145513399Y-120746564D01*
X145513401Y-120746565D01*
X145537030Y-120750752D01*
X145547647Y-120753110D01*
X158812867Y-124307515D01*
X158822312Y-124310548D01*
X158831725Y-124316238D01*
X158843178Y-124318268D01*
X158843179Y-124318268D01*
X158866812Y-124322456D01*
X158877427Y-124324814D01*
X158887324Y-124327466D01*
X158895015Y-124328064D01*
X158907217Y-124329617D01*
X158930244Y-124333698D01*
X158930245Y-124333698D01*
X158941699Y-124335728D01*
X158953115Y-124333498D01*
X158956489Y-124333469D01*
X158959848Y-124333110D01*
X158971448Y-124334013D01*
X158982596Y-124330679D01*
X158982597Y-124330679D01*
X159004996Y-124323980D01*
X159016949Y-124321033D01*
X159039895Y-124316552D01*
X159051315Y-124314322D01*
X159061165Y-124308131D01*
X159064320Y-124306882D01*
X159067313Y-124305344D01*
X159078453Y-124302012D01*
X159106148Y-124280567D01*
X159116230Y-124273522D01*
X159136024Y-124261081D01*
X159145876Y-124254889D01*
X159152838Y-124245567D01*
X159155319Y-124243277D01*
X159157564Y-124240757D01*
X159166762Y-124233635D01*
X159184877Y-124203665D01*
X159191746Y-124193463D01*
X159207377Y-124172530D01*
X159207379Y-124172526D01*
X159212701Y-124165399D01*
X159215617Y-124157639D01*
X159216413Y-124154667D01*
X159217356Y-124151731D01*
X159217463Y-124151766D01*
X159218845Y-124147465D01*
X159224535Y-124138052D01*
X159230754Y-124102961D01*
X159233113Y-124092340D01*
X159348070Y-123663317D01*
X159967752Y-121350631D01*
X164931446Y-121350631D01*
X164934878Y-121361751D01*
X164935267Y-121365115D01*
X164935978Y-121368403D01*
X164936313Y-121380029D01*
X164949861Y-121412338D01*
X164954049Y-121423876D01*
X164964380Y-121457352D01*
X164971581Y-121466486D01*
X164973149Y-121469474D01*
X164975005Y-121472300D01*
X164979504Y-121483027D01*
X164987563Y-121491416D01*
X165003760Y-121508277D01*
X165011844Y-121517560D01*
X165033525Y-121545062D01*
X165040265Y-121549887D01*
X165042931Y-121551426D01*
X165045522Y-121553096D01*
X165045460Y-121553192D01*
X165049260Y-121555640D01*
X165056877Y-121563570D01*
X165067417Y-121568496D01*
X165067418Y-121568497D01*
X165089159Y-121578659D01*
X165098807Y-121583687D01*
X176992057Y-128450257D01*
X177000408Y-128455639D01*
X177008027Y-128463570D01*
X177018565Y-128468495D01*
X177018566Y-128468496D01*
X177040307Y-128478657D01*
X177049956Y-128483685D01*
X177058826Y-128488806D01*
X177066099Y-128491374D01*
X177077477Y-128496029D01*
X177109209Y-128510860D01*
X177120814Y-128511661D01*
X177124080Y-128512506D01*
X177127418Y-128513029D01*
X177138389Y-128516903D01*
X177150018Y-128516568D01*
X177173390Y-128515895D01*
X177185696Y-128516142D01*
X177209022Y-128517753D01*
X177209026Y-128517753D01*
X177220631Y-128518554D01*
X177231754Y-128515122D01*
X177235110Y-128514733D01*
X177238398Y-128514022D01*
X177250030Y-128513687D01*
X177282322Y-128500145D01*
X177293893Y-128495945D01*
X177327352Y-128485620D01*
X177336489Y-128478417D01*
X177339484Y-128476845D01*
X177342302Y-128474994D01*
X177353027Y-128470496D01*
X177378286Y-128446232D01*
X177387548Y-128438166D01*
X177415062Y-128416475D01*
X177419887Y-128409735D01*
X177421428Y-128407066D01*
X177423096Y-128404478D01*
X177423192Y-128404540D01*
X177425639Y-128400742D01*
X177433571Y-128393123D01*
X177448658Y-128360842D01*
X177453686Y-128351194D01*
X184320254Y-116457948D01*
X184325638Y-116449594D01*
X184333571Y-116441973D01*
X184348670Y-116409666D01*
X184353684Y-116400045D01*
X184358806Y-116391174D01*
X184361373Y-116383906D01*
X184366031Y-116372521D01*
X184375934Y-116351331D01*
X184380860Y-116340791D01*
X184381662Y-116329185D01*
X184382507Y-116325916D01*
X184383029Y-116322581D01*
X184386903Y-116311611D01*
X184386568Y-116299982D01*
X184385895Y-116276610D01*
X184386142Y-116264304D01*
X184387753Y-116240978D01*
X184387753Y-116240974D01*
X184388554Y-116229369D01*
X184385122Y-116218246D01*
X184384733Y-116214890D01*
X184384022Y-116211602D01*
X184383687Y-116199970D01*
X184370145Y-116167678D01*
X184365945Y-116156107D01*
X184359051Y-116133767D01*
X184355620Y-116122648D01*
X184348416Y-116113509D01*
X184346847Y-116110521D01*
X184344996Y-116107703D01*
X184340496Y-116096973D01*
X184316237Y-116071719D01*
X184308157Y-116062440D01*
X184291981Y-116041922D01*
X184291978Y-116041919D01*
X184286475Y-116034939D01*
X184279735Y-116030113D01*
X184277073Y-116028576D01*
X184274474Y-116026901D01*
X184274536Y-116026806D01*
X184270743Y-116024361D01*
X184263123Y-116016429D01*
X184230842Y-116001342D01*
X184221194Y-115996314D01*
X172327946Y-109129743D01*
X172319592Y-109124359D01*
X172311973Y-109116429D01*
X172279692Y-109101341D01*
X172270052Y-109096319D01*
X172261175Y-109091194D01*
X172253897Y-109088624D01*
X172242527Y-109083972D01*
X172210791Y-109069140D01*
X172199187Y-109068339D01*
X172195918Y-109067493D01*
X172192581Y-109066970D01*
X172181612Y-109063097D01*
X172169983Y-109063432D01*
X172146610Y-109064105D01*
X172134304Y-109063858D01*
X172110978Y-109062247D01*
X172110974Y-109062247D01*
X172099369Y-109061446D01*
X172088249Y-109064878D01*
X172084885Y-109065267D01*
X172081597Y-109065978D01*
X172069971Y-109066313D01*
X172037662Y-109079861D01*
X172026124Y-109084049D01*
X171992648Y-109094380D01*
X171983511Y-109101583D01*
X171980522Y-109103152D01*
X171977702Y-109105005D01*
X171966973Y-109109504D01*
X171958584Y-109117563D01*
X171941724Y-109133760D01*
X171932438Y-109141847D01*
X171911919Y-109158022D01*
X171911917Y-109158024D01*
X171904939Y-109163525D01*
X171900113Y-109170265D01*
X171898569Y-109172939D01*
X171896902Y-109175526D01*
X171896805Y-109175464D01*
X171894359Y-109179260D01*
X171886430Y-109186877D01*
X171881504Y-109197417D01*
X171881503Y-109197418D01*
X171871341Y-109219159D01*
X171866313Y-109228807D01*
X169936198Y-112571865D01*
X165083935Y-120976232D01*
X164999743Y-121122056D01*
X164994362Y-121130407D01*
X164986430Y-121138027D01*
X164981505Y-121148564D01*
X164981504Y-121148566D01*
X164971342Y-121170310D01*
X164966319Y-121179949D01*
X164961194Y-121188825D01*
X164959264Y-121194291D01*
X164959257Y-121194306D01*
X164958621Y-121196108D01*
X164953962Y-121207497D01*
X164939140Y-121239209D01*
X164938338Y-121250818D01*
X164937493Y-121254086D01*
X164936971Y-121257416D01*
X164933097Y-121268388D01*
X164933432Y-121280017D01*
X164934105Y-121303390D01*
X164933858Y-121315696D01*
X164932247Y-121339022D01*
X164932247Y-121339026D01*
X164931446Y-121350631D01*
X159967752Y-121350631D01*
X162787514Y-110827139D01*
X162790548Y-110817689D01*
X162796238Y-110808275D01*
X162802458Y-110773182D01*
X162804817Y-110762563D01*
X162805964Y-110758283D01*
X162805964Y-110758280D01*
X162807466Y-110752676D01*
X162807916Y-110746892D01*
X162807918Y-110746882D01*
X162808065Y-110744993D01*
X162809617Y-110732793D01*
X162813699Y-110709758D01*
X162813699Y-110709755D01*
X162815729Y-110698301D01*
X162813498Y-110686882D01*
X162813469Y-110683517D01*
X162813110Y-110680154D01*
X162814013Y-110668552D01*
X162803978Y-110634998D01*
X162801034Y-110623055D01*
X162796552Y-110600105D01*
X162794322Y-110588685D01*
X162788130Y-110578833D01*
X162786883Y-110575684D01*
X162785345Y-110572691D01*
X162782012Y-110561547D01*
X162760567Y-110533852D01*
X162753522Y-110523770D01*
X162741081Y-110503976D01*
X162734889Y-110494124D01*
X162725567Y-110487162D01*
X162723277Y-110484681D01*
X162720757Y-110482436D01*
X162713635Y-110473238D01*
X162683665Y-110455123D01*
X162673463Y-110448254D01*
X162652529Y-110432622D01*
X162652523Y-110432619D01*
X162645399Y-110427299D01*
X162637640Y-110424383D01*
X162634675Y-110423588D01*
X162631748Y-110422649D01*
X162631783Y-110422541D01*
X162627466Y-110421155D01*
X162618052Y-110415465D01*
X162582950Y-110409244D01*
X162572357Y-110406890D01*
X162408557Y-110363000D01*
X165649341Y-110363000D01*
X165669937Y-110598408D01*
X165671361Y-110603722D01*
X165671361Y-110603723D01*
X165724982Y-110803840D01*
X165731097Y-110826663D01*
X165830965Y-111040829D01*
X165966505Y-111234401D01*
X166133599Y-111401495D01*
X166138107Y-111404652D01*
X166138110Y-111404654D01*
X166281845Y-111505298D01*
X166327170Y-111537035D01*
X166332152Y-111539358D01*
X166332157Y-111539361D01*
X166523649Y-111628655D01*
X166541337Y-111636903D01*
X166546645Y-111638325D01*
X166546647Y-111638326D01*
X166764277Y-111696639D01*
X166769592Y-111698063D01*
X167005000Y-111718659D01*
X167240408Y-111698063D01*
X167245723Y-111696639D01*
X167463353Y-111638326D01*
X167463355Y-111638325D01*
X167468663Y-111636903D01*
X167486351Y-111628655D01*
X167677843Y-111539361D01*
X167677848Y-111539358D01*
X167682830Y-111537035D01*
X167728155Y-111505298D01*
X167871890Y-111404654D01*
X167871893Y-111404652D01*
X167876401Y-111401495D01*
X168043495Y-111234401D01*
X168179035Y-111040829D01*
X168278903Y-110826663D01*
X168285019Y-110803840D01*
X168338639Y-110603723D01*
X168338639Y-110603722D01*
X168340063Y-110598408D01*
X168360659Y-110363000D01*
X168340063Y-110127592D01*
X168278903Y-109899337D01*
X168179035Y-109685171D01*
X168043495Y-109491599D01*
X167876401Y-109324505D01*
X167871893Y-109321348D01*
X167871890Y-109321346D01*
X167687339Y-109192122D01*
X167687336Y-109192120D01*
X167682830Y-109188965D01*
X167677848Y-109186642D01*
X167677843Y-109186639D01*
X167473645Y-109091420D01*
X167473644Y-109091419D01*
X167468663Y-109089097D01*
X167463355Y-109087675D01*
X167463353Y-109087674D01*
X167245723Y-109029361D01*
X167245722Y-109029361D01*
X167240408Y-109027937D01*
X167005000Y-109007341D01*
X166769592Y-109027937D01*
X166764278Y-109029361D01*
X166764277Y-109029361D01*
X166546647Y-109087674D01*
X166546645Y-109087675D01*
X166541337Y-109089097D01*
X166536357Y-109091419D01*
X166536355Y-109091420D01*
X166332152Y-109186642D01*
X166332149Y-109186644D01*
X166327171Y-109188965D01*
X166133599Y-109324505D01*
X165966505Y-109491599D01*
X165830965Y-109685171D01*
X165731097Y-109899337D01*
X165669937Y-110127592D01*
X165649341Y-110363000D01*
X162408557Y-110363000D01*
X150110155Y-107067654D01*
X149307141Y-106852487D01*
X149297685Y-106849450D01*
X149288275Y-106843762D01*
X149276825Y-106841733D01*
X149276823Y-106841732D01*
X149254545Y-106837784D01*
X149253177Y-106837541D01*
X149242563Y-106835183D01*
X149232677Y-106832534D01*
X149226887Y-106832083D01*
X149226879Y-106832082D01*
X149224993Y-106831935D01*
X149212791Y-106830383D01*
X149189753Y-106826300D01*
X149189750Y-106826300D01*
X149178301Y-106824271D01*
X149166887Y-106826500D01*
X149163531Y-106826529D01*
X149160155Y-106826890D01*
X149148553Y-106825987D01*
X149137409Y-106829320D01*
X149137405Y-106829320D01*
X149115003Y-106836019D01*
X149103057Y-106838964D01*
X149080109Y-106843446D01*
X149080105Y-106843448D01*
X149068685Y-106845678D01*
X149058832Y-106851871D01*
X149055693Y-106853114D01*
X149052695Y-106854654D01*
X149041548Y-106857988D01*
X149032349Y-106865110D01*
X149032348Y-106865111D01*
X149013864Y-106879423D01*
X149003777Y-106886473D01*
X148974124Y-106905111D01*
X148967167Y-106914428D01*
X148964699Y-106916705D01*
X148962439Y-106919241D01*
X148953239Y-106926365D01*
X148947221Y-106936322D01*
X148947220Y-106936323D01*
X148935128Y-106956329D01*
X148928252Y-106966542D01*
X148912622Y-106987472D01*
X148912620Y-106987475D01*
X148907299Y-106994601D01*
X148904383Y-107002360D01*
X148903588Y-107005328D01*
X148902649Y-107008252D01*
X148902543Y-107008218D01*
X148901155Y-107012533D01*
X148895465Y-107021948D01*
X148893436Y-107033399D01*
X148893434Y-107033403D01*
X148889246Y-107057032D01*
X148886887Y-107067654D01*
X147333816Y-112863796D01*
X145355518Y-120246905D01*
X145332486Y-120332860D01*
X145329451Y-120342313D01*
X145323762Y-120351725D01*
X145318158Y-120383348D01*
X145317544Y-120386810D01*
X145315185Y-120397429D01*
X145312534Y-120407323D01*
X145311936Y-120415013D01*
X145310383Y-120427217D01*
X145304272Y-120461699D01*
X124985416Y-120461699D01*
X116463347Y-106060237D01*
X126806456Y-106060237D01*
X126807460Y-106071830D01*
X126807460Y-106071831D01*
X126809530Y-106095730D01*
X126810000Y-106106602D01*
X126810000Y-119839761D01*
X126809516Y-119849672D01*
X126806456Y-119860237D01*
X126807460Y-119871830D01*
X126807460Y-119871831D01*
X126809530Y-119895730D01*
X126810000Y-119906602D01*
X126810000Y-119916847D01*
X126811062Y-119922549D01*
X126811413Y-119924433D01*
X126813071Y-119936620D01*
X126814880Y-119957498D01*
X126816093Y-119971508D01*
X126821201Y-119981958D01*
X126822101Y-119985202D01*
X126823318Y-119988356D01*
X126825449Y-119999799D01*
X126843839Y-120029633D01*
X126849757Y-120040377D01*
X126865141Y-120071849D01*
X126873669Y-120079759D01*
X126875681Y-120082469D01*
X126877951Y-120084973D01*
X126884055Y-120094875D01*
X126893314Y-120101916D01*
X126893318Y-120101920D01*
X126911932Y-120116074D01*
X126921341Y-120123982D01*
X126947023Y-120147805D01*
X126957830Y-120152116D01*
X126960683Y-120153920D01*
X126963698Y-120155437D01*
X126972958Y-120162478D01*
X127006609Y-120172223D01*
X127018224Y-120176211D01*
X127050759Y-120189191D01*
X127059009Y-120190000D01*
X127062094Y-120190000D01*
X127065160Y-120190150D01*
X127065154Y-120190264D01*
X127069672Y-120190485D01*
X127080237Y-120193544D01*
X127091830Y-120192540D01*
X127091831Y-120192540D01*
X127115730Y-120190470D01*
X127126602Y-120190000D01*
X140859761Y-120190000D01*
X140869672Y-120190484D01*
X140880237Y-120193544D01*
X140891830Y-120192540D01*
X140891831Y-120192540D01*
X140915730Y-120190470D01*
X140926602Y-120190000D01*
X140936847Y-120190000D01*
X140944438Y-120188586D01*
X140956620Y-120186929D01*
X140979920Y-120184911D01*
X140979922Y-120184911D01*
X140991508Y-120183907D01*
X141001958Y-120178799D01*
X141005202Y-120177899D01*
X141008356Y-120176682D01*
X141019799Y-120174551D01*
X141049633Y-120156161D01*
X141060377Y-120150243D01*
X141091849Y-120134859D01*
X141099759Y-120126331D01*
X141102469Y-120124319D01*
X141104973Y-120122049D01*
X141114875Y-120115945D01*
X141121916Y-120106686D01*
X141121920Y-120106682D01*
X141136074Y-120088068D01*
X141143982Y-120078659D01*
X141167805Y-120052977D01*
X141172116Y-120042170D01*
X141173920Y-120039317D01*
X141175437Y-120036302D01*
X141182478Y-120027042D01*
X141192223Y-119993391D01*
X141196211Y-119981776D01*
X141209191Y-119949241D01*
X141210000Y-119940991D01*
X141210000Y-119937906D01*
X141210150Y-119934840D01*
X141210264Y-119934846D01*
X141210485Y-119930328D01*
X141213544Y-119919763D01*
X141210470Y-119884269D01*
X141210000Y-119873398D01*
X141210000Y-106140239D01*
X141210484Y-106130328D01*
X141213544Y-106119763D01*
X141210470Y-106084269D01*
X141210000Y-106073398D01*
X141210000Y-106063153D01*
X141208586Y-106055562D01*
X141206929Y-106043380D01*
X141204911Y-106020080D01*
X141204911Y-106020078D01*
X141203907Y-106008492D01*
X141198799Y-105998042D01*
X141197899Y-105994798D01*
X141196682Y-105991644D01*
X141194551Y-105980201D01*
X141176161Y-105950367D01*
X141170243Y-105939623D01*
X141154859Y-105908151D01*
X141146331Y-105900241D01*
X141144319Y-105897531D01*
X141142049Y-105895027D01*
X141135945Y-105885125D01*
X141126686Y-105878084D01*
X141126682Y-105878080D01*
X141108068Y-105863926D01*
X141098659Y-105856018D01*
X141072977Y-105832195D01*
X141062170Y-105827884D01*
X141059317Y-105826080D01*
X141056302Y-105824563D01*
X141047042Y-105817522D01*
X141013391Y-105807777D01*
X141001776Y-105803789D01*
X140969241Y-105790809D01*
X140960991Y-105790000D01*
X140957906Y-105790000D01*
X140954840Y-105789850D01*
X140954846Y-105789736D01*
X140950328Y-105789515D01*
X140939763Y-105786456D01*
X140928170Y-105787460D01*
X140928169Y-105787460D01*
X140904270Y-105789530D01*
X140893398Y-105790000D01*
X127160239Y-105790000D01*
X127150328Y-105789516D01*
X127139763Y-105786456D01*
X127128170Y-105787460D01*
X127128169Y-105787460D01*
X127104270Y-105789530D01*
X127093398Y-105790000D01*
X127083153Y-105790000D01*
X127075562Y-105791414D01*
X127063380Y-105793071D01*
X127040080Y-105795089D01*
X127040078Y-105795089D01*
X127028492Y-105796093D01*
X127018042Y-105801201D01*
X127014798Y-105802101D01*
X127011644Y-105803318D01*
X127000201Y-105805449D01*
X126970367Y-105823839D01*
X126959623Y-105829757D01*
X126928151Y-105845141D01*
X126920241Y-105853669D01*
X126917531Y-105855681D01*
X126915027Y-105857951D01*
X126905125Y-105864055D01*
X126898084Y-105873314D01*
X126898080Y-105873318D01*
X126883926Y-105891932D01*
X126876018Y-105901341D01*
X126852195Y-105927023D01*
X126847884Y-105937830D01*
X126846080Y-105940683D01*
X126844563Y-105943698D01*
X126837522Y-105952958D01*
X126827777Y-105986609D01*
X126823789Y-105998224D01*
X126810809Y-106030759D01*
X126810000Y-106039009D01*
X126810000Y-106042094D01*
X126809850Y-106045160D01*
X126809736Y-106045154D01*
X126809515Y-106049672D01*
X126806456Y-106060237D01*
X116463347Y-106060237D01*
X115327046Y-104140000D01*
X122596341Y-104140000D01*
X122616937Y-104375408D01*
X122678097Y-104603663D01*
X122777965Y-104817829D01*
X122913505Y-105011401D01*
X123080599Y-105178495D01*
X123085107Y-105181652D01*
X123085110Y-105181654D01*
X123269661Y-105310878D01*
X123274170Y-105314035D01*
X123279152Y-105316358D01*
X123279157Y-105316361D01*
X123483355Y-105411580D01*
X123488337Y-105413903D01*
X123493645Y-105415325D01*
X123493647Y-105415326D01*
X123711277Y-105473639D01*
X123716592Y-105475063D01*
X123952000Y-105495659D01*
X124187408Y-105475063D01*
X124192723Y-105473639D01*
X124410353Y-105415326D01*
X124410355Y-105415325D01*
X124415663Y-105413903D01*
X124420645Y-105411580D01*
X124624843Y-105316361D01*
X124624848Y-105316358D01*
X124629830Y-105314035D01*
X124634339Y-105310878D01*
X124818890Y-105181654D01*
X124818893Y-105181652D01*
X124823401Y-105178495D01*
X124990495Y-105011401D01*
X125126035Y-104817829D01*
X125225903Y-104603663D01*
X125287063Y-104375408D01*
X125307659Y-104140000D01*
X125287063Y-103904592D01*
X125225903Y-103676337D01*
X125126035Y-103462171D01*
X124990495Y-103268599D01*
X124823401Y-103101505D01*
X124818893Y-103098348D01*
X124818890Y-103098346D01*
X124634339Y-102969122D01*
X124634336Y-102969120D01*
X124629830Y-102965965D01*
X124624848Y-102963642D01*
X124624843Y-102963639D01*
X124420645Y-102868420D01*
X124420644Y-102868419D01*
X124415663Y-102866097D01*
X124410355Y-102864675D01*
X124410353Y-102864674D01*
X124192723Y-102806361D01*
X124192722Y-102806361D01*
X124187408Y-102804937D01*
X123952000Y-102784341D01*
X123716592Y-102804937D01*
X123711278Y-102806361D01*
X123711277Y-102806361D01*
X123493647Y-102864674D01*
X123493645Y-102864675D01*
X123488337Y-102866097D01*
X123483357Y-102868419D01*
X123483355Y-102868420D01*
X123279152Y-102963642D01*
X123279149Y-102963644D01*
X123274171Y-102965965D01*
X123080599Y-103101505D01*
X122913505Y-103268599D01*
X122777965Y-103462171D01*
X122678097Y-103676337D01*
X122616937Y-103904592D01*
X122596341Y-104140000D01*
X115327046Y-104140000D01*
X114814064Y-103273111D01*
X113579596Y-101186980D01*
X113572338Y-101168755D01*
X113572519Y-101168673D01*
X113529312Y-101079046D01*
X113414152Y-100916819D01*
X113312180Y-100819359D01*
X113274676Y-100783514D01*
X113274672Y-100783511D01*
X113270331Y-100779362D01*
X113265278Y-100776108D01*
X113108121Y-100674912D01*
X113108117Y-100674910D01*
X113103062Y-100671655D01*
X112918412Y-100597606D01*
X112723073Y-100559898D01*
X112717785Y-100559779D01*
X112717779Y-100559778D01*
X112656959Y-100558405D01*
X112623600Y-100557652D01*
X112623600Y-100558024D01*
X112608276Y-100560726D01*
X112608208Y-100560738D01*
X112586329Y-100562652D01*
X95490471Y-100562652D01*
X95468592Y-100560738D01*
X95464102Y-100559946D01*
X95464101Y-100559946D01*
X95453200Y-100558024D01*
X95453200Y-100557652D01*
X95350518Y-100560919D01*
X95344601Y-100562269D01*
X95344597Y-100562270D01*
X95157201Y-100605042D01*
X95157200Y-100605042D01*
X95150301Y-100606617D01*
X95143922Y-100609689D01*
X95015249Y-100671655D01*
X94965273Y-100695722D01*
X94804713Y-100823765D01*
X94676670Y-100984325D01*
X94587565Y-101169353D01*
X94585990Y-101176252D01*
X94585990Y-101176253D01*
X94554169Y-101315672D01*
X94541867Y-101369570D01*
X94538600Y-101472252D01*
X94538972Y-101472252D01*
X94540530Y-101481088D01*
X94540530Y-101481089D01*
X94541686Y-101487644D01*
X94543600Y-101509523D01*
X94543600Y-105560740D01*
X94543596Y-105561717D01*
X94493569Y-112015401D01*
X94493086Y-112077667D01*
X94491176Y-112098565D01*
X94488172Y-112115599D01*
X94487800Y-112115599D01*
X94488116Y-112129847D01*
X94488271Y-112136862D01*
X94485881Y-112164233D01*
X94477310Y-112207323D01*
X94470144Y-112230949D01*
X94452783Y-112272860D01*
X94441145Y-112294631D01*
X94415952Y-112332334D01*
X94400283Y-112351426D01*
X94368226Y-112383483D01*
X94349134Y-112399152D01*
X94311431Y-112424345D01*
X94289660Y-112435983D01*
X94247749Y-112453344D01*
X94224125Y-112460509D01*
X94194999Y-112466303D01*
X94181033Y-112469081D01*
X94153662Y-112471471D01*
X94152890Y-112471454D01*
X94150511Y-112471401D01*
X94150510Y-112471401D01*
X94132399Y-112471000D01*
X94132399Y-112471372D01*
X94124805Y-112472711D01*
X94117007Y-112474086D01*
X94095128Y-112476000D01*
X77710472Y-112476000D01*
X77688593Y-112474086D01*
X77682861Y-112473075D01*
X77682860Y-112473075D01*
X77673201Y-112471372D01*
X77673201Y-112471000D01*
X77651938Y-112471471D01*
X77624567Y-112469081D01*
X77610601Y-112466303D01*
X77581475Y-112460509D01*
X77557851Y-112453344D01*
X77515940Y-112435983D01*
X77494169Y-112424345D01*
X77456466Y-112399152D01*
X77437374Y-112383483D01*
X77405317Y-112351426D01*
X77389648Y-112332334D01*
X77364455Y-112294631D01*
X77352817Y-112272860D01*
X77335456Y-112230949D01*
X77328290Y-112207323D01*
X77319719Y-112164233D01*
X77317329Y-112136862D01*
X77317399Y-112133711D01*
X77317399Y-112133710D01*
X77317800Y-112115599D01*
X77317428Y-112115599D01*
X77314714Y-112100207D01*
X77312800Y-112078328D01*
X77312800Y-97470237D01*
X78706456Y-97470237D01*
X78707460Y-97481830D01*
X78707460Y-97481831D01*
X78709530Y-97505730D01*
X78710000Y-97516602D01*
X78710000Y-111249761D01*
X78709516Y-111259672D01*
X78706456Y-111270237D01*
X78707460Y-111281830D01*
X78707460Y-111281831D01*
X78709530Y-111305730D01*
X78710000Y-111316602D01*
X78710000Y-111326847D01*
X78711062Y-111332549D01*
X78711413Y-111334433D01*
X78713071Y-111346620D01*
X78714880Y-111367498D01*
X78716093Y-111381508D01*
X78721201Y-111391958D01*
X78722101Y-111395202D01*
X78723318Y-111398356D01*
X78725449Y-111409799D01*
X78743839Y-111439633D01*
X78749757Y-111450377D01*
X78765141Y-111481849D01*
X78773669Y-111489759D01*
X78775681Y-111492469D01*
X78777951Y-111494973D01*
X78784055Y-111504875D01*
X78793314Y-111511916D01*
X78793318Y-111511920D01*
X78811932Y-111526074D01*
X78821341Y-111533982D01*
X78847023Y-111557805D01*
X78857830Y-111562116D01*
X78860683Y-111563920D01*
X78863698Y-111565437D01*
X78872958Y-111572478D01*
X78906609Y-111582223D01*
X78918224Y-111586211D01*
X78950759Y-111599191D01*
X78959009Y-111600000D01*
X78962094Y-111600000D01*
X78965160Y-111600150D01*
X78965154Y-111600264D01*
X78969672Y-111600485D01*
X78980237Y-111603544D01*
X78991830Y-111602540D01*
X78991831Y-111602540D01*
X79015730Y-111600470D01*
X79026602Y-111600000D01*
X92759761Y-111600000D01*
X92769672Y-111600484D01*
X92780237Y-111603544D01*
X92791830Y-111602540D01*
X92791831Y-111602540D01*
X92815730Y-111600470D01*
X92826602Y-111600000D01*
X92836847Y-111600000D01*
X92844438Y-111598586D01*
X92856620Y-111596929D01*
X92879920Y-111594911D01*
X92879922Y-111594911D01*
X92891508Y-111593907D01*
X92901958Y-111588799D01*
X92905202Y-111587899D01*
X92908356Y-111586682D01*
X92919799Y-111584551D01*
X92949633Y-111566161D01*
X92960377Y-111560243D01*
X92991849Y-111544859D01*
X92999759Y-111536331D01*
X93002469Y-111534319D01*
X93004973Y-111532049D01*
X93014875Y-111525945D01*
X93021916Y-111516686D01*
X93021920Y-111516682D01*
X93036074Y-111498068D01*
X93043982Y-111488659D01*
X93067805Y-111462977D01*
X93072116Y-111452170D01*
X93073920Y-111449317D01*
X93075437Y-111446302D01*
X93082478Y-111437042D01*
X93092223Y-111403391D01*
X93096211Y-111391776D01*
X93109191Y-111359241D01*
X93110000Y-111350991D01*
X93110000Y-111347906D01*
X93110150Y-111344840D01*
X93110264Y-111344846D01*
X93110485Y-111340328D01*
X93113544Y-111329763D01*
X93110470Y-111294269D01*
X93110000Y-111283398D01*
X93110000Y-97550239D01*
X93110484Y-97540328D01*
X93113544Y-97529763D01*
X93110470Y-97494269D01*
X93110000Y-97483398D01*
X93110000Y-97473153D01*
X93108586Y-97465562D01*
X93106929Y-97453380D01*
X93104911Y-97430080D01*
X93104911Y-97430078D01*
X93103907Y-97418492D01*
X93098799Y-97408042D01*
X93097899Y-97404798D01*
X93096682Y-97401644D01*
X93094551Y-97390201D01*
X93076161Y-97360367D01*
X93070243Y-97349623D01*
X93054859Y-97318151D01*
X93046331Y-97310241D01*
X93044319Y-97307531D01*
X93042049Y-97305027D01*
X93035945Y-97295125D01*
X93026686Y-97288084D01*
X93026682Y-97288080D01*
X93008068Y-97273926D01*
X92998659Y-97266018D01*
X92972977Y-97242195D01*
X92962170Y-97237884D01*
X92959317Y-97236080D01*
X92956302Y-97234563D01*
X92947042Y-97227522D01*
X92913391Y-97217777D01*
X92901776Y-97213789D01*
X92869241Y-97200809D01*
X92860991Y-97200000D01*
X92857906Y-97200000D01*
X92854840Y-97199850D01*
X92854846Y-97199736D01*
X92850328Y-97199515D01*
X92839763Y-97196456D01*
X92828170Y-97197460D01*
X92828169Y-97197460D01*
X92804270Y-97199530D01*
X92793398Y-97200000D01*
X79060239Y-97200000D01*
X79050328Y-97199516D01*
X79039763Y-97196456D01*
X79028170Y-97197460D01*
X79028169Y-97197460D01*
X79004270Y-97199530D01*
X78993398Y-97200000D01*
X78983153Y-97200000D01*
X78975562Y-97201414D01*
X78963380Y-97203071D01*
X78940080Y-97205089D01*
X78940078Y-97205089D01*
X78928492Y-97206093D01*
X78918042Y-97211201D01*
X78914798Y-97212101D01*
X78911644Y-97213318D01*
X78900201Y-97215449D01*
X78870367Y-97233839D01*
X78859623Y-97239757D01*
X78828151Y-97255141D01*
X78820241Y-97263669D01*
X78817531Y-97265681D01*
X78815027Y-97267951D01*
X78805125Y-97274055D01*
X78798084Y-97283314D01*
X78798080Y-97283318D01*
X78783926Y-97301932D01*
X78776018Y-97311341D01*
X78752195Y-97337023D01*
X78747884Y-97347830D01*
X78746080Y-97350683D01*
X78744563Y-97353698D01*
X78737522Y-97362958D01*
X78727777Y-97396609D01*
X78723789Y-97408224D01*
X78710809Y-97440759D01*
X78710000Y-97449009D01*
X78710000Y-97452094D01*
X78709850Y-97455160D01*
X78709736Y-97455154D01*
X78709515Y-97459672D01*
X78706456Y-97470237D01*
X77312800Y-97470237D01*
X77312800Y-80470237D01*
X78706456Y-80470237D01*
X78707460Y-80481830D01*
X78707460Y-80481831D01*
X78709530Y-80505730D01*
X78710000Y-80516602D01*
X78710000Y-94249761D01*
X78709516Y-94259672D01*
X78706456Y-94270237D01*
X78707460Y-94281830D01*
X78707460Y-94281831D01*
X78709530Y-94305730D01*
X78710000Y-94316602D01*
X78710000Y-94326847D01*
X78711062Y-94332549D01*
X78711413Y-94334433D01*
X78713071Y-94346620D01*
X78714880Y-94367498D01*
X78716093Y-94381508D01*
X78721201Y-94391958D01*
X78722101Y-94395202D01*
X78723318Y-94398356D01*
X78725449Y-94409799D01*
X78743839Y-94439633D01*
X78749757Y-94450377D01*
X78765141Y-94481849D01*
X78773669Y-94489759D01*
X78775681Y-94492469D01*
X78777951Y-94494973D01*
X78784055Y-94504875D01*
X78793314Y-94511916D01*
X78793318Y-94511920D01*
X78811932Y-94526074D01*
X78821341Y-94533982D01*
X78847023Y-94557805D01*
X78857830Y-94562116D01*
X78860683Y-94563920D01*
X78863698Y-94565437D01*
X78872958Y-94572478D01*
X78906609Y-94582223D01*
X78918224Y-94586211D01*
X78950759Y-94599191D01*
X78959009Y-94600000D01*
X78962094Y-94600000D01*
X78965160Y-94600150D01*
X78965154Y-94600264D01*
X78969672Y-94600485D01*
X78980237Y-94603544D01*
X78991830Y-94602540D01*
X78991831Y-94602540D01*
X79015730Y-94600470D01*
X79026602Y-94600000D01*
X92759761Y-94600000D01*
X92769672Y-94600484D01*
X92780237Y-94603544D01*
X92791830Y-94602540D01*
X92791831Y-94602540D01*
X92815730Y-94600470D01*
X92826602Y-94600000D01*
X92836847Y-94600000D01*
X92844438Y-94598586D01*
X92856620Y-94596929D01*
X92879920Y-94594911D01*
X92879922Y-94594911D01*
X92891508Y-94593907D01*
X92901958Y-94588799D01*
X92905202Y-94587899D01*
X92908356Y-94586682D01*
X92919799Y-94584551D01*
X92949633Y-94566161D01*
X92960377Y-94560243D01*
X92991849Y-94544859D01*
X92999759Y-94536331D01*
X93002469Y-94534319D01*
X93004973Y-94532049D01*
X93014875Y-94525945D01*
X93021916Y-94516686D01*
X93021920Y-94516682D01*
X93036074Y-94498068D01*
X93043982Y-94488659D01*
X93067805Y-94462977D01*
X93072116Y-94452170D01*
X93073920Y-94449317D01*
X93075437Y-94446302D01*
X93082478Y-94437042D01*
X93092223Y-94403391D01*
X93096211Y-94391776D01*
X93109191Y-94359241D01*
X93110000Y-94350991D01*
X93110000Y-94347906D01*
X93110150Y-94344840D01*
X93110264Y-94344846D01*
X93110485Y-94340328D01*
X93113544Y-94329763D01*
X93110470Y-94294269D01*
X93110000Y-94283398D01*
X93110000Y-85470237D01*
X96706456Y-85470237D01*
X96707460Y-85481830D01*
X96707460Y-85481831D01*
X96709530Y-85505730D01*
X96710000Y-85516602D01*
X96710000Y-99249761D01*
X96709516Y-99259672D01*
X96706456Y-99270237D01*
X96707460Y-99281830D01*
X96707460Y-99281831D01*
X96709530Y-99305730D01*
X96710000Y-99316602D01*
X96710000Y-99326847D01*
X96711062Y-99332549D01*
X96711413Y-99334433D01*
X96713071Y-99346620D01*
X96714880Y-99367498D01*
X96716093Y-99381508D01*
X96721201Y-99391958D01*
X96722101Y-99395202D01*
X96723318Y-99398356D01*
X96725449Y-99409799D01*
X96743839Y-99439633D01*
X96749757Y-99450377D01*
X96765141Y-99481849D01*
X96773669Y-99489759D01*
X96775681Y-99492469D01*
X96777951Y-99494973D01*
X96784055Y-99504875D01*
X96793314Y-99511916D01*
X96793318Y-99511920D01*
X96811932Y-99526074D01*
X96821341Y-99533982D01*
X96847023Y-99557805D01*
X96857830Y-99562116D01*
X96860683Y-99563920D01*
X96863698Y-99565437D01*
X96872958Y-99572478D01*
X96906609Y-99582223D01*
X96918224Y-99586211D01*
X96950759Y-99599191D01*
X96959009Y-99600000D01*
X96962094Y-99600000D01*
X96965160Y-99600150D01*
X96965154Y-99600264D01*
X96969672Y-99600485D01*
X96980237Y-99603544D01*
X96991830Y-99602540D01*
X96991831Y-99602540D01*
X97015730Y-99600470D01*
X97026602Y-99600000D01*
X110759761Y-99600000D01*
X110769672Y-99600484D01*
X110780237Y-99603544D01*
X110791830Y-99602540D01*
X110791831Y-99602540D01*
X110815730Y-99600470D01*
X110826602Y-99600000D01*
X110836847Y-99600000D01*
X110844438Y-99598586D01*
X110856620Y-99596929D01*
X110879920Y-99594911D01*
X110879922Y-99594911D01*
X110891508Y-99593907D01*
X110901958Y-99588799D01*
X110905202Y-99587899D01*
X110908356Y-99586682D01*
X110919799Y-99584551D01*
X110949633Y-99566161D01*
X110960377Y-99560243D01*
X110991849Y-99544859D01*
X110999759Y-99536331D01*
X111002469Y-99534319D01*
X111004973Y-99532049D01*
X111014875Y-99525945D01*
X111021916Y-99516686D01*
X111021920Y-99516682D01*
X111036074Y-99498068D01*
X111043982Y-99488659D01*
X111067805Y-99462977D01*
X111072116Y-99452170D01*
X111073920Y-99449317D01*
X111075437Y-99446302D01*
X111082478Y-99437042D01*
X111092223Y-99403391D01*
X111096211Y-99391776D01*
X111109191Y-99359241D01*
X111110000Y-99350991D01*
X111110000Y-99347906D01*
X111110150Y-99344840D01*
X111110264Y-99344846D01*
X111110485Y-99340328D01*
X111113544Y-99329763D01*
X111110470Y-99294269D01*
X111110000Y-99283398D01*
X111110000Y-85550239D01*
X111110484Y-85540328D01*
X111113544Y-85529763D01*
X111111389Y-85504875D01*
X111110470Y-85494270D01*
X111110000Y-85483398D01*
X111110000Y-85473153D01*
X111108586Y-85465562D01*
X111106929Y-85453380D01*
X111104911Y-85430080D01*
X111104911Y-85430078D01*
X111103907Y-85418492D01*
X111098799Y-85408042D01*
X111097899Y-85404798D01*
X111096682Y-85401644D01*
X111094551Y-85390201D01*
X111076161Y-85360367D01*
X111070243Y-85349623D01*
X111054859Y-85318151D01*
X111046331Y-85310241D01*
X111044319Y-85307531D01*
X111042049Y-85305027D01*
X111035945Y-85295125D01*
X111026686Y-85288084D01*
X111026682Y-85288080D01*
X111008068Y-85273926D01*
X110998659Y-85266018D01*
X110972977Y-85242195D01*
X110962170Y-85237884D01*
X110959317Y-85236080D01*
X110956302Y-85234563D01*
X110947042Y-85227522D01*
X110913391Y-85217777D01*
X110901776Y-85213789D01*
X110869241Y-85200809D01*
X110860991Y-85200000D01*
X110857906Y-85200000D01*
X110854840Y-85199850D01*
X110854846Y-85199736D01*
X110850328Y-85199515D01*
X110839763Y-85196456D01*
X110828170Y-85197460D01*
X110828169Y-85197460D01*
X110804270Y-85199530D01*
X110793398Y-85200000D01*
X97060239Y-85200000D01*
X97050328Y-85199516D01*
X97039763Y-85196456D01*
X97028170Y-85197460D01*
X97028169Y-85197460D01*
X97004270Y-85199530D01*
X96993398Y-85200000D01*
X96983153Y-85200000D01*
X96975562Y-85201414D01*
X96963380Y-85203071D01*
X96940080Y-85205089D01*
X96940078Y-85205089D01*
X96928492Y-85206093D01*
X96918042Y-85211201D01*
X96914798Y-85212101D01*
X96911644Y-85213318D01*
X96900201Y-85215449D01*
X96870367Y-85233839D01*
X96859623Y-85239757D01*
X96828151Y-85255141D01*
X96820241Y-85263669D01*
X96817531Y-85265681D01*
X96815027Y-85267951D01*
X96805125Y-85274055D01*
X96798084Y-85283314D01*
X96798080Y-85283318D01*
X96783926Y-85301932D01*
X96776018Y-85311341D01*
X96752195Y-85337023D01*
X96747884Y-85347830D01*
X96746080Y-85350683D01*
X96744563Y-85353698D01*
X96737522Y-85362958D01*
X96727777Y-85396609D01*
X96723789Y-85408224D01*
X96710809Y-85440759D01*
X96710000Y-85449009D01*
X96710000Y-85452094D01*
X96709850Y-85455160D01*
X96709736Y-85455154D01*
X96709515Y-85459672D01*
X96706456Y-85470237D01*
X93110000Y-85470237D01*
X93110000Y-83820000D01*
X93644341Y-83820000D01*
X93664937Y-84055408D01*
X93726097Y-84283663D01*
X93825965Y-84497829D01*
X93961505Y-84691401D01*
X94128599Y-84858495D01*
X94133107Y-84861652D01*
X94133110Y-84861654D01*
X94317661Y-84990878D01*
X94322170Y-84994035D01*
X94327152Y-84996358D01*
X94327157Y-84996361D01*
X94531353Y-85091579D01*
X94536337Y-85093903D01*
X94541645Y-85095325D01*
X94541647Y-85095326D01*
X94759277Y-85153639D01*
X94764592Y-85155063D01*
X95000000Y-85175659D01*
X95235408Y-85155063D01*
X95240723Y-85153639D01*
X95458353Y-85095326D01*
X95458355Y-85095325D01*
X95463663Y-85093903D01*
X95468647Y-85091579D01*
X95672843Y-84996361D01*
X95672848Y-84996358D01*
X95677830Y-84994035D01*
X95682339Y-84990878D01*
X95866890Y-84861654D01*
X95866893Y-84861652D01*
X95871401Y-84858495D01*
X96038495Y-84691401D01*
X96174035Y-84497829D01*
X96273903Y-84283663D01*
X96335063Y-84055408D01*
X96355659Y-83820000D01*
X96335063Y-83584592D01*
X96273903Y-83356337D01*
X96210451Y-83220264D01*
X96176358Y-83147152D01*
X96176356Y-83147149D01*
X96174035Y-83142171D01*
X96038495Y-82948599D01*
X95871401Y-82781505D01*
X95866893Y-82778348D01*
X95866890Y-82778346D01*
X95682339Y-82649122D01*
X95682336Y-82649120D01*
X95677830Y-82645965D01*
X95672848Y-82643642D01*
X95672843Y-82643639D01*
X95468645Y-82548420D01*
X95468644Y-82548419D01*
X95463663Y-82546097D01*
X95458355Y-82544675D01*
X95458353Y-82544674D01*
X95240723Y-82486361D01*
X95240722Y-82486361D01*
X95235408Y-82484937D01*
X95000000Y-82464341D01*
X94764592Y-82484937D01*
X94759278Y-82486361D01*
X94759277Y-82486361D01*
X94541647Y-82544674D01*
X94541645Y-82544675D01*
X94536337Y-82546097D01*
X94531357Y-82548419D01*
X94531355Y-82548420D01*
X94327152Y-82643642D01*
X94327149Y-82643644D01*
X94322171Y-82645965D01*
X94128599Y-82781505D01*
X93961505Y-82948599D01*
X93825965Y-83142171D01*
X93823644Y-83147149D01*
X93823642Y-83147152D01*
X93789549Y-83220264D01*
X93726097Y-83356337D01*
X93664937Y-83584592D01*
X93644341Y-83820000D01*
X93110000Y-83820000D01*
X93110000Y-80550239D01*
X93110484Y-80540328D01*
X93113544Y-80529763D01*
X93110470Y-80494269D01*
X93110000Y-80483398D01*
X93110000Y-80473153D01*
X93108586Y-80465562D01*
X93106929Y-80453380D01*
X93104911Y-80430080D01*
X93104911Y-80430078D01*
X93103907Y-80418492D01*
X93098799Y-80408042D01*
X93097899Y-80404798D01*
X93096682Y-80401644D01*
X93094551Y-80390201D01*
X93076161Y-80360367D01*
X93070243Y-80349623D01*
X93054859Y-80318151D01*
X93046331Y-80310241D01*
X93044319Y-80307531D01*
X93042049Y-80305027D01*
X93035945Y-80295125D01*
X93026686Y-80288084D01*
X93026682Y-80288080D01*
X93008068Y-80273926D01*
X92998659Y-80266018D01*
X92972977Y-80242195D01*
X92962170Y-80237884D01*
X92959317Y-80236080D01*
X92956302Y-80234563D01*
X92947042Y-80227522D01*
X92913391Y-80217777D01*
X92901776Y-80213789D01*
X92869241Y-80200809D01*
X92860991Y-80200000D01*
X92857906Y-80200000D01*
X92854840Y-80199850D01*
X92854846Y-80199736D01*
X92850328Y-80199515D01*
X92839763Y-80196456D01*
X92828170Y-80197460D01*
X92828169Y-80197460D01*
X92804270Y-80199530D01*
X92793398Y-80200000D01*
X79060239Y-80200000D01*
X79050328Y-80199516D01*
X79039763Y-80196456D01*
X79028170Y-80197460D01*
X79028169Y-80197460D01*
X79004270Y-80199530D01*
X78993398Y-80200000D01*
X78983153Y-80200000D01*
X78975562Y-80201414D01*
X78963380Y-80203071D01*
X78940080Y-80205089D01*
X78940078Y-80205089D01*
X78928492Y-80206093D01*
X78918042Y-80211201D01*
X78914798Y-80212101D01*
X78911644Y-80213318D01*
X78900201Y-80215449D01*
X78870367Y-80233839D01*
X78859623Y-80239757D01*
X78828151Y-80255141D01*
X78820241Y-80263669D01*
X78817531Y-80265681D01*
X78815027Y-80267951D01*
X78805125Y-80274055D01*
X78798084Y-80283314D01*
X78798080Y-80283318D01*
X78783926Y-80301932D01*
X78776018Y-80311341D01*
X78752195Y-80337023D01*
X78747884Y-80347830D01*
X78746080Y-80350683D01*
X78744563Y-80353698D01*
X78737522Y-80362958D01*
X78727777Y-80396609D01*
X78723789Y-80408224D01*
X78710809Y-80440759D01*
X78710000Y-80449009D01*
X78710000Y-80452094D01*
X78709850Y-80455160D01*
X78709736Y-80455154D01*
X78709515Y-80459672D01*
X78706456Y-80470237D01*
X77312800Y-80470237D01*
X77312800Y-76761421D01*
X77312847Y-76759327D01*
X77312980Y-76757923D01*
X77312801Y-76707554D01*
X77312800Y-76707106D01*
X77312800Y-76681153D01*
X77312710Y-76680672D01*
X77312705Y-76680558D01*
X77265693Y-63470237D01*
X78706456Y-63470237D01*
X78707460Y-63481830D01*
X78707460Y-63481831D01*
X78709530Y-63505730D01*
X78710000Y-63516602D01*
X78710000Y-77249761D01*
X78709516Y-77259672D01*
X78706456Y-77270237D01*
X78707460Y-77281830D01*
X78707460Y-77281831D01*
X78709530Y-77305730D01*
X78710000Y-77316602D01*
X78710000Y-77326847D01*
X78711062Y-77332549D01*
X78711413Y-77334433D01*
X78713071Y-77346620D01*
X78714880Y-77367498D01*
X78716093Y-77381508D01*
X78721201Y-77391958D01*
X78722101Y-77395202D01*
X78723318Y-77398356D01*
X78725449Y-77409799D01*
X78743839Y-77439633D01*
X78749757Y-77450377D01*
X78765141Y-77481849D01*
X78773669Y-77489759D01*
X78775681Y-77492469D01*
X78777951Y-77494973D01*
X78784055Y-77504875D01*
X78793314Y-77511916D01*
X78793318Y-77511920D01*
X78811932Y-77526074D01*
X78821341Y-77533982D01*
X78847023Y-77557805D01*
X78857830Y-77562116D01*
X78860683Y-77563920D01*
X78863698Y-77565437D01*
X78872958Y-77572478D01*
X78906609Y-77582223D01*
X78918224Y-77586211D01*
X78950759Y-77599191D01*
X78959009Y-77600000D01*
X78962094Y-77600000D01*
X78965160Y-77600150D01*
X78965154Y-77600264D01*
X78969672Y-77600485D01*
X78980237Y-77603544D01*
X78991830Y-77602540D01*
X78991831Y-77602540D01*
X79015730Y-77600470D01*
X79026602Y-77600000D01*
X92759761Y-77600000D01*
X92769672Y-77600484D01*
X92780237Y-77603544D01*
X92791830Y-77602540D01*
X92791831Y-77602540D01*
X92815730Y-77600470D01*
X92826602Y-77600000D01*
X92836847Y-77600000D01*
X92844438Y-77598586D01*
X92856620Y-77596929D01*
X92879920Y-77594911D01*
X92879922Y-77594911D01*
X92891508Y-77593907D01*
X92901958Y-77588799D01*
X92905202Y-77587899D01*
X92908356Y-77586682D01*
X92919799Y-77584551D01*
X92949633Y-77566161D01*
X92960377Y-77560243D01*
X92991849Y-77544859D01*
X92999759Y-77536331D01*
X93002469Y-77534319D01*
X93004973Y-77532049D01*
X93014875Y-77525945D01*
X93021916Y-77516686D01*
X93021920Y-77516682D01*
X93036074Y-77498068D01*
X93043982Y-77488659D01*
X93067805Y-77462977D01*
X93072116Y-77452170D01*
X93073920Y-77449317D01*
X93075437Y-77446302D01*
X93082478Y-77437042D01*
X93092223Y-77403391D01*
X93096211Y-77391776D01*
X93109191Y-77359241D01*
X93110000Y-77350991D01*
X93110000Y-77347906D01*
X93110150Y-77344840D01*
X93110264Y-77344846D01*
X93110485Y-77340328D01*
X93113544Y-77329763D01*
X93110470Y-77294269D01*
X93110000Y-77283398D01*
X93110000Y-68470237D01*
X96706456Y-68470237D01*
X96707460Y-68481830D01*
X96707460Y-68481831D01*
X96709530Y-68505730D01*
X96710000Y-68516602D01*
X96710000Y-82249761D01*
X96709516Y-82259672D01*
X96706456Y-82270237D01*
X96707460Y-82281830D01*
X96707460Y-82281831D01*
X96709530Y-82305730D01*
X96710000Y-82316602D01*
X96710000Y-82326847D01*
X96711062Y-82332549D01*
X96711413Y-82334433D01*
X96713071Y-82346620D01*
X96714880Y-82367498D01*
X96716093Y-82381508D01*
X96721201Y-82391958D01*
X96722101Y-82395202D01*
X96723318Y-82398356D01*
X96725449Y-82409799D01*
X96743839Y-82439633D01*
X96749757Y-82450377D01*
X96765141Y-82481849D01*
X96773669Y-82489759D01*
X96775681Y-82492469D01*
X96777951Y-82494973D01*
X96784055Y-82504875D01*
X96793314Y-82511916D01*
X96793318Y-82511920D01*
X96811932Y-82526074D01*
X96821341Y-82533982D01*
X96847023Y-82557805D01*
X96857830Y-82562116D01*
X96860683Y-82563920D01*
X96863698Y-82565437D01*
X96872958Y-82572478D01*
X96906609Y-82582223D01*
X96918224Y-82586211D01*
X96950759Y-82599191D01*
X96959009Y-82600000D01*
X96962094Y-82600000D01*
X96965160Y-82600150D01*
X96965154Y-82600264D01*
X96969672Y-82600485D01*
X96980237Y-82603544D01*
X96991830Y-82602540D01*
X96991831Y-82602540D01*
X97015730Y-82600470D01*
X97026602Y-82600000D01*
X110759761Y-82600000D01*
X110769672Y-82600484D01*
X110780237Y-82603544D01*
X110791830Y-82602540D01*
X110791831Y-82602540D01*
X110815730Y-82600470D01*
X110826602Y-82600000D01*
X110836847Y-82600000D01*
X110844438Y-82598586D01*
X110856620Y-82596929D01*
X110879920Y-82594911D01*
X110879922Y-82594911D01*
X110891508Y-82593907D01*
X110901958Y-82588799D01*
X110905202Y-82587899D01*
X110908356Y-82586682D01*
X110919799Y-82584551D01*
X110949633Y-82566161D01*
X110960377Y-82560243D01*
X110991849Y-82544859D01*
X110999759Y-82536331D01*
X111002469Y-82534319D01*
X111004973Y-82532049D01*
X111014875Y-82525945D01*
X111021916Y-82516686D01*
X111021920Y-82516682D01*
X111036074Y-82498068D01*
X111043982Y-82488659D01*
X111067805Y-82462977D01*
X111072116Y-82452170D01*
X111073920Y-82449317D01*
X111075437Y-82446302D01*
X111082478Y-82437042D01*
X111092223Y-82403391D01*
X111096211Y-82391776D01*
X111109191Y-82359241D01*
X111110000Y-82350991D01*
X111110000Y-82347906D01*
X111110150Y-82344840D01*
X111110264Y-82344846D01*
X111110485Y-82340328D01*
X111113544Y-82329763D01*
X111110470Y-82294269D01*
X111110000Y-82283398D01*
X111110000Y-79470237D01*
X114706456Y-79470237D01*
X114707460Y-79481830D01*
X114707460Y-79481831D01*
X114709530Y-79505730D01*
X114710000Y-79516602D01*
X114710000Y-93249761D01*
X114709516Y-93259672D01*
X114706456Y-93270237D01*
X114707460Y-93281830D01*
X114707460Y-93281831D01*
X114709530Y-93305730D01*
X114710000Y-93316602D01*
X114710000Y-93326847D01*
X114711062Y-93332549D01*
X114711413Y-93334433D01*
X114713071Y-93346620D01*
X114714880Y-93367498D01*
X114716093Y-93381508D01*
X114721201Y-93391958D01*
X114722101Y-93395202D01*
X114723318Y-93398356D01*
X114725449Y-93409799D01*
X114743839Y-93439633D01*
X114749757Y-93450377D01*
X114765141Y-93481849D01*
X114773669Y-93489759D01*
X114775681Y-93492469D01*
X114777951Y-93494973D01*
X114784055Y-93504875D01*
X114793314Y-93511916D01*
X114793318Y-93511920D01*
X114811932Y-93526074D01*
X114821341Y-93533982D01*
X114847023Y-93557805D01*
X114857830Y-93562116D01*
X114860683Y-93563920D01*
X114863698Y-93565437D01*
X114872958Y-93572478D01*
X114906609Y-93582223D01*
X114918224Y-93586211D01*
X114950759Y-93599191D01*
X114959009Y-93600000D01*
X114962094Y-93600000D01*
X114965160Y-93600150D01*
X114965154Y-93600264D01*
X114969672Y-93600485D01*
X114980237Y-93603544D01*
X114991830Y-93602540D01*
X114991831Y-93602540D01*
X115015730Y-93600470D01*
X115026602Y-93600000D01*
X128759761Y-93600000D01*
X128769672Y-93600484D01*
X128780237Y-93603544D01*
X128791830Y-93602540D01*
X128791831Y-93602540D01*
X128815730Y-93600470D01*
X128826602Y-93600000D01*
X128836847Y-93600000D01*
X128844438Y-93598586D01*
X128856620Y-93596929D01*
X128879920Y-93594911D01*
X128879922Y-93594911D01*
X128891508Y-93593907D01*
X128901958Y-93588799D01*
X128905202Y-93587899D01*
X128908356Y-93586682D01*
X128919799Y-93584551D01*
X128949633Y-93566161D01*
X128960377Y-93560243D01*
X128991849Y-93544859D01*
X128999759Y-93536331D01*
X129002469Y-93534319D01*
X129004973Y-93532049D01*
X129014875Y-93525945D01*
X129021916Y-93516686D01*
X129021920Y-93516682D01*
X129036074Y-93498068D01*
X129043982Y-93488659D01*
X129067805Y-93462977D01*
X129072116Y-93452170D01*
X129073920Y-93449317D01*
X129075437Y-93446302D01*
X129082478Y-93437042D01*
X129092223Y-93403391D01*
X129096211Y-93391776D01*
X129109191Y-93359241D01*
X129110000Y-93350991D01*
X129110000Y-93347906D01*
X129110150Y-93344840D01*
X129110264Y-93344846D01*
X129110485Y-93340328D01*
X129113544Y-93329763D01*
X129110470Y-93294269D01*
X129110000Y-93283398D01*
X129110000Y-86095237D01*
X132706456Y-86095237D01*
X132707460Y-86106830D01*
X132707460Y-86106831D01*
X132709530Y-86130730D01*
X132710000Y-86141602D01*
X132710000Y-99874761D01*
X132709516Y-99884672D01*
X132706456Y-99895237D01*
X132707460Y-99906830D01*
X132707460Y-99906831D01*
X132709530Y-99930730D01*
X132710000Y-99941602D01*
X132710000Y-99951847D01*
X132711062Y-99957549D01*
X132711413Y-99959433D01*
X132713071Y-99971620D01*
X132714880Y-99992498D01*
X132716093Y-100006508D01*
X132721201Y-100016958D01*
X132722101Y-100020202D01*
X132723318Y-100023356D01*
X132725449Y-100034799D01*
X132743839Y-100064633D01*
X132749757Y-100075377D01*
X132765141Y-100106849D01*
X132773669Y-100114759D01*
X132775681Y-100117469D01*
X132777951Y-100119973D01*
X132784055Y-100129875D01*
X132793314Y-100136916D01*
X132793318Y-100136920D01*
X132811932Y-100151074D01*
X132821341Y-100158982D01*
X132847023Y-100182805D01*
X132857830Y-100187116D01*
X132860683Y-100188920D01*
X132863698Y-100190437D01*
X132872958Y-100197478D01*
X132906609Y-100207223D01*
X132918224Y-100211211D01*
X132950759Y-100224191D01*
X132959009Y-100225000D01*
X132962094Y-100225000D01*
X132965160Y-100225150D01*
X132965154Y-100225264D01*
X132969672Y-100225485D01*
X132980237Y-100228544D01*
X132991830Y-100227540D01*
X132991831Y-100227540D01*
X133015730Y-100225470D01*
X133026602Y-100225000D01*
X146759761Y-100225000D01*
X146769672Y-100225484D01*
X146780237Y-100228544D01*
X146791830Y-100227540D01*
X146791831Y-100227540D01*
X146815730Y-100225470D01*
X146826602Y-100225000D01*
X146836847Y-100225000D01*
X146844438Y-100223586D01*
X146856620Y-100221929D01*
X146879920Y-100219911D01*
X146879922Y-100219911D01*
X146891508Y-100218907D01*
X146901958Y-100213799D01*
X146905202Y-100212899D01*
X146908356Y-100211682D01*
X146919799Y-100209551D01*
X146949633Y-100191161D01*
X146960377Y-100185243D01*
X146991849Y-100169859D01*
X146999759Y-100161331D01*
X147002469Y-100159319D01*
X147004973Y-100157049D01*
X147014875Y-100150945D01*
X147021916Y-100141686D01*
X147021920Y-100141682D01*
X147036074Y-100123068D01*
X147043982Y-100113659D01*
X147067805Y-100087977D01*
X147072116Y-100077170D01*
X147073920Y-100074317D01*
X147075437Y-100071302D01*
X147082478Y-100062042D01*
X147092223Y-100028391D01*
X147096211Y-100016776D01*
X147109191Y-99984241D01*
X147110000Y-99975991D01*
X147110000Y-99972906D01*
X147110150Y-99969840D01*
X147110264Y-99969846D01*
X147110485Y-99965328D01*
X147113544Y-99954763D01*
X147110470Y-99919269D01*
X147110000Y-99908398D01*
X147110000Y-88470237D01*
X150706456Y-88470237D01*
X150707460Y-88481830D01*
X150707460Y-88481831D01*
X150709530Y-88505730D01*
X150710000Y-88516602D01*
X150710000Y-102249761D01*
X150709516Y-102259672D01*
X150706456Y-102270237D01*
X150707460Y-102281830D01*
X150707460Y-102281831D01*
X150709530Y-102305730D01*
X150710000Y-102316602D01*
X150710000Y-102326847D01*
X150711062Y-102332549D01*
X150711413Y-102334433D01*
X150713071Y-102346620D01*
X150714880Y-102367498D01*
X150716093Y-102381508D01*
X150721201Y-102391958D01*
X150722101Y-102395202D01*
X150723318Y-102398356D01*
X150725449Y-102409799D01*
X150743839Y-102439633D01*
X150749757Y-102450377D01*
X150765141Y-102481849D01*
X150773669Y-102489759D01*
X150775681Y-102492469D01*
X150777951Y-102494973D01*
X150784055Y-102504875D01*
X150793314Y-102511916D01*
X150793318Y-102511920D01*
X150811932Y-102526074D01*
X150821341Y-102533982D01*
X150847023Y-102557805D01*
X150857830Y-102562116D01*
X150860683Y-102563920D01*
X150863698Y-102565437D01*
X150872958Y-102572478D01*
X150906609Y-102582223D01*
X150918224Y-102586211D01*
X150950759Y-102599191D01*
X150959009Y-102600000D01*
X150962094Y-102600000D01*
X150965160Y-102600150D01*
X150965154Y-102600264D01*
X150969672Y-102600485D01*
X150980237Y-102603544D01*
X150991830Y-102602540D01*
X150991831Y-102602540D01*
X151015730Y-102600470D01*
X151026602Y-102600000D01*
X164759761Y-102600000D01*
X164769672Y-102600484D01*
X164780237Y-102603544D01*
X164791830Y-102602540D01*
X164791831Y-102602540D01*
X164815730Y-102600470D01*
X164826602Y-102600000D01*
X164836847Y-102600000D01*
X164844438Y-102598586D01*
X164856620Y-102596929D01*
X164879920Y-102594911D01*
X164879922Y-102594911D01*
X164891508Y-102593907D01*
X164901958Y-102588799D01*
X164905202Y-102587899D01*
X164908356Y-102586682D01*
X164919799Y-102584551D01*
X164949633Y-102566161D01*
X164960377Y-102560243D01*
X164991849Y-102544859D01*
X164999759Y-102536331D01*
X165002469Y-102534319D01*
X165004973Y-102532049D01*
X165014875Y-102525945D01*
X165021916Y-102516686D01*
X165021920Y-102516682D01*
X165036074Y-102498068D01*
X165043982Y-102488659D01*
X165067805Y-102462977D01*
X165072116Y-102452170D01*
X165073920Y-102449317D01*
X165075437Y-102446302D01*
X165082478Y-102437042D01*
X165092223Y-102403391D01*
X165096211Y-102391776D01*
X165109191Y-102359241D01*
X165110000Y-102350991D01*
X165110000Y-102347906D01*
X165110150Y-102344840D01*
X165110264Y-102344846D01*
X165110485Y-102340328D01*
X165113544Y-102329763D01*
X165110470Y-102294269D01*
X165110000Y-102283398D01*
X165110000Y-88550239D01*
X165110484Y-88540328D01*
X165113544Y-88529763D01*
X165110470Y-88494269D01*
X165110000Y-88483398D01*
X165110000Y-88473153D01*
X165108586Y-88465562D01*
X165106929Y-88453380D01*
X165104911Y-88430080D01*
X165104911Y-88430078D01*
X165103907Y-88418492D01*
X165098799Y-88408042D01*
X165097899Y-88404798D01*
X165096682Y-88401644D01*
X165094551Y-88390201D01*
X165076161Y-88360367D01*
X165070243Y-88349623D01*
X165054859Y-88318151D01*
X165046331Y-88310241D01*
X165044319Y-88307531D01*
X165042049Y-88305027D01*
X165035945Y-88295125D01*
X165026686Y-88288084D01*
X165026682Y-88288080D01*
X165008068Y-88273926D01*
X164998659Y-88266018D01*
X164972977Y-88242195D01*
X164962170Y-88237884D01*
X164959317Y-88236080D01*
X164956302Y-88234563D01*
X164947042Y-88227522D01*
X164913391Y-88217777D01*
X164901776Y-88213789D01*
X164869241Y-88200809D01*
X164860991Y-88200000D01*
X164857906Y-88200000D01*
X164854840Y-88199850D01*
X164854846Y-88199736D01*
X164850328Y-88199515D01*
X164839763Y-88196456D01*
X164828170Y-88197460D01*
X164828169Y-88197460D01*
X164804270Y-88199530D01*
X164793398Y-88200000D01*
X151060239Y-88200000D01*
X151050328Y-88199516D01*
X151039763Y-88196456D01*
X151028170Y-88197460D01*
X151028169Y-88197460D01*
X151004270Y-88199530D01*
X150993398Y-88200000D01*
X150983153Y-88200000D01*
X150975562Y-88201414D01*
X150963380Y-88203071D01*
X150940080Y-88205089D01*
X150940078Y-88205089D01*
X150928492Y-88206093D01*
X150918042Y-88211201D01*
X150914798Y-88212101D01*
X150911644Y-88213318D01*
X150900201Y-88215449D01*
X150870367Y-88233839D01*
X150859623Y-88239757D01*
X150828151Y-88255141D01*
X150820241Y-88263669D01*
X150817531Y-88265681D01*
X150815027Y-88267951D01*
X150805125Y-88274055D01*
X150798084Y-88283314D01*
X150798080Y-88283318D01*
X150783926Y-88301932D01*
X150776018Y-88311341D01*
X150752195Y-88337023D01*
X150747884Y-88347830D01*
X150746080Y-88350683D01*
X150744563Y-88353698D01*
X150737522Y-88362958D01*
X150727777Y-88396609D01*
X150723789Y-88408224D01*
X150710809Y-88440759D01*
X150710000Y-88449009D01*
X150710000Y-88452094D01*
X150709850Y-88455160D01*
X150709736Y-88455154D01*
X150709515Y-88459672D01*
X150706456Y-88470237D01*
X147110000Y-88470237D01*
X147110000Y-86175239D01*
X147110484Y-86165328D01*
X147113544Y-86154763D01*
X147110470Y-86119269D01*
X147110000Y-86108398D01*
X147110000Y-86098153D01*
X147108586Y-86090562D01*
X147106929Y-86078380D01*
X147104911Y-86055080D01*
X147104911Y-86055078D01*
X147103907Y-86043492D01*
X147098799Y-86033042D01*
X147097899Y-86029798D01*
X147096682Y-86026644D01*
X147094551Y-86015201D01*
X147076161Y-85985367D01*
X147070243Y-85974623D01*
X147054859Y-85943151D01*
X147046331Y-85935241D01*
X147044319Y-85932531D01*
X147042049Y-85930027D01*
X147035945Y-85920125D01*
X147026686Y-85913084D01*
X147026682Y-85913080D01*
X147008068Y-85898926D01*
X146998659Y-85891018D01*
X146972977Y-85867195D01*
X146962170Y-85862884D01*
X146959317Y-85861080D01*
X146956302Y-85859563D01*
X146947042Y-85852522D01*
X146913391Y-85842777D01*
X146901776Y-85838789D01*
X146869241Y-85825809D01*
X146860991Y-85825000D01*
X146857906Y-85825000D01*
X146854840Y-85824850D01*
X146854846Y-85824736D01*
X146850328Y-85824515D01*
X146839763Y-85821456D01*
X146828170Y-85822460D01*
X146828169Y-85822460D01*
X146804270Y-85824530D01*
X146793398Y-85825000D01*
X133060239Y-85825000D01*
X133050328Y-85824516D01*
X133039763Y-85821456D01*
X133028170Y-85822460D01*
X133028169Y-85822460D01*
X133004270Y-85824530D01*
X132993398Y-85825000D01*
X132983153Y-85825000D01*
X132975562Y-85826414D01*
X132963380Y-85828071D01*
X132940080Y-85830089D01*
X132940078Y-85830089D01*
X132928492Y-85831093D01*
X132918042Y-85836201D01*
X132914798Y-85837101D01*
X132911644Y-85838318D01*
X132900201Y-85840449D01*
X132870367Y-85858839D01*
X132859623Y-85864757D01*
X132828151Y-85880141D01*
X132820241Y-85888669D01*
X132817531Y-85890681D01*
X132815027Y-85892951D01*
X132805125Y-85899055D01*
X132798084Y-85908314D01*
X132798080Y-85908318D01*
X132783926Y-85926932D01*
X132776018Y-85936341D01*
X132752195Y-85962023D01*
X132747884Y-85972830D01*
X132746080Y-85975683D01*
X132744563Y-85978698D01*
X132737522Y-85987958D01*
X132727777Y-86021609D01*
X132723789Y-86033224D01*
X132710809Y-86065759D01*
X132710000Y-86074009D01*
X132710000Y-86077094D01*
X132709850Y-86080160D01*
X132709736Y-86080154D01*
X132709515Y-86084672D01*
X132706456Y-86095237D01*
X129110000Y-86095237D01*
X129110000Y-79550239D01*
X129110484Y-79540328D01*
X129113544Y-79529763D01*
X129110470Y-79494269D01*
X129110000Y-79483398D01*
X129110000Y-79473153D01*
X129108586Y-79465562D01*
X129106929Y-79453380D01*
X129104911Y-79430080D01*
X129104911Y-79430078D01*
X129103907Y-79418492D01*
X129098799Y-79408042D01*
X129097899Y-79404798D01*
X129096682Y-79401644D01*
X129094551Y-79390201D01*
X129076161Y-79360367D01*
X129070243Y-79349623D01*
X129054859Y-79318151D01*
X129046331Y-79310241D01*
X129044319Y-79307531D01*
X129042049Y-79305027D01*
X129035945Y-79295125D01*
X129026686Y-79288084D01*
X129026682Y-79288080D01*
X129008068Y-79273926D01*
X128998659Y-79266018D01*
X128972977Y-79242195D01*
X128962170Y-79237884D01*
X128959317Y-79236080D01*
X128956302Y-79234563D01*
X128947042Y-79227522D01*
X128913391Y-79217777D01*
X128901776Y-79213789D01*
X128869241Y-79200809D01*
X128860991Y-79200000D01*
X128857906Y-79200000D01*
X128854840Y-79199850D01*
X128854846Y-79199736D01*
X128850328Y-79199515D01*
X128839763Y-79196456D01*
X128828170Y-79197460D01*
X128828169Y-79197460D01*
X128804270Y-79199530D01*
X128793398Y-79200000D01*
X115060239Y-79200000D01*
X115050328Y-79199516D01*
X115039763Y-79196456D01*
X115028170Y-79197460D01*
X115028169Y-79197460D01*
X115004270Y-79199530D01*
X114993398Y-79200000D01*
X114983153Y-79200000D01*
X114975562Y-79201414D01*
X114963380Y-79203071D01*
X114940080Y-79205089D01*
X114940078Y-79205089D01*
X114928492Y-79206093D01*
X114918042Y-79211201D01*
X114914798Y-79212101D01*
X114911644Y-79213318D01*
X114900201Y-79215449D01*
X114870367Y-79233839D01*
X114859623Y-79239757D01*
X114828151Y-79255141D01*
X114820241Y-79263669D01*
X114817531Y-79265681D01*
X114815027Y-79267951D01*
X114805125Y-79274055D01*
X114798084Y-79283314D01*
X114798080Y-79283318D01*
X114783926Y-79301932D01*
X114776018Y-79311341D01*
X114752195Y-79337023D01*
X114747884Y-79347830D01*
X114746080Y-79350683D01*
X114744563Y-79353698D01*
X114737522Y-79362958D01*
X114727777Y-79396609D01*
X114723789Y-79408224D01*
X114710809Y-79440759D01*
X114710000Y-79449009D01*
X114710000Y-79452094D01*
X114709850Y-79455160D01*
X114709736Y-79455154D01*
X114709515Y-79459672D01*
X114706456Y-79470237D01*
X111110000Y-79470237D01*
X111110000Y-68550239D01*
X111110484Y-68540328D01*
X111113544Y-68529763D01*
X111112219Y-68514458D01*
X111110470Y-68494270D01*
X111110000Y-68483398D01*
X111110000Y-68473153D01*
X111108586Y-68465562D01*
X111106929Y-68453380D01*
X111104911Y-68430080D01*
X111104911Y-68430078D01*
X111103907Y-68418492D01*
X111098799Y-68408042D01*
X111097899Y-68404798D01*
X111096682Y-68401644D01*
X111094551Y-68390201D01*
X111076161Y-68360367D01*
X111070243Y-68349623D01*
X111054859Y-68318151D01*
X111046331Y-68310241D01*
X111044319Y-68307531D01*
X111042049Y-68305027D01*
X111035945Y-68295125D01*
X111026686Y-68288084D01*
X111026682Y-68288080D01*
X111008068Y-68273926D01*
X110998659Y-68266018D01*
X110972977Y-68242195D01*
X110962170Y-68237884D01*
X110959317Y-68236080D01*
X110956302Y-68234563D01*
X110947042Y-68227522D01*
X110913391Y-68217777D01*
X110901776Y-68213789D01*
X110869241Y-68200809D01*
X110860991Y-68200000D01*
X110857906Y-68200000D01*
X110854840Y-68199850D01*
X110854846Y-68199736D01*
X110850328Y-68199515D01*
X110839763Y-68196456D01*
X110828170Y-68197460D01*
X110828169Y-68197460D01*
X110804270Y-68199530D01*
X110793398Y-68200000D01*
X97060239Y-68200000D01*
X97050328Y-68199516D01*
X97039763Y-68196456D01*
X97028170Y-68197460D01*
X97028169Y-68197460D01*
X97004270Y-68199530D01*
X96993398Y-68200000D01*
X96983153Y-68200000D01*
X96975562Y-68201414D01*
X96963380Y-68203071D01*
X96940080Y-68205089D01*
X96940078Y-68205089D01*
X96928492Y-68206093D01*
X96918042Y-68211201D01*
X96914798Y-68212101D01*
X96911644Y-68213318D01*
X96900201Y-68215449D01*
X96870367Y-68233839D01*
X96859623Y-68239757D01*
X96828151Y-68255141D01*
X96820241Y-68263669D01*
X96817531Y-68265681D01*
X96815027Y-68267951D01*
X96805125Y-68274055D01*
X96798084Y-68283314D01*
X96798080Y-68283318D01*
X96783926Y-68301932D01*
X96776018Y-68311341D01*
X96752195Y-68337023D01*
X96747884Y-68347830D01*
X96746080Y-68350683D01*
X96744563Y-68353698D01*
X96737522Y-68362958D01*
X96727777Y-68396609D01*
X96723789Y-68408224D01*
X96710809Y-68440759D01*
X96710000Y-68449009D01*
X96710000Y-68452094D01*
X96709850Y-68455160D01*
X96709736Y-68455154D01*
X96709515Y-68459672D01*
X96706456Y-68470237D01*
X93110000Y-68470237D01*
X93110000Y-66802000D01*
X93644341Y-66802000D01*
X93664937Y-67037408D01*
X93726097Y-67265663D01*
X93825965Y-67479829D01*
X93961505Y-67673401D01*
X94128599Y-67840495D01*
X94133107Y-67843652D01*
X94133110Y-67843654D01*
X94317661Y-67972878D01*
X94322170Y-67976035D01*
X94327152Y-67978358D01*
X94327157Y-67978361D01*
X94531355Y-68073580D01*
X94536337Y-68075903D01*
X94541645Y-68077325D01*
X94541647Y-68077326D01*
X94759277Y-68135639D01*
X94764592Y-68137063D01*
X95000000Y-68157659D01*
X95235408Y-68137063D01*
X95240723Y-68135639D01*
X95458353Y-68077326D01*
X95458355Y-68077325D01*
X95463663Y-68075903D01*
X95468645Y-68073580D01*
X95672843Y-67978361D01*
X95672848Y-67978358D01*
X95677830Y-67976035D01*
X95682339Y-67972878D01*
X95866890Y-67843654D01*
X95866893Y-67843652D01*
X95871401Y-67840495D01*
X96038495Y-67673401D01*
X96174035Y-67479829D01*
X96273903Y-67265663D01*
X96335063Y-67037408D01*
X96355659Y-66802000D01*
X96335063Y-66566592D01*
X96273903Y-66338337D01*
X96219906Y-66222540D01*
X96176358Y-66129152D01*
X96176356Y-66129149D01*
X96174035Y-66124171D01*
X96038495Y-65930599D01*
X95871401Y-65763505D01*
X95866893Y-65760348D01*
X95866890Y-65760346D01*
X95682339Y-65631122D01*
X95682336Y-65631120D01*
X95677830Y-65627965D01*
X95672848Y-65625642D01*
X95672843Y-65625639D01*
X95468645Y-65530420D01*
X95468644Y-65530419D01*
X95463663Y-65528097D01*
X95458355Y-65526675D01*
X95458353Y-65526674D01*
X95240723Y-65468361D01*
X95240722Y-65468361D01*
X95235408Y-65466937D01*
X95000000Y-65446341D01*
X94764592Y-65466937D01*
X94759278Y-65468361D01*
X94759277Y-65468361D01*
X94541647Y-65526674D01*
X94541645Y-65526675D01*
X94536337Y-65528097D01*
X94531357Y-65530419D01*
X94531355Y-65530420D01*
X94327152Y-65625642D01*
X94327149Y-65625644D01*
X94322171Y-65627965D01*
X94128599Y-65763505D01*
X93961505Y-65930599D01*
X93825965Y-66124171D01*
X93823644Y-66129149D01*
X93823642Y-66129152D01*
X93780094Y-66222540D01*
X93726097Y-66338337D01*
X93664937Y-66566592D01*
X93644341Y-66802000D01*
X93110000Y-66802000D01*
X93110000Y-63550239D01*
X93110484Y-63540328D01*
X93113544Y-63529763D01*
X93110470Y-63494269D01*
X93110000Y-63483398D01*
X93110000Y-63473153D01*
X93108586Y-63465562D01*
X93106929Y-63453380D01*
X93104911Y-63430080D01*
X93104911Y-63430078D01*
X93103907Y-63418492D01*
X93098799Y-63408042D01*
X93097899Y-63404798D01*
X93096682Y-63401644D01*
X93094551Y-63390201D01*
X93076161Y-63360367D01*
X93070243Y-63349623D01*
X93054859Y-63318151D01*
X93046331Y-63310241D01*
X93044319Y-63307531D01*
X93042049Y-63305027D01*
X93035945Y-63295125D01*
X93026686Y-63288084D01*
X93026682Y-63288080D01*
X93008068Y-63273926D01*
X92998659Y-63266018D01*
X92972977Y-63242195D01*
X92962170Y-63237884D01*
X92959317Y-63236080D01*
X92956302Y-63234563D01*
X92947042Y-63227522D01*
X92913391Y-63217777D01*
X92901776Y-63213789D01*
X92869241Y-63200809D01*
X92860991Y-63200000D01*
X92857906Y-63200000D01*
X92854840Y-63199850D01*
X92854846Y-63199736D01*
X92850328Y-63199515D01*
X92839763Y-63196456D01*
X92828170Y-63197460D01*
X92828169Y-63197460D01*
X92804270Y-63199530D01*
X92793398Y-63200000D01*
X79060239Y-63200000D01*
X79050328Y-63199516D01*
X79039763Y-63196456D01*
X79028170Y-63197460D01*
X79028169Y-63197460D01*
X79004270Y-63199530D01*
X78993398Y-63200000D01*
X78983153Y-63200000D01*
X78975562Y-63201414D01*
X78963380Y-63203071D01*
X78940080Y-63205089D01*
X78940078Y-63205089D01*
X78928492Y-63206093D01*
X78918042Y-63211201D01*
X78914798Y-63212101D01*
X78911644Y-63213318D01*
X78900201Y-63215449D01*
X78870367Y-63233839D01*
X78859623Y-63239757D01*
X78828151Y-63255141D01*
X78820241Y-63263669D01*
X78817531Y-63265681D01*
X78815027Y-63267951D01*
X78805125Y-63274055D01*
X78798084Y-63283314D01*
X78798080Y-63283318D01*
X78783926Y-63301932D01*
X78776018Y-63311341D01*
X78752195Y-63337023D01*
X78747884Y-63347830D01*
X78746080Y-63350683D01*
X78744563Y-63353698D01*
X78737522Y-63362958D01*
X78727777Y-63396609D01*
X78723789Y-63408224D01*
X78710809Y-63440759D01*
X78710000Y-63449009D01*
X78710000Y-63452094D01*
X78709850Y-63455160D01*
X78709736Y-63455154D01*
X78709515Y-63459672D01*
X78706456Y-63470237D01*
X77265693Y-63470237D01*
X77262220Y-62494270D01*
X77262134Y-62470166D01*
X77263615Y-62452886D01*
X77263527Y-62450788D01*
X77266628Y-62433201D01*
X77267000Y-62433201D01*
X77265564Y-62416908D01*
X77265980Y-62414486D01*
X77267310Y-62407830D01*
X77270023Y-62395944D01*
X77279346Y-62369304D01*
X77282058Y-62363674D01*
X77297067Y-62339791D01*
X77300963Y-62334906D01*
X77320906Y-62314963D01*
X77325791Y-62311067D01*
X77349674Y-62296058D01*
X77352147Y-62294867D01*
X77355307Y-62293345D01*
X77381946Y-62284022D01*
X77401880Y-62279473D01*
X77401883Y-62279473D01*
X77402011Y-62280031D01*
X77403018Y-62279573D01*
X77419201Y-62281000D01*
X77419201Y-62280628D01*
X77433464Y-62278113D01*
X77433466Y-62278113D01*
X77434114Y-62277999D01*
X77456278Y-62276084D01*
X80061890Y-62281935D01*
X94503393Y-62314365D01*
X94524983Y-62316278D01*
X94540848Y-62319075D01*
X94540848Y-62319447D01*
X94631259Y-62316869D01*
X94642125Y-62314389D01*
X94722437Y-62296058D01*
X94807547Y-62276632D01*
X94934595Y-62215449D01*
X94964084Y-62201248D01*
X94970463Y-62198176D01*
X95111835Y-62085435D01*
X95224576Y-61944063D01*
X95303032Y-61781147D01*
X95343269Y-61604859D01*
X95345847Y-61514448D01*
X95345475Y-61514448D01*
X95343990Y-61506025D01*
X95343990Y-61506018D01*
X95342681Y-61498596D01*
X95340767Y-61476992D01*
X95319197Y-51470237D01*
X96706456Y-51470237D01*
X96707460Y-51481830D01*
X96707460Y-51481831D01*
X96709530Y-51505730D01*
X96710000Y-51516602D01*
X96710000Y-65249761D01*
X96709516Y-65259672D01*
X96706456Y-65270237D01*
X96707460Y-65281830D01*
X96707460Y-65281831D01*
X96709530Y-65305730D01*
X96710000Y-65316602D01*
X96710000Y-65326847D01*
X96711062Y-65332549D01*
X96711413Y-65334433D01*
X96713071Y-65346620D01*
X96714880Y-65367498D01*
X96716093Y-65381508D01*
X96721201Y-65391958D01*
X96722101Y-65395202D01*
X96723318Y-65398356D01*
X96725449Y-65409799D01*
X96743839Y-65439633D01*
X96749757Y-65450377D01*
X96765141Y-65481849D01*
X96773669Y-65489759D01*
X96775681Y-65492469D01*
X96777951Y-65494973D01*
X96784055Y-65504875D01*
X96793314Y-65511916D01*
X96793318Y-65511920D01*
X96811932Y-65526074D01*
X96821341Y-65533982D01*
X96847023Y-65557805D01*
X96857830Y-65562116D01*
X96860683Y-65563920D01*
X96863698Y-65565437D01*
X96872958Y-65572478D01*
X96906609Y-65582223D01*
X96918224Y-65586211D01*
X96950759Y-65599191D01*
X96959009Y-65600000D01*
X96962094Y-65600000D01*
X96965160Y-65600150D01*
X96965154Y-65600264D01*
X96969672Y-65600485D01*
X96980237Y-65603544D01*
X96991830Y-65602540D01*
X96991831Y-65602540D01*
X97015730Y-65600470D01*
X97026602Y-65600000D01*
X110759761Y-65600000D01*
X110769672Y-65600484D01*
X110780237Y-65603544D01*
X110791830Y-65602540D01*
X110791831Y-65602540D01*
X110815730Y-65600470D01*
X110826602Y-65600000D01*
X110836847Y-65600000D01*
X110844438Y-65598586D01*
X110856620Y-65596929D01*
X110879920Y-65594911D01*
X110879922Y-65594911D01*
X110891508Y-65593907D01*
X110901958Y-65588799D01*
X110905202Y-65587899D01*
X110908356Y-65586682D01*
X110919799Y-65584551D01*
X110949633Y-65566161D01*
X110960377Y-65560243D01*
X110991849Y-65544859D01*
X110999759Y-65536331D01*
X111002469Y-65534319D01*
X111004973Y-65532049D01*
X111014875Y-65525945D01*
X111021916Y-65516686D01*
X111021920Y-65516682D01*
X111036074Y-65498068D01*
X111043982Y-65488659D01*
X111067805Y-65462977D01*
X111072116Y-65452170D01*
X111073920Y-65449317D01*
X111075437Y-65446302D01*
X111082478Y-65437042D01*
X111092223Y-65403391D01*
X111096211Y-65391776D01*
X111109191Y-65359241D01*
X111110000Y-65350991D01*
X111110000Y-65347906D01*
X111110150Y-65344840D01*
X111110264Y-65344846D01*
X111110485Y-65340328D01*
X111113544Y-65329763D01*
X111110470Y-65294269D01*
X111110000Y-65283398D01*
X111110000Y-62470237D01*
X114706456Y-62470237D01*
X114707460Y-62481830D01*
X114707460Y-62481831D01*
X114709530Y-62505730D01*
X114710000Y-62516602D01*
X114710000Y-76249761D01*
X114709516Y-76259672D01*
X114706456Y-76270237D01*
X114707460Y-76281830D01*
X114707460Y-76281831D01*
X114709530Y-76305730D01*
X114710000Y-76316602D01*
X114710000Y-76326847D01*
X114711062Y-76332549D01*
X114711413Y-76334433D01*
X114713071Y-76346620D01*
X114714880Y-76367498D01*
X114716093Y-76381508D01*
X114721201Y-76391958D01*
X114722101Y-76395202D01*
X114723318Y-76398356D01*
X114725449Y-76409799D01*
X114743839Y-76439633D01*
X114749757Y-76450377D01*
X114765141Y-76481849D01*
X114773669Y-76489759D01*
X114775681Y-76492469D01*
X114777951Y-76494973D01*
X114784055Y-76504875D01*
X114793314Y-76511916D01*
X114793318Y-76511920D01*
X114811932Y-76526074D01*
X114821341Y-76533982D01*
X114847023Y-76557805D01*
X114857830Y-76562116D01*
X114860683Y-76563920D01*
X114863698Y-76565437D01*
X114872958Y-76572478D01*
X114906609Y-76582223D01*
X114918224Y-76586211D01*
X114950759Y-76599191D01*
X114959009Y-76600000D01*
X114962094Y-76600000D01*
X114965160Y-76600150D01*
X114965154Y-76600264D01*
X114969672Y-76600485D01*
X114980237Y-76603544D01*
X114991830Y-76602540D01*
X114991831Y-76602540D01*
X115015730Y-76600470D01*
X115026602Y-76600000D01*
X128759761Y-76600000D01*
X128769672Y-76600484D01*
X128780237Y-76603544D01*
X128791830Y-76602540D01*
X128791831Y-76602540D01*
X128815730Y-76600470D01*
X128826602Y-76600000D01*
X128836847Y-76600000D01*
X128844438Y-76598586D01*
X128856620Y-76596929D01*
X128879920Y-76594911D01*
X128879922Y-76594911D01*
X128891508Y-76593907D01*
X128901958Y-76588799D01*
X128905202Y-76587899D01*
X128908356Y-76586682D01*
X128919799Y-76584551D01*
X128949633Y-76566161D01*
X128960377Y-76560243D01*
X128991849Y-76544859D01*
X128999759Y-76536331D01*
X129002469Y-76534319D01*
X129004973Y-76532049D01*
X129014875Y-76525945D01*
X129021916Y-76516686D01*
X129021920Y-76516682D01*
X129036074Y-76498068D01*
X129043982Y-76488659D01*
X129067805Y-76462977D01*
X129072116Y-76452170D01*
X129073920Y-76449317D01*
X129075437Y-76446302D01*
X129082478Y-76437042D01*
X129092223Y-76403391D01*
X129096211Y-76391776D01*
X129109191Y-76359241D01*
X129110000Y-76350991D01*
X129110000Y-76347906D01*
X129110150Y-76344840D01*
X129110264Y-76344846D01*
X129110485Y-76340328D01*
X129113544Y-76329763D01*
X129110470Y-76294269D01*
X129110000Y-76283398D01*
X129110000Y-69090237D01*
X132706456Y-69090237D01*
X132707460Y-69101830D01*
X132707460Y-69101831D01*
X132709530Y-69125730D01*
X132710000Y-69136602D01*
X132710000Y-82869761D01*
X132709516Y-82879672D01*
X132706456Y-82890237D01*
X132707460Y-82901830D01*
X132707460Y-82901831D01*
X132709530Y-82925730D01*
X132710000Y-82936602D01*
X132710000Y-82946847D01*
X132711062Y-82952549D01*
X132711413Y-82954433D01*
X132713071Y-82966620D01*
X132714880Y-82987498D01*
X132716093Y-83001508D01*
X132721201Y-83011958D01*
X132722101Y-83015202D01*
X132723318Y-83018356D01*
X132725449Y-83029799D01*
X132743839Y-83059633D01*
X132749757Y-83070377D01*
X132765141Y-83101849D01*
X132773669Y-83109759D01*
X132775681Y-83112469D01*
X132777951Y-83114973D01*
X132784055Y-83124875D01*
X132793314Y-83131916D01*
X132793318Y-83131920D01*
X132811932Y-83146074D01*
X132821341Y-83153982D01*
X132847023Y-83177805D01*
X132857830Y-83182116D01*
X132860683Y-83183920D01*
X132863698Y-83185437D01*
X132872958Y-83192478D01*
X132906609Y-83202223D01*
X132918224Y-83206211D01*
X132950759Y-83219191D01*
X132959009Y-83220000D01*
X132962094Y-83220000D01*
X132965160Y-83220150D01*
X132965154Y-83220264D01*
X132969672Y-83220485D01*
X132980237Y-83223544D01*
X132991830Y-83222540D01*
X132991831Y-83222540D01*
X133015730Y-83220470D01*
X133026602Y-83220000D01*
X146759761Y-83220000D01*
X146769672Y-83220484D01*
X146780237Y-83223544D01*
X146791830Y-83222540D01*
X146791831Y-83222540D01*
X146815730Y-83220470D01*
X146826602Y-83220000D01*
X146836847Y-83220000D01*
X146844438Y-83218586D01*
X146856620Y-83216929D01*
X146879920Y-83214911D01*
X146879922Y-83214911D01*
X146891508Y-83213907D01*
X146901958Y-83208799D01*
X146905202Y-83207899D01*
X146908356Y-83206682D01*
X146919799Y-83204551D01*
X146949633Y-83186161D01*
X146960377Y-83180243D01*
X146991849Y-83164859D01*
X146999759Y-83156331D01*
X147002469Y-83154319D01*
X147004973Y-83152049D01*
X147014875Y-83145945D01*
X147021916Y-83136686D01*
X147021920Y-83136682D01*
X147036074Y-83118068D01*
X147043982Y-83108659D01*
X147067805Y-83082977D01*
X147072116Y-83072170D01*
X147073920Y-83069317D01*
X147075437Y-83066302D01*
X147082478Y-83057042D01*
X147092223Y-83023391D01*
X147096211Y-83011776D01*
X147109191Y-82979241D01*
X147110000Y-82970991D01*
X147110000Y-82967906D01*
X147110150Y-82964840D01*
X147110264Y-82964846D01*
X147110485Y-82960328D01*
X147113544Y-82949763D01*
X147110470Y-82914269D01*
X147110000Y-82903398D01*
X147110000Y-71470237D01*
X150706456Y-71470237D01*
X150707460Y-71481830D01*
X150707460Y-71481831D01*
X150709530Y-71505730D01*
X150710000Y-71516602D01*
X150710000Y-85249761D01*
X150709516Y-85259672D01*
X150706456Y-85270237D01*
X150707460Y-85281830D01*
X150707460Y-85281831D01*
X150709530Y-85305730D01*
X150710000Y-85316602D01*
X150710000Y-85326847D01*
X150711062Y-85332549D01*
X150711413Y-85334433D01*
X150713071Y-85346620D01*
X150714880Y-85367498D01*
X150716093Y-85381508D01*
X150721201Y-85391958D01*
X150722101Y-85395202D01*
X150723318Y-85398356D01*
X150725449Y-85409799D01*
X150743839Y-85439633D01*
X150749757Y-85450377D01*
X150765141Y-85481849D01*
X150773669Y-85489759D01*
X150775681Y-85492469D01*
X150777951Y-85494973D01*
X150784055Y-85504875D01*
X150793314Y-85511916D01*
X150793318Y-85511920D01*
X150811932Y-85526074D01*
X150821341Y-85533982D01*
X150847023Y-85557805D01*
X150857830Y-85562116D01*
X150860683Y-85563920D01*
X150863698Y-85565437D01*
X150872958Y-85572478D01*
X150906609Y-85582223D01*
X150918224Y-85586211D01*
X150950759Y-85599191D01*
X150959009Y-85600000D01*
X150962094Y-85600000D01*
X150965160Y-85600150D01*
X150965154Y-85600264D01*
X150969672Y-85600485D01*
X150980237Y-85603544D01*
X150991830Y-85602540D01*
X150991831Y-85602540D01*
X151015730Y-85600470D01*
X151026602Y-85600000D01*
X164759761Y-85600000D01*
X164769672Y-85600484D01*
X164780237Y-85603544D01*
X164791830Y-85602540D01*
X164791831Y-85602540D01*
X164815730Y-85600470D01*
X164826602Y-85600000D01*
X164836847Y-85600000D01*
X164844438Y-85598586D01*
X164856620Y-85596929D01*
X164879920Y-85594911D01*
X164879922Y-85594911D01*
X164891508Y-85593907D01*
X164901958Y-85588799D01*
X164905202Y-85587899D01*
X164908356Y-85586682D01*
X164919799Y-85584551D01*
X164949633Y-85566161D01*
X164960377Y-85560243D01*
X164991849Y-85544859D01*
X164999759Y-85536331D01*
X165002469Y-85534319D01*
X165004973Y-85532049D01*
X165014875Y-85525945D01*
X165021916Y-85516686D01*
X165021920Y-85516682D01*
X165036074Y-85498068D01*
X165043982Y-85488659D01*
X165067805Y-85462977D01*
X165072116Y-85452171D01*
X165073917Y-85449323D01*
X165075436Y-85446302D01*
X165082478Y-85437042D01*
X165092223Y-85403391D01*
X165096211Y-85391776D01*
X165109191Y-85359241D01*
X165110000Y-85350991D01*
X165110000Y-85347906D01*
X165110150Y-85344840D01*
X165110264Y-85344846D01*
X165110485Y-85340328D01*
X165113544Y-85329763D01*
X165112539Y-85318151D01*
X165110470Y-85294270D01*
X165110000Y-85283398D01*
X165110000Y-71550239D01*
X165110484Y-71540328D01*
X165113544Y-71529763D01*
X165110470Y-71494269D01*
X165110000Y-71483398D01*
X165110000Y-71473153D01*
X165108586Y-71465562D01*
X165106929Y-71453380D01*
X165104911Y-71430080D01*
X165104911Y-71430078D01*
X165103907Y-71418492D01*
X165098799Y-71408042D01*
X165097899Y-71404798D01*
X165096682Y-71401644D01*
X165094551Y-71390201D01*
X165076161Y-71360367D01*
X165070243Y-71349623D01*
X165054859Y-71318151D01*
X165046331Y-71310241D01*
X165044319Y-71307531D01*
X165042049Y-71305027D01*
X165035945Y-71295125D01*
X165026686Y-71288084D01*
X165026682Y-71288080D01*
X165008068Y-71273926D01*
X164998659Y-71266018D01*
X164972977Y-71242195D01*
X164962170Y-71237884D01*
X164959317Y-71236080D01*
X164956302Y-71234563D01*
X164947042Y-71227522D01*
X164913391Y-71217777D01*
X164901776Y-71213789D01*
X164869241Y-71200809D01*
X164860991Y-71200000D01*
X164857906Y-71200000D01*
X164854840Y-71199850D01*
X164854846Y-71199736D01*
X164850328Y-71199515D01*
X164839763Y-71196456D01*
X164828170Y-71197460D01*
X164828169Y-71197460D01*
X164804270Y-71199530D01*
X164793398Y-71200000D01*
X151060239Y-71200000D01*
X151050328Y-71199516D01*
X151039763Y-71196456D01*
X151028170Y-71197460D01*
X151028169Y-71197460D01*
X151004270Y-71199530D01*
X150993398Y-71200000D01*
X150983153Y-71200000D01*
X150975562Y-71201414D01*
X150963380Y-71203071D01*
X150940080Y-71205089D01*
X150940078Y-71205089D01*
X150928492Y-71206093D01*
X150918042Y-71211201D01*
X150914798Y-71212101D01*
X150911644Y-71213318D01*
X150900201Y-71215449D01*
X150870367Y-71233839D01*
X150859623Y-71239757D01*
X150828151Y-71255141D01*
X150820241Y-71263669D01*
X150817531Y-71265681D01*
X150815027Y-71267951D01*
X150805125Y-71274055D01*
X150798084Y-71283314D01*
X150798080Y-71283318D01*
X150783926Y-71301932D01*
X150776018Y-71311341D01*
X150752195Y-71337023D01*
X150747884Y-71347830D01*
X150746080Y-71350683D01*
X150744563Y-71353698D01*
X150737522Y-71362958D01*
X150727777Y-71396609D01*
X150723789Y-71408224D01*
X150710809Y-71440759D01*
X150710000Y-71449009D01*
X150710000Y-71452094D01*
X150709850Y-71455160D01*
X150709736Y-71455154D01*
X150709515Y-71459672D01*
X150706456Y-71470237D01*
X147110000Y-71470237D01*
X147110000Y-69850000D01*
X147615341Y-69850000D01*
X147635937Y-70085408D01*
X147697097Y-70313663D01*
X147796965Y-70527829D01*
X147932505Y-70721401D01*
X148099599Y-70888495D01*
X148104107Y-70891652D01*
X148104110Y-70891654D01*
X148288661Y-71020878D01*
X148293170Y-71024035D01*
X148298152Y-71026358D01*
X148298157Y-71026361D01*
X148502355Y-71121580D01*
X148507337Y-71123903D01*
X148512645Y-71125325D01*
X148512647Y-71125326D01*
X148730277Y-71183639D01*
X148735592Y-71185063D01*
X148971000Y-71205659D01*
X149206408Y-71185063D01*
X149211723Y-71183639D01*
X149429353Y-71125326D01*
X149429355Y-71125325D01*
X149434663Y-71123903D01*
X149439645Y-71121580D01*
X149643843Y-71026361D01*
X149643848Y-71026358D01*
X149648830Y-71024035D01*
X149653339Y-71020878D01*
X149837890Y-70891654D01*
X149837893Y-70891652D01*
X149842401Y-70888495D01*
X150009495Y-70721401D01*
X150145035Y-70527829D01*
X150244903Y-70313663D01*
X150306063Y-70085408D01*
X150326659Y-69850000D01*
X150306063Y-69614592D01*
X150244903Y-69386337D01*
X150145035Y-69172171D01*
X150009495Y-68978599D01*
X149842401Y-68811505D01*
X149837893Y-68808348D01*
X149837890Y-68808346D01*
X149653339Y-68679122D01*
X149653336Y-68679120D01*
X149648830Y-68675965D01*
X149643848Y-68673642D01*
X149643843Y-68673639D01*
X149439645Y-68578420D01*
X149439644Y-68578419D01*
X149434663Y-68576097D01*
X149429355Y-68574675D01*
X149429353Y-68574674D01*
X149211723Y-68516361D01*
X149211722Y-68516361D01*
X149206408Y-68514937D01*
X148971000Y-68494341D01*
X148735592Y-68514937D01*
X148730278Y-68516361D01*
X148730277Y-68516361D01*
X148512647Y-68574674D01*
X148512645Y-68574675D01*
X148507337Y-68576097D01*
X148502357Y-68578419D01*
X148502355Y-68578420D01*
X148298152Y-68673642D01*
X148298149Y-68673644D01*
X148293171Y-68675965D01*
X148099599Y-68811505D01*
X147932505Y-68978599D01*
X147796965Y-69172171D01*
X147697097Y-69386337D01*
X147635937Y-69614592D01*
X147615341Y-69850000D01*
X147110000Y-69850000D01*
X147110000Y-69170239D01*
X147110484Y-69160328D01*
X147113544Y-69149763D01*
X147110470Y-69114269D01*
X147110000Y-69103398D01*
X147110000Y-69093153D01*
X147108586Y-69085562D01*
X147106929Y-69073380D01*
X147104911Y-69050080D01*
X147104911Y-69050078D01*
X147103907Y-69038492D01*
X147098799Y-69028042D01*
X147097899Y-69024798D01*
X147096682Y-69021644D01*
X147094551Y-69010201D01*
X147076161Y-68980367D01*
X147070243Y-68969623D01*
X147054859Y-68938151D01*
X147046331Y-68930241D01*
X147044319Y-68927531D01*
X147042049Y-68925027D01*
X147035945Y-68915125D01*
X147026686Y-68908084D01*
X147026682Y-68908080D01*
X147008068Y-68893926D01*
X146998659Y-68886018D01*
X146972977Y-68862195D01*
X146962170Y-68857884D01*
X146959317Y-68856080D01*
X146956302Y-68854563D01*
X146947042Y-68847522D01*
X146913391Y-68837777D01*
X146901776Y-68833789D01*
X146869241Y-68820809D01*
X146860991Y-68820000D01*
X146857906Y-68820000D01*
X146854840Y-68819850D01*
X146854846Y-68819736D01*
X146850328Y-68819515D01*
X146839763Y-68816456D01*
X146828170Y-68817460D01*
X146828169Y-68817460D01*
X146804270Y-68819530D01*
X146793398Y-68820000D01*
X133060239Y-68820000D01*
X133050328Y-68819516D01*
X133039763Y-68816456D01*
X133028170Y-68817460D01*
X133028169Y-68817460D01*
X133004270Y-68819530D01*
X132993398Y-68820000D01*
X132983153Y-68820000D01*
X132975562Y-68821414D01*
X132963380Y-68823071D01*
X132940080Y-68825089D01*
X132940078Y-68825089D01*
X132928492Y-68826093D01*
X132918042Y-68831201D01*
X132914798Y-68832101D01*
X132911644Y-68833318D01*
X132900201Y-68835449D01*
X132870367Y-68853839D01*
X132859623Y-68859757D01*
X132828151Y-68875141D01*
X132820241Y-68883669D01*
X132817531Y-68885681D01*
X132815027Y-68887951D01*
X132805125Y-68894055D01*
X132798084Y-68903314D01*
X132798080Y-68903318D01*
X132783926Y-68921932D01*
X132776018Y-68931341D01*
X132752195Y-68957023D01*
X132747884Y-68967830D01*
X132746080Y-68970683D01*
X132744563Y-68973698D01*
X132737522Y-68982958D01*
X132727777Y-69016609D01*
X132723789Y-69028224D01*
X132710809Y-69060759D01*
X132710000Y-69069009D01*
X132710000Y-69072094D01*
X132709850Y-69075160D01*
X132709736Y-69075154D01*
X132709515Y-69079672D01*
X132706456Y-69090237D01*
X129110000Y-69090237D01*
X129110000Y-62550239D01*
X129110484Y-62540328D01*
X129113544Y-62529763D01*
X129110470Y-62494269D01*
X129110000Y-62483398D01*
X129110000Y-62473153D01*
X129108586Y-62465562D01*
X129106929Y-62453380D01*
X129104911Y-62430080D01*
X129104911Y-62430078D01*
X129103907Y-62418492D01*
X129098799Y-62408042D01*
X129097899Y-62404798D01*
X129096682Y-62401644D01*
X129094551Y-62390201D01*
X129076161Y-62360367D01*
X129070243Y-62349623D01*
X129054859Y-62318151D01*
X129046331Y-62310241D01*
X129044319Y-62307531D01*
X129042049Y-62305027D01*
X129035945Y-62295125D01*
X129026686Y-62288084D01*
X129026682Y-62288080D01*
X129008068Y-62273926D01*
X128998659Y-62266018D01*
X128972977Y-62242195D01*
X128962170Y-62237884D01*
X128959317Y-62236080D01*
X128956302Y-62234563D01*
X128947042Y-62227522D01*
X128913391Y-62217777D01*
X128901776Y-62213789D01*
X128869241Y-62200809D01*
X128860991Y-62200000D01*
X128857906Y-62200000D01*
X128854840Y-62199850D01*
X128854846Y-62199736D01*
X128850328Y-62199515D01*
X128839763Y-62196456D01*
X128828170Y-62197460D01*
X128828169Y-62197460D01*
X128804270Y-62199530D01*
X128793398Y-62200000D01*
X115060239Y-62200000D01*
X115050328Y-62199516D01*
X115039763Y-62196456D01*
X115028170Y-62197460D01*
X115028169Y-62197460D01*
X115004270Y-62199530D01*
X114993398Y-62200000D01*
X114983153Y-62200000D01*
X114975562Y-62201414D01*
X114963380Y-62203071D01*
X114940080Y-62205089D01*
X114940078Y-62205089D01*
X114928492Y-62206093D01*
X114918042Y-62211201D01*
X114914798Y-62212101D01*
X114911644Y-62213318D01*
X114900201Y-62215449D01*
X114870367Y-62233839D01*
X114859623Y-62239757D01*
X114828151Y-62255141D01*
X114820241Y-62263669D01*
X114817531Y-62265681D01*
X114815027Y-62267951D01*
X114805125Y-62274055D01*
X114798084Y-62283314D01*
X114798080Y-62283318D01*
X114783926Y-62301932D01*
X114776018Y-62311341D01*
X114752195Y-62337023D01*
X114747884Y-62347830D01*
X114746080Y-62350683D01*
X114744563Y-62353698D01*
X114737522Y-62362958D01*
X114727777Y-62396609D01*
X114723789Y-62408224D01*
X114710809Y-62440759D01*
X114710000Y-62449009D01*
X114710000Y-62452094D01*
X114709850Y-62455160D01*
X114709736Y-62455154D01*
X114709515Y-62459672D01*
X114706456Y-62470237D01*
X111110000Y-62470237D01*
X111110000Y-51550239D01*
X111110484Y-51540328D01*
X111113544Y-51529763D01*
X111110470Y-51494269D01*
X111110000Y-51483398D01*
X111110000Y-51473153D01*
X111108586Y-51465562D01*
X111106929Y-51453380D01*
X111104911Y-51430080D01*
X111104911Y-51430078D01*
X111103907Y-51418492D01*
X111098799Y-51408042D01*
X111097899Y-51404798D01*
X111096682Y-51401644D01*
X111094551Y-51390201D01*
X111076161Y-51360367D01*
X111070243Y-51349623D01*
X111054859Y-51318151D01*
X111046331Y-51310241D01*
X111044319Y-51307531D01*
X111042049Y-51305027D01*
X111035945Y-51295125D01*
X111026686Y-51288084D01*
X111026682Y-51288080D01*
X111008068Y-51273926D01*
X110998659Y-51266018D01*
X110972977Y-51242195D01*
X110962170Y-51237884D01*
X110959317Y-51236080D01*
X110956302Y-51234563D01*
X110947042Y-51227522D01*
X110913391Y-51217777D01*
X110901776Y-51213789D01*
X110869241Y-51200809D01*
X110860991Y-51200000D01*
X110857906Y-51200000D01*
X110854840Y-51199850D01*
X110854846Y-51199736D01*
X110850328Y-51199515D01*
X110839763Y-51196456D01*
X110828170Y-51197460D01*
X110828169Y-51197460D01*
X110804270Y-51199530D01*
X110793398Y-51200000D01*
X97060239Y-51200000D01*
X97050328Y-51199516D01*
X97039763Y-51196456D01*
X97028170Y-51197460D01*
X97028169Y-51197460D01*
X97004270Y-51199530D01*
X96993398Y-51200000D01*
X96983153Y-51200000D01*
X96975562Y-51201414D01*
X96963380Y-51203071D01*
X96940080Y-51205089D01*
X96940078Y-51205089D01*
X96928492Y-51206093D01*
X96918042Y-51211201D01*
X96914798Y-51212101D01*
X96911644Y-51213318D01*
X96900201Y-51215449D01*
X96870367Y-51233839D01*
X96859623Y-51239757D01*
X96828151Y-51255141D01*
X96820241Y-51263669D01*
X96817531Y-51265681D01*
X96815027Y-51267951D01*
X96805125Y-51274055D01*
X96798084Y-51283314D01*
X96798080Y-51283318D01*
X96783926Y-51301932D01*
X96776018Y-51311341D01*
X96752195Y-51337023D01*
X96747884Y-51347830D01*
X96746080Y-51350683D01*
X96744563Y-51353698D01*
X96737522Y-51362958D01*
X96727777Y-51396609D01*
X96723789Y-51408224D01*
X96710809Y-51440759D01*
X96710000Y-51449009D01*
X96710000Y-51452094D01*
X96709850Y-51455160D01*
X96709736Y-51455154D01*
X96709515Y-51459672D01*
X96706456Y-51470237D01*
X95319197Y-51470237D01*
X95318412Y-51106292D01*
X95317200Y-50543910D01*
X95319114Y-50521759D01*
X95321748Y-50506821D01*
X95322120Y-50506821D01*
X95321248Y-50491488D01*
X95324056Y-50476547D01*
X95324831Y-50467316D01*
X95327544Y-50455430D01*
X95336862Y-50428801D01*
X95343731Y-50414537D01*
X95358744Y-50390645D01*
X95368616Y-50378266D01*
X95388566Y-50358316D01*
X95400945Y-50348444D01*
X95424837Y-50333431D01*
X95439101Y-50326562D01*
X95465728Y-50317245D01*
X95477619Y-50314531D01*
X95485995Y-50313827D01*
X95499033Y-50310791D01*
X95517121Y-50311820D01*
X95517121Y-50311448D01*
X95532513Y-50308734D01*
X95554392Y-50306820D01*
X112509850Y-50306820D01*
X112531729Y-50308734D01*
X112547121Y-50311448D01*
X112547121Y-50311820D01*
X112637532Y-50309242D01*
X112648144Y-50306820D01*
X112683191Y-50298821D01*
X112813820Y-50269005D01*
X112976736Y-50190549D01*
X113118108Y-50077808D01*
X113230849Y-49936436D01*
X113309305Y-49773520D01*
X113349542Y-49597232D01*
X113352120Y-49506821D01*
X113351748Y-49506821D01*
X113348905Y-49490695D01*
X113346992Y-49469252D01*
X113333181Y-45470237D01*
X114706456Y-45470237D01*
X114707460Y-45481830D01*
X114707460Y-45481831D01*
X114709530Y-45505730D01*
X114710000Y-45516602D01*
X114710000Y-59249761D01*
X114709516Y-59259672D01*
X114706456Y-59270237D01*
X114707460Y-59281830D01*
X114707460Y-59281831D01*
X114709530Y-59305730D01*
X114710000Y-59316602D01*
X114710000Y-59326847D01*
X114711062Y-59332549D01*
X114711413Y-59334433D01*
X114713071Y-59346620D01*
X114714880Y-59367498D01*
X114716093Y-59381508D01*
X114721201Y-59391958D01*
X114722101Y-59395202D01*
X114723318Y-59398356D01*
X114725449Y-59409799D01*
X114743839Y-59439633D01*
X114749757Y-59450377D01*
X114765141Y-59481849D01*
X114773669Y-59489759D01*
X114775681Y-59492469D01*
X114777951Y-59494973D01*
X114784055Y-59504875D01*
X114793314Y-59511916D01*
X114793318Y-59511920D01*
X114811932Y-59526074D01*
X114821341Y-59533982D01*
X114847023Y-59557805D01*
X114857830Y-59562116D01*
X114860683Y-59563920D01*
X114863698Y-59565437D01*
X114872958Y-59572478D01*
X114906609Y-59582223D01*
X114918224Y-59586211D01*
X114950759Y-59599191D01*
X114959009Y-59600000D01*
X114962094Y-59600000D01*
X114965160Y-59600150D01*
X114965154Y-59600264D01*
X114969672Y-59600485D01*
X114980237Y-59603544D01*
X114991830Y-59602540D01*
X114991831Y-59602540D01*
X115015730Y-59600470D01*
X115026602Y-59600000D01*
X128759761Y-59600000D01*
X128769672Y-59600484D01*
X128780237Y-59603544D01*
X128791830Y-59602540D01*
X128791831Y-59602540D01*
X128815730Y-59600470D01*
X128826602Y-59600000D01*
X128836847Y-59600000D01*
X128844438Y-59598586D01*
X128856620Y-59596929D01*
X128879920Y-59594911D01*
X128879922Y-59594911D01*
X128891508Y-59593907D01*
X128901958Y-59588799D01*
X128905202Y-59587899D01*
X128908356Y-59586682D01*
X128919799Y-59584551D01*
X128949633Y-59566161D01*
X128960377Y-59560243D01*
X128991849Y-59544859D01*
X128999759Y-59536331D01*
X129002469Y-59534319D01*
X129004973Y-59532049D01*
X129014875Y-59525945D01*
X129021916Y-59516686D01*
X129021920Y-59516682D01*
X129036074Y-59498068D01*
X129043982Y-59488659D01*
X129067805Y-59462977D01*
X129072116Y-59452170D01*
X129073920Y-59449317D01*
X129075437Y-59446302D01*
X129082478Y-59437042D01*
X129092223Y-59403391D01*
X129096211Y-59391776D01*
X129109191Y-59359241D01*
X129110000Y-59350991D01*
X129110000Y-59347906D01*
X129110150Y-59344840D01*
X129110264Y-59344846D01*
X129110485Y-59340328D01*
X129113544Y-59329763D01*
X129110470Y-59294269D01*
X129110000Y-59283398D01*
X129110000Y-52090237D01*
X132706456Y-52090237D01*
X132707460Y-52101830D01*
X132707460Y-52101831D01*
X132709530Y-52125730D01*
X132710000Y-52136602D01*
X132710000Y-65869761D01*
X132709516Y-65879672D01*
X132706456Y-65890237D01*
X132707460Y-65901830D01*
X132707460Y-65901831D01*
X132709530Y-65925730D01*
X132710000Y-65936602D01*
X132710000Y-65946847D01*
X132711062Y-65952549D01*
X132711413Y-65954433D01*
X132713071Y-65966620D01*
X132714880Y-65987498D01*
X132716093Y-66001508D01*
X132721201Y-66011958D01*
X132722101Y-66015202D01*
X132723318Y-66018356D01*
X132725449Y-66029799D01*
X132743839Y-66059633D01*
X132749757Y-66070377D01*
X132765141Y-66101849D01*
X132773669Y-66109759D01*
X132775681Y-66112469D01*
X132777951Y-66114973D01*
X132784055Y-66124875D01*
X132793314Y-66131916D01*
X132793318Y-66131920D01*
X132811932Y-66146074D01*
X132821341Y-66153982D01*
X132847023Y-66177805D01*
X132857830Y-66182116D01*
X132860683Y-66183920D01*
X132863698Y-66185437D01*
X132872958Y-66192478D01*
X132906609Y-66202223D01*
X132918224Y-66206211D01*
X132950759Y-66219191D01*
X132959009Y-66220000D01*
X132962094Y-66220000D01*
X132965160Y-66220150D01*
X132965154Y-66220264D01*
X132969672Y-66220485D01*
X132980237Y-66223544D01*
X132991830Y-66222540D01*
X132991831Y-66222540D01*
X133015730Y-66220470D01*
X133026602Y-66220000D01*
X146759761Y-66220000D01*
X146769672Y-66220484D01*
X146780237Y-66223544D01*
X146791830Y-66222540D01*
X146791831Y-66222540D01*
X146815730Y-66220470D01*
X146826602Y-66220000D01*
X146836847Y-66220000D01*
X146844438Y-66218586D01*
X146856620Y-66216929D01*
X146879920Y-66214911D01*
X146879922Y-66214911D01*
X146891508Y-66213907D01*
X146901958Y-66208799D01*
X146905202Y-66207899D01*
X146908356Y-66206682D01*
X146919799Y-66204551D01*
X146949633Y-66186161D01*
X146960377Y-66180243D01*
X146991849Y-66164859D01*
X146999759Y-66156331D01*
X147002469Y-66154319D01*
X147004973Y-66152049D01*
X147014875Y-66145945D01*
X147021916Y-66136686D01*
X147021920Y-66136682D01*
X147036074Y-66118068D01*
X147043982Y-66108659D01*
X147067805Y-66082977D01*
X147072116Y-66072170D01*
X147073920Y-66069317D01*
X147075437Y-66066302D01*
X147082478Y-66057042D01*
X147092223Y-66023391D01*
X147096211Y-66011776D01*
X147109191Y-65979241D01*
X147110000Y-65970991D01*
X147110000Y-65967906D01*
X147110150Y-65964840D01*
X147110264Y-65964846D01*
X147110485Y-65960328D01*
X147113544Y-65949763D01*
X147110470Y-65914269D01*
X147110000Y-65903398D01*
X147110000Y-54470237D01*
X150706456Y-54470237D01*
X150707460Y-54481830D01*
X150707460Y-54481831D01*
X150709530Y-54505730D01*
X150710000Y-54516602D01*
X150710000Y-68249761D01*
X150709516Y-68259672D01*
X150706456Y-68270237D01*
X150707460Y-68281830D01*
X150707460Y-68281831D01*
X150709530Y-68305730D01*
X150710000Y-68316602D01*
X150710000Y-68326847D01*
X150711062Y-68332549D01*
X150711413Y-68334433D01*
X150713071Y-68346620D01*
X150714880Y-68367498D01*
X150716093Y-68381508D01*
X150721201Y-68391958D01*
X150722101Y-68395202D01*
X150723318Y-68398356D01*
X150725449Y-68409799D01*
X150743839Y-68439633D01*
X150749757Y-68450377D01*
X150765141Y-68481849D01*
X150773669Y-68489759D01*
X150775681Y-68492469D01*
X150777951Y-68494973D01*
X150784055Y-68504875D01*
X150793314Y-68511916D01*
X150793318Y-68511920D01*
X150811932Y-68526074D01*
X150821341Y-68533982D01*
X150847023Y-68557805D01*
X150857830Y-68562116D01*
X150860683Y-68563920D01*
X150863698Y-68565437D01*
X150872958Y-68572478D01*
X150906609Y-68582223D01*
X150918224Y-68586211D01*
X150950759Y-68599191D01*
X150959009Y-68600000D01*
X150962094Y-68600000D01*
X150965160Y-68600150D01*
X150965154Y-68600264D01*
X150969672Y-68600485D01*
X150980237Y-68603544D01*
X150991830Y-68602540D01*
X150991831Y-68602540D01*
X151015730Y-68600470D01*
X151026602Y-68600000D01*
X164759761Y-68600000D01*
X164769672Y-68600484D01*
X164780237Y-68603544D01*
X164791830Y-68602540D01*
X164791831Y-68602540D01*
X164815730Y-68600470D01*
X164826602Y-68600000D01*
X164836847Y-68600000D01*
X164844438Y-68598586D01*
X164856620Y-68596929D01*
X164879920Y-68594911D01*
X164879922Y-68594911D01*
X164891508Y-68593907D01*
X164901958Y-68588799D01*
X164905202Y-68587899D01*
X164908356Y-68586682D01*
X164919799Y-68584551D01*
X164949633Y-68566161D01*
X164960377Y-68560243D01*
X164991849Y-68544859D01*
X164999759Y-68536331D01*
X165002469Y-68534319D01*
X165004973Y-68532049D01*
X165014875Y-68525945D01*
X165021916Y-68516686D01*
X165021920Y-68516682D01*
X165036074Y-68498068D01*
X165043982Y-68488659D01*
X165067805Y-68462977D01*
X165072116Y-68452171D01*
X165073917Y-68449323D01*
X165075436Y-68446302D01*
X165082478Y-68437042D01*
X165092223Y-68403391D01*
X165096211Y-68391776D01*
X165109191Y-68359241D01*
X165110000Y-68350991D01*
X165110000Y-68347906D01*
X165110150Y-68344840D01*
X165110264Y-68344846D01*
X165110485Y-68340328D01*
X165113544Y-68329763D01*
X165112539Y-68318151D01*
X165110470Y-68294270D01*
X165110000Y-68283398D01*
X165110000Y-54550239D01*
X165110484Y-54540328D01*
X165113544Y-54529763D01*
X165110470Y-54494269D01*
X165110000Y-54483398D01*
X165110000Y-54473153D01*
X165108586Y-54465562D01*
X165106929Y-54453380D01*
X165104911Y-54430080D01*
X165104911Y-54430078D01*
X165103907Y-54418492D01*
X165098799Y-54408042D01*
X165097899Y-54404798D01*
X165096682Y-54401644D01*
X165094551Y-54390201D01*
X165076161Y-54360367D01*
X165070243Y-54349623D01*
X165054859Y-54318151D01*
X165046331Y-54310241D01*
X165044319Y-54307531D01*
X165042049Y-54305027D01*
X165035945Y-54295125D01*
X165026686Y-54288084D01*
X165026682Y-54288080D01*
X165008068Y-54273926D01*
X164998659Y-54266018D01*
X164972977Y-54242195D01*
X164962170Y-54237884D01*
X164959317Y-54236080D01*
X164956302Y-54234563D01*
X164947042Y-54227522D01*
X164913391Y-54217777D01*
X164901776Y-54213789D01*
X164869241Y-54200809D01*
X164860991Y-54200000D01*
X164857906Y-54200000D01*
X164854840Y-54199850D01*
X164854846Y-54199736D01*
X164850328Y-54199515D01*
X164839763Y-54196456D01*
X164828170Y-54197460D01*
X164828169Y-54197460D01*
X164804270Y-54199530D01*
X164793398Y-54200000D01*
X151060239Y-54200000D01*
X151050328Y-54199516D01*
X151039763Y-54196456D01*
X151028170Y-54197460D01*
X151028169Y-54197460D01*
X151004270Y-54199530D01*
X150993398Y-54200000D01*
X150983153Y-54200000D01*
X150975562Y-54201414D01*
X150963380Y-54203071D01*
X150940080Y-54205089D01*
X150940078Y-54205089D01*
X150928492Y-54206093D01*
X150918042Y-54211201D01*
X150914798Y-54212101D01*
X150911644Y-54213318D01*
X150900201Y-54215449D01*
X150870367Y-54233839D01*
X150859623Y-54239757D01*
X150828151Y-54255141D01*
X150820241Y-54263669D01*
X150817531Y-54265681D01*
X150815027Y-54267951D01*
X150805125Y-54274055D01*
X150798084Y-54283314D01*
X150798080Y-54283318D01*
X150783926Y-54301932D01*
X150776018Y-54311341D01*
X150752195Y-54337023D01*
X150747884Y-54347830D01*
X150746080Y-54350683D01*
X150744563Y-54353698D01*
X150737522Y-54362958D01*
X150727777Y-54396609D01*
X150723789Y-54408224D01*
X150710809Y-54440759D01*
X150710000Y-54449009D01*
X150710000Y-54452094D01*
X150709850Y-54455160D01*
X150709736Y-54455154D01*
X150709515Y-54459672D01*
X150706456Y-54470237D01*
X147110000Y-54470237D01*
X147110000Y-52170239D01*
X147110484Y-52160328D01*
X147113544Y-52149763D01*
X147110470Y-52114269D01*
X147110000Y-52103398D01*
X147110000Y-52093153D01*
X147108586Y-52085562D01*
X147106929Y-52073380D01*
X147104911Y-52050080D01*
X147104911Y-52050078D01*
X147103907Y-52038492D01*
X147098799Y-52028042D01*
X147097899Y-52024798D01*
X147096682Y-52021644D01*
X147094551Y-52010201D01*
X147076161Y-51980367D01*
X147070243Y-51969623D01*
X147054859Y-51938151D01*
X147046331Y-51930241D01*
X147044319Y-51927531D01*
X147042049Y-51925027D01*
X147035945Y-51915125D01*
X147026686Y-51908084D01*
X147026682Y-51908080D01*
X147008068Y-51893926D01*
X146998659Y-51886018D01*
X146972977Y-51862195D01*
X146962170Y-51857884D01*
X146959317Y-51856080D01*
X146956302Y-51854563D01*
X146947042Y-51847522D01*
X146913391Y-51837777D01*
X146901776Y-51833789D01*
X146869241Y-51820809D01*
X146860991Y-51820000D01*
X146857906Y-51820000D01*
X146854840Y-51819850D01*
X146854846Y-51819736D01*
X146850328Y-51819515D01*
X146839763Y-51816456D01*
X146828170Y-51817460D01*
X146828169Y-51817460D01*
X146804270Y-51819530D01*
X146793398Y-51820000D01*
X133060239Y-51820000D01*
X133050328Y-51819516D01*
X133039763Y-51816456D01*
X133028170Y-51817460D01*
X133028169Y-51817460D01*
X133004270Y-51819530D01*
X132993398Y-51820000D01*
X132983153Y-51820000D01*
X132975562Y-51821414D01*
X132963380Y-51823071D01*
X132940080Y-51825089D01*
X132940078Y-51825089D01*
X132928492Y-51826093D01*
X132918042Y-51831201D01*
X132914798Y-51832101D01*
X132911644Y-51833318D01*
X132900201Y-51835449D01*
X132870367Y-51853839D01*
X132859623Y-51859757D01*
X132828151Y-51875141D01*
X132820241Y-51883669D01*
X132817531Y-51885681D01*
X132815027Y-51887951D01*
X132805125Y-51894055D01*
X132798084Y-51903314D01*
X132798080Y-51903318D01*
X132783926Y-51921932D01*
X132776018Y-51931341D01*
X132752195Y-51957023D01*
X132747884Y-51967830D01*
X132746080Y-51970683D01*
X132744563Y-51973698D01*
X132737522Y-51982958D01*
X132727777Y-52016609D01*
X132723789Y-52028224D01*
X132710809Y-52060759D01*
X132710000Y-52069009D01*
X132710000Y-52072094D01*
X132709850Y-52075160D01*
X132709736Y-52075154D01*
X132709515Y-52079672D01*
X132706456Y-52090237D01*
X129110000Y-52090237D01*
X129110000Y-45550239D01*
X129110484Y-45540328D01*
X129113544Y-45529763D01*
X129110470Y-45494269D01*
X129110000Y-45483398D01*
X129110000Y-45473153D01*
X129108586Y-45465562D01*
X129106929Y-45453380D01*
X129104911Y-45430080D01*
X129104911Y-45430078D01*
X129103907Y-45418492D01*
X129098799Y-45408042D01*
X129097899Y-45404798D01*
X129096682Y-45401644D01*
X129094551Y-45390201D01*
X129076161Y-45360367D01*
X129070243Y-45349623D01*
X129054859Y-45318151D01*
X129046331Y-45310241D01*
X129044319Y-45307531D01*
X129042049Y-45305027D01*
X129035945Y-45295125D01*
X129026686Y-45288084D01*
X129026682Y-45288080D01*
X129008068Y-45273926D01*
X128998659Y-45266018D01*
X128972977Y-45242195D01*
X128962170Y-45237884D01*
X128959317Y-45236080D01*
X128956302Y-45234563D01*
X128947042Y-45227522D01*
X128913391Y-45217777D01*
X128901776Y-45213789D01*
X128869241Y-45200809D01*
X128860991Y-45200000D01*
X128857906Y-45200000D01*
X128854840Y-45199850D01*
X128854846Y-45199736D01*
X128850328Y-45199515D01*
X128839763Y-45196456D01*
X128828170Y-45197460D01*
X128828169Y-45197460D01*
X128804270Y-45199530D01*
X128793398Y-45200000D01*
X115060239Y-45200000D01*
X115050328Y-45199516D01*
X115039763Y-45196456D01*
X115028170Y-45197460D01*
X115028169Y-45197460D01*
X115004270Y-45199530D01*
X114993398Y-45200000D01*
X114983153Y-45200000D01*
X114975562Y-45201414D01*
X114963380Y-45203071D01*
X114940080Y-45205089D01*
X114940078Y-45205089D01*
X114928492Y-45206093D01*
X114918042Y-45211201D01*
X114914798Y-45212101D01*
X114911644Y-45213318D01*
X114900201Y-45215449D01*
X114870367Y-45233839D01*
X114859623Y-45239757D01*
X114828151Y-45255141D01*
X114820241Y-45263669D01*
X114817531Y-45265681D01*
X114815027Y-45267951D01*
X114805125Y-45274055D01*
X114798084Y-45283314D01*
X114798080Y-45283318D01*
X114783926Y-45301932D01*
X114776018Y-45311341D01*
X114752195Y-45337023D01*
X114747884Y-45347830D01*
X114746080Y-45350683D01*
X114744563Y-45353698D01*
X114737522Y-45362958D01*
X114727777Y-45396609D01*
X114723789Y-45408224D01*
X114710809Y-45440759D01*
X114710000Y-45449009D01*
X114710000Y-45452094D01*
X114709850Y-45455160D01*
X114709736Y-45455154D01*
X114709515Y-45459672D01*
X114706456Y-45470237D01*
X113333181Y-45470237D01*
X113330129Y-44586536D01*
X113332042Y-44564223D01*
X113332160Y-44563556D01*
X113332160Y-44563551D01*
X113334628Y-44549554D01*
X113335000Y-44549554D01*
X113334128Y-44534221D01*
X113336936Y-44519280D01*
X113337711Y-44510049D01*
X113338847Y-44505075D01*
X113340425Y-44498161D01*
X113349742Y-44471534D01*
X113356611Y-44457270D01*
X113371624Y-44433378D01*
X113381496Y-44420999D01*
X113401446Y-44401049D01*
X113413825Y-44391177D01*
X113437717Y-44376164D01*
X113451981Y-44369295D01*
X113478608Y-44359978D01*
X113490499Y-44357264D01*
X113498881Y-44356560D01*
X113511918Y-44353524D01*
X113530001Y-44354553D01*
X113530001Y-44354181D01*
X113545568Y-44351436D01*
X113567338Y-44349523D01*
X123455983Y-44341654D01*
X130272796Y-44336230D01*
X130294775Y-44338144D01*
G37*
G04 #@! TD.AperFunction*
M02*
