G04 #@! TF.GenerationSoftware,KiCad,Pcbnew,(5.99.0-11177-g6c67dfa032)*
G04 #@! TF.CreationDate,2021-10-11T00:02:08+03:00*
G04 #@! TF.ProjectId,chocofi-topplate,63686f63-6f66-4692-9d74-6f70706c6174,2.1*
G04 #@! TF.SameCoordinates,Original*
G04 #@! TF.FileFunction,Legend,Bot*
G04 #@! TF.FilePolarity,Positive*
%FSLAX46Y46*%
G04 Gerber Fmt 4.6, Leading zero omitted, Abs format (unit mm)*
G04 Created by KiCad (PCBNEW (5.99.0-11177-g6c67dfa032)) date 2021-10-11 00:02:08*
%MOMM*%
%LPD*%
G01*
G04 APERTURE LIST*
%ADD10C,0.300000*%
%ADD11C,2.700000*%
G04 APERTURE END LIST*
D10*
X125935000Y-98149642D02*
X126077857Y-98221071D01*
X126363571Y-98221071D01*
X126506428Y-98149642D01*
X126577857Y-98078214D01*
X126649285Y-97935357D01*
X126649285Y-97506785D01*
X126577857Y-97363928D01*
X126506428Y-97292500D01*
X126363571Y-97221071D01*
X126077857Y-97221071D01*
X125935000Y-97292500D01*
X125292142Y-98221071D02*
X125292142Y-96721071D01*
X124649285Y-98221071D02*
X124649285Y-97435357D01*
X124720714Y-97292500D01*
X124863571Y-97221071D01*
X125077857Y-97221071D01*
X125220714Y-97292500D01*
X125292142Y-97363928D01*
X123720714Y-98221071D02*
X123863571Y-98149642D01*
X123935000Y-98078214D01*
X124006428Y-97935357D01*
X124006428Y-97506785D01*
X123935000Y-97363928D01*
X123863571Y-97292500D01*
X123720714Y-97221071D01*
X123506428Y-97221071D01*
X123363571Y-97292500D01*
X123292142Y-97363928D01*
X123220714Y-97506785D01*
X123220714Y-97935357D01*
X123292142Y-98078214D01*
X123363571Y-98149642D01*
X123506428Y-98221071D01*
X123720714Y-98221071D01*
X121935000Y-98149642D02*
X122077857Y-98221071D01*
X122363571Y-98221071D01*
X122506428Y-98149642D01*
X122577857Y-98078214D01*
X122649285Y-97935357D01*
X122649285Y-97506785D01*
X122577857Y-97363928D01*
X122506428Y-97292500D01*
X122363571Y-97221071D01*
X122077857Y-97221071D01*
X121935000Y-97292500D01*
X121077857Y-98221071D02*
X121220714Y-98149642D01*
X121292142Y-98078214D01*
X121363571Y-97935357D01*
X121363571Y-97506785D01*
X121292142Y-97363928D01*
X121220714Y-97292500D01*
X121077857Y-97221071D01*
X120863571Y-97221071D01*
X120720714Y-97292500D01*
X120649285Y-97363928D01*
X120577857Y-97506785D01*
X120577857Y-97935357D01*
X120649285Y-98078214D01*
X120720714Y-98149642D01*
X120863571Y-98221071D01*
X121077857Y-98221071D01*
X120149285Y-97221071D02*
X119577857Y-97221071D01*
X119935000Y-98221071D02*
X119935000Y-96935357D01*
X119863571Y-96792500D01*
X119720714Y-96721071D01*
X119577857Y-96721071D01*
X119077857Y-98221071D02*
X119077857Y-97221071D01*
X119077857Y-96721071D02*
X119149285Y-96792500D01*
X119077857Y-96863928D01*
X119006428Y-96792500D01*
X119077857Y-96721071D01*
X119077857Y-96863928D01*
X125649285Y-99921785D02*
X125720714Y-99850357D01*
X125863571Y-99778928D01*
X126006428Y-99778928D01*
X126149285Y-99850357D01*
X126220714Y-99921785D01*
X126292142Y-100064642D01*
X126292142Y-100207500D01*
X126220714Y-100350357D01*
X126149285Y-100421785D01*
X126006428Y-100493214D01*
X125863571Y-100493214D01*
X125720714Y-100421785D01*
X125649285Y-100350357D01*
X125649285Y-99778928D02*
X125649285Y-100350357D01*
X125577857Y-100421785D01*
X125506428Y-100421785D01*
X125363571Y-100350357D01*
X125292142Y-100207500D01*
X125292142Y-99850357D01*
X125435000Y-99636071D01*
X125649285Y-99493214D01*
X125935000Y-99421785D01*
X126220714Y-99493214D01*
X126435000Y-99636071D01*
X126577857Y-99850357D01*
X126649285Y-100136071D01*
X126577857Y-100421785D01*
X126435000Y-100636071D01*
X126220714Y-100778928D01*
X125935000Y-100850357D01*
X125649285Y-100778928D01*
X125435000Y-100636071D01*
X124649285Y-99636071D02*
X124649285Y-101136071D01*
X124649285Y-99707500D02*
X124506428Y-99636071D01*
X124220714Y-99636071D01*
X124077857Y-99707500D01*
X124006428Y-99778928D01*
X123935000Y-99921785D01*
X123935000Y-100350357D01*
X124006428Y-100493214D01*
X124077857Y-100564642D01*
X124220714Y-100636071D01*
X124506428Y-100636071D01*
X124649285Y-100564642D01*
X122649285Y-100636071D02*
X122649285Y-99850357D01*
X122720714Y-99707500D01*
X122863571Y-99636071D01*
X123149285Y-99636071D01*
X123292142Y-99707500D01*
X122649285Y-100564642D02*
X122792142Y-100636071D01*
X123149285Y-100636071D01*
X123292142Y-100564642D01*
X123363571Y-100421785D01*
X123363571Y-100278928D01*
X123292142Y-100136071D01*
X123149285Y-100064642D01*
X122792142Y-100064642D01*
X122649285Y-99993214D01*
X122006428Y-100564642D02*
X121863571Y-100636071D01*
X121577857Y-100636071D01*
X121435000Y-100564642D01*
X121363571Y-100421785D01*
X121363571Y-100350357D01*
X121435000Y-100207500D01*
X121577857Y-100136071D01*
X121792142Y-100136071D01*
X121935000Y-100064642D01*
X122006428Y-99921785D01*
X122006428Y-99850357D01*
X121935000Y-99707500D01*
X121792142Y-99636071D01*
X121577857Y-99636071D01*
X121435000Y-99707500D01*
X120720714Y-100636071D02*
X120720714Y-99136071D01*
X120077857Y-100636071D02*
X120077857Y-99850357D01*
X120149285Y-99707500D01*
X120292142Y-99636071D01*
X120506428Y-99636071D01*
X120649285Y-99707500D01*
X120720714Y-99778928D01*
X118720714Y-99636071D02*
X118720714Y-100636071D01*
X119363571Y-99636071D02*
X119363571Y-100421785D01*
X119292142Y-100564642D01*
X119149285Y-100636071D01*
X118935000Y-100636071D01*
X118792142Y-100564642D01*
X118720714Y-100493214D01*
X118220714Y-99636071D02*
X117649285Y-99636071D01*
X118006428Y-99136071D02*
X118006428Y-100421785D01*
X117935000Y-100564642D01*
X117792142Y-100636071D01*
X117649285Y-100636071D01*
X117149285Y-100636071D02*
X117149285Y-99136071D01*
X117006428Y-100064642D02*
X116577857Y-100636071D01*
X116577857Y-99636071D02*
X117149285Y-100207500D01*
%LPC*%
D11*
X95000000Y-66802000D03*
X148971000Y-69850000D03*
X123952000Y-104140000D03*
X167005000Y-110363000D03*
X95000000Y-83820000D03*
M02*
