G04 #@! TF.GenerationSoftware,KiCad,Pcbnew,(5.99.0-11177-g6c67dfa032)*
G04 #@! TF.CreationDate,2021-10-11T00:02:08+03:00*
G04 #@! TF.ProjectId,chocofi-topplate,63686f63-6f66-4692-9d74-6f70706c6174,2.1*
G04 #@! TF.SameCoordinates,Original*
G04 #@! TF.FileFunction,Profile,NP*
%FSLAX46Y46*%
G04 Gerber Fmt 4.6, Leading zero omitted, Abs format (unit mm)*
G04 Created by KiCad (PCBNEW (5.99.0-11177-g6c67dfa032)) date 2021-10-11 00:02:08*
%MOMM*%
%LPD*%
G01*
G04 APERTURE LIST*
G04 #@! TA.AperFunction,Profile*
%ADD10C,0.150000*%
G04 #@! TD*
G04 #@! TA.AperFunction,Profile*
%ADD11C,0.120000*%
G04 #@! TD*
G04 APERTURE END LIST*
D10*
X94540847Y-62014447D02*
X77419200Y-61976000D01*
X175768000Y-133654800D02*
X188304000Y-111884000D01*
X160477200Y-125984000D02*
X174288668Y-133959600D01*
X125374400Y-121240811D02*
X143154400Y-121259600D01*
X166860000Y-53450000D02*
G75*
G03*
X166360498Y-53055000I-499502J-118325D01*
G01*
X166360498Y-53055000D02*
X149293200Y-53069020D01*
X94540847Y-62014447D02*
G75*
G03*
X95040847Y-61514447I0J500000D01*
G01*
X95517120Y-50006820D02*
G75*
G03*
X95017120Y-50506820I0J-500000D01*
G01*
X130310000Y-44036200D02*
X113530000Y-44049553D01*
X130810000Y-50053400D02*
X130810000Y-44536200D01*
X148293200Y-50569020D02*
X131310000Y-50553400D01*
X148793200Y-52569020D02*
X148793200Y-51069020D01*
X95017120Y-50506820D02*
X95040847Y-61514447D01*
X112547120Y-50006820D02*
X95517120Y-50006820D01*
X113030000Y-44549553D02*
X113047120Y-49506820D01*
X112547120Y-50006820D02*
G75*
G03*
X113047120Y-49506820I0J500000D01*
G01*
X113530000Y-44049553D02*
G75*
G03*
X113030000Y-44549553I0J-500000D01*
G01*
X130810000Y-44536200D02*
G75*
G03*
X130310000Y-44036200I-500000J0D01*
G01*
X130810000Y-50053400D02*
G75*
G03*
X131310000Y-50553400I500000J0D01*
G01*
X148793200Y-51069020D02*
G75*
G03*
X148293200Y-50569020I-500000J0D01*
G01*
X148793200Y-52569020D02*
G75*
G03*
X149293200Y-53069020I500000J0D01*
G01*
X95453200Y-100862652D02*
X112623600Y-100862652D01*
X94843600Y-105562400D02*
X94843600Y-101472252D01*
X113294857Y-101294883D02*
G75*
G03*
X112623600Y-100862652I-671257J-305117D01*
G01*
X125374400Y-121240811D02*
G75*
G02*
X125018800Y-121107200I0J540011D01*
G01*
X175768000Y-133654800D02*
G75*
G02*
X174288668Y-133959599I-1039306J1301890D01*
G01*
X77012800Y-93776800D02*
X77012800Y-110744000D01*
X76962000Y-62433200D02*
X77012800Y-76708000D01*
X166860000Y-53450000D02*
X166890000Y-98740000D01*
X94792800Y-112115600D02*
X94843600Y-105562400D01*
X95453200Y-100862652D02*
G75*
G03*
X94843600Y-101472252I0J-609600D01*
G01*
X166890000Y-98740000D02*
G75*
G03*
X167280000Y-99110000I613910J256555D01*
G01*
X94792800Y-112115600D02*
G75*
G02*
X94132400Y-112776000I-660400J0D01*
G01*
X77012800Y-112115600D02*
X77012800Y-110744000D01*
X188021631Y-111020019D02*
X167280000Y-99110000D01*
X77012800Y-76708000D02*
X77012800Y-93776800D01*
X188021631Y-111020019D02*
G75*
G02*
X188304000Y-111884000I-311631J-579981D01*
G01*
X113294857Y-101294883D02*
X125018800Y-121107200D01*
X76962000Y-62433200D02*
G75*
G02*
X77419200Y-61976000I457200J0D01*
G01*
X77673200Y-112776000D02*
X94132400Y-112776000D01*
X143154400Y-121259600D02*
X160477200Y-125984000D01*
X77673200Y-112776000D02*
G75*
G02*
X77012800Y-112115600I0J660400D01*
G01*
D11*
X79010000Y-63500000D02*
X92810000Y-63500000D01*
X92810000Y-63500000D02*
X92810000Y-77300000D01*
X92810000Y-77300000D02*
X79010000Y-77300000D01*
X79010000Y-77300000D02*
X79010000Y-63500000D01*
X97010000Y-51500000D02*
X110810000Y-51500000D01*
X110810000Y-51500000D02*
X110810000Y-65300000D01*
X110810000Y-65300000D02*
X97010000Y-65300000D01*
X97010000Y-65300000D02*
X97010000Y-51500000D01*
X115010000Y-45500000D02*
X128810000Y-45500000D01*
X128810000Y-45500000D02*
X128810000Y-59300000D01*
X128810000Y-59300000D02*
X115010000Y-59300000D01*
X115010000Y-59300000D02*
X115010000Y-45500000D01*
X133010000Y-52120000D02*
X146810000Y-52120000D01*
X146810000Y-52120000D02*
X146810000Y-65920000D01*
X146810000Y-65920000D02*
X133010000Y-65920000D01*
X133010000Y-65920000D02*
X133010000Y-52120000D01*
X151010000Y-54500000D02*
X164810000Y-54500000D01*
X164810000Y-54500000D02*
X164810000Y-68300000D01*
X164810000Y-68300000D02*
X151010000Y-68300000D01*
X151010000Y-68300000D02*
X151010000Y-54500000D01*
X79010000Y-80500000D02*
X92810000Y-80500000D01*
X92810000Y-80500000D02*
X92810000Y-94300000D01*
X92810000Y-94300000D02*
X79010000Y-94300000D01*
X79010000Y-94300000D02*
X79010000Y-80500000D01*
X97010000Y-68500000D02*
X110810000Y-68500000D01*
X110810000Y-68500000D02*
X110810000Y-82300000D01*
X110810000Y-82300000D02*
X97010000Y-82300000D01*
X97010000Y-82300000D02*
X97010000Y-68500000D01*
X115010000Y-62500000D02*
X128810000Y-62500000D01*
X128810000Y-62500000D02*
X128810000Y-76300000D01*
X128810000Y-76300000D02*
X115010000Y-76300000D01*
X115010000Y-76300000D02*
X115010000Y-62500000D01*
X133010000Y-69120000D02*
X146810000Y-69120000D01*
X146810000Y-69120000D02*
X146810000Y-82920000D01*
X146810000Y-82920000D02*
X133010000Y-82920000D01*
X133010000Y-82920000D02*
X133010000Y-69120000D01*
X151010000Y-71500000D02*
X164810000Y-71500000D01*
X164810000Y-71500000D02*
X164810000Y-85300000D01*
X164810000Y-85300000D02*
X151010000Y-85300000D01*
X151010000Y-85300000D02*
X151010000Y-71500000D01*
X79010000Y-97500000D02*
X92810000Y-97500000D01*
X92810000Y-97500000D02*
X92810000Y-111300000D01*
X92810000Y-111300000D02*
X79010000Y-111300000D01*
X79010000Y-111300000D02*
X79010000Y-97500000D01*
X97010000Y-85500000D02*
X110810000Y-85500000D01*
X110810000Y-85500000D02*
X110810000Y-99300000D01*
X110810000Y-99300000D02*
X97010000Y-99300000D01*
X97010000Y-99300000D02*
X97010000Y-85500000D01*
X115010000Y-79500000D02*
X128810000Y-79500000D01*
X128810000Y-79500000D02*
X128810000Y-93300000D01*
X128810000Y-93300000D02*
X115010000Y-93300000D01*
X115010000Y-93300000D02*
X115010000Y-79500000D01*
X133010000Y-86125000D02*
X146810000Y-86125000D01*
X146810000Y-86125000D02*
X146810000Y-99925000D01*
X146810000Y-99925000D02*
X133010000Y-99925000D01*
X133010000Y-99925000D02*
X133010000Y-86125000D01*
X151010000Y-88500000D02*
X164810000Y-88500000D01*
X164810000Y-88500000D02*
X164810000Y-102300000D01*
X164810000Y-102300000D02*
X151010000Y-102300000D01*
X151010000Y-102300000D02*
X151010000Y-88500000D01*
X140910000Y-119890000D02*
X127110000Y-119890000D01*
X127110000Y-119890000D02*
X127110000Y-106090000D01*
X127110000Y-106090000D02*
X140910000Y-106090000D01*
X140910000Y-106090000D02*
X140910000Y-119890000D01*
X158939037Y-124030740D02*
X145609260Y-120459037D01*
X145609260Y-120459037D02*
X149180963Y-107129260D01*
X149180963Y-107129260D02*
X162510740Y-110700963D01*
X162510740Y-110700963D02*
X158939037Y-124030740D01*
X184085575Y-116264425D02*
X177185575Y-128215575D01*
X177185575Y-128215575D02*
X165234425Y-121315575D01*
X165234425Y-121315575D02*
X172134425Y-109364425D01*
X172134425Y-109364425D02*
X184085575Y-116264425D01*
M02*
