%FSLAX45Y45*%
G04 Gerber Fmt 4.5, Leading zero omitted, Abs format (unit mm)*
G04 Created by KiCad (PCBNEW (5.99.0-11177-g6c67dfa032)) date 2021-10-11 00:02:21*
%MOMM*%
%LPD*%
G01*
G04 APERTURE LIST*
%TA.AperFunction,Profile*%
%ADD10C,0.150000*%
%TD*%
%ADD11C,0.200000*%
G04 APERTURE END LIST*
D10*
X9454085Y-6201445D02*
X7741920Y-6197600D01*
X17576800Y-13365480D02*
X18830400Y-11188400D01*
X16047720Y-12598400D02*
X17428867Y-13395960D01*
X12537440Y-12124081D02*
X14315440Y-12125960D01*
X16686000Y-5345000D02*
G75*
G03*
X16636050Y-5305500I-49950J-11833D01*
G01*
X16636050Y-5305500D02*
X14929320Y-5306902D01*
X9454085Y-6201445D02*
G75*
G03*
X9504085Y-6151445I0J50000D01*
G01*
X9551712Y-5000682D02*
G75*
G03*
X9501712Y-5050682I0J-50000D01*
G01*
X13031000Y-4403620D02*
X11353000Y-4404955D01*
X13081000Y-5005340D02*
X13081000Y-4453620D01*
X14829320Y-5056902D02*
X13131000Y-5055340D01*
X14879320Y-5256902D02*
X14879320Y-5106902D01*
X9501712Y-5050682D02*
X9504085Y-6151445D01*
X11254712Y-5000682D02*
X9551712Y-5000682D01*
X11303000Y-4454955D02*
X11304712Y-4950682D01*
X11254712Y-5000682D02*
G75*
G03*
X11304712Y-4950682I0J50000D01*
G01*
X11353000Y-4404955D02*
G75*
G03*
X11303000Y-4454955I0J-50000D01*
G01*
X13081000Y-4453620D02*
G75*
G03*
X13031000Y-4403620I-50000J0D01*
G01*
X13081000Y-5005340D02*
G75*
G03*
X13131000Y-5055340I50000J0D01*
G01*
X14879320Y-5106902D02*
G75*
G03*
X14829320Y-5056902I-50000J0D01*
G01*
X14879320Y-5256902D02*
G75*
G03*
X14929320Y-5306902I50000J0D01*
G01*
X9545320Y-10086265D02*
X11262360Y-10086265D01*
X9484360Y-10556240D02*
X9484360Y-10147225D01*
X11329486Y-10129488D02*
G75*
G03*
X11262360Y-10086265I-67126J-30512D01*
G01*
X12537440Y-12124081D02*
G75*
G02*
X12501880Y-12110720I0J54001D01*
G01*
X17576800Y-13365480D02*
G75*
G02*
X17428867Y-13395960I-103931J130189D01*
G01*
X7701280Y-9377680D02*
X7701280Y-11074400D01*
X7696200Y-6243320D02*
X7701280Y-7670800D01*
X16686000Y-5345000D02*
X16689000Y-9874000D01*
X9479280Y-11211560D02*
X9484360Y-10556240D01*
X9545320Y-10086265D02*
G75*
G03*
X9484360Y-10147225I0J-60960D01*
G01*
X16689000Y-9874000D02*
G75*
G03*
X16728000Y-9911000I61391J25656D01*
G01*
X9479280Y-11211560D02*
G75*
G02*
X9413240Y-11277600I-66040J0D01*
G01*
X7701280Y-11211560D02*
X7701280Y-11074400D01*
X18802163Y-11102002D02*
X16728000Y-9911000D01*
X7701280Y-7670800D02*
X7701280Y-9377680D01*
X18802163Y-11102002D02*
G75*
G02*
X18830400Y-11188400I-31163J-57998D01*
G01*
X11329486Y-10129488D02*
X12501880Y-12110720D01*
X7696200Y-6243320D02*
G75*
G02*
X7741920Y-6197600I45720J0D01*
G01*
X7767320Y-11277600D02*
X9413240Y-11277600D01*
X14315440Y-12125960D02*
X16047720Y-12598400D01*
X7767320Y-11277600D02*
G75*
G02*
X7701280Y-11211560I0J66040D01*
G01*
D11*
X7931319Y-13734853D02*
X7931319Y-13534853D01*
X7978938Y-13534853D01*
X8007509Y-13544376D01*
X8026557Y-13563424D01*
X8036081Y-13582472D01*
X8045605Y-13620567D01*
X8045605Y-13649138D01*
X8036081Y-13687234D01*
X8026557Y-13706281D01*
X8007509Y-13725329D01*
X7978938Y-13734853D01*
X7931319Y-13734853D01*
X8131319Y-13734853D02*
X8131319Y-13601519D01*
X8131319Y-13639614D02*
X8140843Y-13620567D01*
X8150367Y-13611043D01*
X8169414Y-13601519D01*
X8188462Y-13601519D01*
X8255128Y-13734853D02*
X8255128Y-13601519D01*
X8255128Y-13534853D02*
X8245605Y-13544376D01*
X8255128Y-13553900D01*
X8264652Y-13544376D01*
X8255128Y-13534853D01*
X8255128Y-13553900D01*
X8378938Y-13734853D02*
X8359890Y-13725329D01*
X8350367Y-13706281D01*
X8350367Y-13534853D01*
X8483700Y-13734853D02*
X8464652Y-13725329D01*
X8455129Y-13706281D01*
X8455129Y-13534853D01*
X8712271Y-13734853D02*
X8712271Y-13534853D01*
X8778938Y-13677710D01*
X8845605Y-13534853D01*
X8845605Y-13734853D01*
X9026557Y-13734853D02*
X9026557Y-13630091D01*
X9017033Y-13611043D01*
X8997986Y-13601519D01*
X8959890Y-13601519D01*
X8940843Y-13611043D01*
X9026557Y-13725329D02*
X9007510Y-13734853D01*
X8959890Y-13734853D01*
X8940843Y-13725329D01*
X8931319Y-13706281D01*
X8931319Y-13687234D01*
X8940843Y-13668186D01*
X8959890Y-13658662D01*
X9007510Y-13658662D01*
X9026557Y-13649138D01*
X9121795Y-13601519D02*
X9121795Y-13801519D01*
X9121795Y-13611043D02*
X9140843Y-13601519D01*
X9178938Y-13601519D01*
X9197986Y-13611043D01*
X9207510Y-13620567D01*
X9217033Y-13639614D01*
X9217033Y-13696757D01*
X9207510Y-13715805D01*
X9197986Y-13725329D01*
X9178938Y-13734853D01*
X9140843Y-13734853D01*
X9121795Y-13725329D01*
X9302748Y-13715805D02*
X9312271Y-13725329D01*
X9302748Y-13734853D01*
X9293224Y-13725329D01*
X9302748Y-13715805D01*
X9302748Y-13734853D01*
X9302748Y-13611043D02*
X9312271Y-13620567D01*
X9302748Y-13630091D01*
X9293224Y-13620567D01*
X9302748Y-13611043D01*
X9302748Y-13630091D01*
M02*
