G04 #@! TF.GenerationSoftware,KiCad,Pcbnew,(5.99.0-11177-g6c67dfa032)*
G04 #@! TF.CreationDate,2021-10-11T00:02:08+03:00*
G04 #@! TF.ProjectId,chocofi-topplate,63686f63-6f66-4692-9d74-6f70706c6174,2.1*
G04 #@! TF.SameCoordinates,Original*
G04 #@! TF.FileFunction,Legend,Top*
G04 #@! TF.FilePolarity,Positive*
%FSLAX46Y46*%
G04 Gerber Fmt 4.6, Leading zero omitted, Abs format (unit mm)*
G04 Created by KiCad (PCBNEW (5.99.0-11177-g6c67dfa032)) date 2021-10-11 00:02:08*
%MOMM*%
%LPD*%
G01*
G04 APERTURE LIST*
%ADD10C,0.300000*%
%ADD11C,2.700000*%
G04 APERTURE END LIST*
D10*
X119710714Y-98149642D02*
X119567857Y-98221071D01*
X119282142Y-98221071D01*
X119139285Y-98149642D01*
X119067857Y-98078214D01*
X118996428Y-97935357D01*
X118996428Y-97506785D01*
X119067857Y-97363928D01*
X119139285Y-97292500D01*
X119282142Y-97221071D01*
X119567857Y-97221071D01*
X119710714Y-97292500D01*
X120353571Y-98221071D02*
X120353571Y-96721071D01*
X120996428Y-98221071D02*
X120996428Y-97435357D01*
X120925000Y-97292500D01*
X120782142Y-97221071D01*
X120567857Y-97221071D01*
X120425000Y-97292500D01*
X120353571Y-97363928D01*
X121925000Y-98221071D02*
X121782142Y-98149642D01*
X121710714Y-98078214D01*
X121639285Y-97935357D01*
X121639285Y-97506785D01*
X121710714Y-97363928D01*
X121782142Y-97292500D01*
X121925000Y-97221071D01*
X122139285Y-97221071D01*
X122282142Y-97292500D01*
X122353571Y-97363928D01*
X122425000Y-97506785D01*
X122425000Y-97935357D01*
X122353571Y-98078214D01*
X122282142Y-98149642D01*
X122139285Y-98221071D01*
X121925000Y-98221071D01*
X123710714Y-98149642D02*
X123567857Y-98221071D01*
X123282142Y-98221071D01*
X123139285Y-98149642D01*
X123067857Y-98078214D01*
X122996428Y-97935357D01*
X122996428Y-97506785D01*
X123067857Y-97363928D01*
X123139285Y-97292500D01*
X123282142Y-97221071D01*
X123567857Y-97221071D01*
X123710714Y-97292500D01*
X124567857Y-98221071D02*
X124425000Y-98149642D01*
X124353571Y-98078214D01*
X124282142Y-97935357D01*
X124282142Y-97506785D01*
X124353571Y-97363928D01*
X124425000Y-97292500D01*
X124567857Y-97221071D01*
X124782142Y-97221071D01*
X124925000Y-97292500D01*
X124996428Y-97363928D01*
X125067857Y-97506785D01*
X125067857Y-97935357D01*
X124996428Y-98078214D01*
X124925000Y-98149642D01*
X124782142Y-98221071D01*
X124567857Y-98221071D01*
X125496428Y-97221071D02*
X126067857Y-97221071D01*
X125710714Y-98221071D02*
X125710714Y-96935357D01*
X125782142Y-96792500D01*
X125925000Y-96721071D01*
X126067857Y-96721071D01*
X126567857Y-98221071D02*
X126567857Y-97221071D01*
X126567857Y-96721071D02*
X126496428Y-96792500D01*
X126567857Y-96863928D01*
X126639285Y-96792500D01*
X126567857Y-96721071D01*
X126567857Y-96863928D01*
X117567857Y-99921785D02*
X117496428Y-99850357D01*
X117353571Y-99778928D01*
X117210714Y-99778928D01*
X117067857Y-99850357D01*
X116996428Y-99921785D01*
X116925000Y-100064642D01*
X116925000Y-100207500D01*
X116996428Y-100350357D01*
X117067857Y-100421785D01*
X117210714Y-100493214D01*
X117353571Y-100493214D01*
X117496428Y-100421785D01*
X117567857Y-100350357D01*
X117567857Y-99778928D02*
X117567857Y-100350357D01*
X117639285Y-100421785D01*
X117710714Y-100421785D01*
X117853571Y-100350357D01*
X117925000Y-100207500D01*
X117925000Y-99850357D01*
X117782142Y-99636071D01*
X117567857Y-99493214D01*
X117282142Y-99421785D01*
X116996428Y-99493214D01*
X116782142Y-99636071D01*
X116639285Y-99850357D01*
X116567857Y-100136071D01*
X116639285Y-100421785D01*
X116782142Y-100636071D01*
X116996428Y-100778928D01*
X117282142Y-100850357D01*
X117567857Y-100778928D01*
X117782142Y-100636071D01*
X118567857Y-99636071D02*
X118567857Y-101136071D01*
X118567857Y-99707500D02*
X118710714Y-99636071D01*
X118996428Y-99636071D01*
X119139285Y-99707500D01*
X119210714Y-99778928D01*
X119282142Y-99921785D01*
X119282142Y-100350357D01*
X119210714Y-100493214D01*
X119139285Y-100564642D01*
X118996428Y-100636071D01*
X118710714Y-100636071D01*
X118567857Y-100564642D01*
X120567857Y-100636071D02*
X120567857Y-99850357D01*
X120496428Y-99707500D01*
X120353571Y-99636071D01*
X120067857Y-99636071D01*
X119925000Y-99707500D01*
X120567857Y-100564642D02*
X120425000Y-100636071D01*
X120067857Y-100636071D01*
X119925000Y-100564642D01*
X119853571Y-100421785D01*
X119853571Y-100278928D01*
X119925000Y-100136071D01*
X120067857Y-100064642D01*
X120425000Y-100064642D01*
X120567857Y-99993214D01*
X121210714Y-100564642D02*
X121353571Y-100636071D01*
X121639285Y-100636071D01*
X121782142Y-100564642D01*
X121853571Y-100421785D01*
X121853571Y-100350357D01*
X121782142Y-100207500D01*
X121639285Y-100136071D01*
X121425000Y-100136071D01*
X121282142Y-100064642D01*
X121210714Y-99921785D01*
X121210714Y-99850357D01*
X121282142Y-99707500D01*
X121425000Y-99636071D01*
X121639285Y-99636071D01*
X121782142Y-99707500D01*
X122496428Y-100636071D02*
X122496428Y-99136071D01*
X123139285Y-100636071D02*
X123139285Y-99850357D01*
X123067857Y-99707500D01*
X122925000Y-99636071D01*
X122710714Y-99636071D01*
X122567857Y-99707500D01*
X122496428Y-99778928D01*
X124496428Y-99636071D02*
X124496428Y-100636071D01*
X123853571Y-99636071D02*
X123853571Y-100421785D01*
X123925000Y-100564642D01*
X124067857Y-100636071D01*
X124282142Y-100636071D01*
X124425000Y-100564642D01*
X124496428Y-100493214D01*
X124996428Y-99636071D02*
X125567857Y-99636071D01*
X125210714Y-99136071D02*
X125210714Y-100421785D01*
X125282142Y-100564642D01*
X125425000Y-100636071D01*
X125567857Y-100636071D01*
X126067857Y-100636071D02*
X126067857Y-99136071D01*
X126210714Y-100064642D02*
X126639285Y-100636071D01*
X126639285Y-99636071D02*
X126067857Y-100207500D01*
%LPC*%
D11*
X95000000Y-66802000D03*
X148971000Y-69850000D03*
X123952000Y-104140000D03*
X167005000Y-110363000D03*
X95000000Y-83820000D03*
M02*
