%FSLAX45Y45*%
G04 Gerber Fmt 4.5, Leading zero omitted, Abs format (unit mm)*
G04 Created by KiCad (PCBNEW (5.99.0-11177-g6c67dfa032)) date 2021-10-11 00:02:21*
%MOMM*%
%LPD*%
G01*
G04 APERTURE LIST*
%TA.AperFunction,Profile*%
%ADD10C,0.150000*%
%TD*%
%ADD11C,0.200000*%
%ADD12C,0.230000*%
G04 APERTURE END LIST*
D10*
X9454085Y-6201445D02*
X7741920Y-6197600D01*
X17576800Y-13365480D02*
X18830400Y-11188400D01*
X16047720Y-12598400D02*
X17428867Y-13395960D01*
X12537440Y-12124081D02*
X14315440Y-12125960D01*
X16686000Y-5345000D02*
G75*
G03*
X16636050Y-5305500I-49950J-11833D01*
G01*
X16636050Y-5305500D02*
X14929320Y-5306902D01*
X9454085Y-6201445D02*
G75*
G03*
X9504085Y-6151445I0J50000D01*
G01*
X9551712Y-5000682D02*
G75*
G03*
X9501712Y-5050682I0J-50000D01*
G01*
X13031000Y-4403620D02*
X11353000Y-4404955D01*
X13081000Y-5005340D02*
X13081000Y-4453620D01*
X14829320Y-5056902D02*
X13131000Y-5055340D01*
X14879320Y-5256902D02*
X14879320Y-5106902D01*
X9501712Y-5050682D02*
X9504085Y-6151445D01*
X11254712Y-5000682D02*
X9551712Y-5000682D01*
X11303000Y-4454955D02*
X11304712Y-4950682D01*
X11254712Y-5000682D02*
G75*
G03*
X11304712Y-4950682I0J50000D01*
G01*
X11353000Y-4404955D02*
G75*
G03*
X11303000Y-4454955I0J-50000D01*
G01*
X13081000Y-4453620D02*
G75*
G03*
X13031000Y-4403620I-50000J0D01*
G01*
X13081000Y-5005340D02*
G75*
G03*
X13131000Y-5055340I50000J0D01*
G01*
X14879320Y-5106902D02*
G75*
G03*
X14829320Y-5056902I-50000J0D01*
G01*
X14879320Y-5256902D02*
G75*
G03*
X14929320Y-5306902I50000J0D01*
G01*
X9545320Y-10086265D02*
X11262360Y-10086265D01*
X9484360Y-10556240D02*
X9484360Y-10147225D01*
X11329486Y-10129488D02*
G75*
G03*
X11262360Y-10086265I-67126J-30512D01*
G01*
X12537440Y-12124081D02*
G75*
G02*
X12501880Y-12110720I0J54001D01*
G01*
X17576800Y-13365480D02*
G75*
G02*
X17428867Y-13395960I-103931J130189D01*
G01*
X7701280Y-9377680D02*
X7701280Y-11074400D01*
X7696200Y-6243320D02*
X7701280Y-7670800D01*
X16686000Y-5345000D02*
X16689000Y-9874000D01*
X9479280Y-11211560D02*
X9484360Y-10556240D01*
X9545320Y-10086265D02*
G75*
G03*
X9484360Y-10147225I0J-60960D01*
G01*
X16689000Y-9874000D02*
G75*
G03*
X16728000Y-9911000I61391J25656D01*
G01*
X9479280Y-11211560D02*
G75*
G02*
X9413240Y-11277600I-66040J0D01*
G01*
X7701280Y-11211560D02*
X7701280Y-11074400D01*
X18802163Y-11102002D02*
X16728000Y-9911000D01*
X7701280Y-7670800D02*
X7701280Y-9377680D01*
X18802163Y-11102002D02*
G75*
G02*
X18830400Y-11188400I-31163J-57998D01*
G01*
X11329486Y-10129488D02*
X12501880Y-12110720D01*
X7696200Y-6243320D02*
G75*
G02*
X7741920Y-6197600I45720J0D01*
G01*
X7767320Y-11277600D02*
X9413240Y-11277600D01*
X14315440Y-12125960D02*
X16047720Y-12598400D01*
X7767320Y-11277600D02*
G75*
G02*
X7701280Y-11211560I0J66040D01*
G01*
D11*
D12*
X9385000Y-6565200D02*
X9615000Y-6795200D01*
X9615000Y-6565200D02*
X9385000Y-6795200D01*
X9385000Y-8267000D02*
X9615000Y-8497000D01*
X9615000Y-8267000D02*
X9385000Y-8497000D01*
X12280200Y-10299000D02*
X12510200Y-10529000D01*
X12510200Y-10299000D02*
X12280200Y-10529000D01*
X14782100Y-6870000D02*
X15012100Y-7100000D01*
X15012100Y-6870000D02*
X14782100Y-7100000D01*
X16585500Y-10921300D02*
X16815500Y-11151300D01*
X16815500Y-10921300D02*
X16585500Y-11151300D01*
D11*
X7931319Y-13734853D02*
X7931319Y-13534853D01*
X7978938Y-13534853D01*
X8007509Y-13544376D01*
X8026557Y-13563424D01*
X8036081Y-13582472D01*
X8045605Y-13620567D01*
X8045605Y-13649138D01*
X8036081Y-13687234D01*
X8026557Y-13706281D01*
X8007509Y-13725329D01*
X7978938Y-13734853D01*
X7931319Y-13734853D01*
X8131319Y-13734853D02*
X8131319Y-13601519D01*
X8131319Y-13639614D02*
X8140843Y-13620567D01*
X8150367Y-13611043D01*
X8169414Y-13601519D01*
X8188462Y-13601519D01*
X8255128Y-13734853D02*
X8255128Y-13601519D01*
X8255128Y-13534853D02*
X8245605Y-13544376D01*
X8255128Y-13553900D01*
X8264652Y-13544376D01*
X8255128Y-13534853D01*
X8255128Y-13553900D01*
X8378938Y-13734853D02*
X8359890Y-13725329D01*
X8350367Y-13706281D01*
X8350367Y-13534853D01*
X8483700Y-13734853D02*
X8464652Y-13725329D01*
X8455129Y-13706281D01*
X8455129Y-13534853D01*
X8712271Y-13734853D02*
X8712271Y-13534853D01*
X8778938Y-13677710D01*
X8845605Y-13534853D01*
X8845605Y-13734853D01*
X9026557Y-13734853D02*
X9026557Y-13630091D01*
X9017033Y-13611043D01*
X8997986Y-13601519D01*
X8959890Y-13601519D01*
X8940843Y-13611043D01*
X9026557Y-13725329D02*
X9007510Y-13734853D01*
X8959890Y-13734853D01*
X8940843Y-13725329D01*
X8931319Y-13706281D01*
X8931319Y-13687234D01*
X8940843Y-13668186D01*
X8959890Y-13658662D01*
X9007510Y-13658662D01*
X9026557Y-13649138D01*
X9121795Y-13601519D02*
X9121795Y-13801519D01*
X9121795Y-13611043D02*
X9140843Y-13601519D01*
X9178938Y-13601519D01*
X9197986Y-13611043D01*
X9207510Y-13620567D01*
X9217033Y-13639614D01*
X9217033Y-13696757D01*
X9207510Y-13715805D01*
X9197986Y-13725329D01*
X9178938Y-13734853D01*
X9140843Y-13734853D01*
X9121795Y-13725329D01*
X9302748Y-13715805D02*
X9312271Y-13725329D01*
X9302748Y-13734853D01*
X9293224Y-13725329D01*
X9302748Y-13715805D01*
X9302748Y-13734853D01*
X9302748Y-13611043D02*
X9312271Y-13620567D01*
X9302748Y-13630091D01*
X9293224Y-13620567D01*
X9302748Y-13611043D01*
X9302748Y-13630091D01*
X7473700Y-13964376D02*
X7673700Y-14164376D01*
X7673700Y-13964376D02*
X7473700Y-14164376D01*
X7921795Y-13973900D02*
X7931319Y-13964376D01*
X7950367Y-13954853D01*
X7997986Y-13954853D01*
X8017033Y-13964376D01*
X8026557Y-13973900D01*
X8036081Y-13992948D01*
X8036081Y-14011995D01*
X8026557Y-14040567D01*
X7912271Y-14154853D01*
X8036081Y-14154853D01*
X8121795Y-14135805D02*
X8131319Y-14145329D01*
X8121795Y-14154853D01*
X8112271Y-14145329D01*
X8121795Y-14135805D01*
X8121795Y-14154853D01*
X8197986Y-13954853D02*
X8321795Y-13954853D01*
X8255128Y-14031043D01*
X8283700Y-14031043D01*
X8302748Y-14040567D01*
X8312271Y-14050091D01*
X8321795Y-14069138D01*
X8321795Y-14116757D01*
X8312271Y-14135805D01*
X8302748Y-14145329D01*
X8283700Y-14154853D01*
X8226557Y-14154853D01*
X8207509Y-14145329D01*
X8197986Y-14135805D01*
X8445605Y-13954853D02*
X8464652Y-13954853D01*
X8483700Y-13964376D01*
X8493224Y-13973900D01*
X8502748Y-13992948D01*
X8512271Y-14031043D01*
X8512271Y-14078662D01*
X8502748Y-14116757D01*
X8493224Y-14135805D01*
X8483700Y-14145329D01*
X8464652Y-14154853D01*
X8445605Y-14154853D01*
X8426557Y-14145329D01*
X8417033Y-14135805D01*
X8407510Y-14116757D01*
X8397986Y-14078662D01*
X8397986Y-14031043D01*
X8407510Y-13992948D01*
X8417033Y-13973900D01*
X8426557Y-13964376D01*
X8445605Y-13954853D01*
X8636081Y-13954853D02*
X8655129Y-13954853D01*
X8674176Y-13964376D01*
X8683700Y-13973900D01*
X8693224Y-13992948D01*
X8702748Y-14031043D01*
X8702748Y-14078662D01*
X8693224Y-14116757D01*
X8683700Y-14135805D01*
X8674176Y-14145329D01*
X8655129Y-14154853D01*
X8636081Y-14154853D01*
X8617033Y-14145329D01*
X8607510Y-14135805D01*
X8597986Y-14116757D01*
X8588462Y-14078662D01*
X8588462Y-14031043D01*
X8597986Y-13992948D01*
X8607510Y-13973900D01*
X8617033Y-13964376D01*
X8636081Y-13954853D01*
X8788462Y-14154853D02*
X8788462Y-14021519D01*
X8788462Y-14040567D02*
X8797986Y-14031043D01*
X8817033Y-14021519D01*
X8845605Y-14021519D01*
X8864652Y-14031043D01*
X8874176Y-14050091D01*
X8874176Y-14154853D01*
X8874176Y-14050091D02*
X8883700Y-14031043D01*
X8902748Y-14021519D01*
X8931319Y-14021519D01*
X8950367Y-14031043D01*
X8959890Y-14050091D01*
X8959890Y-14154853D01*
X9055129Y-14154853D02*
X9055129Y-14021519D01*
X9055129Y-14040567D02*
X9064652Y-14031043D01*
X9083700Y-14021519D01*
X9112271Y-14021519D01*
X9131319Y-14031043D01*
X9140843Y-14050091D01*
X9140843Y-14154853D01*
X9140843Y-14050091D02*
X9150367Y-14031043D01*
X9169414Y-14021519D01*
X9197986Y-14021519D01*
X9217033Y-14031043D01*
X9226557Y-14050091D01*
X9226557Y-14154853D01*
X9617033Y-13945329D02*
X9445605Y-14202472D01*
X9874176Y-13954853D02*
X9893224Y-13954853D01*
X9912271Y-13964376D01*
X9921795Y-13973900D01*
X9931319Y-13992948D01*
X9940843Y-14031043D01*
X9940843Y-14078662D01*
X9931319Y-14116757D01*
X9921795Y-14135805D01*
X9912271Y-14145329D01*
X9893224Y-14154853D01*
X9874176Y-14154853D01*
X9855129Y-14145329D01*
X9845605Y-14135805D01*
X9836081Y-14116757D01*
X9826557Y-14078662D01*
X9826557Y-14031043D01*
X9836081Y-13992948D01*
X9845605Y-13973900D01*
X9855129Y-13964376D01*
X9874176Y-13954853D01*
X10026557Y-14135805D02*
X10036081Y-14145329D01*
X10026557Y-14154853D01*
X10017033Y-14145329D01*
X10026557Y-14135805D01*
X10026557Y-14154853D01*
X10159890Y-13954853D02*
X10178938Y-13954853D01*
X10197986Y-13964376D01*
X10207510Y-13973900D01*
X10217033Y-13992948D01*
X10226557Y-14031043D01*
X10226557Y-14078662D01*
X10217033Y-14116757D01*
X10207510Y-14135805D01*
X10197986Y-14145329D01*
X10178938Y-14154853D01*
X10159890Y-14154853D01*
X10140843Y-14145329D01*
X10131319Y-14135805D01*
X10121795Y-14116757D01*
X10112271Y-14078662D01*
X10112271Y-14031043D01*
X10121795Y-13992948D01*
X10131319Y-13973900D01*
X10140843Y-13964376D01*
X10159890Y-13954853D01*
X10321795Y-14154853D02*
X10359890Y-14154853D01*
X10378938Y-14145329D01*
X10388462Y-14135805D01*
X10407510Y-14107234D01*
X10417033Y-14069138D01*
X10417033Y-13992948D01*
X10407510Y-13973900D01*
X10397986Y-13964376D01*
X10378938Y-13954853D01*
X10340843Y-13954853D01*
X10321795Y-13964376D01*
X10312271Y-13973900D01*
X10302748Y-13992948D01*
X10302748Y-14040567D01*
X10312271Y-14059614D01*
X10321795Y-14069138D01*
X10340843Y-14078662D01*
X10378938Y-14078662D01*
X10397986Y-14069138D01*
X10407510Y-14059614D01*
X10417033Y-14040567D01*
X10540843Y-13954853D02*
X10559890Y-13954853D01*
X10578938Y-13964376D01*
X10588462Y-13973900D01*
X10597986Y-13992948D01*
X10607510Y-14031043D01*
X10607510Y-14078662D01*
X10597986Y-14116757D01*
X10588462Y-14135805D01*
X10578938Y-14145329D01*
X10559890Y-14154853D01*
X10540843Y-14154853D01*
X10521795Y-14145329D01*
X10512271Y-14135805D01*
X10502748Y-14116757D01*
X10493224Y-14078662D01*
X10493224Y-14031043D01*
X10502748Y-13992948D01*
X10512271Y-13973900D01*
X10521795Y-13964376D01*
X10540843Y-13954853D01*
X10778938Y-13954853D02*
X10740843Y-13954853D01*
X10721795Y-13964376D01*
X10712271Y-13973900D01*
X10693224Y-14002472D01*
X10683700Y-14040567D01*
X10683700Y-14116757D01*
X10693224Y-14135805D01*
X10702748Y-14145329D01*
X10721795Y-14154853D01*
X10759890Y-14154853D01*
X10778938Y-14145329D01*
X10788462Y-14135805D01*
X10797986Y-14116757D01*
X10797986Y-14069138D01*
X10788462Y-14050091D01*
X10778938Y-14040567D01*
X10759890Y-14031043D01*
X10721795Y-14031043D01*
X10702748Y-14040567D01*
X10693224Y-14050091D01*
X10683700Y-14069138D01*
X10874176Y-13954853D02*
X10874176Y-13992948D01*
X10950367Y-13954853D02*
X10950367Y-13992948D01*
X11245605Y-14231043D02*
X11236081Y-14221519D01*
X11217033Y-14192948D01*
X11207509Y-14173900D01*
X11197986Y-14145329D01*
X11188462Y-14097710D01*
X11188462Y-14059614D01*
X11197986Y-14011995D01*
X11207509Y-13983424D01*
X11217033Y-13964376D01*
X11236081Y-13935805D01*
X11245605Y-13926281D01*
X11417033Y-13954853D02*
X11321795Y-13954853D01*
X11312271Y-14050091D01*
X11321795Y-14040567D01*
X11340843Y-14031043D01*
X11388462Y-14031043D01*
X11407509Y-14040567D01*
X11417033Y-14050091D01*
X11426557Y-14069138D01*
X11426557Y-14116757D01*
X11417033Y-14135805D01*
X11407509Y-14145329D01*
X11388462Y-14154853D01*
X11340843Y-14154853D01*
X11321795Y-14145329D01*
X11312271Y-14135805D01*
X11664652Y-14154853D02*
X11664652Y-13954853D01*
X11750367Y-14154853D02*
X11750367Y-14050091D01*
X11740843Y-14031043D01*
X11721795Y-14021519D01*
X11693224Y-14021519D01*
X11674176Y-14031043D01*
X11664652Y-14040567D01*
X11874176Y-14154853D02*
X11855128Y-14145329D01*
X11845605Y-14135805D01*
X11836081Y-14116757D01*
X11836081Y-14059614D01*
X11845605Y-14040567D01*
X11855128Y-14031043D01*
X11874176Y-14021519D01*
X11902748Y-14021519D01*
X11921795Y-14031043D01*
X11931319Y-14040567D01*
X11940843Y-14059614D01*
X11940843Y-14116757D01*
X11931319Y-14135805D01*
X11921795Y-14145329D01*
X11902748Y-14154853D01*
X11874176Y-14154853D01*
X12055128Y-14154853D02*
X12036081Y-14145329D01*
X12026557Y-14126281D01*
X12026557Y-13954853D01*
X12207509Y-14145329D02*
X12188462Y-14154853D01*
X12150367Y-14154853D01*
X12131319Y-14145329D01*
X12121795Y-14126281D01*
X12121795Y-14050091D01*
X12131319Y-14031043D01*
X12150367Y-14021519D01*
X12188462Y-14021519D01*
X12207509Y-14031043D01*
X12217033Y-14050091D01*
X12217033Y-14069138D01*
X12121795Y-14088186D01*
X12293224Y-14145329D02*
X12312271Y-14154853D01*
X12350367Y-14154853D01*
X12369414Y-14145329D01*
X12378938Y-14126281D01*
X12378938Y-14116757D01*
X12369414Y-14097710D01*
X12350367Y-14088186D01*
X12321795Y-14088186D01*
X12302748Y-14078662D01*
X12293224Y-14059614D01*
X12293224Y-14050091D01*
X12302748Y-14031043D01*
X12321795Y-14021519D01*
X12350367Y-14021519D01*
X12369414Y-14031043D01*
X12445605Y-14231043D02*
X12455128Y-14221519D01*
X12474176Y-14192948D01*
X12483700Y-14173900D01*
X12493224Y-14145329D01*
X12502748Y-14097710D01*
X12502748Y-14059614D01*
X12493224Y-14011995D01*
X12483700Y-13983424D01*
X12474176Y-13964376D01*
X12455128Y-13935805D01*
X12445605Y-13926281D01*
M02*
