M48
; DRILL file {KiCad (5.99.0-11177-g6c67dfa032)} date Sunday, August 29, 2021 at 11:41:06 PM
; FORMAT={-:-/ absolute / metric / decimal}
; #@! TF.CreationDate,2021-08-29T23:41:06+03:00
; #@! TF.GenerationSoftware,Kicad,Pcbnew,(5.99.0-11177-g6c67dfa032)
; #@! TF.FileFunction,Plated,1,2,PTH
FMAT,2
METRIC
; #@! TA.AperFunction,Plated,PTH,ComponentDrill
T1C0.500
; #@! TA.AperFunction,Plated,PTH,ComponentDrill
T2C2.300
%
G90
G05
T2
X95.0Y-66.802
X95.0Y-83.82
X123.952Y-104.14
X148.971Y-69.85
X167.005Y-110.363
T1
X79.26Y-63.75G85X79.26Y-77.05
G05
X79.26Y-80.75G85X79.26Y-94.05
G05
X79.26Y-97.75G85X79.26Y-111.05
G05
X79.26Y-63.75G85X92.56Y-63.75
G05
X79.26Y-77.05G85X92.56Y-77.05
G05
X79.26Y-80.75G85X92.56Y-80.75
G05
X79.26Y-94.05G85X92.56Y-94.05
G05
X79.26Y-97.75G85X92.56Y-97.75
G05
X79.26Y-111.05G85X92.56Y-111.05
G05
X92.56Y-63.75G85X92.56Y-77.05
G05
X92.56Y-80.75G85X92.56Y-94.05
G05
X92.56Y-97.75G85X92.56Y-111.05
G05
X97.26Y-51.75G85X97.26Y-65.05
G05
X97.26Y-68.75G85X97.26Y-82.05
G05
X97.26Y-85.75G85X97.26Y-99.05
G05
X97.26Y-51.75G85X110.56Y-51.75
G05
X97.26Y-65.05G85X110.56Y-65.05
G05
X97.26Y-68.75G85X110.56Y-68.75
G05
X97.26Y-82.05G85X110.56Y-82.05
G05
X97.26Y-85.75G85X110.56Y-85.75
G05
X97.26Y-99.05G85X110.56Y-99.05
G05
X110.56Y-51.75G85X110.56Y-65.05
G05
X110.56Y-68.75G85X110.56Y-82.05
G05
X110.56Y-85.75G85X110.56Y-99.05
G05
X115.26Y-45.75G85X115.26Y-59.05
G05
X115.26Y-62.75G85X115.26Y-76.05
G05
X115.26Y-79.75G85X115.26Y-93.05
G05
X115.26Y-45.75G85X128.56Y-45.75
G05
X115.26Y-59.05G85X128.56Y-59.05
G05
X115.26Y-62.75G85X128.56Y-62.75
G05
X115.26Y-76.05G85X128.56Y-76.05
G05
X115.26Y-79.75G85X128.56Y-79.75
G05
X115.26Y-93.05G85X128.56Y-93.05
G05
X127.36Y-119.64G85X127.36Y-106.34
G05
X128.56Y-45.75G85X128.56Y-59.05
G05
X128.56Y-62.75G85X128.56Y-76.05
G05
X128.56Y-79.75G85X128.56Y-93.05
G05
X133.26Y-52.37G85X133.26Y-65.67
G05
X133.26Y-69.37G85X133.26Y-82.67
G05
X133.26Y-86.375G85X133.26Y-99.675
G05
X140.66Y-106.34G85X127.36Y-106.34
G05
X140.66Y-119.64G85X127.36Y-119.64
G05
X133.26Y-52.37G85X146.56Y-52.37
G05
X133.26Y-65.67G85X146.56Y-65.67
G05
X133.26Y-69.37G85X146.56Y-69.37
G05
X133.26Y-82.67G85X146.56Y-82.67
G05
X133.26Y-86.375G85X146.56Y-86.375
G05
X133.26Y-99.675G85X146.56Y-99.675
G05
X140.66Y-119.64G85X140.66Y-106.34
G05
X146.56Y-52.37G85X146.56Y-65.67
G05
X146.56Y-69.37G85X146.56Y-82.67
G05
X146.56Y-86.375G85X146.56Y-99.675
G05
X145.915Y-120.282G85X149.358Y-107.435
G05
X151.26Y-54.75G85X151.26Y-68.05
G05
X151.26Y-71.75G85X151.26Y-85.05
G05
X151.26Y-88.75G85X151.26Y-102.05
G05
X158.762Y-123.725G85X145.915Y-120.282
G05
X162.205Y-110.878G85X149.358Y-107.435
G05
X151.26Y-54.75G85X164.56Y-54.75
G05
X151.26Y-68.05G85X164.56Y-68.05
G05
X151.26Y-71.75G85X164.56Y-71.75
G05
X151.26Y-85.05G85X164.56Y-85.05
G05
X151.26Y-88.75G85X164.56Y-88.75
G05
X151.26Y-102.05G85X164.56Y-102.05
G05
X158.762Y-123.725G85X162.205Y-110.878
G05
X164.56Y-54.75G85X164.56Y-68.05
G05
X164.56Y-71.75G85X164.56Y-85.05
G05
X164.56Y-88.75G85X164.56Y-102.05
G05
X172.226Y-109.706G85X165.576Y-121.224
G05
X177.094Y-127.874G85X165.576Y-121.224
G05
X183.744Y-116.356G85X172.226Y-109.706
G05
X183.744Y-116.356G85X177.094Y-127.874
G05
T0
M30
