G04 #@! TF.GenerationSoftware,KiCad,Pcbnew,(6.0.0)*
G04 #@! TF.CreationDate,2022-01-23T19:36:19+05:00*
G04 #@! TF.ProjectId,chocofi,63686f63-6f66-4692-9e6b-696361645f70,2.1*
G04 #@! TF.SameCoordinates,Original*
G04 #@! TF.FileFunction,Soldermask,Bot*
G04 #@! TF.FilePolarity,Negative*
%FSLAX46Y46*%
G04 Gerber Fmt 4.6, Leading zero omitted, Abs format (unit mm)*
G04 Created by KiCad (PCBNEW (6.0.0)) date 2022-01-23 19:36:19*
%MOMM*%
%LPD*%
G01*
G04 APERTURE LIST*
G04 Aperture macros list*
%AMRoundRect*
0 Rectangle with rounded corners*
0 $1 Rounding radius*
0 $2 $3 $4 $5 $6 $7 $8 $9 X,Y pos of 4 corners*
0 Add a 4 corners polygon primitive as box body*
4,1,4,$2,$3,$4,$5,$6,$7,$8,$9,$2,$3,0*
0 Add four circle primitives for the rounded corners*
1,1,$1+$1,$2,$3*
1,1,$1+$1,$4,$5*
1,1,$1+$1,$6,$7*
1,1,$1+$1,$8,$9*
0 Add four rect primitives between the rounded corners*
20,1,$1+$1,$2,$3,$4,$5,0*
20,1,$1+$1,$4,$5,$6,$7,0*
20,1,$1+$1,$6,$7,$8,$9,0*
20,1,$1+$1,$8,$9,$2,$3,0*%
%AMFreePoly0*
4,1,22,0.216777,1.480194,0.271421,1.441421,1.441421,0.271421,1.488777,0.196056,1.500000,0.130000,1.500000,-1.300000,1.480194,-1.386777,1.424698,-1.456366,1.344504,-1.494986,1.300000,-1.500000,-1.300000,-1.500000,-1.386777,-1.480194,-1.456366,-1.424698,-1.494986,-1.344504,-1.500000,-1.300000,-1.500000,1.300000,-1.480194,1.386777,-1.424698,1.456366,-1.344504,1.494986,-1.300000,1.500000,
0.130000,1.500000,0.216777,1.480194,0.216777,1.480194,$1*%
%AMFreePoly1*
4,1,22,1.111777,1.480194,1.181366,1.424698,1.219986,1.344504,1.225000,1.300000,1.225000,-1.300000,1.205194,-1.386777,1.149698,-1.456366,1.069504,-1.494986,1.025000,-1.500000,-1.025000,-1.500000,-1.111777,-1.480194,-1.181366,-1.424698,-1.219986,-1.344504,-1.225000,-1.300000,-1.225000,0.275000,-1.205194,0.361777,-1.166421,0.416421,-0.141421,1.441421,-0.066056,1.488777,0.000000,1.500000,
1.025000,1.500000,1.111777,1.480194,1.111777,1.480194,$1*%
G04 Aperture macros list end*
%ADD10O,2.100000X2.100000*%
%ADD11RoundRect,0.200000X0.850000X0.850000X-0.850000X0.850000X-0.850000X-0.850000X0.850000X-0.850000X0*%
%ADD12RoundRect,0.200000X-0.571500X0.317500X-0.571500X-0.317500X0.571500X-0.317500X0.571500X0.317500X0*%
%ADD13RoundRect,0.200000X-0.450000X-0.650000X0.450000X-0.650000X0.450000X0.650000X-0.450000X0.650000X0*%
%ADD14RoundRect,0.200000X-0.500000X-0.500000X0.500000X-0.500000X0.500000X0.500000X-0.500000X0.500000X0*%
%ADD15C,1.300000*%
%ADD16RoundRect,0.200000X-0.698500X-0.698500X0.698500X-0.698500X0.698500X0.698500X-0.698500X0.698500X0*%
%ADD17RoundRect,0.200000X-0.650000X-0.475000X0.650000X-0.475000X0.650000X0.475000X-0.650000X0.475000X0*%
%ADD18C,1.797000*%
%ADD19RoundRect,0.200000X-0.750791X-0.290582X0.504913X-0.627047X0.750791X0.290582X-0.504913X0.627047X0*%
%ADD20RoundRect,0.200000X-0.855484X-0.493914X0.493914X-0.855484X0.855484X0.493914X-0.493914X0.855484X0*%
%ADD21RoundRect,0.200000X0.255669X-0.954169X0.954169X0.255669X-0.255669X0.954169X-0.954169X-0.255669X0*%
%ADD22RoundRect,0.200000X0.086362X-0.800417X0.736362X0.325417X-0.086362X0.800417X-0.736362X-0.325417X0*%
%ADD23C,1.600000*%
%ADD24O,2.900000X2.100000*%
%ADD25C,2.101800*%
%ADD26C,3.829000*%
%ADD27C,3.400000*%
%ADD28C,1.390600*%
%ADD29FreePoly0,0.000000*%
%ADD30RoundRect,0.200000X-0.925000X-1.300000X0.925000X-1.300000X0.925000X1.300000X-0.925000X1.300000X0*%
%ADD31FreePoly1,0.000000*%
%ADD32RoundRect,0.200000X-1.300000X-1.300000X1.300000X-1.300000X1.300000X1.300000X-1.300000X1.300000X0*%
%ADD33RoundRect,0.200000X-0.937500X-1.300000X0.937500X-1.300000X0.937500X1.300000X-0.937500X1.300000X0*%
%ADD34FreePoly0,180.000000*%
%ADD35RoundRect,0.200000X1.300000X1.300000X-1.300000X1.300000X-1.300000X-1.300000X1.300000X-1.300000X0*%
%ADD36FreePoly0,165.000000*%
%ADD37RoundRect,0.200000X1.592168X0.919239X-0.919239X1.592168X-1.592168X-0.919239X0.919239X-1.592168X0*%
%ADD38FreePoly0,240.000000*%
%ADD39RoundRect,0.200000X-0.475833X1.775833X-1.775833X-0.475833X0.475833X-1.775833X1.775833X0.475833X0*%
%ADD40C,1.924000*%
%ADD41C,2.400000*%
%ADD42C,4.400000*%
G04 APERTURE END LIST*
D10*
X170053000Y-90043000D03*
D11*
X170053000Y-92583000D03*
D12*
X166878000Y-89542620D03*
X166878000Y-90543380D03*
D13*
X175931000Y-57880000D03*
X178931000Y-57880000D03*
X180431000Y-57880000D03*
D14*
X182031000Y-56930000D03*
X182031000Y-54830000D03*
X174331000Y-54830000D03*
X174331000Y-56930000D03*
D15*
X176681000Y-55880000D03*
X179681000Y-55880000D03*
D16*
X82194400Y-64312800D03*
D17*
X84229400Y-64312800D03*
X87779400Y-64312800D03*
D18*
X89814400Y-64312800D03*
D16*
X100279200Y-52273200D03*
D17*
X102314200Y-52273200D03*
D18*
X107899200Y-52273200D03*
D17*
X105864200Y-52273200D03*
D16*
X118262400Y-46228000D03*
D17*
X120297400Y-46228000D03*
D18*
X125882400Y-46228000D03*
D17*
X123847400Y-46228000D03*
X138229800Y-53289200D03*
D16*
X136194800Y-53289200D03*
D17*
X141779800Y-53289200D03*
D18*
X143814800Y-53289200D03*
D16*
X154178000Y-55422800D03*
D17*
X156213000Y-55422800D03*
X159763000Y-55422800D03*
D18*
X161798000Y-55422800D03*
D16*
X82092800Y-81229200D03*
D17*
X84127800Y-81229200D03*
D18*
X89712800Y-81229200D03*
D17*
X87677800Y-81229200D03*
D16*
X100076000Y-69342000D03*
D17*
X102111000Y-69342000D03*
D18*
X107696000Y-69342000D03*
D17*
X105661000Y-69342000D03*
X120195800Y-63347600D03*
D16*
X118160800Y-63347600D03*
D17*
X123745800Y-63347600D03*
D18*
X125780800Y-63347600D03*
D17*
X138179000Y-69900800D03*
D16*
X136144000Y-69900800D03*
D18*
X143764000Y-69900800D03*
D17*
X141729000Y-69900800D03*
X156517800Y-72491600D03*
D16*
X154482800Y-72491600D03*
D17*
X160067800Y-72491600D03*
D18*
X162102800Y-72491600D03*
D16*
X82092800Y-98247200D03*
D17*
X84127800Y-98247200D03*
D18*
X89712800Y-98247200D03*
D17*
X87677800Y-98247200D03*
D16*
X100177600Y-86309200D03*
D17*
X102212600Y-86309200D03*
D18*
X107797600Y-86309200D03*
D17*
X105762600Y-86309200D03*
D16*
X118160800Y-80314800D03*
D17*
X120195800Y-80314800D03*
X123745800Y-80314800D03*
D18*
X125780800Y-80314800D03*
D16*
X136245600Y-86969600D03*
D17*
X138280600Y-86969600D03*
D18*
X143865600Y-86969600D03*
D17*
X141830600Y-86969600D03*
X156314600Y-89357200D03*
D16*
X154279600Y-89357200D03*
D17*
X159864600Y-89357200D03*
D18*
X161899600Y-89357200D03*
D17*
X132184600Y-119075200D03*
D16*
X130149600Y-119075200D03*
D17*
X135734600Y-119075200D03*
D18*
X137769600Y-119075200D03*
D19*
X150799764Y-121001192D03*
D20*
X148834105Y-120474495D03*
D18*
X156194459Y-122446697D03*
D19*
X154228800Y-121920000D03*
D21*
X178053166Y-125194992D03*
D22*
X179070666Y-123432630D03*
X180845666Y-120358240D03*
D18*
X181863166Y-118595878D03*
D23*
X186460000Y-98961000D03*
X179460000Y-98961000D03*
X186460000Y-100711000D03*
X179460000Y-100711000D03*
D24*
X176160000Y-101061000D03*
X176160000Y-98611000D03*
X184660000Y-102811000D03*
X184660000Y-96861000D03*
X181660000Y-96861000D03*
X181660000Y-102811000D03*
X177660000Y-96861000D03*
X177660000Y-102811000D03*
D25*
X91410000Y-70400000D03*
D26*
X85910000Y-70400000D03*
D27*
X80910000Y-74150000D03*
D28*
X91130000Y-66200000D03*
D27*
X85910000Y-76350000D03*
D28*
X80690000Y-66200000D03*
D25*
X80410000Y-70400000D03*
D27*
X90910000Y-74150000D03*
D29*
X89185000Y-76350000D03*
D30*
X78010000Y-74150000D03*
D28*
X98690000Y-54200000D03*
D25*
X109410000Y-58400000D03*
D27*
X103910000Y-64350000D03*
D28*
X109130000Y-54200000D03*
D27*
X98910000Y-62150000D03*
D26*
X103910000Y-58400000D03*
D27*
X108910000Y-62150000D03*
D25*
X98410000Y-58400000D03*
D29*
X107185000Y-64350000D03*
D31*
X95960000Y-62150000D03*
D26*
X121910000Y-52400000D03*
D25*
X116410000Y-52400000D03*
D28*
X127130000Y-48200000D03*
D27*
X121910000Y-58350000D03*
X116910000Y-56150000D03*
D28*
X116690000Y-48200000D03*
D25*
X127410000Y-52400000D03*
D27*
X126910000Y-56150000D03*
D29*
X125185000Y-58350000D03*
D32*
X113635000Y-56150000D03*
D25*
X145410000Y-59020000D03*
D27*
X134910000Y-62770000D03*
X139910000Y-64970000D03*
D28*
X134690000Y-54820000D03*
D26*
X139910000Y-59020000D03*
D28*
X145130000Y-54820000D03*
D25*
X134410000Y-59020000D03*
D27*
X144910000Y-62770000D03*
D29*
X143185000Y-64970000D03*
D32*
X131635000Y-62770000D03*
D27*
X152910000Y-65150000D03*
X157910000Y-67350000D03*
D28*
X152690000Y-57200000D03*
D26*
X157910000Y-61400000D03*
D25*
X152410000Y-61400000D03*
X163410000Y-61400000D03*
D27*
X162910000Y-65150000D03*
D28*
X163130000Y-57200000D03*
D29*
X161185000Y-67350000D03*
D32*
X149635000Y-65150000D03*
D27*
X90910000Y-91150000D03*
D25*
X91410000Y-87400000D03*
X80410000Y-87400000D03*
D27*
X80910000Y-91150000D03*
D28*
X80690000Y-83200000D03*
D27*
X85910000Y-93350000D03*
D28*
X91130000Y-83200000D03*
D26*
X85910000Y-87400000D03*
D29*
X89185000Y-93350000D03*
D33*
X78010000Y-91150000D03*
D25*
X98410000Y-75400000D03*
D28*
X109130000Y-71200000D03*
D26*
X103910000Y-75400000D03*
D25*
X109410000Y-75400000D03*
D27*
X108910000Y-79150000D03*
X98910000Y-79150000D03*
X103910000Y-81350000D03*
D28*
X98690000Y-71200000D03*
D29*
X107185000Y-81350000D03*
D32*
X95635000Y-79150000D03*
D27*
X121910000Y-75350000D03*
D25*
X116410000Y-69400000D03*
D28*
X127130000Y-65200000D03*
D25*
X127410000Y-69400000D03*
D28*
X116690000Y-65200000D03*
D26*
X121910000Y-69400000D03*
D27*
X116910000Y-73150000D03*
X126910000Y-73150000D03*
D29*
X125185000Y-75350000D03*
D32*
X113635000Y-73150000D03*
D27*
X134910000Y-79770000D03*
D28*
X134690000Y-71820000D03*
D27*
X144910000Y-79770000D03*
X139910000Y-81970000D03*
D25*
X134410000Y-76020000D03*
D26*
X139910000Y-76020000D03*
D25*
X145410000Y-76020000D03*
D28*
X145130000Y-71820000D03*
D29*
X143185000Y-81970000D03*
D32*
X131635000Y-79770000D03*
D25*
X163410000Y-78400000D03*
D27*
X162910000Y-82150000D03*
D25*
X152410000Y-78400000D03*
D28*
X152690000Y-74200000D03*
X163130000Y-74200000D03*
D27*
X157910000Y-84350000D03*
D26*
X157910000Y-78400000D03*
D27*
X152910000Y-82150000D03*
D29*
X161185000Y-84350000D03*
D32*
X149635000Y-82150000D03*
D28*
X91130000Y-100200000D03*
X80690000Y-100200000D03*
D27*
X90910000Y-108150000D03*
D25*
X91410000Y-104400000D03*
X80410000Y-104400000D03*
D26*
X85910000Y-104400000D03*
D27*
X80910000Y-108150000D03*
X85910000Y-110350000D03*
D29*
X89185000Y-110350000D03*
D33*
X78010000Y-108150000D03*
D27*
X103910000Y-98350000D03*
X98910000Y-96150000D03*
D28*
X98690000Y-88200000D03*
D25*
X109410000Y-92400000D03*
D27*
X108910000Y-96150000D03*
D25*
X98410000Y-92400000D03*
D28*
X109130000Y-88200000D03*
D26*
X103910000Y-92400000D03*
D29*
X107185000Y-98350000D03*
D32*
X95635000Y-96150000D03*
D26*
X121910000Y-86400000D03*
D27*
X116910000Y-90150000D03*
D28*
X116690000Y-82200000D03*
D27*
X126910000Y-90150000D03*
D25*
X127410000Y-86400000D03*
D28*
X127130000Y-82200000D03*
D25*
X116410000Y-86400000D03*
D27*
X121910000Y-92350000D03*
D29*
X125185000Y-92350000D03*
D32*
X113635000Y-90150000D03*
D28*
X145130000Y-88825000D03*
X134690000Y-88825000D03*
D25*
X134410000Y-93025000D03*
D27*
X139910000Y-98975000D03*
D25*
X145410000Y-93025000D03*
D27*
X134910000Y-96775000D03*
D26*
X139910000Y-93025000D03*
D27*
X144910000Y-96775000D03*
D29*
X143185000Y-98975000D03*
D32*
X131635000Y-96775000D03*
D27*
X157910000Y-101350000D03*
D26*
X157910000Y-95400000D03*
D25*
X163410000Y-95400000D03*
D27*
X152910000Y-99150000D03*
D28*
X152690000Y-91200000D03*
D27*
X162910000Y-99150000D03*
D25*
X152410000Y-95400000D03*
D28*
X163130000Y-91200000D03*
D29*
X161185000Y-101350000D03*
D32*
X149635000Y-99150000D03*
D28*
X139230000Y-117190000D03*
D27*
X134010000Y-107040000D03*
D25*
X128510000Y-112990000D03*
D27*
X139010000Y-109240000D03*
D26*
X134010000Y-112990000D03*
D25*
X139510000Y-112990000D03*
D27*
X129010000Y-109240000D03*
D28*
X128790000Y-117190000D03*
D34*
X130735000Y-107040000D03*
D35*
X142285000Y-109240000D03*
D28*
X158015093Y-120987924D03*
D27*
X155599973Y-109832741D03*
X150200942Y-110663683D03*
D26*
X154060000Y-115580000D03*
D27*
X159860201Y-113251873D03*
D25*
X148747408Y-114156495D03*
D28*
X147930827Y-118285853D03*
D25*
X159372592Y-117003505D03*
D36*
X152436566Y-108985109D03*
D37*
X163023608Y-114099506D03*
D27*
X173912405Y-112584873D03*
X169507149Y-115815000D03*
D28*
X180907307Y-116369347D03*
D25*
X171910000Y-123553140D03*
X177410000Y-114026860D03*
D27*
X168912405Y-121245127D03*
D26*
X174660000Y-118790000D03*
D28*
X175687307Y-125410653D03*
D38*
X167869649Y-118651233D03*
D39*
X175549905Y-109748640D03*
D40*
X169620000Y-58870400D03*
X186166400Y-57600400D03*
X186166400Y-60140400D03*
X169620000Y-61410400D03*
X186166400Y-62680400D03*
X169620000Y-63950400D03*
X186166400Y-65220400D03*
X169620000Y-66490400D03*
X169620000Y-69030400D03*
X186166400Y-67760400D03*
X169620000Y-71570400D03*
X186166400Y-70300400D03*
X169620000Y-74110400D03*
X186166400Y-72840400D03*
X169620000Y-76650400D03*
X186166400Y-75380400D03*
X186166400Y-77920400D03*
X169620000Y-79190400D03*
X186166400Y-80460400D03*
X169620000Y-81730400D03*
X186166400Y-83000400D03*
X169620000Y-84270400D03*
X186166400Y-85540400D03*
X169620000Y-86810400D03*
X170946400Y-85540400D03*
X184860000Y-86810400D03*
X170946400Y-83000400D03*
X184860000Y-84270400D03*
X184860000Y-81730400D03*
X170946400Y-80460400D03*
X184860000Y-79190400D03*
X170946400Y-77920400D03*
X184860000Y-76650400D03*
X170946400Y-75380400D03*
X184860000Y-74110400D03*
X170946400Y-72840400D03*
X184860000Y-71570400D03*
X170946400Y-70300400D03*
X170946400Y-67760400D03*
X184860000Y-69030400D03*
X184860000Y-66490400D03*
X170946400Y-65220400D03*
X184860000Y-63950400D03*
X170946400Y-62680400D03*
X170946400Y-60140400D03*
X184860000Y-61410400D03*
X184860000Y-58870400D03*
X170946400Y-57600400D03*
D18*
X173930000Y-90608400D03*
X176470000Y-90608400D03*
X179010000Y-90608400D03*
X181550000Y-90608400D03*
D41*
X186003000Y-93853000D03*
X179503000Y-93853000D03*
D42*
X171323000Y-96901000D03*
X185420000Y-106426000D03*
X95000000Y-66802000D03*
X148971000Y-69850000D03*
X123952000Y-104140000D03*
X167005000Y-110363000D03*
X95000000Y-83820000D03*
D12*
X176480000Y-87478020D03*
X176480000Y-88478780D03*
X173930000Y-87507620D03*
X173930000Y-88508380D03*
X181640000Y-87428020D03*
X181640000Y-88428780D03*
X179060000Y-87448020D03*
X179060000Y-88448780D03*
G36*
X168378170Y-117210467D02*
G01*
X168414894Y-117215302D01*
X168443939Y-117193014D01*
X168448726Y-117156655D01*
X168430662Y-117130248D01*
X168430510Y-117128254D01*
X168432160Y-117127125D01*
X168433496Y-117127506D01*
X168607351Y-117254983D01*
X168830077Y-117372164D01*
X168895712Y-117395084D01*
X168897018Y-117396599D01*
X168896359Y-117398487D01*
X168895166Y-117398969D01*
X168858145Y-117401071D01*
X168833768Y-117428385D01*
X168835849Y-117465044D01*
X168855190Y-117485874D01*
X169742215Y-117997998D01*
X169742464Y-117998168D01*
X169742469Y-117998172D01*
X169743197Y-118000035D01*
X169741948Y-118001597D01*
X169740220Y-118001466D01*
X167966385Y-116977342D01*
X167965385Y-116975610D01*
X167966385Y-116973878D01*
X167968385Y-116973878D01*
X168378170Y-117210467D01*
G37*
G36*
X161650661Y-113431722D02*
G01*
X161651179Y-113433654D01*
X161508033Y-113967883D01*
X161506619Y-113969297D01*
X161504687Y-113968779D01*
X161504118Y-113967626D01*
X161499231Y-113930507D01*
X161470186Y-113908220D01*
X161433796Y-113913011D01*
X161414002Y-113934898D01*
X161412099Y-113935511D01*
X161410616Y-113934170D01*
X161410695Y-113932735D01*
X161455794Y-113832620D01*
X161524108Y-113590397D01*
X161543918Y-113434673D01*
X161545129Y-113433081D01*
X161547113Y-113433333D01*
X161547832Y-113434399D01*
X161557585Y-113470174D01*
X161589369Y-113488339D01*
X161624767Y-113478689D01*
X161641855Y-113452995D01*
X161647315Y-113432618D01*
X161648729Y-113431204D01*
X161650661Y-113431722D01*
G37*
G36*
X173679334Y-110398407D02*
G01*
X175474139Y-111434638D01*
X175475139Y-111436370D01*
X175474139Y-111438102D01*
X175472139Y-111438102D01*
X175049031Y-111193821D01*
X175012307Y-111188986D01*
X174983262Y-111211274D01*
X174978466Y-111247702D01*
X174991888Y-111270150D01*
X174991918Y-111272149D01*
X174990202Y-111273176D01*
X174988801Y-111272633D01*
X174980987Y-111265283D01*
X174774206Y-111121833D01*
X174548484Y-111010519D01*
X174516709Y-111000348D01*
X174515365Y-110998867D01*
X174515974Y-110996963D01*
X174517153Y-110996450D01*
X174554105Y-110993380D01*
X174577760Y-110965438D01*
X174574718Y-110928831D01*
X174555952Y-110909142D01*
X173677339Y-110401875D01*
X173677090Y-110401705D01*
X173677085Y-110401701D01*
X173676357Y-110399838D01*
X173677606Y-110398276D01*
X173679334Y-110398407D01*
G37*
G36*
X87686442Y-110064424D02*
G01*
X87687000Y-110065810D01*
X87687000Y-110619229D01*
X87686000Y-110620961D01*
X87684000Y-110620961D01*
X87683152Y-110619994D01*
X87668826Y-110585407D01*
X87635002Y-110571397D01*
X87601111Y-110585435D01*
X87587385Y-110613422D01*
X87585724Y-110614536D01*
X87583928Y-110613656D01*
X87583605Y-110612289D01*
X87605674Y-110438816D01*
X87607998Y-110350056D01*
X87589343Y-110099019D01*
X87584492Y-110077580D01*
X87585085Y-110075670D01*
X87587036Y-110075229D01*
X87588076Y-110075985D01*
X87609476Y-110106265D01*
X87645559Y-110112465D01*
X87675561Y-110091261D01*
X87683079Y-110065255D01*
X87684520Y-110063868D01*
X87686442Y-110064424D01*
G37*
G36*
X153955852Y-109114474D02*
G01*
X153956421Y-109115627D01*
X153961308Y-109152746D01*
X153990353Y-109175033D01*
X154026728Y-109170244D01*
X154047057Y-109147165D01*
X154048952Y-109146526D01*
X154050453Y-109147848D01*
X154050402Y-109149260D01*
X153989724Y-109293959D01*
X153927775Y-109537884D01*
X153916764Y-109647237D01*
X153915595Y-109648861D01*
X153913605Y-109648660D01*
X153912859Y-109647613D01*
X153902173Y-109612104D01*
X153869921Y-109594776D01*
X153834776Y-109605353D01*
X153818516Y-109630513D01*
X153816736Y-109631424D01*
X153815056Y-109630339D01*
X153814904Y-109628909D01*
X153952506Y-109115370D01*
X153953920Y-109113956D01*
X153955852Y-109114474D01*
G37*
G36*
X140786442Y-108954424D02*
G01*
X140787000Y-108955810D01*
X140787000Y-109509229D01*
X140786000Y-109510961D01*
X140784000Y-109510961D01*
X140783152Y-109509994D01*
X140768826Y-109475407D01*
X140735002Y-109461397D01*
X140701111Y-109475435D01*
X140687385Y-109503422D01*
X140685724Y-109504536D01*
X140683928Y-109503656D01*
X140683605Y-109502289D01*
X140705674Y-109328816D01*
X140707998Y-109240056D01*
X140689343Y-108989019D01*
X140684492Y-108967580D01*
X140685085Y-108965670D01*
X140687036Y-108965229D01*
X140688076Y-108965985D01*
X140709476Y-108996265D01*
X140745559Y-109002465D01*
X140775561Y-108981261D01*
X140783079Y-108955255D01*
X140784520Y-108953868D01*
X140786442Y-108954424D01*
G37*
G36*
X79149348Y-107802390D02*
G01*
X79163674Y-107836977D01*
X79197498Y-107850987D01*
X79231453Y-107836923D01*
X79243964Y-107814922D01*
X79245690Y-107813911D01*
X79247428Y-107814900D01*
X79247641Y-107816403D01*
X79237802Y-107855143D01*
X79212588Y-108105550D01*
X79224663Y-108356933D01*
X79248300Y-108475765D01*
X79247657Y-108477659D01*
X79245695Y-108478049D01*
X79244675Y-108477266D01*
X79224075Y-108446434D01*
X79188167Y-108439292D01*
X79157632Y-108459694D01*
X79149414Y-108486788D01*
X79147954Y-108488155D01*
X79146040Y-108487574D01*
X79145500Y-108486207D01*
X79145500Y-107803155D01*
X79146500Y-107801423D01*
X79148500Y-107801423D01*
X79149348Y-107802390D01*
G37*
G36*
X132236848Y-106751130D02*
G01*
X132251174Y-106785717D01*
X132284998Y-106799727D01*
X132318876Y-106785695D01*
X132332764Y-106756412D01*
X132334410Y-106755276D01*
X132336217Y-106756133D01*
X132336561Y-106757469D01*
X132312588Y-106995550D01*
X132324663Y-107246933D01*
X132335800Y-107302923D01*
X132335157Y-107304817D01*
X132333195Y-107305207D01*
X132332175Y-107304424D01*
X132311575Y-107273592D01*
X132275667Y-107266450D01*
X132245132Y-107286852D01*
X132236914Y-107313946D01*
X132235454Y-107315313D01*
X132233540Y-107314732D01*
X132233000Y-107313365D01*
X132233000Y-106751895D01*
X132234000Y-106750163D01*
X132236000Y-106750163D01*
X132236848Y-106751130D01*
G37*
G36*
X159686442Y-101064424D02*
G01*
X159687000Y-101065810D01*
X159687000Y-101619229D01*
X159686000Y-101620961D01*
X159684000Y-101620961D01*
X159683152Y-101619994D01*
X159668826Y-101585407D01*
X159635002Y-101571397D01*
X159601111Y-101585435D01*
X159587385Y-101613422D01*
X159585724Y-101614536D01*
X159583928Y-101613656D01*
X159583605Y-101612289D01*
X159605674Y-101438816D01*
X159607998Y-101350056D01*
X159589343Y-101099019D01*
X159584492Y-101077580D01*
X159585085Y-101075670D01*
X159587036Y-101075229D01*
X159588076Y-101075985D01*
X159609476Y-101106265D01*
X159645559Y-101112465D01*
X159675561Y-101091261D01*
X159683079Y-101065255D01*
X159684520Y-101063868D01*
X159686442Y-101064424D01*
G37*
G36*
X151136848Y-98861130D02*
G01*
X151151174Y-98895717D01*
X151184998Y-98909727D01*
X151218876Y-98895695D01*
X151232764Y-98866412D01*
X151234410Y-98865276D01*
X151236217Y-98866133D01*
X151236561Y-98867469D01*
X151212588Y-99105550D01*
X151224663Y-99356933D01*
X151235800Y-99412923D01*
X151235157Y-99414817D01*
X151233195Y-99415207D01*
X151232175Y-99414424D01*
X151211575Y-99383592D01*
X151175667Y-99376450D01*
X151145132Y-99396852D01*
X151136914Y-99423946D01*
X151135454Y-99425313D01*
X151133540Y-99424732D01*
X151133000Y-99423365D01*
X151133000Y-98861895D01*
X151134000Y-98860163D01*
X151136000Y-98860163D01*
X151136848Y-98861130D01*
G37*
G36*
X141686442Y-98689424D02*
G01*
X141687000Y-98690810D01*
X141687000Y-99244229D01*
X141686000Y-99245961D01*
X141684000Y-99245961D01*
X141683152Y-99244994D01*
X141668826Y-99210407D01*
X141635002Y-99196397D01*
X141601111Y-99210435D01*
X141587385Y-99238422D01*
X141585724Y-99239536D01*
X141583928Y-99238656D01*
X141583605Y-99237289D01*
X141605674Y-99063816D01*
X141607998Y-98975056D01*
X141589343Y-98724019D01*
X141584492Y-98702580D01*
X141585085Y-98700670D01*
X141587036Y-98700229D01*
X141588076Y-98700985D01*
X141609476Y-98731265D01*
X141645559Y-98737465D01*
X141675561Y-98716261D01*
X141683079Y-98690255D01*
X141684520Y-98688868D01*
X141686442Y-98689424D01*
G37*
G36*
X105686442Y-98064424D02*
G01*
X105687000Y-98065810D01*
X105687000Y-98619229D01*
X105686000Y-98620961D01*
X105684000Y-98620961D01*
X105683152Y-98619994D01*
X105668826Y-98585407D01*
X105635002Y-98571397D01*
X105601111Y-98585435D01*
X105587385Y-98613422D01*
X105585724Y-98614536D01*
X105583928Y-98613656D01*
X105583605Y-98612289D01*
X105605674Y-98438816D01*
X105607998Y-98350056D01*
X105589343Y-98099019D01*
X105584492Y-98077580D01*
X105585085Y-98075670D01*
X105587036Y-98075229D01*
X105588076Y-98075985D01*
X105609476Y-98106265D01*
X105645559Y-98112465D01*
X105675561Y-98091261D01*
X105683079Y-98065255D01*
X105684520Y-98063868D01*
X105686442Y-98064424D01*
G37*
G36*
X133136848Y-96486130D02*
G01*
X133151174Y-96520717D01*
X133184998Y-96534727D01*
X133218876Y-96520695D01*
X133232764Y-96491412D01*
X133234410Y-96490276D01*
X133236217Y-96491133D01*
X133236561Y-96492469D01*
X133212588Y-96730550D01*
X133224663Y-96981933D01*
X133235800Y-97037923D01*
X133235157Y-97039817D01*
X133233195Y-97040207D01*
X133232175Y-97039424D01*
X133211575Y-97008592D01*
X133175667Y-97001450D01*
X133145132Y-97021852D01*
X133136914Y-97048946D01*
X133135454Y-97050313D01*
X133133540Y-97049732D01*
X133133000Y-97048365D01*
X133133000Y-96486895D01*
X133134000Y-96485163D01*
X133136000Y-96485163D01*
X133136848Y-96486130D01*
G37*
G36*
X97136848Y-95861130D02*
G01*
X97151174Y-95895717D01*
X97184998Y-95909727D01*
X97218876Y-95895695D01*
X97232764Y-95866412D01*
X97234410Y-95865276D01*
X97236217Y-95866133D01*
X97236561Y-95867469D01*
X97212588Y-96105550D01*
X97224663Y-96356933D01*
X97235800Y-96412923D01*
X97235157Y-96414817D01*
X97233195Y-96415207D01*
X97232175Y-96414424D01*
X97211575Y-96383592D01*
X97175667Y-96376450D01*
X97145132Y-96396852D01*
X97136914Y-96423946D01*
X97135454Y-96425313D01*
X97133540Y-96424732D01*
X97133000Y-96423365D01*
X97133000Y-95861895D01*
X97134000Y-95860163D01*
X97136000Y-95860163D01*
X97136848Y-95861130D01*
G37*
G36*
X87686442Y-93064424D02*
G01*
X87687000Y-93065810D01*
X87687000Y-93619229D01*
X87686000Y-93620961D01*
X87684000Y-93620961D01*
X87683152Y-93619994D01*
X87668826Y-93585407D01*
X87635002Y-93571397D01*
X87601111Y-93585435D01*
X87587385Y-93613422D01*
X87585724Y-93614536D01*
X87583928Y-93613656D01*
X87583605Y-93612289D01*
X87605674Y-93438816D01*
X87607998Y-93350056D01*
X87589343Y-93099019D01*
X87584492Y-93077580D01*
X87585085Y-93075670D01*
X87587036Y-93075229D01*
X87588076Y-93075985D01*
X87609476Y-93106265D01*
X87645559Y-93112465D01*
X87675561Y-93091261D01*
X87683079Y-93065255D01*
X87684520Y-93063868D01*
X87686442Y-93064424D01*
G37*
G36*
X123686442Y-92064424D02*
G01*
X123687000Y-92065810D01*
X123687000Y-92619229D01*
X123686000Y-92620961D01*
X123684000Y-92620961D01*
X123683152Y-92619994D01*
X123668826Y-92585407D01*
X123635002Y-92571397D01*
X123601111Y-92585435D01*
X123587385Y-92613422D01*
X123585724Y-92614536D01*
X123583928Y-92613656D01*
X123583605Y-92612289D01*
X123605674Y-92438816D01*
X123607998Y-92350056D01*
X123589343Y-92099019D01*
X123584492Y-92077580D01*
X123585085Y-92075670D01*
X123587036Y-92075229D01*
X123588076Y-92075985D01*
X123609476Y-92106265D01*
X123645559Y-92112465D01*
X123675561Y-92091261D01*
X123683079Y-92065255D01*
X123684520Y-92063868D01*
X123686442Y-92064424D01*
G37*
G36*
X79149348Y-90802390D02*
G01*
X79163674Y-90836977D01*
X79197498Y-90850987D01*
X79231453Y-90836923D01*
X79243964Y-90814922D01*
X79245690Y-90813911D01*
X79247428Y-90814900D01*
X79247641Y-90816403D01*
X79237802Y-90855143D01*
X79212588Y-91105550D01*
X79224663Y-91356933D01*
X79248300Y-91475765D01*
X79247657Y-91477659D01*
X79245695Y-91478049D01*
X79244675Y-91477266D01*
X79224075Y-91446434D01*
X79188167Y-91439292D01*
X79157632Y-91459694D01*
X79149414Y-91486788D01*
X79147954Y-91488155D01*
X79146040Y-91487574D01*
X79145500Y-91486207D01*
X79145500Y-90803155D01*
X79146500Y-90801423D01*
X79148500Y-90801423D01*
X79149348Y-90802390D01*
G37*
G36*
X115136848Y-89861130D02*
G01*
X115151174Y-89895717D01*
X115184998Y-89909727D01*
X115218876Y-89895695D01*
X115232764Y-89866412D01*
X115234410Y-89865276D01*
X115236217Y-89866133D01*
X115236561Y-89867469D01*
X115212588Y-90105550D01*
X115224663Y-90356933D01*
X115235800Y-90412923D01*
X115235157Y-90414817D01*
X115233195Y-90415207D01*
X115232175Y-90414424D01*
X115211575Y-90383592D01*
X115175667Y-90376450D01*
X115145132Y-90396852D01*
X115136914Y-90423946D01*
X115135454Y-90425313D01*
X115133540Y-90424732D01*
X115133000Y-90423365D01*
X115133000Y-89861895D01*
X115134000Y-89860163D01*
X115136000Y-89860163D01*
X115136848Y-89861130D01*
G37*
G36*
X159686442Y-84064424D02*
G01*
X159687000Y-84065810D01*
X159687000Y-84619229D01*
X159686000Y-84620961D01*
X159684000Y-84620961D01*
X159683152Y-84619994D01*
X159668826Y-84585407D01*
X159635002Y-84571397D01*
X159601111Y-84585435D01*
X159587385Y-84613422D01*
X159585724Y-84614536D01*
X159583928Y-84613656D01*
X159583605Y-84612289D01*
X159605674Y-84438816D01*
X159607998Y-84350056D01*
X159589343Y-84099019D01*
X159584492Y-84077580D01*
X159585085Y-84075670D01*
X159587036Y-84075229D01*
X159588076Y-84075985D01*
X159609476Y-84106265D01*
X159645559Y-84112465D01*
X159675561Y-84091261D01*
X159683079Y-84065255D01*
X159684520Y-84063868D01*
X159686442Y-84064424D01*
G37*
G36*
X151136848Y-81861130D02*
G01*
X151151174Y-81895717D01*
X151184998Y-81909727D01*
X151218876Y-81895695D01*
X151232764Y-81866412D01*
X151234410Y-81865276D01*
X151236217Y-81866133D01*
X151236561Y-81867469D01*
X151212588Y-82105550D01*
X151224663Y-82356933D01*
X151235800Y-82412923D01*
X151235157Y-82414817D01*
X151233195Y-82415207D01*
X151232175Y-82414424D01*
X151211575Y-82383592D01*
X151175667Y-82376450D01*
X151145132Y-82396852D01*
X151136914Y-82423946D01*
X151135454Y-82425313D01*
X151133540Y-82424732D01*
X151133000Y-82423365D01*
X151133000Y-81861895D01*
X151134000Y-81860163D01*
X151136000Y-81860163D01*
X151136848Y-81861130D01*
G37*
G36*
X141686442Y-81684424D02*
G01*
X141687000Y-81685810D01*
X141687000Y-82239229D01*
X141686000Y-82240961D01*
X141684000Y-82240961D01*
X141683152Y-82239994D01*
X141668826Y-82205407D01*
X141635002Y-82191397D01*
X141601111Y-82205435D01*
X141587385Y-82233422D01*
X141585724Y-82234536D01*
X141583928Y-82233656D01*
X141583605Y-82232289D01*
X141605674Y-82058816D01*
X141607998Y-81970056D01*
X141589343Y-81719019D01*
X141584492Y-81697580D01*
X141585085Y-81695670D01*
X141587036Y-81695229D01*
X141588076Y-81695985D01*
X141609476Y-81726265D01*
X141645559Y-81732465D01*
X141675561Y-81711261D01*
X141683079Y-81685255D01*
X141684520Y-81683868D01*
X141686442Y-81684424D01*
G37*
G36*
X105686442Y-81064424D02*
G01*
X105687000Y-81065810D01*
X105687000Y-81619229D01*
X105686000Y-81620961D01*
X105684000Y-81620961D01*
X105683152Y-81619994D01*
X105668826Y-81585407D01*
X105635002Y-81571397D01*
X105601111Y-81585435D01*
X105587385Y-81613422D01*
X105585724Y-81614536D01*
X105583928Y-81613656D01*
X105583605Y-81612289D01*
X105605674Y-81438816D01*
X105607998Y-81350056D01*
X105589343Y-81099019D01*
X105584492Y-81077580D01*
X105585085Y-81075670D01*
X105587036Y-81075229D01*
X105588076Y-81075985D01*
X105609476Y-81106265D01*
X105645559Y-81112465D01*
X105675561Y-81091261D01*
X105683079Y-81065255D01*
X105684520Y-81063868D01*
X105686442Y-81064424D01*
G37*
G36*
X133136848Y-79481130D02*
G01*
X133151174Y-79515717D01*
X133184998Y-79529727D01*
X133218876Y-79515695D01*
X133232764Y-79486412D01*
X133234410Y-79485276D01*
X133236217Y-79486133D01*
X133236561Y-79487469D01*
X133212588Y-79725550D01*
X133224663Y-79976933D01*
X133235800Y-80032923D01*
X133235157Y-80034817D01*
X133233195Y-80035207D01*
X133232175Y-80034424D01*
X133211575Y-80003592D01*
X133175667Y-79996450D01*
X133145132Y-80016852D01*
X133136914Y-80043946D01*
X133135454Y-80045313D01*
X133133540Y-80044732D01*
X133133000Y-80043365D01*
X133133000Y-79481895D01*
X133134000Y-79480163D01*
X133136000Y-79480163D01*
X133136848Y-79481130D01*
G37*
G36*
X97136848Y-78861130D02*
G01*
X97151174Y-78895717D01*
X97184998Y-78909727D01*
X97218876Y-78895695D01*
X97232764Y-78866412D01*
X97234410Y-78865276D01*
X97236217Y-78866133D01*
X97236561Y-78867469D01*
X97212588Y-79105550D01*
X97224663Y-79356933D01*
X97235800Y-79412923D01*
X97235157Y-79414817D01*
X97233195Y-79415207D01*
X97232175Y-79414424D01*
X97211575Y-79383592D01*
X97175667Y-79376450D01*
X97145132Y-79396852D01*
X97136914Y-79423946D01*
X97135454Y-79425313D01*
X97133540Y-79424732D01*
X97133000Y-79423365D01*
X97133000Y-78861895D01*
X97134000Y-78860163D01*
X97136000Y-78860163D01*
X97136848Y-78861130D01*
G37*
G36*
X87686442Y-76064424D02*
G01*
X87687000Y-76065810D01*
X87687000Y-76619229D01*
X87686000Y-76620961D01*
X87684000Y-76620961D01*
X87683152Y-76619994D01*
X87668826Y-76585407D01*
X87635002Y-76571397D01*
X87601111Y-76585435D01*
X87587385Y-76613422D01*
X87585724Y-76614536D01*
X87583928Y-76613656D01*
X87583605Y-76612289D01*
X87605674Y-76438816D01*
X87607998Y-76350056D01*
X87589343Y-76099019D01*
X87584492Y-76077580D01*
X87585085Y-76075670D01*
X87587036Y-76075229D01*
X87588076Y-76075985D01*
X87609476Y-76106265D01*
X87645559Y-76112465D01*
X87675561Y-76091261D01*
X87683079Y-76065255D01*
X87684520Y-76063868D01*
X87686442Y-76064424D01*
G37*
G36*
X123686442Y-75064424D02*
G01*
X123687000Y-75065810D01*
X123687000Y-75619229D01*
X123686000Y-75620961D01*
X123684000Y-75620961D01*
X123683152Y-75619994D01*
X123668826Y-75585407D01*
X123635002Y-75571397D01*
X123601111Y-75585435D01*
X123587385Y-75613422D01*
X123585724Y-75614536D01*
X123583928Y-75613656D01*
X123583605Y-75612289D01*
X123605674Y-75438816D01*
X123607998Y-75350056D01*
X123589343Y-75099019D01*
X123584492Y-75077580D01*
X123585085Y-75075670D01*
X123587036Y-75075229D01*
X123588076Y-75075985D01*
X123609476Y-75106265D01*
X123645559Y-75112465D01*
X123675561Y-75091261D01*
X123683079Y-75065255D01*
X123684520Y-75063868D01*
X123686442Y-75064424D01*
G37*
G36*
X79136848Y-73861130D02*
G01*
X79151174Y-73895717D01*
X79184998Y-73909727D01*
X79218876Y-73895695D01*
X79232764Y-73866412D01*
X79234410Y-73865276D01*
X79236217Y-73866133D01*
X79236561Y-73867469D01*
X79212588Y-74105550D01*
X79224663Y-74356933D01*
X79235800Y-74412923D01*
X79235157Y-74414817D01*
X79233195Y-74415207D01*
X79232175Y-74414424D01*
X79211575Y-74383592D01*
X79175667Y-74376450D01*
X79145132Y-74396852D01*
X79136914Y-74423946D01*
X79135454Y-74425313D01*
X79133540Y-74424732D01*
X79133000Y-74423365D01*
X79133000Y-73861895D01*
X79134000Y-73860163D01*
X79136000Y-73860163D01*
X79136848Y-73861130D01*
G37*
G36*
X115136848Y-72861130D02*
G01*
X115151174Y-72895717D01*
X115184998Y-72909727D01*
X115218876Y-72895695D01*
X115232764Y-72866412D01*
X115234410Y-72865276D01*
X115236217Y-72866133D01*
X115236561Y-72867469D01*
X115212588Y-73105550D01*
X115224663Y-73356933D01*
X115235800Y-73412923D01*
X115235157Y-73414817D01*
X115233195Y-73415207D01*
X115232175Y-73414424D01*
X115211575Y-73383592D01*
X115175667Y-73376450D01*
X115145132Y-73396852D01*
X115136914Y-73423946D01*
X115135454Y-73425313D01*
X115133540Y-73424732D01*
X115133000Y-73423365D01*
X115133000Y-72861895D01*
X115134000Y-72860163D01*
X115136000Y-72860163D01*
X115136848Y-72861130D01*
G37*
G36*
X159686442Y-67064424D02*
G01*
X159687000Y-67065810D01*
X159687000Y-67619229D01*
X159686000Y-67620961D01*
X159684000Y-67620961D01*
X159683152Y-67619994D01*
X159668826Y-67585407D01*
X159635002Y-67571397D01*
X159601111Y-67585435D01*
X159587385Y-67613422D01*
X159585724Y-67614536D01*
X159583928Y-67613656D01*
X159583605Y-67612289D01*
X159605674Y-67438816D01*
X159607998Y-67350056D01*
X159589343Y-67099019D01*
X159584492Y-67077580D01*
X159585085Y-67075670D01*
X159587036Y-67075229D01*
X159588076Y-67075985D01*
X159609476Y-67106265D01*
X159645559Y-67112465D01*
X159675561Y-67091261D01*
X159683079Y-67065255D01*
X159684520Y-67063868D01*
X159686442Y-67064424D01*
G37*
G36*
X151136848Y-64861130D02*
G01*
X151151174Y-64895717D01*
X151184998Y-64909727D01*
X151218876Y-64895695D01*
X151232764Y-64866412D01*
X151234410Y-64865276D01*
X151236217Y-64866133D01*
X151236561Y-64867469D01*
X151212588Y-65105550D01*
X151224663Y-65356933D01*
X151235800Y-65412923D01*
X151235157Y-65414817D01*
X151233195Y-65415207D01*
X151232175Y-65414424D01*
X151211575Y-65383592D01*
X151175667Y-65376450D01*
X151145132Y-65396852D01*
X151136914Y-65423946D01*
X151135454Y-65425313D01*
X151133540Y-65424732D01*
X151133000Y-65423365D01*
X151133000Y-64861895D01*
X151134000Y-64860163D01*
X151136000Y-64860163D01*
X151136848Y-64861130D01*
G37*
G36*
X141686442Y-64684424D02*
G01*
X141687000Y-64685810D01*
X141687000Y-65239229D01*
X141686000Y-65240961D01*
X141684000Y-65240961D01*
X141683152Y-65239994D01*
X141668826Y-65205407D01*
X141635002Y-65191397D01*
X141601111Y-65205435D01*
X141587385Y-65233422D01*
X141585724Y-65234536D01*
X141583928Y-65233656D01*
X141583605Y-65232289D01*
X141605674Y-65058816D01*
X141607998Y-64970056D01*
X141589343Y-64719019D01*
X141584492Y-64697580D01*
X141585085Y-64695670D01*
X141587036Y-64695229D01*
X141588076Y-64695985D01*
X141609476Y-64726265D01*
X141645559Y-64732465D01*
X141675561Y-64711261D01*
X141683079Y-64685255D01*
X141684520Y-64683868D01*
X141686442Y-64684424D01*
G37*
G36*
X105686442Y-64064424D02*
G01*
X105687000Y-64065810D01*
X105687000Y-64619229D01*
X105686000Y-64620961D01*
X105684000Y-64620961D01*
X105683152Y-64619994D01*
X105668826Y-64585407D01*
X105635002Y-64571397D01*
X105601111Y-64585435D01*
X105587385Y-64613422D01*
X105585724Y-64614536D01*
X105583928Y-64613656D01*
X105583605Y-64612289D01*
X105605674Y-64438816D01*
X105607998Y-64350056D01*
X105589343Y-64099019D01*
X105584492Y-64077580D01*
X105585085Y-64075670D01*
X105587036Y-64075229D01*
X105588076Y-64075985D01*
X105609476Y-64106265D01*
X105645559Y-64112465D01*
X105675561Y-64091261D01*
X105683079Y-64065255D01*
X105684520Y-64063868D01*
X105686442Y-64064424D01*
G37*
G36*
X133136848Y-62481130D02*
G01*
X133151174Y-62515717D01*
X133184998Y-62529727D01*
X133218876Y-62515695D01*
X133232764Y-62486412D01*
X133234410Y-62485276D01*
X133236217Y-62486133D01*
X133236561Y-62487469D01*
X133212588Y-62725550D01*
X133224663Y-62976933D01*
X133235800Y-63032923D01*
X133235157Y-63034817D01*
X133233195Y-63035207D01*
X133232175Y-63034424D01*
X133211575Y-63003592D01*
X133175667Y-62996450D01*
X133145132Y-63016852D01*
X133136914Y-63043946D01*
X133135454Y-63045313D01*
X133133540Y-63044732D01*
X133133000Y-63043365D01*
X133133000Y-62481895D01*
X133134000Y-62480163D01*
X133136000Y-62480163D01*
X133136848Y-62481130D01*
G37*
G36*
X97186848Y-61654735D02*
G01*
X97201174Y-61689322D01*
X97234998Y-61703332D01*
X97268953Y-61689268D01*
X97281464Y-61667265D01*
X97283190Y-61666254D01*
X97284928Y-61667243D01*
X97285141Y-61668746D01*
X97237802Y-61855143D01*
X97212588Y-62105550D01*
X97224663Y-62356933D01*
X97273762Y-62603773D01*
X97283697Y-62631444D01*
X97283341Y-62633412D01*
X97281459Y-62634088D01*
X97280335Y-62633465D01*
X97255404Y-62606018D01*
X97218835Y-62604262D01*
X97191591Y-62629008D01*
X97186952Y-62649719D01*
X97185597Y-62651191D01*
X97183646Y-62650754D01*
X97183000Y-62649282D01*
X97183000Y-61655500D01*
X97184000Y-61653768D01*
X97186000Y-61653768D01*
X97186848Y-61654735D01*
G37*
G36*
X123686442Y-58064424D02*
G01*
X123687000Y-58065810D01*
X123687000Y-58619229D01*
X123686000Y-58620961D01*
X123684000Y-58620961D01*
X123683152Y-58619994D01*
X123668826Y-58585407D01*
X123635002Y-58571397D01*
X123601111Y-58585435D01*
X123587385Y-58613422D01*
X123585724Y-58614536D01*
X123583928Y-58613656D01*
X123583605Y-58612289D01*
X123605674Y-58438816D01*
X123607998Y-58350056D01*
X123589343Y-58099019D01*
X123584492Y-58077580D01*
X123585085Y-58075670D01*
X123587036Y-58075229D01*
X123588076Y-58075985D01*
X123609476Y-58106265D01*
X123645559Y-58112465D01*
X123675561Y-58091261D01*
X123683079Y-58065255D01*
X123684520Y-58063868D01*
X123686442Y-58064424D01*
G37*
G36*
X115136848Y-55861130D02*
G01*
X115151174Y-55895717D01*
X115184998Y-55909727D01*
X115218876Y-55895695D01*
X115232764Y-55866412D01*
X115234410Y-55865276D01*
X115236217Y-55866133D01*
X115236561Y-55867469D01*
X115212588Y-56105550D01*
X115224663Y-56356933D01*
X115235800Y-56412923D01*
X115235157Y-56414817D01*
X115233195Y-56415207D01*
X115232175Y-56414424D01*
X115211575Y-56383592D01*
X115175667Y-56376450D01*
X115145132Y-56396852D01*
X115136914Y-56423946D01*
X115135454Y-56425313D01*
X115133540Y-56424732D01*
X115133000Y-56423365D01*
X115133000Y-55861895D01*
X115134000Y-55860163D01*
X115136000Y-55860163D01*
X115136848Y-55861130D01*
G37*
M02*
