G04 #@! TF.GenerationSoftware,KiCad,Pcbnew,(5.99.0-11177-g6c67dfa032)*
G04 #@! TF.CreationDate,2021-10-11T00:00:08+03:00*
G04 #@! TF.ProjectId,chocofi,63686f63-6f66-4692-9e6b-696361645f70,2.1*
G04 #@! TF.SameCoordinates,Original*
G04 #@! TF.FileFunction,Paste,Top*
G04 #@! TF.FilePolarity,Positive*
%FSLAX46Y46*%
G04 Gerber Fmt 4.6, Leading zero omitted, Abs format (unit mm)*
G04 Created by KiCad (PCBNEW (5.99.0-11177-g6c67dfa032)) date 2021-10-11 00:00:08*
%MOMM*%
%LPD*%
G01*
G04 APERTURE LIST*
G04 Aperture macros list*
%AMRotRect*
0 Rectangle, with rotation*
0 The origin of the aperture is its center*
0 $1 length*
0 $2 width*
0 $3 Rotation angle, in degrees counterclockwise*
0 Add horizontal line*
21,1,$1,$2,0,0,$3*%
%AMOutline5P*
0 Free polygon, 5 corners , with rotation*
0 The origin of the aperture is its center*
0 number of corners: always 8*
0 $1 to $10 corner X, Y*
0 $11 Rotation angle, in degrees counterclockwise*
0 create outline with 8 corners*
4,1,5,$1,$2,$3,$4,$5,$6,$7,$8,$9,$10,$1,$2,$11*%
%AMOutline6P*
0 Free polygon, 6 corners , with rotation*
0 The origin of the aperture is its center*
0 number of corners: always 6*
0 $1 to $12 corner X, Y*
0 $13 Rotation angle, in degrees counterclockwise*
0 create outline with 6 corners*
4,1,6,$1,$2,$3,$4,$5,$6,$7,$8,$9,$10,$11,$12,$1,$2,$13*%
%AMOutline7P*
0 Free polygon, 7 corners , with rotation*
0 The origin of the aperture is its center*
0 number of corners: always 7*
0 $1 to $14 corner X, Y*
0 $15 Rotation angle, in degrees counterclockwise*
0 create outline with 7 corners*
4,1,7,$1,$2,$3,$4,$5,$6,$7,$8,$9,$10,$11,$12,$13,$14,$1,$2,$15*%
%AMOutline8P*
0 Free polygon, 8 corners , with rotation*
0 The origin of the aperture is its center*
0 number of corners: always 8*
0 $1 to $16 corner X, Y*
0 $17 Rotation angle, in degrees counterclockwise*
0 create outline with 8 corners*
4,1,8,$1,$2,$3,$4,$5,$6,$7,$8,$9,$10,$11,$12,$13,$14,$15,$16,$1,$2,$17*%
G04 Aperture macros list end*
%ADD10Outline5P,1.300000X1.300000X1.300000X-1.300000X-1.300000X-1.300000X-1.300000X0.130000X-0.130000X1.300000X0.000000*%
%ADD11R,2.600000X2.600000*%
%ADD12R,1.900000X2.600000*%
%ADD13R,1.300000X0.950000*%
%ADD14RotRect,1.300000X0.950000X345.000000*%
%ADD15RotRect,1.300000X0.950000X60.000000*%
%ADD16Outline5P,1.300000X1.300000X1.300000X-1.300000X-1.300000X-1.300000X-1.300000X0.130000X-0.130000X1.300000X180.000000*%
%ADD17Outline5P,1.300000X1.300000X1.300000X-1.300000X-1.300000X-1.300000X-1.300000X0.130000X-0.130000X1.300000X165.000000*%
%ADD18RotRect,2.600000X2.600000X165.000000*%
%ADD19Outline5P,1.300000X1.300000X1.300000X-1.300000X-1.300000X-1.300000X-1.300000X0.130000X-0.130000X1.300000X240.000000*%
%ADD20RotRect,2.600000X2.600000X240.000000*%
%ADD21R,1.143000X0.635000*%
G04 APERTURE END LIST*
D10*
X100635000Y-64350000D03*
D11*
X112185000Y-62150000D03*
D10*
X82635000Y-76350000D03*
D11*
X94185000Y-74150000D03*
D10*
X82635000Y-93350000D03*
D11*
X94185000Y-91150000D03*
D10*
X82635000Y-110350000D03*
D12*
X93810000Y-108150000D03*
D13*
X84229400Y-64312800D03*
X87779400Y-64312800D03*
X102314200Y-52273200D03*
X105864200Y-52273200D03*
X120297400Y-46228000D03*
X123847400Y-46228000D03*
X138229800Y-53289200D03*
X141779800Y-53289200D03*
X156213000Y-55422800D03*
X159763000Y-55422800D03*
X84127800Y-81229200D03*
X87677800Y-81229200D03*
X102111000Y-69342000D03*
X105661000Y-69342000D03*
X120195800Y-63347600D03*
X123745800Y-63347600D03*
X138179000Y-69900800D03*
X141729000Y-69900800D03*
X156517800Y-72491600D03*
X160067800Y-72491600D03*
X84127800Y-98247200D03*
X87677800Y-98247200D03*
X102212600Y-86309200D03*
X105762600Y-86309200D03*
X120195800Y-80314800D03*
X123745800Y-80314800D03*
X138280600Y-86969600D03*
X141830600Y-86969600D03*
X156314600Y-89357200D03*
X159864600Y-89357200D03*
X132184600Y-119075200D03*
X135734600Y-119075200D03*
D14*
X150799764Y-121001192D03*
X154228800Y-121920000D03*
D15*
X179070666Y-123432630D03*
X180845666Y-120358240D03*
D10*
X118635000Y-58350000D03*
D11*
X130185000Y-56150000D03*
D10*
X136635000Y-64970000D03*
D11*
X148185000Y-62770000D03*
D10*
X154635000Y-67350000D03*
D11*
X166185000Y-65150000D03*
D10*
X100635000Y-81350000D03*
D11*
X112185000Y-79150000D03*
D10*
X118635000Y-75350000D03*
D11*
X130185000Y-73150000D03*
D10*
X136635000Y-81970000D03*
D11*
X148185000Y-79770000D03*
D10*
X154635000Y-84350000D03*
D11*
X166185000Y-82150000D03*
D10*
X100635000Y-98350000D03*
D11*
X112185000Y-96150000D03*
D10*
X118635000Y-92350000D03*
D11*
X130185000Y-90150000D03*
D10*
X136635000Y-98975000D03*
D11*
X148185000Y-96775000D03*
D10*
X154635000Y-101350000D03*
D11*
X166185000Y-99150000D03*
D16*
X137285000Y-107040000D03*
D11*
X125735000Y-109240000D03*
D17*
X158763380Y-110680374D03*
D18*
X147037535Y-109816051D03*
D19*
X171144649Y-112978767D03*
D20*
X167274905Y-124081360D03*
D21*
X179070000Y-87448020D03*
X179070000Y-88448780D03*
X176470000Y-87468020D03*
X176470000Y-88468780D03*
X173930000Y-87498020D03*
X173930000Y-88498780D03*
X181640000Y-87438420D03*
X181640000Y-88439180D03*
M02*
