G04 #@! TF.GenerationSoftware,KiCad,Pcbnew,(5.99.0-11177-g6c67dfa032)*
G04 #@! TF.CreationDate,2021-10-11T00:00:10+03:00*
G04 #@! TF.ProjectId,chocofi,63686f63-6f66-4692-9e6b-696361645f70,2.1*
G04 #@! TF.SameCoordinates,Original*
G04 #@! TF.FileFunction,Profile,NP*
%FSLAX46Y46*%
G04 Gerber Fmt 4.6, Leading zero omitted, Abs format (unit mm)*
G04 Created by KiCad (PCBNEW (5.99.0-11177-g6c67dfa032)) date 2021-10-11 00:00:10*
%MOMM*%
%LPD*%
G01*
G04 APERTURE LIST*
G04 #@! TA.AperFunction,Profile*
%ADD10C,0.150000*%
G04 #@! TD*
G04 APERTURE END LIST*
D10*
X187620000Y-53805000D02*
X167330400Y-53815020D01*
X94515447Y-62020847D02*
X77419200Y-61976000D01*
X175768000Y-133654800D02*
X188214000Y-112014000D01*
X160477200Y-125984000D02*
X174288668Y-133959600D01*
X125374400Y-121240811D02*
X143154400Y-121259600D01*
X166850400Y-53455020D02*
G75*
G03*
X166360498Y-53055000I-489902J-99980D01*
G01*
X166850400Y-53455020D02*
G75*
G03*
X167330400Y-53815020I480000J140000D01*
G01*
X166360498Y-53055000D02*
X149293200Y-53069020D01*
X94515447Y-62020847D02*
G75*
G03*
X95015447Y-61520847I0J500000D01*
G01*
X95517120Y-50006820D02*
G75*
G03*
X95017120Y-50506820I0J-500000D01*
G01*
X130310000Y-44036200D02*
X113530000Y-44049553D01*
X130810000Y-50053400D02*
X130810000Y-44536200D01*
X148293200Y-50569020D02*
X131310000Y-50553400D01*
X148793200Y-52569020D02*
X148793200Y-51069020D01*
X95017120Y-50506820D02*
X95015447Y-61520847D01*
X112547120Y-50006820D02*
X95517120Y-50006820D01*
X113030000Y-44549553D02*
X113047120Y-49506820D01*
X112547120Y-50006820D02*
G75*
G03*
X113047120Y-49506820I0J500000D01*
G01*
X113530000Y-44049553D02*
G75*
G03*
X113030000Y-44549553I0J-500000D01*
G01*
X130810000Y-44536200D02*
G75*
G03*
X130310000Y-44036200I-500000J0D01*
G01*
X130810000Y-50053400D02*
G75*
G03*
X131310000Y-50553400I500000J0D01*
G01*
X148793200Y-51069020D02*
G75*
G03*
X148293200Y-50569020I-500000J0D01*
G01*
X148793200Y-52569020D02*
G75*
G03*
X149293200Y-53069020I500000J0D01*
G01*
X188120000Y-54305000D02*
G75*
G03*
X187620000Y-53805000I-500000J0D01*
G01*
X95453200Y-100862652D02*
X112623600Y-100862652D01*
X94792800Y-110744000D02*
X94843600Y-101472252D01*
X113294857Y-101294883D02*
G75*
G03*
X112623600Y-100862652I-671257J-305117D01*
G01*
X125374400Y-121240811D02*
G75*
G02*
X125018800Y-121107200I0J540011D01*
G01*
X175768000Y-133654800D02*
G75*
G02*
X174288668Y-133959599I-1039306J1301890D01*
G01*
X77012800Y-93776800D02*
X77012800Y-110744000D01*
X76962000Y-62433200D02*
X77012800Y-76708000D01*
X188120000Y-54305000D02*
X188214000Y-112014000D01*
X94792800Y-112115600D02*
X94792800Y-110744000D01*
X95453200Y-100862652D02*
G75*
G03*
X94843600Y-101472252I0J-609600D01*
G01*
X94792800Y-112115600D02*
G75*
G02*
X94132400Y-112776000I-660400J0D01*
G01*
X77012800Y-112115600D02*
X77012800Y-110744000D01*
X77012800Y-76708000D02*
X77012800Y-93776800D01*
X113294857Y-101294883D02*
X125018800Y-121107200D01*
X76962000Y-62433200D02*
G75*
G02*
X77419200Y-61976000I457200J0D01*
G01*
X77673200Y-112776000D02*
X94132400Y-112776000D01*
X143154400Y-121259600D02*
X160477200Y-125984000D01*
X77673200Y-112776000D02*
G75*
G02*
X77012800Y-112115600I0J660400D01*
G01*
M02*
