G04 #@! TF.GenerationSoftware,KiCad,Pcbnew,(5.99.0-11177-g6c67dfa032)*
G04 #@! TF.CreationDate,2021-10-11T00:00:09+03:00*
G04 #@! TF.ProjectId,chocofi,63686f63-6f66-4692-9e6b-696361645f70,2.1*
G04 #@! TF.SameCoordinates,Original*
G04 #@! TF.FileFunction,Soldermask,Top*
G04 #@! TF.FilePolarity,Negative*
%FSLAX46Y46*%
G04 Gerber Fmt 4.6, Leading zero omitted, Abs format (unit mm)*
G04 Created by KiCad (PCBNEW (5.99.0-11177-g6c67dfa032)) date 2021-10-11 00:00:09*
%MOMM*%
%LPD*%
G01*
G04 APERTURE LIST*
G04 Aperture macros list*
%AMRoundRect*
0 Rectangle with rounded corners*
0 $1 Rounding radius*
0 $2 $3 $4 $5 $6 $7 $8 $9 X,Y pos of 4 corners*
0 Add a 4 corners polygon primitive as box body*
4,1,4,$2,$3,$4,$5,$6,$7,$8,$9,$2,$3,0*
0 Add four circle primitives for the rounded corners*
1,1,$1+$1,$2,$3*
1,1,$1+$1,$4,$5*
1,1,$1+$1,$6,$7*
1,1,$1+$1,$8,$9*
0 Add four rect primitives between the rounded corners*
20,1,$1+$1,$2,$3,$4,$5,0*
20,1,$1+$1,$4,$5,$6,$7,0*
20,1,$1+$1,$6,$7,$8,$9,0*
20,1,$1+$1,$8,$9,$2,$3,0*%
%AMFreePoly0*
4,1,22,1.386777,1.480194,1.456366,1.424698,1.494986,1.344504,1.500000,1.300000,1.500000,-1.300000,1.480194,-1.386777,1.424698,-1.456366,1.344504,-1.494986,1.300000,-1.500000,-1.300000,-1.500000,-1.386777,-1.480194,-1.456366,-1.424698,-1.494986,-1.344504,-1.500000,-1.300000,-1.500000,0.130000,-1.480194,0.216777,-1.441421,0.271421,-0.271421,1.441421,-0.196056,1.488777,-0.130000,1.500000,
1.300000,1.500000,1.386777,1.480194,1.386777,1.480194,$1*%
G04 Aperture macros list end*
%ADD10C,1.390600*%
%ADD11C,2.101800*%
%ADD12C,3.400000*%
%ADD13C,3.829000*%
%ADD14FreePoly0,0.000000*%
%ADD15RoundRect,0.200000X-1.300000X-1.300000X1.300000X-1.300000X1.300000X1.300000X-1.300000X1.300000X0*%
%ADD16RoundRect,0.200000X-0.950000X-1.300000X0.950000X-1.300000X0.950000X1.300000X-0.950000X1.300000X0*%
%ADD17RoundRect,0.200000X-0.698500X-0.698500X0.698500X-0.698500X0.698500X0.698500X-0.698500X0.698500X0*%
%ADD18RoundRect,0.200000X-0.650000X-0.475000X0.650000X-0.475000X0.650000X0.475000X-0.650000X0.475000X0*%
%ADD19C,1.797000*%
%ADD20RoundRect,0.200000X-0.750791X-0.290582X0.504913X-0.627047X0.750791X0.290582X-0.504913X0.627047X0*%
%ADD21RoundRect,0.200000X-0.855484X-0.493914X0.493914X-0.855484X0.855484X0.493914X-0.493914X0.855484X0*%
%ADD22RoundRect,0.200000X0.255669X-0.954169X0.954169X0.255669X-0.255669X0.954169X-0.954169X-0.255669X0*%
%ADD23RoundRect,0.200000X0.086362X-0.800417X0.736362X0.325417X-0.086362X0.800417X-0.736362X-0.325417X0*%
%ADD24C,1.600000*%
%ADD25O,2.900000X2.100000*%
%ADD26FreePoly0,180.000000*%
%ADD27RoundRect,0.200000X1.300000X1.300000X-1.300000X1.300000X-1.300000X-1.300000X1.300000X-1.300000X0*%
%ADD28FreePoly0,165.000000*%
%ADD29RoundRect,0.200000X1.592168X0.919239X-0.919239X1.592168X-1.592168X-0.919239X0.919239X-1.592168X0*%
%ADD30FreePoly0,240.000000*%
%ADD31RoundRect,0.200000X-0.475833X1.775833X-1.775833X-0.475833X0.475833X-1.775833X1.775833X0.475833X0*%
%ADD32C,1.924000*%
%ADD33RoundRect,0.200000X-0.571500X0.317500X-0.571500X-0.317500X0.571500X-0.317500X0.571500X0.317500X0*%
%ADD34C,2.400000*%
%ADD35C,4.400000*%
G04 APERTURE END LIST*
D10*
X98690000Y-54200000D03*
D11*
X109410000Y-58400000D03*
D12*
X103910000Y-64350000D03*
D10*
X109130000Y-54200000D03*
D12*
X98910000Y-62150000D03*
D13*
X103910000Y-58400000D03*
D12*
X108910000Y-62150000D03*
D11*
X98410000Y-58400000D03*
D14*
X100635000Y-64350000D03*
D15*
X112185000Y-62150000D03*
D11*
X91410000Y-70400000D03*
D13*
X85910000Y-70400000D03*
D12*
X80910000Y-74150000D03*
D10*
X91130000Y-66200000D03*
D12*
X85910000Y-76350000D03*
D10*
X80690000Y-66200000D03*
D11*
X80410000Y-70400000D03*
D12*
X90910000Y-74150000D03*
D14*
X82635000Y-76350000D03*
D15*
X94185000Y-74150000D03*
D12*
X90910000Y-91150000D03*
D11*
X91410000Y-87400000D03*
X80410000Y-87400000D03*
D12*
X80910000Y-91150000D03*
D10*
X80690000Y-83200000D03*
D12*
X85910000Y-93350000D03*
D10*
X91130000Y-83200000D03*
D13*
X85910000Y-87400000D03*
D14*
X82635000Y-93350000D03*
D15*
X94185000Y-91150000D03*
D10*
X91130000Y-100200000D03*
X80690000Y-100200000D03*
D12*
X90910000Y-108150000D03*
D11*
X91410000Y-104400000D03*
X80410000Y-104400000D03*
D13*
X85910000Y-104400000D03*
D12*
X80910000Y-108150000D03*
X85910000Y-110350000D03*
D14*
X82635000Y-110350000D03*
D16*
X93810000Y-108150000D03*
D17*
X82194400Y-64312800D03*
D18*
X84229400Y-64312800D03*
D19*
X89814400Y-64312800D03*
D18*
X87779400Y-64312800D03*
D17*
X100279200Y-52273200D03*
D18*
X102314200Y-52273200D03*
X105864200Y-52273200D03*
D19*
X107899200Y-52273200D03*
D17*
X118262400Y-46228000D03*
D18*
X120297400Y-46228000D03*
D19*
X125882400Y-46228000D03*
D18*
X123847400Y-46228000D03*
X138229800Y-53289200D03*
D17*
X136194800Y-53289200D03*
D19*
X143814800Y-53289200D03*
D18*
X141779800Y-53289200D03*
X156213000Y-55422800D03*
D17*
X154178000Y-55422800D03*
D18*
X159763000Y-55422800D03*
D19*
X161798000Y-55422800D03*
D17*
X82092800Y-81229200D03*
D18*
X84127800Y-81229200D03*
D19*
X89712800Y-81229200D03*
D18*
X87677800Y-81229200D03*
D17*
X100076000Y-69342000D03*
D18*
X102111000Y-69342000D03*
D19*
X107696000Y-69342000D03*
D18*
X105661000Y-69342000D03*
D17*
X118160800Y-63347600D03*
D18*
X120195800Y-63347600D03*
X123745800Y-63347600D03*
D19*
X125780800Y-63347600D03*
D17*
X136144000Y-69900800D03*
D18*
X138179000Y-69900800D03*
D19*
X143764000Y-69900800D03*
D18*
X141729000Y-69900800D03*
D17*
X154482800Y-72491600D03*
D18*
X156517800Y-72491600D03*
D19*
X162102800Y-72491600D03*
D18*
X160067800Y-72491600D03*
D17*
X82092800Y-98247200D03*
D18*
X84127800Y-98247200D03*
D19*
X89712800Y-98247200D03*
D18*
X87677800Y-98247200D03*
D17*
X100177600Y-86309200D03*
D18*
X102212600Y-86309200D03*
X105762600Y-86309200D03*
D19*
X107797600Y-86309200D03*
D18*
X120195800Y-80314800D03*
D17*
X118160800Y-80314800D03*
D18*
X123745800Y-80314800D03*
D19*
X125780800Y-80314800D03*
D17*
X136245600Y-86969600D03*
D18*
X138280600Y-86969600D03*
X141830600Y-86969600D03*
D19*
X143865600Y-86969600D03*
D18*
X156314600Y-89357200D03*
D17*
X154279600Y-89357200D03*
D19*
X161899600Y-89357200D03*
D18*
X159864600Y-89357200D03*
D17*
X130149600Y-119075200D03*
D18*
X132184600Y-119075200D03*
X135734600Y-119075200D03*
D19*
X137769600Y-119075200D03*
D20*
X150799764Y-121001192D03*
D21*
X148834105Y-120474495D03*
D19*
X156194459Y-122446697D03*
D20*
X154228800Y-121920000D03*
D22*
X178053166Y-125194992D03*
D23*
X179070666Y-123432630D03*
X180845666Y-120358240D03*
D19*
X181863166Y-118595878D03*
D24*
X186460000Y-98961000D03*
X179460000Y-98961000D03*
X186460000Y-100711000D03*
X179460000Y-100711000D03*
D25*
X176160000Y-101061000D03*
X176160000Y-98611000D03*
X184660000Y-102811000D03*
X184660000Y-96861000D03*
X181660000Y-96861000D03*
X181660000Y-102811000D03*
X177660000Y-96861000D03*
X177660000Y-102811000D03*
D13*
X121910000Y-52400000D03*
D11*
X116410000Y-52400000D03*
D10*
X127130000Y-48200000D03*
D12*
X121910000Y-58350000D03*
X116910000Y-56150000D03*
D10*
X116690000Y-48200000D03*
D11*
X127410000Y-52400000D03*
D12*
X126910000Y-56150000D03*
D14*
X118635000Y-58350000D03*
D15*
X130185000Y-56150000D03*
D11*
X145410000Y-59020000D03*
D12*
X134910000Y-62770000D03*
X139910000Y-64970000D03*
D10*
X134690000Y-54820000D03*
D13*
X139910000Y-59020000D03*
D10*
X145130000Y-54820000D03*
D11*
X134410000Y-59020000D03*
D12*
X144910000Y-62770000D03*
D14*
X136635000Y-64970000D03*
D15*
X148185000Y-62770000D03*
D12*
X152910000Y-65150000D03*
X157910000Y-67350000D03*
D10*
X152690000Y-57200000D03*
D13*
X157910000Y-61400000D03*
D11*
X152410000Y-61400000D03*
X163410000Y-61400000D03*
D12*
X162910000Y-65150000D03*
D10*
X163130000Y-57200000D03*
D14*
X154635000Y-67350000D03*
D15*
X166185000Y-65150000D03*
D11*
X98410000Y-75400000D03*
D10*
X109130000Y-71200000D03*
D13*
X103910000Y-75400000D03*
D11*
X109410000Y-75400000D03*
D12*
X108910000Y-79150000D03*
X98910000Y-79150000D03*
X103910000Y-81350000D03*
D10*
X98690000Y-71200000D03*
D14*
X100635000Y-81350000D03*
D15*
X112185000Y-79150000D03*
D12*
X121910000Y-75350000D03*
D11*
X116410000Y-69400000D03*
D10*
X127130000Y-65200000D03*
D11*
X127410000Y-69400000D03*
D10*
X116690000Y-65200000D03*
D13*
X121910000Y-69400000D03*
D12*
X116910000Y-73150000D03*
X126910000Y-73150000D03*
D14*
X118635000Y-75350000D03*
D15*
X130185000Y-73150000D03*
D12*
X134910000Y-79770000D03*
D10*
X134690000Y-71820000D03*
D12*
X144910000Y-79770000D03*
X139910000Y-81970000D03*
D11*
X134410000Y-76020000D03*
D13*
X139910000Y-76020000D03*
D11*
X145410000Y-76020000D03*
D10*
X145130000Y-71820000D03*
D14*
X136635000Y-81970000D03*
D15*
X148185000Y-79770000D03*
D11*
X163410000Y-78400000D03*
D12*
X162910000Y-82150000D03*
D11*
X152410000Y-78400000D03*
D10*
X152690000Y-74200000D03*
X163130000Y-74200000D03*
D12*
X157910000Y-84350000D03*
D13*
X157910000Y-78400000D03*
D12*
X152910000Y-82150000D03*
D14*
X154635000Y-84350000D03*
D15*
X166185000Y-82150000D03*
D12*
X103910000Y-98350000D03*
X98910000Y-96150000D03*
D10*
X98690000Y-88200000D03*
D11*
X109410000Y-92400000D03*
D12*
X108910000Y-96150000D03*
D11*
X98410000Y-92400000D03*
D10*
X109130000Y-88200000D03*
D13*
X103910000Y-92400000D03*
D14*
X100635000Y-98350000D03*
D15*
X112185000Y-96150000D03*
D13*
X121910000Y-86400000D03*
D12*
X116910000Y-90150000D03*
D10*
X116690000Y-82200000D03*
D12*
X126910000Y-90150000D03*
D11*
X127410000Y-86400000D03*
D10*
X127130000Y-82200000D03*
D11*
X116410000Y-86400000D03*
D12*
X121910000Y-92350000D03*
D14*
X118635000Y-92350000D03*
D15*
X130185000Y-90150000D03*
D10*
X145130000Y-88825000D03*
X134690000Y-88825000D03*
D11*
X134410000Y-93025000D03*
D12*
X139910000Y-98975000D03*
D11*
X145410000Y-93025000D03*
D12*
X134910000Y-96775000D03*
D13*
X139910000Y-93025000D03*
D12*
X144910000Y-96775000D03*
D14*
X136635000Y-98975000D03*
D15*
X148185000Y-96775000D03*
D12*
X157910000Y-101350000D03*
D13*
X157910000Y-95400000D03*
D11*
X163410000Y-95400000D03*
D12*
X152910000Y-99150000D03*
D10*
X152690000Y-91200000D03*
D12*
X162910000Y-99150000D03*
D11*
X152410000Y-95400000D03*
D10*
X163130000Y-91200000D03*
D14*
X154635000Y-101350000D03*
D15*
X166185000Y-99150000D03*
D10*
X139230000Y-117190000D03*
D12*
X134010000Y-107040000D03*
D11*
X128510000Y-112990000D03*
D12*
X139010000Y-109240000D03*
D13*
X134010000Y-112990000D03*
D11*
X139510000Y-112990000D03*
D12*
X129010000Y-109240000D03*
D10*
X128790000Y-117190000D03*
D26*
X137285000Y-107040000D03*
D27*
X125735000Y-109240000D03*
D10*
X158015093Y-120987924D03*
D12*
X155599973Y-109832741D03*
X150200942Y-110663683D03*
D13*
X154060000Y-115580000D03*
D12*
X159860201Y-113251873D03*
D11*
X148747408Y-114156495D03*
D10*
X147930827Y-118285853D03*
D11*
X159372592Y-117003505D03*
D28*
X158763380Y-110680374D03*
D29*
X147037535Y-109816051D03*
D12*
X173912405Y-112584873D03*
X169507149Y-115815000D03*
D10*
X180907307Y-116369347D03*
D11*
X171910000Y-123553140D03*
X177410000Y-114026860D03*
D12*
X168912405Y-121245127D03*
D13*
X174660000Y-118790000D03*
D10*
X175687307Y-125410653D03*
D30*
X171144649Y-112978767D03*
D31*
X167274905Y-124081360D03*
D32*
X169620000Y-58870400D03*
X186166400Y-57600400D03*
X186166400Y-60140400D03*
X169620000Y-61410400D03*
X186166400Y-62680400D03*
X169620000Y-63950400D03*
X186166400Y-65220400D03*
X169620000Y-66490400D03*
X169620000Y-69030400D03*
X186166400Y-67760400D03*
X169620000Y-71570400D03*
X186166400Y-70300400D03*
X169620000Y-74110400D03*
X186166400Y-72840400D03*
X169620000Y-76650400D03*
X186166400Y-75380400D03*
X186166400Y-77920400D03*
X169620000Y-79190400D03*
X186166400Y-80460400D03*
X169620000Y-81730400D03*
X186166400Y-83000400D03*
X169620000Y-84270400D03*
X186166400Y-85540400D03*
X169620000Y-86810400D03*
X170946400Y-85540400D03*
X184860000Y-86810400D03*
X170946400Y-83000400D03*
X184860000Y-84270400D03*
X184860000Y-81730400D03*
X170946400Y-80460400D03*
X184860000Y-79190400D03*
X170946400Y-77920400D03*
X184860000Y-76650400D03*
X170946400Y-75380400D03*
X184860000Y-74110400D03*
X170946400Y-72840400D03*
X184860000Y-71570400D03*
X170946400Y-70300400D03*
X170946400Y-67760400D03*
X184860000Y-69030400D03*
X184860000Y-66490400D03*
X170946400Y-65220400D03*
X184860000Y-63950400D03*
X170946400Y-62680400D03*
X170946400Y-60140400D03*
X184860000Y-61410400D03*
X184860000Y-58870400D03*
X170946400Y-57600400D03*
D33*
X179070000Y-87448020D03*
X179070000Y-88448780D03*
D19*
X173930000Y-90608400D03*
X176470000Y-90608400D03*
X179010000Y-90608400D03*
X181550000Y-90608400D03*
D33*
X176470000Y-87468020D03*
X176470000Y-88468780D03*
X173930000Y-87498020D03*
X173930000Y-88498780D03*
X181640000Y-87438420D03*
X181640000Y-88439180D03*
D34*
X186003000Y-93853000D03*
X179503000Y-93853000D03*
D35*
X171323000Y-96901000D03*
X185420000Y-106426000D03*
X95000000Y-66802000D03*
X148971000Y-69850000D03*
X123952000Y-104140000D03*
X167005000Y-110363000D03*
X95000000Y-83820000D03*
G36*
X166903828Y-122132847D02*
G01*
X166904343Y-122133055D01*
X167783425Y-122640593D01*
X167820149Y-122645428D01*
X167849194Y-122623140D01*
X167853981Y-122586781D01*
X167835917Y-122560375D01*
X167835765Y-122558381D01*
X167837415Y-122557252D01*
X167838751Y-122557633D01*
X168012607Y-122685110D01*
X168235333Y-122802291D01*
X168300965Y-122825210D01*
X168302271Y-122826725D01*
X168301612Y-122828613D01*
X168300419Y-122829095D01*
X168263400Y-122831198D01*
X168239022Y-122858512D01*
X168241104Y-122895171D01*
X168260445Y-122916001D01*
X168288964Y-122932467D01*
X168289964Y-122934199D01*
X168288964Y-122935931D01*
X168286964Y-122935931D01*
X166902339Y-122136518D01*
X166901339Y-122134786D01*
X166902339Y-122133054D01*
X166903824Y-122132846D01*
X166903828Y-122132847D01*
G37*
G36*
X169274079Y-113628534D02*
G01*
X171517219Y-114923612D01*
X171518219Y-114925344D01*
X171517219Y-114927076D01*
X171515476Y-114927201D01*
X171515471Y-114927199D01*
X171515214Y-114927074D01*
X170643778Y-114423950D01*
X170607054Y-114419115D01*
X170578009Y-114441403D01*
X170573213Y-114477831D01*
X170586634Y-114500279D01*
X170586664Y-114502278D01*
X170584948Y-114503305D01*
X170583547Y-114502762D01*
X170575731Y-114495410D01*
X170368950Y-114351960D01*
X170143228Y-114240646D01*
X170111452Y-114230475D01*
X170110108Y-114228994D01*
X170110717Y-114227090D01*
X170111896Y-114226577D01*
X170148847Y-114223507D01*
X170172502Y-114195565D01*
X170169460Y-114158958D01*
X170150695Y-114139269D01*
X169272081Y-113632000D01*
X169271667Y-113631682D01*
X169271665Y-113631680D01*
X169271147Y-113629748D01*
X169272561Y-113628334D01*
X169274079Y-113628534D01*
G37*
G36*
X170495013Y-111106468D02*
G01*
X170494882Y-111108196D01*
X169199804Y-113351337D01*
X169198072Y-113352337D01*
X169196340Y-113351337D01*
X169196215Y-113349594D01*
X169196217Y-113349589D01*
X169196342Y-113349332D01*
X170491414Y-111106201D01*
X170491584Y-111105952D01*
X170491588Y-111105947D01*
X170493451Y-111105219D01*
X170495013Y-111106468D01*
G37*
G36*
X147900774Y-111598198D02*
G01*
X147902188Y-111599612D01*
X147901670Y-111601544D01*
X147900256Y-111602130D01*
X147900252Y-111602130D01*
X147899734Y-111602062D01*
X145397845Y-110931683D01*
X145397469Y-110931540D01*
X145397467Y-110931539D01*
X145396365Y-110929870D01*
X145397259Y-110928081D01*
X145398879Y-110927818D01*
X147900774Y-111598198D01*
G37*
G36*
X84136848Y-110061122D02*
G01*
X84151175Y-110095711D01*
X84184999Y-110109721D01*
X84218877Y-110095689D01*
X84232765Y-110066406D01*
X84234411Y-110065270D01*
X84236218Y-110066127D01*
X84236562Y-110067463D01*
X84212588Y-110305550D01*
X84224663Y-110556933D01*
X84235800Y-110612926D01*
X84235157Y-110614820D01*
X84233195Y-110615210D01*
X84232175Y-110614427D01*
X84211575Y-110583594D01*
X84175667Y-110576452D01*
X84145132Y-110596854D01*
X84136914Y-110623948D01*
X84135454Y-110625315D01*
X84133540Y-110624734D01*
X84133000Y-110623367D01*
X84133000Y-110061887D01*
X84134000Y-110060155D01*
X84136000Y-110060155D01*
X84136848Y-110061122D01*
G37*
G36*
X148571540Y-109890485D02*
G01*
X148572058Y-109892417D01*
X148557444Y-109946959D01*
X148562279Y-109983683D01*
X148591324Y-110005970D01*
X148627699Y-110001181D01*
X148648028Y-109978101D01*
X148649923Y-109977462D01*
X148651424Y-109978784D01*
X148651373Y-109980196D01*
X148590693Y-110124901D01*
X148528744Y-110368826D01*
X148517733Y-110478182D01*
X148516564Y-110479806D01*
X148514575Y-110479605D01*
X148513828Y-110478558D01*
X148503142Y-110443051D01*
X148470890Y-110425723D01*
X148435745Y-110436300D01*
X148419654Y-110461197D01*
X148383505Y-110596107D01*
X148382091Y-110597521D01*
X148380159Y-110597003D01*
X148379641Y-110595071D01*
X148568194Y-109891381D01*
X148569608Y-109889967D01*
X148571540Y-109890485D01*
G37*
G36*
X157286886Y-110014197D02*
G01*
X157287605Y-110015263D01*
X157297358Y-110051040D01*
X157329142Y-110069205D01*
X157364540Y-110059555D01*
X157381810Y-110033587D01*
X157383601Y-110032699D01*
X157385267Y-110033807D01*
X157385407Y-110035213D01*
X157247804Y-110548755D01*
X157246390Y-110550169D01*
X157244458Y-110549651D01*
X157243889Y-110548498D01*
X157239002Y-110511380D01*
X157209957Y-110489092D01*
X157173568Y-110493883D01*
X157153772Y-110515772D01*
X157151869Y-110516385D01*
X157150386Y-110515044D01*
X157150465Y-110513609D01*
X157195566Y-110413488D01*
X157263880Y-110171265D01*
X157283691Y-110015537D01*
X157284902Y-110013945D01*
X157286886Y-110014197D01*
G37*
G36*
X127236848Y-108951122D02*
G01*
X127251175Y-108985711D01*
X127284999Y-108999721D01*
X127318877Y-108985689D01*
X127332765Y-108956406D01*
X127334411Y-108955270D01*
X127336218Y-108956127D01*
X127336562Y-108957463D01*
X127312588Y-109195550D01*
X127324663Y-109446933D01*
X127335800Y-109502926D01*
X127335157Y-109504820D01*
X127333195Y-109505210D01*
X127332175Y-109504427D01*
X127311575Y-109473594D01*
X127275667Y-109466452D01*
X127245132Y-109486854D01*
X127236914Y-109513948D01*
X127235454Y-109515315D01*
X127233540Y-109514734D01*
X127233000Y-109513367D01*
X127233000Y-108951887D01*
X127234000Y-108950155D01*
X127236000Y-108950155D01*
X127236848Y-108951122D01*
G37*
G36*
X146175336Y-108030040D02*
G01*
X148677225Y-108700419D01*
X148677601Y-108700562D01*
X148677603Y-108700563D01*
X148678705Y-108702232D01*
X148677811Y-108704021D01*
X148676191Y-108704284D01*
X146174296Y-108033904D01*
X146172882Y-108032490D01*
X146173400Y-108030558D01*
X146174814Y-108029972D01*
X146174818Y-108029972D01*
X146175336Y-108030040D01*
G37*
G36*
X92661442Y-107753939D02*
G01*
X92662000Y-107755325D01*
X92662000Y-108551605D01*
X92661000Y-108553337D01*
X92659000Y-108553337D01*
X92658152Y-108552370D01*
X92643825Y-108517781D01*
X92610001Y-108503771D01*
X92576031Y-108517841D01*
X92563880Y-108538574D01*
X92562142Y-108539563D01*
X92560416Y-108538552D01*
X92560230Y-108537020D01*
X92573907Y-108488524D01*
X92605674Y-108238816D01*
X92607998Y-108150056D01*
X92589343Y-107899019D01*
X92559491Y-107767095D01*
X92560084Y-107765185D01*
X92562035Y-107764744D01*
X92563075Y-107765500D01*
X92584476Y-107795780D01*
X92620559Y-107801980D01*
X92650561Y-107780776D01*
X92658079Y-107754770D01*
X92659520Y-107753383D01*
X92661442Y-107753939D01*
G37*
G36*
X135786442Y-106754422D02*
G01*
X135787000Y-106755808D01*
X135787000Y-107309236D01*
X135786000Y-107310968D01*
X135784000Y-107310968D01*
X135783152Y-107310001D01*
X135768825Y-107275412D01*
X135735001Y-107261402D01*
X135701110Y-107275440D01*
X135687385Y-107303426D01*
X135685724Y-107304540D01*
X135683929Y-107303660D01*
X135683605Y-107302293D01*
X135705674Y-107128816D01*
X135707998Y-107040056D01*
X135689343Y-106789019D01*
X135684491Y-106767577D01*
X135685084Y-106765667D01*
X135687035Y-106765226D01*
X135688075Y-106765982D01*
X135709476Y-106796263D01*
X135745559Y-106802463D01*
X135775561Y-106781259D01*
X135783079Y-106755253D01*
X135784520Y-106753866D01*
X135786442Y-106754422D01*
G37*
G36*
X156136848Y-101061122D02*
G01*
X156151175Y-101095711D01*
X156184999Y-101109721D01*
X156218877Y-101095689D01*
X156232765Y-101066406D01*
X156234411Y-101065270D01*
X156236218Y-101066127D01*
X156236562Y-101067463D01*
X156212588Y-101305550D01*
X156224663Y-101556933D01*
X156235800Y-101612926D01*
X156235157Y-101614820D01*
X156233195Y-101615210D01*
X156232175Y-101614427D01*
X156211575Y-101583594D01*
X156175667Y-101576452D01*
X156145132Y-101596854D01*
X156136914Y-101623948D01*
X156135454Y-101625315D01*
X156133540Y-101624734D01*
X156133000Y-101623367D01*
X156133000Y-101061887D01*
X156134000Y-101060155D01*
X156136000Y-101060155D01*
X156136848Y-101061122D01*
G37*
G36*
X164686442Y-98864422D02*
G01*
X164687000Y-98865808D01*
X164687000Y-99419236D01*
X164686000Y-99420968D01*
X164684000Y-99420968D01*
X164683152Y-99420001D01*
X164668825Y-99385412D01*
X164635001Y-99371402D01*
X164601110Y-99385440D01*
X164587385Y-99413426D01*
X164585724Y-99414540D01*
X164583929Y-99413660D01*
X164583605Y-99412293D01*
X164605674Y-99238816D01*
X164607998Y-99150056D01*
X164589343Y-98899019D01*
X164584491Y-98877577D01*
X164585084Y-98875667D01*
X164587035Y-98875226D01*
X164588075Y-98875982D01*
X164609476Y-98906263D01*
X164645559Y-98912463D01*
X164675561Y-98891259D01*
X164683079Y-98865253D01*
X164684520Y-98863866D01*
X164686442Y-98864422D01*
G37*
G36*
X138136848Y-98686122D02*
G01*
X138151175Y-98720711D01*
X138184999Y-98734721D01*
X138218877Y-98720689D01*
X138232765Y-98691406D01*
X138234411Y-98690270D01*
X138236218Y-98691127D01*
X138236562Y-98692463D01*
X138212588Y-98930550D01*
X138224663Y-99181933D01*
X138235800Y-99237926D01*
X138235157Y-99239820D01*
X138233195Y-99240210D01*
X138232175Y-99239427D01*
X138211575Y-99208594D01*
X138175667Y-99201452D01*
X138145132Y-99221854D01*
X138136914Y-99248948D01*
X138135454Y-99250315D01*
X138133540Y-99249734D01*
X138133000Y-99248367D01*
X138133000Y-98686887D01*
X138134000Y-98685155D01*
X138136000Y-98685155D01*
X138136848Y-98686122D01*
G37*
G36*
X102136848Y-98061122D02*
G01*
X102151175Y-98095711D01*
X102184999Y-98109721D01*
X102218877Y-98095689D01*
X102232765Y-98066406D01*
X102234411Y-98065270D01*
X102236218Y-98066127D01*
X102236562Y-98067463D01*
X102212588Y-98305550D01*
X102224663Y-98556933D01*
X102235800Y-98612926D01*
X102235157Y-98614820D01*
X102233195Y-98615210D01*
X102232175Y-98614427D01*
X102211575Y-98583594D01*
X102175667Y-98576452D01*
X102145132Y-98596854D01*
X102136914Y-98623948D01*
X102135454Y-98625315D01*
X102133540Y-98624734D01*
X102133000Y-98623367D01*
X102133000Y-98061887D01*
X102134000Y-98060155D01*
X102136000Y-98060155D01*
X102136848Y-98061122D01*
G37*
G36*
X146686442Y-96489422D02*
G01*
X146687000Y-96490808D01*
X146687000Y-97044236D01*
X146686000Y-97045968D01*
X146684000Y-97045968D01*
X146683152Y-97045001D01*
X146668825Y-97010412D01*
X146635001Y-96996402D01*
X146601110Y-97010440D01*
X146587385Y-97038426D01*
X146585724Y-97039540D01*
X146583929Y-97038660D01*
X146583605Y-97037293D01*
X146605674Y-96863816D01*
X146607998Y-96775056D01*
X146589343Y-96524019D01*
X146584491Y-96502577D01*
X146585084Y-96500667D01*
X146587035Y-96500226D01*
X146588075Y-96500982D01*
X146609476Y-96531263D01*
X146645559Y-96537463D01*
X146675561Y-96516259D01*
X146683079Y-96490253D01*
X146684520Y-96488866D01*
X146686442Y-96489422D01*
G37*
G36*
X110686442Y-95864422D02*
G01*
X110687000Y-95865808D01*
X110687000Y-96419236D01*
X110686000Y-96420968D01*
X110684000Y-96420968D01*
X110683152Y-96420001D01*
X110668825Y-96385412D01*
X110635001Y-96371402D01*
X110601110Y-96385440D01*
X110587385Y-96413426D01*
X110585724Y-96414540D01*
X110583929Y-96413660D01*
X110583605Y-96412293D01*
X110605674Y-96238816D01*
X110607998Y-96150056D01*
X110589343Y-95899019D01*
X110584491Y-95877577D01*
X110585084Y-95875667D01*
X110587035Y-95875226D01*
X110588075Y-95875982D01*
X110609476Y-95906263D01*
X110645559Y-95912463D01*
X110675561Y-95891259D01*
X110683079Y-95865253D01*
X110684520Y-95863866D01*
X110686442Y-95864422D01*
G37*
G36*
X84136848Y-93061122D02*
G01*
X84151175Y-93095711D01*
X84184999Y-93109721D01*
X84218877Y-93095689D01*
X84232765Y-93066406D01*
X84234411Y-93065270D01*
X84236218Y-93066127D01*
X84236562Y-93067463D01*
X84212588Y-93305550D01*
X84224663Y-93556933D01*
X84235800Y-93612926D01*
X84235157Y-93614820D01*
X84233195Y-93615210D01*
X84232175Y-93614427D01*
X84211575Y-93583594D01*
X84175667Y-93576452D01*
X84145132Y-93596854D01*
X84136914Y-93623948D01*
X84135454Y-93625315D01*
X84133540Y-93624734D01*
X84133000Y-93623367D01*
X84133000Y-93061887D01*
X84134000Y-93060155D01*
X84136000Y-93060155D01*
X84136848Y-93061122D01*
G37*
G36*
X120136848Y-92061122D02*
G01*
X120151175Y-92095711D01*
X120184999Y-92109721D01*
X120218877Y-92095689D01*
X120232765Y-92066406D01*
X120234411Y-92065270D01*
X120236218Y-92066127D01*
X120236562Y-92067463D01*
X120212588Y-92305550D01*
X120224663Y-92556933D01*
X120235800Y-92612926D01*
X120235157Y-92614820D01*
X120233195Y-92615210D01*
X120232175Y-92614427D01*
X120211575Y-92583594D01*
X120175667Y-92576452D01*
X120145132Y-92596854D01*
X120136914Y-92623948D01*
X120135454Y-92625315D01*
X120133540Y-92624734D01*
X120133000Y-92623367D01*
X120133000Y-92061887D01*
X120134000Y-92060155D01*
X120136000Y-92060155D01*
X120136848Y-92061122D01*
G37*
G36*
X92686442Y-90864422D02*
G01*
X92687000Y-90865808D01*
X92687000Y-91419236D01*
X92686000Y-91420968D01*
X92684000Y-91420968D01*
X92683152Y-91420001D01*
X92668825Y-91385412D01*
X92635001Y-91371402D01*
X92601110Y-91385440D01*
X92587385Y-91413426D01*
X92585724Y-91414540D01*
X92583929Y-91413660D01*
X92583605Y-91412293D01*
X92605674Y-91238816D01*
X92607998Y-91150056D01*
X92589343Y-90899019D01*
X92584491Y-90877577D01*
X92585084Y-90875667D01*
X92587035Y-90875226D01*
X92588075Y-90875982D01*
X92609476Y-90906263D01*
X92645559Y-90912463D01*
X92675561Y-90891259D01*
X92683079Y-90865253D01*
X92684520Y-90863866D01*
X92686442Y-90864422D01*
G37*
G36*
X128686442Y-89864422D02*
G01*
X128687000Y-89865808D01*
X128687000Y-90419236D01*
X128686000Y-90420968D01*
X128684000Y-90420968D01*
X128683152Y-90420001D01*
X128668825Y-90385412D01*
X128635001Y-90371402D01*
X128601110Y-90385440D01*
X128587385Y-90413426D01*
X128585724Y-90414540D01*
X128583929Y-90413660D01*
X128583605Y-90412293D01*
X128605674Y-90238816D01*
X128607998Y-90150056D01*
X128589343Y-89899019D01*
X128584491Y-89877577D01*
X128585084Y-89875667D01*
X128587035Y-89875226D01*
X128588075Y-89875982D01*
X128609476Y-89906263D01*
X128645559Y-89912463D01*
X128675561Y-89891259D01*
X128683079Y-89865253D01*
X128684520Y-89863866D01*
X128686442Y-89864422D01*
G37*
G36*
X156136848Y-84061122D02*
G01*
X156151175Y-84095711D01*
X156184999Y-84109721D01*
X156218877Y-84095689D01*
X156232765Y-84066406D01*
X156234411Y-84065270D01*
X156236218Y-84066127D01*
X156236562Y-84067463D01*
X156212588Y-84305550D01*
X156224663Y-84556933D01*
X156235800Y-84612926D01*
X156235157Y-84614820D01*
X156233195Y-84615210D01*
X156232175Y-84614427D01*
X156211575Y-84583594D01*
X156175667Y-84576452D01*
X156145132Y-84596854D01*
X156136914Y-84623948D01*
X156135454Y-84625315D01*
X156133540Y-84624734D01*
X156133000Y-84623367D01*
X156133000Y-84061887D01*
X156134000Y-84060155D01*
X156136000Y-84060155D01*
X156136848Y-84061122D01*
G37*
G36*
X164686442Y-81864422D02*
G01*
X164687000Y-81865808D01*
X164687000Y-82419236D01*
X164686000Y-82420968D01*
X164684000Y-82420968D01*
X164683152Y-82420001D01*
X164668825Y-82385412D01*
X164635001Y-82371402D01*
X164601110Y-82385440D01*
X164587385Y-82413426D01*
X164585724Y-82414540D01*
X164583929Y-82413660D01*
X164583605Y-82412293D01*
X164605674Y-82238816D01*
X164607998Y-82150056D01*
X164589343Y-81899019D01*
X164584491Y-81877577D01*
X164585084Y-81875667D01*
X164587035Y-81875226D01*
X164588075Y-81875982D01*
X164609476Y-81906263D01*
X164645559Y-81912463D01*
X164675561Y-81891259D01*
X164683079Y-81865253D01*
X164684520Y-81863866D01*
X164686442Y-81864422D01*
G37*
G36*
X138136848Y-81681122D02*
G01*
X138151175Y-81715711D01*
X138184999Y-81729721D01*
X138218877Y-81715689D01*
X138232765Y-81686406D01*
X138234411Y-81685270D01*
X138236218Y-81686127D01*
X138236562Y-81687463D01*
X138212588Y-81925550D01*
X138224663Y-82176933D01*
X138235800Y-82232926D01*
X138235157Y-82234820D01*
X138233195Y-82235210D01*
X138232175Y-82234427D01*
X138211575Y-82203594D01*
X138175667Y-82196452D01*
X138145132Y-82216854D01*
X138136914Y-82243948D01*
X138135454Y-82245315D01*
X138133540Y-82244734D01*
X138133000Y-82243367D01*
X138133000Y-81681887D01*
X138134000Y-81680155D01*
X138136000Y-81680155D01*
X138136848Y-81681122D01*
G37*
G36*
X102136848Y-81061122D02*
G01*
X102151175Y-81095711D01*
X102184999Y-81109721D01*
X102218877Y-81095689D01*
X102232765Y-81066406D01*
X102234411Y-81065270D01*
X102236218Y-81066127D01*
X102236562Y-81067463D01*
X102212588Y-81305550D01*
X102224663Y-81556933D01*
X102235800Y-81612926D01*
X102235157Y-81614820D01*
X102233195Y-81615210D01*
X102232175Y-81614427D01*
X102211575Y-81583594D01*
X102175667Y-81576452D01*
X102145132Y-81596854D01*
X102136914Y-81623948D01*
X102135454Y-81625315D01*
X102133540Y-81624734D01*
X102133000Y-81623367D01*
X102133000Y-81061887D01*
X102134000Y-81060155D01*
X102136000Y-81060155D01*
X102136848Y-81061122D01*
G37*
G36*
X146686442Y-79484422D02*
G01*
X146687000Y-79485808D01*
X146687000Y-80039236D01*
X146686000Y-80040968D01*
X146684000Y-80040968D01*
X146683152Y-80040001D01*
X146668825Y-80005412D01*
X146635001Y-79991402D01*
X146601110Y-80005440D01*
X146587385Y-80033426D01*
X146585724Y-80034540D01*
X146583929Y-80033660D01*
X146583605Y-80032293D01*
X146605674Y-79858816D01*
X146607998Y-79770056D01*
X146589343Y-79519019D01*
X146584491Y-79497577D01*
X146585084Y-79495667D01*
X146587035Y-79495226D01*
X146588075Y-79495982D01*
X146609476Y-79526263D01*
X146645559Y-79532463D01*
X146675561Y-79511259D01*
X146683079Y-79485253D01*
X146684520Y-79483866D01*
X146686442Y-79484422D01*
G37*
G36*
X110686442Y-78864422D02*
G01*
X110687000Y-78865808D01*
X110687000Y-79419236D01*
X110686000Y-79420968D01*
X110684000Y-79420968D01*
X110683152Y-79420001D01*
X110668825Y-79385412D01*
X110635001Y-79371402D01*
X110601110Y-79385440D01*
X110587385Y-79413426D01*
X110585724Y-79414540D01*
X110583929Y-79413660D01*
X110583605Y-79412293D01*
X110605674Y-79238816D01*
X110607998Y-79150056D01*
X110589343Y-78899019D01*
X110584491Y-78877577D01*
X110585084Y-78875667D01*
X110587035Y-78875226D01*
X110588075Y-78875982D01*
X110609476Y-78906263D01*
X110645559Y-78912463D01*
X110675561Y-78891259D01*
X110683079Y-78865253D01*
X110684520Y-78863866D01*
X110686442Y-78864422D01*
G37*
G36*
X84136848Y-76061122D02*
G01*
X84151175Y-76095711D01*
X84184999Y-76109721D01*
X84218877Y-76095689D01*
X84232765Y-76066406D01*
X84234411Y-76065270D01*
X84236218Y-76066127D01*
X84236562Y-76067463D01*
X84212588Y-76305550D01*
X84224663Y-76556933D01*
X84235800Y-76612926D01*
X84235157Y-76614820D01*
X84233195Y-76615210D01*
X84232175Y-76614427D01*
X84211575Y-76583594D01*
X84175667Y-76576452D01*
X84145132Y-76596854D01*
X84136914Y-76623948D01*
X84135454Y-76625315D01*
X84133540Y-76624734D01*
X84133000Y-76623367D01*
X84133000Y-76061887D01*
X84134000Y-76060155D01*
X84136000Y-76060155D01*
X84136848Y-76061122D01*
G37*
G36*
X120136848Y-75061122D02*
G01*
X120151175Y-75095711D01*
X120184999Y-75109721D01*
X120218877Y-75095689D01*
X120232765Y-75066406D01*
X120234411Y-75065270D01*
X120236218Y-75066127D01*
X120236562Y-75067463D01*
X120212588Y-75305550D01*
X120224663Y-75556933D01*
X120235800Y-75612926D01*
X120235157Y-75614820D01*
X120233195Y-75615210D01*
X120232175Y-75614427D01*
X120211575Y-75583594D01*
X120175667Y-75576452D01*
X120145132Y-75596854D01*
X120136914Y-75623948D01*
X120135454Y-75625315D01*
X120133540Y-75624734D01*
X120133000Y-75623367D01*
X120133000Y-75061887D01*
X120134000Y-75060155D01*
X120136000Y-75060155D01*
X120136848Y-75061122D01*
G37*
G36*
X92686442Y-73864422D02*
G01*
X92687000Y-73865808D01*
X92687000Y-74419236D01*
X92686000Y-74420968D01*
X92684000Y-74420968D01*
X92683152Y-74420001D01*
X92668825Y-74385412D01*
X92635001Y-74371402D01*
X92601110Y-74385440D01*
X92587385Y-74413426D01*
X92585724Y-74414540D01*
X92583929Y-74413660D01*
X92583605Y-74412293D01*
X92605674Y-74238816D01*
X92607998Y-74150056D01*
X92589343Y-73899019D01*
X92584491Y-73877577D01*
X92585084Y-73875667D01*
X92587035Y-73875226D01*
X92588075Y-73875982D01*
X92609476Y-73906263D01*
X92645559Y-73912463D01*
X92675561Y-73891259D01*
X92683079Y-73865253D01*
X92684520Y-73863866D01*
X92686442Y-73864422D01*
G37*
G36*
X128686442Y-72864422D02*
G01*
X128687000Y-72865808D01*
X128687000Y-73419236D01*
X128686000Y-73420968D01*
X128684000Y-73420968D01*
X128683152Y-73420001D01*
X128668825Y-73385412D01*
X128635001Y-73371402D01*
X128601110Y-73385440D01*
X128587385Y-73413426D01*
X128585724Y-73414540D01*
X128583929Y-73413660D01*
X128583605Y-73412293D01*
X128605674Y-73238816D01*
X128607998Y-73150056D01*
X128589343Y-72899019D01*
X128584491Y-72877577D01*
X128585084Y-72875667D01*
X128587035Y-72875226D01*
X128588075Y-72875982D01*
X128609476Y-72906263D01*
X128645559Y-72912463D01*
X128675561Y-72891259D01*
X128683079Y-72865253D01*
X128684520Y-72863866D01*
X128686442Y-72864422D01*
G37*
G36*
X156136848Y-67061122D02*
G01*
X156151175Y-67095711D01*
X156184999Y-67109721D01*
X156218877Y-67095689D01*
X156232765Y-67066406D01*
X156234411Y-67065270D01*
X156236218Y-67066127D01*
X156236562Y-67067463D01*
X156212588Y-67305550D01*
X156224663Y-67556933D01*
X156235800Y-67612926D01*
X156235157Y-67614820D01*
X156233195Y-67615210D01*
X156232175Y-67614427D01*
X156211575Y-67583594D01*
X156175667Y-67576452D01*
X156145132Y-67596854D01*
X156136914Y-67623948D01*
X156135454Y-67625315D01*
X156133540Y-67624734D01*
X156133000Y-67623367D01*
X156133000Y-67061887D01*
X156134000Y-67060155D01*
X156136000Y-67060155D01*
X156136848Y-67061122D01*
G37*
G36*
X164686442Y-64864422D02*
G01*
X164687000Y-64865808D01*
X164687000Y-65419236D01*
X164686000Y-65420968D01*
X164684000Y-65420968D01*
X164683152Y-65420001D01*
X164668825Y-65385412D01*
X164635001Y-65371402D01*
X164601110Y-65385440D01*
X164587385Y-65413426D01*
X164585724Y-65414540D01*
X164583929Y-65413660D01*
X164583605Y-65412293D01*
X164605674Y-65238816D01*
X164607998Y-65150056D01*
X164589343Y-64899019D01*
X164584491Y-64877577D01*
X164585084Y-64875667D01*
X164587035Y-64875226D01*
X164588075Y-64875982D01*
X164609476Y-64906263D01*
X164645559Y-64912463D01*
X164675561Y-64891259D01*
X164683079Y-64865253D01*
X164684520Y-64863866D01*
X164686442Y-64864422D01*
G37*
G36*
X138136848Y-64681122D02*
G01*
X138151175Y-64715711D01*
X138184999Y-64729721D01*
X138218877Y-64715689D01*
X138232765Y-64686406D01*
X138234411Y-64685270D01*
X138236218Y-64686127D01*
X138236562Y-64687463D01*
X138212588Y-64925550D01*
X138224663Y-65176933D01*
X138235800Y-65232926D01*
X138235157Y-65234820D01*
X138233195Y-65235210D01*
X138232175Y-65234427D01*
X138211575Y-65203594D01*
X138175667Y-65196452D01*
X138145132Y-65216854D01*
X138136914Y-65243948D01*
X138135454Y-65245315D01*
X138133540Y-65244734D01*
X138133000Y-65243367D01*
X138133000Y-64681887D01*
X138134000Y-64680155D01*
X138136000Y-64680155D01*
X138136848Y-64681122D01*
G37*
G36*
X102136848Y-64061122D02*
G01*
X102151175Y-64095711D01*
X102184999Y-64109721D01*
X102218877Y-64095689D01*
X102232765Y-64066406D01*
X102234411Y-64065270D01*
X102236218Y-64066127D01*
X102236562Y-64067463D01*
X102212588Y-64305550D01*
X102224663Y-64556933D01*
X102235800Y-64612926D01*
X102235157Y-64614820D01*
X102233195Y-64615210D01*
X102232175Y-64614427D01*
X102211575Y-64583594D01*
X102175667Y-64576452D01*
X102145132Y-64596854D01*
X102136914Y-64623948D01*
X102135454Y-64625315D01*
X102133540Y-64624734D01*
X102133000Y-64623367D01*
X102133000Y-64061887D01*
X102134000Y-64060155D01*
X102136000Y-64060155D01*
X102136848Y-64061122D01*
G37*
G36*
X146686442Y-62484422D02*
G01*
X146687000Y-62485808D01*
X146687000Y-63039236D01*
X146686000Y-63040968D01*
X146684000Y-63040968D01*
X146683152Y-63040001D01*
X146668825Y-63005412D01*
X146635001Y-62991402D01*
X146601110Y-63005440D01*
X146587385Y-63033426D01*
X146585724Y-63034540D01*
X146583929Y-63033660D01*
X146583605Y-63032293D01*
X146605674Y-62858816D01*
X146607998Y-62770056D01*
X146589343Y-62519019D01*
X146584491Y-62497577D01*
X146585084Y-62495667D01*
X146587035Y-62495226D01*
X146588075Y-62495982D01*
X146609476Y-62526263D01*
X146645559Y-62532463D01*
X146675561Y-62511259D01*
X146683079Y-62485253D01*
X146684520Y-62483866D01*
X146686442Y-62484422D01*
G37*
G36*
X110686442Y-61864422D02*
G01*
X110687000Y-61865808D01*
X110687000Y-62419236D01*
X110686000Y-62420968D01*
X110684000Y-62420968D01*
X110683152Y-62420001D01*
X110668825Y-62385412D01*
X110635001Y-62371402D01*
X110601110Y-62385440D01*
X110587385Y-62413426D01*
X110585724Y-62414540D01*
X110583929Y-62413660D01*
X110583605Y-62412293D01*
X110605674Y-62238816D01*
X110607998Y-62150056D01*
X110589343Y-61899019D01*
X110584491Y-61877577D01*
X110585084Y-61875667D01*
X110587035Y-61875226D01*
X110588075Y-61875982D01*
X110609476Y-61906263D01*
X110645559Y-61912463D01*
X110675561Y-61891259D01*
X110683079Y-61865253D01*
X110684520Y-61863866D01*
X110686442Y-61864422D01*
G37*
G36*
X120136848Y-58061122D02*
G01*
X120151175Y-58095711D01*
X120184999Y-58109721D01*
X120218877Y-58095689D01*
X120232765Y-58066406D01*
X120234411Y-58065270D01*
X120236218Y-58066127D01*
X120236562Y-58067463D01*
X120212588Y-58305550D01*
X120224663Y-58556933D01*
X120235800Y-58612926D01*
X120235157Y-58614820D01*
X120233195Y-58615210D01*
X120232175Y-58614427D01*
X120211575Y-58583594D01*
X120175667Y-58576452D01*
X120145132Y-58596854D01*
X120136914Y-58623948D01*
X120135454Y-58625315D01*
X120133540Y-58624734D01*
X120133000Y-58623367D01*
X120133000Y-58061887D01*
X120134000Y-58060155D01*
X120136000Y-58060155D01*
X120136848Y-58061122D01*
G37*
G36*
X128686442Y-55864422D02*
G01*
X128687000Y-55865808D01*
X128687000Y-56419236D01*
X128686000Y-56420968D01*
X128684000Y-56420968D01*
X128683152Y-56420001D01*
X128668825Y-56385412D01*
X128635001Y-56371402D01*
X128601110Y-56385440D01*
X128587385Y-56413426D01*
X128585724Y-56414540D01*
X128583929Y-56413660D01*
X128583605Y-56412293D01*
X128605674Y-56238816D01*
X128607998Y-56150056D01*
X128589343Y-55899019D01*
X128584491Y-55877577D01*
X128585084Y-55875667D01*
X128587035Y-55875226D01*
X128588075Y-55875982D01*
X128609476Y-55906263D01*
X128645559Y-55912463D01*
X128675561Y-55891259D01*
X128683079Y-55865253D01*
X128684520Y-55863866D01*
X128686442Y-55864422D01*
G37*
M02*
