%FSLAX45Y45*%
G04 Gerber Fmt 4.5, Leading zero omitted, Abs format (unit mm)*
G04 Created by KiCad (PCBNEW (5.99.0-11177-g6c67dfa032)) date 2021-10-11 00:00:57*
%MOMM*%
%LPD*%
G01*
G04 APERTURE LIST*
%TA.AperFunction,Profile*%
%ADD10C,0.150000*%
%TD*%
%ADD11C,0.200000*%
%ADD12C,0.040000*%
%ADD13C,0.081280*%
%ADD14C,0.100000*%
%ADD15C,0.130000*%
%ADD16C,0.220000*%
G04 APERTURE END LIST*
D10*
X18762000Y-5380500D02*
X16733040Y-5381502D01*
X9451545Y-6202085D02*
X7741920Y-6197600D01*
X17576800Y-13365480D02*
X18821400Y-11201400D01*
X16047720Y-12598400D02*
X17428867Y-13395960D01*
X12537440Y-12124081D02*
X14315440Y-12125960D01*
X16685040Y-5345502D02*
G75*
G03*
X16636050Y-5305500I-48990J-9998D01*
G01*
X16685040Y-5345502D02*
G75*
G03*
X16733040Y-5381502I48000J14000D01*
G01*
X16636050Y-5305500D02*
X14929320Y-5306902D01*
X9451545Y-6202085D02*
G75*
G03*
X9501545Y-6152085I0J50000D01*
G01*
X9551712Y-5000682D02*
G75*
G03*
X9501712Y-5050682I0J-50000D01*
G01*
X13031000Y-4403620D02*
X11353000Y-4404955D01*
X13081000Y-5005340D02*
X13081000Y-4453620D01*
X14829320Y-5056902D02*
X13131000Y-5055340D01*
X14879320Y-5256902D02*
X14879320Y-5106902D01*
X9501712Y-5050682D02*
X9501545Y-6152085D01*
X11254712Y-5000682D02*
X9551712Y-5000682D01*
X11303000Y-4454955D02*
X11304712Y-4950682D01*
X11254712Y-5000682D02*
G75*
G03*
X11304712Y-4950682I0J50000D01*
G01*
X11353000Y-4404955D02*
G75*
G03*
X11303000Y-4454955I0J-50000D01*
G01*
X13081000Y-4453620D02*
G75*
G03*
X13031000Y-4403620I-50000J0D01*
G01*
X13081000Y-5005340D02*
G75*
G03*
X13131000Y-5055340I50000J0D01*
G01*
X14879320Y-5106902D02*
G75*
G03*
X14829320Y-5056902I-50000J0D01*
G01*
X14879320Y-5256902D02*
G75*
G03*
X14929320Y-5306902I50000J0D01*
G01*
X18812000Y-5430500D02*
G75*
G03*
X18762000Y-5380500I-50000J0D01*
G01*
X9545320Y-10086265D02*
X11262360Y-10086265D01*
X9479280Y-11074400D02*
X9484360Y-10147225D01*
X11329486Y-10129488D02*
G75*
G03*
X11262360Y-10086265I-67126J-30512D01*
G01*
X12537440Y-12124081D02*
G75*
G02*
X12501880Y-12110720I0J54001D01*
G01*
X17576800Y-13365480D02*
G75*
G02*
X17428867Y-13395960I-103931J130189D01*
G01*
X7701280Y-9377680D02*
X7701280Y-11074400D01*
X7696200Y-6243320D02*
X7701280Y-7670800D01*
X18812000Y-5430500D02*
X18821400Y-11201400D01*
X9479280Y-11211560D02*
X9479280Y-11074400D01*
X9545320Y-10086265D02*
G75*
G03*
X9484360Y-10147225I0J-60960D01*
G01*
X9479280Y-11211560D02*
G75*
G02*
X9413240Y-11277600I-66040J0D01*
G01*
X7701280Y-11211560D02*
X7701280Y-11074400D01*
X7701280Y-7670800D02*
X7701280Y-9377680D01*
X11329486Y-10129488D02*
X12501880Y-12110720D01*
X7696200Y-6243320D02*
G75*
G02*
X7741920Y-6197600I45720J0D01*
G01*
X7767320Y-11277600D02*
X9413240Y-11277600D01*
X14315440Y-12125960D02*
X16047720Y-12598400D01*
X7767320Y-11277600D02*
G75*
G02*
X7701280Y-11211560I0J66040D01*
G01*
D11*
D12*
X8243500Y-7615000D02*
X8283500Y-7655000D01*
X8283500Y-7615000D02*
X8243500Y-7655000D01*
X8243500Y-9315000D02*
X8283500Y-9355000D01*
X8283500Y-9315000D02*
X8243500Y-9355000D01*
X8243500Y-11015000D02*
X8283500Y-11055000D01*
X8283500Y-11015000D02*
X8243500Y-11055000D01*
X8946200Y-8425500D02*
X8986200Y-8465500D01*
X8986200Y-8425500D02*
X8946200Y-8465500D01*
X9205280Y-9367840D02*
X9245280Y-9407840D01*
X9245280Y-9367840D02*
X9205280Y-9407840D01*
X9367840Y-9840280D02*
X9407840Y-9880280D01*
X9407840Y-9840280D02*
X9367840Y-9880280D01*
X9398500Y-7395000D02*
X9438500Y-7435000D01*
X9438500Y-7395000D02*
X9398500Y-7435000D01*
X9398500Y-9095000D02*
X9438500Y-9135000D01*
X9438500Y-9095000D02*
X9398500Y-9135000D01*
X9398500Y-10795000D02*
X9438500Y-10835000D01*
X9438500Y-10795000D02*
X9398500Y-10835000D01*
X9438960Y-9357680D02*
X9478960Y-9397680D01*
X9478960Y-9357680D02*
X9438960Y-9397680D01*
X10043500Y-6415000D02*
X10083500Y-6455000D01*
X10083500Y-6415000D02*
X10043500Y-6455000D01*
X10043500Y-8115000D02*
X10083500Y-8155000D01*
X10083500Y-8115000D02*
X10043500Y-8155000D01*
X10043500Y-9815000D02*
X10083500Y-9855000D01*
X10083500Y-9815000D02*
X10043500Y-9855000D01*
X11095040Y-5217480D02*
X11135040Y-5257480D01*
X11135040Y-5217480D02*
X11095040Y-5257480D01*
X11110280Y-8641400D02*
X11150280Y-8681400D01*
X11150280Y-8641400D02*
X11110280Y-8681400D01*
X11156000Y-7000560D02*
X11196000Y-7040560D01*
X11196000Y-7000560D02*
X11156000Y-7040560D01*
X11198500Y-6195000D02*
X11238500Y-6235000D01*
X11238500Y-6195000D02*
X11198500Y-6235000D01*
X11198500Y-7895000D02*
X11238500Y-7935000D01*
X11238500Y-7895000D02*
X11198500Y-7935000D01*
X11198500Y-9595000D02*
X11238500Y-9635000D01*
X11238500Y-9595000D02*
X11198500Y-9635000D01*
X11828000Y-9613450D02*
X11868000Y-9653450D01*
X11868000Y-9613450D02*
X11828000Y-9653450D01*
X11843500Y-5815000D02*
X11883500Y-5855000D01*
X11883500Y-5815000D02*
X11843500Y-5855000D01*
X11843500Y-7515000D02*
X11883500Y-7555000D01*
X11883500Y-7515000D02*
X11843500Y-7555000D01*
X11843500Y-9215000D02*
X11883500Y-9255000D01*
X11883500Y-9215000D02*
X11843500Y-9255000D01*
X12156760Y-6523040D02*
X12196760Y-6563040D01*
X12196760Y-6523040D02*
X12156760Y-6563040D01*
X12553500Y-10904000D02*
X12593500Y-10944000D01*
X12593500Y-10904000D02*
X12553500Y-10944000D01*
X12888280Y-8067360D02*
X12928280Y-8107360D01*
X12928280Y-8067360D02*
X12888280Y-8107360D01*
X12918760Y-4612960D02*
X12958760Y-4652960D01*
X12958760Y-4612960D02*
X12918760Y-4652960D01*
X12928920Y-6345240D02*
X12968920Y-6385240D01*
X12968920Y-6345240D02*
X12928920Y-6385240D01*
X12998500Y-5595000D02*
X13038500Y-5635000D01*
X13038500Y-5595000D02*
X12998500Y-5635000D01*
X12998500Y-7295000D02*
X13038500Y-7335000D01*
X13038500Y-7295000D02*
X12998500Y-7335000D01*
X12998500Y-8995000D02*
X13038500Y-9035000D01*
X13038500Y-8995000D02*
X12998500Y-9035000D01*
X13643500Y-6477000D02*
X13683500Y-6517000D01*
X13683500Y-6477000D02*
X13643500Y-6517000D01*
X13643500Y-8177000D02*
X13683500Y-8217000D01*
X13683500Y-8177000D02*
X13643500Y-8217000D01*
X13643500Y-9877500D02*
X13683500Y-9917500D01*
X13683500Y-9877500D02*
X13643500Y-9917500D01*
X13708500Y-10684000D02*
X13748500Y-10724000D01*
X13748500Y-10684000D02*
X13708500Y-10724000D01*
X13833160Y-7254560D02*
X13873160Y-7294560D01*
X13873160Y-7254560D02*
X13833160Y-7294560D01*
X14683753Y-10961605D02*
X14723753Y-11001605D01*
X14723753Y-10961605D02*
X14683753Y-11001605D01*
X14701840Y-10079040D02*
X14741840Y-10119040D01*
X14741840Y-10079040D02*
X14701840Y-10119040D01*
X14778040Y-10754680D02*
X14818040Y-10794680D01*
X14818040Y-10754680D02*
X14778040Y-10794680D01*
X14783120Y-5324160D02*
X14823120Y-5364160D01*
X14823120Y-5324160D02*
X14783120Y-5364160D01*
X14793280Y-8687120D02*
X14833280Y-8727120D01*
X14833280Y-8687120D02*
X14793280Y-8727120D01*
X14798500Y-6257000D02*
X14838500Y-6297000D01*
X14838500Y-6257000D02*
X14798500Y-6297000D01*
X14798500Y-7957000D02*
X14838500Y-7997000D01*
X14838500Y-7957000D02*
X14798500Y-7997000D01*
X14798500Y-9657500D02*
X14838500Y-9697500D01*
X14838500Y-9657500D02*
X14798500Y-9697500D01*
X15443500Y-6715000D02*
X15483500Y-6755000D01*
X15483500Y-6715000D02*
X15443500Y-6755000D01*
X15443500Y-8415000D02*
X15483500Y-8455000D01*
X15483500Y-8415000D02*
X15443500Y-8455000D01*
X15443500Y-10115000D02*
X15483500Y-10155000D01*
X15483500Y-10115000D02*
X15443500Y-10155000D01*
X15705140Y-11509060D02*
X15745140Y-11549060D01*
X15745140Y-11509060D02*
X15705140Y-11549060D01*
X15856338Y-11048037D02*
X15896338Y-11088037D01*
X15896338Y-11048037D02*
X15856338Y-11088037D01*
X16571280Y-8920800D02*
X16611280Y-8960800D01*
X16611280Y-8920800D02*
X16571280Y-8960800D01*
X16591600Y-5532440D02*
X16631600Y-5572440D01*
X16631600Y-5532440D02*
X16591600Y-5572440D01*
X16591600Y-7366320D02*
X16631600Y-7406320D01*
X16631600Y-7366320D02*
X16591600Y-7406320D01*
X16598500Y-6495000D02*
X16638500Y-6535000D01*
X16638500Y-6495000D02*
X16598500Y-6535000D01*
X16598500Y-8195000D02*
X16638500Y-8235000D01*
X16638500Y-8195000D02*
X16598500Y-8235000D01*
X16598500Y-9895000D02*
X16638500Y-9935000D01*
X16638500Y-9895000D02*
X16598500Y-9935000D01*
X16663000Y-10429560D02*
X16703000Y-10469560D01*
X16703000Y-10429560D02*
X16663000Y-10469560D01*
X16703360Y-7046280D02*
X16743360Y-7086280D01*
X16743360Y-7046280D02*
X16703360Y-7086280D01*
X16769400Y-5631500D02*
X16809400Y-5671500D01*
X16809400Y-5631500D02*
X16769400Y-5671500D01*
X16777000Y-10428000D02*
X16817000Y-10468000D01*
X16817000Y-10428000D02*
X16777000Y-10468000D01*
X17094465Y-11277877D02*
X17134465Y-11317877D01*
X17134465Y-11277877D02*
X17094465Y-11317877D01*
X17170720Y-9225600D02*
X17210720Y-9265600D01*
X17210720Y-9225600D02*
X17170720Y-9265600D01*
X17265549Y-7899040D02*
X17305549Y-7939040D01*
X17305549Y-7899040D02*
X17265549Y-7939040D01*
X17466630Y-11459530D02*
X17506630Y-11499530D01*
X17506630Y-11459530D02*
X17466630Y-11499530D01*
X17534991Y-10954864D02*
X17574991Y-10994864D01*
X17574991Y-10954864D02*
X17534991Y-10994864D01*
X17760000Y-6883040D02*
X17800000Y-6923040D01*
X17800000Y-6883040D02*
X17760000Y-6923040D01*
X17760000Y-7137040D02*
X17800000Y-7177040D01*
X17800000Y-7137040D02*
X17760000Y-7177040D01*
X17760000Y-7391040D02*
X17800000Y-7431040D01*
X17800000Y-7391040D02*
X17760000Y-7431040D01*
X17760000Y-7645040D02*
X17800000Y-7685040D01*
X17800000Y-7645040D02*
X17760000Y-7685040D01*
X17760000Y-7899040D02*
X17800000Y-7939040D01*
X17800000Y-7899040D02*
X17760000Y-7939040D01*
X17760000Y-8153040D02*
X17800000Y-8193040D01*
X17800000Y-8153040D02*
X17760000Y-8193040D01*
X17760000Y-8406840D02*
X17800000Y-8446840D01*
X17800000Y-8406840D02*
X17760000Y-8446840D01*
X17963200Y-7005640D02*
X18003200Y-7045640D01*
X18003200Y-7005640D02*
X17963200Y-7045640D01*
X17963200Y-7259640D02*
X18003200Y-7299640D01*
X18003200Y-7259640D02*
X17963200Y-7299640D01*
X17963200Y-7513640D02*
X18003200Y-7553640D01*
X18003200Y-7513640D02*
X17963200Y-7553640D01*
X17963200Y-7767640D02*
X18003200Y-7807640D01*
X18003200Y-7767640D02*
X17963200Y-7807640D01*
X17975900Y-8021640D02*
X18015900Y-8061640D01*
X18015900Y-8021640D02*
X17975900Y-8061640D01*
X17975900Y-8275640D02*
X18015900Y-8315640D01*
X18015900Y-8275640D02*
X17975900Y-8315640D01*
X17988600Y-8527100D02*
X18028600Y-8567100D01*
X18028600Y-8527100D02*
X17988600Y-8567100D01*
X18283240Y-8133400D02*
X18323240Y-8173400D01*
X18323240Y-8133400D02*
X18283240Y-8173400D01*
X18344200Y-9098600D02*
X18384200Y-9138600D01*
X18384200Y-9098600D02*
X18344200Y-9138600D01*
X18522000Y-8908100D02*
X18562000Y-8948100D01*
X18562000Y-8908100D02*
X18522000Y-8948100D01*
D13*
X8249920Y-8122920D02*
G75*
G03*
X8249920Y-8122920I-40640J0D01*
G01*
X8249920Y-9824720D02*
G75*
G03*
X8249920Y-9824720I-40640J0D01*
G01*
X8260080Y-6431280D02*
G75*
G03*
X8260080Y-6431280I-40640J0D01*
G01*
X9011920Y-8122920D02*
G75*
G03*
X9011920Y-8122920I-40640J0D01*
G01*
X9011920Y-9824720D02*
G75*
G03*
X9011920Y-9824720I-40640J0D01*
G01*
X9022080Y-6431280D02*
G75*
G03*
X9022080Y-6431280I-40640J0D01*
G01*
X10048240Y-6934200D02*
G75*
G03*
X10048240Y-6934200I-40640J0D01*
G01*
X10058400Y-8630920D02*
G75*
G03*
X10058400Y-8630920I-40640J0D01*
G01*
X10068560Y-5227320D02*
G75*
G03*
X10068560Y-5227320I-40640J0D01*
G01*
X10810240Y-6934200D02*
G75*
G03*
X10810240Y-6934200I-40640J0D01*
G01*
X10820400Y-8630920D02*
G75*
G03*
X10820400Y-8630920I-40640J0D01*
G01*
X10830560Y-5227320D02*
G75*
G03*
X10830560Y-5227320I-40640J0D01*
G01*
X11856720Y-6334760D02*
G75*
G03*
X11856720Y-6334760I-40640J0D01*
G01*
X11856720Y-8031480D02*
G75*
G03*
X11856720Y-8031480I-40640J0D01*
G01*
X11866880Y-4622800D02*
G75*
G03*
X11866880Y-4622800I-40640J0D01*
G01*
X12618720Y-6334760D02*
G75*
G03*
X12618720Y-6334760I-40640J0D01*
G01*
X12618720Y-8031480D02*
G75*
G03*
X12618720Y-8031480I-40640J0D01*
G01*
X12628880Y-4622800D02*
G75*
G03*
X12628880Y-4622800I-40640J0D01*
G01*
X13055600Y-11907520D02*
G75*
G03*
X13055600Y-11907520I-40640J0D01*
G01*
X13655040Y-6990080D02*
G75*
G03*
X13655040Y-6990080I-40640J0D01*
G01*
X13660120Y-5328920D02*
G75*
G03*
X13660120Y-5328920I-40640J0D01*
G01*
X13665200Y-8696960D02*
G75*
G03*
X13665200Y-8696960I-40640J0D01*
G01*
X13817600Y-11907520D02*
G75*
G03*
X13817600Y-11907520I-40640J0D01*
G01*
X14417040Y-6990080D02*
G75*
G03*
X14417040Y-6990080I-40640J0D01*
G01*
X14422120Y-5328920D02*
G75*
G03*
X14422120Y-5328920I-40640J0D01*
G01*
X14427200Y-8696960D02*
G75*
G03*
X14427200Y-8696960I-40640J0D01*
G01*
X14924050Y-12047449D02*
G75*
G03*
X14924050Y-12047449I-40640J0D01*
G01*
X15458440Y-5542280D02*
G75*
G03*
X15458440Y-5542280I-40640J0D01*
G01*
X15468600Y-8935720D02*
G75*
G03*
X15468600Y-8935720I-40640J0D01*
G01*
X15488920Y-7249160D02*
G75*
G03*
X15488920Y-7249160I-40640J0D01*
G01*
X15660086Y-12244670D02*
G75*
G03*
X15660086Y-12244670I-40640J0D01*
G01*
X16220440Y-5542280D02*
G75*
G03*
X16220440Y-5542280I-40640J0D01*
G01*
X16230600Y-8935720D02*
G75*
G03*
X16230600Y-8935720I-40640J0D01*
G01*
X16250920Y-7249160D02*
G75*
G03*
X16250920Y-7249160I-40640J0D01*
G01*
X17002640Y-5887040D02*
G75*
G03*
X17002640Y-5887040I-40640J0D01*
G01*
X17002640Y-6141040D02*
G75*
G03*
X17002640Y-6141040I-40640J0D01*
G01*
X17002640Y-6395040D02*
G75*
G03*
X17002640Y-6395040I-40640J0D01*
G01*
X17002640Y-6649040D02*
G75*
G03*
X17002640Y-6649040I-40640J0D01*
G01*
X17002640Y-6903040D02*
G75*
G03*
X17002640Y-6903040I-40640J0D01*
G01*
X17002640Y-7157040D02*
G75*
G03*
X17002640Y-7157040I-40640J0D01*
G01*
X17002640Y-7411040D02*
G75*
G03*
X17002640Y-7411040I-40640J0D01*
G01*
X17002640Y-7665040D02*
G75*
G03*
X17002640Y-7665040I-40640J0D01*
G01*
X17002640Y-7919040D02*
G75*
G03*
X17002640Y-7919040I-40640J0D01*
G01*
X17002640Y-8173040D02*
G75*
G03*
X17002640Y-8173040I-40640J0D01*
G01*
X17002640Y-8427040D02*
G75*
G03*
X17002640Y-8427040I-40640J0D01*
G01*
X17002640Y-8681040D02*
G75*
G03*
X17002640Y-8681040I-40640J0D01*
G01*
X17135280Y-5760040D02*
G75*
G03*
X17135280Y-5760040I-40640J0D01*
G01*
X17135280Y-6014040D02*
G75*
G03*
X17135280Y-6014040I-40640J0D01*
G01*
X17135280Y-6268040D02*
G75*
G03*
X17135280Y-6268040I-40640J0D01*
G01*
X17135280Y-6522040D02*
G75*
G03*
X17135280Y-6522040I-40640J0D01*
G01*
X17135280Y-6776040D02*
G75*
G03*
X17135280Y-6776040I-40640J0D01*
G01*
X17135280Y-7030040D02*
G75*
G03*
X17135280Y-7030040I-40640J0D01*
G01*
X17135280Y-7284040D02*
G75*
G03*
X17135280Y-7284040I-40640J0D01*
G01*
X17135280Y-7538040D02*
G75*
G03*
X17135280Y-7538040I-40640J0D01*
G01*
X17135280Y-7792040D02*
G75*
G03*
X17135280Y-7792040I-40640J0D01*
G01*
X17135280Y-8046040D02*
G75*
G03*
X17135280Y-8046040I-40640J0D01*
G01*
X17135280Y-8300040D02*
G75*
G03*
X17135280Y-8300040I-40640J0D01*
G01*
X17135280Y-8554040D02*
G75*
G03*
X17135280Y-8554040I-40640J0D01*
G01*
X17433640Y-9060840D02*
G75*
G03*
X17433640Y-9060840I-40640J0D01*
G01*
X17687640Y-9060840D02*
G75*
G03*
X17687640Y-9060840I-40640J0D01*
G01*
X17845957Y-12519499D02*
G75*
G03*
X17845957Y-12519499I-40640J0D01*
G01*
X17941640Y-9060840D02*
G75*
G03*
X17941640Y-9060840I-40640J0D01*
G01*
X18195640Y-9060840D02*
G75*
G03*
X18195640Y-9060840I-40640J0D01*
G01*
X18226957Y-11859588D02*
G75*
G03*
X18226957Y-11859588I-40640J0D01*
G01*
X18526640Y-5887040D02*
G75*
G03*
X18526640Y-5887040I-40640J0D01*
G01*
X18526640Y-6141040D02*
G75*
G03*
X18526640Y-6141040I-40640J0D01*
G01*
X18526640Y-6395040D02*
G75*
G03*
X18526640Y-6395040I-40640J0D01*
G01*
X18526640Y-6649040D02*
G75*
G03*
X18526640Y-6649040I-40640J0D01*
G01*
X18526640Y-6903040D02*
G75*
G03*
X18526640Y-6903040I-40640J0D01*
G01*
X18526640Y-7157040D02*
G75*
G03*
X18526640Y-7157040I-40640J0D01*
G01*
X18526640Y-7411040D02*
G75*
G03*
X18526640Y-7411040I-40640J0D01*
G01*
X18526640Y-7665040D02*
G75*
G03*
X18526640Y-7665040I-40640J0D01*
G01*
X18526640Y-7919040D02*
G75*
G03*
X18526640Y-7919040I-40640J0D01*
G01*
X18526640Y-8173040D02*
G75*
G03*
X18526640Y-8173040I-40640J0D01*
G01*
X18526640Y-8427040D02*
G75*
G03*
X18526640Y-8427040I-40640J0D01*
G01*
X18526640Y-8681040D02*
G75*
G03*
X18526640Y-8681040I-40640J0D01*
G01*
X18657280Y-5760040D02*
G75*
G03*
X18657280Y-5760040I-40640J0D01*
G01*
X18657280Y-6014040D02*
G75*
G03*
X18657280Y-6014040I-40640J0D01*
G01*
X18657280Y-6268040D02*
G75*
G03*
X18657280Y-6268040I-40640J0D01*
G01*
X18657280Y-6522040D02*
G75*
G03*
X18657280Y-6522040I-40640J0D01*
G01*
X18657280Y-6776040D02*
G75*
G03*
X18657280Y-6776040I-40640J0D01*
G01*
X18657280Y-7030040D02*
G75*
G03*
X18657280Y-7030040I-40640J0D01*
G01*
X18657280Y-7284040D02*
G75*
G03*
X18657280Y-7284040I-40640J0D01*
G01*
X18657280Y-7538040D02*
G75*
G03*
X18657280Y-7538040I-40640J0D01*
G01*
X18657280Y-7792040D02*
G75*
G03*
X18657280Y-7792040I-40640J0D01*
G01*
X18657280Y-8046040D02*
G75*
G03*
X18657280Y-8046040I-40640J0D01*
G01*
X18657280Y-8300040D02*
G75*
G03*
X18657280Y-8300040I-40640J0D01*
G01*
X18657280Y-8554040D02*
G75*
G03*
X18657280Y-8554040I-40640J0D01*
G01*
D14*
X17616000Y-9811100D02*
X17616000Y-9911100D01*
X17566000Y-9861100D02*
X17666000Y-9861100D01*
D11*
X17641000Y-9821100D02*
X17591000Y-9821100D01*
X17641000Y-9901100D02*
X17591000Y-9901100D01*
X17591000Y-9821100D02*
G75*
G03*
X17591000Y-9901100I0J-40000D01*
G01*
X17641000Y-9901100D02*
G75*
G03*
X17641000Y-9821100I0J40000D01*
G01*
D14*
X17616000Y-10056100D02*
X17616000Y-10156100D01*
X17566000Y-10106100D02*
X17666000Y-10106100D01*
D11*
X17641000Y-10066100D02*
X17591000Y-10066100D01*
X17641000Y-10146100D02*
X17591000Y-10146100D01*
X17591000Y-10066100D02*
G75*
G03*
X17591000Y-10146100I0J-40000D01*
G01*
X17641000Y-10146100D02*
G75*
G03*
X17641000Y-10066100I0J40000D01*
G01*
D14*
X17766000Y-9636100D02*
X17766000Y-9736100D01*
X17716000Y-9686100D02*
X17816000Y-9686100D01*
D11*
X17791000Y-9646100D02*
X17741000Y-9646100D01*
X17791000Y-9726100D02*
X17741000Y-9726100D01*
X17741000Y-9646100D02*
G75*
G03*
X17741000Y-9726100I0J-40000D01*
G01*
X17791000Y-9726100D02*
G75*
G03*
X17791000Y-9646100I0J40000D01*
G01*
D14*
X17766000Y-10231100D02*
X17766000Y-10331100D01*
X17716000Y-10281100D02*
X17816000Y-10281100D01*
D11*
X17791000Y-10241100D02*
X17741000Y-10241100D01*
X17791000Y-10321100D02*
X17741000Y-10321100D01*
X17741000Y-10241100D02*
G75*
G03*
X17741000Y-10321100I0J-40000D01*
G01*
X17791000Y-10321100D02*
G75*
G03*
X17791000Y-10241100I0J40000D01*
G01*
D14*
X18166000Y-9636100D02*
X18166000Y-9736100D01*
X18116000Y-9686100D02*
X18216000Y-9686100D01*
D11*
X18191000Y-9646100D02*
X18141000Y-9646100D01*
X18191000Y-9726100D02*
X18141000Y-9726100D01*
X18141000Y-9646100D02*
G75*
G03*
X18141000Y-9726100I0J-40000D01*
G01*
X18191000Y-9726100D02*
G75*
G03*
X18191000Y-9646100I0J40000D01*
G01*
D14*
X18166000Y-10231100D02*
X18166000Y-10331100D01*
X18116000Y-10281100D02*
X18216000Y-10281100D01*
D11*
X18191000Y-10241100D02*
X18141000Y-10241100D01*
X18191000Y-10321100D02*
X18141000Y-10321100D01*
X18141000Y-10241100D02*
G75*
G03*
X18141000Y-10321100I0J-40000D01*
G01*
X18191000Y-10321100D02*
G75*
G03*
X18191000Y-10241100I0J40000D01*
G01*
D14*
X18466000Y-9636100D02*
X18466000Y-9736100D01*
X18416000Y-9686100D02*
X18516000Y-9686100D01*
D11*
X18491000Y-9646100D02*
X18441000Y-9646100D01*
X18491000Y-9726100D02*
X18441000Y-9726100D01*
X18441000Y-9646100D02*
G75*
G03*
X18441000Y-9726100I0J-40000D01*
G01*
X18491000Y-9726100D02*
G75*
G03*
X18491000Y-9646100I0J40000D01*
G01*
D14*
X18466000Y-10231100D02*
X18466000Y-10331100D01*
X18416000Y-10281100D02*
X18516000Y-10281100D01*
D11*
X18491000Y-10241100D02*
X18441000Y-10241100D01*
X18491000Y-10321100D02*
X18441000Y-10321100D01*
X18441000Y-10241100D02*
G75*
G03*
X18441000Y-10321100I0J-40000D01*
G01*
X18491000Y-10321100D02*
G75*
G03*
X18491000Y-10241100I0J40000D01*
G01*
D15*
X17996262Y-9431262D02*
X17996262Y-9339338D01*
X17904338Y-9339338D01*
X17904338Y-9431262D01*
X17996262Y-9431262D01*
X18646262Y-9431262D02*
X18646262Y-9339338D01*
X18554338Y-9339338D01*
X18554338Y-9431262D01*
X18646262Y-9431262D01*
D16*
X9500000Y-6790200D02*
X9610000Y-6680200D01*
X9500000Y-6570200D01*
X9390000Y-6680200D01*
X9500000Y-6790200D01*
X9500000Y-8492000D02*
X9610000Y-8382000D01*
X9500000Y-8272000D01*
X9390000Y-8382000D01*
X9500000Y-8492000D01*
X12395200Y-10524000D02*
X12505200Y-10414000D01*
X12395200Y-10304000D01*
X12285200Y-10414000D01*
X12395200Y-10524000D01*
X14897100Y-7095000D02*
X15007100Y-6985000D01*
X14897100Y-6875000D01*
X14787100Y-6985000D01*
X14897100Y-7095000D01*
X16700500Y-11146300D02*
X16810500Y-11036300D01*
X16700500Y-10926300D01*
X16590500Y-11036300D01*
X16700500Y-11146300D01*
X17132300Y-9800100D02*
X17242300Y-9690100D01*
X17132300Y-9580100D01*
X17022300Y-9690100D01*
X17132300Y-9800100D01*
X18542000Y-10752600D02*
X18652000Y-10642600D01*
X18542000Y-10532600D01*
X18432000Y-10642600D01*
X18542000Y-10752600D01*
D11*
X7931319Y-13734853D02*
X7931319Y-13534853D01*
X7978938Y-13534853D01*
X8007509Y-13544376D01*
X8026557Y-13563424D01*
X8036081Y-13582472D01*
X8045605Y-13620567D01*
X8045605Y-13649138D01*
X8036081Y-13687234D01*
X8026557Y-13706281D01*
X8007509Y-13725329D01*
X7978938Y-13734853D01*
X7931319Y-13734853D01*
X8131319Y-13734853D02*
X8131319Y-13601519D01*
X8131319Y-13639614D02*
X8140843Y-13620567D01*
X8150367Y-13611043D01*
X8169414Y-13601519D01*
X8188462Y-13601519D01*
X8255128Y-13734853D02*
X8255128Y-13601519D01*
X8255128Y-13534853D02*
X8245605Y-13544376D01*
X8255128Y-13553900D01*
X8264652Y-13544376D01*
X8255128Y-13534853D01*
X8255128Y-13553900D01*
X8378938Y-13734853D02*
X8359890Y-13725329D01*
X8350367Y-13706281D01*
X8350367Y-13534853D01*
X8483700Y-13734853D02*
X8464652Y-13725329D01*
X8455129Y-13706281D01*
X8455129Y-13534853D01*
X8712271Y-13734853D02*
X8712271Y-13534853D01*
X8778938Y-13677710D01*
X8845605Y-13534853D01*
X8845605Y-13734853D01*
X9026557Y-13734853D02*
X9026557Y-13630091D01*
X9017033Y-13611043D01*
X8997986Y-13601519D01*
X8959890Y-13601519D01*
X8940843Y-13611043D01*
X9026557Y-13725329D02*
X9007510Y-13734853D01*
X8959890Y-13734853D01*
X8940843Y-13725329D01*
X8931319Y-13706281D01*
X8931319Y-13687234D01*
X8940843Y-13668186D01*
X8959890Y-13658662D01*
X9007510Y-13658662D01*
X9026557Y-13649138D01*
X9121795Y-13601519D02*
X9121795Y-13801519D01*
X9121795Y-13611043D02*
X9140843Y-13601519D01*
X9178938Y-13601519D01*
X9197986Y-13611043D01*
X9207510Y-13620567D01*
X9217033Y-13639614D01*
X9217033Y-13696757D01*
X9207510Y-13715805D01*
X9197986Y-13725329D01*
X9178938Y-13734853D01*
X9140843Y-13734853D01*
X9121795Y-13725329D01*
X9302748Y-13715805D02*
X9312271Y-13725329D01*
X9302748Y-13734853D01*
X9293224Y-13725329D01*
X9302748Y-13715805D01*
X9302748Y-13734853D01*
X9302748Y-13611043D02*
X9312271Y-13620567D01*
X9302748Y-13630091D01*
X9293224Y-13620567D01*
X9302748Y-13611043D01*
X9302748Y-13630091D01*
D12*
X7633700Y-14044376D02*
X7673700Y-14084376D01*
X7673700Y-14044376D02*
X7633700Y-14084376D01*
D11*
X7969414Y-13954853D02*
X7988462Y-13954853D01*
X8007509Y-13964376D01*
X8017033Y-13973900D01*
X8026557Y-13992948D01*
X8036081Y-14031043D01*
X8036081Y-14078662D01*
X8026557Y-14116757D01*
X8017033Y-14135805D01*
X8007509Y-14145329D01*
X7988462Y-14154853D01*
X7969414Y-14154853D01*
X7950367Y-14145329D01*
X7940843Y-14135805D01*
X7931319Y-14116757D01*
X7921795Y-14078662D01*
X7921795Y-14031043D01*
X7931319Y-13992948D01*
X7940843Y-13973900D01*
X7950367Y-13964376D01*
X7969414Y-13954853D01*
X8121795Y-14135805D02*
X8131319Y-14145329D01*
X8121795Y-14154853D01*
X8112271Y-14145329D01*
X8121795Y-14135805D01*
X8121795Y-14154853D01*
X8302748Y-14021519D02*
X8302748Y-14154853D01*
X8255128Y-13945329D02*
X8207509Y-14088186D01*
X8331319Y-14088186D01*
X8445605Y-13954853D02*
X8464652Y-13954853D01*
X8483700Y-13964376D01*
X8493224Y-13973900D01*
X8502748Y-13992948D01*
X8512271Y-14031043D01*
X8512271Y-14078662D01*
X8502748Y-14116757D01*
X8493224Y-14135805D01*
X8483700Y-14145329D01*
X8464652Y-14154853D01*
X8445605Y-14154853D01*
X8426557Y-14145329D01*
X8417033Y-14135805D01*
X8407510Y-14116757D01*
X8397986Y-14078662D01*
X8397986Y-14031043D01*
X8407510Y-13992948D01*
X8417033Y-13973900D01*
X8426557Y-13964376D01*
X8445605Y-13954853D01*
X8636081Y-13954853D02*
X8655129Y-13954853D01*
X8674176Y-13964376D01*
X8683700Y-13973900D01*
X8693224Y-13992948D01*
X8702748Y-14031043D01*
X8702748Y-14078662D01*
X8693224Y-14116757D01*
X8683700Y-14135805D01*
X8674176Y-14145329D01*
X8655129Y-14154853D01*
X8636081Y-14154853D01*
X8617033Y-14145329D01*
X8607510Y-14135805D01*
X8597986Y-14116757D01*
X8588462Y-14078662D01*
X8588462Y-14031043D01*
X8597986Y-13992948D01*
X8607510Y-13973900D01*
X8617033Y-13964376D01*
X8636081Y-13954853D01*
X8788462Y-14154853D02*
X8788462Y-14021519D01*
X8788462Y-14040567D02*
X8797986Y-14031043D01*
X8817033Y-14021519D01*
X8845605Y-14021519D01*
X8864652Y-14031043D01*
X8874176Y-14050091D01*
X8874176Y-14154853D01*
X8874176Y-14050091D02*
X8883700Y-14031043D01*
X8902748Y-14021519D01*
X8931319Y-14021519D01*
X8950367Y-14031043D01*
X8959890Y-14050091D01*
X8959890Y-14154853D01*
X9055129Y-14154853D02*
X9055129Y-14021519D01*
X9055129Y-14040567D02*
X9064652Y-14031043D01*
X9083700Y-14021519D01*
X9112271Y-14021519D01*
X9131319Y-14031043D01*
X9140843Y-14050091D01*
X9140843Y-14154853D01*
X9140843Y-14050091D02*
X9150367Y-14031043D01*
X9169414Y-14021519D01*
X9197986Y-14021519D01*
X9217033Y-14031043D01*
X9226557Y-14050091D01*
X9226557Y-14154853D01*
X9617033Y-13945329D02*
X9445605Y-14202472D01*
X9874176Y-13954853D02*
X9893224Y-13954853D01*
X9912271Y-13964376D01*
X9921795Y-13973900D01*
X9931319Y-13992948D01*
X9940843Y-14031043D01*
X9940843Y-14078662D01*
X9931319Y-14116757D01*
X9921795Y-14135805D01*
X9912271Y-14145329D01*
X9893224Y-14154853D01*
X9874176Y-14154853D01*
X9855129Y-14145329D01*
X9845605Y-14135805D01*
X9836081Y-14116757D01*
X9826557Y-14078662D01*
X9826557Y-14031043D01*
X9836081Y-13992948D01*
X9845605Y-13973900D01*
X9855129Y-13964376D01*
X9874176Y-13954853D01*
X10026557Y-14135805D02*
X10036081Y-14145329D01*
X10026557Y-14154853D01*
X10017033Y-14145329D01*
X10026557Y-14135805D01*
X10026557Y-14154853D01*
X10159890Y-13954853D02*
X10178938Y-13954853D01*
X10197986Y-13964376D01*
X10207510Y-13973900D01*
X10217033Y-13992948D01*
X10226557Y-14031043D01*
X10226557Y-14078662D01*
X10217033Y-14116757D01*
X10207510Y-14135805D01*
X10197986Y-14145329D01*
X10178938Y-14154853D01*
X10159890Y-14154853D01*
X10140843Y-14145329D01*
X10131319Y-14135805D01*
X10121795Y-14116757D01*
X10112271Y-14078662D01*
X10112271Y-14031043D01*
X10121795Y-13992948D01*
X10131319Y-13973900D01*
X10140843Y-13964376D01*
X10159890Y-13954853D01*
X10417033Y-14154853D02*
X10302748Y-14154853D01*
X10359890Y-14154853D02*
X10359890Y-13954853D01*
X10340843Y-13983424D01*
X10321795Y-14002472D01*
X10302748Y-14011995D01*
X10597986Y-13954853D02*
X10502748Y-13954853D01*
X10493224Y-14050091D01*
X10502748Y-14040567D01*
X10521795Y-14031043D01*
X10569414Y-14031043D01*
X10588462Y-14040567D01*
X10597986Y-14050091D01*
X10607510Y-14069138D01*
X10607510Y-14116757D01*
X10597986Y-14135805D01*
X10588462Y-14145329D01*
X10569414Y-14154853D01*
X10521795Y-14154853D01*
X10502748Y-14145329D01*
X10493224Y-14135805D01*
X10674176Y-13954853D02*
X10807510Y-13954853D01*
X10721795Y-14154853D01*
X10874176Y-13954853D02*
X10874176Y-13992948D01*
X10950367Y-13954853D02*
X10950367Y-13992948D01*
X11245605Y-14231043D02*
X11236081Y-14221519D01*
X11217033Y-14192948D01*
X11207509Y-14173900D01*
X11197986Y-14145329D01*
X11188462Y-14097710D01*
X11188462Y-14059614D01*
X11197986Y-14011995D01*
X11207509Y-13983424D01*
X11217033Y-13964376D01*
X11236081Y-13935805D01*
X11245605Y-13926281D01*
X11350367Y-14040567D02*
X11331319Y-14031043D01*
X11321795Y-14021519D01*
X11312271Y-14002472D01*
X11312271Y-13992948D01*
X11321795Y-13973900D01*
X11331319Y-13964376D01*
X11350367Y-13954853D01*
X11388462Y-13954853D01*
X11407509Y-13964376D01*
X11417033Y-13973900D01*
X11426557Y-13992948D01*
X11426557Y-14002472D01*
X11417033Y-14021519D01*
X11407509Y-14031043D01*
X11388462Y-14040567D01*
X11350367Y-14040567D01*
X11331319Y-14050091D01*
X11321795Y-14059614D01*
X11312271Y-14078662D01*
X11312271Y-14116757D01*
X11321795Y-14135805D01*
X11331319Y-14145329D01*
X11350367Y-14154853D01*
X11388462Y-14154853D01*
X11407509Y-14145329D01*
X11417033Y-14135805D01*
X11426557Y-14116757D01*
X11426557Y-14078662D01*
X11417033Y-14059614D01*
X11407509Y-14050091D01*
X11388462Y-14040567D01*
X11617033Y-14154853D02*
X11502748Y-14154853D01*
X11559890Y-14154853D02*
X11559890Y-13954853D01*
X11540843Y-13983424D01*
X11521795Y-14002472D01*
X11502748Y-14011995D01*
X11855128Y-14154853D02*
X11855128Y-13954853D01*
X11940843Y-14154853D02*
X11940843Y-14050091D01*
X11931319Y-14031043D01*
X11912271Y-14021519D01*
X11883700Y-14021519D01*
X11864652Y-14031043D01*
X11855128Y-14040567D01*
X12064652Y-14154853D02*
X12045605Y-14145329D01*
X12036081Y-14135805D01*
X12026557Y-14116757D01*
X12026557Y-14059614D01*
X12036081Y-14040567D01*
X12045605Y-14031043D01*
X12064652Y-14021519D01*
X12093224Y-14021519D01*
X12112271Y-14031043D01*
X12121795Y-14040567D01*
X12131319Y-14059614D01*
X12131319Y-14116757D01*
X12121795Y-14135805D01*
X12112271Y-14145329D01*
X12093224Y-14154853D01*
X12064652Y-14154853D01*
X12245605Y-14154853D02*
X12226557Y-14145329D01*
X12217033Y-14126281D01*
X12217033Y-13954853D01*
X12397986Y-14145329D02*
X12378938Y-14154853D01*
X12340843Y-14154853D01*
X12321795Y-14145329D01*
X12312271Y-14126281D01*
X12312271Y-14050091D01*
X12321795Y-14031043D01*
X12340843Y-14021519D01*
X12378938Y-14021519D01*
X12397986Y-14031043D01*
X12407509Y-14050091D01*
X12407509Y-14069138D01*
X12312271Y-14088186D01*
X12483700Y-14145329D02*
X12502748Y-14154853D01*
X12540843Y-14154853D01*
X12559890Y-14145329D01*
X12569414Y-14126281D01*
X12569414Y-14116757D01*
X12559890Y-14097710D01*
X12540843Y-14088186D01*
X12512271Y-14088186D01*
X12493224Y-14078662D01*
X12483700Y-14059614D01*
X12483700Y-14050091D01*
X12493224Y-14031043D01*
X12512271Y-14021519D01*
X12540843Y-14021519D01*
X12559890Y-14031043D01*
X12636081Y-14231043D02*
X12645605Y-14221519D01*
X12664652Y-14192948D01*
X12674176Y-14173900D01*
X12683700Y-14145329D01*
X12693224Y-14097710D01*
X12693224Y-14059614D01*
X12683700Y-14011995D01*
X12674176Y-13983424D01*
X12664652Y-13964376D01*
X12645605Y-13935805D01*
X12636081Y-13926281D01*
D13*
X7673700Y-14328376D02*
G75*
G03*
X7673700Y-14328376I-40640J0D01*
G01*
D11*
X7969414Y-14218853D02*
X7988462Y-14218853D01*
X8007509Y-14228376D01*
X8017033Y-14237900D01*
X8026557Y-14256948D01*
X8036081Y-14295043D01*
X8036081Y-14342662D01*
X8026557Y-14380757D01*
X8017033Y-14399805D01*
X8007509Y-14409329D01*
X7988462Y-14418853D01*
X7969414Y-14418853D01*
X7950367Y-14409329D01*
X7940843Y-14399805D01*
X7931319Y-14380757D01*
X7921795Y-14342662D01*
X7921795Y-14295043D01*
X7931319Y-14256948D01*
X7940843Y-14237900D01*
X7950367Y-14228376D01*
X7969414Y-14218853D01*
X8121795Y-14399805D02*
X8131319Y-14409329D01*
X8121795Y-14418853D01*
X8112271Y-14409329D01*
X8121795Y-14399805D01*
X8121795Y-14418853D01*
X8245605Y-14304567D02*
X8226557Y-14295043D01*
X8217033Y-14285519D01*
X8207509Y-14266472D01*
X8207509Y-14256948D01*
X8217033Y-14237900D01*
X8226557Y-14228376D01*
X8245605Y-14218853D01*
X8283700Y-14218853D01*
X8302748Y-14228376D01*
X8312271Y-14237900D01*
X8321795Y-14256948D01*
X8321795Y-14266472D01*
X8312271Y-14285519D01*
X8302748Y-14295043D01*
X8283700Y-14304567D01*
X8245605Y-14304567D01*
X8226557Y-14314091D01*
X8217033Y-14323614D01*
X8207509Y-14342662D01*
X8207509Y-14380757D01*
X8217033Y-14399805D01*
X8226557Y-14409329D01*
X8245605Y-14418853D01*
X8283700Y-14418853D01*
X8302748Y-14409329D01*
X8312271Y-14399805D01*
X8321795Y-14380757D01*
X8321795Y-14342662D01*
X8312271Y-14323614D01*
X8302748Y-14314091D01*
X8283700Y-14304567D01*
X8512271Y-14418853D02*
X8397986Y-14418853D01*
X8455129Y-14418853D02*
X8455129Y-14218853D01*
X8436081Y-14247424D01*
X8417033Y-14266472D01*
X8397986Y-14275995D01*
X8578938Y-14218853D02*
X8702748Y-14218853D01*
X8636081Y-14295043D01*
X8664652Y-14295043D01*
X8683700Y-14304567D01*
X8693224Y-14314091D01*
X8702748Y-14333138D01*
X8702748Y-14380757D01*
X8693224Y-14399805D01*
X8683700Y-14409329D01*
X8664652Y-14418853D01*
X8607510Y-14418853D01*
X8588462Y-14409329D01*
X8578938Y-14399805D01*
X8788462Y-14418853D02*
X8788462Y-14285519D01*
X8788462Y-14304567D02*
X8797986Y-14295043D01*
X8817033Y-14285519D01*
X8845605Y-14285519D01*
X8864652Y-14295043D01*
X8874176Y-14314091D01*
X8874176Y-14418853D01*
X8874176Y-14314091D02*
X8883700Y-14295043D01*
X8902748Y-14285519D01*
X8931319Y-14285519D01*
X8950367Y-14295043D01*
X8959890Y-14314091D01*
X8959890Y-14418853D01*
X9055129Y-14418853D02*
X9055129Y-14285519D01*
X9055129Y-14304567D02*
X9064652Y-14295043D01*
X9083700Y-14285519D01*
X9112271Y-14285519D01*
X9131319Y-14295043D01*
X9140843Y-14314091D01*
X9140843Y-14418853D01*
X9140843Y-14314091D02*
X9150367Y-14295043D01*
X9169414Y-14285519D01*
X9197986Y-14285519D01*
X9217033Y-14295043D01*
X9226557Y-14314091D01*
X9226557Y-14418853D01*
X9617033Y-14209329D02*
X9445605Y-14466472D01*
X9874176Y-14218853D02*
X9893224Y-14218853D01*
X9912271Y-14228376D01*
X9921795Y-14237900D01*
X9931319Y-14256948D01*
X9940843Y-14295043D01*
X9940843Y-14342662D01*
X9931319Y-14380757D01*
X9921795Y-14399805D01*
X9912271Y-14409329D01*
X9893224Y-14418853D01*
X9874176Y-14418853D01*
X9855129Y-14409329D01*
X9845605Y-14399805D01*
X9836081Y-14380757D01*
X9826557Y-14342662D01*
X9826557Y-14295043D01*
X9836081Y-14256948D01*
X9845605Y-14237900D01*
X9855129Y-14228376D01*
X9874176Y-14218853D01*
X10026557Y-14399805D02*
X10036081Y-14409329D01*
X10026557Y-14418853D01*
X10017033Y-14409329D01*
X10026557Y-14399805D01*
X10026557Y-14418853D01*
X10159890Y-14218853D02*
X10178938Y-14218853D01*
X10197986Y-14228376D01*
X10207510Y-14237900D01*
X10217033Y-14256948D01*
X10226557Y-14295043D01*
X10226557Y-14342662D01*
X10217033Y-14380757D01*
X10207510Y-14399805D01*
X10197986Y-14409329D01*
X10178938Y-14418853D01*
X10159890Y-14418853D01*
X10140843Y-14409329D01*
X10131319Y-14399805D01*
X10121795Y-14380757D01*
X10112271Y-14342662D01*
X10112271Y-14295043D01*
X10121795Y-14256948D01*
X10131319Y-14237900D01*
X10140843Y-14228376D01*
X10159890Y-14218853D01*
X10293224Y-14218853D02*
X10417033Y-14218853D01*
X10350367Y-14295043D01*
X10378938Y-14295043D01*
X10397986Y-14304567D01*
X10407510Y-14314091D01*
X10417033Y-14333138D01*
X10417033Y-14380757D01*
X10407510Y-14399805D01*
X10397986Y-14409329D01*
X10378938Y-14418853D01*
X10321795Y-14418853D01*
X10302748Y-14409329D01*
X10293224Y-14399805D01*
X10493224Y-14237900D02*
X10502748Y-14228376D01*
X10521795Y-14218853D01*
X10569414Y-14218853D01*
X10588462Y-14228376D01*
X10597986Y-14237900D01*
X10607510Y-14256948D01*
X10607510Y-14275995D01*
X10597986Y-14304567D01*
X10483700Y-14418853D01*
X10607510Y-14418853D01*
X10731319Y-14218853D02*
X10750367Y-14218853D01*
X10769414Y-14228376D01*
X10778938Y-14237900D01*
X10788462Y-14256948D01*
X10797986Y-14295043D01*
X10797986Y-14342662D01*
X10788462Y-14380757D01*
X10778938Y-14399805D01*
X10769414Y-14409329D01*
X10750367Y-14418853D01*
X10731319Y-14418853D01*
X10712271Y-14409329D01*
X10702748Y-14399805D01*
X10693224Y-14380757D01*
X10683700Y-14342662D01*
X10683700Y-14295043D01*
X10693224Y-14256948D01*
X10702748Y-14237900D01*
X10712271Y-14228376D01*
X10731319Y-14218853D01*
X10874176Y-14218853D02*
X10874176Y-14256948D01*
X10950367Y-14218853D02*
X10950367Y-14256948D01*
X11245605Y-14495043D02*
X11236081Y-14485519D01*
X11217033Y-14456948D01*
X11207509Y-14437900D01*
X11197986Y-14409329D01*
X11188462Y-14361710D01*
X11188462Y-14323614D01*
X11197986Y-14275995D01*
X11207509Y-14247424D01*
X11217033Y-14228376D01*
X11236081Y-14199805D01*
X11245605Y-14190281D01*
X11350367Y-14304567D02*
X11331319Y-14295043D01*
X11321795Y-14285519D01*
X11312271Y-14266472D01*
X11312271Y-14256948D01*
X11321795Y-14237900D01*
X11331319Y-14228376D01*
X11350367Y-14218853D01*
X11388462Y-14218853D01*
X11407509Y-14228376D01*
X11417033Y-14237900D01*
X11426557Y-14256948D01*
X11426557Y-14266472D01*
X11417033Y-14285519D01*
X11407509Y-14295043D01*
X11388462Y-14304567D01*
X11350367Y-14304567D01*
X11331319Y-14314091D01*
X11321795Y-14323614D01*
X11312271Y-14342662D01*
X11312271Y-14380757D01*
X11321795Y-14399805D01*
X11331319Y-14409329D01*
X11350367Y-14418853D01*
X11388462Y-14418853D01*
X11407509Y-14409329D01*
X11417033Y-14399805D01*
X11426557Y-14380757D01*
X11426557Y-14342662D01*
X11417033Y-14323614D01*
X11407509Y-14314091D01*
X11388462Y-14304567D01*
X11540843Y-14304567D02*
X11521795Y-14295043D01*
X11512271Y-14285519D01*
X11502748Y-14266472D01*
X11502748Y-14256948D01*
X11512271Y-14237900D01*
X11521795Y-14228376D01*
X11540843Y-14218853D01*
X11578938Y-14218853D01*
X11597986Y-14228376D01*
X11607509Y-14237900D01*
X11617033Y-14256948D01*
X11617033Y-14266472D01*
X11607509Y-14285519D01*
X11597986Y-14295043D01*
X11578938Y-14304567D01*
X11540843Y-14304567D01*
X11521795Y-14314091D01*
X11512271Y-14323614D01*
X11502748Y-14342662D01*
X11502748Y-14380757D01*
X11512271Y-14399805D01*
X11521795Y-14409329D01*
X11540843Y-14418853D01*
X11578938Y-14418853D01*
X11597986Y-14409329D01*
X11607509Y-14399805D01*
X11617033Y-14380757D01*
X11617033Y-14342662D01*
X11607509Y-14323614D01*
X11597986Y-14314091D01*
X11578938Y-14304567D01*
X11855128Y-14418853D02*
X11855128Y-14218853D01*
X11940843Y-14418853D02*
X11940843Y-14314091D01*
X11931319Y-14295043D01*
X11912271Y-14285519D01*
X11883700Y-14285519D01*
X11864652Y-14295043D01*
X11855128Y-14304567D01*
X12064652Y-14418853D02*
X12045605Y-14409329D01*
X12036081Y-14399805D01*
X12026557Y-14380757D01*
X12026557Y-14323614D01*
X12036081Y-14304567D01*
X12045605Y-14295043D01*
X12064652Y-14285519D01*
X12093224Y-14285519D01*
X12112271Y-14295043D01*
X12121795Y-14304567D01*
X12131319Y-14323614D01*
X12131319Y-14380757D01*
X12121795Y-14399805D01*
X12112271Y-14409329D01*
X12093224Y-14418853D01*
X12064652Y-14418853D01*
X12245605Y-14418853D02*
X12226557Y-14409329D01*
X12217033Y-14390281D01*
X12217033Y-14218853D01*
X12397986Y-14409329D02*
X12378938Y-14418853D01*
X12340843Y-14418853D01*
X12321795Y-14409329D01*
X12312271Y-14390281D01*
X12312271Y-14314091D01*
X12321795Y-14295043D01*
X12340843Y-14285519D01*
X12378938Y-14285519D01*
X12397986Y-14295043D01*
X12407509Y-14314091D01*
X12407509Y-14333138D01*
X12312271Y-14352186D01*
X12483700Y-14409329D02*
X12502748Y-14418853D01*
X12540843Y-14418853D01*
X12559890Y-14409329D01*
X12569414Y-14390281D01*
X12569414Y-14380757D01*
X12559890Y-14361710D01*
X12540843Y-14352186D01*
X12512271Y-14352186D01*
X12493224Y-14342662D01*
X12483700Y-14323614D01*
X12483700Y-14314091D01*
X12493224Y-14295043D01*
X12512271Y-14285519D01*
X12540843Y-14285519D01*
X12559890Y-14295043D01*
X12636081Y-14495043D02*
X12645605Y-14485519D01*
X12664652Y-14456948D01*
X12674176Y-14437900D01*
X12683700Y-14409329D01*
X12693224Y-14361710D01*
X12693224Y-14323614D01*
X12683700Y-14275995D01*
X12674176Y-14247424D01*
X12664652Y-14228376D01*
X12645605Y-14199805D01*
X12636081Y-14190281D01*
D14*
X7623700Y-14542376D02*
X7623700Y-14642376D01*
X7573700Y-14592376D02*
X7673700Y-14592376D01*
D11*
X8036081Y-14682853D02*
X7921795Y-14682853D01*
X7978938Y-14682853D02*
X7978938Y-14482853D01*
X7959890Y-14511424D01*
X7940843Y-14530472D01*
X7921795Y-14539995D01*
X8121795Y-14663805D02*
X8131319Y-14673329D01*
X8121795Y-14682853D01*
X8112271Y-14673329D01*
X8121795Y-14663805D01*
X8121795Y-14682853D01*
X8255128Y-14482853D02*
X8274176Y-14482853D01*
X8293224Y-14492376D01*
X8302748Y-14501900D01*
X8312271Y-14520948D01*
X8321795Y-14559043D01*
X8321795Y-14606662D01*
X8312271Y-14644757D01*
X8302748Y-14663805D01*
X8293224Y-14673329D01*
X8274176Y-14682853D01*
X8255128Y-14682853D01*
X8236081Y-14673329D01*
X8226557Y-14663805D01*
X8217033Y-14644757D01*
X8207509Y-14606662D01*
X8207509Y-14559043D01*
X8217033Y-14520948D01*
X8226557Y-14501900D01*
X8236081Y-14492376D01*
X8255128Y-14482853D01*
X8445605Y-14482853D02*
X8464652Y-14482853D01*
X8483700Y-14492376D01*
X8493224Y-14501900D01*
X8502748Y-14520948D01*
X8512271Y-14559043D01*
X8512271Y-14606662D01*
X8502748Y-14644757D01*
X8493224Y-14663805D01*
X8483700Y-14673329D01*
X8464652Y-14682853D01*
X8445605Y-14682853D01*
X8426557Y-14673329D01*
X8417033Y-14663805D01*
X8407510Y-14644757D01*
X8397986Y-14606662D01*
X8397986Y-14559043D01*
X8407510Y-14520948D01*
X8417033Y-14501900D01*
X8426557Y-14492376D01*
X8445605Y-14482853D01*
X8636081Y-14482853D02*
X8655129Y-14482853D01*
X8674176Y-14492376D01*
X8683700Y-14501900D01*
X8693224Y-14520948D01*
X8702748Y-14559043D01*
X8702748Y-14606662D01*
X8693224Y-14644757D01*
X8683700Y-14663805D01*
X8674176Y-14673329D01*
X8655129Y-14682853D01*
X8636081Y-14682853D01*
X8617033Y-14673329D01*
X8607510Y-14663805D01*
X8597986Y-14644757D01*
X8588462Y-14606662D01*
X8588462Y-14559043D01*
X8597986Y-14520948D01*
X8607510Y-14501900D01*
X8617033Y-14492376D01*
X8636081Y-14482853D01*
X8788462Y-14682853D02*
X8788462Y-14549519D01*
X8788462Y-14568567D02*
X8797986Y-14559043D01*
X8817033Y-14549519D01*
X8845605Y-14549519D01*
X8864652Y-14559043D01*
X8874176Y-14578091D01*
X8874176Y-14682853D01*
X8874176Y-14578091D02*
X8883700Y-14559043D01*
X8902748Y-14549519D01*
X8931319Y-14549519D01*
X8950367Y-14559043D01*
X8959890Y-14578091D01*
X8959890Y-14682853D01*
X9055129Y-14682853D02*
X9055129Y-14549519D01*
X9055129Y-14568567D02*
X9064652Y-14559043D01*
X9083700Y-14549519D01*
X9112271Y-14549519D01*
X9131319Y-14559043D01*
X9140843Y-14578091D01*
X9140843Y-14682853D01*
X9140843Y-14578091D02*
X9150367Y-14559043D01*
X9169414Y-14549519D01*
X9197986Y-14549519D01*
X9217033Y-14559043D01*
X9226557Y-14578091D01*
X9226557Y-14682853D01*
X9617033Y-14473329D02*
X9445605Y-14730472D01*
X9874176Y-14482853D02*
X9893224Y-14482853D01*
X9912271Y-14492376D01*
X9921795Y-14501900D01*
X9931319Y-14520948D01*
X9940843Y-14559043D01*
X9940843Y-14606662D01*
X9931319Y-14644757D01*
X9921795Y-14663805D01*
X9912271Y-14673329D01*
X9893224Y-14682853D01*
X9874176Y-14682853D01*
X9855129Y-14673329D01*
X9845605Y-14663805D01*
X9836081Y-14644757D01*
X9826557Y-14606662D01*
X9826557Y-14559043D01*
X9836081Y-14520948D01*
X9845605Y-14501900D01*
X9855129Y-14492376D01*
X9874176Y-14482853D01*
X10026557Y-14663805D02*
X10036081Y-14673329D01*
X10026557Y-14682853D01*
X10017033Y-14673329D01*
X10026557Y-14663805D01*
X10026557Y-14682853D01*
X10159890Y-14482853D02*
X10178938Y-14482853D01*
X10197986Y-14492376D01*
X10207510Y-14501900D01*
X10217033Y-14520948D01*
X10226557Y-14559043D01*
X10226557Y-14606662D01*
X10217033Y-14644757D01*
X10207510Y-14663805D01*
X10197986Y-14673329D01*
X10178938Y-14682853D01*
X10159890Y-14682853D01*
X10140843Y-14673329D01*
X10131319Y-14663805D01*
X10121795Y-14644757D01*
X10112271Y-14606662D01*
X10112271Y-14559043D01*
X10121795Y-14520948D01*
X10131319Y-14501900D01*
X10140843Y-14492376D01*
X10159890Y-14482853D01*
X10293224Y-14482853D02*
X10417033Y-14482853D01*
X10350367Y-14559043D01*
X10378938Y-14559043D01*
X10397986Y-14568567D01*
X10407510Y-14578091D01*
X10417033Y-14597138D01*
X10417033Y-14644757D01*
X10407510Y-14663805D01*
X10397986Y-14673329D01*
X10378938Y-14682853D01*
X10321795Y-14682853D01*
X10302748Y-14673329D01*
X10293224Y-14663805D01*
X10512271Y-14682853D02*
X10550367Y-14682853D01*
X10569414Y-14673329D01*
X10578938Y-14663805D01*
X10597986Y-14635234D01*
X10607510Y-14597138D01*
X10607510Y-14520948D01*
X10597986Y-14501900D01*
X10588462Y-14492376D01*
X10569414Y-14482853D01*
X10531319Y-14482853D01*
X10512271Y-14492376D01*
X10502748Y-14501900D01*
X10493224Y-14520948D01*
X10493224Y-14568567D01*
X10502748Y-14587614D01*
X10512271Y-14597138D01*
X10531319Y-14606662D01*
X10569414Y-14606662D01*
X10588462Y-14597138D01*
X10597986Y-14587614D01*
X10607510Y-14568567D01*
X10778938Y-14549519D02*
X10778938Y-14682853D01*
X10731319Y-14473329D02*
X10683700Y-14616186D01*
X10807510Y-14616186D01*
X10874176Y-14482853D02*
X10874176Y-14520948D01*
X10950367Y-14482853D02*
X10950367Y-14520948D01*
X11245605Y-14759043D02*
X11236081Y-14749519D01*
X11217033Y-14720948D01*
X11207509Y-14701900D01*
X11197986Y-14673329D01*
X11188462Y-14625710D01*
X11188462Y-14587614D01*
X11197986Y-14539995D01*
X11207509Y-14511424D01*
X11217033Y-14492376D01*
X11236081Y-14463805D01*
X11245605Y-14454281D01*
X11359890Y-14482853D02*
X11378938Y-14482853D01*
X11397986Y-14492376D01*
X11407509Y-14501900D01*
X11417033Y-14520948D01*
X11426557Y-14559043D01*
X11426557Y-14606662D01*
X11417033Y-14644757D01*
X11407509Y-14663805D01*
X11397986Y-14673329D01*
X11378938Y-14682853D01*
X11359890Y-14682853D01*
X11340843Y-14673329D01*
X11331319Y-14663805D01*
X11321795Y-14644757D01*
X11312271Y-14606662D01*
X11312271Y-14559043D01*
X11321795Y-14520948D01*
X11331319Y-14501900D01*
X11340843Y-14492376D01*
X11359890Y-14482853D01*
X11664652Y-14682853D02*
X11664652Y-14482853D01*
X11750367Y-14682853D02*
X11750367Y-14578091D01*
X11740843Y-14559043D01*
X11721795Y-14549519D01*
X11693224Y-14549519D01*
X11674176Y-14559043D01*
X11664652Y-14568567D01*
X11874176Y-14682853D02*
X11855128Y-14673329D01*
X11845605Y-14663805D01*
X11836081Y-14644757D01*
X11836081Y-14587614D01*
X11845605Y-14568567D01*
X11855128Y-14559043D01*
X11874176Y-14549519D01*
X11902748Y-14549519D01*
X11921795Y-14559043D01*
X11931319Y-14568567D01*
X11940843Y-14587614D01*
X11940843Y-14644757D01*
X11931319Y-14663805D01*
X11921795Y-14673329D01*
X11902748Y-14682853D01*
X11874176Y-14682853D01*
X12055128Y-14682853D02*
X12036081Y-14673329D01*
X12026557Y-14654281D01*
X12026557Y-14482853D01*
X12207509Y-14673329D02*
X12188462Y-14682853D01*
X12150367Y-14682853D01*
X12131319Y-14673329D01*
X12121795Y-14654281D01*
X12121795Y-14578091D01*
X12131319Y-14559043D01*
X12150367Y-14549519D01*
X12188462Y-14549519D01*
X12207509Y-14559043D01*
X12217033Y-14578091D01*
X12217033Y-14597138D01*
X12121795Y-14616186D01*
X12293224Y-14673329D02*
X12312271Y-14682853D01*
X12350367Y-14682853D01*
X12369414Y-14673329D01*
X12378938Y-14654281D01*
X12378938Y-14644757D01*
X12369414Y-14625710D01*
X12350367Y-14616186D01*
X12321795Y-14616186D01*
X12302748Y-14606662D01*
X12293224Y-14587614D01*
X12293224Y-14578091D01*
X12302748Y-14559043D01*
X12321795Y-14549519D01*
X12350367Y-14549519D01*
X12369414Y-14559043D01*
X12617033Y-14606662D02*
X12769414Y-14606662D01*
X12693224Y-14682853D02*
X12693224Y-14530472D01*
X13045605Y-14568567D02*
X13026557Y-14559043D01*
X13017033Y-14549519D01*
X13007509Y-14530472D01*
X13007509Y-14520948D01*
X13017033Y-14501900D01*
X13026557Y-14492376D01*
X13045605Y-14482853D01*
X13083700Y-14482853D01*
X13102748Y-14492376D01*
X13112271Y-14501900D01*
X13121795Y-14520948D01*
X13121795Y-14530472D01*
X13112271Y-14549519D01*
X13102748Y-14559043D01*
X13083700Y-14568567D01*
X13045605Y-14568567D01*
X13026557Y-14578091D01*
X13017033Y-14587614D01*
X13007509Y-14606662D01*
X13007509Y-14644757D01*
X13017033Y-14663805D01*
X13026557Y-14673329D01*
X13045605Y-14682853D01*
X13083700Y-14682853D01*
X13102748Y-14673329D01*
X13112271Y-14663805D01*
X13121795Y-14644757D01*
X13121795Y-14606662D01*
X13112271Y-14587614D01*
X13102748Y-14578091D01*
X13083700Y-14568567D01*
X13350367Y-14673329D02*
X13369414Y-14682853D01*
X13407509Y-14682853D01*
X13426557Y-14673329D01*
X13436081Y-14654281D01*
X13436081Y-14644757D01*
X13426557Y-14625710D01*
X13407509Y-14616186D01*
X13378938Y-14616186D01*
X13359890Y-14606662D01*
X13350367Y-14587614D01*
X13350367Y-14578091D01*
X13359890Y-14559043D01*
X13378938Y-14549519D01*
X13407509Y-14549519D01*
X13426557Y-14559043D01*
X13550367Y-14682853D02*
X13531319Y-14673329D01*
X13521795Y-14654281D01*
X13521795Y-14482853D01*
X13655128Y-14682853D02*
X13636081Y-14673329D01*
X13626557Y-14663805D01*
X13617033Y-14644757D01*
X13617033Y-14587614D01*
X13626557Y-14568567D01*
X13636081Y-14559043D01*
X13655128Y-14549519D01*
X13683700Y-14549519D01*
X13702748Y-14559043D01*
X13712271Y-14568567D01*
X13721795Y-14587614D01*
X13721795Y-14644757D01*
X13712271Y-14663805D01*
X13702748Y-14673329D01*
X13683700Y-14682853D01*
X13655128Y-14682853D01*
X13778938Y-14549519D02*
X13855128Y-14549519D01*
X13807509Y-14482853D02*
X13807509Y-14654281D01*
X13817033Y-14673329D01*
X13836081Y-14682853D01*
X13855128Y-14682853D01*
X13912271Y-14673329D02*
X13931319Y-14682853D01*
X13969414Y-14682853D01*
X13988462Y-14673329D01*
X13997986Y-14654281D01*
X13997986Y-14644757D01*
X13988462Y-14625710D01*
X13969414Y-14616186D01*
X13940843Y-14616186D01*
X13921795Y-14606662D01*
X13912271Y-14587614D01*
X13912271Y-14578091D01*
X13921795Y-14559043D01*
X13940843Y-14549519D01*
X13969414Y-14549519D01*
X13988462Y-14559043D01*
X14064652Y-14759043D02*
X14074176Y-14749519D01*
X14093224Y-14720948D01*
X14102748Y-14701900D01*
X14112271Y-14673329D01*
X14121795Y-14625710D01*
X14121795Y-14587614D01*
X14112271Y-14539995D01*
X14102748Y-14511424D01*
X14093224Y-14492376D01*
X14074176Y-14463805D01*
X14064652Y-14454281D01*
D15*
X7654662Y-14902339D02*
X7654662Y-14810414D01*
X7562738Y-14810414D01*
X7562738Y-14902339D01*
X7654662Y-14902339D01*
D11*
X8036081Y-14946853D02*
X7921795Y-14946853D01*
X7978938Y-14946853D02*
X7978938Y-14746853D01*
X7959890Y-14775424D01*
X7940843Y-14794472D01*
X7921795Y-14803995D01*
X8121795Y-14927805D02*
X8131319Y-14937329D01*
X8121795Y-14946853D01*
X8112271Y-14937329D01*
X8121795Y-14927805D01*
X8121795Y-14946853D01*
X8197986Y-14746853D02*
X8321795Y-14746853D01*
X8255128Y-14823043D01*
X8283700Y-14823043D01*
X8302748Y-14832567D01*
X8312271Y-14842091D01*
X8321795Y-14861138D01*
X8321795Y-14908757D01*
X8312271Y-14927805D01*
X8302748Y-14937329D01*
X8283700Y-14946853D01*
X8226557Y-14946853D01*
X8207509Y-14937329D01*
X8197986Y-14927805D01*
X8445605Y-14746853D02*
X8464652Y-14746853D01*
X8483700Y-14756376D01*
X8493224Y-14765900D01*
X8502748Y-14784948D01*
X8512271Y-14823043D01*
X8512271Y-14870662D01*
X8502748Y-14908757D01*
X8493224Y-14927805D01*
X8483700Y-14937329D01*
X8464652Y-14946853D01*
X8445605Y-14946853D01*
X8426557Y-14937329D01*
X8417033Y-14927805D01*
X8407510Y-14908757D01*
X8397986Y-14870662D01*
X8397986Y-14823043D01*
X8407510Y-14784948D01*
X8417033Y-14765900D01*
X8426557Y-14756376D01*
X8445605Y-14746853D01*
X8636081Y-14746853D02*
X8655129Y-14746853D01*
X8674176Y-14756376D01*
X8683700Y-14765900D01*
X8693224Y-14784948D01*
X8702748Y-14823043D01*
X8702748Y-14870662D01*
X8693224Y-14908757D01*
X8683700Y-14927805D01*
X8674176Y-14937329D01*
X8655129Y-14946853D01*
X8636081Y-14946853D01*
X8617033Y-14937329D01*
X8607510Y-14927805D01*
X8597986Y-14908757D01*
X8588462Y-14870662D01*
X8588462Y-14823043D01*
X8597986Y-14784948D01*
X8607510Y-14765900D01*
X8617033Y-14756376D01*
X8636081Y-14746853D01*
X8788462Y-14946853D02*
X8788462Y-14813519D01*
X8788462Y-14832567D02*
X8797986Y-14823043D01*
X8817033Y-14813519D01*
X8845605Y-14813519D01*
X8864652Y-14823043D01*
X8874176Y-14842091D01*
X8874176Y-14946853D01*
X8874176Y-14842091D02*
X8883700Y-14823043D01*
X8902748Y-14813519D01*
X8931319Y-14813519D01*
X8950367Y-14823043D01*
X8959890Y-14842091D01*
X8959890Y-14946853D01*
X9055129Y-14946853D02*
X9055129Y-14813519D01*
X9055129Y-14832567D02*
X9064652Y-14823043D01*
X9083700Y-14813519D01*
X9112271Y-14813519D01*
X9131319Y-14823043D01*
X9140843Y-14842091D01*
X9140843Y-14946853D01*
X9140843Y-14842091D02*
X9150367Y-14823043D01*
X9169414Y-14813519D01*
X9197986Y-14813519D01*
X9217033Y-14823043D01*
X9226557Y-14842091D01*
X9226557Y-14946853D01*
X9617033Y-14737329D02*
X9445605Y-14994472D01*
X9874176Y-14746853D02*
X9893224Y-14746853D01*
X9912271Y-14756376D01*
X9921795Y-14765900D01*
X9931319Y-14784948D01*
X9940843Y-14823043D01*
X9940843Y-14870662D01*
X9931319Y-14908757D01*
X9921795Y-14927805D01*
X9912271Y-14937329D01*
X9893224Y-14946853D01*
X9874176Y-14946853D01*
X9855129Y-14937329D01*
X9845605Y-14927805D01*
X9836081Y-14908757D01*
X9826557Y-14870662D01*
X9826557Y-14823043D01*
X9836081Y-14784948D01*
X9845605Y-14765900D01*
X9855129Y-14756376D01*
X9874176Y-14746853D01*
X10026557Y-14927805D02*
X10036081Y-14937329D01*
X10026557Y-14946853D01*
X10017033Y-14937329D01*
X10026557Y-14927805D01*
X10026557Y-14946853D01*
X10159890Y-14746853D02*
X10178938Y-14746853D01*
X10197986Y-14756376D01*
X10207510Y-14765900D01*
X10217033Y-14784948D01*
X10226557Y-14823043D01*
X10226557Y-14870662D01*
X10217033Y-14908757D01*
X10207510Y-14927805D01*
X10197986Y-14937329D01*
X10178938Y-14946853D01*
X10159890Y-14946853D01*
X10140843Y-14937329D01*
X10131319Y-14927805D01*
X10121795Y-14908757D01*
X10112271Y-14870662D01*
X10112271Y-14823043D01*
X10121795Y-14784948D01*
X10131319Y-14765900D01*
X10140843Y-14756376D01*
X10159890Y-14746853D01*
X10407510Y-14746853D02*
X10312271Y-14746853D01*
X10302748Y-14842091D01*
X10312271Y-14832567D01*
X10331319Y-14823043D01*
X10378938Y-14823043D01*
X10397986Y-14832567D01*
X10407510Y-14842091D01*
X10417033Y-14861138D01*
X10417033Y-14908757D01*
X10407510Y-14927805D01*
X10397986Y-14937329D01*
X10378938Y-14946853D01*
X10331319Y-14946853D01*
X10312271Y-14937329D01*
X10302748Y-14927805D01*
X10607510Y-14946853D02*
X10493224Y-14946853D01*
X10550367Y-14946853D02*
X10550367Y-14746853D01*
X10531319Y-14775424D01*
X10512271Y-14794472D01*
X10493224Y-14803995D01*
X10683700Y-14765900D02*
X10693224Y-14756376D01*
X10712271Y-14746853D01*
X10759890Y-14746853D01*
X10778938Y-14756376D01*
X10788462Y-14765900D01*
X10797986Y-14784948D01*
X10797986Y-14803995D01*
X10788462Y-14832567D01*
X10674176Y-14946853D01*
X10797986Y-14946853D01*
X10874176Y-14746853D02*
X10874176Y-14784948D01*
X10950367Y-14746853D02*
X10950367Y-14784948D01*
X11245605Y-15023043D02*
X11236081Y-15013519D01*
X11217033Y-14984948D01*
X11207509Y-14965900D01*
X11197986Y-14937329D01*
X11188462Y-14889710D01*
X11188462Y-14851614D01*
X11197986Y-14803995D01*
X11207509Y-14775424D01*
X11217033Y-14756376D01*
X11236081Y-14727805D01*
X11245605Y-14718281D01*
X11312271Y-14765900D02*
X11321795Y-14756376D01*
X11340843Y-14746853D01*
X11388462Y-14746853D01*
X11407509Y-14756376D01*
X11417033Y-14765900D01*
X11426557Y-14784948D01*
X11426557Y-14803995D01*
X11417033Y-14832567D01*
X11302748Y-14946853D01*
X11426557Y-14946853D01*
X11664652Y-14946853D02*
X11664652Y-14746853D01*
X11750367Y-14946853D02*
X11750367Y-14842091D01*
X11740843Y-14823043D01*
X11721795Y-14813519D01*
X11693224Y-14813519D01*
X11674176Y-14823043D01*
X11664652Y-14832567D01*
X11874176Y-14946853D02*
X11855128Y-14937329D01*
X11845605Y-14927805D01*
X11836081Y-14908757D01*
X11836081Y-14851614D01*
X11845605Y-14832567D01*
X11855128Y-14823043D01*
X11874176Y-14813519D01*
X11902748Y-14813519D01*
X11921795Y-14823043D01*
X11931319Y-14832567D01*
X11940843Y-14851614D01*
X11940843Y-14908757D01*
X11931319Y-14927805D01*
X11921795Y-14937329D01*
X11902748Y-14946853D01*
X11874176Y-14946853D01*
X12055128Y-14946853D02*
X12036081Y-14937329D01*
X12026557Y-14918281D01*
X12026557Y-14746853D01*
X12207509Y-14937329D02*
X12188462Y-14946853D01*
X12150367Y-14946853D01*
X12131319Y-14937329D01*
X12121795Y-14918281D01*
X12121795Y-14842091D01*
X12131319Y-14823043D01*
X12150367Y-14813519D01*
X12188462Y-14813519D01*
X12207509Y-14823043D01*
X12217033Y-14842091D01*
X12217033Y-14861138D01*
X12121795Y-14880186D01*
X12293224Y-14937329D02*
X12312271Y-14946853D01*
X12350367Y-14946853D01*
X12369414Y-14937329D01*
X12378938Y-14918281D01*
X12378938Y-14908757D01*
X12369414Y-14889710D01*
X12350367Y-14880186D01*
X12321795Y-14880186D01*
X12302748Y-14870662D01*
X12293224Y-14851614D01*
X12293224Y-14842091D01*
X12302748Y-14823043D01*
X12321795Y-14813519D01*
X12350367Y-14813519D01*
X12369414Y-14823043D01*
X12445605Y-15023043D02*
X12455128Y-15013519D01*
X12474176Y-14984948D01*
X12483700Y-14965900D01*
X12493224Y-14937329D01*
X12502748Y-14889710D01*
X12502748Y-14851614D01*
X12493224Y-14803995D01*
X12483700Y-14775424D01*
X12474176Y-14756376D01*
X12455128Y-14727805D01*
X12445605Y-14718281D01*
X7573700Y-15220376D02*
X7673700Y-15120376D01*
X7573700Y-15020376D01*
X7473700Y-15120376D01*
X7573700Y-15220376D01*
X7921795Y-15029900D02*
X7931319Y-15020376D01*
X7950367Y-15010853D01*
X7997986Y-15010853D01*
X8017033Y-15020376D01*
X8026557Y-15029900D01*
X8036081Y-15048948D01*
X8036081Y-15067995D01*
X8026557Y-15096567D01*
X7912271Y-15210853D01*
X8036081Y-15210853D01*
X8121795Y-15191805D02*
X8131319Y-15201329D01*
X8121795Y-15210853D01*
X8112271Y-15201329D01*
X8121795Y-15191805D01*
X8121795Y-15210853D01*
X8207509Y-15029900D02*
X8217033Y-15020376D01*
X8236081Y-15010853D01*
X8283700Y-15010853D01*
X8302748Y-15020376D01*
X8312271Y-15029900D01*
X8321795Y-15048948D01*
X8321795Y-15067995D01*
X8312271Y-15096567D01*
X8197986Y-15210853D01*
X8321795Y-15210853D01*
X8445605Y-15010853D02*
X8464652Y-15010853D01*
X8483700Y-15020376D01*
X8493224Y-15029900D01*
X8502748Y-15048948D01*
X8512271Y-15087043D01*
X8512271Y-15134662D01*
X8502748Y-15172757D01*
X8493224Y-15191805D01*
X8483700Y-15201329D01*
X8464652Y-15210853D01*
X8445605Y-15210853D01*
X8426557Y-15201329D01*
X8417033Y-15191805D01*
X8407510Y-15172757D01*
X8397986Y-15134662D01*
X8397986Y-15087043D01*
X8407510Y-15048948D01*
X8417033Y-15029900D01*
X8426557Y-15020376D01*
X8445605Y-15010853D01*
X8636081Y-15010853D02*
X8655129Y-15010853D01*
X8674176Y-15020376D01*
X8683700Y-15029900D01*
X8693224Y-15048948D01*
X8702748Y-15087043D01*
X8702748Y-15134662D01*
X8693224Y-15172757D01*
X8683700Y-15191805D01*
X8674176Y-15201329D01*
X8655129Y-15210853D01*
X8636081Y-15210853D01*
X8617033Y-15201329D01*
X8607510Y-15191805D01*
X8597986Y-15172757D01*
X8588462Y-15134662D01*
X8588462Y-15087043D01*
X8597986Y-15048948D01*
X8607510Y-15029900D01*
X8617033Y-15020376D01*
X8636081Y-15010853D01*
X8788462Y-15210853D02*
X8788462Y-15077519D01*
X8788462Y-15096567D02*
X8797986Y-15087043D01*
X8817033Y-15077519D01*
X8845605Y-15077519D01*
X8864652Y-15087043D01*
X8874176Y-15106091D01*
X8874176Y-15210853D01*
X8874176Y-15106091D02*
X8883700Y-15087043D01*
X8902748Y-15077519D01*
X8931319Y-15077519D01*
X8950367Y-15087043D01*
X8959890Y-15106091D01*
X8959890Y-15210853D01*
X9055129Y-15210853D02*
X9055129Y-15077519D01*
X9055129Y-15096567D02*
X9064652Y-15087043D01*
X9083700Y-15077519D01*
X9112271Y-15077519D01*
X9131319Y-15087043D01*
X9140843Y-15106091D01*
X9140843Y-15210853D01*
X9140843Y-15106091D02*
X9150367Y-15087043D01*
X9169414Y-15077519D01*
X9197986Y-15077519D01*
X9217033Y-15087043D01*
X9226557Y-15106091D01*
X9226557Y-15210853D01*
X9617033Y-15001329D02*
X9445605Y-15258472D01*
X9874176Y-15010853D02*
X9893224Y-15010853D01*
X9912271Y-15020376D01*
X9921795Y-15029900D01*
X9931319Y-15048948D01*
X9940843Y-15087043D01*
X9940843Y-15134662D01*
X9931319Y-15172757D01*
X9921795Y-15191805D01*
X9912271Y-15201329D01*
X9893224Y-15210853D01*
X9874176Y-15210853D01*
X9855129Y-15201329D01*
X9845605Y-15191805D01*
X9836081Y-15172757D01*
X9826557Y-15134662D01*
X9826557Y-15087043D01*
X9836081Y-15048948D01*
X9845605Y-15029900D01*
X9855129Y-15020376D01*
X9874176Y-15010853D01*
X10026557Y-15191805D02*
X10036081Y-15201329D01*
X10026557Y-15210853D01*
X10017033Y-15201329D01*
X10026557Y-15191805D01*
X10026557Y-15210853D01*
X10159890Y-15010853D02*
X10178938Y-15010853D01*
X10197986Y-15020376D01*
X10207510Y-15029900D01*
X10217033Y-15048948D01*
X10226557Y-15087043D01*
X10226557Y-15134662D01*
X10217033Y-15172757D01*
X10207510Y-15191805D01*
X10197986Y-15201329D01*
X10178938Y-15210853D01*
X10159890Y-15210853D01*
X10140843Y-15201329D01*
X10131319Y-15191805D01*
X10121795Y-15172757D01*
X10112271Y-15134662D01*
X10112271Y-15087043D01*
X10121795Y-15048948D01*
X10131319Y-15029900D01*
X10140843Y-15020376D01*
X10159890Y-15010853D01*
X10340843Y-15096567D02*
X10321795Y-15087043D01*
X10312271Y-15077519D01*
X10302748Y-15058472D01*
X10302748Y-15048948D01*
X10312271Y-15029900D01*
X10321795Y-15020376D01*
X10340843Y-15010853D01*
X10378938Y-15010853D01*
X10397986Y-15020376D01*
X10407510Y-15029900D01*
X10417033Y-15048948D01*
X10417033Y-15058472D01*
X10407510Y-15077519D01*
X10397986Y-15087043D01*
X10378938Y-15096567D01*
X10340843Y-15096567D01*
X10321795Y-15106091D01*
X10312271Y-15115614D01*
X10302748Y-15134662D01*
X10302748Y-15172757D01*
X10312271Y-15191805D01*
X10321795Y-15201329D01*
X10340843Y-15210853D01*
X10378938Y-15210853D01*
X10397986Y-15201329D01*
X10407510Y-15191805D01*
X10417033Y-15172757D01*
X10417033Y-15134662D01*
X10407510Y-15115614D01*
X10397986Y-15106091D01*
X10378938Y-15096567D01*
X10588462Y-15010853D02*
X10550367Y-15010853D01*
X10531319Y-15020376D01*
X10521795Y-15029900D01*
X10502748Y-15058472D01*
X10493224Y-15096567D01*
X10493224Y-15172757D01*
X10502748Y-15191805D01*
X10512271Y-15201329D01*
X10531319Y-15210853D01*
X10569414Y-15210853D01*
X10588462Y-15201329D01*
X10597986Y-15191805D01*
X10607510Y-15172757D01*
X10607510Y-15125138D01*
X10597986Y-15106091D01*
X10588462Y-15096567D01*
X10569414Y-15087043D01*
X10531319Y-15087043D01*
X10512271Y-15096567D01*
X10502748Y-15106091D01*
X10493224Y-15125138D01*
X10778938Y-15010853D02*
X10740843Y-15010853D01*
X10721795Y-15020376D01*
X10712271Y-15029900D01*
X10693224Y-15058472D01*
X10683700Y-15096567D01*
X10683700Y-15172757D01*
X10693224Y-15191805D01*
X10702748Y-15201329D01*
X10721795Y-15210853D01*
X10759890Y-15210853D01*
X10778938Y-15201329D01*
X10788462Y-15191805D01*
X10797986Y-15172757D01*
X10797986Y-15125138D01*
X10788462Y-15106091D01*
X10778938Y-15096567D01*
X10759890Y-15087043D01*
X10721795Y-15087043D01*
X10702748Y-15096567D01*
X10693224Y-15106091D01*
X10683700Y-15125138D01*
X10874176Y-15010853D02*
X10874176Y-15048948D01*
X10950367Y-15010853D02*
X10950367Y-15048948D01*
X11245605Y-15287043D02*
X11236081Y-15277519D01*
X11217033Y-15248948D01*
X11207509Y-15229900D01*
X11197986Y-15201329D01*
X11188462Y-15153710D01*
X11188462Y-15115614D01*
X11197986Y-15067995D01*
X11207509Y-15039424D01*
X11217033Y-15020376D01*
X11236081Y-14991805D01*
X11245605Y-14982281D01*
X11302748Y-15010853D02*
X11436081Y-15010853D01*
X11350367Y-15210853D01*
X11664652Y-15210853D02*
X11664652Y-15010853D01*
X11750367Y-15210853D02*
X11750367Y-15106091D01*
X11740843Y-15087043D01*
X11721795Y-15077519D01*
X11693224Y-15077519D01*
X11674176Y-15087043D01*
X11664652Y-15096567D01*
X11874176Y-15210853D02*
X11855128Y-15201329D01*
X11845605Y-15191805D01*
X11836081Y-15172757D01*
X11836081Y-15115614D01*
X11845605Y-15096567D01*
X11855128Y-15087043D01*
X11874176Y-15077519D01*
X11902748Y-15077519D01*
X11921795Y-15087043D01*
X11931319Y-15096567D01*
X11940843Y-15115614D01*
X11940843Y-15172757D01*
X11931319Y-15191805D01*
X11921795Y-15201329D01*
X11902748Y-15210853D01*
X11874176Y-15210853D01*
X12055128Y-15210853D02*
X12036081Y-15201329D01*
X12026557Y-15182281D01*
X12026557Y-15010853D01*
X12207509Y-15201329D02*
X12188462Y-15210853D01*
X12150367Y-15210853D01*
X12131319Y-15201329D01*
X12121795Y-15182281D01*
X12121795Y-15106091D01*
X12131319Y-15087043D01*
X12150367Y-15077519D01*
X12188462Y-15077519D01*
X12207509Y-15087043D01*
X12217033Y-15106091D01*
X12217033Y-15125138D01*
X12121795Y-15144186D01*
X12293224Y-15201329D02*
X12312271Y-15210853D01*
X12350367Y-15210853D01*
X12369414Y-15201329D01*
X12378938Y-15182281D01*
X12378938Y-15172757D01*
X12369414Y-15153710D01*
X12350367Y-15144186D01*
X12321795Y-15144186D01*
X12302748Y-15134662D01*
X12293224Y-15115614D01*
X12293224Y-15106091D01*
X12302748Y-15087043D01*
X12321795Y-15077519D01*
X12350367Y-15077519D01*
X12369414Y-15087043D01*
X12445605Y-15287043D02*
X12455128Y-15277519D01*
X12474176Y-15248948D01*
X12483700Y-15229900D01*
X12493224Y-15201329D01*
X12502748Y-15153710D01*
X12502748Y-15115614D01*
X12493224Y-15067995D01*
X12483700Y-15039424D01*
X12474176Y-15020376D01*
X12455128Y-14991805D01*
X12445605Y-14982281D01*
M02*
