M48
INCH,TZ
T1C0.0157
T2C0.0320
T3C0.0394
T4C0.0512
T5C0.0866
%
G90
G05
T1
X32533Y-30059
X32533Y-36752
X32533Y-43445
X35300Y-33250
X36320Y-36960
X36960Y-38820
X37081Y-29193
X37081Y-35886
X37081Y-42579
X37240Y-36920
X39620Y-25335
X39620Y-32028
X39620Y-38720
X43760Y-20620
X43820Y-34100
X44000Y-27640
X44167Y-24469
X44167Y-31161
X44167Y-37854
X46646Y-37927
X46707Y-22972
X46707Y-29665
X46707Y-36358
X47940Y-25760
X49502Y-43008
X50820Y-31840
X50940Y-18240
X50980Y-25060
X51254Y-22106
X51254Y-28799
X51254Y-35492
X53793Y-25579
X53793Y-32272
X53793Y-38967
X54049Y-42142
X54540Y-28640
X57889Y-43235
X57960Y-39760
X58260Y-42420
X58280Y-21040
X58320Y-34280
X58341Y-24713
X58341Y-31406
X58341Y-38100
X60880Y-26516
X60880Y-33209
X60880Y-39902
X61910Y-45390
X62505Y-43575
X64650Y-35500
X65400Y-21860
X65400Y-29080
X65427Y-25650
X65427Y-32343
X65427Y-39035
X65681Y-41140
X65840Y-27820
X66100Y-22250
X66130Y-41134
X67380Y-44480
X67850Y-33200
X68300Y-22950
X68650Y-21600
X68650Y-22400
X68650Y-37500
X68750Y-31200
X68750Y-32950
X68845Y-45195
X69023Y-28177
X69023Y-32473
X69114Y-43208
X69127Y-25677
X69273Y-27177
X69573Y-26123
X69850Y-32750
X70000Y-27177
X70000Y-28177
X70000Y-29177
X70000Y-30177
X70000Y-31177
X70000Y-32177
X70150Y-23300
X70500Y-33050
X70800Y-27660
X70800Y-28660
X70800Y-29660
X70800Y-30660
X70850Y-31660
X70850Y-32660
X70900Y-33650
X71573Y-24677
X71650Y-23850
X71700Y-21600
X71700Y-22400
X72060Y-32100
X72300Y-35900
X73000Y-35150
T2
X32320Y-31980
X32320Y-38680
X32360Y-25320
X35320Y-31980
X35320Y-38680
X35360Y-25320
X39400Y-27300
X39440Y-33980
X39480Y-20580
X42400Y-27300
X42440Y-33980
X42480Y-20580
X46520Y-24940
X46520Y-31620
X46560Y-18200
X49520Y-24940
X49520Y-31620
X49560Y-18200
X51240Y-46880
X53600Y-27520
X53620Y-20980
X53640Y-34240
X54240Y-46880
X56600Y-27520
X56620Y-20980
X56640Y-34240
X58596Y-47431
X60700Y-21820
X60740Y-35180
X60820Y-28540
X61494Y-48207
X63700Y-21820
X63740Y-35180
X63820Y-28540
X66780Y-23177
X66780Y-24177
X66780Y-25177
X66780Y-26177
X66780Y-27177
X66780Y-28177
X66780Y-29177
X66780Y-30177
X66780Y-31177
X66780Y-32177
X66780Y-33177
X66780Y-34177
X67302Y-22677
X67302Y-23677
X67302Y-24677
X67302Y-25677
X67302Y-26677
X67302Y-27677
X67302Y-28677
X67302Y-29677
X67302Y-30677
X67302Y-31677
X67302Y-32677
X67302Y-33677
X68476Y-35673
X69476Y-35673
X70100Y-49289
X70476Y-35673
X71476Y-35673
X71600Y-46691
X72780Y-23177
X72780Y-24177
X72780Y-25177
X72780Y-26177
X72780Y-27177
X72780Y-28177
X72780Y-29177
X72780Y-30177
X72780Y-31177
X72780Y-32177
X72780Y-33177
X72780Y-34177
X73294Y-22677
X73294Y-23677
X73294Y-24677
X73294Y-25677
X73294Y-26677
X73294Y-27677
X73294Y-28677
X73294Y-29677
X73294Y-30677
X73294Y-31677
X73294Y-32677
X73294Y-33677
T3
X66950Y-35450
X66950Y-36450
T4
X70670Y-36950
X73230Y-36950
T5
X37402Y-26300
X37402Y-33000
X48800Y-41000
X58650Y-27500
X65750Y-43450
X67450Y-38150
X73000Y-41900
T3
G00X69453Y-38823
M15
G01X69256Y-38823
M16
G05
G00X69453Y-39788
M15
G01X69256Y-39788
M16
G05
G00X70043Y-38134
M15
G01X69846Y-38134
M16
G05
G00X70043Y-40477
M15
G01X69846Y-40477
M16
G05
G00X71618Y-38134
M15
G01X71421Y-38134
M16
G05
G00X71618Y-40477
M15
G01X71421Y-40477
M16
G05
G00X72799Y-38134
M15
G01X72602Y-38134
M16
G05
G00X72799Y-40477
M15
G01X72602Y-40477
M16
G05
T0
M30
