M48
INCH,TZ
T1C0.0354
T2C0.0390
T3C0.0472
T4C0.0670
T5C0.1181
T6C0.1350
%
G90
G05
T1
X69559Y-22000
X70741Y-22000
T2
X31768Y-26063
X31768Y-32756
X31768Y-39449
X35878Y-26063
X35878Y-32756
X35878Y-39449
X38854Y-21339
X38854Y-28031
X38854Y-34724
X42965Y-21339
X42965Y-28031
X42965Y-34724
X45941Y-18976
X45941Y-25669
X45941Y-32362
X50051Y-18976
X50051Y-25669
X50051Y-32362
X50705Y-46138
X53028Y-21583
X53028Y-28276
X53028Y-34970
X54815Y-46138
X57138Y-21583
X57138Y-28276
X57138Y-34970
X58240Y-46569
X60114Y-22520
X60114Y-29213
X60114Y-35906
X62211Y-47633
X64224Y-22520
X64224Y-29213
X64224Y-35906
X69168Y-49374
X71223Y-45815
T3
X70654Y-38961
X70654Y-39650
X73409Y-38961
X73409Y-39650
T4
X31657Y-27717
X31657Y-34409
X31657Y-41102
X35988Y-27717
X35988Y-34409
X35988Y-41102
X38744Y-22992
X38744Y-29685
X38744Y-36378
X43075Y-22992
X43075Y-29685
X43075Y-36378
X45831Y-20630
X45831Y-27323
X45831Y-34016
X50161Y-20630
X50161Y-27323
X50161Y-34016
X50594Y-44484
X52917Y-23236
X52917Y-29929
X52917Y-36624
X54925Y-44484
X57248Y-23236
X57248Y-29929
X57248Y-36624
X58562Y-44944
X60004Y-24173
X60004Y-30866
X60004Y-37559
X62745Y-46064
X64335Y-24173
X64335Y-30866
X64335Y-37559
X67681Y-48643
X69846Y-44892
T5
X31854Y-29193
X31854Y-35886
X31854Y-42579
X33823Y-30059
X33823Y-36752
X33823Y-43445
X35791Y-29193
X35791Y-35886
X35791Y-42579
X38941Y-24469
X38941Y-31161
X38941Y-37854
X40909Y-25335
X40909Y-32028
X40909Y-38720
X42878Y-24469
X42878Y-31161
X42878Y-37854
X46028Y-22106
X46028Y-28799
X46028Y-35492
X47996Y-22972
X47996Y-29665
X47996Y-36358
X49965Y-22106
X49965Y-28799
X49965Y-35492
X50791Y-43008
X52760Y-42142
X53114Y-24713
X53114Y-31406
X53114Y-38100
X54728Y-43008
X55083Y-25579
X55083Y-32272
X55083Y-38967
X57051Y-24713
X57051Y-31406
X57051Y-38100
X59134Y-43568
X60201Y-25650
X60201Y-32343
X60201Y-39035
X61260Y-43241
X62169Y-26516
X62169Y-33209
X62169Y-39902
X62937Y-44587
X64138Y-25650
X64138Y-32343
X64138Y-39035
X66501Y-47734
X66735Y-45596
X68469Y-44325
T6
X33823Y-27717
X33823Y-34409
X33823Y-41102
X40909Y-22992
X40909Y-29685
X40909Y-36378
X47996Y-20630
X47996Y-27323
X47996Y-34016
X52760Y-44484
X55083Y-23236
X55083Y-29929
X55083Y-36624
X60654Y-45504
X62169Y-24173
X62169Y-30866
X62169Y-37559
X68764Y-46768
T0
M30
