G04 #@! TF.GenerationSoftware,KiCad,Pcbnew,(5.99.0-11177-g6c67dfa032)*
G04 #@! TF.CreationDate,2021-08-29T13:14:20+03:00*
G04 #@! TF.ProjectId,chocofi,63686f63-6f66-4692-9e6b-696361645f70,2.1*
G04 #@! TF.SameCoordinates,Original*
G04 #@! TF.FileFunction,Legend,Bot*
G04 #@! TF.FilePolarity,Positive*
%FSLAX46Y46*%
G04 Gerber Fmt 4.6, Leading zero omitted, Abs format (unit mm)*
G04 Created by KiCad (PCBNEW (5.99.0-11177-g6c67dfa032)) date 2021-08-29 13:14:20*
%MOMM*%
%LPD*%
G01*
G04 APERTURE LIST*
G04 Aperture macros list*
%AMRoundRect*
0 Rectangle with rounded corners*
0 $1 Rounding radius*
0 $2 $3 $4 $5 $6 $7 $8 $9 X,Y pos of 4 corners*
0 Add a 4 corners polygon primitive as box body*
4,1,4,$2,$3,$4,$5,$6,$7,$8,$9,$2,$3,0*
0 Add four circle primitives for the rounded corners*
1,1,$1+$1,$2,$3*
1,1,$1+$1,$4,$5*
1,1,$1+$1,$6,$7*
1,1,$1+$1,$8,$9*
0 Add four rect primitives between the rounded corners*
20,1,$1+$1,$2,$3,$4,$5,0*
20,1,$1+$1,$4,$5,$6,$7,0*
20,1,$1+$1,$6,$7,$8,$9,0*
20,1,$1+$1,$8,$9,$2,$3,0*%
%AMFreePoly0*
4,1,22,0.216777,1.480194,0.271421,1.441421,1.441421,0.271421,1.488777,0.196056,1.500000,0.130000,1.500000,-1.300000,1.480194,-1.386777,1.424698,-1.456366,1.344504,-1.494986,1.300000,-1.500000,-1.300000,-1.500000,-1.386777,-1.480194,-1.456366,-1.424698,-1.494986,-1.344504,-1.500000,-1.300000,-1.500000,1.300000,-1.480194,1.386777,-1.424698,1.456366,-1.344504,1.494986,-1.300000,1.500000,
0.130000,1.500000,0.216777,1.480194,0.216777,1.480194,$1*%
G04 Aperture macros list end*
%ADD10C,0.300000*%
%ADD11C,0.150000*%
%ADD12C,0.125000*%
%ADD13RoundRect,0.200000X-0.698500X-0.698500X0.698500X-0.698500X0.698500X0.698500X-0.698500X0.698500X0*%
%ADD14RoundRect,0.200000X-0.650000X-0.475000X0.650000X-0.475000X0.650000X0.475000X-0.650000X0.475000X0*%
%ADD15C,1.797000*%
%ADD16RoundRect,0.200000X-0.750791X-0.290582X0.504913X-0.627047X0.750791X0.290582X-0.504913X0.627047X0*%
%ADD17RoundRect,0.200000X-0.855484X-0.493914X0.493914X-0.855484X0.855484X0.493914X-0.493914X0.855484X0*%
%ADD18RoundRect,0.200000X0.255669X-0.954169X0.954169X0.255669X-0.255669X0.954169X-0.954169X-0.255669X0*%
%ADD19RoundRect,0.200000X0.086362X-0.800417X0.736362X0.325417X-0.086362X0.800417X-0.736362X-0.325417X0*%
%ADD20C,1.600000*%
%ADD21O,2.900000X2.100000*%
%ADD22C,2.101800*%
%ADD23C,3.829000*%
%ADD24C,3.400000*%
%ADD25C,1.390600*%
%ADD26FreePoly0,0.000000*%
%ADD27RoundRect,0.200000X-1.300000X-1.300000X1.300000X-1.300000X1.300000X1.300000X-1.300000X1.300000X0*%
%ADD28FreePoly0,180.000000*%
%ADD29RoundRect,0.200000X1.300000X1.300000X-1.300000X1.300000X-1.300000X-1.300000X1.300000X-1.300000X0*%
%ADD30FreePoly0,165.000000*%
%ADD31RoundRect,0.200000X1.592168X0.919239X-0.919239X1.592168X-1.592168X-0.919239X0.919239X-1.592168X0*%
%ADD32FreePoly0,240.000000*%
%ADD33RoundRect,0.200000X-0.475833X1.775833X-1.775833X-0.475833X0.475833X-1.775833X1.775833X0.475833X0*%
%ADD34C,1.924000*%
%ADD35C,2.400000*%
%ADD36C,4.400000*%
%ADD37RoundRect,0.200000X-0.571500X0.317500X-0.571500X-0.317500X0.571500X-0.317500X0.571500X0.317500X0*%
G04 APERTURE END LIST*
D10*
X125935000Y-98149642D02*
X126077857Y-98221071D01*
X126363571Y-98221071D01*
X126506428Y-98149642D01*
X126577857Y-98078214D01*
X126649285Y-97935357D01*
X126649285Y-97506785D01*
X126577857Y-97363928D01*
X126506428Y-97292500D01*
X126363571Y-97221071D01*
X126077857Y-97221071D01*
X125935000Y-97292500D01*
X125292142Y-98221071D02*
X125292142Y-96721071D01*
X124649285Y-98221071D02*
X124649285Y-97435357D01*
X124720714Y-97292500D01*
X124863571Y-97221071D01*
X125077857Y-97221071D01*
X125220714Y-97292500D01*
X125292142Y-97363928D01*
X123720714Y-98221071D02*
X123863571Y-98149642D01*
X123935000Y-98078214D01*
X124006428Y-97935357D01*
X124006428Y-97506785D01*
X123935000Y-97363928D01*
X123863571Y-97292500D01*
X123720714Y-97221071D01*
X123506428Y-97221071D01*
X123363571Y-97292500D01*
X123292142Y-97363928D01*
X123220714Y-97506785D01*
X123220714Y-97935357D01*
X123292142Y-98078214D01*
X123363571Y-98149642D01*
X123506428Y-98221071D01*
X123720714Y-98221071D01*
X121935000Y-98149642D02*
X122077857Y-98221071D01*
X122363571Y-98221071D01*
X122506428Y-98149642D01*
X122577857Y-98078214D01*
X122649285Y-97935357D01*
X122649285Y-97506785D01*
X122577857Y-97363928D01*
X122506428Y-97292500D01*
X122363571Y-97221071D01*
X122077857Y-97221071D01*
X121935000Y-97292500D01*
X121077857Y-98221071D02*
X121220714Y-98149642D01*
X121292142Y-98078214D01*
X121363571Y-97935357D01*
X121363571Y-97506785D01*
X121292142Y-97363928D01*
X121220714Y-97292500D01*
X121077857Y-97221071D01*
X120863571Y-97221071D01*
X120720714Y-97292500D01*
X120649285Y-97363928D01*
X120577857Y-97506785D01*
X120577857Y-97935357D01*
X120649285Y-98078214D01*
X120720714Y-98149642D01*
X120863571Y-98221071D01*
X121077857Y-98221071D01*
X120149285Y-97221071D02*
X119577857Y-97221071D01*
X119935000Y-98221071D02*
X119935000Y-96935357D01*
X119863571Y-96792500D01*
X119720714Y-96721071D01*
X119577857Y-96721071D01*
X119077857Y-98221071D02*
X119077857Y-97221071D01*
X119077857Y-96721071D02*
X119149285Y-96792500D01*
X119077857Y-96863928D01*
X119006428Y-96792500D01*
X119077857Y-96721071D01*
X119077857Y-96863928D01*
X125649285Y-99921785D02*
X125720714Y-99850357D01*
X125863571Y-99778928D01*
X126006428Y-99778928D01*
X126149285Y-99850357D01*
X126220714Y-99921785D01*
X126292142Y-100064642D01*
X126292142Y-100207500D01*
X126220714Y-100350357D01*
X126149285Y-100421785D01*
X126006428Y-100493214D01*
X125863571Y-100493214D01*
X125720714Y-100421785D01*
X125649285Y-100350357D01*
X125649285Y-99778928D02*
X125649285Y-100350357D01*
X125577857Y-100421785D01*
X125506428Y-100421785D01*
X125363571Y-100350357D01*
X125292142Y-100207500D01*
X125292142Y-99850357D01*
X125435000Y-99636071D01*
X125649285Y-99493214D01*
X125935000Y-99421785D01*
X126220714Y-99493214D01*
X126435000Y-99636071D01*
X126577857Y-99850357D01*
X126649285Y-100136071D01*
X126577857Y-100421785D01*
X126435000Y-100636071D01*
X126220714Y-100778928D01*
X125935000Y-100850357D01*
X125649285Y-100778928D01*
X125435000Y-100636071D01*
X124649285Y-99636071D02*
X124649285Y-101136071D01*
X124649285Y-99707500D02*
X124506428Y-99636071D01*
X124220714Y-99636071D01*
X124077857Y-99707500D01*
X124006428Y-99778928D01*
X123935000Y-99921785D01*
X123935000Y-100350357D01*
X124006428Y-100493214D01*
X124077857Y-100564642D01*
X124220714Y-100636071D01*
X124506428Y-100636071D01*
X124649285Y-100564642D01*
X122649285Y-100636071D02*
X122649285Y-99850357D01*
X122720714Y-99707500D01*
X122863571Y-99636071D01*
X123149285Y-99636071D01*
X123292142Y-99707500D01*
X122649285Y-100564642D02*
X122792142Y-100636071D01*
X123149285Y-100636071D01*
X123292142Y-100564642D01*
X123363571Y-100421785D01*
X123363571Y-100278928D01*
X123292142Y-100136071D01*
X123149285Y-100064642D01*
X122792142Y-100064642D01*
X122649285Y-99993214D01*
X122006428Y-100564642D02*
X121863571Y-100636071D01*
X121577857Y-100636071D01*
X121435000Y-100564642D01*
X121363571Y-100421785D01*
X121363571Y-100350357D01*
X121435000Y-100207500D01*
X121577857Y-100136071D01*
X121792142Y-100136071D01*
X121935000Y-100064642D01*
X122006428Y-99921785D01*
X122006428Y-99850357D01*
X121935000Y-99707500D01*
X121792142Y-99636071D01*
X121577857Y-99636071D01*
X121435000Y-99707500D01*
X120720714Y-100636071D02*
X120720714Y-99136071D01*
X120077857Y-100636071D02*
X120077857Y-99850357D01*
X120149285Y-99707500D01*
X120292142Y-99636071D01*
X120506428Y-99636071D01*
X120649285Y-99707500D01*
X120720714Y-99778928D01*
X118720714Y-99636071D02*
X118720714Y-100636071D01*
X119363571Y-99636071D02*
X119363571Y-100421785D01*
X119292142Y-100564642D01*
X119149285Y-100636071D01*
X118935000Y-100636071D01*
X118792142Y-100564642D01*
X118720714Y-100493214D01*
X118220714Y-99636071D02*
X117649285Y-99636071D01*
X118006428Y-99136071D02*
X118006428Y-100421785D01*
X117935000Y-100564642D01*
X117792142Y-100636071D01*
X117649285Y-100636071D01*
X117149285Y-100636071D02*
X117149285Y-99136071D01*
X117006428Y-100064642D02*
X116577857Y-100636071D01*
X116577857Y-99636071D02*
X117149285Y-100207500D01*
D11*
X180998880Y-98123595D02*
X180998880Y-98695023D01*
X181998880Y-98409309D02*
X180998880Y-98409309D01*
X181998880Y-99599785D02*
X181522690Y-99266452D01*
X181998880Y-99028357D02*
X180998880Y-99028357D01*
X180998880Y-99409309D01*
X181046500Y-99504547D01*
X181094119Y-99552166D01*
X181189357Y-99599785D01*
X181332214Y-99599785D01*
X181427452Y-99552166D01*
X181475071Y-99504547D01*
X181522690Y-99409309D01*
X181522690Y-99028357D01*
X181998880Y-100599785D02*
X181522690Y-100266452D01*
X181998880Y-100028357D02*
X180998880Y-100028357D01*
X180998880Y-100409309D01*
X181046500Y-100504547D01*
X181094119Y-100552166D01*
X181189357Y-100599785D01*
X181332214Y-100599785D01*
X181427452Y-100552166D01*
X181475071Y-100504547D01*
X181522690Y-100409309D01*
X181522690Y-100028357D01*
X181951261Y-100980738D02*
X181998880Y-101123595D01*
X181998880Y-101361690D01*
X181951261Y-101456928D01*
X181903642Y-101504547D01*
X181808404Y-101552166D01*
X181713166Y-101552166D01*
X181617928Y-101504547D01*
X181570309Y-101456928D01*
X181522690Y-101361690D01*
X181475071Y-101171214D01*
X181427452Y-101075976D01*
X181379833Y-101028357D01*
X181284595Y-100980738D01*
X181189357Y-100980738D01*
X181094119Y-101028357D01*
X181046500Y-101075976D01*
X180998880Y-101171214D01*
X180998880Y-101409309D01*
X181046500Y-101552166D01*
D12*
X167840952Y-79656685D02*
X168007619Y-79299542D01*
X168126666Y-79656685D02*
X168126666Y-78906685D01*
X167936190Y-78906685D01*
X167888571Y-78942400D01*
X167864761Y-78978114D01*
X167840952Y-79049542D01*
X167840952Y-79156685D01*
X167864761Y-79228114D01*
X167888571Y-79263828D01*
X167936190Y-79299542D01*
X168126666Y-79299542D01*
X167531428Y-78906685D02*
X167436190Y-78906685D01*
X167388571Y-78942400D01*
X167340952Y-79013828D01*
X167317142Y-79156685D01*
X167317142Y-79406685D01*
X167340952Y-79549542D01*
X167388571Y-79620971D01*
X167436190Y-79656685D01*
X167531428Y-79656685D01*
X167579047Y-79620971D01*
X167626666Y-79549542D01*
X167650476Y-79406685D01*
X167650476Y-79156685D01*
X167626666Y-79013828D01*
X167579047Y-78942400D01*
X167531428Y-78906685D01*
X167150476Y-78906685D02*
X167031428Y-79656685D01*
X166936190Y-79120971D01*
X166840952Y-79656685D01*
X166721904Y-78906685D01*
X166555238Y-78978114D02*
X166531428Y-78942400D01*
X166483809Y-78906685D01*
X166364761Y-78906685D01*
X166317142Y-78942400D01*
X166293333Y-78978114D01*
X166269523Y-79049542D01*
X166269523Y-79120971D01*
X166293333Y-79228114D01*
X166579047Y-79656685D01*
X166269523Y-79656685D01*
X183057619Y-76946257D02*
X183081428Y-76981971D01*
X183152857Y-77017685D01*
X183200476Y-77017685D01*
X183271904Y-76981971D01*
X183319523Y-76910542D01*
X183343333Y-76839114D01*
X183367142Y-76696257D01*
X183367142Y-76589114D01*
X183343333Y-76446257D01*
X183319523Y-76374828D01*
X183271904Y-76303400D01*
X183200476Y-76267685D01*
X183152857Y-76267685D01*
X183081428Y-76303400D01*
X183057619Y-76339114D01*
X182748095Y-76267685D02*
X182652857Y-76267685D01*
X182605238Y-76303400D01*
X182557619Y-76374828D01*
X182533809Y-76517685D01*
X182533809Y-76767685D01*
X182557619Y-76910542D01*
X182605238Y-76981971D01*
X182652857Y-77017685D01*
X182748095Y-77017685D01*
X182795714Y-76981971D01*
X182843333Y-76910542D01*
X182867142Y-76767685D01*
X182867142Y-76517685D01*
X182843333Y-76374828D01*
X182795714Y-76303400D01*
X182748095Y-76267685D01*
X182081428Y-77017685D02*
X182319523Y-77017685D01*
X182319523Y-76267685D01*
X181962380Y-76267685D02*
X181652857Y-76267685D01*
X181819523Y-76553400D01*
X181748095Y-76553400D01*
X181700476Y-76589114D01*
X181676666Y-76624828D01*
X181652857Y-76696257D01*
X181652857Y-76874828D01*
X181676666Y-76946257D01*
X181700476Y-76981971D01*
X181748095Y-77017685D01*
X181890952Y-77017685D01*
X181938571Y-76981971D01*
X181962380Y-76946257D01*
X183046238Y-59273185D02*
X183212904Y-58916042D01*
X183331952Y-59273185D02*
X183331952Y-58523185D01*
X183141476Y-58523185D01*
X183093857Y-58558900D01*
X183070047Y-58594614D01*
X183046238Y-58666042D01*
X183046238Y-58773185D01*
X183070047Y-58844614D01*
X183093857Y-58880328D01*
X183141476Y-58916042D01*
X183331952Y-58916042D01*
X182855761Y-59058900D02*
X182617666Y-59058900D01*
X182903380Y-59273185D02*
X182736714Y-58523185D01*
X182570047Y-59273185D01*
X182451000Y-58523185D02*
X182331952Y-59273185D01*
X182236714Y-58737471D01*
X182141476Y-59273185D01*
X182022428Y-58523185D01*
X167782428Y-59273185D02*
X168020523Y-59273185D01*
X168020523Y-58523185D01*
X167615761Y-58880328D02*
X167449095Y-58880328D01*
X167377666Y-59273185D02*
X167615761Y-59273185D01*
X167615761Y-58523185D01*
X167377666Y-58523185D01*
X167163380Y-59273185D02*
X167163380Y-58523185D01*
X167044333Y-58523185D01*
X166972904Y-58558900D01*
X166925285Y-58630328D01*
X166901476Y-58701757D01*
X166877666Y-58844614D01*
X166877666Y-58951757D01*
X166901476Y-59094614D01*
X166925285Y-59166042D01*
X166972904Y-59237471D01*
X167044333Y-59273185D01*
X167163380Y-59273185D01*
X168056238Y-71937471D02*
X167984809Y-71973185D01*
X167865761Y-71973185D01*
X167818142Y-71937471D01*
X167794333Y-71901757D01*
X167770523Y-71830328D01*
X167770523Y-71758900D01*
X167794333Y-71687471D01*
X167818142Y-71651757D01*
X167865761Y-71616042D01*
X167961000Y-71580328D01*
X168008619Y-71544614D01*
X168032428Y-71508900D01*
X168056238Y-71437471D01*
X168056238Y-71366042D01*
X168032428Y-71294614D01*
X168008619Y-71258900D01*
X167961000Y-71223185D01*
X167841952Y-71223185D01*
X167770523Y-71258900D01*
X167270523Y-71901757D02*
X167294333Y-71937471D01*
X167365761Y-71973185D01*
X167413380Y-71973185D01*
X167484809Y-71937471D01*
X167532428Y-71866042D01*
X167556238Y-71794614D01*
X167580047Y-71651757D01*
X167580047Y-71544614D01*
X167556238Y-71401757D01*
X167532428Y-71330328D01*
X167484809Y-71258900D01*
X167413380Y-71223185D01*
X167365761Y-71223185D01*
X167294333Y-71258900D01*
X167270523Y-71294614D01*
X166818142Y-71973185D02*
X167056238Y-71973185D01*
X167056238Y-71223185D01*
X183157380Y-86756828D02*
X183085952Y-86792542D01*
X183062142Y-86828257D01*
X183038333Y-86899685D01*
X183038333Y-87006828D01*
X183062142Y-87078257D01*
X183085952Y-87113971D01*
X183133571Y-87149685D01*
X183324047Y-87149685D01*
X183324047Y-86399685D01*
X183157380Y-86399685D01*
X183109761Y-86435400D01*
X183085952Y-86471114D01*
X183062142Y-86542542D01*
X183062142Y-86613971D01*
X183085952Y-86685400D01*
X183109761Y-86721114D01*
X183157380Y-86756828D01*
X183324047Y-86756828D01*
X182609761Y-86399685D02*
X182705000Y-86399685D01*
X182752619Y-86435400D01*
X182776428Y-86471114D01*
X182824047Y-86578257D01*
X182847857Y-86721114D01*
X182847857Y-87006828D01*
X182824047Y-87078257D01*
X182800238Y-87113971D01*
X182752619Y-87149685D01*
X182657380Y-87149685D01*
X182609761Y-87113971D01*
X182585952Y-87078257D01*
X182562142Y-87006828D01*
X182562142Y-86828257D01*
X182585952Y-86756828D01*
X182609761Y-86721114D01*
X182657380Y-86685400D01*
X182752619Y-86685400D01*
X182800238Y-86721114D01*
X182824047Y-86756828D01*
X182847857Y-86828257D01*
X167840952Y-74449685D02*
X168007619Y-74092542D01*
X168126666Y-74449685D02*
X168126666Y-73699685D01*
X167936190Y-73699685D01*
X167888571Y-73735400D01*
X167864761Y-73771114D01*
X167840952Y-73842542D01*
X167840952Y-73949685D01*
X167864761Y-74021114D01*
X167888571Y-74056828D01*
X167936190Y-74092542D01*
X168126666Y-74092542D01*
X167531428Y-73699685D02*
X167436190Y-73699685D01*
X167388571Y-73735400D01*
X167340952Y-73806828D01*
X167317142Y-73949685D01*
X167317142Y-74199685D01*
X167340952Y-74342542D01*
X167388571Y-74413971D01*
X167436190Y-74449685D01*
X167531428Y-74449685D01*
X167579047Y-74413971D01*
X167626666Y-74342542D01*
X167650476Y-74199685D01*
X167650476Y-73949685D01*
X167626666Y-73806828D01*
X167579047Y-73735400D01*
X167531428Y-73699685D01*
X167150476Y-73699685D02*
X167031428Y-74449685D01*
X166936190Y-73913971D01*
X166840952Y-74449685D01*
X166721904Y-73699685D01*
X166436190Y-73699685D02*
X166388571Y-73699685D01*
X166340952Y-73735400D01*
X166317142Y-73771114D01*
X166293333Y-73842542D01*
X166269523Y-73985400D01*
X166269523Y-74163971D01*
X166293333Y-74306828D01*
X166317142Y-74378257D01*
X166340952Y-74413971D01*
X166388571Y-74449685D01*
X166436190Y-74449685D01*
X166483809Y-74413971D01*
X166507619Y-74378257D01*
X166531428Y-74306828D01*
X166555238Y-74163971D01*
X166555238Y-73985400D01*
X166531428Y-73842542D01*
X166507619Y-73771114D01*
X166483809Y-73735400D01*
X166436190Y-73699685D01*
X183057619Y-82096257D02*
X183081428Y-82131971D01*
X183152857Y-82167685D01*
X183200476Y-82167685D01*
X183271904Y-82131971D01*
X183319523Y-82060542D01*
X183343333Y-81989114D01*
X183367142Y-81846257D01*
X183367142Y-81739114D01*
X183343333Y-81596257D01*
X183319523Y-81524828D01*
X183271904Y-81453400D01*
X183200476Y-81417685D01*
X183152857Y-81417685D01*
X183081428Y-81453400D01*
X183057619Y-81489114D01*
X182748095Y-81417685D02*
X182652857Y-81417685D01*
X182605238Y-81453400D01*
X182557619Y-81524828D01*
X182533809Y-81667685D01*
X182533809Y-81917685D01*
X182557619Y-82060542D01*
X182605238Y-82131971D01*
X182652857Y-82167685D01*
X182748095Y-82167685D01*
X182795714Y-82131971D01*
X182843333Y-82060542D01*
X182867142Y-81917685D01*
X182867142Y-81667685D01*
X182843333Y-81524828D01*
X182795714Y-81453400D01*
X182748095Y-81417685D01*
X182081428Y-82167685D02*
X182319523Y-82167685D01*
X182319523Y-81417685D01*
X181676666Y-81417685D02*
X181914761Y-81417685D01*
X181938571Y-81774828D01*
X181914761Y-81739114D01*
X181867142Y-81703400D01*
X181748095Y-81703400D01*
X181700476Y-81739114D01*
X181676666Y-81774828D01*
X181652857Y-81846257D01*
X181652857Y-82024828D01*
X181676666Y-82096257D01*
X181700476Y-82131971D01*
X181748095Y-82167685D01*
X181867142Y-82167685D01*
X181914761Y-82131971D01*
X181938571Y-82096257D01*
D11*
D12*
X168060000Y-61917685D02*
X168060000Y-61167685D01*
X167940952Y-61167685D01*
X167869523Y-61203400D01*
X167821904Y-61274828D01*
X167798095Y-61346257D01*
X167774285Y-61489114D01*
X167774285Y-61596257D01*
X167798095Y-61739114D01*
X167821904Y-61810542D01*
X167869523Y-61881971D01*
X167940952Y-61917685D01*
X168060000Y-61917685D01*
X167583809Y-61703400D02*
X167345714Y-61703400D01*
X167631428Y-61917685D02*
X167464761Y-61167685D01*
X167298095Y-61917685D01*
X167202857Y-61167685D02*
X166917142Y-61167685D01*
X167060000Y-61917685D02*
X167060000Y-61167685D01*
X166774285Y-61703400D02*
X166536190Y-61703400D01*
X166821904Y-61917685D02*
X166655238Y-61167685D01*
X166488571Y-61917685D01*
X183304166Y-66143185D02*
X183137500Y-66893185D01*
X182970833Y-66143185D01*
X182518452Y-66821757D02*
X182542261Y-66857471D01*
X182613690Y-66893185D01*
X182661309Y-66893185D01*
X182732738Y-66857471D01*
X182780357Y-66786042D01*
X182804166Y-66714614D01*
X182827976Y-66571757D01*
X182827976Y-66464614D01*
X182804166Y-66321757D01*
X182780357Y-66250328D01*
X182732738Y-66178900D01*
X182661309Y-66143185D01*
X182613690Y-66143185D01*
X182542261Y-66178900D01*
X182518452Y-66214614D01*
X182018452Y-66821757D02*
X182042261Y-66857471D01*
X182113690Y-66893185D01*
X182161309Y-66893185D01*
X182232738Y-66857471D01*
X182280357Y-66786042D01*
X182304166Y-66714614D01*
X182327976Y-66571757D01*
X182327976Y-66464614D01*
X182304166Y-66321757D01*
X182280357Y-66250328D01*
X182232738Y-66178900D01*
X182161309Y-66143185D01*
X182113690Y-66143185D01*
X182042261Y-66178900D01*
X182018452Y-66214614D01*
X183220880Y-84153328D02*
X183149452Y-84189042D01*
X183125642Y-84224757D01*
X183101833Y-84296185D01*
X183101833Y-84403328D01*
X183125642Y-84474757D01*
X183149452Y-84510471D01*
X183197071Y-84546185D01*
X183387547Y-84546185D01*
X183387547Y-83796185D01*
X183220880Y-83796185D01*
X183173261Y-83831900D01*
X183149452Y-83867614D01*
X183125642Y-83939042D01*
X183125642Y-84010471D01*
X183149452Y-84081900D01*
X183173261Y-84117614D01*
X183220880Y-84153328D01*
X183387547Y-84153328D01*
X182911357Y-83867614D02*
X182887547Y-83831900D01*
X182839928Y-83796185D01*
X182720880Y-83796185D01*
X182673261Y-83831900D01*
X182649452Y-83867614D01*
X182625642Y-83939042D01*
X182625642Y-84010471D01*
X182649452Y-84117614D01*
X182935166Y-84546185D01*
X182625642Y-84546185D01*
X167841952Y-63638900D02*
X167889571Y-63603185D01*
X167961000Y-63603185D01*
X168032428Y-63638900D01*
X168080047Y-63710328D01*
X168103857Y-63781757D01*
X168127666Y-63924614D01*
X168127666Y-64031757D01*
X168103857Y-64174614D01*
X168080047Y-64246042D01*
X168032428Y-64317471D01*
X167961000Y-64353185D01*
X167913380Y-64353185D01*
X167841952Y-64317471D01*
X167818142Y-64281757D01*
X167818142Y-64031757D01*
X167913380Y-64031757D01*
X167603857Y-64353185D02*
X167603857Y-63603185D01*
X167318142Y-64353185D01*
X167318142Y-63603185D01*
X167080047Y-64353185D02*
X167080047Y-63603185D01*
X166961000Y-63603185D01*
X166889571Y-63638900D01*
X166841952Y-63710328D01*
X166818142Y-63781757D01*
X166794333Y-63924614D01*
X166794333Y-64031757D01*
X166818142Y-64174614D01*
X166841952Y-64246042D01*
X166889571Y-64317471D01*
X166961000Y-64353185D01*
X167080047Y-64353185D01*
X183007619Y-79458257D02*
X183031428Y-79493971D01*
X183102857Y-79529685D01*
X183150476Y-79529685D01*
X183221904Y-79493971D01*
X183269523Y-79422542D01*
X183293333Y-79351114D01*
X183317142Y-79208257D01*
X183317142Y-79101114D01*
X183293333Y-78958257D01*
X183269523Y-78886828D01*
X183221904Y-78815400D01*
X183150476Y-78779685D01*
X183102857Y-78779685D01*
X183031428Y-78815400D01*
X183007619Y-78851114D01*
X182698095Y-78779685D02*
X182602857Y-78779685D01*
X182555238Y-78815400D01*
X182507619Y-78886828D01*
X182483809Y-79029685D01*
X182483809Y-79279685D01*
X182507619Y-79422542D01*
X182555238Y-79493971D01*
X182602857Y-79529685D01*
X182698095Y-79529685D01*
X182745714Y-79493971D01*
X182793333Y-79422542D01*
X182817142Y-79279685D01*
X182817142Y-79029685D01*
X182793333Y-78886828D01*
X182745714Y-78815400D01*
X182698095Y-78779685D01*
X182031428Y-79529685D02*
X182269523Y-79529685D01*
X182269523Y-78779685D01*
X181650476Y-79029685D02*
X181650476Y-79529685D01*
X181769523Y-78743971D02*
X181888571Y-79279685D01*
X181579047Y-79279685D01*
X168068142Y-69397471D02*
X167996714Y-69433185D01*
X167877666Y-69433185D01*
X167830047Y-69397471D01*
X167806238Y-69361757D01*
X167782428Y-69290328D01*
X167782428Y-69218900D01*
X167806238Y-69147471D01*
X167830047Y-69111757D01*
X167877666Y-69076042D01*
X167972904Y-69040328D01*
X168020523Y-69004614D01*
X168044333Y-68968900D01*
X168068142Y-68897471D01*
X168068142Y-68826042D01*
X168044333Y-68754614D01*
X168020523Y-68718900D01*
X167972904Y-68683185D01*
X167853857Y-68683185D01*
X167782428Y-68718900D01*
X167568142Y-69433185D02*
X167568142Y-68683185D01*
X167449095Y-68683185D01*
X167377666Y-68718900D01*
X167330047Y-68790328D01*
X167306238Y-68861757D01*
X167282428Y-69004614D01*
X167282428Y-69111757D01*
X167306238Y-69254614D01*
X167330047Y-69326042D01*
X167377666Y-69397471D01*
X167449095Y-69433185D01*
X167568142Y-69433185D01*
X167091952Y-69218900D02*
X166853857Y-69218900D01*
X167139571Y-69433185D02*
X166972904Y-68683185D01*
X166806238Y-69433185D01*
X182974809Y-64353185D02*
X183141476Y-63996042D01*
X183260523Y-64353185D02*
X183260523Y-63603185D01*
X183070047Y-63603185D01*
X183022428Y-63638900D01*
X182998619Y-63674614D01*
X182974809Y-63746042D01*
X182974809Y-63853185D01*
X182998619Y-63924614D01*
X183022428Y-63960328D01*
X183070047Y-63996042D01*
X183260523Y-63996042D01*
X182784333Y-64317471D02*
X182712904Y-64353185D01*
X182593857Y-64353185D01*
X182546238Y-64317471D01*
X182522428Y-64281757D01*
X182498619Y-64210328D01*
X182498619Y-64138900D01*
X182522428Y-64067471D01*
X182546238Y-64031757D01*
X182593857Y-63996042D01*
X182689095Y-63960328D01*
X182736714Y-63924614D01*
X182760523Y-63888900D01*
X182784333Y-63817471D01*
X182784333Y-63746042D01*
X182760523Y-63674614D01*
X182736714Y-63638900D01*
X182689095Y-63603185D01*
X182570047Y-63603185D01*
X182498619Y-63638900D01*
X182355761Y-63603185D02*
X182070047Y-63603185D01*
X182212904Y-64353185D02*
X182212904Y-63603185D01*
X183057619Y-71901757D02*
X183081428Y-71937471D01*
X183152857Y-71973185D01*
X183200476Y-71973185D01*
X183271904Y-71937471D01*
X183319523Y-71866042D01*
X183343333Y-71794614D01*
X183367142Y-71651757D01*
X183367142Y-71544614D01*
X183343333Y-71401757D01*
X183319523Y-71330328D01*
X183271904Y-71258900D01*
X183200476Y-71223185D01*
X183152857Y-71223185D01*
X183081428Y-71258900D01*
X183057619Y-71294614D01*
X182748095Y-71223185D02*
X182652857Y-71223185D01*
X182605238Y-71258900D01*
X182557619Y-71330328D01*
X182533809Y-71473185D01*
X182533809Y-71723185D01*
X182557619Y-71866042D01*
X182605238Y-71937471D01*
X182652857Y-71973185D01*
X182748095Y-71973185D01*
X182795714Y-71937471D01*
X182843333Y-71866042D01*
X182867142Y-71723185D01*
X182867142Y-71473185D01*
X182843333Y-71330328D01*
X182795714Y-71258900D01*
X182748095Y-71223185D01*
X182081428Y-71973185D02*
X182319523Y-71973185D01*
X182319523Y-71223185D01*
X181652857Y-71973185D02*
X181938571Y-71973185D01*
X181795714Y-71973185D02*
X181795714Y-71223185D01*
X181843333Y-71330328D01*
X181890952Y-71401757D01*
X181938571Y-71437471D01*
X183018452Y-61035400D02*
X183066071Y-60999685D01*
X183137500Y-60999685D01*
X183208928Y-61035400D01*
X183256547Y-61106828D01*
X183280357Y-61178257D01*
X183304166Y-61321114D01*
X183304166Y-61428257D01*
X183280357Y-61571114D01*
X183256547Y-61642542D01*
X183208928Y-61713971D01*
X183137500Y-61749685D01*
X183089880Y-61749685D01*
X183018452Y-61713971D01*
X182994642Y-61678257D01*
X182994642Y-61428257D01*
X183089880Y-61428257D01*
X182780357Y-61749685D02*
X182780357Y-60999685D01*
X182494642Y-61749685D01*
X182494642Y-60999685D01*
X182256547Y-61749685D02*
X182256547Y-60999685D01*
X182137500Y-60999685D01*
X182066071Y-61035400D01*
X182018452Y-61106828D01*
X181994642Y-61178257D01*
X181970833Y-61321114D01*
X181970833Y-61428257D01*
X181994642Y-61571114D01*
X182018452Y-61642542D01*
X182066071Y-61713971D01*
X182137500Y-61749685D01*
X182256547Y-61749685D01*
X183057619Y-74446257D02*
X183081428Y-74481971D01*
X183152857Y-74517685D01*
X183200476Y-74517685D01*
X183271904Y-74481971D01*
X183319523Y-74410542D01*
X183343333Y-74339114D01*
X183367142Y-74196257D01*
X183367142Y-74089114D01*
X183343333Y-73946257D01*
X183319523Y-73874828D01*
X183271904Y-73803400D01*
X183200476Y-73767685D01*
X183152857Y-73767685D01*
X183081428Y-73803400D01*
X183057619Y-73839114D01*
X182748095Y-73767685D02*
X182652857Y-73767685D01*
X182605238Y-73803400D01*
X182557619Y-73874828D01*
X182533809Y-74017685D01*
X182533809Y-74267685D01*
X182557619Y-74410542D01*
X182605238Y-74481971D01*
X182652857Y-74517685D01*
X182748095Y-74517685D01*
X182795714Y-74481971D01*
X182843333Y-74410542D01*
X182867142Y-74267685D01*
X182867142Y-74017685D01*
X182843333Y-73874828D01*
X182795714Y-73803400D01*
X182748095Y-73767685D01*
X182081428Y-74517685D02*
X182319523Y-74517685D01*
X182319523Y-73767685D01*
X181938571Y-73839114D02*
X181914761Y-73803400D01*
X181867142Y-73767685D01*
X181748095Y-73767685D01*
X181700476Y-73803400D01*
X181676666Y-73839114D01*
X181652857Y-73910542D01*
X181652857Y-73981971D01*
X181676666Y-74089114D01*
X181962380Y-74517685D01*
X181652857Y-74517685D01*
X167841952Y-66178900D02*
X167889571Y-66143185D01*
X167961000Y-66143185D01*
X168032428Y-66178900D01*
X168080047Y-66250328D01*
X168103857Y-66321757D01*
X168127666Y-66464614D01*
X168127666Y-66571757D01*
X168103857Y-66714614D01*
X168080047Y-66786042D01*
X168032428Y-66857471D01*
X167961000Y-66893185D01*
X167913380Y-66893185D01*
X167841952Y-66857471D01*
X167818142Y-66821757D01*
X167818142Y-66571757D01*
X167913380Y-66571757D01*
X167603857Y-66893185D02*
X167603857Y-66143185D01*
X167318142Y-66893185D01*
X167318142Y-66143185D01*
X167080047Y-66893185D02*
X167080047Y-66143185D01*
X166961000Y-66143185D01*
X166889571Y-66178900D01*
X166841952Y-66250328D01*
X166818142Y-66321757D01*
X166794333Y-66464614D01*
X166794333Y-66571757D01*
X166818142Y-66714614D01*
X166841952Y-66786042D01*
X166889571Y-66857471D01*
X166961000Y-66893185D01*
X167080047Y-66893185D01*
X167840952Y-82167685D02*
X168007619Y-81810542D01*
X168126666Y-82167685D02*
X168126666Y-81417685D01*
X167936190Y-81417685D01*
X167888571Y-81453400D01*
X167864761Y-81489114D01*
X167840952Y-81560542D01*
X167840952Y-81667685D01*
X167864761Y-81739114D01*
X167888571Y-81774828D01*
X167936190Y-81810542D01*
X168126666Y-81810542D01*
X167531428Y-81417685D02*
X167436190Y-81417685D01*
X167388571Y-81453400D01*
X167340952Y-81524828D01*
X167317142Y-81667685D01*
X167317142Y-81917685D01*
X167340952Y-82060542D01*
X167388571Y-82131971D01*
X167436190Y-82167685D01*
X167531428Y-82167685D01*
X167579047Y-82131971D01*
X167626666Y-82060542D01*
X167650476Y-81917685D01*
X167650476Y-81667685D01*
X167626666Y-81524828D01*
X167579047Y-81453400D01*
X167531428Y-81417685D01*
X167150476Y-81417685D02*
X167031428Y-82167685D01*
X166936190Y-81631971D01*
X166840952Y-82167685D01*
X166721904Y-81417685D01*
X166579047Y-81417685D02*
X166269523Y-81417685D01*
X166436190Y-81703400D01*
X166364761Y-81703400D01*
X166317142Y-81739114D01*
X166293333Y-81774828D01*
X166269523Y-81846257D01*
X166269523Y-82024828D01*
X166293333Y-82096257D01*
X166317142Y-82131971D01*
X166364761Y-82167685D01*
X166507619Y-82167685D01*
X166555238Y-82131971D01*
X166579047Y-82096257D01*
X167663380Y-84280328D02*
X167591952Y-84316042D01*
X167568142Y-84351757D01*
X167544333Y-84423185D01*
X167544333Y-84530328D01*
X167568142Y-84601757D01*
X167591952Y-84637471D01*
X167639571Y-84673185D01*
X167830047Y-84673185D01*
X167830047Y-83923185D01*
X167663380Y-83923185D01*
X167615761Y-83958900D01*
X167591952Y-83994614D01*
X167568142Y-84066042D01*
X167568142Y-84137471D01*
X167591952Y-84208900D01*
X167615761Y-84244614D01*
X167663380Y-84280328D01*
X167830047Y-84280328D01*
X167115761Y-84173185D02*
X167115761Y-84673185D01*
X167234809Y-83887471D02*
X167353857Y-84423185D01*
X167044333Y-84423185D01*
X183057619Y-69396257D02*
X183081428Y-69431971D01*
X183152857Y-69467685D01*
X183200476Y-69467685D01*
X183271904Y-69431971D01*
X183319523Y-69360542D01*
X183343333Y-69289114D01*
X183367142Y-69146257D01*
X183367142Y-69039114D01*
X183343333Y-68896257D01*
X183319523Y-68824828D01*
X183271904Y-68753400D01*
X183200476Y-68717685D01*
X183152857Y-68717685D01*
X183081428Y-68753400D01*
X183057619Y-68789114D01*
X182748095Y-68717685D02*
X182652857Y-68717685D01*
X182605238Y-68753400D01*
X182557619Y-68824828D01*
X182533809Y-68967685D01*
X182533809Y-69217685D01*
X182557619Y-69360542D01*
X182605238Y-69431971D01*
X182652857Y-69467685D01*
X182748095Y-69467685D01*
X182795714Y-69431971D01*
X182843333Y-69360542D01*
X182867142Y-69217685D01*
X182867142Y-68967685D01*
X182843333Y-68824828D01*
X182795714Y-68753400D01*
X182748095Y-68717685D01*
X182081428Y-69467685D02*
X182319523Y-69467685D01*
X182319523Y-68717685D01*
X181819523Y-68717685D02*
X181771904Y-68717685D01*
X181724285Y-68753400D01*
X181700476Y-68789114D01*
X181676666Y-68860542D01*
X181652857Y-69003400D01*
X181652857Y-69181971D01*
X181676666Y-69324828D01*
X181700476Y-69396257D01*
X181724285Y-69431971D01*
X181771904Y-69467685D01*
X181819523Y-69467685D01*
X181867142Y-69431971D01*
X181890952Y-69396257D01*
X181914761Y-69324828D01*
X181938571Y-69181971D01*
X181938571Y-69003400D01*
X181914761Y-68860542D01*
X181890952Y-68789114D01*
X181867142Y-68753400D01*
X181819523Y-68717685D01*
X167840952Y-77053185D02*
X168007619Y-76696042D01*
X168126666Y-77053185D02*
X168126666Y-76303185D01*
X167936190Y-76303185D01*
X167888571Y-76338900D01*
X167864761Y-76374614D01*
X167840952Y-76446042D01*
X167840952Y-76553185D01*
X167864761Y-76624614D01*
X167888571Y-76660328D01*
X167936190Y-76696042D01*
X168126666Y-76696042D01*
X167531428Y-76303185D02*
X167436190Y-76303185D01*
X167388571Y-76338900D01*
X167340952Y-76410328D01*
X167317142Y-76553185D01*
X167317142Y-76803185D01*
X167340952Y-76946042D01*
X167388571Y-77017471D01*
X167436190Y-77053185D01*
X167531428Y-77053185D01*
X167579047Y-77017471D01*
X167626666Y-76946042D01*
X167650476Y-76803185D01*
X167650476Y-76553185D01*
X167626666Y-76410328D01*
X167579047Y-76338900D01*
X167531428Y-76303185D01*
X167150476Y-76303185D02*
X167031428Y-77053185D01*
X166936190Y-76517471D01*
X166840952Y-77053185D01*
X166721904Y-76303185D01*
X166269523Y-77053185D02*
X166555238Y-77053185D01*
X166412380Y-77053185D02*
X166412380Y-76303185D01*
X166460000Y-76410328D01*
X166507619Y-76481757D01*
X166555238Y-76517471D01*
D11*
D12*
X167663380Y-86820328D02*
X167591952Y-86856042D01*
X167568142Y-86891757D01*
X167544333Y-86963185D01*
X167544333Y-87070328D01*
X167568142Y-87141757D01*
X167591952Y-87177471D01*
X167639571Y-87213185D01*
X167830047Y-87213185D01*
X167830047Y-86463185D01*
X167663380Y-86463185D01*
X167615761Y-86498900D01*
X167591952Y-86534614D01*
X167568142Y-86606042D01*
X167568142Y-86677471D01*
X167591952Y-86748900D01*
X167615761Y-86784614D01*
X167663380Y-86820328D01*
X167830047Y-86820328D01*
X167091952Y-86463185D02*
X167330047Y-86463185D01*
X167353857Y-86820328D01*
X167330047Y-86784614D01*
X167282428Y-86748900D01*
X167163380Y-86748900D01*
X167115761Y-86784614D01*
X167091952Y-86820328D01*
X167068142Y-86891757D01*
X167068142Y-87070328D01*
X167091952Y-87141757D01*
X167115761Y-87177471D01*
X167163380Y-87213185D01*
X167282428Y-87213185D01*
X167330047Y-87177471D01*
X167353857Y-87141757D01*
D11*
X179132380Y-87960780D02*
X178941904Y-87960780D01*
X178846666Y-88008400D01*
X178751428Y-88103638D01*
X178703809Y-88294114D01*
X178703809Y-88627447D01*
X178751428Y-88817923D01*
X178846666Y-88913161D01*
X178941904Y-88960780D01*
X179132380Y-88960780D01*
X179227619Y-88913161D01*
X179322857Y-88817923D01*
X179370476Y-88627447D01*
X179370476Y-88294114D01*
X179322857Y-88103638D01*
X179227619Y-88008400D01*
X179132380Y-87960780D01*
X177799047Y-88960780D02*
X178275238Y-88960780D01*
X178275238Y-87960780D01*
X177465714Y-88436971D02*
X177132380Y-88436971D01*
X176989523Y-88960780D02*
X177465714Y-88960780D01*
X177465714Y-87960780D01*
X176989523Y-87960780D01*
X176560952Y-88960780D02*
X176560952Y-87960780D01*
X176322857Y-87960780D01*
X176180000Y-88008400D01*
X176084761Y-88103638D01*
X176037142Y-88198876D01*
X175989523Y-88389352D01*
X175989523Y-88532209D01*
X176037142Y-88722685D01*
X176084761Y-88817923D01*
X176180000Y-88913161D01*
X176322857Y-88960780D01*
X176560952Y-88960780D01*
X184332380Y-94305380D02*
X184665714Y-93829190D01*
X184903809Y-94305380D02*
X184903809Y-93305380D01*
X184522857Y-93305380D01*
X184427619Y-93353000D01*
X184380000Y-93400619D01*
X184332380Y-93495857D01*
X184332380Y-93638714D01*
X184380000Y-93733952D01*
X184427619Y-93781571D01*
X184522857Y-93829190D01*
X184903809Y-93829190D01*
X183903809Y-93781571D02*
X183570476Y-93781571D01*
X183427619Y-94305380D02*
X183903809Y-94305380D01*
X183903809Y-93305380D01*
X183427619Y-93305380D01*
X183046666Y-94257761D02*
X182903809Y-94305380D01*
X182665714Y-94305380D01*
X182570476Y-94257761D01*
X182522857Y-94210142D01*
X182475238Y-94114904D01*
X182475238Y-94019666D01*
X182522857Y-93924428D01*
X182570476Y-93876809D01*
X182665714Y-93829190D01*
X182856190Y-93781571D01*
X182951428Y-93733952D01*
X182999047Y-93686333D01*
X183046666Y-93591095D01*
X183046666Y-93495857D01*
X182999047Y-93400619D01*
X182951428Y-93353000D01*
X182856190Y-93305380D01*
X182618095Y-93305380D01*
X182475238Y-93353000D01*
X182046666Y-93781571D02*
X181713333Y-93781571D01*
X181570476Y-94305380D02*
X182046666Y-94305380D01*
X182046666Y-93305380D01*
X181570476Y-93305380D01*
X181284761Y-93305380D02*
X180713333Y-93305380D01*
X180999047Y-94305380D02*
X180999047Y-93305380D01*
X176034895Y-84100666D02*
X176847695Y-84371600D01*
X176034895Y-84642533D01*
X176770285Y-85377923D02*
X176808990Y-85339219D01*
X176847695Y-85223104D01*
X176847695Y-85145695D01*
X176808990Y-85029580D01*
X176731580Y-84952171D01*
X176654171Y-84913466D01*
X176499352Y-84874761D01*
X176383238Y-84874761D01*
X176228419Y-84913466D01*
X176151009Y-84952171D01*
X176073600Y-85029580D01*
X176034895Y-85145695D01*
X176034895Y-85223104D01*
X176073600Y-85339219D01*
X176112304Y-85377923D01*
X176770285Y-86190723D02*
X176808990Y-86152019D01*
X176847695Y-86035904D01*
X176847695Y-85958495D01*
X176808990Y-85842380D01*
X176731580Y-85764971D01*
X176654171Y-85726266D01*
X176499352Y-85687561D01*
X176383238Y-85687561D01*
X176228419Y-85726266D01*
X176151009Y-85764971D01*
X176073600Y-85842380D01*
X176034895Y-85958495D01*
X176034895Y-86035904D01*
X176073600Y-86152019D01*
X176112304Y-86190723D01*
X173523600Y-84594723D02*
X173484895Y-84517314D01*
X173484895Y-84401200D01*
X173523600Y-84285085D01*
X173601009Y-84207676D01*
X173678419Y-84168971D01*
X173833238Y-84130266D01*
X173949352Y-84130266D01*
X174104171Y-84168971D01*
X174181580Y-84207676D01*
X174258990Y-84285085D01*
X174297695Y-84401200D01*
X174297695Y-84478609D01*
X174258990Y-84594723D01*
X174220285Y-84633428D01*
X173949352Y-84633428D01*
X173949352Y-84478609D01*
X174297695Y-84981771D02*
X173484895Y-84981771D01*
X174297695Y-85446228D01*
X173484895Y-85446228D01*
X174297695Y-85833276D02*
X173484895Y-85833276D01*
X173484895Y-86026800D01*
X173523600Y-86142914D01*
X173601009Y-86220323D01*
X173678419Y-86259028D01*
X173833238Y-86297733D01*
X173949352Y-86297733D01*
X174104171Y-86259028D01*
X174181580Y-86220323D01*
X174258990Y-86142914D01*
X174297695Y-86026800D01*
X174297695Y-85833276D01*
X181968990Y-84457066D02*
X182007695Y-84573180D01*
X182007695Y-84766704D01*
X181968990Y-84844114D01*
X181930285Y-84882819D01*
X181852876Y-84921523D01*
X181775466Y-84921523D01*
X181698057Y-84882819D01*
X181659352Y-84844114D01*
X181620647Y-84766704D01*
X181581942Y-84611885D01*
X181543238Y-84534476D01*
X181504533Y-84495771D01*
X181427123Y-84457066D01*
X181349714Y-84457066D01*
X181272304Y-84495771D01*
X181233600Y-84534476D01*
X181194895Y-84611885D01*
X181194895Y-84805409D01*
X181233600Y-84921523D01*
X182007695Y-85269866D02*
X181194895Y-85269866D01*
X181194895Y-85463390D01*
X181233600Y-85579504D01*
X181311009Y-85656914D01*
X181388419Y-85695619D01*
X181543238Y-85734323D01*
X181659352Y-85734323D01*
X181814171Y-85695619D01*
X181891580Y-85656914D01*
X181968990Y-85579504D01*
X182007695Y-85463390D01*
X182007695Y-85269866D01*
X181775466Y-86043961D02*
X181775466Y-86431009D01*
X182007695Y-85966552D02*
X181194895Y-86237485D01*
X182007695Y-86508419D01*
X179388990Y-84186780D02*
X179427695Y-84302895D01*
X179427695Y-84496419D01*
X179388990Y-84573828D01*
X179350285Y-84612533D01*
X179272876Y-84651238D01*
X179195466Y-84651238D01*
X179118057Y-84612533D01*
X179079352Y-84573828D01*
X179040647Y-84496419D01*
X179001942Y-84341600D01*
X178963238Y-84264190D01*
X178924533Y-84225485D01*
X178847123Y-84186780D01*
X178769714Y-84186780D01*
X178692304Y-84225485D01*
X178653600Y-84264190D01*
X178614895Y-84341600D01*
X178614895Y-84535123D01*
X178653600Y-84651238D01*
X179350285Y-85464038D02*
X179388990Y-85425333D01*
X179427695Y-85309219D01*
X179427695Y-85231809D01*
X179388990Y-85115695D01*
X179311580Y-85038285D01*
X179234171Y-84999580D01*
X179079352Y-84960876D01*
X178963238Y-84960876D01*
X178808419Y-84999580D01*
X178731009Y-85038285D01*
X178653600Y-85115695D01*
X178614895Y-85231809D01*
X178614895Y-85309219D01*
X178653600Y-85425333D01*
X178692304Y-85464038D01*
X179427695Y-86199428D02*
X179427695Y-85812380D01*
X178614895Y-85812380D01*
X83304400Y-65062800D02*
X88704400Y-65062800D01*
X86504400Y-64812800D02*
X85604400Y-64312800D01*
X88704400Y-65062800D02*
X88704400Y-63562800D01*
X83304400Y-63562800D02*
X83304400Y-65062800D01*
X86504400Y-63812800D02*
X86504400Y-64812800D01*
X85604400Y-64312800D02*
X86504400Y-63812800D01*
X88704400Y-63562800D02*
X83304400Y-63562800D01*
X85504400Y-63812800D02*
X85504400Y-64812800D01*
X104589200Y-52773200D02*
X103689200Y-52273200D01*
X106789200Y-53023200D02*
X106789200Y-51523200D01*
X106789200Y-51523200D02*
X101389200Y-51523200D01*
X101389200Y-53023200D02*
X106789200Y-53023200D01*
X101389200Y-51523200D02*
X101389200Y-53023200D01*
X104589200Y-51773200D02*
X104589200Y-52773200D01*
X103689200Y-52273200D02*
X104589200Y-51773200D01*
X103589200Y-51773200D02*
X103589200Y-52773200D01*
X121572400Y-45728000D02*
X121572400Y-46728000D01*
X122572400Y-46728000D02*
X121672400Y-46228000D01*
X124772400Y-45478000D02*
X119372400Y-45478000D01*
X122572400Y-45728000D02*
X122572400Y-46728000D01*
X119372400Y-45478000D02*
X119372400Y-46978000D01*
X121672400Y-46228000D02*
X122572400Y-45728000D01*
X124772400Y-46978000D02*
X124772400Y-45478000D01*
X119372400Y-46978000D02*
X124772400Y-46978000D01*
X139604800Y-53289200D02*
X140504800Y-52789200D01*
X139504800Y-52789200D02*
X139504800Y-53789200D01*
X142704800Y-54039200D02*
X142704800Y-52539200D01*
X140504800Y-53789200D02*
X139604800Y-53289200D01*
X142704800Y-52539200D02*
X137304800Y-52539200D01*
X137304800Y-54039200D02*
X142704800Y-54039200D01*
X140504800Y-52789200D02*
X140504800Y-53789200D01*
X137304800Y-52539200D02*
X137304800Y-54039200D01*
X155288000Y-54672800D02*
X155288000Y-56172800D01*
X155288000Y-56172800D02*
X160688000Y-56172800D01*
X157588000Y-55422800D02*
X158488000Y-54922800D01*
X160688000Y-54672800D02*
X155288000Y-54672800D01*
X160688000Y-56172800D02*
X160688000Y-54672800D01*
X158488000Y-54922800D02*
X158488000Y-55922800D01*
X157488000Y-54922800D02*
X157488000Y-55922800D01*
X158488000Y-55922800D02*
X157588000Y-55422800D01*
X83202800Y-81979200D02*
X88602800Y-81979200D01*
X85402800Y-80729200D02*
X85402800Y-81729200D01*
X88602800Y-80479200D02*
X83202800Y-80479200D01*
X83202800Y-80479200D02*
X83202800Y-81979200D01*
X85502800Y-81229200D02*
X86402800Y-80729200D01*
X88602800Y-81979200D02*
X88602800Y-80479200D01*
X86402800Y-80729200D02*
X86402800Y-81729200D01*
X86402800Y-81729200D02*
X85502800Y-81229200D01*
X103386000Y-68842000D02*
X103386000Y-69842000D01*
X101186000Y-70092000D02*
X106586000Y-70092000D01*
X104386000Y-69842000D02*
X103486000Y-69342000D01*
X106586000Y-68592000D02*
X101186000Y-68592000D01*
X104386000Y-68842000D02*
X104386000Y-69842000D01*
X101186000Y-68592000D02*
X101186000Y-70092000D01*
X103486000Y-69342000D02*
X104386000Y-68842000D01*
X106586000Y-70092000D02*
X106586000Y-68592000D01*
X122470800Y-62847600D02*
X122470800Y-63847600D01*
X122470800Y-63847600D02*
X121570800Y-63347600D01*
X121570800Y-63347600D02*
X122470800Y-62847600D01*
X124670800Y-64097600D02*
X124670800Y-62597600D01*
X119270800Y-62597600D02*
X119270800Y-64097600D01*
X121470800Y-62847600D02*
X121470800Y-63847600D01*
X124670800Y-62597600D02*
X119270800Y-62597600D01*
X119270800Y-64097600D02*
X124670800Y-64097600D01*
X137254000Y-70650800D02*
X142654000Y-70650800D01*
X140454000Y-69400800D02*
X140454000Y-70400800D01*
X137254000Y-69150800D02*
X137254000Y-70650800D01*
X140454000Y-70400800D02*
X139554000Y-69900800D01*
X139554000Y-69900800D02*
X140454000Y-69400800D01*
X139454000Y-69400800D02*
X139454000Y-70400800D01*
X142654000Y-69150800D02*
X137254000Y-69150800D01*
X142654000Y-70650800D02*
X142654000Y-69150800D01*
X158792800Y-72991600D02*
X157892800Y-72491600D01*
X157792800Y-71991600D02*
X157792800Y-72991600D01*
X155592800Y-71741600D02*
X155592800Y-73241600D01*
X160992800Y-73241600D02*
X160992800Y-71741600D01*
X157892800Y-72491600D02*
X158792800Y-71991600D01*
X155592800Y-73241600D02*
X160992800Y-73241600D01*
X158792800Y-71991600D02*
X158792800Y-72991600D01*
X160992800Y-71741600D02*
X155592800Y-71741600D01*
X86402800Y-97747200D02*
X86402800Y-98747200D01*
X83202800Y-97497200D02*
X83202800Y-98997200D01*
X85502800Y-98247200D02*
X86402800Y-97747200D01*
X88602800Y-97497200D02*
X83202800Y-97497200D01*
X85402800Y-97747200D02*
X85402800Y-98747200D01*
X86402800Y-98747200D02*
X85502800Y-98247200D01*
X83202800Y-98997200D02*
X88602800Y-98997200D01*
X88602800Y-98997200D02*
X88602800Y-97497200D01*
X106687600Y-85559200D02*
X101287600Y-85559200D01*
X104487600Y-85809200D02*
X104487600Y-86809200D01*
X103487600Y-85809200D02*
X103487600Y-86809200D01*
X106687600Y-87059200D02*
X106687600Y-85559200D01*
X103587600Y-86309200D02*
X104487600Y-85809200D01*
X104487600Y-86809200D02*
X103587600Y-86309200D01*
X101287600Y-87059200D02*
X106687600Y-87059200D01*
X101287600Y-85559200D02*
X101287600Y-87059200D01*
X124670800Y-81064800D02*
X124670800Y-79564800D01*
X122470800Y-80814800D02*
X121570800Y-80314800D01*
X121470800Y-79814800D02*
X121470800Y-80814800D01*
X119270800Y-81064800D02*
X124670800Y-81064800D01*
X122470800Y-79814800D02*
X122470800Y-80814800D01*
X119270800Y-79564800D02*
X119270800Y-81064800D01*
X124670800Y-79564800D02*
X119270800Y-79564800D01*
X121570800Y-80314800D02*
X122470800Y-79814800D01*
X139555600Y-86469600D02*
X139555600Y-87469600D01*
X139655600Y-86969600D02*
X140555600Y-86469600D01*
X140555600Y-86469600D02*
X140555600Y-87469600D01*
X137355600Y-87719600D02*
X142755600Y-87719600D01*
X142755600Y-87719600D02*
X142755600Y-86219600D01*
X137355600Y-86219600D02*
X137355600Y-87719600D01*
X142755600Y-86219600D02*
X137355600Y-86219600D01*
X140555600Y-87469600D02*
X139655600Y-86969600D01*
X157589600Y-88857200D02*
X157589600Y-89857200D01*
X160789600Y-90107200D02*
X160789600Y-88607200D01*
X160789600Y-88607200D02*
X155389600Y-88607200D01*
X158589600Y-89857200D02*
X157689600Y-89357200D01*
X155389600Y-88607200D02*
X155389600Y-90107200D01*
X157689600Y-89357200D02*
X158589600Y-88857200D01*
X155389600Y-90107200D02*
X160789600Y-90107200D01*
X158589600Y-88857200D02*
X158589600Y-89857200D01*
X134459600Y-119575200D02*
X133559600Y-119075200D01*
X133459600Y-118575200D02*
X133459600Y-119575200D01*
X133559600Y-119075200D02*
X134459600Y-118575200D01*
X136659600Y-119825200D02*
X136659600Y-118325200D01*
X136659600Y-118325200D02*
X131259600Y-118325200D01*
X131259600Y-118325200D02*
X131259600Y-119825200D01*
X131259600Y-119825200D02*
X136659600Y-119825200D01*
X134459600Y-118575200D02*
X134459600Y-119575200D01*
X153126654Y-121107043D02*
X152867835Y-122072968D01*
X149712168Y-121486229D02*
X154928167Y-122883852D01*
X154928167Y-122883852D02*
X155316396Y-121434963D01*
X152127912Y-121357068D02*
X153126654Y-121107043D01*
X152160729Y-120848224D02*
X151901910Y-121814149D01*
X150100397Y-120037340D02*
X149712168Y-121486229D01*
X155316396Y-121434963D02*
X150100397Y-120037340D01*
X152867835Y-122072968D02*
X152127912Y-121357068D01*
X179775153Y-121212422D02*
X180641179Y-121712422D01*
X180641179Y-121712422D02*
X179758166Y-122241845D01*
X181957685Y-119932166D02*
X180658647Y-119182166D01*
X179758166Y-122241845D02*
X179775153Y-121212422D01*
X180658647Y-119182166D02*
X177958647Y-123858704D01*
X177958647Y-123858704D02*
X179257685Y-124608704D01*
X179275153Y-122078448D02*
X180141179Y-122578448D01*
X179257685Y-124608704D02*
X181957685Y-119932166D01*
X175960000Y-101961000D02*
X175960000Y-95961000D01*
X187960000Y-101961000D02*
X175960000Y-101961000D01*
X187960000Y-95961000D02*
X187960000Y-101961000D01*
X175960000Y-95961000D02*
X187960000Y-95961000D01*
X78910000Y-76600000D02*
X83410000Y-76600000D01*
X92910000Y-63400000D02*
X92910000Y-64400000D01*
X83910000Y-77100000D02*
X83910000Y-78100000D01*
X87910000Y-78100000D02*
X87410000Y-78600000D01*
X78910000Y-77400000D02*
X78910000Y-76400000D01*
X83410000Y-72600000D02*
X83410000Y-71900000D01*
X91910000Y-63400000D02*
X92910000Y-63400000D01*
X87910000Y-74600000D02*
X87410000Y-74100000D01*
X83410000Y-71900000D02*
X78910000Y-71900000D01*
X87410000Y-74100000D02*
X84910000Y-74100000D01*
X84410000Y-78600000D02*
X83910000Y-78100000D01*
X87410000Y-78600000D02*
X84410000Y-78600000D01*
X78910000Y-71900000D02*
X78910000Y-72400000D01*
X92910000Y-76400000D02*
X92910000Y-77400000D01*
X78910000Y-64400000D02*
X78910000Y-63400000D01*
X78910000Y-63400000D02*
X79910000Y-63400000D01*
X78910000Y-76000000D02*
X78910000Y-76600000D01*
X79910000Y-77400000D02*
X78910000Y-77400000D01*
X92910000Y-77400000D02*
X91910000Y-77400000D01*
X83410000Y-76600000D02*
G75*
G02*
X83910000Y-77100000I0J-500000D01*
G01*
X84910000Y-74100000D02*
G75*
G02*
X83410000Y-72600000I0J1500000D01*
G01*
X96910000Y-52400000D02*
X96910000Y-51400000D01*
X105410000Y-62100000D02*
X102910000Y-62100000D01*
X96910000Y-64600000D02*
X101410000Y-64600000D01*
X97910000Y-65400000D02*
X96910000Y-65400000D01*
X101910000Y-65100000D02*
X101910000Y-66100000D01*
X96910000Y-51400000D02*
X97910000Y-51400000D01*
X96910000Y-59900000D02*
X96910000Y-60400000D01*
X110910000Y-64400000D02*
X110910000Y-65400000D01*
X110910000Y-51400000D02*
X110910000Y-52400000D01*
X101410000Y-60600000D02*
X101410000Y-59900000D01*
X105910000Y-62600000D02*
X105410000Y-62100000D01*
X105910000Y-66100000D02*
X105410000Y-66600000D01*
X109910000Y-51400000D02*
X110910000Y-51400000D01*
X105410000Y-66600000D02*
X102410000Y-66600000D01*
X101410000Y-59900000D02*
X96910000Y-59900000D01*
X96910000Y-64000000D02*
X96910000Y-64600000D01*
X96910000Y-65400000D02*
X96910000Y-64400000D01*
X110910000Y-65400000D02*
X109910000Y-65400000D01*
X102410000Y-66600000D02*
X101910000Y-66100000D01*
X101410000Y-64600000D02*
G75*
G02*
X101910000Y-65100000I0J-500000D01*
G01*
X102910000Y-62100000D02*
G75*
G02*
X101410000Y-60600000I0J1500000D01*
G01*
X127910000Y-45400000D02*
X128910000Y-45400000D01*
X115910000Y-59400000D02*
X114910000Y-59400000D01*
X114910000Y-58600000D02*
X119410000Y-58600000D01*
X128910000Y-59400000D02*
X127910000Y-59400000D01*
X114910000Y-45400000D02*
X115910000Y-45400000D01*
X120410000Y-60600000D02*
X119910000Y-60100000D01*
X119410000Y-53900000D02*
X114910000Y-53900000D01*
X114910000Y-59400000D02*
X114910000Y-58400000D01*
X114910000Y-58000000D02*
X114910000Y-58600000D01*
X114910000Y-53900000D02*
X114910000Y-54400000D01*
X119410000Y-54600000D02*
X119410000Y-53900000D01*
X123910000Y-60100000D02*
X123410000Y-60600000D01*
X123410000Y-56100000D02*
X120910000Y-56100000D01*
X119910000Y-59100000D02*
X119910000Y-60100000D01*
X114910000Y-46400000D02*
X114910000Y-45400000D01*
X123410000Y-60600000D02*
X120410000Y-60600000D01*
X128910000Y-45400000D02*
X128910000Y-46400000D01*
X123910000Y-56600000D02*
X123410000Y-56100000D01*
X128910000Y-58400000D02*
X128910000Y-59400000D01*
X119410000Y-58600000D02*
G75*
G02*
X119910000Y-59100000I0J-500000D01*
G01*
X120910000Y-56100000D02*
G75*
G02*
X119410000Y-54600000I0J1500000D01*
G01*
X133910000Y-66020000D02*
X132910000Y-66020000D01*
X137910000Y-65720000D02*
X137910000Y-66720000D01*
X138410000Y-67220000D02*
X137910000Y-66720000D01*
X132910000Y-64620000D02*
X132910000Y-65220000D01*
X132910000Y-66020000D02*
X132910000Y-65020000D01*
X146910000Y-65020000D02*
X146910000Y-66020000D01*
X145910000Y-52020000D02*
X146910000Y-52020000D01*
X132910000Y-60520000D02*
X132910000Y-61020000D01*
X132910000Y-53020000D02*
X132910000Y-52020000D01*
X146910000Y-52020000D02*
X146910000Y-53020000D01*
X146910000Y-66020000D02*
X145910000Y-66020000D01*
X132910000Y-65220000D02*
X137410000Y-65220000D01*
X137410000Y-60520000D02*
X132910000Y-60520000D01*
X132910000Y-52020000D02*
X133910000Y-52020000D01*
X141910000Y-63220000D02*
X141410000Y-62720000D01*
X141410000Y-62720000D02*
X138910000Y-62720000D01*
X141410000Y-67220000D02*
X138410000Y-67220000D01*
X141910000Y-66720000D02*
X141410000Y-67220000D01*
X137410000Y-61220000D02*
X137410000Y-60520000D01*
X137410000Y-65220000D02*
G75*
G02*
X137910000Y-65720000I0J-500000D01*
G01*
X138910000Y-62720000D02*
G75*
G02*
X137410000Y-61220000I0J1500000D01*
G01*
X150910000Y-54400000D02*
X151910000Y-54400000D01*
X150910000Y-62900000D02*
X150910000Y-63400000D01*
X155410000Y-63600000D02*
X155410000Y-62900000D01*
X164910000Y-68400000D02*
X163910000Y-68400000D01*
X150910000Y-55400000D02*
X150910000Y-54400000D01*
X159910000Y-69100000D02*
X159410000Y-69600000D01*
X163910000Y-54400000D02*
X164910000Y-54400000D01*
X164910000Y-54400000D02*
X164910000Y-55400000D01*
X156410000Y-69600000D02*
X155910000Y-69100000D01*
X155410000Y-62900000D02*
X150910000Y-62900000D01*
X150910000Y-67600000D02*
X155410000Y-67600000D01*
X155910000Y-68100000D02*
X155910000Y-69100000D01*
X151910000Y-68400000D02*
X150910000Y-68400000D01*
X164910000Y-67400000D02*
X164910000Y-68400000D01*
X159410000Y-65100000D02*
X156910000Y-65100000D01*
X159410000Y-69600000D02*
X156410000Y-69600000D01*
X159910000Y-65600000D02*
X159410000Y-65100000D01*
X150910000Y-67000000D02*
X150910000Y-67600000D01*
X150910000Y-68400000D02*
X150910000Y-67400000D01*
X155410000Y-67600000D02*
G75*
G02*
X155910000Y-68100000I0J-500000D01*
G01*
X156910000Y-65100000D02*
G75*
G02*
X155410000Y-63600000I0J1500000D01*
G01*
X78910000Y-93600000D02*
X83410000Y-93600000D01*
X87410000Y-95600000D02*
X84410000Y-95600000D01*
X78910000Y-80400000D02*
X79910000Y-80400000D01*
X78910000Y-88900000D02*
X78910000Y-89400000D01*
X87910000Y-91600000D02*
X87410000Y-91100000D01*
X84410000Y-95600000D02*
X83910000Y-95100000D01*
X83910000Y-94100000D02*
X83910000Y-95100000D01*
X83410000Y-88900000D02*
X78910000Y-88900000D01*
X79910000Y-94400000D02*
X78910000Y-94400000D01*
X87410000Y-91100000D02*
X84910000Y-91100000D01*
X87910000Y-95100000D02*
X87410000Y-95600000D01*
X78910000Y-93000000D02*
X78910000Y-93600000D01*
X78910000Y-94400000D02*
X78910000Y-93400000D01*
X92910000Y-80400000D02*
X92910000Y-81400000D01*
X83410000Y-89600000D02*
X83410000Y-88900000D01*
X92910000Y-94400000D02*
X91910000Y-94400000D01*
X78910000Y-81400000D02*
X78910000Y-80400000D01*
X92910000Y-93400000D02*
X92910000Y-94400000D01*
X91910000Y-80400000D02*
X92910000Y-80400000D01*
X84910000Y-91100000D02*
G75*
G02*
X83410000Y-89600000I0J1500000D01*
G01*
X83410000Y-93600000D02*
G75*
G02*
X83910000Y-94100000I0J-500000D01*
G01*
X110910000Y-82400000D02*
X109910000Y-82400000D01*
X109910000Y-68400000D02*
X110910000Y-68400000D01*
X96910000Y-69400000D02*
X96910000Y-68400000D01*
X105410000Y-83600000D02*
X102410000Y-83600000D01*
X101410000Y-77600000D02*
X101410000Y-76900000D01*
X102410000Y-83600000D02*
X101910000Y-83100000D01*
X110910000Y-81400000D02*
X110910000Y-82400000D01*
X96910000Y-76900000D02*
X96910000Y-77400000D01*
X105910000Y-83100000D02*
X105410000Y-83600000D01*
X96910000Y-68400000D02*
X97910000Y-68400000D01*
X97910000Y-82400000D02*
X96910000Y-82400000D01*
X105410000Y-79100000D02*
X102910000Y-79100000D01*
X110910000Y-68400000D02*
X110910000Y-69400000D01*
X105910000Y-79600000D02*
X105410000Y-79100000D01*
X96910000Y-82400000D02*
X96910000Y-81400000D01*
X101910000Y-82100000D02*
X101910000Y-83100000D01*
X101410000Y-76900000D02*
X96910000Y-76900000D01*
X96910000Y-81600000D02*
X101410000Y-81600000D01*
X96910000Y-81000000D02*
X96910000Y-81600000D01*
X101410000Y-81600000D02*
G75*
G02*
X101910000Y-82100000I0J-500000D01*
G01*
X102910000Y-79100000D02*
G75*
G02*
X101410000Y-77600000I0J1500000D01*
G01*
X114910000Y-70900000D02*
X114910000Y-71400000D01*
X114910000Y-63400000D02*
X114910000Y-62400000D01*
X128910000Y-75400000D02*
X128910000Y-76400000D01*
X123910000Y-73600000D02*
X123410000Y-73100000D01*
X123410000Y-73100000D02*
X120910000Y-73100000D01*
X114910000Y-75000000D02*
X114910000Y-75600000D01*
X128910000Y-76400000D02*
X127910000Y-76400000D01*
X119910000Y-76100000D02*
X119910000Y-77100000D01*
X127910000Y-62400000D02*
X128910000Y-62400000D01*
X114910000Y-76400000D02*
X114910000Y-75400000D01*
X123910000Y-77100000D02*
X123410000Y-77600000D01*
X120410000Y-77600000D02*
X119910000Y-77100000D01*
X119410000Y-70900000D02*
X114910000Y-70900000D01*
X123410000Y-77600000D02*
X120410000Y-77600000D01*
X119410000Y-71600000D02*
X119410000Y-70900000D01*
X114910000Y-75600000D02*
X119410000Y-75600000D01*
X114910000Y-62400000D02*
X115910000Y-62400000D01*
X115910000Y-76400000D02*
X114910000Y-76400000D01*
X128910000Y-62400000D02*
X128910000Y-63400000D01*
X119410000Y-75600000D02*
G75*
G02*
X119910000Y-76100000I0J-500000D01*
G01*
X120910000Y-73100000D02*
G75*
G02*
X119410000Y-71600000I0J1500000D01*
G01*
X137910000Y-82720000D02*
X137910000Y-83720000D01*
X146910000Y-83020000D02*
X145910000Y-83020000D01*
X137410000Y-77520000D02*
X132910000Y-77520000D01*
X141410000Y-84220000D02*
X138410000Y-84220000D01*
X132910000Y-77520000D02*
X132910000Y-78020000D01*
X132910000Y-82220000D02*
X137410000Y-82220000D01*
X133910000Y-83020000D02*
X132910000Y-83020000D01*
X132910000Y-81620000D02*
X132910000Y-82220000D01*
X146910000Y-82020000D02*
X146910000Y-83020000D01*
X132910000Y-69020000D02*
X133910000Y-69020000D01*
X145910000Y-69020000D02*
X146910000Y-69020000D01*
X146910000Y-69020000D02*
X146910000Y-70020000D01*
X141410000Y-79720000D02*
X138910000Y-79720000D01*
X138410000Y-84220000D02*
X137910000Y-83720000D01*
X132910000Y-70020000D02*
X132910000Y-69020000D01*
X141910000Y-83720000D02*
X141410000Y-84220000D01*
X137410000Y-78220000D02*
X137410000Y-77520000D01*
X141910000Y-80220000D02*
X141410000Y-79720000D01*
X132910000Y-83020000D02*
X132910000Y-82020000D01*
X138910000Y-79720000D02*
G75*
G02*
X137410000Y-78220000I0J1500000D01*
G01*
X137410000Y-82220000D02*
G75*
G02*
X137910000Y-82720000I0J-500000D01*
G01*
X164910000Y-85400000D02*
X163910000Y-85400000D01*
X164910000Y-71400000D02*
X164910000Y-72400000D01*
X159910000Y-86100000D02*
X159410000Y-86600000D01*
X163910000Y-71400000D02*
X164910000Y-71400000D01*
X150910000Y-85400000D02*
X150910000Y-84400000D01*
X155910000Y-85100000D02*
X155910000Y-86100000D01*
X156410000Y-86600000D02*
X155910000Y-86100000D01*
X150910000Y-71400000D02*
X151910000Y-71400000D01*
X150910000Y-84000000D02*
X150910000Y-84600000D01*
X151910000Y-85400000D02*
X150910000Y-85400000D01*
X150910000Y-72400000D02*
X150910000Y-71400000D01*
X150910000Y-84600000D02*
X155410000Y-84600000D01*
X164910000Y-84400000D02*
X164910000Y-85400000D01*
X159410000Y-86600000D02*
X156410000Y-86600000D01*
X159410000Y-82100000D02*
X156910000Y-82100000D01*
X155410000Y-80600000D02*
X155410000Y-79900000D01*
X159910000Y-82600000D02*
X159410000Y-82100000D01*
X155410000Y-79900000D02*
X150910000Y-79900000D01*
X150910000Y-79900000D02*
X150910000Y-80400000D01*
X156910000Y-82100000D02*
G75*
G02*
X155410000Y-80600000I0J1500000D01*
G01*
X155410000Y-84600000D02*
G75*
G02*
X155910000Y-85100000I0J-500000D01*
G01*
X78910000Y-98400000D02*
X78910000Y-97400000D01*
X92910000Y-111400000D02*
X91910000Y-111400000D01*
X84410000Y-112600000D02*
X83910000Y-112100000D01*
X78910000Y-97400000D02*
X79910000Y-97400000D01*
X92910000Y-97400000D02*
X92910000Y-98400000D01*
X83410000Y-105900000D02*
X78910000Y-105900000D01*
X78910000Y-105900000D02*
X78910000Y-106400000D01*
X78910000Y-110600000D02*
X83410000Y-110600000D01*
X79910000Y-111400000D02*
X78910000Y-111400000D01*
X87410000Y-112600000D02*
X84410000Y-112600000D01*
X92910000Y-110400000D02*
X92910000Y-111400000D01*
X87910000Y-112100000D02*
X87410000Y-112600000D01*
X83410000Y-106600000D02*
X83410000Y-105900000D01*
X78910000Y-111400000D02*
X78910000Y-110400000D01*
X78910000Y-110000000D02*
X78910000Y-110600000D01*
X91910000Y-97400000D02*
X92910000Y-97400000D01*
X83910000Y-111100000D02*
X83910000Y-112100000D01*
X87410000Y-108100000D02*
X84910000Y-108100000D01*
X87910000Y-108600000D02*
X87410000Y-108100000D01*
X84910000Y-108100000D02*
G75*
G02*
X83410000Y-106600000I0J1500000D01*
G01*
X83410000Y-110600000D02*
G75*
G02*
X83910000Y-111100000I0J-500000D01*
G01*
X105910000Y-96600000D02*
X105410000Y-96100000D01*
X101410000Y-93900000D02*
X96910000Y-93900000D01*
X105910000Y-100100000D02*
X105410000Y-100600000D01*
X105410000Y-96100000D02*
X102910000Y-96100000D01*
X97910000Y-99400000D02*
X96910000Y-99400000D01*
X96910000Y-93900000D02*
X96910000Y-94400000D01*
X96910000Y-98000000D02*
X96910000Y-98600000D01*
X96910000Y-98600000D02*
X101410000Y-98600000D01*
X101910000Y-99100000D02*
X101910000Y-100100000D01*
X110910000Y-85400000D02*
X110910000Y-86400000D01*
X101410000Y-94600000D02*
X101410000Y-93900000D01*
X96910000Y-85400000D02*
X97910000Y-85400000D01*
X110910000Y-98400000D02*
X110910000Y-99400000D01*
X96910000Y-99400000D02*
X96910000Y-98400000D01*
X110910000Y-99400000D02*
X109910000Y-99400000D01*
X96910000Y-86400000D02*
X96910000Y-85400000D01*
X102410000Y-100600000D02*
X101910000Y-100100000D01*
X109910000Y-85400000D02*
X110910000Y-85400000D01*
X105410000Y-100600000D02*
X102410000Y-100600000D01*
X102910000Y-96100000D02*
G75*
G02*
X101410000Y-94600000I0J1500000D01*
G01*
X101410000Y-98600000D02*
G75*
G02*
X101910000Y-99100000I0J-500000D01*
G01*
X123410000Y-90100000D02*
X120910000Y-90100000D01*
X123910000Y-90600000D02*
X123410000Y-90100000D01*
X120410000Y-94600000D02*
X119910000Y-94100000D01*
X114910000Y-92000000D02*
X114910000Y-92600000D01*
X114910000Y-93400000D02*
X114910000Y-92400000D01*
X115910000Y-93400000D02*
X114910000Y-93400000D01*
X114910000Y-79400000D02*
X115910000Y-79400000D01*
X128910000Y-93400000D02*
X127910000Y-93400000D01*
X123410000Y-94600000D02*
X120410000Y-94600000D01*
X114910000Y-92600000D02*
X119410000Y-92600000D01*
X128910000Y-79400000D02*
X128910000Y-80400000D01*
X119410000Y-88600000D02*
X119410000Y-87900000D01*
X128910000Y-92400000D02*
X128910000Y-93400000D01*
X119410000Y-87900000D02*
X114910000Y-87900000D01*
X127910000Y-79400000D02*
X128910000Y-79400000D01*
X119910000Y-93100000D02*
X119910000Y-94100000D01*
X123910000Y-94100000D02*
X123410000Y-94600000D01*
X114910000Y-80400000D02*
X114910000Y-79400000D01*
X114910000Y-87900000D02*
X114910000Y-88400000D01*
X119410000Y-92600000D02*
G75*
G02*
X119910000Y-93100000I0J-500000D01*
G01*
X120910000Y-90100000D02*
G75*
G02*
X119410000Y-88600000I0J1500000D01*
G01*
X141410000Y-101225000D02*
X138410000Y-101225000D01*
X145910000Y-86025000D02*
X146910000Y-86025000D01*
X132910000Y-100025000D02*
X132910000Y-99025000D01*
X141910000Y-97225000D02*
X141410000Y-96725000D01*
X132910000Y-86025000D02*
X133910000Y-86025000D01*
X137410000Y-94525000D02*
X132910000Y-94525000D01*
X146910000Y-99025000D02*
X146910000Y-100025000D01*
X137910000Y-99725000D02*
X137910000Y-100725000D01*
X132910000Y-87025000D02*
X132910000Y-86025000D01*
X141910000Y-100725000D02*
X141410000Y-101225000D01*
X146910000Y-86025000D02*
X146910000Y-87025000D01*
X146910000Y-100025000D02*
X145910000Y-100025000D01*
X138410000Y-101225000D02*
X137910000Y-100725000D01*
X137410000Y-95225000D02*
X137410000Y-94525000D01*
X133910000Y-100025000D02*
X132910000Y-100025000D01*
X132910000Y-94525000D02*
X132910000Y-95025000D01*
X141410000Y-96725000D02*
X138910000Y-96725000D01*
X132910000Y-98625000D02*
X132910000Y-99225000D01*
X132910000Y-99225000D02*
X137410000Y-99225000D01*
X137410000Y-99225000D02*
G75*
G02*
X137910000Y-99725000I0J-500000D01*
G01*
X138910000Y-96725000D02*
G75*
G02*
X137410000Y-95225000I0J1500000D01*
G01*
X150910000Y-101600000D02*
X155410000Y-101600000D01*
X159910000Y-99600000D02*
X159410000Y-99100000D01*
X164910000Y-101400000D02*
X164910000Y-102400000D01*
X155410000Y-97600000D02*
X155410000Y-96900000D01*
X150910000Y-101000000D02*
X150910000Y-101600000D01*
X159410000Y-103600000D02*
X156410000Y-103600000D01*
X155410000Y-96900000D02*
X150910000Y-96900000D01*
X159410000Y-99100000D02*
X156910000Y-99100000D01*
X150910000Y-96900000D02*
X150910000Y-97400000D01*
X163910000Y-88400000D02*
X164910000Y-88400000D01*
X164910000Y-88400000D02*
X164910000Y-89400000D01*
X155910000Y-102100000D02*
X155910000Y-103100000D01*
X159910000Y-103100000D02*
X159410000Y-103600000D01*
X150910000Y-89400000D02*
X150910000Y-88400000D01*
X156410000Y-103600000D02*
X155910000Y-103100000D01*
X150910000Y-102400000D02*
X150910000Y-101400000D01*
X150910000Y-88400000D02*
X151910000Y-88400000D01*
X151910000Y-102400000D02*
X150910000Y-102400000D01*
X164910000Y-102400000D02*
X163910000Y-102400000D01*
X155410000Y-101600000D02*
G75*
G02*
X155910000Y-102100000I0J-500000D01*
G01*
X156910000Y-99100000D02*
G75*
G02*
X155410000Y-97600000I0J1500000D01*
G01*
X135510000Y-104790000D02*
X136010000Y-105290000D01*
X141010000Y-107390000D02*
X141010000Y-106790000D01*
X141010000Y-106790000D02*
X136510000Y-106790000D01*
X140010000Y-105990000D02*
X141010000Y-105990000D01*
X132010000Y-108790000D02*
X132510000Y-109290000D01*
X141010000Y-105990000D02*
X141010000Y-106990000D01*
X141010000Y-118990000D02*
X141010000Y-119990000D01*
X132510000Y-104790000D02*
X135510000Y-104790000D01*
X127010000Y-119990000D02*
X127010000Y-118990000D01*
X132510000Y-109290000D02*
X135010000Y-109290000D01*
X141010000Y-111490000D02*
X141010000Y-110990000D01*
X132010000Y-105290000D02*
X132510000Y-104790000D01*
X141010000Y-119990000D02*
X140010000Y-119990000D01*
X136510000Y-110790000D02*
X136510000Y-111490000D01*
X127010000Y-105990000D02*
X128010000Y-105990000D01*
X128010000Y-119990000D02*
X127010000Y-119990000D01*
X127010000Y-106990000D02*
X127010000Y-105990000D01*
X136010000Y-106290000D02*
X136010000Y-105290000D01*
X136510000Y-111490000D02*
X141010000Y-111490000D01*
X136510000Y-106790000D02*
G75*
G02*
X136010000Y-106290000I0J500000D01*
G01*
X135010000Y-109290000D02*
G75*
G02*
X136510000Y-110790000I0J-1500000D01*
G01*
X157044216Y-114102011D02*
X156863043Y-114778159D01*
X149110253Y-107006786D02*
X150076178Y-107265605D01*
X159268567Y-123187288D02*
X159009747Y-124153214D01*
X162426159Y-111402993D02*
X158079493Y-110238307D01*
X162270867Y-111982549D02*
X162426159Y-111402993D01*
X146452712Y-120788567D02*
X145486786Y-120529747D01*
X161667288Y-110371433D02*
X162633214Y-110630253D01*
X154733427Y-107271180D02*
X157631205Y-108047637D01*
X162633214Y-110630253D02*
X162374395Y-111596178D01*
X159009747Y-124153214D02*
X158043822Y-123894395D01*
X157725939Y-109625935D02*
X157984758Y-108660009D01*
X153215188Y-111005473D02*
X153568742Y-111617846D01*
X157631205Y-108047637D02*
X157984758Y-108660009D01*
X148851433Y-107972712D02*
X149110253Y-107006786D01*
X161209709Y-115942845D02*
X161339119Y-115459882D01*
X154121055Y-107624733D02*
X154733427Y-107271180D01*
X153568742Y-111617846D02*
X155983556Y-112264893D01*
X156863043Y-114778159D02*
X161209709Y-115942845D01*
X145486786Y-120529747D02*
X145745605Y-119563822D01*
X158079492Y-110238308D02*
G75*
G02*
X157725939Y-109625935I129410J482963D01*
G01*
X155983557Y-112264894D02*
G75*
G02*
X157044216Y-114102011I-388229J-1448888D01*
G01*
X165963848Y-121852178D02*
X165097822Y-121352178D01*
X170705706Y-118239038D02*
X171955706Y-116073975D01*
X176860962Y-111977822D02*
X176427949Y-111727822D01*
X174610962Y-115874936D02*
X176860962Y-111977822D01*
X177222178Y-128352178D02*
X176356152Y-127852178D01*
X166991604Y-116672051D02*
X166808592Y-115989038D01*
X184222178Y-116227822D02*
X183722178Y-117093848D01*
X170022693Y-118422051D02*
X170705706Y-118239038D01*
X172097822Y-109227822D02*
X172963848Y-109727822D01*
X166808592Y-115989038D02*
X168308592Y-113390962D01*
X172790642Y-109627822D02*
X170540642Y-113524936D01*
X173310258Y-109927822D02*
X172790642Y-109627822D01*
X177722178Y-127486152D02*
X177222178Y-128352178D01*
X174004744Y-115524936D02*
X174610962Y-115874936D01*
X171597822Y-110093848D02*
X172097822Y-109227822D01*
X169857630Y-113707949D02*
X168991604Y-113207949D01*
X165097822Y-121352178D02*
X165597822Y-120486152D01*
X168308592Y-113390962D02*
X168991604Y-113207949D01*
X183356152Y-115727822D02*
X184222178Y-116227822D01*
X171955705Y-116073975D02*
G75*
G02*
X174004744Y-115524936I1299039J-750000D01*
G01*
X170540643Y-113524936D02*
G75*
G02*
X169857630Y-113707949I-433013J250000D01*
G01*
X168350000Y-57600400D02*
X170890000Y-57600400D01*
X186130000Y-88080400D02*
X183590000Y-88080400D01*
X170890000Y-57600400D02*
X170890000Y-88080400D01*
X183590000Y-57600400D02*
X186130000Y-57600400D01*
X183590000Y-88080400D02*
X183590000Y-57600400D01*
X186130000Y-57600400D02*
X186130000Y-88080400D01*
X168350000Y-88080400D02*
X168350000Y-57600400D01*
X170890000Y-88080400D02*
X168350000Y-88080400D01*
X172660000Y-91878400D02*
X172660000Y-89338400D01*
X172660000Y-89338400D02*
X182820000Y-89338400D01*
X182820000Y-89338400D02*
X182820000Y-91878400D01*
X182820000Y-91878400D02*
X172660000Y-91878400D01*
X179753000Y-92103000D02*
X185753000Y-92103000D01*
X185753000Y-95353000D02*
X185753000Y-95603000D01*
X185753000Y-95603000D02*
X179753000Y-95603000D01*
X179753000Y-95603000D02*
X179753000Y-95353000D01*
X185753000Y-92103000D02*
X185753000Y-92353000D01*
X179753000Y-92353000D02*
X179753000Y-92103000D01*
X177369000Y-86835400D02*
X175591000Y-86835400D01*
X175591000Y-89121400D02*
X177369000Y-89121400D01*
X177369000Y-89121400D02*
X177369000Y-86835400D01*
X175591000Y-86835400D02*
X175591000Y-89121400D01*
X174819000Y-86865000D02*
X173041000Y-86865000D01*
X173041000Y-86865000D02*
X173041000Y-89151000D01*
X174819000Y-89151000D02*
X174819000Y-86865000D01*
X173041000Y-89151000D02*
X174819000Y-89151000D01*
X180751000Y-89071400D02*
X182529000Y-89071400D01*
X182529000Y-86785400D02*
X180751000Y-86785400D01*
X182529000Y-89071400D02*
X182529000Y-86785400D01*
X180751000Y-86785400D02*
X180751000Y-89071400D01*
X178171000Y-86805400D02*
X178171000Y-89091400D01*
X179949000Y-89091400D02*
X179949000Y-86805400D01*
X178171000Y-89091400D02*
X179949000Y-89091400D01*
X179949000Y-86805400D02*
X178171000Y-86805400D01*
G36*
X180162602Y-71087701D02*
G01*
X180199432Y-71124428D01*
X180192083Y-71169725D01*
X180180769Y-71179590D01*
X180130599Y-71188570D01*
X180108283Y-71138455D01*
X180112130Y-71113413D01*
X180142476Y-71083949D01*
X180162602Y-71087701D01*
G37*
G36*
X182615656Y-75107831D02*
G01*
X182588267Y-75161616D01*
X182527945Y-75284933D01*
X182486031Y-75377771D01*
X182470305Y-75423245D01*
X182466933Y-75435212D01*
X182434958Y-75500136D01*
X182376451Y-75603456D01*
X182300331Y-75729122D01*
X182214851Y-75857635D01*
X182027504Y-76102110D01*
X181814901Y-76343022D01*
X181595857Y-76559678D01*
X181389184Y-76731382D01*
X181162074Y-76897819D01*
X181161518Y-77106835D01*
X181158511Y-77196059D01*
X181146609Y-77303947D01*
X181128847Y-77366569D01*
X181099570Y-77396365D01*
X181045166Y-77397801D01*
X180999533Y-77349035D01*
X180980386Y-77262486D01*
X180973847Y-77207462D01*
X180937395Y-77155464D01*
X180885295Y-77165141D01*
X180836430Y-77239509D01*
X180796957Y-77307519D01*
X180721073Y-77384270D01*
X180709910Y-77391435D01*
X180671975Y-77407670D01*
X180615976Y-77419276D01*
X180532820Y-77426580D01*
X180413413Y-77429909D01*
X180248662Y-77429591D01*
X180029471Y-77425952D01*
X179746748Y-77419320D01*
X179563132Y-77414150D01*
X179330976Y-77405976D01*
X179130059Y-77397018D01*
X178970736Y-77387816D01*
X178863363Y-77378911D01*
X178818297Y-77370843D01*
X178796103Y-77359832D01*
X178740266Y-77342752D01*
X178646111Y-77320838D01*
X178505292Y-77292326D01*
X178309466Y-77255450D01*
X178050289Y-77208447D01*
X178030465Y-77204798D01*
X177865768Y-77168454D01*
X177710559Y-77125160D01*
X177596068Y-77083508D01*
X177549688Y-77063108D01*
X177310993Y-76973391D01*
X177055665Y-76898093D01*
X176810351Y-76844301D01*
X176601702Y-76819101D01*
X176347339Y-76807125D01*
X176329170Y-77107324D01*
X176325796Y-77156882D01*
X176313112Y-77284784D01*
X176298244Y-77373817D01*
X176283748Y-77407109D01*
X176281046Y-77407070D01*
X176220157Y-77406696D01*
X176210540Y-77401237D01*
X176190819Y-77346600D01*
X176182229Y-77252261D01*
X176179366Y-77202554D01*
X176156508Y-77058706D01*
X176118638Y-76918182D01*
X176077107Y-76815437D01*
X176025689Y-76745782D01*
X175956879Y-76712429D01*
X175852911Y-76667498D01*
X175715558Y-76571885D01*
X175585515Y-76448998D01*
X175486164Y-76318406D01*
X175339026Y-76087401D01*
X175147942Y-75831244D01*
X174958819Y-75624351D01*
X174778003Y-75473491D01*
X174611840Y-75385436D01*
X174525063Y-75338186D01*
X174462394Y-75240086D01*
X174417347Y-75113368D01*
X174297435Y-74874169D01*
X174122320Y-74612822D01*
X174077559Y-74547231D01*
X174034153Y-74465845D01*
X174026023Y-74420066D01*
X174027509Y-74415779D01*
X174033415Y-74355682D01*
X174038074Y-74236934D01*
X174041248Y-74070963D01*
X174042698Y-73869199D01*
X174042188Y-73643071D01*
X174040425Y-73439036D01*
X174036808Y-73228370D01*
X174030728Y-73068928D01*
X174021139Y-72948574D01*
X174006992Y-72855175D01*
X173987241Y-72776594D01*
X173960838Y-72700698D01*
X173928684Y-72625229D01*
X173874894Y-72534306D01*
X173832315Y-72503261D01*
X174112575Y-72503261D01*
X174113615Y-72511373D01*
X174148912Y-72537454D01*
X174166278Y-72530521D01*
X174185250Y-72480803D01*
X174180021Y-72454848D01*
X174148912Y-72446610D01*
X174138988Y-72454047D01*
X174112575Y-72503261D01*
X173832315Y-72503261D01*
X173829373Y-72501116D01*
X173798615Y-72490607D01*
X173725009Y-72439193D01*
X173639436Y-72359363D01*
X173607088Y-72324710D01*
X173550007Y-72252991D01*
X173515854Y-72179421D01*
X173495901Y-72080417D01*
X173487882Y-71998446D01*
X174094406Y-71998446D01*
X174098618Y-72017016D01*
X174143298Y-72057137D01*
X174170651Y-72057391D01*
X174179636Y-72012824D01*
X174152569Y-71965224D01*
X174113942Y-71957556D01*
X174094406Y-71998446D01*
X173487882Y-71998446D01*
X173481421Y-71932395D01*
X173480519Y-71921284D01*
X173471696Y-71813489D01*
X173821874Y-71813489D01*
X173822034Y-71819692D01*
X173830958Y-71843271D01*
X173839543Y-71839801D01*
X173897463Y-71816571D01*
X173989657Y-71779680D01*
X174012699Y-71770329D01*
X174092437Y-71730784D01*
X174119761Y-71692347D01*
X174108925Y-71638098D01*
X174081847Y-71586236D01*
X174044301Y-71556338D01*
X174023315Y-71565179D01*
X173965649Y-71615117D01*
X173899314Y-71688802D01*
X173844619Y-71762753D01*
X173821874Y-71813489D01*
X173471696Y-71813489D01*
X173459968Y-71670197D01*
X173443477Y-71481584D01*
X173429216Y-71345860D01*
X173415357Y-71253439D01*
X173400069Y-71194737D01*
X173399688Y-71194026D01*
X173586011Y-71194026D01*
X173600461Y-71300912D01*
X173626368Y-71406749D01*
X173658255Y-71487718D01*
X173690643Y-71520000D01*
X173703616Y-71517721D01*
X173771142Y-71486105D01*
X173858211Y-71429156D01*
X173974956Y-71365622D01*
X174103476Y-71338312D01*
X174169881Y-71343017D01*
X174219796Y-71368206D01*
X174264041Y-71429508D01*
X174319107Y-71542541D01*
X174353216Y-71620112D01*
X174378350Y-71692347D01*
X174380243Y-71697787D01*
X174396053Y-71779489D01*
X174402579Y-71882357D01*
X174401818Y-72012824D01*
X174401755Y-72023534D01*
X174395512Y-72220162D01*
X174387385Y-72408873D01*
X174382202Y-72480803D01*
X174376924Y-72554049D01*
X174362991Y-72649390D01*
X174343800Y-72706767D01*
X174317563Y-72738052D01*
X174301747Y-72753103D01*
X174272758Y-72813834D01*
X174253029Y-72920714D01*
X174239606Y-73086969D01*
X174233014Y-73195588D01*
X174219572Y-73394708D01*
X174203574Y-73614174D01*
X174187217Y-73823079D01*
X174182683Y-73879033D01*
X174170211Y-74063614D01*
X174170485Y-74199422D01*
X174188392Y-74305335D01*
X174228820Y-74400234D01*
X174296660Y-74502999D01*
X174396797Y-74632508D01*
X174461645Y-74718609D01*
X174545015Y-74840487D01*
X174602822Y-74938316D01*
X174603999Y-74940596D01*
X174656194Y-75015600D01*
X174748430Y-75125056D01*
X174868021Y-75254623D01*
X175002282Y-75389957D01*
X175188055Y-75582496D01*
X175386367Y-75816315D01*
X175546005Y-76037093D01*
X175559563Y-76057969D01*
X175670552Y-76218680D01*
X175774709Y-76341163D01*
X175885269Y-76432438D01*
X176015465Y-76499519D01*
X176178531Y-76549426D01*
X176387701Y-76589174D01*
X176656208Y-76625783D01*
X176818495Y-76649008D01*
X177256622Y-76748877D01*
X177668759Y-76902541D01*
X177689374Y-76911204D01*
X177813952Y-76952314D01*
X177974343Y-76993626D01*
X178141148Y-77027371D01*
X178167746Y-77032021D01*
X178366520Y-77071127D01*
X178585512Y-77119885D01*
X178781960Y-77168853D01*
X179011403Y-77218892D01*
X179303603Y-77261697D01*
X179613405Y-77290120D01*
X179912487Y-77301616D01*
X180172523Y-77293645D01*
X180261245Y-77294576D01*
X180377242Y-77311708D01*
X180428267Y-77320246D01*
X180483084Y-77307987D01*
X180544373Y-77259785D01*
X180630956Y-77164736D01*
X180695104Y-77092080D01*
X180866939Y-76910467D01*
X181039253Y-76744624D01*
X181197114Y-76608496D01*
X181325593Y-76516027D01*
X181443181Y-76431250D01*
X181619860Y-76264630D01*
X181803371Y-76052866D01*
X181983232Y-75809380D01*
X182148959Y-75547598D01*
X182290070Y-75280945D01*
X182329409Y-75199215D01*
X182402952Y-75052807D01*
X182467368Y-74932168D01*
X182512091Y-74857452D01*
X182535817Y-74816655D01*
X182554647Y-74760485D01*
X182567205Y-74680407D01*
X182574691Y-74564233D01*
X182578304Y-74399774D01*
X182579241Y-74174844D01*
X182579045Y-74072395D01*
X182576581Y-73867810D01*
X182570498Y-73719682D01*
X182559799Y-73616519D01*
X182543484Y-73546830D01*
X182520556Y-73499122D01*
X182482389Y-73446242D01*
X182437231Y-73410662D01*
X182411505Y-73438979D01*
X182403930Y-73533558D01*
X182413222Y-73696759D01*
X182421649Y-73816891D01*
X182420154Y-73938826D01*
X182399485Y-73999704D01*
X182356814Y-74005590D01*
X182289312Y-73962553D01*
X182283875Y-73958027D01*
X182245070Y-73912491D01*
X182218052Y-73844047D01*
X182198220Y-73736116D01*
X182180972Y-73572118D01*
X182174927Y-73508363D01*
X182157856Y-73361153D01*
X182140093Y-73244733D01*
X182124633Y-73179948D01*
X182123461Y-73177401D01*
X182076676Y-73124141D01*
X181986710Y-73050499D01*
X181871917Y-72971606D01*
X181717649Y-72860750D01*
X181620451Y-72760105D01*
X181585395Y-72675294D01*
X181615598Y-72610707D01*
X181646405Y-72599147D01*
X181732017Y-72620280D01*
X181860212Y-72694696D01*
X182033161Y-72823500D01*
X182036466Y-72826109D01*
X182106329Y-72869614D01*
X182151258Y-72877675D01*
X182158181Y-72872149D01*
X182180366Y-72807109D01*
X182174904Y-72699857D01*
X182145895Y-72569854D01*
X182097439Y-72436558D01*
X182033637Y-72319428D01*
X182031936Y-72316921D01*
X181982824Y-72236998D01*
X181915320Y-72118347D01*
X181843507Y-71985685D01*
X181841382Y-71981658D01*
X181767854Y-71846617D01*
X181697413Y-71724207D01*
X181645034Y-71640478D01*
X181643493Y-71638199D01*
X181604034Y-71570326D01*
X181539728Y-71449805D01*
X181456803Y-71288718D01*
X181361483Y-71099148D01*
X181259994Y-70893176D01*
X181244870Y-70862257D01*
X181147612Y-70667627D01*
X181059891Y-70498991D01*
X180987119Y-70366263D01*
X180934703Y-70279356D01*
X180908054Y-70248184D01*
X180894375Y-70251984D01*
X180833813Y-70290964D01*
X180755281Y-70358495D01*
X180722922Y-70387098D01*
X180645179Y-70438542D01*
X180591662Y-70450314D01*
X180587712Y-70448950D01*
X180524485Y-70449384D01*
X180420481Y-70481432D01*
X180265105Y-70548271D01*
X180203208Y-70565762D01*
X180105446Y-70563951D01*
X180079331Y-70559413D01*
X180031147Y-70563251D01*
X179964895Y-70584815D01*
X179869429Y-70628882D01*
X179733603Y-70700229D01*
X179546274Y-70803634D01*
X179471811Y-70853446D01*
X179409412Y-70924644D01*
X179371144Y-71020845D01*
X179354443Y-71153633D01*
X179356744Y-71334591D01*
X179375484Y-71575304D01*
X179389457Y-71711115D01*
X179417169Y-71906758D01*
X179454032Y-72057763D01*
X179506616Y-72182094D01*
X179581486Y-72297717D01*
X179685209Y-72422596D01*
X179841937Y-72621924D01*
X179964866Y-72848337D01*
X180017248Y-73061909D01*
X179999436Y-73263588D01*
X179969866Y-73348199D01*
X179900357Y-73439054D01*
X179802223Y-73464322D01*
X179669987Y-73426714D01*
X179652126Y-73418733D01*
X179577282Y-73390398D01*
X179509939Y-73382434D01*
X179424369Y-73394926D01*
X179294842Y-73427959D01*
X179118409Y-73466367D01*
X178893750Y-73477864D01*
X178709884Y-73434324D01*
X178562154Y-73335157D01*
X178437303Y-73214146D01*
X178318930Y-73277004D01*
X178316192Y-73278459D01*
X178207060Y-73337687D01*
X178109713Y-73392343D01*
X178058506Y-73417364D01*
X177917593Y-73449181D01*
X177781396Y-73436147D01*
X177669945Y-73382251D01*
X177603272Y-73291481D01*
X177579036Y-73215094D01*
X177570748Y-73146056D01*
X177588162Y-73076975D01*
X177636699Y-72988088D01*
X177721783Y-72859633D01*
X177732610Y-72843620D01*
X177810751Y-72723647D01*
X177872142Y-72622126D01*
X177904297Y-72559584D01*
X177906776Y-72550489D01*
X177915830Y-72474088D01*
X177923255Y-72344557D01*
X177928338Y-72177469D01*
X177930370Y-71988399D01*
X177930299Y-71807401D01*
X177926308Y-71646477D01*
X177913095Y-71524824D01*
X177885400Y-71424379D01*
X177837965Y-71327080D01*
X177765528Y-71214865D01*
X177662831Y-71069673D01*
X177602727Y-70992198D01*
X177452170Y-70855340D01*
X177288886Y-70786680D01*
X177106909Y-70783143D01*
X177101806Y-70783782D01*
X177009784Y-70782545D01*
X176876471Y-70767408D01*
X176728884Y-70741358D01*
X176660743Y-70728519D01*
X176451538Y-70701896D01*
X176226214Y-70687986D01*
X176006628Y-70687112D01*
X175814640Y-70699596D01*
X175672106Y-70725761D01*
X175509715Y-70742716D01*
X175358337Y-70689973D01*
X175218633Y-70565934D01*
X175173382Y-70506364D01*
X175144167Y-70431183D01*
X175178641Y-70386802D01*
X175278437Y-70367819D01*
X175287599Y-70367254D01*
X175391902Y-70360391D01*
X175536586Y-70350418D01*
X175693261Y-70339286D01*
X175848674Y-70334238D01*
X176056591Y-70341289D01*
X176238326Y-70361371D01*
X176374676Y-70380506D01*
X176538156Y-70395395D01*
X176669282Y-70399027D01*
X176745414Y-70400651D01*
X176903468Y-70417841D01*
X177056072Y-70448079D01*
X177149682Y-70470489D01*
X177267903Y-70493591D01*
X177346292Y-70502547D01*
X177416162Y-70520842D01*
X177528068Y-70592877D01*
X177654430Y-70707952D01*
X177785141Y-70853604D01*
X177910094Y-71017372D01*
X178019181Y-71186792D01*
X178102295Y-71349400D01*
X178149329Y-71492736D01*
X178152072Y-71508208D01*
X178163646Y-71634756D01*
X178168124Y-71808628D01*
X178166194Y-72009836D01*
X178158544Y-72218390D01*
X178145863Y-72414298D01*
X178128839Y-72577572D01*
X178108160Y-72688221D01*
X178089688Y-72733916D01*
X178028778Y-72837734D01*
X177948582Y-72944227D01*
X177899409Y-73006649D01*
X177841562Y-73098223D01*
X177819012Y-73161734D01*
X177827415Y-73195626D01*
X177878852Y-73225856D01*
X177960800Y-73214809D01*
X178054264Y-73162428D01*
X178132921Y-73112191D01*
X178271241Y-73054299D01*
X178411538Y-73021853D01*
X178523633Y-73023770D01*
X178542678Y-73029925D01*
X178634868Y-73080591D01*
X178727973Y-73155702D01*
X178753097Y-73178384D01*
X178895749Y-73252269D01*
X179068631Y-73261168D01*
X179273148Y-73205208D01*
X179381563Y-73173275D01*
X179603996Y-73163832D01*
X179661340Y-73168161D01*
X179762625Y-73163602D01*
X179804922Y-73135773D01*
X179804345Y-73095572D01*
X179773317Y-73002688D01*
X179716326Y-72883592D01*
X179643478Y-72756942D01*
X179564883Y-72641399D01*
X179490649Y-72555623D01*
X179389779Y-72443474D01*
X179301889Y-72296427D01*
X179237863Y-72117105D01*
X179195182Y-71895737D01*
X179171327Y-71622554D01*
X179163779Y-71287786D01*
X179165028Y-71112673D01*
X179171163Y-70967272D01*
X179184571Y-70861323D01*
X179207606Y-70777205D01*
X179242621Y-70697300D01*
X179278155Y-70632338D01*
X179338888Y-70560091D01*
X179404430Y-70538885D01*
X179501576Y-70525450D01*
X179624559Y-70465690D01*
X179703783Y-70371358D01*
X179744272Y-70314370D01*
X179802142Y-70284521D01*
X179846752Y-70268510D01*
X179931420Y-70214498D01*
X180030032Y-70135545D01*
X180112009Y-70066175D01*
X180189344Y-70016307D01*
X180261091Y-69999009D01*
X180352881Y-70003823D01*
X180473570Y-70005258D01*
X180546823Y-69972653D01*
X180591726Y-69945497D01*
X180692854Y-69945398D01*
X180698973Y-69946608D01*
X180751082Y-69953983D01*
X180784417Y-69947620D01*
X180796709Y-69920356D01*
X180785690Y-69865027D01*
X180749094Y-69774469D01*
X180684652Y-69641518D01*
X180590097Y-69459010D01*
X180463161Y-69219782D01*
X180448834Y-69194515D01*
X180375686Y-69092441D01*
X180301481Y-69019925D01*
X180273596Y-68999887D01*
X180177973Y-68927879D01*
X180074557Y-68846775D01*
X180043119Y-68822399D01*
X179955930Y-68764660D01*
X179852569Y-68712719D01*
X179719375Y-68661035D01*
X179542691Y-68604072D01*
X179308855Y-68536289D01*
X179296328Y-68532783D01*
X179174131Y-68501134D01*
X179060258Y-68478597D01*
X178938511Y-68463694D01*
X178792695Y-68454945D01*
X178606616Y-68450871D01*
X178364077Y-68449992D01*
X178154728Y-68451516D01*
X177910538Y-68459669D01*
X177714589Y-68477485D01*
X177552650Y-68507890D01*
X177410492Y-68553807D01*
X177273884Y-68618161D01*
X177128598Y-68703876D01*
X177116359Y-68711585D01*
X177007361Y-68778618D01*
X176909367Y-68833970D01*
X176806556Y-68885050D01*
X176683106Y-68939268D01*
X176523195Y-69004034D01*
X176311001Y-69086757D01*
X176247996Y-69111206D01*
X176043968Y-69192699D01*
X175872537Y-69267086D01*
X175718528Y-69342749D01*
X175566768Y-69428072D01*
X175402082Y-69531439D01*
X175209296Y-69661231D01*
X174973237Y-69825833D01*
X174967506Y-69829864D01*
X174783712Y-69959077D01*
X174616189Y-70076755D01*
X174475730Y-70175326D01*
X174373123Y-70247217D01*
X174319160Y-70284855D01*
X174293989Y-70303578D01*
X174197939Y-70388163D01*
X174079848Y-70505232D01*
X173952116Y-70640970D01*
X173827141Y-70781561D01*
X173717321Y-70913190D01*
X173635055Y-71022041D01*
X173592742Y-71094299D01*
X173588497Y-71109909D01*
X173586011Y-71194026D01*
X173399688Y-71194026D01*
X173381522Y-71160167D01*
X173357889Y-71140146D01*
X173327339Y-71125086D01*
X173291435Y-71105499D01*
X173258412Y-71065509D01*
X173243779Y-70994278D01*
X173240472Y-70871152D01*
X173239399Y-70812233D01*
X173223017Y-70680612D01*
X173185965Y-70611560D01*
X173180795Y-70606728D01*
X173144975Y-70531435D01*
X173130999Y-70416338D01*
X173126976Y-70363967D01*
X173104789Y-70234506D01*
X173067585Y-70073109D01*
X173020362Y-69902976D01*
X172970556Y-69737921D01*
X172918696Y-69560595D01*
X172883083Y-69426064D01*
X172860643Y-69318934D01*
X172848303Y-69223817D01*
X172842988Y-69125322D01*
X172841625Y-69008058D01*
X172835569Y-68864979D01*
X172816239Y-68712057D01*
X172787346Y-68603046D01*
X172782429Y-68590519D01*
X172748823Y-68461566D01*
X172719137Y-68272658D01*
X172694347Y-68034918D01*
X172675427Y-67759471D01*
X172663353Y-67457438D01*
X172659100Y-67139944D01*
X172659197Y-67008701D01*
X172845150Y-67008701D01*
X172848195Y-67189694D01*
X172854682Y-67432018D01*
X172862650Y-67649136D01*
X172873741Y-67859012D01*
X172886673Y-68038429D01*
X172900426Y-68173320D01*
X172913980Y-68249614D01*
X172928337Y-68315803D01*
X172946519Y-68447215D01*
X172962920Y-68613762D01*
X172975208Y-68794679D01*
X172976096Y-68811438D01*
X172989015Y-68997484D01*
X173008532Y-69154579D01*
X173039489Y-69306932D01*
X173086724Y-69478750D01*
X173155080Y-69694241D01*
X173168995Y-69737119D01*
X173225473Y-69921656D01*
X173271253Y-70087917D01*
X173301941Y-70219114D01*
X173313147Y-70298458D01*
X173313261Y-70306678D01*
X173330349Y-70428770D01*
X173367653Y-70551449D01*
X173373295Y-70565445D01*
X173407985Y-70678258D01*
X173422160Y-70773912D01*
X173427122Y-70830304D01*
X173453877Y-70860429D01*
X173506631Y-70827162D01*
X173588557Y-70729657D01*
X173690697Y-70607569D01*
X173836749Y-70453818D01*
X174000613Y-70295543D01*
X174161417Y-70152854D01*
X174298291Y-70045859D01*
X174357844Y-70003836D01*
X174483000Y-69914443D01*
X174632252Y-69806984D01*
X174784821Y-69696386D01*
X174819724Y-69671059D01*
X175108283Y-69468927D01*
X175370689Y-69301623D01*
X175626364Y-69159032D01*
X175894727Y-69031039D01*
X176195197Y-68907526D01*
X176547196Y-68778379D01*
X176662948Y-68732852D01*
X176831771Y-68654460D01*
X176974548Y-68575742D01*
X177031913Y-68538836D01*
X177116192Y-68477854D01*
X177147913Y-68443549D01*
X177124268Y-68440206D01*
X177042449Y-68472112D01*
X177008281Y-68485180D01*
X176893035Y-68487410D01*
X176786701Y-68419384D01*
X176730363Y-68340458D01*
X177346623Y-68340458D01*
X177364792Y-68358627D01*
X177382961Y-68340458D01*
X177364792Y-68322289D01*
X177346623Y-68340458D01*
X176730363Y-68340458D01*
X176687186Y-68279969D01*
X176655947Y-68229031D01*
X176589993Y-68148056D01*
X176534508Y-68110487D01*
X176521421Y-68108722D01*
X176414130Y-68121896D01*
X176273072Y-68169409D01*
X176118226Y-68242083D01*
X175969568Y-68330743D01*
X175847078Y-68426215D01*
X175767972Y-68497537D01*
X175696187Y-68549838D01*
X175643046Y-68564460D01*
X175590865Y-68549942D01*
X175585607Y-68547205D01*
X175526008Y-68490136D01*
X175451627Y-68388012D01*
X175374505Y-68260550D01*
X175306682Y-68127466D01*
X175260197Y-68008473D01*
X175259885Y-68007416D01*
X175269233Y-67920649D01*
X175331204Y-67818946D01*
X175432937Y-67718266D01*
X175561566Y-67634568D01*
X175658116Y-67598985D01*
X175801400Y-67564718D01*
X175954185Y-67541883D01*
X176092100Y-67523603D01*
X176209428Y-67491938D01*
X176277598Y-67446943D01*
X176299631Y-67420143D01*
X176313075Y-67382950D01*
X176300536Y-67333115D01*
X176256988Y-67254865D01*
X176177406Y-67132424D01*
X176043553Y-66910977D01*
X175958062Y-66719843D01*
X175929456Y-66572203D01*
X175939889Y-66538631D01*
X176004483Y-66480634D01*
X176133834Y-66414106D01*
X176229863Y-66373837D01*
X176328781Y-66337661D01*
X176385410Y-66323720D01*
X176386896Y-66323736D01*
X176467422Y-66356211D01*
X176564878Y-66442236D01*
X176667270Y-66569084D01*
X176762606Y-66724028D01*
X176762684Y-66724174D01*
X176829725Y-66838940D01*
X176891592Y-66926181D01*
X176934901Y-66967021D01*
X176979844Y-66969569D01*
X177078252Y-66954756D01*
X177199706Y-66923765D01*
X177294403Y-66897931D01*
X177419083Y-66880196D01*
X177514943Y-66894289D01*
X177587620Y-66937766D01*
X177683424Y-67024349D01*
X177783934Y-67135060D01*
X177874216Y-67251999D01*
X177939337Y-67357268D01*
X177964363Y-67432965D01*
X177960003Y-67466650D01*
X177902812Y-67563184D01*
X177787879Y-67652770D01*
X177626094Y-67725976D01*
X177568313Y-67747224D01*
X177478883Y-67787565D01*
X177434287Y-67818709D01*
X177440973Y-67860462D01*
X177481479Y-67943692D01*
X177547244Y-68048521D01*
X177606833Y-68143646D01*
X177649687Y-68235159D01*
X177654825Y-68287033D01*
X177653938Y-68293569D01*
X177678704Y-68305582D01*
X177745479Y-68314096D01*
X177860387Y-68319315D01*
X178029553Y-68321447D01*
X178259102Y-68320695D01*
X178555160Y-68317267D01*
X178742203Y-68314777D01*
X178988981Y-68312452D01*
X179177344Y-68312548D01*
X179316065Y-68315475D01*
X179413918Y-68321641D01*
X179479678Y-68331455D01*
X179507220Y-68340458D01*
X179522118Y-68345328D01*
X179550015Y-68363667D01*
X179552735Y-68365996D01*
X179637702Y-68414652D01*
X179744907Y-68449861D01*
X179760773Y-68453465D01*
X179885099Y-68492740D01*
X180008354Y-68545488D01*
X180053194Y-68567107D01*
X180120079Y-68588946D01*
X180136679Y-68568852D01*
X180103275Y-68503048D01*
X180020151Y-68387753D01*
X179989856Y-68344946D01*
X179902784Y-68201108D01*
X179791773Y-67995481D01*
X179658855Y-67732043D01*
X179506064Y-67414774D01*
X179335432Y-67047653D01*
X179327787Y-67031112D01*
X179250146Y-66875667D01*
X179167179Y-66727000D01*
X179095596Y-66615234D01*
X179053161Y-66553451D01*
X179001843Y-66466600D01*
X178981816Y-66414012D01*
X178967201Y-66362756D01*
X178901801Y-66271025D01*
X178797640Y-66172697D01*
X178669854Y-66083792D01*
X178624336Y-66059831D01*
X178491831Y-66002499D01*
X178326817Y-65941656D01*
X178154701Y-65887006D01*
X178154228Y-65886870D01*
X178028305Y-65852185D01*
X177912436Y-65825396D01*
X177792835Y-65804920D01*
X177655718Y-65789171D01*
X177487300Y-65776566D01*
X177273794Y-65765520D01*
X177001416Y-65754448D01*
X176772511Y-65745763D01*
X176555546Y-65737927D01*
X176384207Y-65732962D01*
X176243835Y-65731059D01*
X176119770Y-65732410D01*
X175997354Y-65737207D01*
X175861927Y-65745641D01*
X175698830Y-65757906D01*
X175493404Y-65774193D01*
X175300490Y-65789426D01*
X175041190Y-65809750D01*
X174785083Y-65829687D01*
X174566795Y-65846533D01*
X174431146Y-65857920D01*
X174253635Y-65878929D01*
X174107055Y-65907906D01*
X173965559Y-65950459D01*
X173803299Y-66012195D01*
X173755695Y-66032122D01*
X173545331Y-66135114D01*
X173339183Y-66257380D01*
X173153271Y-66387892D01*
X173003618Y-66515626D01*
X172906245Y-66629554D01*
X172881909Y-66672171D01*
X172863927Y-66720774D01*
X172852291Y-66785534D01*
X172846273Y-66877745D01*
X172845150Y-67008701D01*
X172659197Y-67008701D01*
X172659211Y-66989193D01*
X172660743Y-66821329D01*
X172665674Y-66704056D01*
X172675984Y-66624260D01*
X172693654Y-66568828D01*
X172720665Y-66524646D01*
X172758998Y-66478601D01*
X172774095Y-66461493D01*
X172932730Y-66303946D01*
X173109561Y-66160368D01*
X173284374Y-66045769D01*
X173436959Y-65975157D01*
X173439872Y-65974210D01*
X173568990Y-65927041D01*
X173728451Y-65861849D01*
X173884431Y-65792447D01*
X174146845Y-65669643D01*
X174763474Y-65669643D01*
X174827378Y-65669536D01*
X175074426Y-65666310D01*
X175251651Y-65658488D01*
X175361279Y-65645928D01*
X175405538Y-65628487D01*
X175414371Y-65624359D01*
X175482744Y-65616263D01*
X175609675Y-65610645D01*
X175785224Y-65607334D01*
X175999449Y-65606159D01*
X176242411Y-65606951D01*
X176504168Y-65609539D01*
X176774780Y-65613751D01*
X177044307Y-65619418D01*
X177302809Y-65626368D01*
X177540343Y-65634432D01*
X177746972Y-65643439D01*
X177912752Y-65653217D01*
X178027745Y-65663598D01*
X178082009Y-65674409D01*
X178086319Y-65676567D01*
X178157968Y-65702970D01*
X178274698Y-65738149D01*
X178413480Y-65775109D01*
X178600226Y-65833605D01*
X178848318Y-65963234D01*
X179049873Y-66144653D01*
X179212624Y-66383749D01*
X179223791Y-66404371D01*
X179291994Y-66528985D01*
X179348414Y-66629964D01*
X179381779Y-66687096D01*
X179396708Y-66714425D01*
X179440657Y-66801995D01*
X179505326Y-66934776D01*
X179584731Y-67100443D01*
X179672886Y-67286667D01*
X179706233Y-67357479D01*
X179819921Y-67597525D01*
X179909708Y-67783775D01*
X179980735Y-67925987D01*
X180038141Y-68033919D01*
X180087063Y-68117328D01*
X180132642Y-68185974D01*
X180180017Y-68249614D01*
X180196425Y-68271245D01*
X180275916Y-68386791D01*
X180339242Y-68493818D01*
X180351264Y-68516443D01*
X180382530Y-68568852D01*
X180426251Y-68642137D01*
X180518288Y-68779328D01*
X180613892Y-68909486D01*
X180699578Y-69014082D01*
X180761864Y-69074587D01*
X180798452Y-69109595D01*
X180827076Y-69183466D01*
X180835035Y-69306206D01*
X180835789Y-69339138D01*
X180853621Y-69464712D01*
X180899779Y-69609469D01*
X180980386Y-69793963D01*
X181014404Y-69866954D01*
X181071568Y-69995178D01*
X181111022Y-70091420D01*
X181125736Y-70138989D01*
X181126242Y-70142593D01*
X181146914Y-70197598D01*
X181193394Y-70301595D01*
X181259526Y-70441201D01*
X181339157Y-70603034D01*
X181428029Y-70783206D01*
X181514006Y-70962172D01*
X181586547Y-71117763D01*
X181635853Y-71229299D01*
X181674528Y-71315865D01*
X181732522Y-71428313D01*
X181780082Y-71501832D01*
X181803288Y-71532217D01*
X181865983Y-71626908D01*
X181931546Y-71738026D01*
X182016878Y-71891452D01*
X182099914Y-72037948D01*
X182159871Y-72139087D01*
X182203015Y-72205368D01*
X182235618Y-72247290D01*
X182239846Y-72252428D01*
X182281437Y-72335786D01*
X182319999Y-72461830D01*
X182348604Y-72603537D01*
X182360327Y-72733881D01*
X182360860Y-72745263D01*
X182388750Y-72848919D01*
X182445697Y-72951907D01*
X182500305Y-73034333D01*
X182573814Y-73160829D01*
X182645554Y-73297264D01*
X182760929Y-73530178D01*
X182760929Y-74825704D01*
X182615656Y-75107831D01*
G37*
G36*
X177902928Y-69050615D02*
G01*
X178201953Y-69054369D01*
X178501506Y-69063892D01*
X178770750Y-69078418D01*
X179001214Y-69097245D01*
X179184430Y-69119672D01*
X179311926Y-69144998D01*
X179375233Y-69172522D01*
X179389717Y-69187997D01*
X179416316Y-69245316D01*
X179375614Y-69277499D01*
X179268445Y-69284267D01*
X179095645Y-69265346D01*
X179034458Y-69257805D01*
X178873894Y-69246199D01*
X178669636Y-69238432D01*
X178440554Y-69235107D01*
X178205520Y-69236831D01*
X177576956Y-69248899D01*
X177439839Y-69357912D01*
X177389107Y-69397477D01*
X177260897Y-69493817D01*
X177134573Y-69585022D01*
X177094565Y-69613049D01*
X177005739Y-69672272D01*
X176952671Y-69696474D01*
X176917710Y-69691004D01*
X176883202Y-69661215D01*
X176861069Y-69622961D01*
X176871817Y-69569755D01*
X176925506Y-69498241D01*
X177027892Y-69400957D01*
X177184733Y-69270441D01*
X177459948Y-69049042D01*
X177902928Y-69050615D01*
G37*
G36*
X177222072Y-71280111D02*
G01*
X177207070Y-71388911D01*
X177201273Y-71519660D01*
X177200181Y-71574515D01*
X177199116Y-71628001D01*
X177185425Y-71716976D01*
X177150832Y-71781281D01*
X177086036Y-71847376D01*
X177060827Y-71869288D01*
X176969381Y-71934736D01*
X176895263Y-71969247D01*
X176886506Y-71970842D01*
X176803896Y-71977495D01*
X176676847Y-71980795D01*
X176529027Y-71980043D01*
X176403484Y-71975505D01*
X176283151Y-71961789D01*
X176195960Y-71934748D01*
X176119406Y-71889401D01*
X176062057Y-71843010D01*
X175943448Y-71692857D01*
X175895961Y-71563202D01*
X176112731Y-71563202D01*
X176134385Y-71624324D01*
X176220157Y-71703561D01*
X176237516Y-71714900D01*
X176371283Y-71767258D01*
X176533130Y-71789400D01*
X176699204Y-71782043D01*
X176845653Y-71745903D01*
X176948623Y-71681695D01*
X176998797Y-71618416D01*
X177006149Y-71574515D01*
X176956326Y-71570857D01*
X176852732Y-71609991D01*
X176708903Y-71650355D01*
X176519949Y-71641649D01*
X176327160Y-71573467D01*
X176229456Y-71534601D01*
X176147116Y-71530019D01*
X176112731Y-71563202D01*
X175895961Y-71563202D01*
X175879938Y-71519454D01*
X175873037Y-71338438D01*
X175893180Y-71270403D01*
X176315518Y-71270403D01*
X176364675Y-71337479D01*
X176384529Y-71355048D01*
X176497666Y-71404095D01*
X176622342Y-71398539D01*
X176728884Y-71338312D01*
X176770165Y-71290040D01*
X176798741Y-71204765D01*
X176757954Y-71127554D01*
X176720500Y-71096714D01*
X176673147Y-71092139D01*
X176656208Y-71152175D01*
X176646463Y-71197804D01*
X176597540Y-71269091D01*
X176559858Y-71292325D01*
X176515718Y-71281514D01*
X176453646Y-71218701D01*
X176439824Y-71202694D01*
X176388348Y-71149852D01*
X176358564Y-71147716D01*
X176329794Y-71191796D01*
X176322165Y-71207246D01*
X176315518Y-71270403D01*
X175893180Y-71270403D01*
X175924255Y-71165443D01*
X176018458Y-71038527D01*
X176447250Y-71038527D01*
X176452449Y-71066589D01*
X176507830Y-71083949D01*
X176552967Y-71073953D01*
X176583533Y-71026778D01*
X176579864Y-71007892D01*
X176541296Y-70982143D01*
X176486350Y-70993280D01*
X176447250Y-71038527D01*
X176018458Y-71038527D01*
X176035101Y-71016105D01*
X176109191Y-70953381D01*
X176262400Y-70853360D01*
X176416433Y-70784167D01*
X176547196Y-70757948D01*
X176551874Y-70758010D01*
X176646692Y-70779962D01*
X176747053Y-70829586D01*
X176753964Y-70834062D01*
X176851439Y-70882114D01*
X176936115Y-70902021D01*
X177008464Y-70909779D01*
X177126108Y-70957555D01*
X177201965Y-71026778D01*
X177212501Y-71036393D01*
X177254204Y-71131725D01*
X177241869Y-71204765D01*
X177237778Y-71228987D01*
X177222072Y-71280111D01*
G37*
G36*
X175050679Y-73205621D02*
G01*
X175053395Y-73208368D01*
X175082006Y-73251152D01*
X175079820Y-73307190D01*
X175046252Y-73402488D01*
X175032872Y-73443196D01*
X175004194Y-73591867D01*
X174980867Y-73810055D01*
X174963145Y-74095646D01*
X174956889Y-74227909D01*
X174947581Y-74400231D01*
X174938071Y-74517075D01*
X174926257Y-74589210D01*
X174910040Y-74627403D01*
X174887319Y-74642423D01*
X174855995Y-74645036D01*
X174802240Y-74633298D01*
X174752371Y-74587558D01*
X174751392Y-74584908D01*
X174735138Y-74490971D01*
X174729179Y-74343290D01*
X174732317Y-74159104D01*
X174743351Y-73955657D01*
X174761079Y-73750188D01*
X174784303Y-73559940D01*
X174811820Y-73402154D01*
X174842432Y-73294071D01*
X174842639Y-73293565D01*
X174903056Y-73201743D01*
X174976683Y-73170610D01*
X175050679Y-73205621D01*
G37*
G36*
X180515712Y-72942277D02*
G01*
X180608825Y-73028273D01*
X180737200Y-73169381D01*
X180779133Y-73217745D01*
X180948486Y-73422035D01*
X181084525Y-73606113D01*
X181203911Y-73793854D01*
X181323306Y-74009128D01*
X181326782Y-74015727D01*
X181451920Y-74266059D01*
X181539859Y-74475830D01*
X181595975Y-74662861D01*
X181625643Y-74844975D01*
X181634239Y-75039992D01*
X181634107Y-75069491D01*
X181623897Y-75267648D01*
X181592883Y-75417537D01*
X181534674Y-75539687D01*
X181442878Y-75654629D01*
X181417682Y-75679092D01*
X181336382Y-75723188D01*
X181274066Y-75704469D01*
X181242181Y-75624644D01*
X181250747Y-75550516D01*
X181323941Y-75446016D01*
X181357111Y-75412447D01*
X181389299Y-75363423D01*
X181407145Y-75296809D01*
X181414807Y-75194253D01*
X181416437Y-75037400D01*
X181416101Y-74953259D01*
X181411520Y-74830948D01*
X181397057Y-74730681D01*
X181367117Y-74630667D01*
X181316104Y-74509115D01*
X181238422Y-74344235D01*
X181102438Y-74076034D01*
X180952061Y-73821730D01*
X180782348Y-73581780D01*
X180574157Y-73326864D01*
X180561630Y-73312273D01*
X180460761Y-73192606D01*
X180399976Y-73111660D01*
X180371934Y-73055152D01*
X180369290Y-73008796D01*
X180384703Y-72958309D01*
X180407821Y-72919182D01*
X180450999Y-72907283D01*
X180515712Y-72942277D01*
G37*
G36*
X177306044Y-73178393D02*
G01*
X177350421Y-73239861D01*
X177357223Y-73255654D01*
X177371352Y-73339615D01*
X177336961Y-73433488D01*
X177281687Y-73537525D01*
X177199519Y-73691526D01*
X177108283Y-73862079D01*
X177021320Y-74024242D01*
X176951975Y-74153077D01*
X176931263Y-74192966D01*
X176890453Y-74283540D01*
X176874234Y-74339400D01*
X176865697Y-74369183D01*
X176819728Y-74427010D01*
X176796885Y-74459157D01*
X176771848Y-74557075D01*
X176766249Y-74687035D01*
X176780339Y-74824764D01*
X176814367Y-74945989D01*
X176826636Y-74970646D01*
X176888370Y-75065036D01*
X176980105Y-75184428D01*
X177086899Y-75308922D01*
X177208586Y-75452027D01*
X177285414Y-75568227D01*
X177310221Y-75652476D01*
X177286061Y-75710940D01*
X177255702Y-75730083D01*
X177209864Y-75724053D01*
X177145539Y-75680194D01*
X177053821Y-75592146D01*
X176925810Y-75453548D01*
X176854597Y-75373307D01*
X176734750Y-75228149D01*
X176654082Y-75106506D01*
X176603608Y-74989971D01*
X176574344Y-74860136D01*
X176557304Y-74698593D01*
X176556224Y-74684169D01*
X176549752Y-74546088D01*
X176559436Y-74445197D01*
X176591831Y-74349301D01*
X176653493Y-74226204D01*
X176753500Y-74038877D01*
X176904072Y-73759692D01*
X177025430Y-73539126D01*
X177119855Y-73373212D01*
X177189628Y-73257983D01*
X177237030Y-73189470D01*
X177264342Y-73163708D01*
X177306044Y-73178393D01*
G37*
G36*
X180088476Y-74905473D02*
G01*
X180297894Y-74908980D01*
X180457769Y-74915157D01*
X180573621Y-74924419D01*
X180650969Y-74937175D01*
X180695330Y-74953840D01*
X180712224Y-74974825D01*
X180707169Y-75000541D01*
X180685684Y-75031402D01*
X180683445Y-75033704D01*
X180657978Y-75045521D01*
X180606611Y-75055290D01*
X180523497Y-75063188D01*
X180402791Y-75069389D01*
X180238645Y-75074068D01*
X180025212Y-75077403D01*
X179756647Y-75079567D01*
X179427103Y-75080737D01*
X179030733Y-75081088D01*
X179005825Y-75081087D01*
X178621454Y-75080823D01*
X178303206Y-75079937D01*
X178044897Y-75078217D01*
X177840342Y-75075451D01*
X177683357Y-75071428D01*
X177567756Y-75065934D01*
X177487355Y-75058757D01*
X177435968Y-75049687D01*
X177407412Y-75038510D01*
X177395500Y-75025014D01*
X177388356Y-74995058D01*
X177399640Y-74943254D01*
X177420644Y-74939382D01*
X177507388Y-74933755D01*
X177654106Y-74928205D01*
X177853309Y-74922896D01*
X178097507Y-74917993D01*
X178379211Y-74913662D01*
X178690932Y-74910068D01*
X179025180Y-74907377D01*
X179107788Y-74906860D01*
X179498942Y-74904825D01*
X179823999Y-74904226D01*
X180088476Y-74905473D01*
G37*
G36*
X180621563Y-71624134D02*
G01*
X180500269Y-71732987D01*
X180406248Y-71782644D01*
X180295028Y-71805332D01*
X180166417Y-71787016D01*
X179999270Y-71727462D01*
X179872562Y-71673543D01*
X179754496Y-71616284D01*
X179677664Y-71564564D01*
X179648807Y-71532242D01*
X180149485Y-71532242D01*
X180199127Y-71556338D01*
X180223935Y-71566935D01*
X180280563Y-71584796D01*
X180330068Y-71575517D01*
X180408068Y-71535554D01*
X180408535Y-71535300D01*
X180478797Y-71480555D01*
X180507997Y-71425032D01*
X180500363Y-71396084D01*
X180464683Y-71399981D01*
X180385610Y-71444361D01*
X180366414Y-71455774D01*
X180358931Y-71459372D01*
X180269548Y-71502351D01*
X180194838Y-71522554D01*
X180165925Y-71524031D01*
X180149485Y-71532242D01*
X179648807Y-71532242D01*
X179626671Y-71507449D01*
X179586124Y-71434006D01*
X179556808Y-71351906D01*
X179749973Y-71351906D01*
X179795961Y-71405700D01*
X179852272Y-71459044D01*
X179898034Y-71483663D01*
X179906998Y-71482758D01*
X179914642Y-71459372D01*
X179876836Y-71416283D01*
X179806474Y-71369558D01*
X179754831Y-71343839D01*
X179749973Y-71351906D01*
X179556808Y-71351906D01*
X179536235Y-71294290D01*
X179533296Y-71187182D01*
X180006637Y-71187182D01*
X180024381Y-71219352D01*
X180090761Y-71253030D01*
X180174972Y-71256085D01*
X180244804Y-71223594D01*
X180281401Y-71164971D01*
X180280358Y-71079367D01*
X180222519Y-71014069D01*
X180160366Y-71007164D01*
X180082353Y-71044268D01*
X180022728Y-71110996D01*
X180006637Y-71187182D01*
X179533296Y-71187182D01*
X179532001Y-71140006D01*
X179594571Y-71006985D01*
X179725563Y-70892181D01*
X179926595Y-70792543D01*
X179999999Y-70767039D01*
X180181607Y-70732729D01*
X180340210Y-70742890D01*
X180458449Y-70797363D01*
X180481595Y-70822390D01*
X180540012Y-70912755D01*
X180604755Y-71036560D01*
X180662457Y-71164971D01*
X180664732Y-71170033D01*
X180708851Y-71289401D01*
X180726022Y-71370889D01*
X180714905Y-71425032D01*
X180701737Y-71489166D01*
X180621563Y-71624134D01*
G37*
G36*
X178800721Y-69715890D02*
G01*
X178908050Y-69724180D01*
X178968081Y-69737786D01*
X178994248Y-69759963D01*
X178999985Y-69793963D01*
X178994279Y-69826861D01*
X178968133Y-69849959D01*
X178908501Y-69865777D01*
X178802340Y-69877736D01*
X178636609Y-69889255D01*
X178543245Y-69896036D01*
X178381210Y-69912247D01*
X178247485Y-69931087D01*
X178164220Y-69949722D01*
X178021691Y-69984538D01*
X177899730Y-69983531D01*
X177823014Y-69944135D01*
X177817571Y-69937177D01*
X177804089Y-69891851D01*
X177840353Y-69850529D01*
X177933720Y-69808158D01*
X178091545Y-69759685D01*
X178170838Y-69740646D01*
X178388062Y-69712930D01*
X178654778Y-69710356D01*
X178800721Y-69715890D01*
G37*
%LPC*%
D13*
X82194400Y-64312800D03*
D14*
X84229400Y-64312800D03*
X87779400Y-64312800D03*
D15*
X89814400Y-64312800D03*
D13*
X100279200Y-52273200D03*
D14*
X102314200Y-52273200D03*
D15*
X107899200Y-52273200D03*
D14*
X105864200Y-52273200D03*
D13*
X118262400Y-46228000D03*
D14*
X120297400Y-46228000D03*
D15*
X125882400Y-46228000D03*
D14*
X123847400Y-46228000D03*
X138229800Y-53289200D03*
D13*
X136194800Y-53289200D03*
D14*
X141779800Y-53289200D03*
D15*
X143814800Y-53289200D03*
D13*
X154178000Y-55422800D03*
D14*
X156213000Y-55422800D03*
X159763000Y-55422800D03*
D15*
X161798000Y-55422800D03*
D13*
X82092800Y-81229200D03*
D14*
X84127800Y-81229200D03*
D15*
X89712800Y-81229200D03*
D14*
X87677800Y-81229200D03*
D13*
X100076000Y-69342000D03*
D14*
X102111000Y-69342000D03*
D15*
X107696000Y-69342000D03*
D14*
X105661000Y-69342000D03*
X120195800Y-63347600D03*
D13*
X118160800Y-63347600D03*
D14*
X123745800Y-63347600D03*
D15*
X125780800Y-63347600D03*
D14*
X138179000Y-69900800D03*
D13*
X136144000Y-69900800D03*
D15*
X143764000Y-69900800D03*
D14*
X141729000Y-69900800D03*
X156517800Y-72491600D03*
D13*
X154482800Y-72491600D03*
D14*
X160067800Y-72491600D03*
D15*
X162102800Y-72491600D03*
D13*
X82092800Y-98247200D03*
D14*
X84127800Y-98247200D03*
D15*
X89712800Y-98247200D03*
D14*
X87677800Y-98247200D03*
D13*
X100177600Y-86309200D03*
D14*
X102212600Y-86309200D03*
D15*
X107797600Y-86309200D03*
D14*
X105762600Y-86309200D03*
D13*
X118160800Y-80314800D03*
D14*
X120195800Y-80314800D03*
X123745800Y-80314800D03*
D15*
X125780800Y-80314800D03*
D13*
X136245600Y-86969600D03*
D14*
X138280600Y-86969600D03*
D15*
X143865600Y-86969600D03*
D14*
X141830600Y-86969600D03*
X156314600Y-89357200D03*
D13*
X154279600Y-89357200D03*
D14*
X159864600Y-89357200D03*
D15*
X161899600Y-89357200D03*
D14*
X132184600Y-119075200D03*
D13*
X130149600Y-119075200D03*
D14*
X135734600Y-119075200D03*
D15*
X137769600Y-119075200D03*
D16*
X150799764Y-121001192D03*
D17*
X148834105Y-120474495D03*
D15*
X156194459Y-122446697D03*
D16*
X154228800Y-121920000D03*
D18*
X178053166Y-125194992D03*
D19*
X179070666Y-123432630D03*
X180845666Y-120358240D03*
D15*
X181863166Y-118595878D03*
D20*
X186460000Y-98961000D03*
X179460000Y-98961000D03*
X186460000Y-100711000D03*
X179460000Y-100711000D03*
D21*
X176160000Y-101061000D03*
X176160000Y-98611000D03*
X184660000Y-102811000D03*
X184660000Y-96861000D03*
X181660000Y-96861000D03*
X181660000Y-102811000D03*
X177660000Y-96861000D03*
X177660000Y-102811000D03*
D22*
X91410000Y-70400000D03*
D23*
X85910000Y-70400000D03*
D24*
X80910000Y-74150000D03*
D25*
X91130000Y-66200000D03*
D24*
X85910000Y-76350000D03*
D25*
X80690000Y-66200000D03*
D22*
X80410000Y-70400000D03*
D24*
X90910000Y-74150000D03*
D26*
X89185000Y-76350000D03*
D27*
X77635000Y-74150000D03*
D25*
X98690000Y-54200000D03*
D22*
X109410000Y-58400000D03*
D24*
X103910000Y-64350000D03*
D25*
X109130000Y-54200000D03*
D24*
X98910000Y-62150000D03*
D23*
X103910000Y-58400000D03*
D24*
X108910000Y-62150000D03*
D22*
X98410000Y-58400000D03*
D26*
X107185000Y-64350000D03*
D27*
X95635000Y-62150000D03*
D23*
X121910000Y-52400000D03*
D22*
X116410000Y-52400000D03*
D25*
X127130000Y-48200000D03*
D24*
X121910000Y-58350000D03*
X116910000Y-56150000D03*
D25*
X116690000Y-48200000D03*
D22*
X127410000Y-52400000D03*
D24*
X126910000Y-56150000D03*
D26*
X125185000Y-58350000D03*
D27*
X113635000Y-56150000D03*
D22*
X145410000Y-59020000D03*
D24*
X134910000Y-62770000D03*
X139910000Y-64970000D03*
D25*
X134690000Y-54820000D03*
D23*
X139910000Y-59020000D03*
D25*
X145130000Y-54820000D03*
D22*
X134410000Y-59020000D03*
D24*
X144910000Y-62770000D03*
D26*
X143185000Y-64970000D03*
D27*
X131635000Y-62770000D03*
D24*
X152910000Y-65150000D03*
X157910000Y-67350000D03*
D25*
X152690000Y-57200000D03*
D23*
X157910000Y-61400000D03*
D22*
X152410000Y-61400000D03*
X163410000Y-61400000D03*
D24*
X162910000Y-65150000D03*
D25*
X163130000Y-57200000D03*
D26*
X161185000Y-67350000D03*
D27*
X149635000Y-65150000D03*
D24*
X90910000Y-91150000D03*
D22*
X91410000Y-87400000D03*
X80410000Y-87400000D03*
D24*
X80910000Y-91150000D03*
D25*
X80690000Y-83200000D03*
D24*
X85910000Y-93350000D03*
D25*
X91130000Y-83200000D03*
D23*
X85910000Y-87400000D03*
D26*
X89185000Y-93350000D03*
D27*
X77635000Y-91150000D03*
D22*
X98410000Y-75400000D03*
D25*
X109130000Y-71200000D03*
D23*
X103910000Y-75400000D03*
D22*
X109410000Y-75400000D03*
D24*
X108910000Y-79150000D03*
X98910000Y-79150000D03*
X103910000Y-81350000D03*
D25*
X98690000Y-71200000D03*
D26*
X107185000Y-81350000D03*
D27*
X95635000Y-79150000D03*
D24*
X121910000Y-75350000D03*
D22*
X116410000Y-69400000D03*
D25*
X127130000Y-65200000D03*
D22*
X127410000Y-69400000D03*
D25*
X116690000Y-65200000D03*
D23*
X121910000Y-69400000D03*
D24*
X116910000Y-73150000D03*
X126910000Y-73150000D03*
D26*
X125185000Y-75350000D03*
D27*
X113635000Y-73150000D03*
D24*
X134910000Y-79770000D03*
D25*
X134690000Y-71820000D03*
D24*
X144910000Y-79770000D03*
X139910000Y-81970000D03*
D22*
X134410000Y-76020000D03*
D23*
X139910000Y-76020000D03*
D22*
X145410000Y-76020000D03*
D25*
X145130000Y-71820000D03*
D26*
X143185000Y-81970000D03*
D27*
X131635000Y-79770000D03*
D22*
X163410000Y-78400000D03*
D24*
X162910000Y-82150000D03*
D22*
X152410000Y-78400000D03*
D25*
X152690000Y-74200000D03*
X163130000Y-74200000D03*
D24*
X157910000Y-84350000D03*
D23*
X157910000Y-78400000D03*
D24*
X152910000Y-82150000D03*
D26*
X161185000Y-84350000D03*
D27*
X149635000Y-82150000D03*
D25*
X91130000Y-100200000D03*
X80690000Y-100200000D03*
D24*
X90910000Y-108150000D03*
D22*
X91410000Y-104400000D03*
X80410000Y-104400000D03*
D23*
X85910000Y-104400000D03*
D24*
X80910000Y-108150000D03*
X85910000Y-110350000D03*
D26*
X89185000Y-110350000D03*
D27*
X77635000Y-108150000D03*
D24*
X103910000Y-98350000D03*
X98910000Y-96150000D03*
D25*
X98690000Y-88200000D03*
D22*
X109410000Y-92400000D03*
D24*
X108910000Y-96150000D03*
D22*
X98410000Y-92400000D03*
D25*
X109130000Y-88200000D03*
D23*
X103910000Y-92400000D03*
D26*
X107185000Y-98350000D03*
D27*
X95635000Y-96150000D03*
D23*
X121910000Y-86400000D03*
D24*
X116910000Y-90150000D03*
D25*
X116690000Y-82200000D03*
D24*
X126910000Y-90150000D03*
D22*
X127410000Y-86400000D03*
D25*
X127130000Y-82200000D03*
D22*
X116410000Y-86400000D03*
D24*
X121910000Y-92350000D03*
D26*
X125185000Y-92350000D03*
D27*
X113635000Y-90150000D03*
D25*
X145130000Y-88825000D03*
X134690000Y-88825000D03*
D22*
X134410000Y-93025000D03*
D24*
X139910000Y-98975000D03*
D22*
X145410000Y-93025000D03*
D24*
X134910000Y-96775000D03*
D23*
X139910000Y-93025000D03*
D24*
X144910000Y-96775000D03*
D26*
X143185000Y-98975000D03*
D27*
X131635000Y-96775000D03*
D24*
X157910000Y-101350000D03*
D23*
X157910000Y-95400000D03*
D22*
X163410000Y-95400000D03*
D24*
X152910000Y-99150000D03*
D25*
X152690000Y-91200000D03*
D24*
X162910000Y-99150000D03*
D22*
X152410000Y-95400000D03*
D25*
X163130000Y-91200000D03*
D26*
X161185000Y-101350000D03*
D27*
X149635000Y-99150000D03*
D25*
X139230000Y-117190000D03*
D24*
X134010000Y-107040000D03*
D22*
X128510000Y-112990000D03*
D24*
X139010000Y-109240000D03*
D23*
X134010000Y-112990000D03*
D22*
X139510000Y-112990000D03*
D24*
X129010000Y-109240000D03*
D25*
X128790000Y-117190000D03*
D28*
X130735000Y-107040000D03*
D29*
X142285000Y-109240000D03*
D25*
X158015093Y-120987924D03*
D24*
X155599973Y-109832741D03*
X150200942Y-110663683D03*
D23*
X154060000Y-115580000D03*
D24*
X159860201Y-113251873D03*
D22*
X148747408Y-114156495D03*
D25*
X147930827Y-118285853D03*
D22*
X159372592Y-117003505D03*
D30*
X152436566Y-108985109D03*
D31*
X163023608Y-114099506D03*
D24*
X173912405Y-112584873D03*
X169507149Y-115815000D03*
D25*
X180907307Y-116369347D03*
D22*
X171910000Y-123553140D03*
X177410000Y-114026860D03*
D24*
X168912405Y-121245127D03*
D23*
X174660000Y-118790000D03*
D25*
X175687307Y-125410653D03*
D32*
X167869649Y-118651233D03*
D33*
X175549905Y-109748640D03*
D34*
X169620000Y-58870400D03*
X186166400Y-57600400D03*
X186166400Y-60140400D03*
X169620000Y-61410400D03*
X186166400Y-62680400D03*
X169620000Y-63950400D03*
X186166400Y-65220400D03*
X169620000Y-66490400D03*
X169620000Y-69030400D03*
X186166400Y-67760400D03*
X169620000Y-71570400D03*
X186166400Y-70300400D03*
X169620000Y-74110400D03*
X186166400Y-72840400D03*
X169620000Y-76650400D03*
X186166400Y-75380400D03*
X186166400Y-77920400D03*
X169620000Y-79190400D03*
X186166400Y-80460400D03*
X169620000Y-81730400D03*
X186166400Y-83000400D03*
X169620000Y-84270400D03*
X186166400Y-85540400D03*
X169620000Y-86810400D03*
X170946400Y-85540400D03*
X184860000Y-86810400D03*
X170946400Y-83000400D03*
X184860000Y-84270400D03*
X184860000Y-81730400D03*
X170946400Y-80460400D03*
X184860000Y-79190400D03*
X170946400Y-77920400D03*
X184860000Y-76650400D03*
X170946400Y-75380400D03*
X184860000Y-74110400D03*
X170946400Y-72840400D03*
X184860000Y-71570400D03*
X170946400Y-70300400D03*
X170946400Y-67760400D03*
X184860000Y-69030400D03*
X184860000Y-66490400D03*
X170946400Y-65220400D03*
X184860000Y-63950400D03*
X170946400Y-62680400D03*
X170946400Y-60140400D03*
X184860000Y-61410400D03*
X184860000Y-58870400D03*
X170946400Y-57600400D03*
D15*
X173930000Y-90608400D03*
X176470000Y-90608400D03*
X179010000Y-90608400D03*
X181550000Y-90608400D03*
D35*
X186003000Y-93853000D03*
X179503000Y-93853000D03*
D36*
X171323000Y-96901000D03*
X185420000Y-106426000D03*
X95000000Y-66802000D03*
X148971000Y-69850000D03*
X123952000Y-104140000D03*
X167005000Y-110363000D03*
X95000000Y-83820000D03*
D37*
X176480000Y-87478020D03*
X176480000Y-88478780D03*
X173930000Y-87507620D03*
X173930000Y-88508380D03*
X181640000Y-87428020D03*
X181640000Y-88428780D03*
X179060000Y-87448020D03*
X179060000Y-88448780D03*
M02*
