%FSLAX45Y45*%
G04 Gerber Fmt 4.5, Leading zero omitted, Abs format (unit mm)*
G04 Created by KiCad (PCBNEW (5.99.0-11177-g6c67dfa032)) date 2021-10-11 00:00:57*
%MOMM*%
%LPD*%
G01*
G04 APERTURE LIST*
%TA.AperFunction,Profile*%
%ADD10C,0.150000*%
%TD*%
%ADD11C,0.200000*%
%ADD12C,0.099060*%
%ADD13C,0.120000*%
%ADD14C,0.170180*%
%ADD15C,0.300000*%
%ADD16C,0.342900*%
G04 APERTURE END LIST*
D10*
X18762000Y-5380500D02*
X16733040Y-5381502D01*
X9451545Y-6202085D02*
X7741920Y-6197600D01*
X17576800Y-13365480D02*
X18821400Y-11201400D01*
X16047720Y-12598400D02*
X17428867Y-13395960D01*
X12537440Y-12124081D02*
X14315440Y-12125960D01*
X16685040Y-5345502D02*
G75*
G03*
X16636050Y-5305500I-48990J-9998D01*
G01*
X16685040Y-5345502D02*
G75*
G03*
X16733040Y-5381502I48000J14000D01*
G01*
X16636050Y-5305500D02*
X14929320Y-5306902D01*
X9451545Y-6202085D02*
G75*
G03*
X9501545Y-6152085I0J50000D01*
G01*
X9551712Y-5000682D02*
G75*
G03*
X9501712Y-5050682I0J-50000D01*
G01*
X13031000Y-4403620D02*
X11353000Y-4404955D01*
X13081000Y-5005340D02*
X13081000Y-4453620D01*
X14829320Y-5056902D02*
X13131000Y-5055340D01*
X14879320Y-5256902D02*
X14879320Y-5106902D01*
X9501712Y-5050682D02*
X9501545Y-6152085D01*
X11254712Y-5000682D02*
X9551712Y-5000682D01*
X11303000Y-4454955D02*
X11304712Y-4950682D01*
X11254712Y-5000682D02*
G75*
G03*
X11304712Y-4950682I0J50000D01*
G01*
X11353000Y-4404955D02*
G75*
G03*
X11303000Y-4454955I0J-50000D01*
G01*
X13081000Y-4453620D02*
G75*
G03*
X13031000Y-4403620I-50000J0D01*
G01*
X13081000Y-5005340D02*
G75*
G03*
X13131000Y-5055340I50000J0D01*
G01*
X14879320Y-5106902D02*
G75*
G03*
X14829320Y-5056902I-50000J0D01*
G01*
X14879320Y-5256902D02*
G75*
G03*
X14929320Y-5306902I50000J0D01*
G01*
X18812000Y-5430500D02*
G75*
G03*
X18762000Y-5380500I-50000J0D01*
G01*
X9545320Y-10086265D02*
X11262360Y-10086265D01*
X9479280Y-11074400D02*
X9484360Y-10147225D01*
X11329486Y-10129488D02*
G75*
G03*
X11262360Y-10086265I-67126J-30512D01*
G01*
X12537440Y-12124081D02*
G75*
G02*
X12501880Y-12110720I0J54001D01*
G01*
X17576800Y-13365480D02*
G75*
G02*
X17428867Y-13395960I-103931J130189D01*
G01*
X7701280Y-9377680D02*
X7701280Y-11074400D01*
X7696200Y-6243320D02*
X7701280Y-7670800D01*
X18812000Y-5430500D02*
X18821400Y-11201400D01*
X9479280Y-11211560D02*
X9479280Y-11074400D01*
X9545320Y-10086265D02*
G75*
G03*
X9484360Y-10147225I0J-60960D01*
G01*
X9479280Y-11211560D02*
G75*
G02*
X9413240Y-11277600I-66040J0D01*
G01*
X7701280Y-11211560D02*
X7701280Y-11074400D01*
X7701280Y-7670800D02*
X7701280Y-9377680D01*
X11329486Y-10129488D02*
X12501880Y-12110720D01*
X7696200Y-6243320D02*
G75*
G02*
X7741920Y-6197600I45720J0D01*
G01*
X7767320Y-11277600D02*
X9413240Y-11277600D01*
X14315440Y-12125960D02*
X16047720Y-12598400D01*
X7767320Y-11277600D02*
G75*
G02*
X7701280Y-11211560I0J66040D01*
G01*
D11*
D12*
X8019470Y-6570470D02*
X8118530Y-6669530D01*
X8118530Y-6570470D02*
X8019470Y-6669530D01*
X8019470Y-8270470D02*
X8118530Y-8369530D01*
X8118530Y-8270470D02*
X8019470Y-8369530D01*
X8019470Y-9970470D02*
X8118530Y-10069530D01*
X8118530Y-9970470D02*
X8019470Y-10069530D01*
X9063470Y-6570470D02*
X9162530Y-6669530D01*
X9162530Y-6570470D02*
X9063470Y-6669530D01*
X9063470Y-8270470D02*
X9162530Y-8369530D01*
X9162530Y-8270470D02*
X9063470Y-8369530D01*
X9063470Y-9970470D02*
X9162530Y-10069530D01*
X9162530Y-9970470D02*
X9063470Y-10069530D01*
X9819470Y-5370470D02*
X9918530Y-5469530D01*
X9918530Y-5370470D02*
X9819470Y-5469530D01*
X9819470Y-7070470D02*
X9918530Y-7169530D01*
X9918530Y-7070470D02*
X9819470Y-7169530D01*
X9819470Y-8770470D02*
X9918530Y-8869530D01*
X9918530Y-8770470D02*
X9819470Y-8869530D01*
X10863470Y-5370470D02*
X10962530Y-5469530D01*
X10962530Y-5370470D02*
X10863470Y-5469530D01*
X10863470Y-7070470D02*
X10962530Y-7169530D01*
X10962530Y-7070470D02*
X10863470Y-7169530D01*
X10863470Y-8770470D02*
X10962530Y-8869530D01*
X10962530Y-8770470D02*
X10863470Y-8869530D01*
X11619470Y-4770470D02*
X11718530Y-4869530D01*
X11718530Y-4770470D02*
X11619470Y-4869530D01*
X11619470Y-6470470D02*
X11718530Y-6569530D01*
X11718530Y-6470470D02*
X11619470Y-6569530D01*
X11619470Y-8170470D02*
X11718530Y-8269530D01*
X11718530Y-8170470D02*
X11619470Y-8269530D01*
X12663470Y-4770470D02*
X12762530Y-4869530D01*
X12762530Y-4770470D02*
X12663470Y-4869530D01*
X12663470Y-6470470D02*
X12762530Y-6569530D01*
X12762530Y-6470470D02*
X12663470Y-6569530D01*
X12663470Y-8170470D02*
X12762530Y-8269530D01*
X12762530Y-8170470D02*
X12663470Y-8269530D01*
X12829470Y-11669470D02*
X12928530Y-11768530D01*
X12928530Y-11669470D02*
X12829470Y-11768530D01*
X13419470Y-5432470D02*
X13518530Y-5531530D01*
X13518530Y-5432470D02*
X13419470Y-5531530D01*
X13419470Y-7132470D02*
X13518530Y-7231530D01*
X13518530Y-7132470D02*
X13419470Y-7231530D01*
X13419470Y-8832970D02*
X13518530Y-8932030D01*
X13518530Y-8832970D02*
X13419470Y-8932030D01*
X13873470Y-11669470D02*
X13972530Y-11768530D01*
X13972530Y-11669470D02*
X13873470Y-11768530D01*
X14463470Y-5432470D02*
X14562530Y-5531530D01*
X14562530Y-5432470D02*
X14463470Y-5531530D01*
X14463470Y-7132470D02*
X14562530Y-7231530D01*
X14562530Y-7132470D02*
X14463470Y-7231530D01*
X14463470Y-8832970D02*
X14562530Y-8932030D01*
X14562530Y-8832970D02*
X14463470Y-8932030D01*
X14743553Y-11779055D02*
X14842613Y-11878115D01*
X14842613Y-11779055D02*
X14743553Y-11878115D01*
X15219470Y-5670470D02*
X15318530Y-5769530D01*
X15318530Y-5670470D02*
X15219470Y-5769530D01*
X15219470Y-7370470D02*
X15318530Y-7469530D01*
X15318530Y-7370470D02*
X15219470Y-7469530D01*
X15219470Y-9070470D02*
X15318530Y-9169530D01*
X15318530Y-9070470D02*
X15219470Y-9169530D01*
X15751979Y-12049262D02*
X15851039Y-12148322D01*
X15851039Y-12049262D02*
X15751979Y-12148322D01*
X16263470Y-5670470D02*
X16362530Y-5769530D01*
X16362530Y-5670470D02*
X16263470Y-5769530D01*
X16263470Y-7370470D02*
X16362530Y-7469530D01*
X16362530Y-7370470D02*
X16263470Y-7469530D01*
X16263470Y-9070470D02*
X16362530Y-9169530D01*
X16362530Y-9070470D02*
X16263470Y-9169530D01*
X17519201Y-12491535D02*
X17618261Y-12590595D01*
X17618261Y-12491535D02*
X17519201Y-12590595D01*
X18041201Y-11587405D02*
X18140261Y-11686465D01*
X18140261Y-11587405D02*
X18041201Y-11686465D01*
D13*
X18006000Y-9896100D02*
G75*
G03*
X18006000Y-9896100I-60000J0D01*
G01*
X18006000Y-10071100D02*
G75*
G03*
X18006000Y-10071100I-60000J0D01*
G01*
X18706000Y-9896100D02*
G75*
G03*
X18706000Y-9896100I-60000J0D01*
G01*
X18706000Y-10071100D02*
G75*
G03*
X18706000Y-10071100I-60000J0D01*
G01*
D14*
X8041000Y-6954910D02*
X8041000Y-7125090D01*
X7955910Y-7040000D02*
X8126090Y-7040000D01*
X8041000Y-8654910D02*
X8041000Y-8825090D01*
X7955910Y-8740000D02*
X8126090Y-8740000D01*
X8041000Y-10354910D02*
X8041000Y-10525090D01*
X7955910Y-10440000D02*
X8126090Y-10440000D01*
X9141000Y-6954910D02*
X9141000Y-7125090D01*
X9055910Y-7040000D02*
X9226090Y-7040000D01*
X9141000Y-8654910D02*
X9141000Y-8825090D01*
X9055910Y-8740000D02*
X9226090Y-8740000D01*
X9141000Y-10354910D02*
X9141000Y-10525090D01*
X9055910Y-10440000D02*
X9226090Y-10440000D01*
X9841000Y-5754910D02*
X9841000Y-5925090D01*
X9755910Y-5840000D02*
X9926090Y-5840000D01*
X9841000Y-7454910D02*
X9841000Y-7625090D01*
X9755910Y-7540000D02*
X9926090Y-7540000D01*
X9841000Y-9154910D02*
X9841000Y-9325090D01*
X9755910Y-9240000D02*
X9926090Y-9240000D01*
X10941000Y-5754910D02*
X10941000Y-5925090D01*
X10855910Y-5840000D02*
X11026090Y-5840000D01*
X10941000Y-7454910D02*
X10941000Y-7625090D01*
X10855910Y-7540000D02*
X11026090Y-7540000D01*
X10941000Y-9154910D02*
X10941000Y-9325090D01*
X10855910Y-9240000D02*
X11026090Y-9240000D01*
X11641000Y-5154910D02*
X11641000Y-5325090D01*
X11555910Y-5240000D02*
X11726090Y-5240000D01*
X11641000Y-6854910D02*
X11641000Y-7025090D01*
X11555910Y-6940000D02*
X11726090Y-6940000D01*
X11641000Y-8554910D02*
X11641000Y-8725090D01*
X11555910Y-8640000D02*
X11726090Y-8640000D01*
X12741000Y-5154910D02*
X12741000Y-5325090D01*
X12655910Y-5240000D02*
X12826090Y-5240000D01*
X12741000Y-6854910D02*
X12741000Y-7025090D01*
X12655910Y-6940000D02*
X12826090Y-6940000D01*
X12741000Y-8554910D02*
X12741000Y-8725090D01*
X12655910Y-8640000D02*
X12826090Y-8640000D01*
X12851000Y-11213910D02*
X12851000Y-11384090D01*
X12765910Y-11299000D02*
X12936090Y-11299000D01*
X13441000Y-5816910D02*
X13441000Y-5987090D01*
X13355910Y-5902000D02*
X13526090Y-5902000D01*
X13441000Y-7516910D02*
X13441000Y-7687090D01*
X13355910Y-7602000D02*
X13526090Y-7602000D01*
X13441000Y-9217410D02*
X13441000Y-9387590D01*
X13355910Y-9302500D02*
X13526090Y-9302500D01*
X13951000Y-11213910D02*
X13951000Y-11384090D01*
X13865910Y-11299000D02*
X14036090Y-11299000D01*
X14541000Y-5816910D02*
X14541000Y-5987090D01*
X14455910Y-5902000D02*
X14626090Y-5902000D01*
X14541000Y-7516910D02*
X14541000Y-7687090D01*
X14455910Y-7602000D02*
X14626090Y-7602000D01*
X14541000Y-9217410D02*
X14541000Y-9387590D01*
X14455910Y-9302500D02*
X14626090Y-9302500D01*
X14874741Y-11330559D02*
X14874741Y-11500739D01*
X14789651Y-11415649D02*
X14959831Y-11415649D01*
X15241000Y-6054910D02*
X15241000Y-6225090D01*
X15155910Y-6140000D02*
X15326090Y-6140000D01*
X15241000Y-7754910D02*
X15241000Y-7925090D01*
X15155910Y-7840000D02*
X15326090Y-7840000D01*
X15241000Y-9454910D02*
X15241000Y-9625090D01*
X15155910Y-9540000D02*
X15326090Y-9540000D01*
X15937259Y-11615260D02*
X15937259Y-11785440D01*
X15852169Y-11700350D02*
X16022349Y-11700350D01*
X16341000Y-6054910D02*
X16341000Y-6225090D01*
X16255910Y-6140000D02*
X16426090Y-6140000D01*
X16341000Y-7754910D02*
X16341000Y-7925090D01*
X16255910Y-7840000D02*
X16426090Y-7840000D01*
X16341000Y-9454910D02*
X16341000Y-9625090D01*
X16255910Y-9540000D02*
X16426090Y-9540000D01*
X17191000Y-12270224D02*
X17191000Y-12440404D01*
X17105910Y-12355314D02*
X17276090Y-12355314D01*
X17741000Y-11317596D02*
X17741000Y-11487776D01*
X17655910Y-11402686D02*
X17826090Y-11402686D01*
D15*
X8197067Y-7521067D02*
X8197067Y-7308933D01*
X7984933Y-7308933D01*
X7984933Y-7521067D01*
X8197067Y-7521067D01*
X8197067Y-9221067D02*
X8197067Y-9008933D01*
X7984933Y-9008933D01*
X7984933Y-9221067D01*
X8197067Y-9221067D01*
X8197067Y-10921067D02*
X8197067Y-10708933D01*
X7984933Y-10708933D01*
X7984933Y-10921067D01*
X8197067Y-10921067D01*
X8697067Y-7741067D02*
X8697067Y-7528933D01*
X8484933Y-7528933D01*
X8484933Y-7741067D01*
X8697067Y-7741067D01*
X8697067Y-9441067D02*
X8697067Y-9228933D01*
X8484933Y-9228933D01*
X8484933Y-9441067D01*
X8697067Y-9441067D01*
X8697067Y-11141067D02*
X8697067Y-10928933D01*
X8484933Y-10928933D01*
X8484933Y-11141067D01*
X8697067Y-11141067D01*
X9197067Y-7521067D02*
X9197067Y-7308933D01*
X8984933Y-7308933D01*
X8984933Y-7521067D01*
X9197067Y-7521067D01*
X9197067Y-9221067D02*
X9197067Y-9008933D01*
X8984933Y-9008933D01*
X8984933Y-9221067D01*
X9197067Y-9221067D01*
X9197067Y-10921067D02*
X9197067Y-10708933D01*
X8984933Y-10708933D01*
X8984933Y-10921067D01*
X9197067Y-10921067D01*
X9997067Y-6321067D02*
X9997067Y-6108933D01*
X9784933Y-6108933D01*
X9784933Y-6321067D01*
X9997067Y-6321067D01*
X9997067Y-8021067D02*
X9997067Y-7808933D01*
X9784933Y-7808933D01*
X9784933Y-8021067D01*
X9997067Y-8021067D01*
X9997067Y-9721067D02*
X9997067Y-9508933D01*
X9784933Y-9508933D01*
X9784933Y-9721067D01*
X9997067Y-9721067D01*
X10497067Y-6541067D02*
X10497067Y-6328933D01*
X10284933Y-6328933D01*
X10284933Y-6541067D01*
X10497067Y-6541067D01*
X10497067Y-8241067D02*
X10497067Y-8028933D01*
X10284933Y-8028933D01*
X10284933Y-8241067D01*
X10497067Y-8241067D01*
X10497067Y-9941067D02*
X10497067Y-9728933D01*
X10284933Y-9728933D01*
X10284933Y-9941067D01*
X10497067Y-9941067D01*
X10997067Y-6321067D02*
X10997067Y-6108933D01*
X10784933Y-6108933D01*
X10784933Y-6321067D01*
X10997067Y-6321067D01*
X10997067Y-8021067D02*
X10997067Y-7808933D01*
X10784933Y-7808933D01*
X10784933Y-8021067D01*
X10997067Y-8021067D01*
X10997067Y-9721067D02*
X10997067Y-9508933D01*
X10784933Y-9508933D01*
X10784933Y-9721067D01*
X10997067Y-9721067D01*
X11797067Y-5721067D02*
X11797067Y-5508933D01*
X11584933Y-5508933D01*
X11584933Y-5721067D01*
X11797067Y-5721067D01*
X11797067Y-7421067D02*
X11797067Y-7208933D01*
X11584933Y-7208933D01*
X11584933Y-7421067D01*
X11797067Y-7421067D01*
X11797067Y-9121067D02*
X11797067Y-8908933D01*
X11584933Y-8908933D01*
X11584933Y-9121067D01*
X11797067Y-9121067D01*
X12297067Y-5941067D02*
X12297067Y-5728933D01*
X12084933Y-5728933D01*
X12084933Y-5941067D01*
X12297067Y-5941067D01*
X12297067Y-7641067D02*
X12297067Y-7428933D01*
X12084933Y-7428933D01*
X12084933Y-7641067D01*
X12297067Y-7641067D01*
X12297067Y-9341067D02*
X12297067Y-9128933D01*
X12084933Y-9128933D01*
X12084933Y-9341067D01*
X12297067Y-9341067D01*
X12797067Y-5721067D02*
X12797067Y-5508933D01*
X12584933Y-5508933D01*
X12584933Y-5721067D01*
X12797067Y-5721067D01*
X12797067Y-7421067D02*
X12797067Y-7208933D01*
X12584933Y-7208933D01*
X12584933Y-7421067D01*
X12797067Y-7421067D01*
X12797067Y-9121067D02*
X12797067Y-8908933D01*
X12584933Y-8908933D01*
X12584933Y-9121067D01*
X12797067Y-9121067D01*
X13007067Y-11030067D02*
X13007067Y-10817933D01*
X12794933Y-10817933D01*
X12794933Y-11030067D01*
X13007067Y-11030067D01*
X13507067Y-10810067D02*
X13507067Y-10597933D01*
X13294933Y-10597933D01*
X13294933Y-10810067D01*
X13507067Y-10810067D01*
X13597067Y-6383067D02*
X13597067Y-6170933D01*
X13384933Y-6170933D01*
X13384933Y-6383067D01*
X13597067Y-6383067D01*
X13597067Y-8083067D02*
X13597067Y-7870933D01*
X13384933Y-7870933D01*
X13384933Y-8083067D01*
X13597067Y-8083067D01*
X13597067Y-9783567D02*
X13597067Y-9571433D01*
X13384933Y-9571433D01*
X13384933Y-9783567D01*
X13597067Y-9783567D01*
X14007067Y-11030067D02*
X14007067Y-10817933D01*
X13794933Y-10817933D01*
X13794933Y-11030067D01*
X14007067Y-11030067D01*
X14097067Y-6603067D02*
X14097067Y-6390933D01*
X13884933Y-6390933D01*
X13884933Y-6603067D01*
X14097067Y-6603067D01*
X14097067Y-8303067D02*
X14097067Y-8090933D01*
X13884933Y-8090933D01*
X13884933Y-8303067D01*
X14097067Y-8303067D01*
X14097067Y-10003567D02*
X14097067Y-9791433D01*
X13884933Y-9791433D01*
X13884933Y-10003567D01*
X14097067Y-10003567D01*
X14597067Y-6383067D02*
X14597067Y-6170933D01*
X14384933Y-6170933D01*
X14384933Y-6383067D01*
X14597067Y-6383067D01*
X14597067Y-8083067D02*
X14597067Y-7870933D01*
X14384933Y-7870933D01*
X14384933Y-8083067D01*
X14597067Y-8083067D01*
X14597067Y-9783567D02*
X14597067Y-9571433D01*
X14384933Y-9571433D01*
X14384933Y-9783567D01*
X14597067Y-9783567D01*
X15126161Y-11172435D02*
X15126161Y-10960301D01*
X14914027Y-10960301D01*
X14914027Y-11172435D01*
X15126161Y-11172435D01*
X15397067Y-6621067D02*
X15397067Y-6408933D01*
X15184933Y-6408933D01*
X15184933Y-6621067D01*
X15397067Y-6621067D01*
X15397067Y-8321067D02*
X15397067Y-8108933D01*
X15184933Y-8108933D01*
X15184933Y-8321067D01*
X15397067Y-8321067D01*
X15397067Y-10021067D02*
X15397067Y-9808933D01*
X15184933Y-9808933D01*
X15184933Y-10021067D01*
X15397067Y-10021067D01*
X15666064Y-11089341D02*
X15666064Y-10877207D01*
X15453930Y-10877207D01*
X15453930Y-11089341D01*
X15666064Y-11089341D01*
X15897067Y-6841067D02*
X15897067Y-6628933D01*
X15684933Y-6628933D01*
X15684933Y-6841067D01*
X15897067Y-6841067D01*
X15897067Y-8541067D02*
X15897067Y-8328933D01*
X15684933Y-8328933D01*
X15684933Y-8541067D01*
X15897067Y-8541067D01*
X15897067Y-10241067D02*
X15897067Y-10028933D01*
X15684933Y-10028933D01*
X15684933Y-10241067D01*
X15897067Y-10241067D01*
X16092087Y-11431254D02*
X16092087Y-11219120D01*
X15879953Y-11219120D01*
X15879953Y-11431254D01*
X16092087Y-11431254D01*
X16397067Y-6621067D02*
X16397067Y-6408933D01*
X16184933Y-6408933D01*
X16184933Y-6621067D01*
X16397067Y-6621067D01*
X16397067Y-8321067D02*
X16397067Y-8108933D01*
X16184933Y-8108933D01*
X16184933Y-8321067D01*
X16397067Y-8321067D01*
X16397067Y-10021067D02*
X16397067Y-9808933D01*
X16184933Y-9808933D01*
X16184933Y-10021067D01*
X16397067Y-10021067D01*
X16997308Y-12230580D02*
X16997308Y-12018446D01*
X16785174Y-12018446D01*
X16785174Y-12230580D01*
X16997308Y-12230580D01*
X17056782Y-11687567D02*
X17056782Y-11475433D01*
X16844648Y-11475433D01*
X16844648Y-11687567D01*
X17056782Y-11687567D01*
X17497308Y-11364554D02*
X17497308Y-11152420D01*
X17285174Y-11152420D01*
X17285174Y-11364554D01*
X17497308Y-11364554D01*
D16*
X8591000Y-7211450D02*
X8762450Y-7040000D01*
X8591000Y-6868550D01*
X8419550Y-7040000D01*
X8591000Y-7211450D01*
X8591000Y-8911450D02*
X8762450Y-8740000D01*
X8591000Y-8568550D01*
X8419550Y-8740000D01*
X8591000Y-8911450D01*
X8591000Y-10611450D02*
X8762450Y-10440000D01*
X8591000Y-10268550D01*
X8419550Y-10440000D01*
X8591000Y-10611450D01*
X10391000Y-6011450D02*
X10562450Y-5840000D01*
X10391000Y-5668550D01*
X10219550Y-5840000D01*
X10391000Y-6011450D01*
X10391000Y-7711450D02*
X10562450Y-7540000D01*
X10391000Y-7368550D01*
X10219550Y-7540000D01*
X10391000Y-7711450D01*
X10391000Y-9411450D02*
X10562450Y-9240000D01*
X10391000Y-9068550D01*
X10219550Y-9240000D01*
X10391000Y-9411450D01*
X12191000Y-5411450D02*
X12362450Y-5240000D01*
X12191000Y-5068550D01*
X12019550Y-5240000D01*
X12191000Y-5411450D01*
X12191000Y-7111450D02*
X12362450Y-6940000D01*
X12191000Y-6768550D01*
X12019550Y-6940000D01*
X12191000Y-7111450D01*
X12191000Y-8811450D02*
X12362450Y-8640000D01*
X12191000Y-8468550D01*
X12019550Y-8640000D01*
X12191000Y-8811450D01*
X13401000Y-11470450D02*
X13572450Y-11299000D01*
X13401000Y-11127550D01*
X13229550Y-11299000D01*
X13401000Y-11470450D01*
X13991000Y-6073450D02*
X14162450Y-5902000D01*
X13991000Y-5730550D01*
X13819550Y-5902000D01*
X13991000Y-6073450D01*
X13991000Y-7773450D02*
X14162450Y-7602000D01*
X13991000Y-7430550D01*
X13819550Y-7602000D01*
X13991000Y-7773450D01*
X13991000Y-9473950D02*
X14162450Y-9302500D01*
X13991000Y-9131050D01*
X13819550Y-9302500D01*
X13991000Y-9473950D01*
X15406000Y-11729450D02*
X15577450Y-11558000D01*
X15406000Y-11386550D01*
X15234550Y-11558000D01*
X15406000Y-11729450D01*
X15791000Y-6311450D02*
X15962450Y-6140000D01*
X15791000Y-5968550D01*
X15619550Y-6140000D01*
X15791000Y-6311450D01*
X15791000Y-8011450D02*
X15962450Y-7840000D01*
X15791000Y-7668550D01*
X15619550Y-7840000D01*
X15791000Y-8011450D01*
X15791000Y-9711450D02*
X15962450Y-9540000D01*
X15791000Y-9368550D01*
X15619550Y-9540000D01*
X15791000Y-9711450D01*
X17466000Y-12050450D02*
X17637450Y-11879000D01*
X17466000Y-11707550D01*
X17294550Y-11879000D01*
X17466000Y-12050450D01*
D11*
X7931319Y-13734853D02*
X7931319Y-13534853D01*
X7978938Y-13534853D01*
X8007509Y-13544376D01*
X8026557Y-13563424D01*
X8036081Y-13582472D01*
X8045605Y-13620567D01*
X8045605Y-13649138D01*
X8036081Y-13687234D01*
X8026557Y-13706281D01*
X8007509Y-13725329D01*
X7978938Y-13734853D01*
X7931319Y-13734853D01*
X8131319Y-13734853D02*
X8131319Y-13601519D01*
X8131319Y-13639614D02*
X8140843Y-13620567D01*
X8150367Y-13611043D01*
X8169414Y-13601519D01*
X8188462Y-13601519D01*
X8255128Y-13734853D02*
X8255128Y-13601519D01*
X8255128Y-13534853D02*
X8245605Y-13544376D01*
X8255128Y-13553900D01*
X8264652Y-13544376D01*
X8255128Y-13534853D01*
X8255128Y-13553900D01*
X8378938Y-13734853D02*
X8359890Y-13725329D01*
X8350367Y-13706281D01*
X8350367Y-13534853D01*
X8483700Y-13734853D02*
X8464652Y-13725329D01*
X8455129Y-13706281D01*
X8455129Y-13534853D01*
X8712271Y-13734853D02*
X8712271Y-13534853D01*
X8778938Y-13677710D01*
X8845605Y-13534853D01*
X8845605Y-13734853D01*
X9026557Y-13734853D02*
X9026557Y-13630091D01*
X9017033Y-13611043D01*
X8997986Y-13601519D01*
X8959890Y-13601519D01*
X8940843Y-13611043D01*
X9026557Y-13725329D02*
X9007510Y-13734853D01*
X8959890Y-13734853D01*
X8940843Y-13725329D01*
X8931319Y-13706281D01*
X8931319Y-13687234D01*
X8940843Y-13668186D01*
X8959890Y-13658662D01*
X9007510Y-13658662D01*
X9026557Y-13649138D01*
X9121795Y-13601519D02*
X9121795Y-13801519D01*
X9121795Y-13611043D02*
X9140843Y-13601519D01*
X9178938Y-13601519D01*
X9197986Y-13611043D01*
X9207510Y-13620567D01*
X9217033Y-13639614D01*
X9217033Y-13696757D01*
X9207510Y-13715805D01*
X9197986Y-13725329D01*
X9178938Y-13734853D01*
X9140843Y-13734853D01*
X9121795Y-13725329D01*
X9302748Y-13715805D02*
X9312271Y-13725329D01*
X9302748Y-13734853D01*
X9293224Y-13725329D01*
X9302748Y-13715805D01*
X9302748Y-13734853D01*
X9302748Y-13611043D02*
X9312271Y-13620567D01*
X9302748Y-13630091D01*
X9293224Y-13620567D01*
X9302748Y-13611043D01*
X9302748Y-13630091D01*
D12*
X7574640Y-14014846D02*
X7673700Y-14113906D01*
X7673700Y-14014846D02*
X7574640Y-14113906D01*
D11*
X7969414Y-13954853D02*
X7988462Y-13954853D01*
X8007509Y-13964376D01*
X8017033Y-13973900D01*
X8026557Y-13992948D01*
X8036081Y-14031043D01*
X8036081Y-14078662D01*
X8026557Y-14116757D01*
X8017033Y-14135805D01*
X8007509Y-14145329D01*
X7988462Y-14154853D01*
X7969414Y-14154853D01*
X7950367Y-14145329D01*
X7940843Y-14135805D01*
X7931319Y-14116757D01*
X7921795Y-14078662D01*
X7921795Y-14031043D01*
X7931319Y-13992948D01*
X7940843Y-13973900D01*
X7950367Y-13964376D01*
X7969414Y-13954853D01*
X8121795Y-14135805D02*
X8131319Y-14145329D01*
X8121795Y-14154853D01*
X8112271Y-14145329D01*
X8121795Y-14135805D01*
X8121795Y-14154853D01*
X8226557Y-14154853D02*
X8264652Y-14154853D01*
X8283700Y-14145329D01*
X8293224Y-14135805D01*
X8312271Y-14107234D01*
X8321795Y-14069138D01*
X8321795Y-13992948D01*
X8312271Y-13973900D01*
X8302748Y-13964376D01*
X8283700Y-13954853D01*
X8245605Y-13954853D01*
X8226557Y-13964376D01*
X8217033Y-13973900D01*
X8207509Y-13992948D01*
X8207509Y-14040567D01*
X8217033Y-14059614D01*
X8226557Y-14069138D01*
X8245605Y-14078662D01*
X8283700Y-14078662D01*
X8302748Y-14069138D01*
X8312271Y-14059614D01*
X8321795Y-14040567D01*
X8417033Y-14154853D02*
X8455129Y-14154853D01*
X8474176Y-14145329D01*
X8483700Y-14135805D01*
X8502748Y-14107234D01*
X8512271Y-14069138D01*
X8512271Y-13992948D01*
X8502748Y-13973900D01*
X8493224Y-13964376D01*
X8474176Y-13954853D01*
X8436081Y-13954853D01*
X8417033Y-13964376D01*
X8407510Y-13973900D01*
X8397986Y-13992948D01*
X8397986Y-14040567D01*
X8407510Y-14059614D01*
X8417033Y-14069138D01*
X8436081Y-14078662D01*
X8474176Y-14078662D01*
X8493224Y-14069138D01*
X8502748Y-14059614D01*
X8512271Y-14040567D01*
X8702748Y-14154853D02*
X8588462Y-14154853D01*
X8645605Y-14154853D02*
X8645605Y-13954853D01*
X8626557Y-13983424D01*
X8607510Y-14002472D01*
X8588462Y-14011995D01*
X8788462Y-14154853D02*
X8788462Y-14021519D01*
X8788462Y-14040567D02*
X8797986Y-14031043D01*
X8817033Y-14021519D01*
X8845605Y-14021519D01*
X8864652Y-14031043D01*
X8874176Y-14050091D01*
X8874176Y-14154853D01*
X8874176Y-14050091D02*
X8883700Y-14031043D01*
X8902748Y-14021519D01*
X8931319Y-14021519D01*
X8950367Y-14031043D01*
X8959890Y-14050091D01*
X8959890Y-14154853D01*
X9055129Y-14154853D02*
X9055129Y-14021519D01*
X9055129Y-14040567D02*
X9064652Y-14031043D01*
X9083700Y-14021519D01*
X9112271Y-14021519D01*
X9131319Y-14031043D01*
X9140843Y-14050091D01*
X9140843Y-14154853D01*
X9140843Y-14050091D02*
X9150367Y-14031043D01*
X9169414Y-14021519D01*
X9197986Y-14021519D01*
X9217033Y-14031043D01*
X9226557Y-14050091D01*
X9226557Y-14154853D01*
X9617033Y-13945329D02*
X9445605Y-14202472D01*
X9874176Y-13954853D02*
X9893224Y-13954853D01*
X9912271Y-13964376D01*
X9921795Y-13973900D01*
X9931319Y-13992948D01*
X9940843Y-14031043D01*
X9940843Y-14078662D01*
X9931319Y-14116757D01*
X9921795Y-14135805D01*
X9912271Y-14145329D01*
X9893224Y-14154853D01*
X9874176Y-14154853D01*
X9855129Y-14145329D01*
X9845605Y-14135805D01*
X9836081Y-14116757D01*
X9826557Y-14078662D01*
X9826557Y-14031043D01*
X9836081Y-13992948D01*
X9845605Y-13973900D01*
X9855129Y-13964376D01*
X9874176Y-13954853D01*
X10026557Y-14135805D02*
X10036081Y-14145329D01*
X10026557Y-14154853D01*
X10017033Y-14145329D01*
X10026557Y-14135805D01*
X10026557Y-14154853D01*
X10159890Y-13954853D02*
X10178938Y-13954853D01*
X10197986Y-13964376D01*
X10207510Y-13973900D01*
X10217033Y-13992948D01*
X10226557Y-14031043D01*
X10226557Y-14078662D01*
X10217033Y-14116757D01*
X10207510Y-14135805D01*
X10197986Y-14145329D01*
X10178938Y-14154853D01*
X10159890Y-14154853D01*
X10140843Y-14145329D01*
X10131319Y-14135805D01*
X10121795Y-14116757D01*
X10112271Y-14078662D01*
X10112271Y-14031043D01*
X10121795Y-13992948D01*
X10131319Y-13973900D01*
X10140843Y-13964376D01*
X10159890Y-13954853D01*
X10293224Y-13954853D02*
X10417033Y-13954853D01*
X10350367Y-14031043D01*
X10378938Y-14031043D01*
X10397986Y-14040567D01*
X10407510Y-14050091D01*
X10417033Y-14069138D01*
X10417033Y-14116757D01*
X10407510Y-14135805D01*
X10397986Y-14145329D01*
X10378938Y-14154853D01*
X10321795Y-14154853D01*
X10302748Y-14145329D01*
X10293224Y-14135805D01*
X10512271Y-14154853D02*
X10550367Y-14154853D01*
X10569414Y-14145329D01*
X10578938Y-14135805D01*
X10597986Y-14107234D01*
X10607510Y-14069138D01*
X10607510Y-13992948D01*
X10597986Y-13973900D01*
X10588462Y-13964376D01*
X10569414Y-13954853D01*
X10531319Y-13954853D01*
X10512271Y-13964376D01*
X10502748Y-13973900D01*
X10493224Y-13992948D01*
X10493224Y-14040567D01*
X10502748Y-14059614D01*
X10512271Y-14069138D01*
X10531319Y-14078662D01*
X10569414Y-14078662D01*
X10588462Y-14069138D01*
X10597986Y-14059614D01*
X10607510Y-14040567D01*
X10731319Y-13954853D02*
X10750367Y-13954853D01*
X10769414Y-13964376D01*
X10778938Y-13973900D01*
X10788462Y-13992948D01*
X10797986Y-14031043D01*
X10797986Y-14078662D01*
X10788462Y-14116757D01*
X10778938Y-14135805D01*
X10769414Y-14145329D01*
X10750367Y-14154853D01*
X10731319Y-14154853D01*
X10712271Y-14145329D01*
X10702748Y-14135805D01*
X10693224Y-14116757D01*
X10683700Y-14078662D01*
X10683700Y-14031043D01*
X10693224Y-13992948D01*
X10702748Y-13973900D01*
X10712271Y-13964376D01*
X10731319Y-13954853D01*
X10874176Y-13954853D02*
X10874176Y-13992948D01*
X10950367Y-13954853D02*
X10950367Y-13992948D01*
X11245605Y-14231043D02*
X11236081Y-14221519D01*
X11217033Y-14192948D01*
X11207509Y-14173900D01*
X11197986Y-14145329D01*
X11188462Y-14097710D01*
X11188462Y-14059614D01*
X11197986Y-14011995D01*
X11207509Y-13983424D01*
X11217033Y-13964376D01*
X11236081Y-13935805D01*
X11245605Y-13926281D01*
X11302748Y-13954853D02*
X11426557Y-13954853D01*
X11359890Y-14031043D01*
X11388462Y-14031043D01*
X11407509Y-14040567D01*
X11417033Y-14050091D01*
X11426557Y-14069138D01*
X11426557Y-14116757D01*
X11417033Y-14135805D01*
X11407509Y-14145329D01*
X11388462Y-14154853D01*
X11331319Y-14154853D01*
X11312271Y-14145329D01*
X11302748Y-14135805D01*
X11597986Y-13954853D02*
X11559890Y-13954853D01*
X11540843Y-13964376D01*
X11531319Y-13973900D01*
X11512271Y-14002472D01*
X11502748Y-14040567D01*
X11502748Y-14116757D01*
X11512271Y-14135805D01*
X11521795Y-14145329D01*
X11540843Y-14154853D01*
X11578938Y-14154853D01*
X11597986Y-14145329D01*
X11607509Y-14135805D01*
X11617033Y-14116757D01*
X11617033Y-14069138D01*
X11607509Y-14050091D01*
X11597986Y-14040567D01*
X11578938Y-14031043D01*
X11540843Y-14031043D01*
X11521795Y-14040567D01*
X11512271Y-14050091D01*
X11502748Y-14069138D01*
X11855128Y-14154853D02*
X11855128Y-13954853D01*
X11940843Y-14154853D02*
X11940843Y-14050091D01*
X11931319Y-14031043D01*
X11912271Y-14021519D01*
X11883700Y-14021519D01*
X11864652Y-14031043D01*
X11855128Y-14040567D01*
X12064652Y-14154853D02*
X12045605Y-14145329D01*
X12036081Y-14135805D01*
X12026557Y-14116757D01*
X12026557Y-14059614D01*
X12036081Y-14040567D01*
X12045605Y-14031043D01*
X12064652Y-14021519D01*
X12093224Y-14021519D01*
X12112271Y-14031043D01*
X12121795Y-14040567D01*
X12131319Y-14059614D01*
X12131319Y-14116757D01*
X12121795Y-14135805D01*
X12112271Y-14145329D01*
X12093224Y-14154853D01*
X12064652Y-14154853D01*
X12245605Y-14154853D02*
X12226557Y-14145329D01*
X12217033Y-14126281D01*
X12217033Y-13954853D01*
X12397986Y-14145329D02*
X12378938Y-14154853D01*
X12340843Y-14154853D01*
X12321795Y-14145329D01*
X12312271Y-14126281D01*
X12312271Y-14050091D01*
X12321795Y-14031043D01*
X12340843Y-14021519D01*
X12378938Y-14021519D01*
X12397986Y-14031043D01*
X12407509Y-14050091D01*
X12407509Y-14069138D01*
X12312271Y-14088186D01*
X12483700Y-14145329D02*
X12502748Y-14154853D01*
X12540843Y-14154853D01*
X12559890Y-14145329D01*
X12569414Y-14126281D01*
X12569414Y-14116757D01*
X12559890Y-14097710D01*
X12540843Y-14088186D01*
X12512271Y-14088186D01*
X12493224Y-14078662D01*
X12483700Y-14059614D01*
X12483700Y-14050091D01*
X12493224Y-14031043D01*
X12512271Y-14021519D01*
X12540843Y-14021519D01*
X12559890Y-14031043D01*
X12636081Y-14231043D02*
X12645605Y-14221519D01*
X12664652Y-14192948D01*
X12674176Y-14173900D01*
X12683700Y-14145329D01*
X12693224Y-14097710D01*
X12693224Y-14059614D01*
X12683700Y-14011995D01*
X12674176Y-13983424D01*
X12664652Y-13964376D01*
X12645605Y-13935805D01*
X12636081Y-13926281D01*
X12997986Y-14231043D02*
X12988462Y-14221519D01*
X12969414Y-14192948D01*
X12959890Y-14173900D01*
X12950367Y-14145329D01*
X12940843Y-14097710D01*
X12940843Y-14059614D01*
X12950367Y-14011995D01*
X12959890Y-13983424D01*
X12969414Y-13964376D01*
X12988462Y-13935805D01*
X12997986Y-13926281D01*
X13074176Y-14021519D02*
X13074176Y-14154853D01*
X13074176Y-14040567D02*
X13083700Y-14031043D01*
X13102748Y-14021519D01*
X13131319Y-14021519D01*
X13150367Y-14031043D01*
X13159890Y-14050091D01*
X13159890Y-14154853D01*
X13283700Y-14154853D02*
X13264652Y-14145329D01*
X13255128Y-14135805D01*
X13245605Y-14116757D01*
X13245605Y-14059614D01*
X13255128Y-14040567D01*
X13264652Y-14031043D01*
X13283700Y-14021519D01*
X13312271Y-14021519D01*
X13331319Y-14031043D01*
X13340843Y-14040567D01*
X13350367Y-14059614D01*
X13350367Y-14116757D01*
X13340843Y-14135805D01*
X13331319Y-14145329D01*
X13312271Y-14154853D01*
X13283700Y-14154853D01*
X13407509Y-14021519D02*
X13483700Y-14021519D01*
X13436081Y-13954853D02*
X13436081Y-14126281D01*
X13445605Y-14145329D01*
X13464652Y-14154853D01*
X13483700Y-14154853D01*
X13702748Y-14021519D02*
X13702748Y-14221519D01*
X13702748Y-14031043D02*
X13721795Y-14021519D01*
X13759890Y-14021519D01*
X13778938Y-14031043D01*
X13788462Y-14040567D01*
X13797986Y-14059614D01*
X13797986Y-14116757D01*
X13788462Y-14135805D01*
X13778938Y-14145329D01*
X13759890Y-14154853D01*
X13721795Y-14154853D01*
X13702748Y-14145329D01*
X13912271Y-14154853D02*
X13893224Y-14145329D01*
X13883700Y-14126281D01*
X13883700Y-13954853D01*
X14074176Y-14154853D02*
X14074176Y-14050091D01*
X14064652Y-14031043D01*
X14045605Y-14021519D01*
X14007509Y-14021519D01*
X13988462Y-14031043D01*
X14074176Y-14145329D02*
X14055128Y-14154853D01*
X14007509Y-14154853D01*
X13988462Y-14145329D01*
X13978938Y-14126281D01*
X13978938Y-14107234D01*
X13988462Y-14088186D01*
X14007509Y-14078662D01*
X14055128Y-14078662D01*
X14074176Y-14069138D01*
X14140843Y-14021519D02*
X14217033Y-14021519D01*
X14169414Y-13954853D02*
X14169414Y-14126281D01*
X14178938Y-14145329D01*
X14197986Y-14154853D01*
X14217033Y-14154853D01*
X14359890Y-14145329D02*
X14340843Y-14154853D01*
X14302748Y-14154853D01*
X14283700Y-14145329D01*
X14274176Y-14126281D01*
X14274176Y-14050091D01*
X14283700Y-14031043D01*
X14302748Y-14021519D01*
X14340843Y-14021519D01*
X14359890Y-14031043D01*
X14369414Y-14050091D01*
X14369414Y-14069138D01*
X14274176Y-14088186D01*
X14540843Y-14154853D02*
X14540843Y-13954853D01*
X14540843Y-14145329D02*
X14521795Y-14154853D01*
X14483700Y-14154853D01*
X14464652Y-14145329D01*
X14455128Y-14135805D01*
X14445605Y-14116757D01*
X14445605Y-14059614D01*
X14455128Y-14040567D01*
X14464652Y-14031043D01*
X14483700Y-14021519D01*
X14521795Y-14021519D01*
X14540843Y-14031043D01*
X14617033Y-14231043D02*
X14626557Y-14221519D01*
X14645605Y-14192948D01*
X14655128Y-14173900D01*
X14664652Y-14145329D01*
X14674176Y-14097710D01*
X14674176Y-14059614D01*
X14664652Y-14011995D01*
X14655128Y-13983424D01*
X14645605Y-13964376D01*
X14626557Y-13935805D01*
X14617033Y-13926281D01*
D13*
X7673700Y-14328376D02*
G75*
G03*
X7673700Y-14328376I-60000J0D01*
G01*
D11*
X8036081Y-14418853D02*
X7921795Y-14418853D01*
X7978938Y-14418853D02*
X7978938Y-14218853D01*
X7959890Y-14247424D01*
X7940843Y-14266472D01*
X7921795Y-14275995D01*
X8121795Y-14399805D02*
X8131319Y-14409329D01*
X8121795Y-14418853D01*
X8112271Y-14409329D01*
X8121795Y-14399805D01*
X8121795Y-14418853D01*
X8207509Y-14237900D02*
X8217033Y-14228376D01*
X8236081Y-14218853D01*
X8283700Y-14218853D01*
X8302748Y-14228376D01*
X8312271Y-14237900D01*
X8321795Y-14256948D01*
X8321795Y-14275995D01*
X8312271Y-14304567D01*
X8197986Y-14418853D01*
X8321795Y-14418853D01*
X8445605Y-14218853D02*
X8464652Y-14218853D01*
X8483700Y-14228376D01*
X8493224Y-14237900D01*
X8502748Y-14256948D01*
X8512271Y-14295043D01*
X8512271Y-14342662D01*
X8502748Y-14380757D01*
X8493224Y-14399805D01*
X8483700Y-14409329D01*
X8464652Y-14418853D01*
X8445605Y-14418853D01*
X8426557Y-14409329D01*
X8417033Y-14399805D01*
X8407510Y-14380757D01*
X8397986Y-14342662D01*
X8397986Y-14295043D01*
X8407510Y-14256948D01*
X8417033Y-14237900D01*
X8426557Y-14228376D01*
X8445605Y-14218853D01*
X8636081Y-14218853D02*
X8655129Y-14218853D01*
X8674176Y-14228376D01*
X8683700Y-14237900D01*
X8693224Y-14256948D01*
X8702748Y-14295043D01*
X8702748Y-14342662D01*
X8693224Y-14380757D01*
X8683700Y-14399805D01*
X8674176Y-14409329D01*
X8655129Y-14418853D01*
X8636081Y-14418853D01*
X8617033Y-14409329D01*
X8607510Y-14399805D01*
X8597986Y-14380757D01*
X8588462Y-14342662D01*
X8588462Y-14295043D01*
X8597986Y-14256948D01*
X8607510Y-14237900D01*
X8617033Y-14228376D01*
X8636081Y-14218853D01*
X8788462Y-14418853D02*
X8788462Y-14285519D01*
X8788462Y-14304567D02*
X8797986Y-14295043D01*
X8817033Y-14285519D01*
X8845605Y-14285519D01*
X8864652Y-14295043D01*
X8874176Y-14314091D01*
X8874176Y-14418853D01*
X8874176Y-14314091D02*
X8883700Y-14295043D01*
X8902748Y-14285519D01*
X8931319Y-14285519D01*
X8950367Y-14295043D01*
X8959890Y-14314091D01*
X8959890Y-14418853D01*
X9055129Y-14418853D02*
X9055129Y-14285519D01*
X9055129Y-14304567D02*
X9064652Y-14295043D01*
X9083700Y-14285519D01*
X9112271Y-14285519D01*
X9131319Y-14295043D01*
X9140843Y-14314091D01*
X9140843Y-14418853D01*
X9140843Y-14314091D02*
X9150367Y-14295043D01*
X9169414Y-14285519D01*
X9197986Y-14285519D01*
X9217033Y-14295043D01*
X9226557Y-14314091D01*
X9226557Y-14418853D01*
X9617033Y-14209329D02*
X9445605Y-14466472D01*
X9874176Y-14218853D02*
X9893224Y-14218853D01*
X9912271Y-14228376D01*
X9921795Y-14237900D01*
X9931319Y-14256948D01*
X9940843Y-14295043D01*
X9940843Y-14342662D01*
X9931319Y-14380757D01*
X9921795Y-14399805D01*
X9912271Y-14409329D01*
X9893224Y-14418853D01*
X9874176Y-14418853D01*
X9855129Y-14409329D01*
X9845605Y-14399805D01*
X9836081Y-14380757D01*
X9826557Y-14342662D01*
X9826557Y-14295043D01*
X9836081Y-14256948D01*
X9845605Y-14237900D01*
X9855129Y-14228376D01*
X9874176Y-14218853D01*
X10026557Y-14399805D02*
X10036081Y-14409329D01*
X10026557Y-14418853D01*
X10017033Y-14409329D01*
X10026557Y-14399805D01*
X10026557Y-14418853D01*
X10159890Y-14218853D02*
X10178938Y-14218853D01*
X10197986Y-14228376D01*
X10207510Y-14237900D01*
X10217033Y-14256948D01*
X10226557Y-14295043D01*
X10226557Y-14342662D01*
X10217033Y-14380757D01*
X10207510Y-14399805D01*
X10197986Y-14409329D01*
X10178938Y-14418853D01*
X10159890Y-14418853D01*
X10140843Y-14409329D01*
X10131319Y-14399805D01*
X10121795Y-14380757D01*
X10112271Y-14342662D01*
X10112271Y-14295043D01*
X10121795Y-14256948D01*
X10131319Y-14237900D01*
X10140843Y-14228376D01*
X10159890Y-14218853D01*
X10397986Y-14285519D02*
X10397986Y-14418853D01*
X10350367Y-14209329D02*
X10302748Y-14352186D01*
X10426557Y-14352186D01*
X10483700Y-14218853D02*
X10617033Y-14218853D01*
X10531319Y-14418853D01*
X10683700Y-14237900D02*
X10693224Y-14228376D01*
X10712271Y-14218853D01*
X10759890Y-14218853D01*
X10778938Y-14228376D01*
X10788462Y-14237900D01*
X10797986Y-14256948D01*
X10797986Y-14275995D01*
X10788462Y-14304567D01*
X10674176Y-14418853D01*
X10797986Y-14418853D01*
X10874176Y-14218853D02*
X10874176Y-14256948D01*
X10950367Y-14218853D02*
X10950367Y-14256948D01*
X11245605Y-14495043D02*
X11236081Y-14485519D01*
X11217033Y-14456948D01*
X11207509Y-14437900D01*
X11197986Y-14409329D01*
X11188462Y-14361710D01*
X11188462Y-14323614D01*
X11197986Y-14275995D01*
X11207509Y-14247424D01*
X11217033Y-14228376D01*
X11236081Y-14199805D01*
X11245605Y-14190281D01*
X11407509Y-14285519D02*
X11407509Y-14418853D01*
X11359890Y-14209329D02*
X11312271Y-14352186D01*
X11436081Y-14352186D01*
X11664652Y-14418853D02*
X11664652Y-14218853D01*
X11750367Y-14418853D02*
X11750367Y-14314091D01*
X11740843Y-14295043D01*
X11721795Y-14285519D01*
X11693224Y-14285519D01*
X11674176Y-14295043D01*
X11664652Y-14304567D01*
X11874176Y-14418853D02*
X11855128Y-14409329D01*
X11845605Y-14399805D01*
X11836081Y-14380757D01*
X11836081Y-14323614D01*
X11845605Y-14304567D01*
X11855128Y-14295043D01*
X11874176Y-14285519D01*
X11902748Y-14285519D01*
X11921795Y-14295043D01*
X11931319Y-14304567D01*
X11940843Y-14323614D01*
X11940843Y-14380757D01*
X11931319Y-14399805D01*
X11921795Y-14409329D01*
X11902748Y-14418853D01*
X11874176Y-14418853D01*
X12055128Y-14418853D02*
X12036081Y-14409329D01*
X12026557Y-14390281D01*
X12026557Y-14218853D01*
X12207509Y-14409329D02*
X12188462Y-14418853D01*
X12150367Y-14418853D01*
X12131319Y-14409329D01*
X12121795Y-14390281D01*
X12121795Y-14314091D01*
X12131319Y-14295043D01*
X12150367Y-14285519D01*
X12188462Y-14285519D01*
X12207509Y-14295043D01*
X12217033Y-14314091D01*
X12217033Y-14333138D01*
X12121795Y-14352186D01*
X12293224Y-14409329D02*
X12312271Y-14418853D01*
X12350367Y-14418853D01*
X12369414Y-14409329D01*
X12378938Y-14390281D01*
X12378938Y-14380757D01*
X12369414Y-14361710D01*
X12350367Y-14352186D01*
X12321795Y-14352186D01*
X12302748Y-14342662D01*
X12293224Y-14323614D01*
X12293224Y-14314091D01*
X12302748Y-14295043D01*
X12321795Y-14285519D01*
X12350367Y-14285519D01*
X12369414Y-14295043D01*
X12445605Y-14495043D02*
X12455128Y-14485519D01*
X12474176Y-14456948D01*
X12483700Y-14437900D01*
X12493224Y-14409329D01*
X12502748Y-14361710D01*
X12502748Y-14323614D01*
X12493224Y-14275995D01*
X12483700Y-14247424D01*
X12474176Y-14228376D01*
X12455128Y-14199805D01*
X12445605Y-14190281D01*
X12807509Y-14495043D02*
X12797986Y-14485519D01*
X12778938Y-14456948D01*
X12769414Y-14437900D01*
X12759890Y-14409329D01*
X12750367Y-14361710D01*
X12750367Y-14323614D01*
X12759890Y-14275995D01*
X12769414Y-14247424D01*
X12778938Y-14228376D01*
X12797986Y-14199805D01*
X12807509Y-14190281D01*
X12883700Y-14285519D02*
X12883700Y-14418853D01*
X12883700Y-14304567D02*
X12893224Y-14295043D01*
X12912271Y-14285519D01*
X12940843Y-14285519D01*
X12959890Y-14295043D01*
X12969414Y-14314091D01*
X12969414Y-14418853D01*
X13093224Y-14418853D02*
X13074176Y-14409329D01*
X13064652Y-14399805D01*
X13055128Y-14380757D01*
X13055128Y-14323614D01*
X13064652Y-14304567D01*
X13074176Y-14295043D01*
X13093224Y-14285519D01*
X13121795Y-14285519D01*
X13140843Y-14295043D01*
X13150367Y-14304567D01*
X13159890Y-14323614D01*
X13159890Y-14380757D01*
X13150367Y-14399805D01*
X13140843Y-14409329D01*
X13121795Y-14418853D01*
X13093224Y-14418853D01*
X13217033Y-14285519D02*
X13293224Y-14285519D01*
X13245605Y-14218853D02*
X13245605Y-14390281D01*
X13255128Y-14409329D01*
X13274176Y-14418853D01*
X13293224Y-14418853D01*
X13512271Y-14285519D02*
X13512271Y-14485519D01*
X13512271Y-14295043D02*
X13531319Y-14285519D01*
X13569414Y-14285519D01*
X13588462Y-14295043D01*
X13597986Y-14304567D01*
X13607509Y-14323614D01*
X13607509Y-14380757D01*
X13597986Y-14399805D01*
X13588462Y-14409329D01*
X13569414Y-14418853D01*
X13531319Y-14418853D01*
X13512271Y-14409329D01*
X13721795Y-14418853D02*
X13702748Y-14409329D01*
X13693224Y-14390281D01*
X13693224Y-14218853D01*
X13883700Y-14418853D02*
X13883700Y-14314091D01*
X13874176Y-14295043D01*
X13855128Y-14285519D01*
X13817033Y-14285519D01*
X13797986Y-14295043D01*
X13883700Y-14409329D02*
X13864652Y-14418853D01*
X13817033Y-14418853D01*
X13797986Y-14409329D01*
X13788462Y-14390281D01*
X13788462Y-14371234D01*
X13797986Y-14352186D01*
X13817033Y-14342662D01*
X13864652Y-14342662D01*
X13883700Y-14333138D01*
X13950367Y-14285519D02*
X14026557Y-14285519D01*
X13978938Y-14218853D02*
X13978938Y-14390281D01*
X13988462Y-14409329D01*
X14007509Y-14418853D01*
X14026557Y-14418853D01*
X14169414Y-14409329D02*
X14150367Y-14418853D01*
X14112271Y-14418853D01*
X14093224Y-14409329D01*
X14083700Y-14390281D01*
X14083700Y-14314091D01*
X14093224Y-14295043D01*
X14112271Y-14285519D01*
X14150367Y-14285519D01*
X14169414Y-14295043D01*
X14178938Y-14314091D01*
X14178938Y-14333138D01*
X14083700Y-14352186D01*
X14350367Y-14418853D02*
X14350367Y-14218853D01*
X14350367Y-14409329D02*
X14331319Y-14418853D01*
X14293224Y-14418853D01*
X14274176Y-14409329D01*
X14264652Y-14399805D01*
X14255128Y-14380757D01*
X14255128Y-14323614D01*
X14264652Y-14304567D01*
X14274176Y-14295043D01*
X14293224Y-14285519D01*
X14331319Y-14285519D01*
X14350367Y-14295043D01*
X14426557Y-14495043D02*
X14436081Y-14485519D01*
X14455128Y-14456948D01*
X14464652Y-14437900D01*
X14474176Y-14409329D01*
X14483700Y-14361710D01*
X14483700Y-14323614D01*
X14474176Y-14275995D01*
X14464652Y-14247424D01*
X14455128Y-14228376D01*
X14436081Y-14199805D01*
X14426557Y-14190281D01*
D14*
X7588610Y-14507286D02*
X7588610Y-14677466D01*
X7503520Y-14592376D02*
X7673700Y-14592376D01*
D11*
X8036081Y-14682853D02*
X7921795Y-14682853D01*
X7978938Y-14682853D02*
X7978938Y-14482853D01*
X7959890Y-14511424D01*
X7940843Y-14530472D01*
X7921795Y-14539995D01*
X8121795Y-14663805D02*
X8131319Y-14673329D01*
X8121795Y-14682853D01*
X8112271Y-14673329D01*
X8121795Y-14663805D01*
X8121795Y-14682853D01*
X8197986Y-14482853D02*
X8331319Y-14482853D01*
X8245605Y-14682853D01*
X8445605Y-14482853D02*
X8464652Y-14482853D01*
X8483700Y-14492376D01*
X8493224Y-14501900D01*
X8502748Y-14520948D01*
X8512271Y-14559043D01*
X8512271Y-14606662D01*
X8502748Y-14644757D01*
X8493224Y-14663805D01*
X8483700Y-14673329D01*
X8464652Y-14682853D01*
X8445605Y-14682853D01*
X8426557Y-14673329D01*
X8417033Y-14663805D01*
X8407510Y-14644757D01*
X8397986Y-14606662D01*
X8397986Y-14559043D01*
X8407510Y-14520948D01*
X8417033Y-14501900D01*
X8426557Y-14492376D01*
X8445605Y-14482853D01*
X8588462Y-14501900D02*
X8597986Y-14492376D01*
X8617033Y-14482853D01*
X8664652Y-14482853D01*
X8683700Y-14492376D01*
X8693224Y-14501900D01*
X8702748Y-14520948D01*
X8702748Y-14539995D01*
X8693224Y-14568567D01*
X8578938Y-14682853D01*
X8702748Y-14682853D01*
X8788462Y-14682853D02*
X8788462Y-14549519D01*
X8788462Y-14568567D02*
X8797986Y-14559043D01*
X8817033Y-14549519D01*
X8845605Y-14549519D01*
X8864652Y-14559043D01*
X8874176Y-14578091D01*
X8874176Y-14682853D01*
X8874176Y-14578091D02*
X8883700Y-14559043D01*
X8902748Y-14549519D01*
X8931319Y-14549519D01*
X8950367Y-14559043D01*
X8959890Y-14578091D01*
X8959890Y-14682853D01*
X9055129Y-14682853D02*
X9055129Y-14549519D01*
X9055129Y-14568567D02*
X9064652Y-14559043D01*
X9083700Y-14549519D01*
X9112271Y-14549519D01*
X9131319Y-14559043D01*
X9140843Y-14578091D01*
X9140843Y-14682853D01*
X9140843Y-14578091D02*
X9150367Y-14559043D01*
X9169414Y-14549519D01*
X9197986Y-14549519D01*
X9217033Y-14559043D01*
X9226557Y-14578091D01*
X9226557Y-14682853D01*
X9617033Y-14473329D02*
X9445605Y-14730472D01*
X9874176Y-14482853D02*
X9893224Y-14482853D01*
X9912271Y-14492376D01*
X9921795Y-14501900D01*
X9931319Y-14520948D01*
X9940843Y-14559043D01*
X9940843Y-14606662D01*
X9931319Y-14644757D01*
X9921795Y-14663805D01*
X9912271Y-14673329D01*
X9893224Y-14682853D01*
X9874176Y-14682853D01*
X9855129Y-14673329D01*
X9845605Y-14663805D01*
X9836081Y-14644757D01*
X9826557Y-14606662D01*
X9826557Y-14559043D01*
X9836081Y-14520948D01*
X9845605Y-14501900D01*
X9855129Y-14492376D01*
X9874176Y-14482853D01*
X10026557Y-14663805D02*
X10036081Y-14673329D01*
X10026557Y-14682853D01*
X10017033Y-14673329D01*
X10026557Y-14663805D01*
X10026557Y-14682853D01*
X10159890Y-14482853D02*
X10178938Y-14482853D01*
X10197986Y-14492376D01*
X10207510Y-14501900D01*
X10217033Y-14520948D01*
X10226557Y-14559043D01*
X10226557Y-14606662D01*
X10217033Y-14644757D01*
X10207510Y-14663805D01*
X10197986Y-14673329D01*
X10178938Y-14682853D01*
X10159890Y-14682853D01*
X10140843Y-14673329D01*
X10131319Y-14663805D01*
X10121795Y-14644757D01*
X10112271Y-14606662D01*
X10112271Y-14559043D01*
X10121795Y-14520948D01*
X10131319Y-14501900D01*
X10140843Y-14492376D01*
X10159890Y-14482853D01*
X10397986Y-14482853D02*
X10359890Y-14482853D01*
X10340843Y-14492376D01*
X10331319Y-14501900D01*
X10312271Y-14530472D01*
X10302748Y-14568567D01*
X10302748Y-14644757D01*
X10312271Y-14663805D01*
X10321795Y-14673329D01*
X10340843Y-14682853D01*
X10378938Y-14682853D01*
X10397986Y-14673329D01*
X10407510Y-14663805D01*
X10417033Y-14644757D01*
X10417033Y-14597138D01*
X10407510Y-14578091D01*
X10397986Y-14568567D01*
X10378938Y-14559043D01*
X10340843Y-14559043D01*
X10321795Y-14568567D01*
X10312271Y-14578091D01*
X10302748Y-14597138D01*
X10483700Y-14482853D02*
X10617033Y-14482853D01*
X10531319Y-14682853D01*
X10731319Y-14482853D02*
X10750367Y-14482853D01*
X10769414Y-14492376D01*
X10778938Y-14501900D01*
X10788462Y-14520948D01*
X10797986Y-14559043D01*
X10797986Y-14606662D01*
X10788462Y-14644757D01*
X10778938Y-14663805D01*
X10769414Y-14673329D01*
X10750367Y-14682853D01*
X10731319Y-14682853D01*
X10712271Y-14673329D01*
X10702748Y-14663805D01*
X10693224Y-14644757D01*
X10683700Y-14606662D01*
X10683700Y-14559043D01*
X10693224Y-14520948D01*
X10702748Y-14501900D01*
X10712271Y-14492376D01*
X10731319Y-14482853D01*
X10874176Y-14482853D02*
X10874176Y-14520948D01*
X10950367Y-14482853D02*
X10950367Y-14520948D01*
X11245605Y-14759043D02*
X11236081Y-14749519D01*
X11217033Y-14720948D01*
X11207509Y-14701900D01*
X11197986Y-14673329D01*
X11188462Y-14625710D01*
X11188462Y-14587614D01*
X11197986Y-14539995D01*
X11207509Y-14511424D01*
X11217033Y-14492376D01*
X11236081Y-14463805D01*
X11245605Y-14454281D01*
X11302748Y-14482853D02*
X11426557Y-14482853D01*
X11359890Y-14559043D01*
X11388462Y-14559043D01*
X11407509Y-14568567D01*
X11417033Y-14578091D01*
X11426557Y-14597138D01*
X11426557Y-14644757D01*
X11417033Y-14663805D01*
X11407509Y-14673329D01*
X11388462Y-14682853D01*
X11331319Y-14682853D01*
X11312271Y-14673329D01*
X11302748Y-14663805D01*
X11597986Y-14482853D02*
X11559890Y-14482853D01*
X11540843Y-14492376D01*
X11531319Y-14501900D01*
X11512271Y-14530472D01*
X11502748Y-14568567D01*
X11502748Y-14644757D01*
X11512271Y-14663805D01*
X11521795Y-14673329D01*
X11540843Y-14682853D01*
X11578938Y-14682853D01*
X11597986Y-14673329D01*
X11607509Y-14663805D01*
X11617033Y-14644757D01*
X11617033Y-14597138D01*
X11607509Y-14578091D01*
X11597986Y-14568567D01*
X11578938Y-14559043D01*
X11540843Y-14559043D01*
X11521795Y-14568567D01*
X11512271Y-14578091D01*
X11502748Y-14597138D01*
X11855128Y-14682853D02*
X11855128Y-14482853D01*
X11940843Y-14682853D02*
X11940843Y-14578091D01*
X11931319Y-14559043D01*
X11912271Y-14549519D01*
X11883700Y-14549519D01*
X11864652Y-14559043D01*
X11855128Y-14568567D01*
X12064652Y-14682853D02*
X12045605Y-14673329D01*
X12036081Y-14663805D01*
X12026557Y-14644757D01*
X12026557Y-14587614D01*
X12036081Y-14568567D01*
X12045605Y-14559043D01*
X12064652Y-14549519D01*
X12093224Y-14549519D01*
X12112271Y-14559043D01*
X12121795Y-14568567D01*
X12131319Y-14587614D01*
X12131319Y-14644757D01*
X12121795Y-14663805D01*
X12112271Y-14673329D01*
X12093224Y-14682853D01*
X12064652Y-14682853D01*
X12245605Y-14682853D02*
X12226557Y-14673329D01*
X12217033Y-14654281D01*
X12217033Y-14482853D01*
X12397986Y-14673329D02*
X12378938Y-14682853D01*
X12340843Y-14682853D01*
X12321795Y-14673329D01*
X12312271Y-14654281D01*
X12312271Y-14578091D01*
X12321795Y-14559043D01*
X12340843Y-14549519D01*
X12378938Y-14549519D01*
X12397986Y-14559043D01*
X12407509Y-14578091D01*
X12407509Y-14597138D01*
X12312271Y-14616186D01*
X12483700Y-14673329D02*
X12502748Y-14682853D01*
X12540843Y-14682853D01*
X12559890Y-14673329D01*
X12569414Y-14654281D01*
X12569414Y-14644757D01*
X12559890Y-14625710D01*
X12540843Y-14616186D01*
X12512271Y-14616186D01*
X12493224Y-14606662D01*
X12483700Y-14587614D01*
X12483700Y-14578091D01*
X12493224Y-14559043D01*
X12512271Y-14549519D01*
X12540843Y-14549519D01*
X12559890Y-14559043D01*
X12636081Y-14759043D02*
X12645605Y-14749519D01*
X12664652Y-14720948D01*
X12674176Y-14701900D01*
X12683700Y-14673329D01*
X12693224Y-14625710D01*
X12693224Y-14587614D01*
X12683700Y-14539995D01*
X12674176Y-14511424D01*
X12664652Y-14492376D01*
X12645605Y-14463805D01*
X12636081Y-14454281D01*
X12997986Y-14759043D02*
X12988462Y-14749519D01*
X12969414Y-14720948D01*
X12959890Y-14701900D01*
X12950367Y-14673329D01*
X12940843Y-14625710D01*
X12940843Y-14587614D01*
X12950367Y-14539995D01*
X12959890Y-14511424D01*
X12969414Y-14492376D01*
X12988462Y-14463805D01*
X12997986Y-14454281D01*
X13074176Y-14549519D02*
X13074176Y-14682853D01*
X13074176Y-14568567D02*
X13083700Y-14559043D01*
X13102748Y-14549519D01*
X13131319Y-14549519D01*
X13150367Y-14559043D01*
X13159890Y-14578091D01*
X13159890Y-14682853D01*
X13283700Y-14682853D02*
X13264652Y-14673329D01*
X13255128Y-14663805D01*
X13245605Y-14644757D01*
X13245605Y-14587614D01*
X13255128Y-14568567D01*
X13264652Y-14559043D01*
X13283700Y-14549519D01*
X13312271Y-14549519D01*
X13331319Y-14559043D01*
X13340843Y-14568567D01*
X13350367Y-14587614D01*
X13350367Y-14644757D01*
X13340843Y-14663805D01*
X13331319Y-14673329D01*
X13312271Y-14682853D01*
X13283700Y-14682853D01*
X13407509Y-14549519D02*
X13483700Y-14549519D01*
X13436081Y-14482853D02*
X13436081Y-14654281D01*
X13445605Y-14673329D01*
X13464652Y-14682853D01*
X13483700Y-14682853D01*
X13702748Y-14549519D02*
X13702748Y-14749519D01*
X13702748Y-14559043D02*
X13721795Y-14549519D01*
X13759890Y-14549519D01*
X13778938Y-14559043D01*
X13788462Y-14568567D01*
X13797986Y-14587614D01*
X13797986Y-14644757D01*
X13788462Y-14663805D01*
X13778938Y-14673329D01*
X13759890Y-14682853D01*
X13721795Y-14682853D01*
X13702748Y-14673329D01*
X13912271Y-14682853D02*
X13893224Y-14673329D01*
X13883700Y-14654281D01*
X13883700Y-14482853D01*
X14074176Y-14682853D02*
X14074176Y-14578091D01*
X14064652Y-14559043D01*
X14045605Y-14549519D01*
X14007509Y-14549519D01*
X13988462Y-14559043D01*
X14074176Y-14673329D02*
X14055128Y-14682853D01*
X14007509Y-14682853D01*
X13988462Y-14673329D01*
X13978938Y-14654281D01*
X13978938Y-14635234D01*
X13988462Y-14616186D01*
X14007509Y-14606662D01*
X14055128Y-14606662D01*
X14074176Y-14597138D01*
X14140843Y-14549519D02*
X14217033Y-14549519D01*
X14169414Y-14482853D02*
X14169414Y-14654281D01*
X14178938Y-14673329D01*
X14197986Y-14682853D01*
X14217033Y-14682853D01*
X14359890Y-14673329D02*
X14340843Y-14682853D01*
X14302748Y-14682853D01*
X14283700Y-14673329D01*
X14274176Y-14654281D01*
X14274176Y-14578091D01*
X14283700Y-14559043D01*
X14302748Y-14549519D01*
X14340843Y-14549519D01*
X14359890Y-14559043D01*
X14369414Y-14578091D01*
X14369414Y-14597138D01*
X14274176Y-14616186D01*
X14540843Y-14682853D02*
X14540843Y-14482853D01*
X14540843Y-14673329D02*
X14521795Y-14682853D01*
X14483700Y-14682853D01*
X14464652Y-14673329D01*
X14455128Y-14663805D01*
X14445605Y-14644757D01*
X14445605Y-14587614D01*
X14455128Y-14568567D01*
X14464652Y-14559043D01*
X14483700Y-14549519D01*
X14521795Y-14549519D01*
X14540843Y-14559043D01*
X14617033Y-14759043D02*
X14626557Y-14749519D01*
X14645605Y-14720948D01*
X14655128Y-14701900D01*
X14664652Y-14673329D01*
X14674176Y-14625710D01*
X14674176Y-14587614D01*
X14664652Y-14539995D01*
X14655128Y-14511424D01*
X14645605Y-14492376D01*
X14626557Y-14463805D01*
X14617033Y-14454281D01*
X7644411Y-14953268D02*
X7644411Y-14811845D01*
X7502989Y-14811845D01*
X7502989Y-14953268D01*
X7644411Y-14953268D01*
X7912271Y-14773033D02*
X8036081Y-14773033D01*
X7969414Y-14849223D01*
X7997986Y-14849223D01*
X8017033Y-14858747D01*
X8026557Y-14868271D01*
X8036081Y-14887318D01*
X8036081Y-14934937D01*
X8026557Y-14953985D01*
X8017033Y-14963509D01*
X7997986Y-14973033D01*
X7940843Y-14973033D01*
X7921795Y-14963509D01*
X7912271Y-14953985D01*
X8121795Y-14953985D02*
X8131319Y-14963509D01*
X8121795Y-14973033D01*
X8112271Y-14963509D01*
X8121795Y-14953985D01*
X8121795Y-14973033D01*
X8255128Y-14773033D02*
X8274176Y-14773033D01*
X8293224Y-14782556D01*
X8302748Y-14792080D01*
X8312271Y-14811128D01*
X8321795Y-14849223D01*
X8321795Y-14896842D01*
X8312271Y-14934937D01*
X8302748Y-14953985D01*
X8293224Y-14963509D01*
X8274176Y-14973033D01*
X8255128Y-14973033D01*
X8236081Y-14963509D01*
X8226557Y-14953985D01*
X8217033Y-14934937D01*
X8207509Y-14896842D01*
X8207509Y-14849223D01*
X8217033Y-14811128D01*
X8226557Y-14792080D01*
X8236081Y-14782556D01*
X8255128Y-14773033D01*
X8445605Y-14773033D02*
X8464652Y-14773033D01*
X8483700Y-14782556D01*
X8493224Y-14792080D01*
X8502748Y-14811128D01*
X8512271Y-14849223D01*
X8512271Y-14896842D01*
X8502748Y-14934937D01*
X8493224Y-14953985D01*
X8483700Y-14963509D01*
X8464652Y-14973033D01*
X8445605Y-14973033D01*
X8426557Y-14963509D01*
X8417033Y-14953985D01*
X8407510Y-14934937D01*
X8397986Y-14896842D01*
X8397986Y-14849223D01*
X8407510Y-14811128D01*
X8417033Y-14792080D01*
X8426557Y-14782556D01*
X8445605Y-14773033D01*
X8636081Y-14773033D02*
X8655129Y-14773033D01*
X8674176Y-14782556D01*
X8683700Y-14792080D01*
X8693224Y-14811128D01*
X8702748Y-14849223D01*
X8702748Y-14896842D01*
X8693224Y-14934937D01*
X8683700Y-14953985D01*
X8674176Y-14963509D01*
X8655129Y-14973033D01*
X8636081Y-14973033D01*
X8617033Y-14963509D01*
X8607510Y-14953985D01*
X8597986Y-14934937D01*
X8588462Y-14896842D01*
X8588462Y-14849223D01*
X8597986Y-14811128D01*
X8607510Y-14792080D01*
X8617033Y-14782556D01*
X8636081Y-14773033D01*
X8788462Y-14973033D02*
X8788462Y-14839699D01*
X8788462Y-14858747D02*
X8797986Y-14849223D01*
X8817033Y-14839699D01*
X8845605Y-14839699D01*
X8864652Y-14849223D01*
X8874176Y-14868271D01*
X8874176Y-14973033D01*
X8874176Y-14868271D02*
X8883700Y-14849223D01*
X8902748Y-14839699D01*
X8931319Y-14839699D01*
X8950367Y-14849223D01*
X8959890Y-14868271D01*
X8959890Y-14973033D01*
X9055129Y-14973033D02*
X9055129Y-14839699D01*
X9055129Y-14858747D02*
X9064652Y-14849223D01*
X9083700Y-14839699D01*
X9112271Y-14839699D01*
X9131319Y-14849223D01*
X9140843Y-14868271D01*
X9140843Y-14973033D01*
X9140843Y-14868271D02*
X9150367Y-14849223D01*
X9169414Y-14839699D01*
X9197986Y-14839699D01*
X9217033Y-14849223D01*
X9226557Y-14868271D01*
X9226557Y-14973033D01*
X9617033Y-14763509D02*
X9445605Y-15020652D01*
X9874176Y-14773033D02*
X9893224Y-14773033D01*
X9912271Y-14782556D01*
X9921795Y-14792080D01*
X9931319Y-14811128D01*
X9940843Y-14849223D01*
X9940843Y-14896842D01*
X9931319Y-14934937D01*
X9921795Y-14953985D01*
X9912271Y-14963509D01*
X9893224Y-14973033D01*
X9874176Y-14973033D01*
X9855129Y-14963509D01*
X9845605Y-14953985D01*
X9836081Y-14934937D01*
X9826557Y-14896842D01*
X9826557Y-14849223D01*
X9836081Y-14811128D01*
X9845605Y-14792080D01*
X9855129Y-14782556D01*
X9874176Y-14773033D01*
X10026557Y-14953985D02*
X10036081Y-14963509D01*
X10026557Y-14973033D01*
X10017033Y-14963509D01*
X10026557Y-14953985D01*
X10026557Y-14973033D01*
X10226557Y-14973033D02*
X10112271Y-14973033D01*
X10169414Y-14973033D02*
X10169414Y-14773033D01*
X10150367Y-14801604D01*
X10131319Y-14820652D01*
X10112271Y-14830175D01*
X10417033Y-14973033D02*
X10302748Y-14973033D01*
X10359890Y-14973033D02*
X10359890Y-14773033D01*
X10340843Y-14801604D01*
X10321795Y-14820652D01*
X10302748Y-14830175D01*
X10531319Y-14858747D02*
X10512271Y-14849223D01*
X10502748Y-14839699D01*
X10493224Y-14820652D01*
X10493224Y-14811128D01*
X10502748Y-14792080D01*
X10512271Y-14782556D01*
X10531319Y-14773033D01*
X10569414Y-14773033D01*
X10588462Y-14782556D01*
X10597986Y-14792080D01*
X10607510Y-14811128D01*
X10607510Y-14820652D01*
X10597986Y-14839699D01*
X10588462Y-14849223D01*
X10569414Y-14858747D01*
X10531319Y-14858747D01*
X10512271Y-14868271D01*
X10502748Y-14877794D01*
X10493224Y-14896842D01*
X10493224Y-14934937D01*
X10502748Y-14953985D01*
X10512271Y-14963509D01*
X10531319Y-14973033D01*
X10569414Y-14973033D01*
X10588462Y-14963509D01*
X10597986Y-14953985D01*
X10607510Y-14934937D01*
X10607510Y-14896842D01*
X10597986Y-14877794D01*
X10588462Y-14868271D01*
X10569414Y-14858747D01*
X10797986Y-14973033D02*
X10683700Y-14973033D01*
X10740843Y-14973033D02*
X10740843Y-14773033D01*
X10721795Y-14801604D01*
X10702748Y-14820652D01*
X10683700Y-14830175D01*
X10874176Y-14773033D02*
X10874176Y-14811128D01*
X10950367Y-14773033D02*
X10950367Y-14811128D01*
X11245605Y-15049223D02*
X11236081Y-15039699D01*
X11217033Y-15011128D01*
X11207509Y-14992080D01*
X11197986Y-14963509D01*
X11188462Y-14915890D01*
X11188462Y-14877794D01*
X11197986Y-14830175D01*
X11207509Y-14801604D01*
X11217033Y-14782556D01*
X11236081Y-14753985D01*
X11245605Y-14744461D01*
X11417033Y-14773033D02*
X11321795Y-14773033D01*
X11312271Y-14868271D01*
X11321795Y-14858747D01*
X11340843Y-14849223D01*
X11388462Y-14849223D01*
X11407509Y-14858747D01*
X11417033Y-14868271D01*
X11426557Y-14887318D01*
X11426557Y-14934937D01*
X11417033Y-14953985D01*
X11407509Y-14963509D01*
X11388462Y-14973033D01*
X11340843Y-14973033D01*
X11321795Y-14963509D01*
X11312271Y-14953985D01*
X11597986Y-14839699D02*
X11597986Y-14973033D01*
X11550367Y-14763509D02*
X11502748Y-14906366D01*
X11626557Y-14906366D01*
X11855128Y-14973033D02*
X11855128Y-14773033D01*
X11940843Y-14973033D02*
X11940843Y-14868271D01*
X11931319Y-14849223D01*
X11912271Y-14839699D01*
X11883700Y-14839699D01*
X11864652Y-14849223D01*
X11855128Y-14858747D01*
X12064652Y-14973033D02*
X12045605Y-14963509D01*
X12036081Y-14953985D01*
X12026557Y-14934937D01*
X12026557Y-14877794D01*
X12036081Y-14858747D01*
X12045605Y-14849223D01*
X12064652Y-14839699D01*
X12093224Y-14839699D01*
X12112271Y-14849223D01*
X12121795Y-14858747D01*
X12131319Y-14877794D01*
X12131319Y-14934937D01*
X12121795Y-14953985D01*
X12112271Y-14963509D01*
X12093224Y-14973033D01*
X12064652Y-14973033D01*
X12245605Y-14973033D02*
X12226557Y-14963509D01*
X12217033Y-14944461D01*
X12217033Y-14773033D01*
X12397986Y-14963509D02*
X12378938Y-14973033D01*
X12340843Y-14973033D01*
X12321795Y-14963509D01*
X12312271Y-14944461D01*
X12312271Y-14868271D01*
X12321795Y-14849223D01*
X12340843Y-14839699D01*
X12378938Y-14839699D01*
X12397986Y-14849223D01*
X12407509Y-14868271D01*
X12407509Y-14887318D01*
X12312271Y-14906366D01*
X12483700Y-14963509D02*
X12502748Y-14973033D01*
X12540843Y-14973033D01*
X12559890Y-14963509D01*
X12569414Y-14944461D01*
X12569414Y-14934937D01*
X12559890Y-14915890D01*
X12540843Y-14906366D01*
X12512271Y-14906366D01*
X12493224Y-14896842D01*
X12483700Y-14877794D01*
X12483700Y-14868271D01*
X12493224Y-14849223D01*
X12512271Y-14839699D01*
X12540843Y-14839699D01*
X12559890Y-14849223D01*
X12636081Y-15049223D02*
X12645605Y-15039699D01*
X12664652Y-15011128D01*
X12674176Y-14992080D01*
X12683700Y-14963509D01*
X12693224Y-14915890D01*
X12693224Y-14877794D01*
X12683700Y-14830175D01*
X12674176Y-14801604D01*
X12664652Y-14782556D01*
X12645605Y-14753985D01*
X12636081Y-14744461D01*
X12997986Y-15049223D02*
X12988462Y-15039699D01*
X12969414Y-15011128D01*
X12959890Y-14992080D01*
X12950367Y-14963509D01*
X12940843Y-14915890D01*
X12940843Y-14877794D01*
X12950367Y-14830175D01*
X12959890Y-14801604D01*
X12969414Y-14782556D01*
X12988462Y-14753985D01*
X12997986Y-14744461D01*
X13074176Y-14839699D02*
X13074176Y-14973033D01*
X13074176Y-14858747D02*
X13083700Y-14849223D01*
X13102748Y-14839699D01*
X13131319Y-14839699D01*
X13150367Y-14849223D01*
X13159890Y-14868271D01*
X13159890Y-14973033D01*
X13283700Y-14973033D02*
X13264652Y-14963509D01*
X13255128Y-14953985D01*
X13245605Y-14934937D01*
X13245605Y-14877794D01*
X13255128Y-14858747D01*
X13264652Y-14849223D01*
X13283700Y-14839699D01*
X13312271Y-14839699D01*
X13331319Y-14849223D01*
X13340843Y-14858747D01*
X13350367Y-14877794D01*
X13350367Y-14934937D01*
X13340843Y-14953985D01*
X13331319Y-14963509D01*
X13312271Y-14973033D01*
X13283700Y-14973033D01*
X13407509Y-14839699D02*
X13483700Y-14839699D01*
X13436081Y-14773033D02*
X13436081Y-14944461D01*
X13445605Y-14963509D01*
X13464652Y-14973033D01*
X13483700Y-14973033D01*
X13702748Y-14839699D02*
X13702748Y-15039699D01*
X13702748Y-14849223D02*
X13721795Y-14839699D01*
X13759890Y-14839699D01*
X13778938Y-14849223D01*
X13788462Y-14858747D01*
X13797986Y-14877794D01*
X13797986Y-14934937D01*
X13788462Y-14953985D01*
X13778938Y-14963509D01*
X13759890Y-14973033D01*
X13721795Y-14973033D01*
X13702748Y-14963509D01*
X13912271Y-14973033D02*
X13893224Y-14963509D01*
X13883700Y-14944461D01*
X13883700Y-14773033D01*
X14074176Y-14973033D02*
X14074176Y-14868271D01*
X14064652Y-14849223D01*
X14045605Y-14839699D01*
X14007509Y-14839699D01*
X13988462Y-14849223D01*
X14074176Y-14963509D02*
X14055128Y-14973033D01*
X14007509Y-14973033D01*
X13988462Y-14963509D01*
X13978938Y-14944461D01*
X13978938Y-14925414D01*
X13988462Y-14906366D01*
X14007509Y-14896842D01*
X14055128Y-14896842D01*
X14074176Y-14887318D01*
X14140843Y-14839699D02*
X14217033Y-14839699D01*
X14169414Y-14773033D02*
X14169414Y-14944461D01*
X14178938Y-14963509D01*
X14197986Y-14973033D01*
X14217033Y-14973033D01*
X14359890Y-14963509D02*
X14340843Y-14973033D01*
X14302748Y-14973033D01*
X14283700Y-14963509D01*
X14274176Y-14944461D01*
X14274176Y-14868271D01*
X14283700Y-14849223D01*
X14302748Y-14839699D01*
X14340843Y-14839699D01*
X14359890Y-14849223D01*
X14369414Y-14868271D01*
X14369414Y-14887318D01*
X14274176Y-14906366D01*
X14540843Y-14973033D02*
X14540843Y-14773033D01*
X14540843Y-14963509D02*
X14521795Y-14973033D01*
X14483700Y-14973033D01*
X14464652Y-14963509D01*
X14455128Y-14953985D01*
X14445605Y-14934937D01*
X14445605Y-14877794D01*
X14455128Y-14858747D01*
X14464652Y-14849223D01*
X14483700Y-14839699D01*
X14521795Y-14839699D01*
X14540843Y-14849223D01*
X14617033Y-15049223D02*
X14626557Y-15039699D01*
X14645605Y-15011128D01*
X14655128Y-14992080D01*
X14664652Y-14963509D01*
X14674176Y-14915890D01*
X14674176Y-14877794D01*
X14664652Y-14830175D01*
X14655128Y-14801604D01*
X14645605Y-14782556D01*
X14626557Y-14753985D01*
X14617033Y-14744461D01*
X7573700Y-15302556D02*
X7673700Y-15202556D01*
X7573700Y-15102556D01*
X7473700Y-15202556D01*
X7573700Y-15302556D01*
X7912271Y-15093033D02*
X8036081Y-15093033D01*
X7969414Y-15169223D01*
X7997986Y-15169223D01*
X8017033Y-15178747D01*
X8026557Y-15188271D01*
X8036081Y-15207318D01*
X8036081Y-15254937D01*
X8026557Y-15273985D01*
X8017033Y-15283509D01*
X7997986Y-15293033D01*
X7940843Y-15293033D01*
X7921795Y-15283509D01*
X7912271Y-15273985D01*
X8121795Y-15273985D02*
X8131319Y-15283509D01*
X8121795Y-15293033D01*
X8112271Y-15283509D01*
X8121795Y-15273985D01*
X8121795Y-15293033D01*
X8302748Y-15159699D02*
X8302748Y-15293033D01*
X8255128Y-15083509D02*
X8207509Y-15226366D01*
X8331319Y-15226366D01*
X8397986Y-15112080D02*
X8407510Y-15102556D01*
X8426557Y-15093033D01*
X8474176Y-15093033D01*
X8493224Y-15102556D01*
X8502748Y-15112080D01*
X8512271Y-15131128D01*
X8512271Y-15150175D01*
X8502748Y-15178747D01*
X8388462Y-15293033D01*
X8512271Y-15293033D01*
X8607510Y-15293033D02*
X8645605Y-15293033D01*
X8664652Y-15283509D01*
X8674176Y-15273985D01*
X8693224Y-15245414D01*
X8702748Y-15207318D01*
X8702748Y-15131128D01*
X8693224Y-15112080D01*
X8683700Y-15102556D01*
X8664652Y-15093033D01*
X8626557Y-15093033D01*
X8607510Y-15102556D01*
X8597986Y-15112080D01*
X8588462Y-15131128D01*
X8588462Y-15178747D01*
X8597986Y-15197794D01*
X8607510Y-15207318D01*
X8626557Y-15216842D01*
X8664652Y-15216842D01*
X8683700Y-15207318D01*
X8693224Y-15197794D01*
X8702748Y-15178747D01*
X8788462Y-15293033D02*
X8788462Y-15159699D01*
X8788462Y-15178747D02*
X8797986Y-15169223D01*
X8817033Y-15159699D01*
X8845605Y-15159699D01*
X8864652Y-15169223D01*
X8874176Y-15188271D01*
X8874176Y-15293033D01*
X8874176Y-15188271D02*
X8883700Y-15169223D01*
X8902748Y-15159699D01*
X8931319Y-15159699D01*
X8950367Y-15169223D01*
X8959890Y-15188271D01*
X8959890Y-15293033D01*
X9055129Y-15293033D02*
X9055129Y-15159699D01*
X9055129Y-15178747D02*
X9064652Y-15169223D01*
X9083700Y-15159699D01*
X9112271Y-15159699D01*
X9131319Y-15169223D01*
X9140843Y-15188271D01*
X9140843Y-15293033D01*
X9140843Y-15188271D02*
X9150367Y-15169223D01*
X9169414Y-15159699D01*
X9197986Y-15159699D01*
X9217033Y-15169223D01*
X9226557Y-15188271D01*
X9226557Y-15293033D01*
X9617033Y-15083509D02*
X9445605Y-15340652D01*
X9874176Y-15093033D02*
X9893224Y-15093033D01*
X9912271Y-15102556D01*
X9921795Y-15112080D01*
X9931319Y-15131128D01*
X9940843Y-15169223D01*
X9940843Y-15216842D01*
X9931319Y-15254937D01*
X9921795Y-15273985D01*
X9912271Y-15283509D01*
X9893224Y-15293033D01*
X9874176Y-15293033D01*
X9855129Y-15283509D01*
X9845605Y-15273985D01*
X9836081Y-15254937D01*
X9826557Y-15216842D01*
X9826557Y-15169223D01*
X9836081Y-15131128D01*
X9845605Y-15112080D01*
X9855129Y-15102556D01*
X9874176Y-15093033D01*
X10026557Y-15273985D02*
X10036081Y-15283509D01*
X10026557Y-15293033D01*
X10017033Y-15283509D01*
X10026557Y-15273985D01*
X10026557Y-15293033D01*
X10226557Y-15293033D02*
X10112271Y-15293033D01*
X10169414Y-15293033D02*
X10169414Y-15093033D01*
X10150367Y-15121604D01*
X10131319Y-15140652D01*
X10112271Y-15150175D01*
X10293224Y-15093033D02*
X10417033Y-15093033D01*
X10350367Y-15169223D01*
X10378938Y-15169223D01*
X10397986Y-15178747D01*
X10407510Y-15188271D01*
X10417033Y-15207318D01*
X10417033Y-15254937D01*
X10407510Y-15273985D01*
X10397986Y-15283509D01*
X10378938Y-15293033D01*
X10321795Y-15293033D01*
X10302748Y-15283509D01*
X10293224Y-15273985D01*
X10597986Y-15093033D02*
X10502748Y-15093033D01*
X10493224Y-15188271D01*
X10502748Y-15178747D01*
X10521795Y-15169223D01*
X10569414Y-15169223D01*
X10588462Y-15178747D01*
X10597986Y-15188271D01*
X10607510Y-15207318D01*
X10607510Y-15254937D01*
X10597986Y-15273985D01*
X10588462Y-15283509D01*
X10569414Y-15293033D01*
X10521795Y-15293033D01*
X10502748Y-15283509D01*
X10493224Y-15273985D01*
X10731319Y-15093033D02*
X10750367Y-15093033D01*
X10769414Y-15102556D01*
X10778938Y-15112080D01*
X10788462Y-15131128D01*
X10797986Y-15169223D01*
X10797986Y-15216842D01*
X10788462Y-15254937D01*
X10778938Y-15273985D01*
X10769414Y-15283509D01*
X10750367Y-15293033D01*
X10731319Y-15293033D01*
X10712271Y-15283509D01*
X10702748Y-15273985D01*
X10693224Y-15254937D01*
X10683700Y-15216842D01*
X10683700Y-15169223D01*
X10693224Y-15131128D01*
X10702748Y-15112080D01*
X10712271Y-15102556D01*
X10731319Y-15093033D01*
X10874176Y-15093033D02*
X10874176Y-15131128D01*
X10950367Y-15093033D02*
X10950367Y-15131128D01*
X11245605Y-15369223D02*
X11236081Y-15359699D01*
X11217033Y-15331128D01*
X11207509Y-15312080D01*
X11197986Y-15283509D01*
X11188462Y-15235890D01*
X11188462Y-15197794D01*
X11197986Y-15150175D01*
X11207509Y-15121604D01*
X11217033Y-15102556D01*
X11236081Y-15073985D01*
X11245605Y-15064461D01*
X11426557Y-15293033D02*
X11312271Y-15293033D01*
X11369414Y-15293033D02*
X11369414Y-15093033D01*
X11350367Y-15121604D01*
X11331319Y-15140652D01*
X11312271Y-15150175D01*
X11540843Y-15178747D02*
X11521795Y-15169223D01*
X11512271Y-15159699D01*
X11502748Y-15140652D01*
X11502748Y-15131128D01*
X11512271Y-15112080D01*
X11521795Y-15102556D01*
X11540843Y-15093033D01*
X11578938Y-15093033D01*
X11597986Y-15102556D01*
X11607509Y-15112080D01*
X11617033Y-15131128D01*
X11617033Y-15140652D01*
X11607509Y-15159699D01*
X11597986Y-15169223D01*
X11578938Y-15178747D01*
X11540843Y-15178747D01*
X11521795Y-15188271D01*
X11512271Y-15197794D01*
X11502748Y-15216842D01*
X11502748Y-15254937D01*
X11512271Y-15273985D01*
X11521795Y-15283509D01*
X11540843Y-15293033D01*
X11578938Y-15293033D01*
X11597986Y-15283509D01*
X11607509Y-15273985D01*
X11617033Y-15254937D01*
X11617033Y-15216842D01*
X11607509Y-15197794D01*
X11597986Y-15188271D01*
X11578938Y-15178747D01*
X11855128Y-15293033D02*
X11855128Y-15093033D01*
X11940843Y-15293033D02*
X11940843Y-15188271D01*
X11931319Y-15169223D01*
X11912271Y-15159699D01*
X11883700Y-15159699D01*
X11864652Y-15169223D01*
X11855128Y-15178747D01*
X12064652Y-15293033D02*
X12045605Y-15283509D01*
X12036081Y-15273985D01*
X12026557Y-15254937D01*
X12026557Y-15197794D01*
X12036081Y-15178747D01*
X12045605Y-15169223D01*
X12064652Y-15159699D01*
X12093224Y-15159699D01*
X12112271Y-15169223D01*
X12121795Y-15178747D01*
X12131319Y-15197794D01*
X12131319Y-15254937D01*
X12121795Y-15273985D01*
X12112271Y-15283509D01*
X12093224Y-15293033D01*
X12064652Y-15293033D01*
X12245605Y-15293033D02*
X12226557Y-15283509D01*
X12217033Y-15264461D01*
X12217033Y-15093033D01*
X12397986Y-15283509D02*
X12378938Y-15293033D01*
X12340843Y-15293033D01*
X12321795Y-15283509D01*
X12312271Y-15264461D01*
X12312271Y-15188271D01*
X12321795Y-15169223D01*
X12340843Y-15159699D01*
X12378938Y-15159699D01*
X12397986Y-15169223D01*
X12407509Y-15188271D01*
X12407509Y-15207318D01*
X12312271Y-15226366D01*
X12483700Y-15283509D02*
X12502748Y-15293033D01*
X12540843Y-15293033D01*
X12559890Y-15283509D01*
X12569414Y-15264461D01*
X12569414Y-15254937D01*
X12559890Y-15235890D01*
X12540843Y-15226366D01*
X12512271Y-15226366D01*
X12493224Y-15216842D01*
X12483700Y-15197794D01*
X12483700Y-15188271D01*
X12493224Y-15169223D01*
X12512271Y-15159699D01*
X12540843Y-15159699D01*
X12559890Y-15169223D01*
X12636081Y-15369223D02*
X12645605Y-15359699D01*
X12664652Y-15331128D01*
X12674176Y-15312080D01*
X12683700Y-15283509D01*
X12693224Y-15235890D01*
X12693224Y-15197794D01*
X12683700Y-15150175D01*
X12674176Y-15121604D01*
X12664652Y-15102556D01*
X12645605Y-15073985D01*
X12636081Y-15064461D01*
X12997986Y-15369223D02*
X12988462Y-15359699D01*
X12969414Y-15331128D01*
X12959890Y-15312080D01*
X12950367Y-15283509D01*
X12940843Y-15235890D01*
X12940843Y-15197794D01*
X12950367Y-15150175D01*
X12959890Y-15121604D01*
X12969414Y-15102556D01*
X12988462Y-15073985D01*
X12997986Y-15064461D01*
X13074176Y-15159699D02*
X13074176Y-15293033D01*
X13074176Y-15178747D02*
X13083700Y-15169223D01*
X13102748Y-15159699D01*
X13131319Y-15159699D01*
X13150367Y-15169223D01*
X13159890Y-15188271D01*
X13159890Y-15293033D01*
X13283700Y-15293033D02*
X13264652Y-15283509D01*
X13255128Y-15273985D01*
X13245605Y-15254937D01*
X13245605Y-15197794D01*
X13255128Y-15178747D01*
X13264652Y-15169223D01*
X13283700Y-15159699D01*
X13312271Y-15159699D01*
X13331319Y-15169223D01*
X13340843Y-15178747D01*
X13350367Y-15197794D01*
X13350367Y-15254937D01*
X13340843Y-15273985D01*
X13331319Y-15283509D01*
X13312271Y-15293033D01*
X13283700Y-15293033D01*
X13407509Y-15159699D02*
X13483700Y-15159699D01*
X13436081Y-15093033D02*
X13436081Y-15264461D01*
X13445605Y-15283509D01*
X13464652Y-15293033D01*
X13483700Y-15293033D01*
X13702748Y-15159699D02*
X13702748Y-15359699D01*
X13702748Y-15169223D02*
X13721795Y-15159699D01*
X13759890Y-15159699D01*
X13778938Y-15169223D01*
X13788462Y-15178747D01*
X13797986Y-15197794D01*
X13797986Y-15254937D01*
X13788462Y-15273985D01*
X13778938Y-15283509D01*
X13759890Y-15293033D01*
X13721795Y-15293033D01*
X13702748Y-15283509D01*
X13912271Y-15293033D02*
X13893224Y-15283509D01*
X13883700Y-15264461D01*
X13883700Y-15093033D01*
X14074176Y-15293033D02*
X14074176Y-15188271D01*
X14064652Y-15169223D01*
X14045605Y-15159699D01*
X14007509Y-15159699D01*
X13988462Y-15169223D01*
X14074176Y-15283509D02*
X14055128Y-15293033D01*
X14007509Y-15293033D01*
X13988462Y-15283509D01*
X13978938Y-15264461D01*
X13978938Y-15245414D01*
X13988462Y-15226366D01*
X14007509Y-15216842D01*
X14055128Y-15216842D01*
X14074176Y-15207318D01*
X14140843Y-15159699D02*
X14217033Y-15159699D01*
X14169414Y-15093033D02*
X14169414Y-15264461D01*
X14178938Y-15283509D01*
X14197986Y-15293033D01*
X14217033Y-15293033D01*
X14359890Y-15283509D02*
X14340843Y-15293033D01*
X14302748Y-15293033D01*
X14283700Y-15283509D01*
X14274176Y-15264461D01*
X14274176Y-15188271D01*
X14283700Y-15169223D01*
X14302748Y-15159699D01*
X14340843Y-15159699D01*
X14359890Y-15169223D01*
X14369414Y-15188271D01*
X14369414Y-15207318D01*
X14274176Y-15226366D01*
X14540843Y-15293033D02*
X14540843Y-15093033D01*
X14540843Y-15283509D02*
X14521795Y-15293033D01*
X14483700Y-15293033D01*
X14464652Y-15283509D01*
X14455128Y-15273985D01*
X14445605Y-15254937D01*
X14445605Y-15197794D01*
X14455128Y-15178747D01*
X14464652Y-15169223D01*
X14483700Y-15159699D01*
X14521795Y-15159699D01*
X14540843Y-15169223D01*
X14617033Y-15369223D02*
X14626557Y-15359699D01*
X14645605Y-15331128D01*
X14655128Y-15312080D01*
X14664652Y-15283509D01*
X14674176Y-15235890D01*
X14674176Y-15197794D01*
X14664652Y-15150175D01*
X14655128Y-15121604D01*
X14645605Y-15102556D01*
X14626557Y-15073985D01*
X14617033Y-15064461D01*
M02*
