G04 #@! TF.GenerationSoftware,KiCad,Pcbnew,(5.99.0-11177-g6c67dfa032)*
G04 #@! TF.CreationDate,2021-10-11T00:00:08+03:00*
G04 #@! TF.ProjectId,chocofi,63686f63-6f66-4692-9e6b-696361645f70,2.1*
G04 #@! TF.SameCoordinates,Original*
G04 #@! TF.FileFunction,Legend,Top*
G04 #@! TF.FilePolarity,Positive*
%FSLAX46Y46*%
G04 Gerber Fmt 4.6, Leading zero omitted, Abs format (unit mm)*
G04 Created by KiCad (PCBNEW (5.99.0-11177-g6c67dfa032)) date 2021-10-11 00:00:08*
%MOMM*%
%LPD*%
G01*
G04 APERTURE LIST*
G04 Aperture macros list*
%AMRoundRect*
0 Rectangle with rounded corners*
0 $1 Rounding radius*
0 $2 $3 $4 $5 $6 $7 $8 $9 X,Y pos of 4 corners*
0 Add a 4 corners polygon primitive as box body*
4,1,4,$2,$3,$4,$5,$6,$7,$8,$9,$2,$3,0*
0 Add four circle primitives for the rounded corners*
1,1,$1+$1,$2,$3*
1,1,$1+$1,$4,$5*
1,1,$1+$1,$6,$7*
1,1,$1+$1,$8,$9*
0 Add four rect primitives between the rounded corners*
20,1,$1+$1,$2,$3,$4,$5,0*
20,1,$1+$1,$4,$5,$6,$7,0*
20,1,$1+$1,$6,$7,$8,$9,0*
20,1,$1+$1,$8,$9,$2,$3,0*%
%AMRotRect*
0 Rectangle, with rotation*
0 The origin of the aperture is its center*
0 $1 length*
0 $2 width*
0 $3 Rotation angle, in degrees counterclockwise*
0 Add horizontal line*
21,1,$1,$2,0,0,$3*%
%AMFreePoly0*
4,1,22,1.386777,1.480194,1.456366,1.424698,1.494986,1.344504,1.500000,1.300000,1.500000,-1.300000,1.480194,-1.386777,1.424698,-1.456366,1.344504,-1.494986,1.300000,-1.500000,-1.300000,-1.500000,-1.386777,-1.480194,-1.456366,-1.424698,-1.494986,-1.344504,-1.500000,-1.300000,-1.500000,0.130000,-1.480194,0.216777,-1.441421,0.271421,-0.271421,1.441421,-0.196056,1.488777,-0.130000,1.500000,
1.300000,1.500000,1.386777,1.480194,1.386777,1.480194,$1*%
G04 Aperture macros list end*
%ADD10C,0.300000*%
%ADD11C,0.150000*%
%ADD12C,0.125000*%
%ADD13R,1.397000X1.397000*%
%ADD14C,1.397000*%
%ADD15RotRect,1.397000X1.397000X345.000000*%
%ADD16RotRect,1.397000X1.397000X60.000000*%
%ADD17C,1.200000*%
%ADD18O,2.500000X1.700000*%
%ADD19C,1.524000*%
%ADD20C,2.000000*%
%ADD21C,1.390600*%
%ADD22C,2.101800*%
%ADD23C,3.400000*%
%ADD24C,3.829000*%
%ADD25FreePoly0,0.000000*%
%ADD26RoundRect,0.200000X-1.300000X-1.300000X1.300000X-1.300000X1.300000X1.300000X-1.300000X1.300000X0*%
%ADD27RoundRect,0.200000X-0.950000X-1.300000X0.950000X-1.300000X0.950000X1.300000X-0.950000X1.300000X0*%
%ADD28RoundRect,0.200000X-0.698500X-0.698500X0.698500X-0.698500X0.698500X0.698500X-0.698500X0.698500X0*%
%ADD29RoundRect,0.200000X-0.650000X-0.475000X0.650000X-0.475000X0.650000X0.475000X-0.650000X0.475000X0*%
%ADD30C,1.797000*%
%ADD31RoundRect,0.200000X-0.750791X-0.290582X0.504913X-0.627047X0.750791X0.290582X-0.504913X0.627047X0*%
%ADD32RoundRect,0.200000X-0.855484X-0.493914X0.493914X-0.855484X0.855484X0.493914X-0.493914X0.855484X0*%
%ADD33RoundRect,0.200000X0.255669X-0.954169X0.954169X0.255669X-0.255669X0.954169X-0.954169X-0.255669X0*%
%ADD34RoundRect,0.200000X0.086362X-0.800417X0.736362X0.325417X-0.086362X0.800417X-0.736362X-0.325417X0*%
%ADD35C,1.600000*%
%ADD36O,2.900000X2.100000*%
%ADD37FreePoly0,180.000000*%
%ADD38RoundRect,0.200000X1.300000X1.300000X-1.300000X1.300000X-1.300000X-1.300000X1.300000X-1.300000X0*%
%ADD39FreePoly0,165.000000*%
%ADD40RoundRect,0.200000X1.592168X0.919239X-0.919239X1.592168X-1.592168X-0.919239X0.919239X-1.592168X0*%
%ADD41FreePoly0,240.000000*%
%ADD42RoundRect,0.200000X-0.475833X1.775833X-1.775833X-0.475833X0.475833X-1.775833X1.775833X0.475833X0*%
%ADD43C,1.924000*%
%ADD44RoundRect,0.200000X-0.571500X0.317500X-0.571500X-0.317500X0.571500X-0.317500X0.571500X0.317500X0*%
%ADD45C,2.400000*%
%ADD46C,4.400000*%
G04 APERTURE END LIST*
D10*
X119710714Y-98149642D02*
X119567857Y-98221071D01*
X119282142Y-98221071D01*
X119139285Y-98149642D01*
X119067857Y-98078214D01*
X118996428Y-97935357D01*
X118996428Y-97506785D01*
X119067857Y-97363928D01*
X119139285Y-97292500D01*
X119282142Y-97221071D01*
X119567857Y-97221071D01*
X119710714Y-97292500D01*
X120353571Y-98221071D02*
X120353571Y-96721071D01*
X120996428Y-98221071D02*
X120996428Y-97435357D01*
X120925000Y-97292500D01*
X120782142Y-97221071D01*
X120567857Y-97221071D01*
X120425000Y-97292500D01*
X120353571Y-97363928D01*
X121925000Y-98221071D02*
X121782142Y-98149642D01*
X121710714Y-98078214D01*
X121639285Y-97935357D01*
X121639285Y-97506785D01*
X121710714Y-97363928D01*
X121782142Y-97292500D01*
X121925000Y-97221071D01*
X122139285Y-97221071D01*
X122282142Y-97292500D01*
X122353571Y-97363928D01*
X122425000Y-97506785D01*
X122425000Y-97935357D01*
X122353571Y-98078214D01*
X122282142Y-98149642D01*
X122139285Y-98221071D01*
X121925000Y-98221071D01*
X123710714Y-98149642D02*
X123567857Y-98221071D01*
X123282142Y-98221071D01*
X123139285Y-98149642D01*
X123067857Y-98078214D01*
X122996428Y-97935357D01*
X122996428Y-97506785D01*
X123067857Y-97363928D01*
X123139285Y-97292500D01*
X123282142Y-97221071D01*
X123567857Y-97221071D01*
X123710714Y-97292500D01*
X124567857Y-98221071D02*
X124425000Y-98149642D01*
X124353571Y-98078214D01*
X124282142Y-97935357D01*
X124282142Y-97506785D01*
X124353571Y-97363928D01*
X124425000Y-97292500D01*
X124567857Y-97221071D01*
X124782142Y-97221071D01*
X124925000Y-97292500D01*
X124996428Y-97363928D01*
X125067857Y-97506785D01*
X125067857Y-97935357D01*
X124996428Y-98078214D01*
X124925000Y-98149642D01*
X124782142Y-98221071D01*
X124567857Y-98221071D01*
X125496428Y-97221071D02*
X126067857Y-97221071D01*
X125710714Y-98221071D02*
X125710714Y-96935357D01*
X125782142Y-96792500D01*
X125925000Y-96721071D01*
X126067857Y-96721071D01*
X126567857Y-98221071D02*
X126567857Y-97221071D01*
X126567857Y-96721071D02*
X126496428Y-96792500D01*
X126567857Y-96863928D01*
X126639285Y-96792500D01*
X126567857Y-96721071D01*
X126567857Y-96863928D01*
X117567857Y-99921785D02*
X117496428Y-99850357D01*
X117353571Y-99778928D01*
X117210714Y-99778928D01*
X117067857Y-99850357D01*
X116996428Y-99921785D01*
X116925000Y-100064642D01*
X116925000Y-100207500D01*
X116996428Y-100350357D01*
X117067857Y-100421785D01*
X117210714Y-100493214D01*
X117353571Y-100493214D01*
X117496428Y-100421785D01*
X117567857Y-100350357D01*
X117567857Y-99778928D02*
X117567857Y-100350357D01*
X117639285Y-100421785D01*
X117710714Y-100421785D01*
X117853571Y-100350357D01*
X117925000Y-100207500D01*
X117925000Y-99850357D01*
X117782142Y-99636071D01*
X117567857Y-99493214D01*
X117282142Y-99421785D01*
X116996428Y-99493214D01*
X116782142Y-99636071D01*
X116639285Y-99850357D01*
X116567857Y-100136071D01*
X116639285Y-100421785D01*
X116782142Y-100636071D01*
X116996428Y-100778928D01*
X117282142Y-100850357D01*
X117567857Y-100778928D01*
X117782142Y-100636071D01*
X118567857Y-99636071D02*
X118567857Y-101136071D01*
X118567857Y-99707500D02*
X118710714Y-99636071D01*
X118996428Y-99636071D01*
X119139285Y-99707500D01*
X119210714Y-99778928D01*
X119282142Y-99921785D01*
X119282142Y-100350357D01*
X119210714Y-100493214D01*
X119139285Y-100564642D01*
X118996428Y-100636071D01*
X118710714Y-100636071D01*
X118567857Y-100564642D01*
X120567857Y-100636071D02*
X120567857Y-99850357D01*
X120496428Y-99707500D01*
X120353571Y-99636071D01*
X120067857Y-99636071D01*
X119925000Y-99707500D01*
X120567857Y-100564642D02*
X120425000Y-100636071D01*
X120067857Y-100636071D01*
X119925000Y-100564642D01*
X119853571Y-100421785D01*
X119853571Y-100278928D01*
X119925000Y-100136071D01*
X120067857Y-100064642D01*
X120425000Y-100064642D01*
X120567857Y-99993214D01*
X121210714Y-100564642D02*
X121353571Y-100636071D01*
X121639285Y-100636071D01*
X121782142Y-100564642D01*
X121853571Y-100421785D01*
X121853571Y-100350357D01*
X121782142Y-100207500D01*
X121639285Y-100136071D01*
X121425000Y-100136071D01*
X121282142Y-100064642D01*
X121210714Y-99921785D01*
X121210714Y-99850357D01*
X121282142Y-99707500D01*
X121425000Y-99636071D01*
X121639285Y-99636071D01*
X121782142Y-99707500D01*
X122496428Y-100636071D02*
X122496428Y-99136071D01*
X123139285Y-100636071D02*
X123139285Y-99850357D01*
X123067857Y-99707500D01*
X122925000Y-99636071D01*
X122710714Y-99636071D01*
X122567857Y-99707500D01*
X122496428Y-99778928D01*
X124496428Y-99636071D02*
X124496428Y-100636071D01*
X123853571Y-99636071D02*
X123853571Y-100421785D01*
X123925000Y-100564642D01*
X124067857Y-100636071D01*
X124282142Y-100636071D01*
X124425000Y-100564642D01*
X124496428Y-100493214D01*
X124996428Y-99636071D02*
X125567857Y-99636071D01*
X125210714Y-99136071D02*
X125210714Y-100421785D01*
X125282142Y-100564642D01*
X125425000Y-100636071D01*
X125567857Y-100636071D01*
X126067857Y-100636071D02*
X126067857Y-99136071D01*
X126210714Y-100064642D02*
X126639285Y-100636071D01*
X126639285Y-99636071D02*
X126067857Y-100207500D01*
D11*
X180962380Y-101722904D02*
X180962380Y-101151476D01*
X181962380Y-101437190D02*
X180962380Y-101437190D01*
X181962380Y-100246714D02*
X181486190Y-100580047D01*
X181962380Y-100818142D02*
X180962380Y-100818142D01*
X180962380Y-100437190D01*
X181010000Y-100341952D01*
X181057619Y-100294333D01*
X181152857Y-100246714D01*
X181295714Y-100246714D01*
X181390952Y-100294333D01*
X181438571Y-100341952D01*
X181486190Y-100437190D01*
X181486190Y-100818142D01*
X181962380Y-99246714D02*
X181486190Y-99580047D01*
X181962380Y-99818142D02*
X180962380Y-99818142D01*
X180962380Y-99437190D01*
X181010000Y-99341952D01*
X181057619Y-99294333D01*
X181152857Y-99246714D01*
X181295714Y-99246714D01*
X181390952Y-99294333D01*
X181438571Y-99341952D01*
X181486190Y-99437190D01*
X181486190Y-99818142D01*
X181914761Y-98865761D02*
X181962380Y-98722904D01*
X181962380Y-98484809D01*
X181914761Y-98389571D01*
X181867142Y-98341952D01*
X181771904Y-98294333D01*
X181676666Y-98294333D01*
X181581428Y-98341952D01*
X181533809Y-98389571D01*
X181486190Y-98484809D01*
X181438571Y-98675285D01*
X181390952Y-98770523D01*
X181343333Y-98818142D01*
X181248095Y-98865761D01*
X181152857Y-98865761D01*
X181057619Y-98818142D01*
X181010000Y-98770523D01*
X180962380Y-98675285D01*
X180962380Y-98437190D01*
X181010000Y-98294333D01*
D12*
X168520690Y-63083185D02*
X168354023Y-62726042D01*
X168234976Y-63083185D02*
X168234976Y-62333185D01*
X168425452Y-62333185D01*
X168473071Y-62368900D01*
X168496880Y-62404614D01*
X168520690Y-62476042D01*
X168520690Y-62583185D01*
X168496880Y-62654614D01*
X168473071Y-62690328D01*
X168425452Y-62726042D01*
X168234976Y-62726042D01*
X168711166Y-63047471D02*
X168782595Y-63083185D01*
X168901642Y-63083185D01*
X168949261Y-63047471D01*
X168973071Y-63011757D01*
X168996880Y-62940328D01*
X168996880Y-62868900D01*
X168973071Y-62797471D01*
X168949261Y-62761757D01*
X168901642Y-62726042D01*
X168806404Y-62690328D01*
X168758785Y-62654614D01*
X168734976Y-62618900D01*
X168711166Y-62547471D01*
X168711166Y-62476042D01*
X168734976Y-62404614D01*
X168758785Y-62368900D01*
X168806404Y-62333185D01*
X168925452Y-62333185D01*
X168996880Y-62368900D01*
X169139738Y-62333185D02*
X169425452Y-62333185D01*
X169282595Y-63083185D02*
X169282595Y-62333185D01*
X183129047Y-75719685D02*
X182962380Y-75362542D01*
X182843333Y-75719685D02*
X182843333Y-74969685D01*
X183033809Y-74969685D01*
X183081428Y-75005400D01*
X183105238Y-75041114D01*
X183129047Y-75112542D01*
X183129047Y-75219685D01*
X183105238Y-75291114D01*
X183081428Y-75326828D01*
X183033809Y-75362542D01*
X182843333Y-75362542D01*
X183438571Y-74969685D02*
X183533809Y-74969685D01*
X183581428Y-75005400D01*
X183629047Y-75076828D01*
X183652857Y-75219685D01*
X183652857Y-75469685D01*
X183629047Y-75612542D01*
X183581428Y-75683971D01*
X183533809Y-75719685D01*
X183438571Y-75719685D01*
X183390952Y-75683971D01*
X183343333Y-75612542D01*
X183319523Y-75469685D01*
X183319523Y-75219685D01*
X183343333Y-75076828D01*
X183390952Y-75005400D01*
X183438571Y-74969685D01*
X183819523Y-74969685D02*
X183938571Y-75719685D01*
X184033809Y-75183971D01*
X184129047Y-75719685D01*
X184248095Y-74969685D01*
X184700476Y-75719685D02*
X184414761Y-75719685D01*
X184557619Y-75719685D02*
X184557619Y-74969685D01*
X184510000Y-75076828D01*
X184462380Y-75148257D01*
X184414761Y-75183971D01*
X168012380Y-80791757D02*
X167988571Y-80827471D01*
X167917142Y-80863185D01*
X167869523Y-80863185D01*
X167798095Y-80827471D01*
X167750476Y-80756042D01*
X167726666Y-80684614D01*
X167702857Y-80541757D01*
X167702857Y-80434614D01*
X167726666Y-80291757D01*
X167750476Y-80220328D01*
X167798095Y-80148900D01*
X167869523Y-80113185D01*
X167917142Y-80113185D01*
X167988571Y-80148900D01*
X168012380Y-80184614D01*
X168321904Y-80113185D02*
X168417142Y-80113185D01*
X168464761Y-80148900D01*
X168512380Y-80220328D01*
X168536190Y-80363185D01*
X168536190Y-80613185D01*
X168512380Y-80756042D01*
X168464761Y-80827471D01*
X168417142Y-80863185D01*
X168321904Y-80863185D01*
X168274285Y-80827471D01*
X168226666Y-80756042D01*
X168202857Y-80613185D01*
X168202857Y-80363185D01*
X168226666Y-80220328D01*
X168274285Y-80148900D01*
X168321904Y-80113185D01*
X168988571Y-80863185D02*
X168750476Y-80863185D01*
X168750476Y-80113185D01*
X169393333Y-80113185D02*
X169155238Y-80113185D01*
X169131428Y-80470328D01*
X169155238Y-80434614D01*
X169202857Y-80398900D01*
X169321904Y-80398900D01*
X169369523Y-80434614D01*
X169393333Y-80470328D01*
X169417142Y-80541757D01*
X169417142Y-80720328D01*
X169393333Y-80791757D01*
X169369523Y-80827471D01*
X169321904Y-80863185D01*
X169202857Y-80863185D01*
X169155238Y-80827471D01*
X169131428Y-80791757D01*
X183079047Y-80863185D02*
X182912380Y-80506042D01*
X182793333Y-80863185D02*
X182793333Y-80113185D01*
X182983809Y-80113185D01*
X183031428Y-80148900D01*
X183055238Y-80184614D01*
X183079047Y-80256042D01*
X183079047Y-80363185D01*
X183055238Y-80434614D01*
X183031428Y-80470328D01*
X182983809Y-80506042D01*
X182793333Y-80506042D01*
X183388571Y-80113185D02*
X183483809Y-80113185D01*
X183531428Y-80148900D01*
X183579047Y-80220328D01*
X183602857Y-80363185D01*
X183602857Y-80613185D01*
X183579047Y-80756042D01*
X183531428Y-80827471D01*
X183483809Y-80863185D01*
X183388571Y-80863185D01*
X183340952Y-80827471D01*
X183293333Y-80756042D01*
X183269523Y-80613185D01*
X183269523Y-80363185D01*
X183293333Y-80220328D01*
X183340952Y-80148900D01*
X183388571Y-80113185D01*
X183769523Y-80113185D02*
X183888571Y-80863185D01*
X183983809Y-80327471D01*
X184079047Y-80863185D01*
X184198095Y-80113185D01*
X184340952Y-80113185D02*
X184650476Y-80113185D01*
X184483809Y-80398900D01*
X184555238Y-80398900D01*
X184602857Y-80434614D01*
X184626666Y-80470328D01*
X184650476Y-80541757D01*
X184650476Y-80720328D01*
X184626666Y-80791757D01*
X184602857Y-80827471D01*
X184555238Y-80863185D01*
X184412380Y-80863185D01*
X184364761Y-80827471D01*
X184340952Y-80791757D01*
X168012380Y-78196257D02*
X167988571Y-78231971D01*
X167917142Y-78267685D01*
X167869523Y-78267685D01*
X167798095Y-78231971D01*
X167750476Y-78160542D01*
X167726666Y-78089114D01*
X167702857Y-77946257D01*
X167702857Y-77839114D01*
X167726666Y-77696257D01*
X167750476Y-77624828D01*
X167798095Y-77553400D01*
X167869523Y-77517685D01*
X167917142Y-77517685D01*
X167988571Y-77553400D01*
X168012380Y-77589114D01*
X168321904Y-77517685D02*
X168417142Y-77517685D01*
X168464761Y-77553400D01*
X168512380Y-77624828D01*
X168536190Y-77767685D01*
X168536190Y-78017685D01*
X168512380Y-78160542D01*
X168464761Y-78231971D01*
X168417142Y-78267685D01*
X168321904Y-78267685D01*
X168274285Y-78231971D01*
X168226666Y-78160542D01*
X168202857Y-78017685D01*
X168202857Y-77767685D01*
X168226666Y-77624828D01*
X168274285Y-77553400D01*
X168321904Y-77517685D01*
X168988571Y-78267685D02*
X168750476Y-78267685D01*
X168750476Y-77517685D01*
X169369523Y-77767685D02*
X169369523Y-78267685D01*
X169250476Y-77481971D02*
X169131428Y-78017685D01*
X169440952Y-78017685D01*
X183590047Y-64908900D02*
X183542428Y-64873185D01*
X183471000Y-64873185D01*
X183399571Y-64908900D01*
X183351952Y-64980328D01*
X183328142Y-65051757D01*
X183304333Y-65194614D01*
X183304333Y-65301757D01*
X183328142Y-65444614D01*
X183351952Y-65516042D01*
X183399571Y-65587471D01*
X183471000Y-65623185D01*
X183518619Y-65623185D01*
X183590047Y-65587471D01*
X183613857Y-65551757D01*
X183613857Y-65301757D01*
X183518619Y-65301757D01*
X183828142Y-65623185D02*
X183828142Y-64873185D01*
X184113857Y-65623185D01*
X184113857Y-64873185D01*
X184351952Y-65623185D02*
X184351952Y-64873185D01*
X184471000Y-64873185D01*
X184542428Y-64908900D01*
X184590047Y-64980328D01*
X184613857Y-65051757D01*
X184637666Y-65194614D01*
X184637666Y-65301757D01*
X184613857Y-65444614D01*
X184590047Y-65516042D01*
X184542428Y-65587471D01*
X184471000Y-65623185D01*
X184351952Y-65623185D01*
X183110000Y-60467685D02*
X183110000Y-59717685D01*
X183229047Y-59717685D01*
X183300476Y-59753400D01*
X183348095Y-59824828D01*
X183371904Y-59896257D01*
X183395714Y-60039114D01*
X183395714Y-60146257D01*
X183371904Y-60289114D01*
X183348095Y-60360542D01*
X183300476Y-60431971D01*
X183229047Y-60467685D01*
X183110000Y-60467685D01*
X183586190Y-60253400D02*
X183824285Y-60253400D01*
X183538571Y-60467685D02*
X183705238Y-59717685D01*
X183871904Y-60467685D01*
X183967142Y-59717685D02*
X184252857Y-59717685D01*
X184110000Y-60467685D02*
X184110000Y-59717685D01*
X184395714Y-60253400D02*
X184633809Y-60253400D01*
X184348095Y-60467685D02*
X184514761Y-59717685D01*
X184681428Y-60467685D01*
X168062380Y-73108257D02*
X168038571Y-73143971D01*
X167967142Y-73179685D01*
X167919523Y-73179685D01*
X167848095Y-73143971D01*
X167800476Y-73072542D01*
X167776666Y-73001114D01*
X167752857Y-72858257D01*
X167752857Y-72751114D01*
X167776666Y-72608257D01*
X167800476Y-72536828D01*
X167848095Y-72465400D01*
X167919523Y-72429685D01*
X167967142Y-72429685D01*
X168038571Y-72465400D01*
X168062380Y-72501114D01*
X168371904Y-72429685D02*
X168467142Y-72429685D01*
X168514761Y-72465400D01*
X168562380Y-72536828D01*
X168586190Y-72679685D01*
X168586190Y-72929685D01*
X168562380Y-73072542D01*
X168514761Y-73143971D01*
X168467142Y-73179685D01*
X168371904Y-73179685D01*
X168324285Y-73143971D01*
X168276666Y-73072542D01*
X168252857Y-72929685D01*
X168252857Y-72679685D01*
X168276666Y-72536828D01*
X168324285Y-72465400D01*
X168371904Y-72429685D01*
X169038571Y-73179685D02*
X168800476Y-73179685D01*
X168800476Y-72429685D01*
X169181428Y-72501114D02*
X169205238Y-72465400D01*
X169252857Y-72429685D01*
X169371904Y-72429685D01*
X169419523Y-72465400D01*
X169443333Y-72501114D01*
X169467142Y-72572542D01*
X169467142Y-72643971D01*
X169443333Y-72751114D01*
X169157619Y-73179685D01*
X169467142Y-73179685D01*
X168127833Y-64809685D02*
X168294500Y-65559685D01*
X168461166Y-64809685D01*
X168913547Y-65488257D02*
X168889738Y-65523971D01*
X168818309Y-65559685D01*
X168770690Y-65559685D01*
X168699261Y-65523971D01*
X168651642Y-65452542D01*
X168627833Y-65381114D01*
X168604023Y-65238257D01*
X168604023Y-65131114D01*
X168627833Y-64988257D01*
X168651642Y-64916828D01*
X168699261Y-64845400D01*
X168770690Y-64809685D01*
X168818309Y-64809685D01*
X168889738Y-64845400D01*
X168913547Y-64881114D01*
X169413547Y-65488257D02*
X169389738Y-65523971D01*
X169318309Y-65559685D01*
X169270690Y-65559685D01*
X169199261Y-65523971D01*
X169151642Y-65452542D01*
X169127833Y-65381114D01*
X169104023Y-65238257D01*
X169104023Y-65131114D01*
X169127833Y-64988257D01*
X169151642Y-64916828D01*
X169199261Y-64845400D01*
X169270690Y-64809685D01*
X169318309Y-64809685D01*
X169389738Y-64845400D01*
X169413547Y-64881114D01*
X168257619Y-85524828D02*
X168329047Y-85560542D01*
X168352857Y-85596257D01*
X168376666Y-85667685D01*
X168376666Y-85774828D01*
X168352857Y-85846257D01*
X168329047Y-85881971D01*
X168281428Y-85917685D01*
X168090952Y-85917685D01*
X168090952Y-85167685D01*
X168257619Y-85167685D01*
X168305238Y-85203400D01*
X168329047Y-85239114D01*
X168352857Y-85310542D01*
X168352857Y-85381971D01*
X168329047Y-85453400D01*
X168305238Y-85489114D01*
X168257619Y-85524828D01*
X168090952Y-85524828D01*
X168805238Y-85167685D02*
X168710000Y-85167685D01*
X168662380Y-85203400D01*
X168638571Y-85239114D01*
X168590952Y-85346257D01*
X168567142Y-85489114D01*
X168567142Y-85774828D01*
X168590952Y-85846257D01*
X168614761Y-85881971D01*
X168662380Y-85917685D01*
X168757619Y-85917685D01*
X168805238Y-85881971D01*
X168829047Y-85846257D01*
X168852857Y-85774828D01*
X168852857Y-85596257D01*
X168829047Y-85524828D01*
X168805238Y-85489114D01*
X168757619Y-85453400D01*
X168662380Y-85453400D01*
X168614761Y-85489114D01*
X168590952Y-85524828D01*
X168567142Y-85596257D01*
X168449261Y-57939685D02*
X168282595Y-57582542D01*
X168163547Y-57939685D02*
X168163547Y-57189685D01*
X168354023Y-57189685D01*
X168401642Y-57225400D01*
X168425452Y-57261114D01*
X168449261Y-57332542D01*
X168449261Y-57439685D01*
X168425452Y-57511114D01*
X168401642Y-57546828D01*
X168354023Y-57582542D01*
X168163547Y-57582542D01*
X168639738Y-57725400D02*
X168877833Y-57725400D01*
X168592119Y-57939685D02*
X168758785Y-57189685D01*
X168925452Y-57939685D01*
X169044500Y-57189685D02*
X169163547Y-57939685D01*
X169258785Y-57403971D01*
X169354023Y-57939685D01*
X169473071Y-57189685D01*
X183375761Y-70603971D02*
X183447190Y-70639685D01*
X183566238Y-70639685D01*
X183613857Y-70603971D01*
X183637666Y-70568257D01*
X183661476Y-70496828D01*
X183661476Y-70425400D01*
X183637666Y-70353971D01*
X183613857Y-70318257D01*
X183566238Y-70282542D01*
X183471000Y-70246828D01*
X183423380Y-70211114D01*
X183399571Y-70175400D01*
X183375761Y-70103971D01*
X183375761Y-70032542D01*
X183399571Y-69961114D01*
X183423380Y-69925400D01*
X183471000Y-69889685D01*
X183590047Y-69889685D01*
X183661476Y-69925400D01*
X184161476Y-70568257D02*
X184137666Y-70603971D01*
X184066238Y-70639685D01*
X184018619Y-70639685D01*
X183947190Y-70603971D01*
X183899571Y-70532542D01*
X183875761Y-70461114D01*
X183851952Y-70318257D01*
X183851952Y-70211114D01*
X183875761Y-70068257D01*
X183899571Y-69996828D01*
X183947190Y-69925400D01*
X184018619Y-69889685D01*
X184066238Y-69889685D01*
X184137666Y-69925400D01*
X184161476Y-69961114D01*
X184613857Y-70639685D02*
X184375761Y-70639685D01*
X184375761Y-69889685D01*
X183590047Y-64908900D02*
X183542428Y-64873185D01*
X183471000Y-64873185D01*
X183399571Y-64908900D01*
X183351952Y-64980328D01*
X183328142Y-65051757D01*
X183304333Y-65194614D01*
X183304333Y-65301757D01*
X183328142Y-65444614D01*
X183351952Y-65516042D01*
X183399571Y-65587471D01*
X183471000Y-65623185D01*
X183518619Y-65623185D01*
X183590047Y-65587471D01*
X183613857Y-65551757D01*
X183613857Y-65301757D01*
X183518619Y-65301757D01*
X183828142Y-65623185D02*
X183828142Y-64873185D01*
X184113857Y-65623185D01*
X184113857Y-64873185D01*
X184351952Y-65623185D02*
X184351952Y-64873185D01*
X184471000Y-64873185D01*
X184542428Y-64908900D01*
X184590047Y-64980328D01*
X184613857Y-65051757D01*
X184637666Y-65194614D01*
X184637666Y-65301757D01*
X184613857Y-65444614D01*
X184590047Y-65516042D01*
X184542428Y-65587471D01*
X184471000Y-65623185D01*
X184351952Y-65623185D01*
X183363857Y-68063971D02*
X183435285Y-68099685D01*
X183554333Y-68099685D01*
X183601952Y-68063971D01*
X183625761Y-68028257D01*
X183649571Y-67956828D01*
X183649571Y-67885400D01*
X183625761Y-67813971D01*
X183601952Y-67778257D01*
X183554333Y-67742542D01*
X183459095Y-67706828D01*
X183411476Y-67671114D01*
X183387666Y-67635400D01*
X183363857Y-67563971D01*
X183363857Y-67492542D01*
X183387666Y-67421114D01*
X183411476Y-67385400D01*
X183459095Y-67349685D01*
X183578142Y-67349685D01*
X183649571Y-67385400D01*
X183863857Y-68099685D02*
X183863857Y-67349685D01*
X183982904Y-67349685D01*
X184054333Y-67385400D01*
X184101952Y-67456828D01*
X184125761Y-67528257D01*
X184149571Y-67671114D01*
X184149571Y-67778257D01*
X184125761Y-67921114D01*
X184101952Y-67992542D01*
X184054333Y-68063971D01*
X183982904Y-68099685D01*
X183863857Y-68099685D01*
X184340047Y-67885400D02*
X184578142Y-67885400D01*
X184292428Y-68099685D02*
X184459095Y-67349685D01*
X184625761Y-68099685D01*
X183507619Y-82946828D02*
X183579047Y-82982542D01*
X183602857Y-83018257D01*
X183626666Y-83089685D01*
X183626666Y-83196828D01*
X183602857Y-83268257D01*
X183579047Y-83303971D01*
X183531428Y-83339685D01*
X183340952Y-83339685D01*
X183340952Y-82589685D01*
X183507619Y-82589685D01*
X183555238Y-82625400D01*
X183579047Y-82661114D01*
X183602857Y-82732542D01*
X183602857Y-82803971D01*
X183579047Y-82875400D01*
X183555238Y-82911114D01*
X183507619Y-82946828D01*
X183340952Y-82946828D01*
X184055238Y-82839685D02*
X184055238Y-83339685D01*
X183936190Y-82553971D02*
X183817142Y-83089685D01*
X184126666Y-83089685D01*
X183507619Y-85550328D02*
X183579047Y-85586042D01*
X183602857Y-85621757D01*
X183626666Y-85693185D01*
X183626666Y-85800328D01*
X183602857Y-85871757D01*
X183579047Y-85907471D01*
X183531428Y-85943185D01*
X183340952Y-85943185D01*
X183340952Y-85193185D01*
X183507619Y-85193185D01*
X183555238Y-85228900D01*
X183579047Y-85264614D01*
X183602857Y-85336042D01*
X183602857Y-85407471D01*
X183579047Y-85478900D01*
X183555238Y-85514614D01*
X183507619Y-85550328D01*
X183340952Y-85550328D01*
X184079047Y-85193185D02*
X183840952Y-85193185D01*
X183817142Y-85550328D01*
X183840952Y-85514614D01*
X183888571Y-85478900D01*
X184007619Y-85478900D01*
X184055238Y-85514614D01*
X184079047Y-85550328D01*
X184102857Y-85621757D01*
X184102857Y-85800328D01*
X184079047Y-85871757D01*
X184055238Y-85907471D01*
X184007619Y-85943185D01*
X183888571Y-85943185D01*
X183840952Y-85907471D01*
X183817142Y-85871757D01*
X168062380Y-68046257D02*
X168038571Y-68081971D01*
X167967142Y-68117685D01*
X167919523Y-68117685D01*
X167848095Y-68081971D01*
X167800476Y-68010542D01*
X167776666Y-67939114D01*
X167752857Y-67796257D01*
X167752857Y-67689114D01*
X167776666Y-67546257D01*
X167800476Y-67474828D01*
X167848095Y-67403400D01*
X167919523Y-67367685D01*
X167967142Y-67367685D01*
X168038571Y-67403400D01*
X168062380Y-67439114D01*
X168371904Y-67367685D02*
X168467142Y-67367685D01*
X168514761Y-67403400D01*
X168562380Y-67474828D01*
X168586190Y-67617685D01*
X168586190Y-67867685D01*
X168562380Y-68010542D01*
X168514761Y-68081971D01*
X168467142Y-68117685D01*
X168371904Y-68117685D01*
X168324285Y-68081971D01*
X168276666Y-68010542D01*
X168252857Y-67867685D01*
X168252857Y-67617685D01*
X168276666Y-67474828D01*
X168324285Y-67403400D01*
X168371904Y-67367685D01*
X169038571Y-68117685D02*
X168800476Y-68117685D01*
X168800476Y-67367685D01*
X169300476Y-67367685D02*
X169348095Y-67367685D01*
X169395714Y-67403400D01*
X169419523Y-67439114D01*
X169443333Y-67510542D01*
X169467142Y-67653400D01*
X169467142Y-67831971D01*
X169443333Y-67974828D01*
X169419523Y-68046257D01*
X169395714Y-68081971D01*
X169348095Y-68117685D01*
X169300476Y-68117685D01*
X169252857Y-68081971D01*
X169229047Y-68046257D01*
X169205238Y-67974828D01*
X169181428Y-67831971D01*
X169181428Y-67653400D01*
X169205238Y-67510542D01*
X169229047Y-67439114D01*
X169252857Y-67403400D01*
X169300476Y-67367685D01*
X167962380Y-75696257D02*
X167938571Y-75731971D01*
X167867142Y-75767685D01*
X167819523Y-75767685D01*
X167748095Y-75731971D01*
X167700476Y-75660542D01*
X167676666Y-75589114D01*
X167652857Y-75446257D01*
X167652857Y-75339114D01*
X167676666Y-75196257D01*
X167700476Y-75124828D01*
X167748095Y-75053400D01*
X167819523Y-75017685D01*
X167867142Y-75017685D01*
X167938571Y-75053400D01*
X167962380Y-75089114D01*
X168271904Y-75017685D02*
X168367142Y-75017685D01*
X168414761Y-75053400D01*
X168462380Y-75124828D01*
X168486190Y-75267685D01*
X168486190Y-75517685D01*
X168462380Y-75660542D01*
X168414761Y-75731971D01*
X168367142Y-75767685D01*
X168271904Y-75767685D01*
X168224285Y-75731971D01*
X168176666Y-75660542D01*
X168152857Y-75517685D01*
X168152857Y-75267685D01*
X168176666Y-75124828D01*
X168224285Y-75053400D01*
X168271904Y-75017685D01*
X168938571Y-75767685D02*
X168700476Y-75767685D01*
X168700476Y-75017685D01*
X169057619Y-75017685D02*
X169367142Y-75017685D01*
X169200476Y-75303400D01*
X169271904Y-75303400D01*
X169319523Y-75339114D01*
X169343333Y-75374828D01*
X169367142Y-75446257D01*
X169367142Y-75624828D01*
X169343333Y-75696257D01*
X169319523Y-75731971D01*
X169271904Y-75767685D01*
X169129047Y-75767685D01*
X169081428Y-75731971D01*
X169057619Y-75696257D01*
X183079047Y-78267685D02*
X182912380Y-77910542D01*
X182793333Y-78267685D02*
X182793333Y-77517685D01*
X182983809Y-77517685D01*
X183031428Y-77553400D01*
X183055238Y-77589114D01*
X183079047Y-77660542D01*
X183079047Y-77767685D01*
X183055238Y-77839114D01*
X183031428Y-77874828D01*
X182983809Y-77910542D01*
X182793333Y-77910542D01*
X183388571Y-77517685D02*
X183483809Y-77517685D01*
X183531428Y-77553400D01*
X183579047Y-77624828D01*
X183602857Y-77767685D01*
X183602857Y-78017685D01*
X183579047Y-78160542D01*
X183531428Y-78231971D01*
X183483809Y-78267685D01*
X183388571Y-78267685D01*
X183340952Y-78231971D01*
X183293333Y-78160542D01*
X183269523Y-78017685D01*
X183269523Y-77767685D01*
X183293333Y-77624828D01*
X183340952Y-77553400D01*
X183388571Y-77517685D01*
X183769523Y-77517685D02*
X183888571Y-78267685D01*
X183983809Y-77731971D01*
X184079047Y-78267685D01*
X184198095Y-77517685D01*
X184364761Y-77589114D02*
X184388571Y-77553400D01*
X184436190Y-77517685D01*
X184555238Y-77517685D01*
X184602857Y-77553400D01*
X184626666Y-77589114D01*
X184650476Y-77660542D01*
X184650476Y-77731971D01*
X184626666Y-77839114D01*
X184340952Y-78267685D01*
X184650476Y-78267685D01*
X168357619Y-82974828D02*
X168429047Y-83010542D01*
X168452857Y-83046257D01*
X168476666Y-83117685D01*
X168476666Y-83224828D01*
X168452857Y-83296257D01*
X168429047Y-83331971D01*
X168381428Y-83367685D01*
X168190952Y-83367685D01*
X168190952Y-82617685D01*
X168357619Y-82617685D01*
X168405238Y-82653400D01*
X168429047Y-82689114D01*
X168452857Y-82760542D01*
X168452857Y-82831971D01*
X168429047Y-82903400D01*
X168405238Y-82939114D01*
X168357619Y-82974828D01*
X168190952Y-82974828D01*
X168667142Y-82689114D02*
X168690952Y-82653400D01*
X168738571Y-82617685D01*
X168857619Y-82617685D01*
X168905238Y-82653400D01*
X168929047Y-82689114D01*
X168952857Y-82760542D01*
X168952857Y-82831971D01*
X168929047Y-82939114D01*
X168643333Y-83367685D01*
X168952857Y-83367685D01*
X183079047Y-73217685D02*
X182912380Y-72860542D01*
X182793333Y-73217685D02*
X182793333Y-72467685D01*
X182983809Y-72467685D01*
X183031428Y-72503400D01*
X183055238Y-72539114D01*
X183079047Y-72610542D01*
X183079047Y-72717685D01*
X183055238Y-72789114D01*
X183031428Y-72824828D01*
X182983809Y-72860542D01*
X182793333Y-72860542D01*
X183388571Y-72467685D02*
X183483809Y-72467685D01*
X183531428Y-72503400D01*
X183579047Y-72574828D01*
X183602857Y-72717685D01*
X183602857Y-72967685D01*
X183579047Y-73110542D01*
X183531428Y-73181971D01*
X183483809Y-73217685D01*
X183388571Y-73217685D01*
X183340952Y-73181971D01*
X183293333Y-73110542D01*
X183269523Y-72967685D01*
X183269523Y-72717685D01*
X183293333Y-72574828D01*
X183340952Y-72503400D01*
X183388571Y-72467685D01*
X183769523Y-72467685D02*
X183888571Y-73217685D01*
X183983809Y-72681971D01*
X184079047Y-73217685D01*
X184198095Y-72467685D01*
X184483809Y-72467685D02*
X184531428Y-72467685D01*
X184579047Y-72503400D01*
X184602857Y-72539114D01*
X184626666Y-72610542D01*
X184650476Y-72753400D01*
X184650476Y-72931971D01*
X184626666Y-73074828D01*
X184602857Y-73146257D01*
X184579047Y-73181971D01*
X184531428Y-73217685D01*
X184483809Y-73217685D01*
X184436190Y-73181971D01*
X184412380Y-73146257D01*
X184388571Y-73074828D01*
X184364761Y-72931971D01*
X184364761Y-72753400D01*
X184388571Y-72610542D01*
X184412380Y-72539114D01*
X184436190Y-72503400D01*
X184483809Y-72467685D01*
X168112380Y-70568257D02*
X168088571Y-70603971D01*
X168017142Y-70639685D01*
X167969523Y-70639685D01*
X167898095Y-70603971D01*
X167850476Y-70532542D01*
X167826666Y-70461114D01*
X167802857Y-70318257D01*
X167802857Y-70211114D01*
X167826666Y-70068257D01*
X167850476Y-69996828D01*
X167898095Y-69925400D01*
X167969523Y-69889685D01*
X168017142Y-69889685D01*
X168088571Y-69925400D01*
X168112380Y-69961114D01*
X168421904Y-69889685D02*
X168517142Y-69889685D01*
X168564761Y-69925400D01*
X168612380Y-69996828D01*
X168636190Y-70139685D01*
X168636190Y-70389685D01*
X168612380Y-70532542D01*
X168564761Y-70603971D01*
X168517142Y-70639685D01*
X168421904Y-70639685D01*
X168374285Y-70603971D01*
X168326666Y-70532542D01*
X168302857Y-70389685D01*
X168302857Y-70139685D01*
X168326666Y-69996828D01*
X168374285Y-69925400D01*
X168421904Y-69889685D01*
X169088571Y-70639685D02*
X168850476Y-70639685D01*
X168850476Y-69889685D01*
X169517142Y-70639685D02*
X169231428Y-70639685D01*
X169374285Y-70639685D02*
X169374285Y-69889685D01*
X169326666Y-69996828D01*
X169279047Y-70068257D01*
X169231428Y-70103971D01*
X183688571Y-57939685D02*
X183450476Y-57939685D01*
X183450476Y-57189685D01*
X183855238Y-57546828D02*
X184021904Y-57546828D01*
X184093333Y-57939685D02*
X183855238Y-57939685D01*
X183855238Y-57189685D01*
X184093333Y-57189685D01*
X184307619Y-57939685D02*
X184307619Y-57189685D01*
X184426666Y-57189685D01*
X184498095Y-57225400D01*
X184545714Y-57296828D01*
X184569523Y-57368257D01*
X184593333Y-57511114D01*
X184593333Y-57618257D01*
X184569523Y-57761114D01*
X184545714Y-57832542D01*
X184498095Y-57903971D01*
X184426666Y-57939685D01*
X184307619Y-57939685D01*
X183653547Y-62368900D02*
X183605928Y-62333185D01*
X183534500Y-62333185D01*
X183463071Y-62368900D01*
X183415452Y-62440328D01*
X183391642Y-62511757D01*
X183367833Y-62654614D01*
X183367833Y-62761757D01*
X183391642Y-62904614D01*
X183415452Y-62976042D01*
X183463071Y-63047471D01*
X183534500Y-63083185D01*
X183582119Y-63083185D01*
X183653547Y-63047471D01*
X183677357Y-63011757D01*
X183677357Y-62761757D01*
X183582119Y-62761757D01*
X183891642Y-63083185D02*
X183891642Y-62333185D01*
X184177357Y-63083185D01*
X184177357Y-62333185D01*
X184415452Y-63083185D02*
X184415452Y-62333185D01*
X184534500Y-62333185D01*
X184605928Y-62368900D01*
X184653547Y-62440328D01*
X184677357Y-62511757D01*
X184701166Y-62654614D01*
X184701166Y-62761757D01*
X184677357Y-62904614D01*
X184653547Y-62976042D01*
X184605928Y-63047471D01*
X184534500Y-63083185D01*
X184415452Y-63083185D01*
D11*
X178624895Y-86238133D02*
X179437695Y-85967200D01*
X178624895Y-85696266D01*
X179360285Y-84960876D02*
X179398990Y-84999580D01*
X179437695Y-85115695D01*
X179437695Y-85193104D01*
X179398990Y-85309219D01*
X179321580Y-85386628D01*
X179244171Y-85425333D01*
X179089352Y-85464038D01*
X178973238Y-85464038D01*
X178818419Y-85425333D01*
X178741009Y-85386628D01*
X178663600Y-85309219D01*
X178624895Y-85193104D01*
X178624895Y-85115695D01*
X178663600Y-84999580D01*
X178702304Y-84960876D01*
X179360285Y-84148076D02*
X179398990Y-84186780D01*
X179437695Y-84302895D01*
X179437695Y-84380304D01*
X179398990Y-84496419D01*
X179321580Y-84573828D01*
X179244171Y-84612533D01*
X179089352Y-84651238D01*
X178973238Y-84651238D01*
X178818419Y-84612533D01*
X178741009Y-84573828D01*
X178663600Y-84496419D01*
X178624895Y-84380304D01*
X178624895Y-84302895D01*
X178663600Y-84186780D01*
X178702304Y-84148076D01*
X176277619Y-87960780D02*
X176468095Y-87960780D01*
X176563333Y-88008400D01*
X176658571Y-88103638D01*
X176706190Y-88294114D01*
X176706190Y-88627447D01*
X176658571Y-88817923D01*
X176563333Y-88913161D01*
X176468095Y-88960780D01*
X176277619Y-88960780D01*
X176182380Y-88913161D01*
X176087142Y-88817923D01*
X176039523Y-88627447D01*
X176039523Y-88294114D01*
X176087142Y-88103638D01*
X176182380Y-88008400D01*
X176277619Y-87960780D01*
X177610952Y-88960780D02*
X177134761Y-88960780D01*
X177134761Y-87960780D01*
X177944285Y-88436971D02*
X178277619Y-88436971D01*
X178420476Y-88960780D02*
X177944285Y-88960780D01*
X177944285Y-87960780D01*
X178420476Y-87960780D01*
X178849047Y-88960780D02*
X178849047Y-87960780D01*
X179087142Y-87960780D01*
X179230000Y-88008400D01*
X179325238Y-88103638D01*
X179372857Y-88198876D01*
X179420476Y-88389352D01*
X179420476Y-88532209D01*
X179372857Y-88722685D01*
X179325238Y-88817923D01*
X179230000Y-88913161D01*
X179087142Y-88960780D01*
X178849047Y-88960780D01*
X176798990Y-86142019D02*
X176837695Y-86025904D01*
X176837695Y-85832380D01*
X176798990Y-85754971D01*
X176760285Y-85716266D01*
X176682876Y-85677561D01*
X176605466Y-85677561D01*
X176528057Y-85716266D01*
X176489352Y-85754971D01*
X176450647Y-85832380D01*
X176411942Y-85987200D01*
X176373238Y-86064609D01*
X176334533Y-86103314D01*
X176257123Y-86142019D01*
X176179714Y-86142019D01*
X176102304Y-86103314D01*
X176063600Y-86064609D01*
X176024895Y-85987200D01*
X176024895Y-85793676D01*
X176063600Y-85677561D01*
X176760285Y-84864761D02*
X176798990Y-84903466D01*
X176837695Y-85019580D01*
X176837695Y-85096990D01*
X176798990Y-85213104D01*
X176721580Y-85290514D01*
X176644171Y-85329219D01*
X176489352Y-85367923D01*
X176373238Y-85367923D01*
X176218419Y-85329219D01*
X176141009Y-85290514D01*
X176063600Y-85213104D01*
X176024895Y-85096990D01*
X176024895Y-85019580D01*
X176063600Y-84903466D01*
X176102304Y-84864761D01*
X176837695Y-84129371D02*
X176837695Y-84516419D01*
X176024895Y-84516419D01*
X174258990Y-85881733D02*
X174297695Y-85765619D01*
X174297695Y-85572095D01*
X174258990Y-85494685D01*
X174220285Y-85455980D01*
X174142876Y-85417276D01*
X174065466Y-85417276D01*
X173988057Y-85455980D01*
X173949352Y-85494685D01*
X173910647Y-85572095D01*
X173871942Y-85726914D01*
X173833238Y-85804323D01*
X173794533Y-85843028D01*
X173717123Y-85881733D01*
X173639714Y-85881733D01*
X173562304Y-85843028D01*
X173523600Y-85804323D01*
X173484895Y-85726914D01*
X173484895Y-85533390D01*
X173523600Y-85417276D01*
X174297695Y-85068933D02*
X173484895Y-85068933D01*
X173484895Y-84875409D01*
X173523600Y-84759295D01*
X173601009Y-84681885D01*
X173678419Y-84643180D01*
X173833238Y-84604476D01*
X173949352Y-84604476D01*
X174104171Y-84643180D01*
X174181580Y-84681885D01*
X174258990Y-84759295D01*
X174297695Y-84875409D01*
X174297695Y-85068933D01*
X174065466Y-84294838D02*
X174065466Y-83907790D01*
X174297695Y-84372247D02*
X173484895Y-84101314D01*
X174297695Y-83830380D01*
X181233600Y-85764076D02*
X181194895Y-85841485D01*
X181194895Y-85957600D01*
X181233600Y-86073714D01*
X181311009Y-86151123D01*
X181388419Y-86189828D01*
X181543238Y-86228533D01*
X181659352Y-86228533D01*
X181814171Y-86189828D01*
X181891580Y-86151123D01*
X181968990Y-86073714D01*
X182007695Y-85957600D01*
X182007695Y-85880190D01*
X181968990Y-85764076D01*
X181930285Y-85725371D01*
X181659352Y-85725371D01*
X181659352Y-85880190D01*
X182007695Y-85377028D02*
X181194895Y-85377028D01*
X182007695Y-84912571D01*
X181194895Y-84912571D01*
X182007695Y-84525523D02*
X181194895Y-84525523D01*
X181194895Y-84332000D01*
X181233600Y-84215885D01*
X181311009Y-84138476D01*
X181388419Y-84099771D01*
X181543238Y-84061066D01*
X181659352Y-84061066D01*
X181814171Y-84099771D01*
X181891580Y-84138476D01*
X181968990Y-84215885D01*
X182007695Y-84332000D01*
X182007695Y-84525523D01*
X181300619Y-94305380D02*
X180967285Y-93829190D01*
X180729190Y-94305380D02*
X180729190Y-93305380D01*
X181110142Y-93305380D01*
X181205380Y-93353000D01*
X181253000Y-93400619D01*
X181300619Y-93495857D01*
X181300619Y-93638714D01*
X181253000Y-93733952D01*
X181205380Y-93781571D01*
X181110142Y-93829190D01*
X180729190Y-93829190D01*
X181729190Y-93781571D02*
X182062523Y-93781571D01*
X182205380Y-94305380D02*
X181729190Y-94305380D01*
X181729190Y-93305380D01*
X182205380Y-93305380D01*
X182586333Y-94257761D02*
X182729190Y-94305380D01*
X182967285Y-94305380D01*
X183062523Y-94257761D01*
X183110142Y-94210142D01*
X183157761Y-94114904D01*
X183157761Y-94019666D01*
X183110142Y-93924428D01*
X183062523Y-93876809D01*
X182967285Y-93829190D01*
X182776809Y-93781571D01*
X182681571Y-93733952D01*
X182633952Y-93686333D01*
X182586333Y-93591095D01*
X182586333Y-93495857D01*
X182633952Y-93400619D01*
X182681571Y-93353000D01*
X182776809Y-93305380D01*
X183014904Y-93305380D01*
X183157761Y-93353000D01*
X183586333Y-93781571D02*
X183919666Y-93781571D01*
X184062523Y-94305380D02*
X183586333Y-94305380D01*
X183586333Y-93305380D01*
X184062523Y-93305380D01*
X184348238Y-93305380D02*
X184919666Y-93305380D01*
X184633952Y-94305380D02*
X184633952Y-93305380D01*
X106410000Y-59900000D02*
X110910000Y-59900000D01*
X110910000Y-59900000D02*
X110910000Y-60400000D01*
X109910000Y-51400000D02*
X110910000Y-51400000D01*
X105410000Y-66600000D02*
X105910000Y-66100000D01*
X96910000Y-52400000D02*
X96910000Y-51400000D01*
X110910000Y-51400000D02*
X110910000Y-52400000D01*
X110910000Y-65400000D02*
X109910000Y-65400000D01*
X110910000Y-64000000D02*
X110910000Y-64600000D01*
X96910000Y-51400000D02*
X97910000Y-51400000D01*
X110910000Y-64400000D02*
X110910000Y-65400000D01*
X102410000Y-62100000D02*
X104910000Y-62100000D01*
X96910000Y-65400000D02*
X96910000Y-64400000D01*
X101910000Y-62600000D02*
X102410000Y-62100000D01*
X105910000Y-65100000D02*
X105910000Y-66100000D01*
X106410000Y-60600000D02*
X106410000Y-59900000D01*
X101910000Y-66100000D02*
X102410000Y-66600000D01*
X102410000Y-66600000D02*
X105410000Y-66600000D01*
X110910000Y-64600000D02*
X106410000Y-64600000D01*
X97910000Y-65400000D02*
X96910000Y-65400000D01*
X104910000Y-62100000D02*
G75*
G03*
X106410000Y-60600000I0J1500000D01*
G01*
X106410000Y-64600000D02*
G75*
G03*
X105910000Y-65100000I0J-500000D01*
G01*
X87910000Y-77100000D02*
X87910000Y-78100000D01*
X83910000Y-74600000D02*
X84410000Y-74100000D01*
X88410000Y-72600000D02*
X88410000Y-71900000D01*
X78910000Y-63400000D02*
X79910000Y-63400000D01*
X88410000Y-71900000D02*
X92910000Y-71900000D01*
X92910000Y-77400000D02*
X91910000Y-77400000D01*
X79910000Y-77400000D02*
X78910000Y-77400000D01*
X91910000Y-63400000D02*
X92910000Y-63400000D01*
X87410000Y-78600000D02*
X87910000Y-78100000D01*
X78910000Y-77400000D02*
X78910000Y-76400000D01*
X92910000Y-63400000D02*
X92910000Y-64400000D01*
X83910000Y-78100000D02*
X84410000Y-78600000D01*
X78910000Y-64400000D02*
X78910000Y-63400000D01*
X84410000Y-74100000D02*
X86910000Y-74100000D01*
X84410000Y-78600000D02*
X87410000Y-78600000D01*
X92910000Y-71900000D02*
X92910000Y-72400000D01*
X92910000Y-76600000D02*
X88410000Y-76600000D01*
X92910000Y-76000000D02*
X92910000Y-76600000D01*
X92910000Y-76400000D02*
X92910000Y-77400000D01*
X88410000Y-76600000D02*
G75*
G03*
X87910000Y-77100000I0J-500000D01*
G01*
X86910000Y-74100000D02*
G75*
G03*
X88410000Y-72600000I0J1500000D01*
G01*
X88410000Y-89600000D02*
X88410000Y-88900000D01*
X92910000Y-93400000D02*
X92910000Y-94400000D01*
X84410000Y-91100000D02*
X86910000Y-91100000D01*
X83910000Y-95100000D02*
X84410000Y-95600000D01*
X92910000Y-88900000D02*
X92910000Y-89400000D01*
X91910000Y-80400000D02*
X92910000Y-80400000D01*
X78910000Y-94400000D02*
X78910000Y-93400000D01*
X92910000Y-93600000D02*
X88410000Y-93600000D01*
X78910000Y-81400000D02*
X78910000Y-80400000D01*
X88410000Y-88900000D02*
X92910000Y-88900000D01*
X87910000Y-94100000D02*
X87910000Y-95100000D01*
X84410000Y-95600000D02*
X87410000Y-95600000D01*
X83910000Y-91600000D02*
X84410000Y-91100000D01*
X78910000Y-80400000D02*
X79910000Y-80400000D01*
X79910000Y-94400000D02*
X78910000Y-94400000D01*
X92910000Y-93000000D02*
X92910000Y-93600000D01*
X92910000Y-80400000D02*
X92910000Y-81400000D01*
X87410000Y-95600000D02*
X87910000Y-95100000D01*
X92910000Y-94400000D02*
X91910000Y-94400000D01*
X88410000Y-93600000D02*
G75*
G03*
X87910000Y-94100000I0J-500000D01*
G01*
X86910000Y-91100000D02*
G75*
G03*
X88410000Y-89600000I0J1500000D01*
G01*
X92910000Y-110400000D02*
X92910000Y-111400000D01*
X88410000Y-105900000D02*
X92910000Y-105900000D01*
X92910000Y-97400000D02*
X92910000Y-98400000D01*
X87410000Y-112600000D02*
X87910000Y-112100000D01*
X83910000Y-112100000D02*
X84410000Y-112600000D01*
X79910000Y-111400000D02*
X78910000Y-111400000D01*
X83910000Y-108600000D02*
X84410000Y-108100000D01*
X78910000Y-97400000D02*
X79910000Y-97400000D01*
X91910000Y-97400000D02*
X92910000Y-97400000D01*
X78910000Y-98400000D02*
X78910000Y-97400000D01*
X92910000Y-110000000D02*
X92910000Y-110600000D01*
X88410000Y-106600000D02*
X88410000Y-105900000D01*
X92910000Y-111400000D02*
X91910000Y-111400000D01*
X92910000Y-105900000D02*
X92910000Y-106400000D01*
X84410000Y-108100000D02*
X86910000Y-108100000D01*
X78910000Y-111400000D02*
X78910000Y-110400000D01*
X92910000Y-110600000D02*
X88410000Y-110600000D01*
X84410000Y-112600000D02*
X87410000Y-112600000D01*
X87910000Y-111100000D02*
X87910000Y-112100000D01*
X88410000Y-110600000D02*
G75*
G03*
X87910000Y-111100000I0J-500000D01*
G01*
X86910000Y-108100000D02*
G75*
G03*
X88410000Y-106600000I0J1500000D01*
G01*
X86504400Y-64812800D02*
X85604400Y-64312800D01*
X85504400Y-63812800D02*
X85504400Y-64812800D01*
X83304400Y-65062800D02*
X88704400Y-65062800D01*
X88704400Y-63562800D02*
X83304400Y-63562800D01*
X83304400Y-63562800D02*
X83304400Y-65062800D01*
X86504400Y-63812800D02*
X86504400Y-64812800D01*
X88704400Y-65062800D02*
X88704400Y-63562800D01*
X85604400Y-64312800D02*
X86504400Y-63812800D01*
X104589200Y-51773200D02*
X104589200Y-52773200D01*
X101389200Y-53023200D02*
X106789200Y-53023200D01*
X104589200Y-52773200D02*
X103689200Y-52273200D01*
X103689200Y-52273200D02*
X104589200Y-51773200D01*
X106789200Y-51523200D02*
X101389200Y-51523200D01*
X101389200Y-51523200D02*
X101389200Y-53023200D01*
X103589200Y-51773200D02*
X103589200Y-52773200D01*
X106789200Y-53023200D02*
X106789200Y-51523200D01*
X119372400Y-46978000D02*
X124772400Y-46978000D01*
X122572400Y-46728000D02*
X121672400Y-46228000D01*
X121572400Y-45728000D02*
X121572400Y-46728000D01*
X119372400Y-45478000D02*
X119372400Y-46978000D01*
X121672400Y-46228000D02*
X122572400Y-45728000D01*
X124772400Y-45478000D02*
X119372400Y-45478000D01*
X122572400Y-45728000D02*
X122572400Y-46728000D01*
X124772400Y-46978000D02*
X124772400Y-45478000D01*
X137304800Y-54039200D02*
X142704800Y-54039200D01*
X142704800Y-54039200D02*
X142704800Y-52539200D01*
X139604800Y-53289200D02*
X140504800Y-52789200D01*
X140504800Y-52789200D02*
X140504800Y-53789200D01*
X140504800Y-53789200D02*
X139604800Y-53289200D01*
X142704800Y-52539200D02*
X137304800Y-52539200D01*
X139504800Y-52789200D02*
X139504800Y-53789200D01*
X137304800Y-52539200D02*
X137304800Y-54039200D01*
X155288000Y-54672800D02*
X155288000Y-56172800D01*
X160688000Y-56172800D02*
X160688000Y-54672800D01*
X157588000Y-55422800D02*
X158488000Y-54922800D01*
X155288000Y-56172800D02*
X160688000Y-56172800D01*
X157488000Y-54922800D02*
X157488000Y-55922800D01*
X158488000Y-54922800D02*
X158488000Y-55922800D01*
X160688000Y-54672800D02*
X155288000Y-54672800D01*
X158488000Y-55922800D02*
X157588000Y-55422800D01*
X86402800Y-81729200D02*
X85502800Y-81229200D01*
X88602800Y-81979200D02*
X88602800Y-80479200D01*
X83202800Y-80479200D02*
X83202800Y-81979200D01*
X85502800Y-81229200D02*
X86402800Y-80729200D01*
X86402800Y-80729200D02*
X86402800Y-81729200D01*
X88602800Y-80479200D02*
X83202800Y-80479200D01*
X83202800Y-81979200D02*
X88602800Y-81979200D01*
X85402800Y-80729200D02*
X85402800Y-81729200D01*
X106586000Y-68592000D02*
X101186000Y-68592000D01*
X103386000Y-68842000D02*
X103386000Y-69842000D01*
X101186000Y-70092000D02*
X106586000Y-70092000D01*
X104386000Y-69842000D02*
X103486000Y-69342000D01*
X103486000Y-69342000D02*
X104386000Y-68842000D01*
X106586000Y-70092000D02*
X106586000Y-68592000D01*
X104386000Y-68842000D02*
X104386000Y-69842000D01*
X101186000Y-68592000D02*
X101186000Y-70092000D01*
X122470800Y-63847600D02*
X121570800Y-63347600D01*
X122470800Y-62847600D02*
X122470800Y-63847600D01*
X119270800Y-62597600D02*
X119270800Y-64097600D01*
X121570800Y-63347600D02*
X122470800Y-62847600D01*
X121470800Y-62847600D02*
X121470800Y-63847600D01*
X124670800Y-64097600D02*
X124670800Y-62597600D01*
X124670800Y-62597600D02*
X119270800Y-62597600D01*
X119270800Y-64097600D02*
X124670800Y-64097600D01*
X140454000Y-70400800D02*
X139554000Y-69900800D01*
X139454000Y-69400800D02*
X139454000Y-70400800D01*
X137254000Y-69150800D02*
X137254000Y-70650800D01*
X142654000Y-69150800D02*
X137254000Y-69150800D01*
X142654000Y-70650800D02*
X142654000Y-69150800D01*
X140454000Y-69400800D02*
X140454000Y-70400800D01*
X139554000Y-69900800D02*
X140454000Y-69400800D01*
X137254000Y-70650800D02*
X142654000Y-70650800D01*
X158792800Y-71991600D02*
X158792800Y-72991600D01*
X155592800Y-73241600D02*
X160992800Y-73241600D01*
X157892800Y-72491600D02*
X158792800Y-71991600D01*
X160992800Y-73241600D02*
X160992800Y-71741600D01*
X155592800Y-71741600D02*
X155592800Y-73241600D01*
X157792800Y-71991600D02*
X157792800Y-72991600D01*
X158792800Y-72991600D02*
X157892800Y-72491600D01*
X160992800Y-71741600D02*
X155592800Y-71741600D01*
X88602800Y-98997200D02*
X88602800Y-97497200D01*
X88602800Y-97497200D02*
X83202800Y-97497200D01*
X85402800Y-97747200D02*
X85402800Y-98747200D01*
X83202800Y-98997200D02*
X88602800Y-98997200D01*
X86402800Y-98747200D02*
X85502800Y-98247200D01*
X83202800Y-97497200D02*
X83202800Y-98997200D01*
X85502800Y-98247200D02*
X86402800Y-97747200D01*
X86402800Y-97747200D02*
X86402800Y-98747200D01*
X101287600Y-85559200D02*
X101287600Y-87059200D01*
X103487600Y-85809200D02*
X103487600Y-86809200D01*
X104487600Y-85809200D02*
X104487600Y-86809200D01*
X106687600Y-85559200D02*
X101287600Y-85559200D01*
X103587600Y-86309200D02*
X104487600Y-85809200D01*
X104487600Y-86809200D02*
X103587600Y-86309200D01*
X106687600Y-87059200D02*
X106687600Y-85559200D01*
X101287600Y-87059200D02*
X106687600Y-87059200D01*
X119270800Y-81064800D02*
X124670800Y-81064800D01*
X124670800Y-79564800D02*
X119270800Y-79564800D01*
X121570800Y-80314800D02*
X122470800Y-79814800D01*
X122470800Y-80814800D02*
X121570800Y-80314800D01*
X124670800Y-81064800D02*
X124670800Y-79564800D01*
X119270800Y-79564800D02*
X119270800Y-81064800D01*
X122470800Y-79814800D02*
X122470800Y-80814800D01*
X121470800Y-79814800D02*
X121470800Y-80814800D01*
X137355600Y-87719600D02*
X142755600Y-87719600D01*
X140555600Y-86469600D02*
X140555600Y-87469600D01*
X140555600Y-87469600D02*
X139655600Y-86969600D01*
X139555600Y-86469600D02*
X139555600Y-87469600D01*
X142755600Y-86219600D02*
X137355600Y-86219600D01*
X137355600Y-86219600D02*
X137355600Y-87719600D01*
X139655600Y-86969600D02*
X140555600Y-86469600D01*
X142755600Y-87719600D02*
X142755600Y-86219600D01*
X157689600Y-89357200D02*
X158589600Y-88857200D01*
X158589600Y-89857200D02*
X157689600Y-89357200D01*
X158589600Y-88857200D02*
X158589600Y-89857200D01*
X160789600Y-88607200D02*
X155389600Y-88607200D01*
X155389600Y-90107200D02*
X160789600Y-90107200D01*
X160789600Y-90107200D02*
X160789600Y-88607200D01*
X157589600Y-88857200D02*
X157589600Y-89857200D01*
X155389600Y-88607200D02*
X155389600Y-90107200D01*
X136659600Y-119825200D02*
X136659600Y-118325200D01*
X134459600Y-118575200D02*
X134459600Y-119575200D01*
X133459600Y-118575200D02*
X133459600Y-119575200D01*
X134459600Y-119575200D02*
X133559600Y-119075200D01*
X131259600Y-119825200D02*
X136659600Y-119825200D01*
X136659600Y-118325200D02*
X131259600Y-118325200D01*
X133559600Y-119075200D02*
X134459600Y-118575200D01*
X131259600Y-118325200D02*
X131259600Y-119825200D01*
X152127912Y-121357068D02*
X153126654Y-121107043D01*
X154928167Y-122883852D02*
X155316396Y-121434963D01*
X149712168Y-121486229D02*
X154928167Y-122883852D01*
X152160729Y-120848224D02*
X151901910Y-121814149D01*
X152867835Y-122072968D02*
X152127912Y-121357068D01*
X155316396Y-121434963D02*
X150100397Y-120037340D01*
X150100397Y-120037340D02*
X149712168Y-121486229D01*
X153126654Y-121107043D02*
X152867835Y-122072968D01*
X179775153Y-121212422D02*
X180641179Y-121712422D01*
X179275153Y-122078448D02*
X180141179Y-122578448D01*
X179758166Y-122241845D02*
X179775153Y-121212422D01*
X180658647Y-119182166D02*
X177958647Y-123858704D01*
X180641179Y-121712422D02*
X179758166Y-122241845D01*
X179257685Y-124608704D02*
X181957685Y-119932166D01*
X181957685Y-119932166D02*
X180658647Y-119182166D01*
X177958647Y-123858704D02*
X179257685Y-124608704D01*
X187960000Y-103711000D02*
X175960000Y-103711000D01*
X187960000Y-97711000D02*
X187960000Y-103711000D01*
X175960000Y-103711000D02*
X175960000Y-97711000D01*
X175960000Y-97711000D02*
X187960000Y-97711000D01*
X119910000Y-56600000D02*
X120410000Y-56100000D01*
X128910000Y-58400000D02*
X128910000Y-59400000D01*
X123910000Y-59100000D02*
X123910000Y-60100000D01*
X128910000Y-59400000D02*
X127910000Y-59400000D01*
X128910000Y-53900000D02*
X128910000Y-54400000D01*
X128910000Y-45400000D02*
X128910000Y-46400000D01*
X114910000Y-59400000D02*
X114910000Y-58400000D01*
X120410000Y-56100000D02*
X122910000Y-56100000D01*
X114910000Y-46400000D02*
X114910000Y-45400000D01*
X127910000Y-45400000D02*
X128910000Y-45400000D01*
X124410000Y-53900000D02*
X128910000Y-53900000D01*
X124410000Y-54600000D02*
X124410000Y-53900000D01*
X128910000Y-58600000D02*
X124410000Y-58600000D01*
X123410000Y-60600000D02*
X123910000Y-60100000D01*
X114910000Y-45400000D02*
X115910000Y-45400000D01*
X115910000Y-59400000D02*
X114910000Y-59400000D01*
X120410000Y-60600000D02*
X123410000Y-60600000D01*
X128910000Y-58000000D02*
X128910000Y-58600000D01*
X119910000Y-60100000D02*
X120410000Y-60600000D01*
X124410000Y-58600000D02*
G75*
G03*
X123910000Y-59100000I0J-500000D01*
G01*
X122910000Y-56100000D02*
G75*
G03*
X124410000Y-54600000I0J1500000D01*
G01*
X145910000Y-52020000D02*
X146910000Y-52020000D01*
X146910000Y-60520000D02*
X146910000Y-61020000D01*
X133910000Y-66020000D02*
X132910000Y-66020000D01*
X146910000Y-65220000D02*
X142410000Y-65220000D01*
X132910000Y-66020000D02*
X132910000Y-65020000D01*
X146910000Y-52020000D02*
X146910000Y-53020000D01*
X132910000Y-53020000D02*
X132910000Y-52020000D01*
X137910000Y-66720000D02*
X138410000Y-67220000D01*
X146910000Y-65020000D02*
X146910000Y-66020000D01*
X138410000Y-62720000D02*
X140910000Y-62720000D01*
X142410000Y-60520000D02*
X146910000Y-60520000D01*
X146910000Y-66020000D02*
X145910000Y-66020000D01*
X146910000Y-64620000D02*
X146910000Y-65220000D01*
X142410000Y-61220000D02*
X142410000Y-60520000D01*
X138410000Y-67220000D02*
X141410000Y-67220000D01*
X132910000Y-52020000D02*
X133910000Y-52020000D01*
X141410000Y-67220000D02*
X141910000Y-66720000D01*
X141910000Y-65720000D02*
X141910000Y-66720000D01*
X137910000Y-63220000D02*
X138410000Y-62720000D01*
X140910000Y-62720000D02*
G75*
G03*
X142410000Y-61220000I0J1500000D01*
G01*
X142410000Y-65220000D02*
G75*
G03*
X141910000Y-65720000I0J-500000D01*
G01*
X156410000Y-69600000D02*
X159410000Y-69600000D01*
X164910000Y-54400000D02*
X164910000Y-55400000D01*
X150910000Y-55400000D02*
X150910000Y-54400000D01*
X160410000Y-63600000D02*
X160410000Y-62900000D01*
X150910000Y-54400000D02*
X151910000Y-54400000D01*
X155910000Y-65600000D02*
X156410000Y-65100000D01*
X164910000Y-67600000D02*
X160410000Y-67600000D01*
X164910000Y-67000000D02*
X164910000Y-67600000D01*
X163910000Y-54400000D02*
X164910000Y-54400000D01*
X164910000Y-68400000D02*
X163910000Y-68400000D01*
X150910000Y-68400000D02*
X150910000Y-67400000D01*
X164910000Y-67400000D02*
X164910000Y-68400000D01*
X164910000Y-62900000D02*
X164910000Y-63400000D01*
X159910000Y-68100000D02*
X159910000Y-69100000D01*
X155910000Y-69100000D02*
X156410000Y-69600000D01*
X151910000Y-68400000D02*
X150910000Y-68400000D01*
X160410000Y-62900000D02*
X164910000Y-62900000D01*
X156410000Y-65100000D02*
X158910000Y-65100000D01*
X159410000Y-69600000D02*
X159910000Y-69100000D01*
X160410000Y-67600000D02*
G75*
G03*
X159910000Y-68100000I0J-500000D01*
G01*
X158910000Y-65100000D02*
G75*
G03*
X160410000Y-63600000I0J1500000D01*
G01*
X110910000Y-76900000D02*
X110910000Y-77400000D01*
X102410000Y-83600000D02*
X105410000Y-83600000D01*
X109910000Y-68400000D02*
X110910000Y-68400000D01*
X101910000Y-83100000D02*
X102410000Y-83600000D01*
X106410000Y-76900000D02*
X110910000Y-76900000D01*
X96910000Y-68400000D02*
X97910000Y-68400000D01*
X110910000Y-82400000D02*
X109910000Y-82400000D01*
X110910000Y-68400000D02*
X110910000Y-69400000D01*
X96910000Y-82400000D02*
X96910000Y-81400000D01*
X110910000Y-81000000D02*
X110910000Y-81600000D01*
X101910000Y-79600000D02*
X102410000Y-79100000D01*
X96910000Y-69400000D02*
X96910000Y-68400000D01*
X97910000Y-82400000D02*
X96910000Y-82400000D01*
X105910000Y-82100000D02*
X105910000Y-83100000D01*
X110910000Y-81400000D02*
X110910000Y-82400000D01*
X105410000Y-83600000D02*
X105910000Y-83100000D01*
X110910000Y-81600000D02*
X106410000Y-81600000D01*
X106410000Y-77600000D02*
X106410000Y-76900000D01*
X102410000Y-79100000D02*
X104910000Y-79100000D01*
X104910000Y-79100000D02*
G75*
G03*
X106410000Y-77600000I0J1500000D01*
G01*
X106410000Y-81600000D02*
G75*
G03*
X105910000Y-82100000I0J-500000D01*
G01*
X114910000Y-76400000D02*
X114910000Y-75400000D01*
X124410000Y-71600000D02*
X124410000Y-70900000D01*
X128910000Y-70900000D02*
X128910000Y-71400000D01*
X123410000Y-77600000D02*
X123910000Y-77100000D01*
X128910000Y-75600000D02*
X124410000Y-75600000D01*
X128910000Y-62400000D02*
X128910000Y-63400000D01*
X128910000Y-76400000D02*
X127910000Y-76400000D01*
X128910000Y-75000000D02*
X128910000Y-75600000D01*
X119910000Y-77100000D02*
X120410000Y-77600000D01*
X123910000Y-76100000D02*
X123910000Y-77100000D01*
X115910000Y-76400000D02*
X114910000Y-76400000D01*
X120410000Y-77600000D02*
X123410000Y-77600000D01*
X120410000Y-73100000D02*
X122910000Y-73100000D01*
X119910000Y-73600000D02*
X120410000Y-73100000D01*
X124410000Y-70900000D02*
X128910000Y-70900000D01*
X114910000Y-62400000D02*
X115910000Y-62400000D01*
X127910000Y-62400000D02*
X128910000Y-62400000D01*
X114910000Y-63400000D02*
X114910000Y-62400000D01*
X128910000Y-75400000D02*
X128910000Y-76400000D01*
X124410000Y-75600000D02*
G75*
G03*
X123910000Y-76100000I0J-500000D01*
G01*
X122910000Y-73100000D02*
G75*
G03*
X124410000Y-71600000I0J1500000D01*
G01*
X146910000Y-82220000D02*
X142410000Y-82220000D01*
X132910000Y-83020000D02*
X132910000Y-82020000D01*
X142410000Y-78220000D02*
X142410000Y-77520000D01*
X132910000Y-70020000D02*
X132910000Y-69020000D01*
X142410000Y-77520000D02*
X146910000Y-77520000D01*
X141410000Y-84220000D02*
X141910000Y-83720000D01*
X145910000Y-69020000D02*
X146910000Y-69020000D01*
X137910000Y-83720000D02*
X138410000Y-84220000D01*
X146910000Y-82020000D02*
X146910000Y-83020000D01*
X138410000Y-84220000D02*
X141410000Y-84220000D01*
X138410000Y-79720000D02*
X140910000Y-79720000D01*
X146910000Y-69020000D02*
X146910000Y-70020000D01*
X132910000Y-69020000D02*
X133910000Y-69020000D01*
X146910000Y-81620000D02*
X146910000Y-82220000D01*
X133910000Y-83020000D02*
X132910000Y-83020000D01*
X146910000Y-77520000D02*
X146910000Y-78020000D01*
X137910000Y-80220000D02*
X138410000Y-79720000D01*
X141910000Y-82720000D02*
X141910000Y-83720000D01*
X146910000Y-83020000D02*
X145910000Y-83020000D01*
X142410000Y-82220000D02*
G75*
G03*
X141910000Y-82720000I0J-500000D01*
G01*
X140910000Y-79720000D02*
G75*
G03*
X142410000Y-78220000I0J1500000D01*
G01*
X164910000Y-84400000D02*
X164910000Y-85400000D01*
X155910000Y-82600000D02*
X156410000Y-82100000D01*
X151910000Y-85400000D02*
X150910000Y-85400000D01*
X164910000Y-85400000D02*
X163910000Y-85400000D01*
X164910000Y-84600000D02*
X160410000Y-84600000D01*
X159410000Y-86600000D02*
X159910000Y-86100000D01*
X164910000Y-84000000D02*
X164910000Y-84600000D01*
X150910000Y-72400000D02*
X150910000Y-71400000D01*
X155910000Y-86100000D02*
X156410000Y-86600000D01*
X160410000Y-80600000D02*
X160410000Y-79900000D01*
X159910000Y-85100000D02*
X159910000Y-86100000D01*
X164910000Y-79900000D02*
X164910000Y-80400000D01*
X156410000Y-82100000D02*
X158910000Y-82100000D01*
X160410000Y-79900000D02*
X164910000Y-79900000D01*
X156410000Y-86600000D02*
X159410000Y-86600000D01*
X164910000Y-71400000D02*
X164910000Y-72400000D01*
X150910000Y-71400000D02*
X151910000Y-71400000D01*
X163910000Y-71400000D02*
X164910000Y-71400000D01*
X150910000Y-85400000D02*
X150910000Y-84400000D01*
X160410000Y-84600000D02*
G75*
G03*
X159910000Y-85100000I0J-500000D01*
G01*
X158910000Y-82100000D02*
G75*
G03*
X160410000Y-80600000I0J1500000D01*
G01*
X106410000Y-93900000D02*
X110910000Y-93900000D01*
X105410000Y-100600000D02*
X105910000Y-100100000D01*
X110910000Y-99400000D02*
X109910000Y-99400000D01*
X110910000Y-98000000D02*
X110910000Y-98600000D01*
X110910000Y-85400000D02*
X110910000Y-86400000D01*
X110910000Y-93900000D02*
X110910000Y-94400000D01*
X110910000Y-98600000D02*
X106410000Y-98600000D01*
X101910000Y-96600000D02*
X102410000Y-96100000D01*
X96910000Y-86400000D02*
X96910000Y-85400000D01*
X105910000Y-99100000D02*
X105910000Y-100100000D01*
X102410000Y-96100000D02*
X104910000Y-96100000D01*
X110910000Y-98400000D02*
X110910000Y-99400000D01*
X96910000Y-85400000D02*
X97910000Y-85400000D01*
X101910000Y-100100000D02*
X102410000Y-100600000D01*
X96910000Y-99400000D02*
X96910000Y-98400000D01*
X106410000Y-94600000D02*
X106410000Y-93900000D01*
X102410000Y-100600000D02*
X105410000Y-100600000D01*
X109910000Y-85400000D02*
X110910000Y-85400000D01*
X97910000Y-99400000D02*
X96910000Y-99400000D01*
X104910000Y-96100000D02*
G75*
G03*
X106410000Y-94600000I0J1500000D01*
G01*
X106410000Y-98600000D02*
G75*
G03*
X105910000Y-99100000I0J-500000D01*
G01*
X120410000Y-94600000D02*
X123410000Y-94600000D01*
X128910000Y-93400000D02*
X127910000Y-93400000D01*
X119910000Y-94100000D02*
X120410000Y-94600000D01*
X128910000Y-92600000D02*
X124410000Y-92600000D01*
X115910000Y-93400000D02*
X114910000Y-93400000D01*
X128910000Y-92000000D02*
X128910000Y-92600000D01*
X123410000Y-94600000D02*
X123910000Y-94100000D01*
X128910000Y-87900000D02*
X128910000Y-88400000D01*
X123910000Y-93100000D02*
X123910000Y-94100000D01*
X127910000Y-79400000D02*
X128910000Y-79400000D01*
X114910000Y-80400000D02*
X114910000Y-79400000D01*
X114910000Y-79400000D02*
X115910000Y-79400000D01*
X124410000Y-88600000D02*
X124410000Y-87900000D01*
X120410000Y-90100000D02*
X122910000Y-90100000D01*
X128910000Y-92400000D02*
X128910000Y-93400000D01*
X114910000Y-93400000D02*
X114910000Y-92400000D01*
X128910000Y-79400000D02*
X128910000Y-80400000D01*
X124410000Y-87900000D02*
X128910000Y-87900000D01*
X119910000Y-90600000D02*
X120410000Y-90100000D01*
X122910000Y-90100000D02*
G75*
G03*
X124410000Y-88600000I0J1500000D01*
G01*
X124410000Y-92600000D02*
G75*
G03*
X123910000Y-93100000I0J-500000D01*
G01*
X141410000Y-101225000D02*
X141910000Y-100725000D01*
X146910000Y-99225000D02*
X142410000Y-99225000D01*
X146910000Y-98625000D02*
X146910000Y-99225000D01*
X132910000Y-100025000D02*
X132910000Y-99025000D01*
X132910000Y-87025000D02*
X132910000Y-86025000D01*
X137910000Y-97225000D02*
X138410000Y-96725000D01*
X133910000Y-100025000D02*
X132910000Y-100025000D01*
X146910000Y-99025000D02*
X146910000Y-100025000D01*
X141910000Y-99725000D02*
X141910000Y-100725000D01*
X138410000Y-101225000D02*
X141410000Y-101225000D01*
X146910000Y-86025000D02*
X146910000Y-87025000D01*
X132910000Y-86025000D02*
X133910000Y-86025000D01*
X142410000Y-95225000D02*
X142410000Y-94525000D01*
X142410000Y-94525000D02*
X146910000Y-94525000D01*
X145910000Y-86025000D02*
X146910000Y-86025000D01*
X138410000Y-96725000D02*
X140910000Y-96725000D01*
X137910000Y-100725000D02*
X138410000Y-101225000D01*
X146910000Y-94525000D02*
X146910000Y-95025000D01*
X146910000Y-100025000D02*
X145910000Y-100025000D01*
X140910000Y-96725000D02*
G75*
G03*
X142410000Y-95225000I0J1500000D01*
G01*
X142410000Y-99225000D02*
G75*
G03*
X141910000Y-99725000I0J-500000D01*
G01*
X164910000Y-101600000D02*
X160410000Y-101600000D01*
X155910000Y-99600000D02*
X156410000Y-99100000D01*
X164910000Y-102400000D02*
X163910000Y-102400000D01*
X163910000Y-88400000D02*
X164910000Y-88400000D01*
X159410000Y-103600000D02*
X159910000Y-103100000D01*
X156410000Y-99100000D02*
X158910000Y-99100000D01*
X150910000Y-89400000D02*
X150910000Y-88400000D01*
X160410000Y-97600000D02*
X160410000Y-96900000D01*
X164910000Y-101400000D02*
X164910000Y-102400000D01*
X164910000Y-101000000D02*
X164910000Y-101600000D01*
X150910000Y-88400000D02*
X151910000Y-88400000D01*
X164910000Y-88400000D02*
X164910000Y-89400000D01*
X164910000Y-96900000D02*
X164910000Y-97400000D01*
X151910000Y-102400000D02*
X150910000Y-102400000D01*
X155910000Y-103100000D02*
X156410000Y-103600000D01*
X150910000Y-102400000D02*
X150910000Y-101400000D01*
X160410000Y-96900000D02*
X164910000Y-96900000D01*
X156410000Y-103600000D02*
X159410000Y-103600000D01*
X159910000Y-102100000D02*
X159910000Y-103100000D01*
X158910000Y-99100000D02*
G75*
G03*
X160410000Y-97600000I0J1500000D01*
G01*
X160410000Y-101600000D02*
G75*
G03*
X159910000Y-102100000I0J-500000D01*
G01*
X136010000Y-105290000D02*
X135510000Y-104790000D01*
X141010000Y-119990000D02*
X140010000Y-119990000D01*
X128010000Y-119990000D02*
X127010000Y-119990000D01*
X136010000Y-108790000D02*
X135510000Y-109290000D01*
X135510000Y-104790000D02*
X132510000Y-104790000D01*
X127010000Y-107390000D02*
X127010000Y-106790000D01*
X131510000Y-111490000D02*
X127010000Y-111490000D01*
X132510000Y-104790000D02*
X132010000Y-105290000D01*
X141010000Y-105990000D02*
X141010000Y-106990000D01*
X141010000Y-118990000D02*
X141010000Y-119990000D01*
X127010000Y-106990000D02*
X127010000Y-105990000D01*
X127010000Y-105990000D02*
X128010000Y-105990000D01*
X135510000Y-109290000D02*
X133010000Y-109290000D01*
X127010000Y-119990000D02*
X127010000Y-118990000D01*
X127010000Y-106790000D02*
X131510000Y-106790000D01*
X132010000Y-106290000D02*
X132010000Y-105290000D01*
X140010000Y-105990000D02*
X141010000Y-105990000D01*
X131510000Y-110790000D02*
X131510000Y-111490000D01*
X127010000Y-111490000D02*
X127010000Y-110990000D01*
X133010000Y-109290000D02*
G75*
G03*
X131510000Y-110790000I0J-1500000D01*
G01*
X131510000Y-106790000D02*
G75*
G03*
X132010000Y-106290000I0J500000D01*
G01*
X157078892Y-112040750D02*
X156466519Y-112394303D01*
X152033414Y-113484064D02*
X147686748Y-112319378D01*
X153862236Y-108590659D02*
X154121055Y-107624733D01*
X148903197Y-107779527D02*
X153249864Y-108944212D01*
X145486786Y-120529747D02*
X145745605Y-119563822D01*
X156466519Y-112394303D02*
X154051705Y-111747255D01*
X152214587Y-112807916D02*
X152033414Y-113484064D01*
X161667288Y-110371433D02*
X162633214Y-110630253D01*
X157984758Y-108660009D02*
X157631205Y-108047637D01*
X154733427Y-107271180D02*
X154121055Y-107624733D01*
X146452712Y-120788567D02*
X145486786Y-120529747D01*
X159268567Y-123187288D02*
X159009747Y-124153214D01*
X157631205Y-108047637D02*
X154733427Y-107271180D01*
X159009747Y-124153214D02*
X158043822Y-123894395D01*
X148747906Y-108359082D02*
X148903197Y-107779527D01*
X149110253Y-107006786D02*
X150076178Y-107265605D01*
X147686748Y-112319378D02*
X147816157Y-111836415D01*
X148851433Y-107972712D02*
X149110253Y-107006786D01*
X162633214Y-110630253D02*
X162374395Y-111596178D01*
X153249863Y-108944212D02*
G75*
G03*
X153862236Y-108590659I129410J482963D01*
G01*
X154051704Y-111747255D02*
G75*
G03*
X152214587Y-112807916I-388228J-1448889D01*
G01*
X172022693Y-114957949D02*
X172205706Y-115640962D01*
X184222178Y-116227822D02*
X183722178Y-117093848D01*
X172205706Y-115640962D02*
X170955706Y-117806025D01*
X165790642Y-121752178D02*
X168040642Y-117855064D01*
X168308592Y-113390962D02*
X166808592Y-115989038D01*
X168991604Y-113207949D02*
X168308592Y-113390962D01*
X165097822Y-121352178D02*
X165597822Y-120486152D01*
X183356152Y-115727822D02*
X184222178Y-116227822D01*
X171597822Y-110093848D02*
X172097822Y-109227822D01*
X167857630Y-117172051D02*
X166991604Y-116672051D01*
X177722178Y-127486152D02*
X177222178Y-128352178D01*
X172110962Y-120205064D02*
X169860962Y-124102178D01*
X166808592Y-115989038D02*
X166991604Y-116672051D01*
X165963848Y-121852178D02*
X165097822Y-121352178D01*
X169860962Y-124102178D02*
X169427949Y-123852178D01*
X172097822Y-109227822D02*
X172963848Y-109727822D01*
X171504744Y-119855064D02*
X172110962Y-120205064D01*
X166310258Y-122052178D02*
X165790642Y-121752178D01*
X177222178Y-128352178D02*
X176356152Y-127852178D01*
X168040643Y-117855064D02*
G75*
G03*
X167857630Y-117172051I-433013J250000D01*
G01*
X170955705Y-117806025D02*
G75*
G03*
X171504744Y-119855064I1299039J-750000D01*
G01*
X169676400Y-56330400D02*
X172216400Y-56330400D01*
X187436400Y-86810400D02*
X184896400Y-86810400D01*
X184896400Y-86810400D02*
X184896400Y-56330400D01*
X172216400Y-56330400D02*
X172216400Y-86810400D01*
X187436400Y-56330400D02*
X187436400Y-86810400D01*
X169676400Y-86810400D02*
X169676400Y-56330400D01*
X172216400Y-86810400D02*
X169676400Y-86810400D01*
X184896400Y-56330400D02*
X187436400Y-56330400D01*
X179959000Y-89091400D02*
X178181000Y-89091400D01*
X178181000Y-89091400D02*
X178181000Y-86805400D01*
X179959000Y-86805400D02*
X179959000Y-89091400D01*
X178181000Y-86805400D02*
X179959000Y-86805400D01*
X172660000Y-91878400D02*
X182820000Y-91878400D01*
X172660000Y-89338400D02*
X182820000Y-89338400D01*
X172660000Y-91878400D02*
X172660000Y-89338400D01*
X182820000Y-89338400D02*
X182820000Y-91878400D01*
X177359000Y-89111400D02*
X175581000Y-89111400D01*
X177359000Y-86825400D02*
X177359000Y-89111400D01*
X175581000Y-89111400D02*
X175581000Y-86825400D01*
X175581000Y-86825400D02*
X177359000Y-86825400D01*
X174819000Y-89141400D02*
X173041000Y-89141400D01*
X173041000Y-89141400D02*
X173041000Y-86855400D01*
X173041000Y-86855400D02*
X174819000Y-86855400D01*
X174819000Y-86855400D02*
X174819000Y-89141400D01*
X180751000Y-89081800D02*
X180751000Y-86795800D01*
X182529000Y-86795800D02*
X182529000Y-89081800D01*
X182529000Y-89081800D02*
X180751000Y-89081800D01*
X180751000Y-86795800D02*
X182529000Y-86795800D01*
X179753000Y-95603000D02*
X185753000Y-95603000D01*
X185753000Y-92103000D02*
X185753000Y-92353000D01*
X179753000Y-92103000D02*
X185753000Y-92103000D01*
X179753000Y-95603000D02*
X179753000Y-95353000D01*
X185753000Y-95603000D02*
X185753000Y-95353000D01*
X179753000Y-92103000D02*
X179753000Y-92353000D01*
D13*
X82194400Y-64312800D03*
D14*
X89814400Y-64312800D03*
D13*
X100279200Y-52273200D03*
D14*
X107899200Y-52273200D03*
D13*
X118262400Y-46228000D03*
D14*
X125882400Y-46228000D03*
D13*
X136194800Y-53289200D03*
D14*
X143814800Y-53289200D03*
D13*
X154178000Y-55422800D03*
D14*
X161798000Y-55422800D03*
D13*
X82092800Y-81229200D03*
D14*
X89712800Y-81229200D03*
D13*
X100076000Y-69342000D03*
D14*
X107696000Y-69342000D03*
D13*
X118160800Y-63347600D03*
D14*
X125780800Y-63347600D03*
D13*
X136144000Y-69900800D03*
D14*
X143764000Y-69900800D03*
D13*
X154482800Y-72491600D03*
D14*
X162102800Y-72491600D03*
D13*
X82092800Y-98247200D03*
D14*
X89712800Y-98247200D03*
D13*
X100177600Y-86309200D03*
D14*
X107797600Y-86309200D03*
D13*
X118160800Y-80314800D03*
D14*
X125780800Y-80314800D03*
D13*
X136245600Y-86969600D03*
D14*
X143865600Y-86969600D03*
D13*
X154279600Y-89357200D03*
D14*
X161899600Y-89357200D03*
D13*
X130149600Y-119075200D03*
D14*
X137769600Y-119075200D03*
D15*
X148834105Y-120474495D03*
D14*
X156194459Y-122446697D03*
D16*
X178053166Y-125194992D03*
D14*
X181863166Y-118595878D03*
D17*
X186460000Y-98961000D03*
X179460000Y-98961000D03*
X186460000Y-100711000D03*
X179460000Y-100711000D03*
D18*
X176160000Y-101061000D03*
X176160000Y-98611000D03*
X184660000Y-102811000D03*
X184660000Y-96861000D03*
X181660000Y-96861000D03*
X181660000Y-102811000D03*
X177660000Y-96861000D03*
X177660000Y-102811000D03*
D19*
X169620000Y-58870400D03*
X186166400Y-57600400D03*
X186166400Y-60140400D03*
X169620000Y-61410400D03*
X186166400Y-62680400D03*
X169620000Y-63950400D03*
X186166400Y-65220400D03*
X169620000Y-66490400D03*
X169620000Y-69030400D03*
X186166400Y-67760400D03*
X169620000Y-71570400D03*
X186166400Y-70300400D03*
X169620000Y-74110400D03*
X186166400Y-72840400D03*
X169620000Y-76650400D03*
X186166400Y-75380400D03*
X186166400Y-77920400D03*
X169620000Y-79190400D03*
X186166400Y-80460400D03*
X169620000Y-81730400D03*
X186166400Y-83000400D03*
X169620000Y-84270400D03*
X186166400Y-85540400D03*
X169620000Y-86810400D03*
X170946400Y-85540400D03*
X184860000Y-86810400D03*
X170946400Y-83000400D03*
X184860000Y-84270400D03*
X184860000Y-81730400D03*
X170946400Y-80460400D03*
X184860000Y-79190400D03*
X170946400Y-77920400D03*
X184860000Y-76650400D03*
X170946400Y-75380400D03*
X184860000Y-74110400D03*
X170946400Y-72840400D03*
X184860000Y-71570400D03*
X170946400Y-70300400D03*
X170946400Y-67760400D03*
X184860000Y-69030400D03*
X184860000Y-66490400D03*
X170946400Y-65220400D03*
X184860000Y-63950400D03*
X170946400Y-62680400D03*
X170946400Y-60140400D03*
X184860000Y-61410400D03*
X184860000Y-58870400D03*
X170946400Y-57600400D03*
D14*
X173930000Y-90608400D03*
X176470000Y-90608400D03*
X179010000Y-90608400D03*
X181550000Y-90608400D03*
D20*
X186003000Y-93853000D03*
X179503000Y-93853000D03*
%LPC*%
D21*
X98690000Y-54200000D03*
D22*
X109410000Y-58400000D03*
D23*
X103910000Y-64350000D03*
D21*
X109130000Y-54200000D03*
D23*
X98910000Y-62150000D03*
D24*
X103910000Y-58400000D03*
D23*
X108910000Y-62150000D03*
D22*
X98410000Y-58400000D03*
D25*
X100635000Y-64350000D03*
D26*
X112185000Y-62150000D03*
D22*
X91410000Y-70400000D03*
D24*
X85910000Y-70400000D03*
D23*
X80910000Y-74150000D03*
D21*
X91130000Y-66200000D03*
D23*
X85910000Y-76350000D03*
D21*
X80690000Y-66200000D03*
D22*
X80410000Y-70400000D03*
D23*
X90910000Y-74150000D03*
D25*
X82635000Y-76350000D03*
D26*
X94185000Y-74150000D03*
D23*
X90910000Y-91150000D03*
D22*
X91410000Y-87400000D03*
X80410000Y-87400000D03*
D23*
X80910000Y-91150000D03*
D21*
X80690000Y-83200000D03*
D23*
X85910000Y-93350000D03*
D21*
X91130000Y-83200000D03*
D24*
X85910000Y-87400000D03*
D25*
X82635000Y-93350000D03*
D26*
X94185000Y-91150000D03*
D21*
X91130000Y-100200000D03*
X80690000Y-100200000D03*
D23*
X90910000Y-108150000D03*
D22*
X91410000Y-104400000D03*
X80410000Y-104400000D03*
D24*
X85910000Y-104400000D03*
D23*
X80910000Y-108150000D03*
X85910000Y-110350000D03*
D25*
X82635000Y-110350000D03*
D27*
X93810000Y-108150000D03*
D28*
X82194400Y-64312800D03*
D29*
X84229400Y-64312800D03*
D30*
X89814400Y-64312800D03*
D29*
X87779400Y-64312800D03*
D28*
X100279200Y-52273200D03*
D29*
X102314200Y-52273200D03*
X105864200Y-52273200D03*
D30*
X107899200Y-52273200D03*
D28*
X118262400Y-46228000D03*
D29*
X120297400Y-46228000D03*
D30*
X125882400Y-46228000D03*
D29*
X123847400Y-46228000D03*
X138229800Y-53289200D03*
D28*
X136194800Y-53289200D03*
D30*
X143814800Y-53289200D03*
D29*
X141779800Y-53289200D03*
X156213000Y-55422800D03*
D28*
X154178000Y-55422800D03*
D29*
X159763000Y-55422800D03*
D30*
X161798000Y-55422800D03*
D28*
X82092800Y-81229200D03*
D29*
X84127800Y-81229200D03*
D30*
X89712800Y-81229200D03*
D29*
X87677800Y-81229200D03*
D28*
X100076000Y-69342000D03*
D29*
X102111000Y-69342000D03*
D30*
X107696000Y-69342000D03*
D29*
X105661000Y-69342000D03*
D28*
X118160800Y-63347600D03*
D29*
X120195800Y-63347600D03*
X123745800Y-63347600D03*
D30*
X125780800Y-63347600D03*
D28*
X136144000Y-69900800D03*
D29*
X138179000Y-69900800D03*
D30*
X143764000Y-69900800D03*
D29*
X141729000Y-69900800D03*
D28*
X154482800Y-72491600D03*
D29*
X156517800Y-72491600D03*
D30*
X162102800Y-72491600D03*
D29*
X160067800Y-72491600D03*
D28*
X82092800Y-98247200D03*
D29*
X84127800Y-98247200D03*
D30*
X89712800Y-98247200D03*
D29*
X87677800Y-98247200D03*
D28*
X100177600Y-86309200D03*
D29*
X102212600Y-86309200D03*
X105762600Y-86309200D03*
D30*
X107797600Y-86309200D03*
D29*
X120195800Y-80314800D03*
D28*
X118160800Y-80314800D03*
D29*
X123745800Y-80314800D03*
D30*
X125780800Y-80314800D03*
D28*
X136245600Y-86969600D03*
D29*
X138280600Y-86969600D03*
X141830600Y-86969600D03*
D30*
X143865600Y-86969600D03*
D29*
X156314600Y-89357200D03*
D28*
X154279600Y-89357200D03*
D30*
X161899600Y-89357200D03*
D29*
X159864600Y-89357200D03*
D28*
X130149600Y-119075200D03*
D29*
X132184600Y-119075200D03*
X135734600Y-119075200D03*
D30*
X137769600Y-119075200D03*
D31*
X150799764Y-121001192D03*
D32*
X148834105Y-120474495D03*
D30*
X156194459Y-122446697D03*
D31*
X154228800Y-121920000D03*
D33*
X178053166Y-125194992D03*
D34*
X179070666Y-123432630D03*
X180845666Y-120358240D03*
D30*
X181863166Y-118595878D03*
D35*
X186460000Y-98961000D03*
X179460000Y-98961000D03*
X186460000Y-100711000D03*
X179460000Y-100711000D03*
D36*
X176160000Y-101061000D03*
X176160000Y-98611000D03*
X184660000Y-102811000D03*
X184660000Y-96861000D03*
X181660000Y-96861000D03*
X181660000Y-102811000D03*
X177660000Y-96861000D03*
X177660000Y-102811000D03*
D24*
X121910000Y-52400000D03*
D22*
X116410000Y-52400000D03*
D21*
X127130000Y-48200000D03*
D23*
X121910000Y-58350000D03*
X116910000Y-56150000D03*
D21*
X116690000Y-48200000D03*
D22*
X127410000Y-52400000D03*
D23*
X126910000Y-56150000D03*
D25*
X118635000Y-58350000D03*
D26*
X130185000Y-56150000D03*
D22*
X145410000Y-59020000D03*
D23*
X134910000Y-62770000D03*
X139910000Y-64970000D03*
D21*
X134690000Y-54820000D03*
D24*
X139910000Y-59020000D03*
D21*
X145130000Y-54820000D03*
D22*
X134410000Y-59020000D03*
D23*
X144910000Y-62770000D03*
D25*
X136635000Y-64970000D03*
D26*
X148185000Y-62770000D03*
D23*
X152910000Y-65150000D03*
X157910000Y-67350000D03*
D21*
X152690000Y-57200000D03*
D24*
X157910000Y-61400000D03*
D22*
X152410000Y-61400000D03*
X163410000Y-61400000D03*
D23*
X162910000Y-65150000D03*
D21*
X163130000Y-57200000D03*
D25*
X154635000Y-67350000D03*
D26*
X166185000Y-65150000D03*
D22*
X98410000Y-75400000D03*
D21*
X109130000Y-71200000D03*
D24*
X103910000Y-75400000D03*
D22*
X109410000Y-75400000D03*
D23*
X108910000Y-79150000D03*
X98910000Y-79150000D03*
X103910000Y-81350000D03*
D21*
X98690000Y-71200000D03*
D25*
X100635000Y-81350000D03*
D26*
X112185000Y-79150000D03*
D23*
X121910000Y-75350000D03*
D22*
X116410000Y-69400000D03*
D21*
X127130000Y-65200000D03*
D22*
X127410000Y-69400000D03*
D21*
X116690000Y-65200000D03*
D24*
X121910000Y-69400000D03*
D23*
X116910000Y-73150000D03*
X126910000Y-73150000D03*
D25*
X118635000Y-75350000D03*
D26*
X130185000Y-73150000D03*
D23*
X134910000Y-79770000D03*
D21*
X134690000Y-71820000D03*
D23*
X144910000Y-79770000D03*
X139910000Y-81970000D03*
D22*
X134410000Y-76020000D03*
D24*
X139910000Y-76020000D03*
D22*
X145410000Y-76020000D03*
D21*
X145130000Y-71820000D03*
D25*
X136635000Y-81970000D03*
D26*
X148185000Y-79770000D03*
D22*
X163410000Y-78400000D03*
D23*
X162910000Y-82150000D03*
D22*
X152410000Y-78400000D03*
D21*
X152690000Y-74200000D03*
X163130000Y-74200000D03*
D23*
X157910000Y-84350000D03*
D24*
X157910000Y-78400000D03*
D23*
X152910000Y-82150000D03*
D25*
X154635000Y-84350000D03*
D26*
X166185000Y-82150000D03*
D23*
X103910000Y-98350000D03*
X98910000Y-96150000D03*
D21*
X98690000Y-88200000D03*
D22*
X109410000Y-92400000D03*
D23*
X108910000Y-96150000D03*
D22*
X98410000Y-92400000D03*
D21*
X109130000Y-88200000D03*
D24*
X103910000Y-92400000D03*
D25*
X100635000Y-98350000D03*
D26*
X112185000Y-96150000D03*
D24*
X121910000Y-86400000D03*
D23*
X116910000Y-90150000D03*
D21*
X116690000Y-82200000D03*
D23*
X126910000Y-90150000D03*
D22*
X127410000Y-86400000D03*
D21*
X127130000Y-82200000D03*
D22*
X116410000Y-86400000D03*
D23*
X121910000Y-92350000D03*
D25*
X118635000Y-92350000D03*
D26*
X130185000Y-90150000D03*
D21*
X145130000Y-88825000D03*
X134690000Y-88825000D03*
D22*
X134410000Y-93025000D03*
D23*
X139910000Y-98975000D03*
D22*
X145410000Y-93025000D03*
D23*
X134910000Y-96775000D03*
D24*
X139910000Y-93025000D03*
D23*
X144910000Y-96775000D03*
D25*
X136635000Y-98975000D03*
D26*
X148185000Y-96775000D03*
D23*
X157910000Y-101350000D03*
D24*
X157910000Y-95400000D03*
D22*
X163410000Y-95400000D03*
D23*
X152910000Y-99150000D03*
D21*
X152690000Y-91200000D03*
D23*
X162910000Y-99150000D03*
D22*
X152410000Y-95400000D03*
D21*
X163130000Y-91200000D03*
D25*
X154635000Y-101350000D03*
D26*
X166185000Y-99150000D03*
D21*
X139230000Y-117190000D03*
D23*
X134010000Y-107040000D03*
D22*
X128510000Y-112990000D03*
D23*
X139010000Y-109240000D03*
D24*
X134010000Y-112990000D03*
D22*
X139510000Y-112990000D03*
D23*
X129010000Y-109240000D03*
D21*
X128790000Y-117190000D03*
D37*
X137285000Y-107040000D03*
D38*
X125735000Y-109240000D03*
D21*
X158015093Y-120987924D03*
D23*
X155599973Y-109832741D03*
X150200942Y-110663683D03*
D24*
X154060000Y-115580000D03*
D23*
X159860201Y-113251873D03*
D22*
X148747408Y-114156495D03*
D21*
X147930827Y-118285853D03*
D22*
X159372592Y-117003505D03*
D39*
X158763380Y-110680374D03*
D40*
X147037535Y-109816051D03*
D23*
X173912405Y-112584873D03*
X169507149Y-115815000D03*
D21*
X180907307Y-116369347D03*
D22*
X171910000Y-123553140D03*
X177410000Y-114026860D03*
D23*
X168912405Y-121245127D03*
D24*
X174660000Y-118790000D03*
D21*
X175687307Y-125410653D03*
D41*
X171144649Y-112978767D03*
D42*
X167274905Y-124081360D03*
D43*
X169620000Y-58870400D03*
X186166400Y-57600400D03*
X186166400Y-60140400D03*
X169620000Y-61410400D03*
X186166400Y-62680400D03*
X169620000Y-63950400D03*
X186166400Y-65220400D03*
X169620000Y-66490400D03*
X169620000Y-69030400D03*
X186166400Y-67760400D03*
X169620000Y-71570400D03*
X186166400Y-70300400D03*
X169620000Y-74110400D03*
X186166400Y-72840400D03*
X169620000Y-76650400D03*
X186166400Y-75380400D03*
X186166400Y-77920400D03*
X169620000Y-79190400D03*
X186166400Y-80460400D03*
X169620000Y-81730400D03*
X186166400Y-83000400D03*
X169620000Y-84270400D03*
X186166400Y-85540400D03*
X169620000Y-86810400D03*
X170946400Y-85540400D03*
X184860000Y-86810400D03*
X170946400Y-83000400D03*
X184860000Y-84270400D03*
X184860000Y-81730400D03*
X170946400Y-80460400D03*
X184860000Y-79190400D03*
X170946400Y-77920400D03*
X184860000Y-76650400D03*
X170946400Y-75380400D03*
X184860000Y-74110400D03*
X170946400Y-72840400D03*
X184860000Y-71570400D03*
X170946400Y-70300400D03*
X170946400Y-67760400D03*
X184860000Y-69030400D03*
X184860000Y-66490400D03*
X170946400Y-65220400D03*
X184860000Y-63950400D03*
X170946400Y-62680400D03*
X170946400Y-60140400D03*
X184860000Y-61410400D03*
X184860000Y-58870400D03*
X170946400Y-57600400D03*
D44*
X179070000Y-87448020D03*
X179070000Y-88448780D03*
D30*
X173930000Y-90608400D03*
X176470000Y-90608400D03*
X179010000Y-90608400D03*
X181550000Y-90608400D03*
D44*
X176470000Y-87468020D03*
X176470000Y-88468780D03*
X173930000Y-87498020D03*
X173930000Y-88498780D03*
X181640000Y-87438420D03*
X181640000Y-88439180D03*
D45*
X186003000Y-93853000D03*
X179503000Y-93853000D03*
D46*
X171323000Y-96901000D03*
X185420000Y-106426000D03*
X95000000Y-66802000D03*
X148971000Y-69850000D03*
X123952000Y-104140000D03*
X167005000Y-110363000D03*
X95000000Y-83820000D03*
M02*
