M48
; DRILL file {KiCad 6.99.0-a9ca49a600~144~ubuntu20.04.1} date Чт 30 дек 2021 21:08:43
; FORMAT={-:-/ absolute / metric / decimal}
; #@! TF.CreationDate,2021-12-30T21:08:43+02:00
; #@! TF.GenerationSoftware,Kicad,Pcbnew,6.99.0-a9ca49a600~144~ubuntu20.04.1
; #@! TF.FileFunction,NonPlated,1,2,NPTH
FMAT,2
METRIC
; #@! TA.AperFunction,NonPlated,NPTH,ComponentDrill
T1C1.200
; #@! TA.AperFunction,NonPlated,NPTH,ComponentDrill
T2C1.702
; #@! TA.AperFunction,NonPlated,NPTH,ComponentDrill
T3C3.429
%
G90
G05
T1
X179.46Y-98.961
X179.46Y-100.711
X186.46Y-98.961
X186.46Y-100.711
T2
X80.41Y-70.4
X80.41Y-87.4
X80.41Y-104.4
X91.41Y-70.4
X91.41Y-87.4
X91.41Y-104.4
X98.41Y-58.4
X98.41Y-75.4
X98.41Y-92.4
X109.41Y-58.4
X109.41Y-75.4
X109.41Y-92.4
X116.41Y-52.4
X116.41Y-69.4
X116.41Y-86.4
X127.41Y-52.4
X127.41Y-69.4
X127.41Y-86.4
X128.51Y-112.99
X134.41Y-59.02
X134.41Y-76.02
X134.41Y-93.025
X139.51Y-112.99
X145.41Y-59.02
X145.41Y-76.02
X145.41Y-93.025
X148.747Y-114.156
X151.91Y-95.45
X152.41Y-61.4
X152.41Y-78.4
X159.373Y-117.004
X162.91Y-95.45
X163.41Y-61.4
X163.41Y-78.4
X171.91Y-123.553
X177.41Y-114.027
T3
X85.91Y-70.4
X85.91Y-87.4
X85.91Y-104.4
X103.91Y-58.4
X103.91Y-75.4
X103.91Y-92.4
X121.91Y-52.4
X121.91Y-69.4
X121.91Y-86.4
X134.01Y-112.99
X139.91Y-59.02
X139.91Y-76.02
X139.91Y-93.025
X154.06Y-115.58
X157.41Y-95.45
X157.91Y-61.4
X157.91Y-78.4
X174.66Y-118.79
T0
M30
