M48
; DRILL file {KiCad 6.99.0-a9ca49a600~144~ubuntu20.04.1} date Вс 26 дек 2021 21:28:58
; FORMAT={-:-/ absolute / inch / decimal}
; #@! TF.CreationDate,2021-12-26T21:28:58+02:00
; #@! TF.GenerationSoftware,Kicad,Pcbnew,6.99.0-a9ca49a600~144~ubuntu20.04.1
; #@! TF.FileFunction,NonPlated,1,2,NPTH
FMAT,2
INCH
; #@! TA.AperFunction,NonPlated,NPTH,ComponentDrill
T1C0.0390
; #@! TA.AperFunction,NonPlated,NPTH,ComponentDrill
T2C0.0472
; #@! TA.AperFunction,NonPlated,NPTH,ComponentDrill
T3C0.0670
; #@! TA.AperFunction,NonPlated,NPTH,ComponentDrill
T4C0.1350
%
G90
G05
T1
X3.1768Y-2.6063
X3.1768Y-3.2756
X3.1768Y-3.9449
X3.5878Y-2.6063
X3.5878Y-3.2756
X3.5878Y-3.9449
X3.8854Y-2.1339
X3.8854Y-2.8031
X3.8854Y-3.4724
X4.2965Y-2.1339
X4.2965Y-2.8031
X4.2965Y-3.4724
X4.5941Y-1.8976
X4.5941Y-2.5669
X4.5941Y-3.2362
X5.0051Y-1.8976
X5.0051Y-2.5669
X5.0051Y-3.2362
X5.0705Y-4.6138
X5.3028Y-2.1583
X5.3028Y-2.8276
X5.3028Y-3.497
X5.4815Y-4.6138
X5.7138Y-2.1583
X5.7138Y-2.8276
X5.7138Y-3.497
X5.824Y-4.6569
X5.9917Y-3.5925
X6.0114Y-2.252
X6.0114Y-2.9213
X6.2211Y-4.7633
X6.4028Y-3.5925
X6.4224Y-2.252
X6.4224Y-2.9213
X6.9168Y-4.9374
X7.1223Y-4.5815
T2
X7.0654Y-3.8961
X7.0654Y-3.965
X7.3409Y-3.8961
X7.3409Y-3.965
T3
X3.1657Y-2.7717
X3.1657Y-3.4409
X3.1657Y-4.1102
X3.5988Y-2.7717
X3.5988Y-3.4409
X3.5988Y-4.1102
X3.8744Y-2.2992
X3.8744Y-2.9685
X3.8744Y-3.6378
X4.3075Y-2.2992
X4.3075Y-2.9685
X4.3075Y-3.6378
X4.5831Y-2.063
X4.5831Y-2.7323
X4.5831Y-3.4016
X5.0161Y-2.063
X5.0161Y-2.7323
X5.0161Y-3.4016
X5.0594Y-4.4484
X5.2917Y-2.3236
X5.2917Y-2.9929
X5.2917Y-3.6624
X5.4925Y-4.4484
X5.7248Y-2.3236
X5.7248Y-2.9929
X5.7248Y-3.6624
X5.8562Y-4.4944
X5.9807Y-3.7579
X6.0004Y-2.4173
X6.0004Y-3.0866
X6.2745Y-4.6064
X6.4138Y-3.7579
X6.4335Y-2.4173
X6.4335Y-3.0866
X6.7681Y-4.8643
X6.9846Y-4.4892
T4
X3.3823Y-2.7717
X3.3823Y-3.4409
X3.3823Y-4.1102
X4.0909Y-2.2992
X4.0909Y-2.9685
X4.0909Y-3.6378
X4.7996Y-2.063
X4.7996Y-2.7323
X4.7996Y-3.4016
X5.276Y-4.4484
X5.5083Y-2.3236
X5.5083Y-2.9929
X5.5083Y-3.6624
X6.0654Y-4.5504
X6.1972Y-3.7579
X6.2169Y-2.4173
X6.2169Y-3.0866
X6.8764Y-4.6768
T0
M30
