G04 #@! TF.GenerationSoftware,KiCad,Pcbnew,6.99.0-a9ca49a600~144~ubuntu20.04.1*
G04 #@! TF.CreationDate,2021-12-27T10:09:17+02:00*
G04 #@! TF.ProjectId,chocofi,63686f63-6f66-4692-9e6b-696361645f70,2.1*
G04 #@! TF.SameCoordinates,Original*
G04 #@! TF.FileFunction,Soldermask,Top*
G04 #@! TF.FilePolarity,Negative*
%FSLAX46Y46*%
G04 Gerber Fmt 4.6, Leading zero omitted, Abs format (unit mm)*
G04 Created by KiCad (PCBNEW 6.99.0-a9ca49a600~144~ubuntu20.04.1) date 2021-12-27 10:09:17*
%MOMM*%
%LPD*%
G01*
G04 APERTURE LIST*
G04 Aperture macros list*
%AMRoundRect*
0 Rectangle with rounded corners*
0 $1 Rounding radius*
0 $2 $3 $4 $5 $6 $7 $8 $9 X,Y pos of 4 corners*
0 Add a 4 corners polygon primitive as box body*
4,1,4,$2,$3,$4,$5,$6,$7,$8,$9,$2,$3,0*
0 Add four circle primitives for the rounded corners*
1,1,$1+$1,$2,$3*
1,1,$1+$1,$4,$5*
1,1,$1+$1,$6,$7*
1,1,$1+$1,$8,$9*
0 Add four rect primitives between the rounded corners*
20,1,$1+$1,$2,$3,$4,$5,0*
20,1,$1+$1,$4,$5,$6,$7,0*
20,1,$1+$1,$6,$7,$8,$9,0*
20,1,$1+$1,$8,$9,$2,$3,0*%
G04 Aperture macros list end*
%ADD10RoundRect,0.200000X-0.650000X-0.475000X0.650000X-0.475000X0.650000X0.475000X-0.650000X0.475000X0*%
%ADD11RoundRect,0.200000X-0.750791X-0.290582X0.504913X-0.627047X0.750791X0.290582X-0.504913X0.627047X0*%
%ADD12RoundRect,0.200000X0.086362X-0.800417X0.736362X0.325417X-0.086362X0.800417X-0.736362X-0.325417X0*%
%ADD13C,1.600000*%
%ADD14O,2.900000X2.100000*%
%ADD15C,1.390600*%
%ADD16C,2.101800*%
%ADD17C,3.829000*%
%ADD18C,2.432000*%
%ADD19C,1.924000*%
%ADD20RoundRect,0.200000X-0.571500X0.317500X-0.571500X-0.317500X0.571500X-0.317500X0.571500X0.317500X0*%
%ADD21C,1.797000*%
%ADD22C,2.400000*%
%ADD23C,4.400000*%
G04 APERTURE END LIST*
D10*
X84229400Y-64312800D03*
X87779400Y-64312800D03*
X102314200Y-52273200D03*
X105864200Y-52273200D03*
X120297400Y-46228000D03*
X123847400Y-46228000D03*
X138229800Y-53289200D03*
X141779800Y-53289200D03*
X156213000Y-55422800D03*
X159763000Y-55422800D03*
X84127800Y-81229200D03*
X87677800Y-81229200D03*
X102111000Y-69342000D03*
X105661000Y-69342000D03*
X120195800Y-63347600D03*
X123745800Y-63347600D03*
X138179000Y-69900800D03*
X141729000Y-69900800D03*
X156517800Y-72491600D03*
X160067800Y-72491600D03*
X84127800Y-98247200D03*
X87677800Y-98247200D03*
X102212600Y-86309200D03*
X105762600Y-86309200D03*
X120195800Y-80314800D03*
X123745800Y-80314800D03*
X138280600Y-86969600D03*
X141830600Y-86969600D03*
X156314600Y-89357200D03*
X159864600Y-89357200D03*
X132184600Y-119075200D03*
X135734600Y-119075200D03*
D11*
X150799764Y-121001192D03*
X154228800Y-121920000D03*
D12*
X179070666Y-123432630D03*
X180845666Y-120358240D03*
D13*
X186460000Y-98961000D03*
X179460000Y-98961000D03*
X186460000Y-100711000D03*
X179460000Y-100711000D03*
D14*
X176160000Y-101061000D03*
X176160000Y-98611000D03*
X184660000Y-102811000D03*
X184660000Y-96861000D03*
X181660000Y-96861000D03*
X181660000Y-102811000D03*
X177660000Y-96861000D03*
X177660000Y-102811000D03*
D15*
X80690000Y-66200000D03*
D16*
X91410000Y-70400000D03*
D15*
X91130000Y-66200000D03*
D17*
X85910000Y-70400000D03*
D16*
X80410000Y-70400000D03*
D18*
X85910000Y-76300000D03*
X90910000Y-74200000D03*
X80910000Y-74200000D03*
D17*
X103910000Y-58400000D03*
D15*
X109130000Y-54200000D03*
D16*
X98410000Y-58400000D03*
D15*
X98690000Y-54200000D03*
D16*
X109410000Y-58400000D03*
D18*
X103910000Y-64300000D03*
X98910000Y-62200000D03*
X108910000Y-62200000D03*
D15*
X116690000Y-48200000D03*
X127130000Y-48200000D03*
D17*
X121910000Y-52400000D03*
D16*
X116410000Y-52400000D03*
X127410000Y-52400000D03*
D18*
X121910000Y-58300000D03*
X126910000Y-56200000D03*
X116910000Y-56200000D03*
D16*
X145410000Y-59020000D03*
D15*
X145130000Y-54820000D03*
D17*
X139910000Y-59020000D03*
D16*
X134410000Y-59020000D03*
D15*
X134690000Y-54820000D03*
D18*
X139910000Y-64920000D03*
X144910000Y-62820000D03*
X134910000Y-62820000D03*
D16*
X152410000Y-61400000D03*
D15*
X152690000Y-57200000D03*
X163130000Y-57200000D03*
D16*
X163410000Y-61400000D03*
D17*
X157910000Y-61400000D03*
D18*
X157910000Y-67300000D03*
X152910000Y-65200000D03*
X162910000Y-65200000D03*
D16*
X91410000Y-87400000D03*
D17*
X85910000Y-87400000D03*
D15*
X80690000Y-83200000D03*
D16*
X80410000Y-87400000D03*
D15*
X91130000Y-83200000D03*
D18*
X85910000Y-93300000D03*
X90910000Y-91200000D03*
X80910000Y-91200000D03*
D16*
X109410000Y-75400000D03*
D15*
X98690000Y-71200000D03*
D17*
X103910000Y-75400000D03*
D15*
X109130000Y-71200000D03*
D16*
X98410000Y-75400000D03*
D18*
X103910000Y-81300000D03*
X98910000Y-79200000D03*
X108910000Y-79200000D03*
D15*
X127130000Y-65200000D03*
D16*
X116410000Y-69400000D03*
D17*
X121910000Y-69400000D03*
D15*
X116690000Y-65200000D03*
D16*
X127410000Y-69400000D03*
D18*
X121910000Y-75300000D03*
X126910000Y-73200000D03*
X116910000Y-73200000D03*
D15*
X145130000Y-71820000D03*
D16*
X134410000Y-76020000D03*
X145410000Y-76020000D03*
D15*
X134690000Y-71820000D03*
D17*
X139910000Y-76020000D03*
D18*
X139910000Y-81920000D03*
X144910000Y-79820000D03*
X134910000Y-79820000D03*
D16*
X163410000Y-78400000D03*
D15*
X152690000Y-74200000D03*
X163130000Y-74200000D03*
D16*
X152410000Y-78400000D03*
D17*
X157910000Y-78400000D03*
D18*
X157910000Y-84300000D03*
X162910000Y-82200000D03*
X152910000Y-82200000D03*
D15*
X80690000Y-100200000D03*
D16*
X91410000Y-104400000D03*
D17*
X85910000Y-104400000D03*
D15*
X91130000Y-100200000D03*
D16*
X80410000Y-104400000D03*
D18*
X85910000Y-110300000D03*
X80910000Y-108200000D03*
X90910000Y-108200000D03*
D15*
X98690000Y-88200000D03*
X109130000Y-88200000D03*
D17*
X103910000Y-92400000D03*
D16*
X109410000Y-92400000D03*
X98410000Y-92400000D03*
D18*
X103910000Y-98300000D03*
X108910000Y-96200000D03*
X98910000Y-96200000D03*
D16*
X116410000Y-86400000D03*
D15*
X116690000Y-82200000D03*
D17*
X121910000Y-86400000D03*
D15*
X127130000Y-82200000D03*
D16*
X127410000Y-86400000D03*
D18*
X121910000Y-92300000D03*
X116910000Y-90200000D03*
X126910000Y-90200000D03*
D17*
X139910000Y-93025000D03*
D16*
X145410000Y-93025000D03*
D15*
X145130000Y-88825000D03*
D16*
X134410000Y-93025000D03*
D15*
X134690000Y-88825000D03*
D18*
X139910000Y-98925000D03*
X144910000Y-96825000D03*
X134910000Y-96825000D03*
D16*
X162910000Y-95450000D03*
D15*
X152190000Y-91250000D03*
X162630000Y-91250000D03*
D17*
X157410000Y-95450000D03*
D16*
X151910000Y-95450000D03*
D18*
X157410000Y-101350000D03*
X162410000Y-99250000D03*
X152410000Y-99250000D03*
D16*
X139510000Y-112990000D03*
X128510000Y-112990000D03*
D17*
X134010000Y-112990000D03*
D15*
X128790000Y-117190000D03*
X139230000Y-117190000D03*
D18*
X134010000Y-107090000D03*
X139010000Y-109190000D03*
X129010000Y-109190000D03*
D16*
X148747408Y-114156495D03*
D15*
X158015093Y-120987924D03*
D16*
X159372592Y-117003505D03*
D17*
X154060000Y-115580000D03*
D15*
X147930827Y-118285853D03*
D18*
X155587032Y-109881038D03*
X150213883Y-110615387D03*
X159873142Y-113203577D03*
D15*
X175687307Y-125410653D03*
D17*
X174660000Y-118790000D03*
D16*
X177410000Y-114026860D03*
D15*
X180907307Y-116369347D03*
D16*
X171910000Y-123553140D03*
D18*
X169550450Y-115840000D03*
X173869103Y-112559873D03*
X168869103Y-121220127D03*
D19*
X169620000Y-58870400D03*
X186166400Y-57600400D03*
X186166400Y-60140400D03*
X169620000Y-61410400D03*
X186166400Y-62680400D03*
X169620000Y-63950400D03*
X186166400Y-65220400D03*
X169620000Y-66490400D03*
X169620000Y-69030400D03*
X186166400Y-67760400D03*
X169620000Y-71570400D03*
X186166400Y-70300400D03*
X169620000Y-74110400D03*
X186166400Y-72840400D03*
X169620000Y-76650400D03*
X186166400Y-75380400D03*
X186166400Y-77920400D03*
X169620000Y-79190400D03*
X186166400Y-80460400D03*
X169620000Y-81730400D03*
X186166400Y-83000400D03*
X169620000Y-84270400D03*
X186166400Y-85540400D03*
X169620000Y-86810400D03*
X170946400Y-85540400D03*
X184860000Y-86810400D03*
X170946400Y-83000400D03*
X184860000Y-84270400D03*
X184860000Y-81730400D03*
X170946400Y-80460400D03*
X184860000Y-79190400D03*
X170946400Y-77920400D03*
X184860000Y-76650400D03*
X170946400Y-75380400D03*
X184860000Y-74110400D03*
X170946400Y-72840400D03*
X184860000Y-71570400D03*
X170946400Y-70300400D03*
X170946400Y-67760400D03*
X184860000Y-69030400D03*
X184860000Y-66490400D03*
X170946400Y-65220400D03*
X184860000Y-63950400D03*
X170946400Y-62680400D03*
X170946400Y-60140400D03*
X184860000Y-61410400D03*
X184860000Y-58870400D03*
X170946400Y-57600400D03*
D20*
X179070000Y-87448020D03*
X179070000Y-88448780D03*
D21*
X173930000Y-90608400D03*
X176470000Y-90608400D03*
X179010000Y-90608400D03*
X181550000Y-90608400D03*
D20*
X176470000Y-87468020D03*
X176470000Y-88468780D03*
X173930000Y-87498020D03*
X173930000Y-88498780D03*
X181640000Y-87438420D03*
X181640000Y-88439180D03*
D22*
X186003000Y-93853000D03*
X179503000Y-93853000D03*
D23*
X171323000Y-96901000D03*
X185420000Y-106426000D03*
X95000000Y-66802000D03*
X148971000Y-69850000D03*
X123952000Y-104140000D03*
X167005000Y-110363000D03*
X95000000Y-83820000D03*
M02*
