%FSLAX45Y45*%
G04 Gerber Fmt 4.5, Leading zero omitted, Abs format (unit mm)*
G04 Created by KiCad (PCBNEW 6.99.0-a9ca49a600~144~ubuntu20.04.1) date 2021-12-30 21:08:44*
%MOMM*%
%LPD*%
G01*
G04 APERTURE LIST*
%TA.AperFunction,Profile*%
%ADD10C,0.150000*%
%TD*%
%ADD11C,0.200000*%
%ADD12C,0.040000*%
%ADD13C,0.081280*%
%ADD14C,0.100000*%
%ADD15C,0.127000*%
%ADD16C,0.130000*%
%ADD17C,0.220000*%
G04 APERTURE END LIST*
D10*
X18762000Y-5380500D02*
X16733040Y-5381502D01*
X9451545Y-6202085D02*
X7741920Y-6197600D01*
X17576800Y-13365480D02*
X18821400Y-11201400D01*
X16047720Y-12598400D02*
X17428867Y-13395960D01*
X12537440Y-12124081D02*
X14315440Y-12125960D01*
X16685040Y-5345502D02*
G75*
G03*
X16636050Y-5305500I-48990J-9998D01*
G01*
X16685040Y-5345502D02*
G75*
G03*
X16733040Y-5381502I48000J14000D01*
G01*
X16636050Y-5305500D02*
X14929320Y-5306902D01*
X9451545Y-6202085D02*
G75*
G03*
X9501545Y-6152085I0J50000D01*
G01*
X9551712Y-5000682D02*
G75*
G03*
X9501712Y-5050682I0J-50000D01*
G01*
X13031000Y-4403620D02*
X11353000Y-4404955D01*
X13081000Y-5005340D02*
X13081000Y-4453620D01*
X14829320Y-5056902D02*
X13131000Y-5055340D01*
X14879320Y-5256902D02*
X14879320Y-5106902D01*
X9501712Y-5050682D02*
X9501545Y-6152085D01*
X11254712Y-5000682D02*
X9551712Y-5000682D01*
X11303000Y-4454955D02*
X11304712Y-4950682D01*
X11254712Y-5000682D02*
G75*
G03*
X11304712Y-4950682I0J50000D01*
G01*
X11353000Y-4404955D02*
G75*
G03*
X11303000Y-4454955I0J-50000D01*
G01*
X13081000Y-4453620D02*
G75*
G03*
X13031000Y-4403620I-50000J0D01*
G01*
X13081000Y-5005340D02*
G75*
G03*
X13131000Y-5055340I50000J0D01*
G01*
X14879320Y-5106902D02*
G75*
G03*
X14829320Y-5056902I-50000J0D01*
G01*
X14879320Y-5256902D02*
G75*
G03*
X14929320Y-5306902I50000J0D01*
G01*
X18812000Y-5430500D02*
G75*
G03*
X18762000Y-5380500I-50000J0D01*
G01*
X9545320Y-10086265D02*
X11262360Y-10086265D01*
X9479280Y-11074400D02*
X9484360Y-10147225D01*
X11329486Y-10129488D02*
G75*
G03*
X11262360Y-10086265I-67126J-30512D01*
G01*
X12501880Y-12110720D02*
G75*
G03*
X12537440Y-12124081I35560J40640D01*
G01*
X17428867Y-13395960D02*
G75*
G03*
X17576800Y-13365480I44003J160668D01*
G01*
X7701280Y-9377680D02*
X7701280Y-11074400D01*
X7696200Y-6243320D02*
X7701280Y-7670800D01*
X18812000Y-5430500D02*
X18821400Y-11201400D01*
X9479280Y-11211560D02*
X9479280Y-11074400D01*
X9545320Y-10086265D02*
G75*
G03*
X9484360Y-10147225I0J-60960D01*
G01*
X9413240Y-11277600D02*
G75*
G03*
X9479280Y-11211560I0J66040D01*
G01*
X7701280Y-11211560D02*
X7701280Y-11074400D01*
X7701280Y-7670800D02*
X7701280Y-9377680D01*
X11329486Y-10129488D02*
X12501880Y-12110720D01*
X7741920Y-6197600D02*
G75*
G03*
X7696200Y-6243320I0J-45720D01*
G01*
X7767320Y-11277600D02*
X9413240Y-11277600D01*
X14315440Y-12125960D02*
X16047720Y-12598400D01*
X7701280Y-11211560D02*
G75*
G03*
X7767320Y-11277600I66040J0D01*
G01*
D11*
D12*
X8189280Y-8102920D02*
X8229280Y-8142920D01*
X8229280Y-8102920D02*
X8189280Y-8142920D01*
X8189280Y-9804720D02*
X8229280Y-9844720D01*
X8229280Y-9804720D02*
X8189280Y-9844720D01*
X8199440Y-6411280D02*
X8239440Y-6451280D01*
X8239440Y-6411280D02*
X8199440Y-6451280D01*
X8243500Y-7615000D02*
X8283500Y-7655000D01*
X8283500Y-7615000D02*
X8243500Y-7655000D01*
X8243500Y-9315000D02*
X8283500Y-9355000D01*
X8283500Y-9315000D02*
X8243500Y-9355000D01*
X8243500Y-11015000D02*
X8283500Y-11055000D01*
X8283500Y-11015000D02*
X8243500Y-11055000D01*
X8946200Y-8425500D02*
X8986200Y-8465500D01*
X8986200Y-8425500D02*
X8946200Y-8465500D01*
X8951280Y-8102920D02*
X8991280Y-8142920D01*
X8991280Y-8102920D02*
X8951280Y-8142920D01*
X8951280Y-9804720D02*
X8991280Y-9844720D01*
X8991280Y-9804720D02*
X8951280Y-9844720D01*
X8951720Y-6411280D02*
X8991720Y-6451280D01*
X8991720Y-6411280D02*
X8951720Y-6451280D01*
X9205280Y-9367840D02*
X9245280Y-9407840D01*
X9245280Y-9367840D02*
X9205280Y-9407840D01*
X9367840Y-9840280D02*
X9407840Y-9880280D01*
X9407840Y-9840280D02*
X9367840Y-9880280D01*
X9398500Y-7395000D02*
X9438500Y-7435000D01*
X9438500Y-7395000D02*
X9398500Y-7435000D01*
X9398500Y-9095000D02*
X9438500Y-9135000D01*
X9438500Y-9095000D02*
X9398500Y-9135000D01*
X9398500Y-10795000D02*
X9438500Y-10835000D01*
X9438500Y-10795000D02*
X9398500Y-10835000D01*
X9438960Y-9357680D02*
X9478960Y-9397680D01*
X9478960Y-9357680D02*
X9438960Y-9397680D01*
X9987600Y-6914200D02*
X10027600Y-6954200D01*
X10027600Y-6914200D02*
X9987600Y-6954200D01*
X9997760Y-8610920D02*
X10037760Y-8650920D01*
X10037760Y-8610920D02*
X9997760Y-8650920D01*
X10007920Y-5207320D02*
X10047920Y-5247320D01*
X10047920Y-5207320D02*
X10007920Y-5247320D01*
X10043500Y-6415000D02*
X10083500Y-6455000D01*
X10083500Y-6415000D02*
X10043500Y-6455000D01*
X10043500Y-8115000D02*
X10083500Y-8155000D01*
X10083500Y-8115000D02*
X10043500Y-8155000D01*
X10043500Y-9815000D02*
X10083500Y-9855000D01*
X10083500Y-9815000D02*
X10043500Y-9855000D01*
X10749600Y-6914200D02*
X10789600Y-6954200D01*
X10789600Y-6914200D02*
X10749600Y-6954200D01*
X10759760Y-8610920D02*
X10799760Y-8650920D01*
X10799760Y-8610920D02*
X10759760Y-8650920D01*
X10769920Y-5207320D02*
X10809920Y-5247320D01*
X10809920Y-5207320D02*
X10769920Y-5247320D01*
X11095040Y-5217480D02*
X11135040Y-5257480D01*
X11135040Y-5217480D02*
X11095040Y-5257480D01*
X11110280Y-8641400D02*
X11150280Y-8681400D01*
X11150280Y-8641400D02*
X11110280Y-8681400D01*
X11156000Y-7000560D02*
X11196000Y-7040560D01*
X11196000Y-7000560D02*
X11156000Y-7040560D01*
X11198500Y-6195000D02*
X11238500Y-6235000D01*
X11238500Y-6195000D02*
X11198500Y-6235000D01*
X11198500Y-7895000D02*
X11238500Y-7935000D01*
X11238500Y-7895000D02*
X11198500Y-7935000D01*
X11198500Y-9595000D02*
X11238500Y-9635000D01*
X11238500Y-9595000D02*
X11198500Y-9635000D01*
X11796080Y-6314760D02*
X11836080Y-6354760D01*
X11836080Y-6314760D02*
X11796080Y-6354760D01*
X11796080Y-8011480D02*
X11836080Y-8051480D01*
X11836080Y-8011480D02*
X11796080Y-8051480D01*
X11806240Y-4604760D02*
X11846240Y-4644760D01*
X11846240Y-4604760D02*
X11806240Y-4644760D01*
X11828000Y-9613450D02*
X11868000Y-9653450D01*
X11868000Y-9613450D02*
X11828000Y-9653450D01*
X11843500Y-5815000D02*
X11883500Y-5855000D01*
X11883500Y-5815000D02*
X11843500Y-5855000D01*
X11843500Y-7515000D02*
X11883500Y-7555000D01*
X11883500Y-7515000D02*
X11843500Y-7555000D01*
X11843500Y-9215000D02*
X11883500Y-9255000D01*
X11883500Y-9215000D02*
X11843500Y-9255000D01*
X12156760Y-6523040D02*
X12196760Y-6563040D01*
X12196760Y-6523040D02*
X12156760Y-6563040D01*
X12553500Y-10904000D02*
X12593500Y-10944000D01*
X12593500Y-10904000D02*
X12553500Y-10944000D01*
X12558080Y-8011480D02*
X12598080Y-8051480D01*
X12598080Y-8011480D02*
X12558080Y-8051480D01*
X12561240Y-6314760D02*
X12601240Y-6354760D01*
X12601240Y-6314760D02*
X12561240Y-6354760D01*
X12564200Y-4602800D02*
X12604200Y-4642800D01*
X12604200Y-4602800D02*
X12564200Y-4642800D01*
X12888280Y-8067360D02*
X12928280Y-8107360D01*
X12928280Y-8067360D02*
X12888280Y-8107360D01*
X12918760Y-4612960D02*
X12958760Y-4652960D01*
X12958760Y-4612960D02*
X12918760Y-4652960D01*
X12928920Y-6345240D02*
X12968920Y-6385240D01*
X12968920Y-6345240D02*
X12928920Y-6385240D01*
X12996480Y-11887520D02*
X13036480Y-11927520D01*
X13036480Y-11887520D02*
X12996480Y-11927520D01*
X12998500Y-5595000D02*
X13038500Y-5635000D01*
X13038500Y-5595000D02*
X12998500Y-5635000D01*
X12998500Y-7295000D02*
X13038500Y-7335000D01*
X13038500Y-7295000D02*
X12998500Y-7335000D01*
X12998500Y-8995000D02*
X13038500Y-9035000D01*
X13038500Y-8995000D02*
X12998500Y-9035000D01*
X13592660Y-6968340D02*
X13632660Y-7008340D01*
X13632660Y-6968340D02*
X13592660Y-7008340D01*
X13599480Y-5308920D02*
X13639480Y-5348920D01*
X13639480Y-5308920D02*
X13599480Y-5348920D01*
X13605040Y-8676960D02*
X13645040Y-8716960D01*
X13645040Y-8676960D02*
X13605040Y-8716960D01*
X13643500Y-6477000D02*
X13683500Y-6517000D01*
X13683500Y-6477000D02*
X13643500Y-6517000D01*
X13643500Y-8177000D02*
X13683500Y-8217000D01*
X13683500Y-8177000D02*
X13643500Y-8217000D01*
X13643500Y-9877500D02*
X13683500Y-9917500D01*
X13683500Y-9877500D02*
X13643500Y-9917500D01*
X13756960Y-11887520D02*
X13796960Y-11927520D01*
X13796960Y-11887520D02*
X13756960Y-11927520D01*
X13833160Y-7254560D02*
X13873160Y-7294560D01*
X13873160Y-7254560D02*
X13833160Y-7294560D01*
X14352920Y-6970080D02*
X14392920Y-7010080D01*
X14392920Y-6970080D02*
X14352920Y-7010080D01*
X14361480Y-5308920D02*
X14401480Y-5348920D01*
X14401480Y-5308920D02*
X14361480Y-5348920D01*
X14372040Y-8676960D02*
X14412040Y-8716960D01*
X14412040Y-8676960D02*
X14372040Y-8716960D01*
X14701840Y-10079040D02*
X14741840Y-10119040D01*
X14741840Y-10079040D02*
X14701840Y-10119040D01*
X14778040Y-10754680D02*
X14818040Y-10794680D01*
X14818040Y-10754680D02*
X14778040Y-10794680D01*
X14783120Y-5324160D02*
X14823120Y-5364160D01*
X14823120Y-5324160D02*
X14783120Y-5364160D01*
X14793280Y-8687120D02*
X14833280Y-8727120D01*
X14833280Y-8687120D02*
X14793280Y-8727120D01*
X14798500Y-6257000D02*
X14838500Y-6297000D01*
X14838500Y-6257000D02*
X14798500Y-6297000D01*
X14798500Y-7957000D02*
X14838500Y-7997000D01*
X14838500Y-7957000D02*
X14798500Y-7997000D01*
X14798500Y-9657500D02*
X14838500Y-9697500D01*
X14838500Y-9657500D02*
X14798500Y-9697500D01*
X14861480Y-12025519D02*
X14901480Y-12065519D01*
X14901480Y-12025519D02*
X14861480Y-12065519D01*
X15397800Y-5522280D02*
X15437800Y-5562280D01*
X15437800Y-5522280D02*
X15397800Y-5562280D01*
X15406280Y-8915720D02*
X15446280Y-8955720D01*
X15446280Y-8915720D02*
X15406280Y-8955720D01*
X15428280Y-7229160D02*
X15468280Y-7269160D01*
X15468280Y-7229160D02*
X15428280Y-7269160D01*
X15443500Y-6715000D02*
X15483500Y-6755000D01*
X15483500Y-6715000D02*
X15443500Y-6755000D01*
X15443500Y-8415000D02*
X15483500Y-8455000D01*
X15483500Y-8415000D02*
X15443500Y-8455000D01*
X15443500Y-10115000D02*
X15483500Y-10155000D01*
X15483500Y-10115000D02*
X15443500Y-10155000D01*
X15599446Y-12224670D02*
X15639446Y-12264670D01*
X15639446Y-12224670D02*
X15599446Y-12264670D01*
X15705140Y-11509060D02*
X15745140Y-11549060D01*
X15745140Y-11509060D02*
X15705140Y-11549060D01*
X16159800Y-5522280D02*
X16199800Y-5562280D01*
X16199800Y-5522280D02*
X16159800Y-5562280D01*
X16169960Y-8915720D02*
X16209960Y-8955720D01*
X16209960Y-8915720D02*
X16169960Y-8955720D01*
X16190280Y-7229160D02*
X16230280Y-7269160D01*
X16230280Y-7229160D02*
X16190280Y-7269160D01*
X16571280Y-8920800D02*
X16611280Y-8960800D01*
X16611280Y-8920800D02*
X16571280Y-8960800D01*
X16591600Y-5532440D02*
X16631600Y-5572440D01*
X16631600Y-5532440D02*
X16591600Y-5572440D01*
X16591600Y-7366320D02*
X16631600Y-7406320D01*
X16631600Y-7366320D02*
X16591600Y-7406320D01*
X16598500Y-6495000D02*
X16638500Y-6535000D01*
X16638500Y-6495000D02*
X16598500Y-6535000D01*
X16598500Y-8195000D02*
X16638500Y-8235000D01*
X16638500Y-8195000D02*
X16598500Y-8235000D01*
X16598500Y-9895000D02*
X16638500Y-9935000D01*
X16638500Y-9895000D02*
X16598500Y-9935000D01*
X16663000Y-10429560D02*
X16703000Y-10469560D01*
X16703000Y-10429560D02*
X16663000Y-10469560D01*
X16703360Y-7046280D02*
X16743360Y-7086280D01*
X16743360Y-7046280D02*
X16703360Y-7086280D01*
X16769400Y-5631500D02*
X16809400Y-5671500D01*
X16809400Y-5631500D02*
X16769400Y-5671500D01*
X16777000Y-10428000D02*
X16817000Y-10468000D01*
X16817000Y-10428000D02*
X16777000Y-10468000D01*
X17094465Y-11277877D02*
X17134465Y-11317877D01*
X17134465Y-11277877D02*
X17094465Y-11317877D01*
X17170720Y-9225600D02*
X17210720Y-9265600D01*
X17210720Y-9225600D02*
X17170720Y-9265600D01*
X17265549Y-7899040D02*
X17305549Y-7939040D01*
X17305549Y-7899040D02*
X17265549Y-7939040D01*
X17466630Y-11459530D02*
X17506630Y-11499530D01*
X17506630Y-11459530D02*
X17466630Y-11499530D01*
X17760000Y-6883040D02*
X17800000Y-6923040D01*
X17800000Y-6883040D02*
X17760000Y-6923040D01*
X17760000Y-7137040D02*
X17800000Y-7177040D01*
X17800000Y-7137040D02*
X17760000Y-7177040D01*
X17760000Y-7391040D02*
X17800000Y-7431040D01*
X17800000Y-7391040D02*
X17760000Y-7431040D01*
X17760000Y-7645040D02*
X17800000Y-7685040D01*
X17800000Y-7645040D02*
X17760000Y-7685040D01*
X17760000Y-7899040D02*
X17800000Y-7939040D01*
X17800000Y-7899040D02*
X17760000Y-7939040D01*
X17760000Y-8153040D02*
X17800000Y-8193040D01*
X17800000Y-8153040D02*
X17760000Y-8193040D01*
X17760000Y-8406840D02*
X17800000Y-8446840D01*
X17800000Y-8406840D02*
X17760000Y-8446840D01*
X17785317Y-12495683D02*
X17825317Y-12535683D01*
X17825317Y-12495683D02*
X17785317Y-12535683D01*
X17963200Y-7005640D02*
X18003200Y-7045640D01*
X18003200Y-7005640D02*
X17963200Y-7045640D01*
X17963200Y-7259640D02*
X18003200Y-7299640D01*
X18003200Y-7259640D02*
X17963200Y-7299640D01*
X17963200Y-7513640D02*
X18003200Y-7553640D01*
X18003200Y-7513640D02*
X17963200Y-7553640D01*
X17963200Y-7767640D02*
X18003200Y-7807640D01*
X18003200Y-7767640D02*
X17963200Y-7807640D01*
X17975900Y-8021640D02*
X18015900Y-8061640D01*
X18015900Y-8021640D02*
X17975900Y-8061640D01*
X17975900Y-8275640D02*
X18015900Y-8315640D01*
X18015900Y-8275640D02*
X17975900Y-8315640D01*
X17988600Y-8527100D02*
X18028600Y-8567100D01*
X18028600Y-8527100D02*
X17988600Y-8567100D01*
X18166317Y-11841683D02*
X18206317Y-11881683D01*
X18206317Y-11841683D02*
X18166317Y-11881683D01*
X18283240Y-8133400D02*
X18323240Y-8173400D01*
X18323240Y-8133400D02*
X18283240Y-8173400D01*
X18344200Y-9098600D02*
X18384200Y-9138600D01*
X18384200Y-9098600D02*
X18344200Y-9138600D01*
X18522000Y-8908100D02*
X18562000Y-8948100D01*
X18562000Y-8908100D02*
X18522000Y-8948100D01*
D13*
X17002640Y-5887040D02*
G75*
G03*
X17002640Y-5887040I-40640J0D01*
G01*
X17002640Y-6141040D02*
G75*
G03*
X17002640Y-6141040I-40640J0D01*
G01*
X17002640Y-6395040D02*
G75*
G03*
X17002640Y-6395040I-40640J0D01*
G01*
X17002640Y-6649040D02*
G75*
G03*
X17002640Y-6649040I-40640J0D01*
G01*
X17002640Y-6903040D02*
G75*
G03*
X17002640Y-6903040I-40640J0D01*
G01*
X17002640Y-7157040D02*
G75*
G03*
X17002640Y-7157040I-40640J0D01*
G01*
X17002640Y-7411040D02*
G75*
G03*
X17002640Y-7411040I-40640J0D01*
G01*
X17002640Y-7665040D02*
G75*
G03*
X17002640Y-7665040I-40640J0D01*
G01*
X17002640Y-7919040D02*
G75*
G03*
X17002640Y-7919040I-40640J0D01*
G01*
X17002640Y-8173040D02*
G75*
G03*
X17002640Y-8173040I-40640J0D01*
G01*
X17002640Y-8427040D02*
G75*
G03*
X17002640Y-8427040I-40640J0D01*
G01*
X17002640Y-8681040D02*
G75*
G03*
X17002640Y-8681040I-40640J0D01*
G01*
X17135280Y-5760040D02*
G75*
G03*
X17135280Y-5760040I-40640J0D01*
G01*
X17135280Y-6014040D02*
G75*
G03*
X17135280Y-6014040I-40640J0D01*
G01*
X17135280Y-6268040D02*
G75*
G03*
X17135280Y-6268040I-40640J0D01*
G01*
X17135280Y-6522040D02*
G75*
G03*
X17135280Y-6522040I-40640J0D01*
G01*
X17135280Y-6776040D02*
G75*
G03*
X17135280Y-6776040I-40640J0D01*
G01*
X17135280Y-7030040D02*
G75*
G03*
X17135280Y-7030040I-40640J0D01*
G01*
X17135280Y-7284040D02*
G75*
G03*
X17135280Y-7284040I-40640J0D01*
G01*
X17135280Y-7538040D02*
G75*
G03*
X17135280Y-7538040I-40640J0D01*
G01*
X17135280Y-7792040D02*
G75*
G03*
X17135280Y-7792040I-40640J0D01*
G01*
X17135280Y-8046040D02*
G75*
G03*
X17135280Y-8046040I-40640J0D01*
G01*
X17135280Y-8300040D02*
G75*
G03*
X17135280Y-8300040I-40640J0D01*
G01*
X17135280Y-8554040D02*
G75*
G03*
X17135280Y-8554040I-40640J0D01*
G01*
X17433640Y-9060840D02*
G75*
G03*
X17433640Y-9060840I-40640J0D01*
G01*
X17687640Y-9060840D02*
G75*
G03*
X17687640Y-9060840I-40640J0D01*
G01*
X17941640Y-9060840D02*
G75*
G03*
X17941640Y-9060840I-40640J0D01*
G01*
X18195640Y-9060840D02*
G75*
G03*
X18195640Y-9060840I-40640J0D01*
G01*
X18526640Y-5887040D02*
G75*
G03*
X18526640Y-5887040I-40640J0D01*
G01*
X18526640Y-6141040D02*
G75*
G03*
X18526640Y-6141040I-40640J0D01*
G01*
X18526640Y-6395040D02*
G75*
G03*
X18526640Y-6395040I-40640J0D01*
G01*
X18526640Y-6649040D02*
G75*
G03*
X18526640Y-6649040I-40640J0D01*
G01*
X18526640Y-6903040D02*
G75*
G03*
X18526640Y-6903040I-40640J0D01*
G01*
X18526640Y-7157040D02*
G75*
G03*
X18526640Y-7157040I-40640J0D01*
G01*
X18526640Y-7411040D02*
G75*
G03*
X18526640Y-7411040I-40640J0D01*
G01*
X18526640Y-7665040D02*
G75*
G03*
X18526640Y-7665040I-40640J0D01*
G01*
X18526640Y-7919040D02*
G75*
G03*
X18526640Y-7919040I-40640J0D01*
G01*
X18526640Y-8173040D02*
G75*
G03*
X18526640Y-8173040I-40640J0D01*
G01*
X18526640Y-8427040D02*
G75*
G03*
X18526640Y-8427040I-40640J0D01*
G01*
X18526640Y-8681040D02*
G75*
G03*
X18526640Y-8681040I-40640J0D01*
G01*
X18657280Y-5760040D02*
G75*
G03*
X18657280Y-5760040I-40640J0D01*
G01*
X18657280Y-6014040D02*
G75*
G03*
X18657280Y-6014040I-40640J0D01*
G01*
X18657280Y-6268040D02*
G75*
G03*
X18657280Y-6268040I-40640J0D01*
G01*
X18657280Y-6522040D02*
G75*
G03*
X18657280Y-6522040I-40640J0D01*
G01*
X18657280Y-6776040D02*
G75*
G03*
X18657280Y-6776040I-40640J0D01*
G01*
X18657280Y-7030040D02*
G75*
G03*
X18657280Y-7030040I-40640J0D01*
G01*
X18657280Y-7284040D02*
G75*
G03*
X18657280Y-7284040I-40640J0D01*
G01*
X18657280Y-7538040D02*
G75*
G03*
X18657280Y-7538040I-40640J0D01*
G01*
X18657280Y-7792040D02*
G75*
G03*
X18657280Y-7792040I-40640J0D01*
G01*
X18657280Y-8046040D02*
G75*
G03*
X18657280Y-8046040I-40640J0D01*
G01*
X18657280Y-8300040D02*
G75*
G03*
X18657280Y-8300040I-40640J0D01*
G01*
X18657280Y-8554040D02*
G75*
G03*
X18657280Y-8554040I-40640J0D01*
G01*
D14*
X17616000Y-9811100D02*
X17616000Y-9911100D01*
X17566000Y-9861100D02*
X17666000Y-9861100D01*
D11*
X17641000Y-9821100D02*
X17591000Y-9821100D01*
X17641000Y-9901100D02*
X17591000Y-9901100D01*
X17591000Y-9821100D02*
G75*
G03*
X17591000Y-9901100I0J-40000D01*
G01*
X17641000Y-9901100D02*
G75*
G03*
X17641000Y-9821100I0J40000D01*
G01*
D14*
X17616000Y-10056100D02*
X17616000Y-10156100D01*
X17566000Y-10106100D02*
X17666000Y-10106100D01*
D11*
X17641000Y-10066100D02*
X17591000Y-10066100D01*
X17641000Y-10146100D02*
X17591000Y-10146100D01*
X17591000Y-10066100D02*
G75*
G03*
X17591000Y-10146100I0J-40000D01*
G01*
X17641000Y-10146100D02*
G75*
G03*
X17641000Y-10066100I0J40000D01*
G01*
D14*
X17766000Y-9636100D02*
X17766000Y-9736100D01*
X17716000Y-9686100D02*
X17816000Y-9686100D01*
D11*
X17791000Y-9646100D02*
X17741000Y-9646100D01*
X17791000Y-9726100D02*
X17741000Y-9726100D01*
X17741000Y-9646100D02*
G75*
G03*
X17741000Y-9726100I0J-40000D01*
G01*
X17791000Y-9726100D02*
G75*
G03*
X17791000Y-9646100I0J40000D01*
G01*
D14*
X17766000Y-10231100D02*
X17766000Y-10331100D01*
X17716000Y-10281100D02*
X17816000Y-10281100D01*
D11*
X17791000Y-10241100D02*
X17741000Y-10241100D01*
X17791000Y-10321100D02*
X17741000Y-10321100D01*
X17741000Y-10241100D02*
G75*
G03*
X17741000Y-10321100I0J-40000D01*
G01*
X17791000Y-10321100D02*
G75*
G03*
X17791000Y-10241100I0J40000D01*
G01*
D14*
X18166000Y-9636100D02*
X18166000Y-9736100D01*
X18116000Y-9686100D02*
X18216000Y-9686100D01*
D11*
X18191000Y-9646100D02*
X18141000Y-9646100D01*
X18191000Y-9726100D02*
X18141000Y-9726100D01*
X18141000Y-9646100D02*
G75*
G03*
X18141000Y-9726100I0J-40000D01*
G01*
X18191000Y-9726100D02*
G75*
G03*
X18191000Y-9646100I0J40000D01*
G01*
D14*
X18166000Y-10231100D02*
X18166000Y-10331100D01*
X18116000Y-10281100D02*
X18216000Y-10281100D01*
D11*
X18191000Y-10241100D02*
X18141000Y-10241100D01*
X18191000Y-10321100D02*
X18141000Y-10321100D01*
X18141000Y-10241100D02*
G75*
G03*
X18141000Y-10321100I0J-40000D01*
G01*
X18191000Y-10321100D02*
G75*
G03*
X18191000Y-10241100I0J40000D01*
G01*
D14*
X18466000Y-9636100D02*
X18466000Y-9736100D01*
X18416000Y-9686100D02*
X18516000Y-9686100D01*
D11*
X18491000Y-9646100D02*
X18441000Y-9646100D01*
X18491000Y-9726100D02*
X18441000Y-9726100D01*
X18441000Y-9646100D02*
G75*
G03*
X18441000Y-9726100I0J-40000D01*
G01*
X18491000Y-9726100D02*
G75*
G03*
X18491000Y-9646100I0J40000D01*
G01*
D14*
X18466000Y-10231100D02*
X18466000Y-10331100D01*
X18416000Y-10281100D02*
X18516000Y-10281100D01*
D11*
X18491000Y-10241100D02*
X18441000Y-10241100D01*
X18491000Y-10321100D02*
X18441000Y-10321100D01*
X18441000Y-10241100D02*
G75*
G03*
X18441000Y-10321100I0J-40000D01*
G01*
X18491000Y-10321100D02*
G75*
G03*
X18491000Y-10241100I0J40000D01*
G01*
D15*
X8135902Y-7464902D02*
X8135902Y-7375098D01*
X8046098Y-7375098D01*
X8046098Y-7464902D01*
X8135902Y-7464902D01*
X8135902Y-9164902D02*
X8135902Y-9075098D01*
X8046098Y-9075098D01*
X8046098Y-9164902D01*
X8135902Y-9164902D01*
X8135902Y-10864902D02*
X8135902Y-10775098D01*
X8046098Y-10775098D01*
X8046098Y-10864902D01*
X8135902Y-10864902D01*
X8635902Y-7674902D02*
X8635902Y-7585098D01*
X8546098Y-7585098D01*
X8546098Y-7674902D01*
X8635902Y-7674902D01*
X8635902Y-9374902D02*
X8635902Y-9285098D01*
X8546098Y-9285098D01*
X8546098Y-9374902D01*
X8635902Y-9374902D01*
X8635902Y-11074902D02*
X8635902Y-10985098D01*
X8546098Y-10985098D01*
X8546098Y-11074902D01*
X8635902Y-11074902D01*
X9135902Y-7464902D02*
X9135902Y-7375098D01*
X9046098Y-7375098D01*
X9046098Y-7464902D01*
X9135902Y-7464902D01*
X9135902Y-9164902D02*
X9135902Y-9075098D01*
X9046098Y-9075098D01*
X9046098Y-9164902D01*
X9135902Y-9164902D01*
X9135902Y-10864902D02*
X9135902Y-10775098D01*
X9046098Y-10775098D01*
X9046098Y-10864902D01*
X9135902Y-10864902D01*
X9935902Y-6264902D02*
X9935902Y-6175098D01*
X9846098Y-6175098D01*
X9846098Y-6264902D01*
X9935902Y-6264902D01*
X9935902Y-7964902D02*
X9935902Y-7875098D01*
X9846098Y-7875098D01*
X9846098Y-7964902D01*
X9935902Y-7964902D01*
X9935902Y-9664902D02*
X9935902Y-9575098D01*
X9846098Y-9575098D01*
X9846098Y-9664902D01*
X9935902Y-9664902D01*
X10435902Y-6474902D02*
X10435902Y-6385098D01*
X10346098Y-6385098D01*
X10346098Y-6474902D01*
X10435902Y-6474902D01*
X10435902Y-8174902D02*
X10435902Y-8085098D01*
X10346098Y-8085098D01*
X10346098Y-8174902D01*
X10435902Y-8174902D01*
X10435902Y-9874902D02*
X10435902Y-9785098D01*
X10346098Y-9785098D01*
X10346098Y-9874902D01*
X10435902Y-9874902D01*
X10935902Y-6264902D02*
X10935902Y-6175098D01*
X10846098Y-6175098D01*
X10846098Y-6264902D01*
X10935902Y-6264902D01*
X10935902Y-7964902D02*
X10935902Y-7875098D01*
X10846098Y-7875098D01*
X10846098Y-7964902D01*
X10935902Y-7964902D01*
X10935902Y-9664902D02*
X10935902Y-9575098D01*
X10846098Y-9575098D01*
X10846098Y-9664902D01*
X10935902Y-9664902D01*
X11735902Y-5664902D02*
X11735902Y-5575098D01*
X11646098Y-5575098D01*
X11646098Y-5664902D01*
X11735902Y-5664902D01*
X11735902Y-7364902D02*
X11735902Y-7275098D01*
X11646098Y-7275098D01*
X11646098Y-7364902D01*
X11735902Y-7364902D01*
X11735902Y-9064902D02*
X11735902Y-8975098D01*
X11646098Y-8975098D01*
X11646098Y-9064902D01*
X11735902Y-9064902D01*
X12235902Y-5874902D02*
X12235902Y-5785098D01*
X12146098Y-5785098D01*
X12146098Y-5874902D01*
X12235902Y-5874902D01*
X12235902Y-7574902D02*
X12235902Y-7485098D01*
X12146098Y-7485098D01*
X12146098Y-7574902D01*
X12235902Y-7574902D01*
X12235902Y-9274902D02*
X12235902Y-9185098D01*
X12146098Y-9185098D01*
X12146098Y-9274902D01*
X12235902Y-9274902D01*
X12735902Y-5664902D02*
X12735902Y-5575098D01*
X12646098Y-5575098D01*
X12646098Y-5664902D01*
X12735902Y-5664902D01*
X12735902Y-7364902D02*
X12735902Y-7275098D01*
X12646098Y-7275098D01*
X12646098Y-7364902D01*
X12735902Y-7364902D01*
X12735902Y-9064902D02*
X12735902Y-8975098D01*
X12646098Y-8975098D01*
X12646098Y-9064902D01*
X12735902Y-9064902D01*
X12945902Y-10963902D02*
X12945902Y-10874098D01*
X12856098Y-10874098D01*
X12856098Y-10963902D01*
X12945902Y-10963902D01*
X13445902Y-10753902D02*
X13445902Y-10664098D01*
X13356098Y-10664098D01*
X13356098Y-10753902D01*
X13445902Y-10753902D01*
X13535902Y-6326902D02*
X13535902Y-6237098D01*
X13446098Y-6237098D01*
X13446098Y-6326902D01*
X13535902Y-6326902D01*
X13535902Y-8026902D02*
X13535902Y-7937098D01*
X13446098Y-7937098D01*
X13446098Y-8026902D01*
X13535902Y-8026902D01*
X13535902Y-9727402D02*
X13535902Y-9637598D01*
X13446098Y-9637598D01*
X13446098Y-9727402D01*
X13535902Y-9727402D01*
X13945902Y-10963902D02*
X13945902Y-10874098D01*
X13856098Y-10874098D01*
X13856098Y-10963902D01*
X13945902Y-10963902D01*
X14035902Y-6536902D02*
X14035902Y-6447098D01*
X13946098Y-6447098D01*
X13946098Y-6536902D01*
X14035902Y-6536902D01*
X14035902Y-8236902D02*
X14035902Y-8147098D01*
X13946098Y-8147098D01*
X13946098Y-8236902D01*
X14035902Y-8236902D01*
X14035902Y-9937402D02*
X14035902Y-9847598D01*
X13946098Y-9847598D01*
X13946098Y-9937402D01*
X14035902Y-9937402D01*
X14535902Y-6326902D02*
X14535902Y-6237098D01*
X14446098Y-6237098D01*
X14446098Y-6326902D01*
X14535902Y-6326902D01*
X14535902Y-8026902D02*
X14535902Y-7937098D01*
X14446098Y-7937098D01*
X14446098Y-8026902D01*
X14535902Y-8026902D01*
X14535902Y-9727402D02*
X14535902Y-9637598D01*
X14446098Y-9637598D01*
X14446098Y-9727402D01*
X14535902Y-9727402D01*
X15066290Y-11106440D02*
X15066290Y-11016637D01*
X14976487Y-11016637D01*
X14976487Y-11106440D01*
X15066290Y-11106440D01*
X15285902Y-9969902D02*
X15285902Y-9880098D01*
X15196098Y-9880098D01*
X15196098Y-9969902D01*
X15285902Y-9969902D01*
X15335902Y-6564902D02*
X15335902Y-6475098D01*
X15246098Y-6475098D01*
X15246098Y-6564902D01*
X15335902Y-6564902D01*
X15335902Y-8264902D02*
X15335902Y-8175098D01*
X15246098Y-8175098D01*
X15246098Y-8264902D01*
X15335902Y-8264902D01*
X15603605Y-11033006D02*
X15603605Y-10943202D01*
X15513801Y-10943202D01*
X15513801Y-11033006D01*
X15603605Y-11033006D01*
X15785902Y-10179902D02*
X15785902Y-10090098D01*
X15696098Y-10090098D01*
X15696098Y-10179902D01*
X15785902Y-10179902D01*
X15835902Y-6774902D02*
X15835902Y-6685098D01*
X15746098Y-6685098D01*
X15746098Y-6774902D01*
X15835902Y-6774902D01*
X15835902Y-8474902D02*
X15835902Y-8385098D01*
X15746098Y-8385098D01*
X15746098Y-8474902D01*
X15835902Y-8474902D01*
X16032216Y-11365259D02*
X16032216Y-11275456D01*
X15942412Y-11275456D01*
X15942412Y-11365259D01*
X16032216Y-11365259D01*
X16285902Y-9969902D02*
X16285902Y-9880098D01*
X16196098Y-9880098D01*
X16196098Y-9969902D01*
X16285902Y-9969902D01*
X16335902Y-6564902D02*
X16335902Y-6475098D01*
X16246098Y-6475098D01*
X16246098Y-6564902D01*
X16335902Y-6564902D01*
X16335902Y-8264902D02*
X16335902Y-8175098D01*
X16246098Y-8175098D01*
X16246098Y-8264902D01*
X16335902Y-8264902D01*
X16931812Y-12166914D02*
X16931812Y-12077111D01*
X16842009Y-12077111D01*
X16842009Y-12166914D01*
X16931812Y-12166914D01*
X16999947Y-11628902D02*
X16999947Y-11539098D01*
X16910143Y-11539098D01*
X16910143Y-11628902D01*
X16999947Y-11628902D01*
X17431812Y-11300889D02*
X17431812Y-11211086D01*
X17342009Y-11211086D01*
X17342009Y-11300889D01*
X17431812Y-11300889D01*
D16*
X17950300Y-9450300D02*
X18015300Y-9385300D01*
X17950300Y-9320300D01*
X17885300Y-9385300D01*
X17950300Y-9450300D01*
X18600300Y-9450300D02*
X18665300Y-9385300D01*
X18600300Y-9320300D01*
X18535300Y-9385300D01*
X18600300Y-9450300D01*
D17*
X9390000Y-6570200D02*
X9610000Y-6790200D01*
X9610000Y-6570200D02*
X9390000Y-6790200D01*
X9610000Y-6680200D02*
G75*
G03*
X9610000Y-6680200I-110000J0D01*
G01*
X9390000Y-8272000D02*
X9610000Y-8492000D01*
X9610000Y-8272000D02*
X9390000Y-8492000D01*
X9610000Y-8382000D02*
G75*
G03*
X9610000Y-8382000I-110000J0D01*
G01*
X12285200Y-10304000D02*
X12505200Y-10524000D01*
X12505200Y-10304000D02*
X12285200Y-10524000D01*
X12505200Y-10414000D02*
G75*
G03*
X12505200Y-10414000I-110000J0D01*
G01*
X14787100Y-6875000D02*
X15007100Y-7095000D01*
X15007100Y-6875000D02*
X14787100Y-7095000D01*
X15007100Y-6985000D02*
G75*
G03*
X15007100Y-6985000I-110000J0D01*
G01*
X16590500Y-10926300D02*
X16810500Y-11146300D01*
X16810500Y-10926300D02*
X16590500Y-11146300D01*
X16810500Y-11036300D02*
G75*
G03*
X16810500Y-11036300I-110000J0D01*
G01*
X17022300Y-9580100D02*
X17242300Y-9800100D01*
X17242300Y-9580100D02*
X17022300Y-9800100D01*
X17242300Y-9690100D02*
G75*
G03*
X17242300Y-9690100I-110000J0D01*
G01*
X18432000Y-10532600D02*
X18652000Y-10752600D01*
X18652000Y-10532600D02*
X18432000Y-10752600D01*
X18652000Y-10642600D02*
G75*
G03*
X18652000Y-10642600I-110000J0D01*
G01*
D11*
X7946319Y-13719853D02*
X7946319Y-13519853D01*
X7993938Y-13519853D01*
X8022509Y-13529377D01*
X8041557Y-13548424D01*
X8051081Y-13567472D01*
X8060605Y-13605567D01*
X8060605Y-13634138D01*
X8051081Y-13672234D01*
X8041557Y-13691281D01*
X8022509Y-13710329D01*
X7993938Y-13719853D01*
X7946319Y-13719853D01*
X8146319Y-13719853D02*
X8146319Y-13586519D01*
X8146319Y-13624615D02*
X8155843Y-13605567D01*
X8165367Y-13596043D01*
X8184414Y-13586519D01*
X8203462Y-13586519D01*
X8270128Y-13719853D02*
X8270128Y-13586519D01*
X8270128Y-13519853D02*
X8260605Y-13529377D01*
X8270128Y-13538900D01*
X8279652Y-13529377D01*
X8270128Y-13519853D01*
X8270128Y-13538900D01*
X8393938Y-13719853D02*
X8374890Y-13710329D01*
X8365367Y-13691281D01*
X8365367Y-13519853D01*
X8498700Y-13719853D02*
X8479652Y-13710329D01*
X8470129Y-13691281D01*
X8470129Y-13519853D01*
X8727271Y-13719853D02*
X8727271Y-13519853D01*
X8793938Y-13662710D01*
X8860605Y-13519853D01*
X8860605Y-13719853D01*
X9041557Y-13719853D02*
X9041557Y-13615091D01*
X9032033Y-13596043D01*
X9012986Y-13586519D01*
X8974890Y-13586519D01*
X8955843Y-13596043D01*
X9041557Y-13710329D02*
X9022510Y-13719853D01*
X8974890Y-13719853D01*
X8955843Y-13710329D01*
X8946319Y-13691281D01*
X8946319Y-13672234D01*
X8955843Y-13653186D01*
X8974890Y-13643662D01*
X9022510Y-13643662D01*
X9041557Y-13634138D01*
X9136795Y-13586519D02*
X9136795Y-13786519D01*
X9136795Y-13596043D02*
X9155843Y-13586519D01*
X9193938Y-13586519D01*
X9212986Y-13596043D01*
X9222510Y-13605567D01*
X9232033Y-13624615D01*
X9232033Y-13681757D01*
X9222510Y-13700805D01*
X9212986Y-13710329D01*
X9193938Y-13719853D01*
X9155843Y-13719853D01*
X9136795Y-13710329D01*
X9317748Y-13700805D02*
X9327271Y-13710329D01*
X9317748Y-13719853D01*
X9308224Y-13710329D01*
X9317748Y-13700805D01*
X9317748Y-13719853D01*
X9317748Y-13596043D02*
X9327271Y-13605567D01*
X9317748Y-13615091D01*
X9308224Y-13605567D01*
X9317748Y-13596043D01*
X9317748Y-13615091D01*
D12*
X7648700Y-14029377D02*
X7688700Y-14069377D01*
X7688700Y-14029377D02*
X7648700Y-14069377D01*
D11*
X7984414Y-13939853D02*
X8003462Y-13939853D01*
X8022509Y-13949377D01*
X8032033Y-13958900D01*
X8041557Y-13977948D01*
X8051081Y-14016043D01*
X8051081Y-14063662D01*
X8041557Y-14101757D01*
X8032033Y-14120805D01*
X8022509Y-14130329D01*
X8003462Y-14139853D01*
X7984414Y-14139853D01*
X7965367Y-14130329D01*
X7955843Y-14120805D01*
X7946319Y-14101757D01*
X7936795Y-14063662D01*
X7936795Y-14016043D01*
X7946319Y-13977948D01*
X7955843Y-13958900D01*
X7965367Y-13949377D01*
X7984414Y-13939853D01*
X8136795Y-14120805D02*
X8146319Y-14130329D01*
X8136795Y-14139853D01*
X8127271Y-14130329D01*
X8136795Y-14120805D01*
X8136795Y-14139853D01*
X8317748Y-14006519D02*
X8317748Y-14139853D01*
X8270128Y-13930329D02*
X8222509Y-14073186D01*
X8346319Y-14073186D01*
X8460605Y-13939853D02*
X8479652Y-13939853D01*
X8498700Y-13949377D01*
X8508224Y-13958900D01*
X8517748Y-13977948D01*
X8527271Y-14016043D01*
X8527271Y-14063662D01*
X8517748Y-14101757D01*
X8508224Y-14120805D01*
X8498700Y-14130329D01*
X8479652Y-14139853D01*
X8460605Y-14139853D01*
X8441557Y-14130329D01*
X8432033Y-14120805D01*
X8422510Y-14101757D01*
X8412986Y-14063662D01*
X8412986Y-14016043D01*
X8422510Y-13977948D01*
X8432033Y-13958900D01*
X8441557Y-13949377D01*
X8460605Y-13939853D01*
X8651081Y-13939853D02*
X8670129Y-13939853D01*
X8689176Y-13949377D01*
X8698700Y-13958900D01*
X8708224Y-13977948D01*
X8717748Y-14016043D01*
X8717748Y-14063662D01*
X8708224Y-14101757D01*
X8698700Y-14120805D01*
X8689176Y-14130329D01*
X8670129Y-14139853D01*
X8651081Y-14139853D01*
X8632033Y-14130329D01*
X8622510Y-14120805D01*
X8612986Y-14101757D01*
X8603462Y-14063662D01*
X8603462Y-14016043D01*
X8612986Y-13977948D01*
X8622510Y-13958900D01*
X8632033Y-13949377D01*
X8651081Y-13939853D01*
X8803462Y-14139853D02*
X8803462Y-14006519D01*
X8803462Y-14025567D02*
X8812986Y-14016043D01*
X8832033Y-14006519D01*
X8860605Y-14006519D01*
X8879652Y-14016043D01*
X8889176Y-14035091D01*
X8889176Y-14139853D01*
X8889176Y-14035091D02*
X8898700Y-14016043D01*
X8917748Y-14006519D01*
X8946319Y-14006519D01*
X8965367Y-14016043D01*
X8974890Y-14035091D01*
X8974890Y-14139853D01*
X9070129Y-14139853D02*
X9070129Y-14006519D01*
X9070129Y-14025567D02*
X9079652Y-14016043D01*
X9098700Y-14006519D01*
X9127271Y-14006519D01*
X9146319Y-14016043D01*
X9155843Y-14035091D01*
X9155843Y-14139853D01*
X9155843Y-14035091D02*
X9165367Y-14016043D01*
X9184414Y-14006519D01*
X9212986Y-14006519D01*
X9232033Y-14016043D01*
X9241557Y-14035091D01*
X9241557Y-14139853D01*
X9632033Y-13930329D02*
X9460605Y-14187472D01*
X9889176Y-13939853D02*
X9908224Y-13939853D01*
X9927271Y-13949377D01*
X9936795Y-13958900D01*
X9946319Y-13977948D01*
X9955843Y-14016043D01*
X9955843Y-14063662D01*
X9946319Y-14101757D01*
X9936795Y-14120805D01*
X9927271Y-14130329D01*
X9908224Y-14139853D01*
X9889176Y-14139853D01*
X9870129Y-14130329D01*
X9860605Y-14120805D01*
X9851081Y-14101757D01*
X9841557Y-14063662D01*
X9841557Y-14016043D01*
X9851081Y-13977948D01*
X9860605Y-13958900D01*
X9870129Y-13949377D01*
X9889176Y-13939853D01*
X10041557Y-14120805D02*
X10051081Y-14130329D01*
X10041557Y-14139853D01*
X10032033Y-14130329D01*
X10041557Y-14120805D01*
X10041557Y-14139853D01*
X10174890Y-13939853D02*
X10193938Y-13939853D01*
X10212986Y-13949377D01*
X10222510Y-13958900D01*
X10232033Y-13977948D01*
X10241557Y-14016043D01*
X10241557Y-14063662D01*
X10232033Y-14101757D01*
X10222510Y-14120805D01*
X10212986Y-14130329D01*
X10193938Y-14139853D01*
X10174890Y-14139853D01*
X10155843Y-14130329D01*
X10146319Y-14120805D01*
X10136795Y-14101757D01*
X10127271Y-14063662D01*
X10127271Y-14016043D01*
X10136795Y-13977948D01*
X10146319Y-13958900D01*
X10155843Y-13949377D01*
X10174890Y-13939853D01*
X10432033Y-14139853D02*
X10317748Y-14139853D01*
X10374890Y-14139853D02*
X10374890Y-13939853D01*
X10355843Y-13968424D01*
X10336795Y-13987472D01*
X10317748Y-13996996D01*
X10612986Y-13939853D02*
X10517748Y-13939853D01*
X10508224Y-14035091D01*
X10517748Y-14025567D01*
X10536795Y-14016043D01*
X10584414Y-14016043D01*
X10603462Y-14025567D01*
X10612986Y-14035091D01*
X10622510Y-14054138D01*
X10622510Y-14101757D01*
X10612986Y-14120805D01*
X10603462Y-14130329D01*
X10584414Y-14139853D01*
X10536795Y-14139853D01*
X10517748Y-14130329D01*
X10508224Y-14120805D01*
X10689176Y-13939853D02*
X10822510Y-13939853D01*
X10736795Y-14139853D01*
X10889176Y-13939853D02*
X10889176Y-13977948D01*
X10965367Y-13939853D02*
X10965367Y-13977948D01*
X11260605Y-14216043D02*
X11251081Y-14206519D01*
X11232033Y-14177948D01*
X11222509Y-14158900D01*
X11212986Y-14130329D01*
X11203462Y-14082710D01*
X11203462Y-14044615D01*
X11212986Y-13996996D01*
X11222509Y-13968424D01*
X11232033Y-13949377D01*
X11251081Y-13920805D01*
X11260605Y-13911281D01*
X11441557Y-14139853D02*
X11327271Y-14139853D01*
X11384414Y-14139853D02*
X11384414Y-13939853D01*
X11365367Y-13968424D01*
X11346319Y-13987472D01*
X11327271Y-13996996D01*
X11632033Y-14139853D02*
X11517748Y-14139853D01*
X11574890Y-14139853D02*
X11574890Y-13939853D01*
X11555843Y-13968424D01*
X11536795Y-13987472D01*
X11517748Y-13996996D01*
X11698700Y-13939853D02*
X11822509Y-13939853D01*
X11755843Y-14016043D01*
X11784414Y-14016043D01*
X11803462Y-14025567D01*
X11812986Y-14035091D01*
X11822509Y-14054138D01*
X11822509Y-14101757D01*
X11812986Y-14120805D01*
X11803462Y-14130329D01*
X11784414Y-14139853D01*
X11727271Y-14139853D01*
X11708224Y-14130329D01*
X11698700Y-14120805D01*
X12060605Y-14139853D02*
X12060605Y-13939853D01*
X12146319Y-14139853D02*
X12146319Y-14035091D01*
X12136795Y-14016043D01*
X12117748Y-14006519D01*
X12089176Y-14006519D01*
X12070128Y-14016043D01*
X12060605Y-14025567D01*
X12270128Y-14139853D02*
X12251081Y-14130329D01*
X12241557Y-14120805D01*
X12232033Y-14101757D01*
X12232033Y-14044615D01*
X12241557Y-14025567D01*
X12251081Y-14016043D01*
X12270128Y-14006519D01*
X12298700Y-14006519D01*
X12317748Y-14016043D01*
X12327271Y-14025567D01*
X12336795Y-14044615D01*
X12336795Y-14101757D01*
X12327271Y-14120805D01*
X12317748Y-14130329D01*
X12298700Y-14139853D01*
X12270128Y-14139853D01*
X12451081Y-14139853D02*
X12432033Y-14130329D01*
X12422509Y-14111281D01*
X12422509Y-13939853D01*
X12603462Y-14130329D02*
X12584414Y-14139853D01*
X12546319Y-14139853D01*
X12527271Y-14130329D01*
X12517748Y-14111281D01*
X12517748Y-14035091D01*
X12527271Y-14016043D01*
X12546319Y-14006519D01*
X12584414Y-14006519D01*
X12603462Y-14016043D01*
X12612986Y-14035091D01*
X12612986Y-14054138D01*
X12517748Y-14073186D01*
X12689176Y-14130329D02*
X12708224Y-14139853D01*
X12746319Y-14139853D01*
X12765367Y-14130329D01*
X12774890Y-14111281D01*
X12774890Y-14101757D01*
X12765367Y-14082710D01*
X12746319Y-14073186D01*
X12717748Y-14073186D01*
X12698700Y-14063662D01*
X12689176Y-14044615D01*
X12689176Y-14035091D01*
X12698700Y-14016043D01*
X12717748Y-14006519D01*
X12746319Y-14006519D01*
X12765367Y-14016043D01*
X12841557Y-14216043D02*
X12851081Y-14206519D01*
X12870128Y-14177948D01*
X12879652Y-14158900D01*
X12889176Y-14130329D01*
X12898700Y-14082710D01*
X12898700Y-14044615D01*
X12889176Y-13996996D01*
X12879652Y-13968424D01*
X12870128Y-13949377D01*
X12851081Y-13920805D01*
X12841557Y-13911281D01*
D13*
X7688700Y-14313377D02*
G75*
G03*
X7688700Y-14313377I-40640J0D01*
G01*
D11*
X7984414Y-14203853D02*
X8003462Y-14203853D01*
X8022509Y-14213377D01*
X8032033Y-14222900D01*
X8041557Y-14241948D01*
X8051081Y-14280043D01*
X8051081Y-14327662D01*
X8041557Y-14365757D01*
X8032033Y-14384805D01*
X8022509Y-14394329D01*
X8003462Y-14403853D01*
X7984414Y-14403853D01*
X7965367Y-14394329D01*
X7955843Y-14384805D01*
X7946319Y-14365757D01*
X7936795Y-14327662D01*
X7936795Y-14280043D01*
X7946319Y-14241948D01*
X7955843Y-14222900D01*
X7965367Y-14213377D01*
X7984414Y-14203853D01*
X8136795Y-14384805D02*
X8146319Y-14394329D01*
X8136795Y-14403853D01*
X8127271Y-14394329D01*
X8136795Y-14384805D01*
X8136795Y-14403853D01*
X8260605Y-14289567D02*
X8241557Y-14280043D01*
X8232033Y-14270519D01*
X8222509Y-14251472D01*
X8222509Y-14241948D01*
X8232033Y-14222900D01*
X8241557Y-14213377D01*
X8260605Y-14203853D01*
X8298700Y-14203853D01*
X8317748Y-14213377D01*
X8327271Y-14222900D01*
X8336795Y-14241948D01*
X8336795Y-14251472D01*
X8327271Y-14270519D01*
X8317748Y-14280043D01*
X8298700Y-14289567D01*
X8260605Y-14289567D01*
X8241557Y-14299091D01*
X8232033Y-14308615D01*
X8222509Y-14327662D01*
X8222509Y-14365757D01*
X8232033Y-14384805D01*
X8241557Y-14394329D01*
X8260605Y-14403853D01*
X8298700Y-14403853D01*
X8317748Y-14394329D01*
X8327271Y-14384805D01*
X8336795Y-14365757D01*
X8336795Y-14327662D01*
X8327271Y-14308615D01*
X8317748Y-14299091D01*
X8298700Y-14289567D01*
X8527271Y-14403853D02*
X8412986Y-14403853D01*
X8470129Y-14403853D02*
X8470129Y-14203853D01*
X8451081Y-14232424D01*
X8432033Y-14251472D01*
X8412986Y-14260996D01*
X8593938Y-14203853D02*
X8717748Y-14203853D01*
X8651081Y-14280043D01*
X8679652Y-14280043D01*
X8698700Y-14289567D01*
X8708224Y-14299091D01*
X8717748Y-14318138D01*
X8717748Y-14365757D01*
X8708224Y-14384805D01*
X8698700Y-14394329D01*
X8679652Y-14403853D01*
X8622510Y-14403853D01*
X8603462Y-14394329D01*
X8593938Y-14384805D01*
X8803462Y-14403853D02*
X8803462Y-14270519D01*
X8803462Y-14289567D02*
X8812986Y-14280043D01*
X8832033Y-14270519D01*
X8860605Y-14270519D01*
X8879652Y-14280043D01*
X8889176Y-14299091D01*
X8889176Y-14403853D01*
X8889176Y-14299091D02*
X8898700Y-14280043D01*
X8917748Y-14270519D01*
X8946319Y-14270519D01*
X8965367Y-14280043D01*
X8974890Y-14299091D01*
X8974890Y-14403853D01*
X9070129Y-14403853D02*
X9070129Y-14270519D01*
X9070129Y-14289567D02*
X9079652Y-14280043D01*
X9098700Y-14270519D01*
X9127271Y-14270519D01*
X9146319Y-14280043D01*
X9155843Y-14299091D01*
X9155843Y-14403853D01*
X9155843Y-14299091D02*
X9165367Y-14280043D01*
X9184414Y-14270519D01*
X9212986Y-14270519D01*
X9232033Y-14280043D01*
X9241557Y-14299091D01*
X9241557Y-14403853D01*
X9632033Y-14194329D02*
X9460605Y-14451472D01*
X9889176Y-14203853D02*
X9908224Y-14203853D01*
X9927271Y-14213377D01*
X9936795Y-14222900D01*
X9946319Y-14241948D01*
X9955843Y-14280043D01*
X9955843Y-14327662D01*
X9946319Y-14365757D01*
X9936795Y-14384805D01*
X9927271Y-14394329D01*
X9908224Y-14403853D01*
X9889176Y-14403853D01*
X9870129Y-14394329D01*
X9860605Y-14384805D01*
X9851081Y-14365757D01*
X9841557Y-14327662D01*
X9841557Y-14280043D01*
X9851081Y-14241948D01*
X9860605Y-14222900D01*
X9870129Y-14213377D01*
X9889176Y-14203853D01*
X10041557Y-14384805D02*
X10051081Y-14394329D01*
X10041557Y-14403853D01*
X10032033Y-14394329D01*
X10041557Y-14384805D01*
X10041557Y-14403853D01*
X10174890Y-14203853D02*
X10193938Y-14203853D01*
X10212986Y-14213377D01*
X10222510Y-14222900D01*
X10232033Y-14241948D01*
X10241557Y-14280043D01*
X10241557Y-14327662D01*
X10232033Y-14365757D01*
X10222510Y-14384805D01*
X10212986Y-14394329D01*
X10193938Y-14403853D01*
X10174890Y-14403853D01*
X10155843Y-14394329D01*
X10146319Y-14384805D01*
X10136795Y-14365757D01*
X10127271Y-14327662D01*
X10127271Y-14280043D01*
X10136795Y-14241948D01*
X10146319Y-14222900D01*
X10155843Y-14213377D01*
X10174890Y-14203853D01*
X10308224Y-14203853D02*
X10432033Y-14203853D01*
X10365367Y-14280043D01*
X10393938Y-14280043D01*
X10412986Y-14289567D01*
X10422510Y-14299091D01*
X10432033Y-14318138D01*
X10432033Y-14365757D01*
X10422510Y-14384805D01*
X10412986Y-14394329D01*
X10393938Y-14403853D01*
X10336795Y-14403853D01*
X10317748Y-14394329D01*
X10308224Y-14384805D01*
X10508224Y-14222900D02*
X10517748Y-14213377D01*
X10536795Y-14203853D01*
X10584414Y-14203853D01*
X10603462Y-14213377D01*
X10612986Y-14222900D01*
X10622510Y-14241948D01*
X10622510Y-14260996D01*
X10612986Y-14289567D01*
X10498700Y-14403853D01*
X10622510Y-14403853D01*
X10746319Y-14203853D02*
X10765367Y-14203853D01*
X10784414Y-14213377D01*
X10793938Y-14222900D01*
X10803462Y-14241948D01*
X10812986Y-14280043D01*
X10812986Y-14327662D01*
X10803462Y-14365757D01*
X10793938Y-14384805D01*
X10784414Y-14394329D01*
X10765367Y-14403853D01*
X10746319Y-14403853D01*
X10727271Y-14394329D01*
X10717748Y-14384805D01*
X10708224Y-14365757D01*
X10698700Y-14327662D01*
X10698700Y-14280043D01*
X10708224Y-14241948D01*
X10717748Y-14222900D01*
X10727271Y-14213377D01*
X10746319Y-14203853D01*
X10889176Y-14203853D02*
X10889176Y-14241948D01*
X10965367Y-14203853D02*
X10965367Y-14241948D01*
X11260605Y-14480043D02*
X11251081Y-14470519D01*
X11232033Y-14441948D01*
X11222509Y-14422900D01*
X11212986Y-14394329D01*
X11203462Y-14346710D01*
X11203462Y-14308615D01*
X11212986Y-14260996D01*
X11222509Y-14232424D01*
X11232033Y-14213377D01*
X11251081Y-14184805D01*
X11260605Y-14175281D01*
X11432033Y-14203853D02*
X11336795Y-14203853D01*
X11327271Y-14299091D01*
X11336795Y-14289567D01*
X11355843Y-14280043D01*
X11403462Y-14280043D01*
X11422509Y-14289567D01*
X11432033Y-14299091D01*
X11441557Y-14318138D01*
X11441557Y-14365757D01*
X11432033Y-14384805D01*
X11422509Y-14394329D01*
X11403462Y-14403853D01*
X11355843Y-14403853D01*
X11336795Y-14394329D01*
X11327271Y-14384805D01*
X11517748Y-14222900D02*
X11527271Y-14213377D01*
X11546319Y-14203853D01*
X11593938Y-14203853D01*
X11612986Y-14213377D01*
X11622509Y-14222900D01*
X11632033Y-14241948D01*
X11632033Y-14260996D01*
X11622509Y-14289567D01*
X11508224Y-14403853D01*
X11632033Y-14403853D01*
X11870128Y-14403853D02*
X11870128Y-14203853D01*
X11955843Y-14403853D02*
X11955843Y-14299091D01*
X11946319Y-14280043D01*
X11927271Y-14270519D01*
X11898700Y-14270519D01*
X11879652Y-14280043D01*
X11870128Y-14289567D01*
X12079652Y-14403853D02*
X12060605Y-14394329D01*
X12051081Y-14384805D01*
X12041557Y-14365757D01*
X12041557Y-14308615D01*
X12051081Y-14289567D01*
X12060605Y-14280043D01*
X12079652Y-14270519D01*
X12108224Y-14270519D01*
X12127271Y-14280043D01*
X12136795Y-14289567D01*
X12146319Y-14308615D01*
X12146319Y-14365757D01*
X12136795Y-14384805D01*
X12127271Y-14394329D01*
X12108224Y-14403853D01*
X12079652Y-14403853D01*
X12260605Y-14403853D02*
X12241557Y-14394329D01*
X12232033Y-14375281D01*
X12232033Y-14203853D01*
X12412986Y-14394329D02*
X12393938Y-14403853D01*
X12355843Y-14403853D01*
X12336795Y-14394329D01*
X12327271Y-14375281D01*
X12327271Y-14299091D01*
X12336795Y-14280043D01*
X12355843Y-14270519D01*
X12393938Y-14270519D01*
X12412986Y-14280043D01*
X12422509Y-14299091D01*
X12422509Y-14318138D01*
X12327271Y-14337186D01*
X12498700Y-14394329D02*
X12517748Y-14403853D01*
X12555843Y-14403853D01*
X12574890Y-14394329D01*
X12584414Y-14375281D01*
X12584414Y-14365757D01*
X12574890Y-14346710D01*
X12555843Y-14337186D01*
X12527271Y-14337186D01*
X12508224Y-14327662D01*
X12498700Y-14308615D01*
X12498700Y-14299091D01*
X12508224Y-14280043D01*
X12527271Y-14270519D01*
X12555843Y-14270519D01*
X12574890Y-14280043D01*
X12651081Y-14480043D02*
X12660605Y-14470519D01*
X12679652Y-14441948D01*
X12689176Y-14422900D01*
X12698700Y-14394329D01*
X12708224Y-14346710D01*
X12708224Y-14308615D01*
X12698700Y-14260996D01*
X12689176Y-14232424D01*
X12679652Y-14213377D01*
X12660605Y-14184805D01*
X12651081Y-14175281D01*
D14*
X7638700Y-14527377D02*
X7638700Y-14627377D01*
X7588700Y-14577377D02*
X7688700Y-14577377D01*
D11*
X8051081Y-14667853D02*
X7936795Y-14667853D01*
X7993938Y-14667853D02*
X7993938Y-14467853D01*
X7974890Y-14496424D01*
X7955843Y-14515472D01*
X7936795Y-14524996D01*
X8136795Y-14648805D02*
X8146319Y-14658329D01*
X8136795Y-14667853D01*
X8127271Y-14658329D01*
X8136795Y-14648805D01*
X8136795Y-14667853D01*
X8270128Y-14467853D02*
X8289176Y-14467853D01*
X8308224Y-14477377D01*
X8317748Y-14486900D01*
X8327271Y-14505948D01*
X8336795Y-14544043D01*
X8336795Y-14591662D01*
X8327271Y-14629757D01*
X8317748Y-14648805D01*
X8308224Y-14658329D01*
X8289176Y-14667853D01*
X8270128Y-14667853D01*
X8251081Y-14658329D01*
X8241557Y-14648805D01*
X8232033Y-14629757D01*
X8222509Y-14591662D01*
X8222509Y-14544043D01*
X8232033Y-14505948D01*
X8241557Y-14486900D01*
X8251081Y-14477377D01*
X8270128Y-14467853D01*
X8460605Y-14467853D02*
X8479652Y-14467853D01*
X8498700Y-14477377D01*
X8508224Y-14486900D01*
X8517748Y-14505948D01*
X8527271Y-14544043D01*
X8527271Y-14591662D01*
X8517748Y-14629757D01*
X8508224Y-14648805D01*
X8498700Y-14658329D01*
X8479652Y-14667853D01*
X8460605Y-14667853D01*
X8441557Y-14658329D01*
X8432033Y-14648805D01*
X8422510Y-14629757D01*
X8412986Y-14591662D01*
X8412986Y-14544043D01*
X8422510Y-14505948D01*
X8432033Y-14486900D01*
X8441557Y-14477377D01*
X8460605Y-14467853D01*
X8651081Y-14467853D02*
X8670129Y-14467853D01*
X8689176Y-14477377D01*
X8698700Y-14486900D01*
X8708224Y-14505948D01*
X8717748Y-14544043D01*
X8717748Y-14591662D01*
X8708224Y-14629757D01*
X8698700Y-14648805D01*
X8689176Y-14658329D01*
X8670129Y-14667853D01*
X8651081Y-14667853D01*
X8632033Y-14658329D01*
X8622510Y-14648805D01*
X8612986Y-14629757D01*
X8603462Y-14591662D01*
X8603462Y-14544043D01*
X8612986Y-14505948D01*
X8622510Y-14486900D01*
X8632033Y-14477377D01*
X8651081Y-14467853D01*
X8803462Y-14667853D02*
X8803462Y-14534519D01*
X8803462Y-14553567D02*
X8812986Y-14544043D01*
X8832033Y-14534519D01*
X8860605Y-14534519D01*
X8879652Y-14544043D01*
X8889176Y-14563091D01*
X8889176Y-14667853D01*
X8889176Y-14563091D02*
X8898700Y-14544043D01*
X8917748Y-14534519D01*
X8946319Y-14534519D01*
X8965367Y-14544043D01*
X8974890Y-14563091D01*
X8974890Y-14667853D01*
X9070129Y-14667853D02*
X9070129Y-14534519D01*
X9070129Y-14553567D02*
X9079652Y-14544043D01*
X9098700Y-14534519D01*
X9127271Y-14534519D01*
X9146319Y-14544043D01*
X9155843Y-14563091D01*
X9155843Y-14667853D01*
X9155843Y-14563091D02*
X9165367Y-14544043D01*
X9184414Y-14534519D01*
X9212986Y-14534519D01*
X9232033Y-14544043D01*
X9241557Y-14563091D01*
X9241557Y-14667853D01*
X9632033Y-14458329D02*
X9460605Y-14715472D01*
X9889176Y-14467853D02*
X9908224Y-14467853D01*
X9927271Y-14477377D01*
X9936795Y-14486900D01*
X9946319Y-14505948D01*
X9955843Y-14544043D01*
X9955843Y-14591662D01*
X9946319Y-14629757D01*
X9936795Y-14648805D01*
X9927271Y-14658329D01*
X9908224Y-14667853D01*
X9889176Y-14667853D01*
X9870129Y-14658329D01*
X9860605Y-14648805D01*
X9851081Y-14629757D01*
X9841557Y-14591662D01*
X9841557Y-14544043D01*
X9851081Y-14505948D01*
X9860605Y-14486900D01*
X9870129Y-14477377D01*
X9889176Y-14467853D01*
X10041557Y-14648805D02*
X10051081Y-14658329D01*
X10041557Y-14667853D01*
X10032033Y-14658329D01*
X10041557Y-14648805D01*
X10041557Y-14667853D01*
X10174890Y-14467853D02*
X10193938Y-14467853D01*
X10212986Y-14477377D01*
X10222510Y-14486900D01*
X10232033Y-14505948D01*
X10241557Y-14544043D01*
X10241557Y-14591662D01*
X10232033Y-14629757D01*
X10222510Y-14648805D01*
X10212986Y-14658329D01*
X10193938Y-14667853D01*
X10174890Y-14667853D01*
X10155843Y-14658329D01*
X10146319Y-14648805D01*
X10136795Y-14629757D01*
X10127271Y-14591662D01*
X10127271Y-14544043D01*
X10136795Y-14505948D01*
X10146319Y-14486900D01*
X10155843Y-14477377D01*
X10174890Y-14467853D01*
X10308224Y-14467853D02*
X10432033Y-14467853D01*
X10365367Y-14544043D01*
X10393938Y-14544043D01*
X10412986Y-14553567D01*
X10422510Y-14563091D01*
X10432033Y-14582138D01*
X10432033Y-14629757D01*
X10422510Y-14648805D01*
X10412986Y-14658329D01*
X10393938Y-14667853D01*
X10336795Y-14667853D01*
X10317748Y-14658329D01*
X10308224Y-14648805D01*
X10527271Y-14667853D02*
X10565367Y-14667853D01*
X10584414Y-14658329D01*
X10593938Y-14648805D01*
X10612986Y-14620234D01*
X10622510Y-14582138D01*
X10622510Y-14505948D01*
X10612986Y-14486900D01*
X10603462Y-14477377D01*
X10584414Y-14467853D01*
X10546319Y-14467853D01*
X10527271Y-14477377D01*
X10517748Y-14486900D01*
X10508224Y-14505948D01*
X10508224Y-14553567D01*
X10517748Y-14572615D01*
X10527271Y-14582138D01*
X10546319Y-14591662D01*
X10584414Y-14591662D01*
X10603462Y-14582138D01*
X10612986Y-14572615D01*
X10622510Y-14553567D01*
X10793938Y-14534519D02*
X10793938Y-14667853D01*
X10746319Y-14458329D02*
X10698700Y-14601186D01*
X10822510Y-14601186D01*
X10889176Y-14467853D02*
X10889176Y-14505948D01*
X10965367Y-14467853D02*
X10965367Y-14505948D01*
X11260605Y-14744043D02*
X11251081Y-14734519D01*
X11232033Y-14705948D01*
X11222509Y-14686900D01*
X11212986Y-14658329D01*
X11203462Y-14610710D01*
X11203462Y-14572615D01*
X11212986Y-14524996D01*
X11222509Y-14496424D01*
X11232033Y-14477377D01*
X11251081Y-14448805D01*
X11260605Y-14439281D01*
X11374890Y-14467853D02*
X11393938Y-14467853D01*
X11412986Y-14477377D01*
X11422509Y-14486900D01*
X11432033Y-14505948D01*
X11441557Y-14544043D01*
X11441557Y-14591662D01*
X11432033Y-14629757D01*
X11422509Y-14648805D01*
X11412986Y-14658329D01*
X11393938Y-14667853D01*
X11374890Y-14667853D01*
X11355843Y-14658329D01*
X11346319Y-14648805D01*
X11336795Y-14629757D01*
X11327271Y-14591662D01*
X11327271Y-14544043D01*
X11336795Y-14505948D01*
X11346319Y-14486900D01*
X11355843Y-14477377D01*
X11374890Y-14467853D01*
X11679652Y-14667853D02*
X11679652Y-14467853D01*
X11765367Y-14667853D02*
X11765367Y-14563091D01*
X11755843Y-14544043D01*
X11736795Y-14534519D01*
X11708224Y-14534519D01*
X11689176Y-14544043D01*
X11679652Y-14553567D01*
X11889176Y-14667853D02*
X11870128Y-14658329D01*
X11860605Y-14648805D01*
X11851081Y-14629757D01*
X11851081Y-14572615D01*
X11860605Y-14553567D01*
X11870128Y-14544043D01*
X11889176Y-14534519D01*
X11917748Y-14534519D01*
X11936795Y-14544043D01*
X11946319Y-14553567D01*
X11955843Y-14572615D01*
X11955843Y-14629757D01*
X11946319Y-14648805D01*
X11936795Y-14658329D01*
X11917748Y-14667853D01*
X11889176Y-14667853D01*
X12070128Y-14667853D02*
X12051081Y-14658329D01*
X12041557Y-14639281D01*
X12041557Y-14467853D01*
X12222509Y-14658329D02*
X12203462Y-14667853D01*
X12165367Y-14667853D01*
X12146319Y-14658329D01*
X12136795Y-14639281D01*
X12136795Y-14563091D01*
X12146319Y-14544043D01*
X12165367Y-14534519D01*
X12203462Y-14534519D01*
X12222509Y-14544043D01*
X12232033Y-14563091D01*
X12232033Y-14582138D01*
X12136795Y-14601186D01*
X12308224Y-14658329D02*
X12327271Y-14667853D01*
X12365367Y-14667853D01*
X12384414Y-14658329D01*
X12393938Y-14639281D01*
X12393938Y-14629757D01*
X12384414Y-14610710D01*
X12365367Y-14601186D01*
X12336795Y-14601186D01*
X12317748Y-14591662D01*
X12308224Y-14572615D01*
X12308224Y-14563091D01*
X12317748Y-14544043D01*
X12336795Y-14534519D01*
X12365367Y-14534519D01*
X12384414Y-14544043D01*
X12632033Y-14591662D02*
X12784414Y-14591662D01*
X12708224Y-14667853D02*
X12708224Y-14515472D01*
X13060605Y-14553567D02*
X13041557Y-14544043D01*
X13032033Y-14534519D01*
X13022509Y-14515472D01*
X13022509Y-14505948D01*
X13032033Y-14486900D01*
X13041557Y-14477377D01*
X13060605Y-14467853D01*
X13098700Y-14467853D01*
X13117748Y-14477377D01*
X13127271Y-14486900D01*
X13136795Y-14505948D01*
X13136795Y-14515472D01*
X13127271Y-14534519D01*
X13117748Y-14544043D01*
X13098700Y-14553567D01*
X13060605Y-14553567D01*
X13041557Y-14563091D01*
X13032033Y-14572615D01*
X13022509Y-14591662D01*
X13022509Y-14629757D01*
X13032033Y-14648805D01*
X13041557Y-14658329D01*
X13060605Y-14667853D01*
X13098700Y-14667853D01*
X13117748Y-14658329D01*
X13127271Y-14648805D01*
X13136795Y-14629757D01*
X13136795Y-14591662D01*
X13127271Y-14572615D01*
X13117748Y-14563091D01*
X13098700Y-14553567D01*
X13365367Y-14658329D02*
X13384414Y-14667853D01*
X13422509Y-14667853D01*
X13441557Y-14658329D01*
X13451081Y-14639281D01*
X13451081Y-14629757D01*
X13441557Y-14610710D01*
X13422509Y-14601186D01*
X13393938Y-14601186D01*
X13374890Y-14591662D01*
X13365367Y-14572615D01*
X13365367Y-14563091D01*
X13374890Y-14544043D01*
X13393938Y-14534519D01*
X13422509Y-14534519D01*
X13441557Y-14544043D01*
X13565367Y-14667853D02*
X13546319Y-14658329D01*
X13536795Y-14639281D01*
X13536795Y-14467853D01*
X13670128Y-14667853D02*
X13651081Y-14658329D01*
X13641557Y-14648805D01*
X13632033Y-14629757D01*
X13632033Y-14572615D01*
X13641557Y-14553567D01*
X13651081Y-14544043D01*
X13670128Y-14534519D01*
X13698700Y-14534519D01*
X13717748Y-14544043D01*
X13727271Y-14553567D01*
X13736795Y-14572615D01*
X13736795Y-14629757D01*
X13727271Y-14648805D01*
X13717748Y-14658329D01*
X13698700Y-14667853D01*
X13670128Y-14667853D01*
X13793938Y-14534519D02*
X13870128Y-14534519D01*
X13822509Y-14467853D02*
X13822509Y-14639281D01*
X13832033Y-14658329D01*
X13851081Y-14667853D01*
X13870128Y-14667853D01*
X13927271Y-14658329D02*
X13946319Y-14667853D01*
X13984414Y-14667853D01*
X14003462Y-14658329D01*
X14012986Y-14639281D01*
X14012986Y-14629757D01*
X14003462Y-14610710D01*
X13984414Y-14601186D01*
X13955843Y-14601186D01*
X13936795Y-14591662D01*
X13927271Y-14572615D01*
X13927271Y-14563091D01*
X13936795Y-14544043D01*
X13955843Y-14534519D01*
X13984414Y-14534519D01*
X14003462Y-14544043D01*
X14079652Y-14744043D02*
X14089176Y-14734519D01*
X14108224Y-14705948D01*
X14117748Y-14686900D01*
X14127271Y-14658329D01*
X14136795Y-14610710D01*
X14136795Y-14572615D01*
X14127271Y-14524996D01*
X14117748Y-14496424D01*
X14108224Y-14477377D01*
X14089176Y-14448805D01*
X14079652Y-14439281D01*
D15*
X7670102Y-14886278D02*
X7670102Y-14796475D01*
X7580298Y-14796475D01*
X7580298Y-14886278D01*
X7670102Y-14886278D01*
D11*
X8051081Y-14931853D02*
X7936795Y-14931853D01*
X7993938Y-14931853D02*
X7993938Y-14731853D01*
X7974890Y-14760424D01*
X7955843Y-14779472D01*
X7936795Y-14788996D01*
X8136795Y-14912805D02*
X8146319Y-14922329D01*
X8136795Y-14931853D01*
X8127271Y-14922329D01*
X8136795Y-14912805D01*
X8136795Y-14931853D01*
X8222509Y-14750900D02*
X8232033Y-14741377D01*
X8251081Y-14731853D01*
X8298700Y-14731853D01*
X8317748Y-14741377D01*
X8327271Y-14750900D01*
X8336795Y-14769948D01*
X8336795Y-14788996D01*
X8327271Y-14817567D01*
X8212986Y-14931853D01*
X8336795Y-14931853D01*
X8403462Y-14731853D02*
X8536795Y-14731853D01*
X8451081Y-14931853D01*
X8651081Y-14731853D02*
X8670129Y-14731853D01*
X8689176Y-14741377D01*
X8698700Y-14750900D01*
X8708224Y-14769948D01*
X8717748Y-14808043D01*
X8717748Y-14855662D01*
X8708224Y-14893757D01*
X8698700Y-14912805D01*
X8689176Y-14922329D01*
X8670129Y-14931853D01*
X8651081Y-14931853D01*
X8632033Y-14922329D01*
X8622510Y-14912805D01*
X8612986Y-14893757D01*
X8603462Y-14855662D01*
X8603462Y-14808043D01*
X8612986Y-14769948D01*
X8622510Y-14750900D01*
X8632033Y-14741377D01*
X8651081Y-14731853D01*
X8803462Y-14931853D02*
X8803462Y-14798519D01*
X8803462Y-14817567D02*
X8812986Y-14808043D01*
X8832033Y-14798519D01*
X8860605Y-14798519D01*
X8879652Y-14808043D01*
X8889176Y-14827091D01*
X8889176Y-14931853D01*
X8889176Y-14827091D02*
X8898700Y-14808043D01*
X8917748Y-14798519D01*
X8946319Y-14798519D01*
X8965367Y-14808043D01*
X8974890Y-14827091D01*
X8974890Y-14931853D01*
X9070129Y-14931853D02*
X9070129Y-14798519D01*
X9070129Y-14817567D02*
X9079652Y-14808043D01*
X9098700Y-14798519D01*
X9127271Y-14798519D01*
X9146319Y-14808043D01*
X9155843Y-14827091D01*
X9155843Y-14931853D01*
X9155843Y-14827091D02*
X9165367Y-14808043D01*
X9184414Y-14798519D01*
X9212986Y-14798519D01*
X9232033Y-14808043D01*
X9241557Y-14827091D01*
X9241557Y-14931853D01*
X9632033Y-14722329D02*
X9460605Y-14979472D01*
X9889176Y-14731853D02*
X9908224Y-14731853D01*
X9927271Y-14741377D01*
X9936795Y-14750900D01*
X9946319Y-14769948D01*
X9955843Y-14808043D01*
X9955843Y-14855662D01*
X9946319Y-14893757D01*
X9936795Y-14912805D01*
X9927271Y-14922329D01*
X9908224Y-14931853D01*
X9889176Y-14931853D01*
X9870129Y-14922329D01*
X9860605Y-14912805D01*
X9851081Y-14893757D01*
X9841557Y-14855662D01*
X9841557Y-14808043D01*
X9851081Y-14769948D01*
X9860605Y-14750900D01*
X9870129Y-14741377D01*
X9889176Y-14731853D01*
X10041557Y-14912805D02*
X10051081Y-14922329D01*
X10041557Y-14931853D01*
X10032033Y-14922329D01*
X10041557Y-14912805D01*
X10041557Y-14931853D01*
X10174890Y-14731853D02*
X10193938Y-14731853D01*
X10212986Y-14741377D01*
X10222510Y-14750900D01*
X10232033Y-14769948D01*
X10241557Y-14808043D01*
X10241557Y-14855662D01*
X10232033Y-14893757D01*
X10222510Y-14912805D01*
X10212986Y-14922329D01*
X10193938Y-14931853D01*
X10174890Y-14931853D01*
X10155843Y-14922329D01*
X10146319Y-14912805D01*
X10136795Y-14893757D01*
X10127271Y-14855662D01*
X10127271Y-14808043D01*
X10136795Y-14769948D01*
X10146319Y-14750900D01*
X10155843Y-14741377D01*
X10174890Y-14731853D01*
X10422510Y-14731853D02*
X10327271Y-14731853D01*
X10317748Y-14827091D01*
X10327271Y-14817567D01*
X10346319Y-14808043D01*
X10393938Y-14808043D01*
X10412986Y-14817567D01*
X10422510Y-14827091D01*
X10432033Y-14846138D01*
X10432033Y-14893757D01*
X10422510Y-14912805D01*
X10412986Y-14922329D01*
X10393938Y-14931853D01*
X10346319Y-14931853D01*
X10327271Y-14922329D01*
X10317748Y-14912805D01*
X10555843Y-14731853D02*
X10574890Y-14731853D01*
X10593938Y-14741377D01*
X10603462Y-14750900D01*
X10612986Y-14769948D01*
X10622510Y-14808043D01*
X10622510Y-14855662D01*
X10612986Y-14893757D01*
X10603462Y-14912805D01*
X10593938Y-14922329D01*
X10574890Y-14931853D01*
X10555843Y-14931853D01*
X10536795Y-14922329D01*
X10527271Y-14912805D01*
X10517748Y-14893757D01*
X10508224Y-14855662D01*
X10508224Y-14808043D01*
X10517748Y-14769948D01*
X10527271Y-14750900D01*
X10536795Y-14741377D01*
X10555843Y-14731853D01*
X10746319Y-14731853D02*
X10765367Y-14731853D01*
X10784414Y-14741377D01*
X10793938Y-14750900D01*
X10803462Y-14769948D01*
X10812986Y-14808043D01*
X10812986Y-14855662D01*
X10803462Y-14893757D01*
X10793938Y-14912805D01*
X10784414Y-14922329D01*
X10765367Y-14931853D01*
X10746319Y-14931853D01*
X10727271Y-14922329D01*
X10717748Y-14912805D01*
X10708224Y-14893757D01*
X10698700Y-14855662D01*
X10698700Y-14808043D01*
X10708224Y-14769948D01*
X10717748Y-14750900D01*
X10727271Y-14741377D01*
X10746319Y-14731853D01*
X10889176Y-14731853D02*
X10889176Y-14769948D01*
X10965367Y-14731853D02*
X10965367Y-14769948D01*
X11260605Y-15008043D02*
X11251081Y-14998519D01*
X11232033Y-14969948D01*
X11222509Y-14950900D01*
X11212986Y-14922329D01*
X11203462Y-14874710D01*
X11203462Y-14836615D01*
X11212986Y-14788996D01*
X11222509Y-14760424D01*
X11232033Y-14741377D01*
X11251081Y-14712805D01*
X11260605Y-14703281D01*
X11432033Y-14731853D02*
X11336795Y-14731853D01*
X11327271Y-14827091D01*
X11336795Y-14817567D01*
X11355843Y-14808043D01*
X11403462Y-14808043D01*
X11422509Y-14817567D01*
X11432033Y-14827091D01*
X11441557Y-14846138D01*
X11441557Y-14893757D01*
X11432033Y-14912805D01*
X11422509Y-14922329D01*
X11403462Y-14931853D01*
X11355843Y-14931853D01*
X11336795Y-14922329D01*
X11327271Y-14912805D01*
X11612986Y-14798519D02*
X11612986Y-14931853D01*
X11565367Y-14722329D02*
X11517748Y-14865186D01*
X11641557Y-14865186D01*
X11870128Y-14931853D02*
X11870128Y-14731853D01*
X11955843Y-14931853D02*
X11955843Y-14827091D01*
X11946319Y-14808043D01*
X11927271Y-14798519D01*
X11898700Y-14798519D01*
X11879652Y-14808043D01*
X11870128Y-14817567D01*
X12079652Y-14931853D02*
X12060605Y-14922329D01*
X12051081Y-14912805D01*
X12041557Y-14893757D01*
X12041557Y-14836615D01*
X12051081Y-14817567D01*
X12060605Y-14808043D01*
X12079652Y-14798519D01*
X12108224Y-14798519D01*
X12127271Y-14808043D01*
X12136795Y-14817567D01*
X12146319Y-14836615D01*
X12146319Y-14893757D01*
X12136795Y-14912805D01*
X12127271Y-14922329D01*
X12108224Y-14931853D01*
X12079652Y-14931853D01*
X12260605Y-14931853D02*
X12241557Y-14922329D01*
X12232033Y-14903281D01*
X12232033Y-14731853D01*
X12412986Y-14922329D02*
X12393938Y-14931853D01*
X12355843Y-14931853D01*
X12336795Y-14922329D01*
X12327271Y-14903281D01*
X12327271Y-14827091D01*
X12336795Y-14808043D01*
X12355843Y-14798519D01*
X12393938Y-14798519D01*
X12412986Y-14808043D01*
X12422509Y-14827091D01*
X12422509Y-14846138D01*
X12327271Y-14865186D01*
X12498700Y-14922329D02*
X12517748Y-14931853D01*
X12555843Y-14931853D01*
X12574890Y-14922329D01*
X12584414Y-14903281D01*
X12584414Y-14893757D01*
X12574890Y-14874710D01*
X12555843Y-14865186D01*
X12527271Y-14865186D01*
X12508224Y-14855662D01*
X12498700Y-14836615D01*
X12498700Y-14827091D01*
X12508224Y-14808043D01*
X12527271Y-14798519D01*
X12555843Y-14798519D01*
X12574890Y-14808043D01*
X12651081Y-15008043D02*
X12660605Y-14998519D01*
X12679652Y-14969948D01*
X12689176Y-14950900D01*
X12698700Y-14922329D01*
X12708224Y-14874710D01*
X12708224Y-14836615D01*
X12698700Y-14788996D01*
X12689176Y-14760424D01*
X12679652Y-14741377D01*
X12660605Y-14712805D01*
X12651081Y-14703281D01*
D16*
X7623700Y-15170377D02*
X7688700Y-15105377D01*
X7623700Y-15040377D01*
X7558700Y-15105377D01*
X7623700Y-15170377D01*
D11*
X8051081Y-15195853D02*
X7936795Y-15195853D01*
X7993938Y-15195853D02*
X7993938Y-14995853D01*
X7974890Y-15024424D01*
X7955843Y-15043472D01*
X7936795Y-15052996D01*
X8136795Y-15176805D02*
X8146319Y-15186329D01*
X8136795Y-15195853D01*
X8127271Y-15186329D01*
X8136795Y-15176805D01*
X8136795Y-15195853D01*
X8212986Y-14995853D02*
X8336795Y-14995853D01*
X8270128Y-15072043D01*
X8298700Y-15072043D01*
X8317748Y-15081567D01*
X8327271Y-15091091D01*
X8336795Y-15110138D01*
X8336795Y-15157757D01*
X8327271Y-15176805D01*
X8317748Y-15186329D01*
X8298700Y-15195853D01*
X8241557Y-15195853D01*
X8222509Y-15186329D01*
X8212986Y-15176805D01*
X8460605Y-14995853D02*
X8479652Y-14995853D01*
X8498700Y-15005377D01*
X8508224Y-15014900D01*
X8517748Y-15033948D01*
X8527271Y-15072043D01*
X8527271Y-15119662D01*
X8517748Y-15157757D01*
X8508224Y-15176805D01*
X8498700Y-15186329D01*
X8479652Y-15195853D01*
X8460605Y-15195853D01*
X8441557Y-15186329D01*
X8432033Y-15176805D01*
X8422510Y-15157757D01*
X8412986Y-15119662D01*
X8412986Y-15072043D01*
X8422510Y-15033948D01*
X8432033Y-15014900D01*
X8441557Y-15005377D01*
X8460605Y-14995853D01*
X8651081Y-14995853D02*
X8670129Y-14995853D01*
X8689176Y-15005377D01*
X8698700Y-15014900D01*
X8708224Y-15033948D01*
X8717748Y-15072043D01*
X8717748Y-15119662D01*
X8708224Y-15157757D01*
X8698700Y-15176805D01*
X8689176Y-15186329D01*
X8670129Y-15195853D01*
X8651081Y-15195853D01*
X8632033Y-15186329D01*
X8622510Y-15176805D01*
X8612986Y-15157757D01*
X8603462Y-15119662D01*
X8603462Y-15072043D01*
X8612986Y-15033948D01*
X8622510Y-15014900D01*
X8632033Y-15005377D01*
X8651081Y-14995853D01*
X8803462Y-15195853D02*
X8803462Y-15062519D01*
X8803462Y-15081567D02*
X8812986Y-15072043D01*
X8832033Y-15062519D01*
X8860605Y-15062519D01*
X8879652Y-15072043D01*
X8889176Y-15091091D01*
X8889176Y-15195853D01*
X8889176Y-15091091D02*
X8898700Y-15072043D01*
X8917748Y-15062519D01*
X8946319Y-15062519D01*
X8965367Y-15072043D01*
X8974890Y-15091091D01*
X8974890Y-15195853D01*
X9070129Y-15195853D02*
X9070129Y-15062519D01*
X9070129Y-15081567D02*
X9079652Y-15072043D01*
X9098700Y-15062519D01*
X9127271Y-15062519D01*
X9146319Y-15072043D01*
X9155843Y-15091091D01*
X9155843Y-15195853D01*
X9155843Y-15091091D02*
X9165367Y-15072043D01*
X9184414Y-15062519D01*
X9212986Y-15062519D01*
X9232033Y-15072043D01*
X9241557Y-15091091D01*
X9241557Y-15195853D01*
X9632033Y-14986329D02*
X9460605Y-15243472D01*
X9889176Y-14995853D02*
X9908224Y-14995853D01*
X9927271Y-15005377D01*
X9936795Y-15014900D01*
X9946319Y-15033948D01*
X9955843Y-15072043D01*
X9955843Y-15119662D01*
X9946319Y-15157757D01*
X9936795Y-15176805D01*
X9927271Y-15186329D01*
X9908224Y-15195853D01*
X9889176Y-15195853D01*
X9870129Y-15186329D01*
X9860605Y-15176805D01*
X9851081Y-15157757D01*
X9841557Y-15119662D01*
X9841557Y-15072043D01*
X9851081Y-15033948D01*
X9860605Y-15014900D01*
X9870129Y-15005377D01*
X9889176Y-14995853D01*
X10041557Y-15176805D02*
X10051081Y-15186329D01*
X10041557Y-15195853D01*
X10032033Y-15186329D01*
X10041557Y-15176805D01*
X10041557Y-15195853D01*
X10174890Y-14995853D02*
X10193938Y-14995853D01*
X10212986Y-15005377D01*
X10222510Y-15014900D01*
X10232033Y-15033948D01*
X10241557Y-15072043D01*
X10241557Y-15119662D01*
X10232033Y-15157757D01*
X10222510Y-15176805D01*
X10212986Y-15186329D01*
X10193938Y-15195853D01*
X10174890Y-15195853D01*
X10155843Y-15186329D01*
X10146319Y-15176805D01*
X10136795Y-15157757D01*
X10127271Y-15119662D01*
X10127271Y-15072043D01*
X10136795Y-15033948D01*
X10146319Y-15014900D01*
X10155843Y-15005377D01*
X10174890Y-14995853D01*
X10422510Y-14995853D02*
X10327271Y-14995853D01*
X10317748Y-15091091D01*
X10327271Y-15081567D01*
X10346319Y-15072043D01*
X10393938Y-15072043D01*
X10412986Y-15081567D01*
X10422510Y-15091091D01*
X10432033Y-15110138D01*
X10432033Y-15157757D01*
X10422510Y-15176805D01*
X10412986Y-15186329D01*
X10393938Y-15195853D01*
X10346319Y-15195853D01*
X10327271Y-15186329D01*
X10317748Y-15176805D01*
X10622510Y-15195853D02*
X10508224Y-15195853D01*
X10565367Y-15195853D02*
X10565367Y-14995853D01*
X10546319Y-15024424D01*
X10527271Y-15043472D01*
X10508224Y-15052996D01*
X10698700Y-15014900D02*
X10708224Y-15005377D01*
X10727271Y-14995853D01*
X10774890Y-14995853D01*
X10793938Y-15005377D01*
X10803462Y-15014900D01*
X10812986Y-15033948D01*
X10812986Y-15052996D01*
X10803462Y-15081567D01*
X10689176Y-15195853D01*
X10812986Y-15195853D01*
X10889176Y-14995853D02*
X10889176Y-15033948D01*
X10965367Y-14995853D02*
X10965367Y-15033948D01*
X11260605Y-15272043D02*
X11251081Y-15262519D01*
X11232033Y-15233948D01*
X11222509Y-15214900D01*
X11212986Y-15186329D01*
X11203462Y-15138710D01*
X11203462Y-15100615D01*
X11212986Y-15052996D01*
X11222509Y-15024424D01*
X11232033Y-15005377D01*
X11251081Y-14976805D01*
X11260605Y-14967281D01*
X11327271Y-15014900D02*
X11336795Y-15005377D01*
X11355843Y-14995853D01*
X11403462Y-14995853D01*
X11422509Y-15005377D01*
X11432033Y-15014900D01*
X11441557Y-15033948D01*
X11441557Y-15052996D01*
X11432033Y-15081567D01*
X11317748Y-15195853D01*
X11441557Y-15195853D01*
X11679652Y-15195853D02*
X11679652Y-14995853D01*
X11765367Y-15195853D02*
X11765367Y-15091091D01*
X11755843Y-15072043D01*
X11736795Y-15062519D01*
X11708224Y-15062519D01*
X11689176Y-15072043D01*
X11679652Y-15081567D01*
X11889176Y-15195853D02*
X11870128Y-15186329D01*
X11860605Y-15176805D01*
X11851081Y-15157757D01*
X11851081Y-15100615D01*
X11860605Y-15081567D01*
X11870128Y-15072043D01*
X11889176Y-15062519D01*
X11917748Y-15062519D01*
X11936795Y-15072043D01*
X11946319Y-15081567D01*
X11955843Y-15100615D01*
X11955843Y-15157757D01*
X11946319Y-15176805D01*
X11936795Y-15186329D01*
X11917748Y-15195853D01*
X11889176Y-15195853D01*
X12070128Y-15195853D02*
X12051081Y-15186329D01*
X12041557Y-15167281D01*
X12041557Y-14995853D01*
X12222509Y-15186329D02*
X12203462Y-15195853D01*
X12165367Y-15195853D01*
X12146319Y-15186329D01*
X12136795Y-15167281D01*
X12136795Y-15091091D01*
X12146319Y-15072043D01*
X12165367Y-15062519D01*
X12203462Y-15062519D01*
X12222509Y-15072043D01*
X12232033Y-15091091D01*
X12232033Y-15110138D01*
X12136795Y-15129186D01*
X12308224Y-15186329D02*
X12327271Y-15195853D01*
X12365367Y-15195853D01*
X12384414Y-15186329D01*
X12393938Y-15167281D01*
X12393938Y-15157757D01*
X12384414Y-15138710D01*
X12365367Y-15129186D01*
X12336795Y-15129186D01*
X12317748Y-15119662D01*
X12308224Y-15100615D01*
X12308224Y-15091091D01*
X12317748Y-15072043D01*
X12336795Y-15062519D01*
X12365367Y-15062519D01*
X12384414Y-15072043D01*
X12460605Y-15272043D02*
X12470128Y-15262519D01*
X12489176Y-15233948D01*
X12498700Y-15214900D01*
X12508224Y-15186329D01*
X12517748Y-15138710D01*
X12517748Y-15100615D01*
X12508224Y-15052996D01*
X12498700Y-15024424D01*
X12489176Y-15005377D01*
X12470128Y-14976805D01*
X12460605Y-14967281D01*
X7488700Y-15269377D02*
X7688700Y-15469377D01*
X7688700Y-15269377D02*
X7488700Y-15469377D01*
X7688700Y-15369377D02*
G75*
G03*
X7688700Y-15369377I-100000J0D01*
G01*
X7936795Y-15278900D02*
X7946319Y-15269377D01*
X7965367Y-15259853D01*
X8012986Y-15259853D01*
X8032033Y-15269377D01*
X8041557Y-15278900D01*
X8051081Y-15297948D01*
X8051081Y-15316996D01*
X8041557Y-15345567D01*
X7927271Y-15459853D01*
X8051081Y-15459853D01*
X8136795Y-15440805D02*
X8146319Y-15450329D01*
X8136795Y-15459853D01*
X8127271Y-15450329D01*
X8136795Y-15440805D01*
X8136795Y-15459853D01*
X8222509Y-15278900D02*
X8232033Y-15269377D01*
X8251081Y-15259853D01*
X8298700Y-15259853D01*
X8317748Y-15269377D01*
X8327271Y-15278900D01*
X8336795Y-15297948D01*
X8336795Y-15316996D01*
X8327271Y-15345567D01*
X8212986Y-15459853D01*
X8336795Y-15459853D01*
X8460605Y-15259853D02*
X8479652Y-15259853D01*
X8498700Y-15269377D01*
X8508224Y-15278900D01*
X8517748Y-15297948D01*
X8527271Y-15336043D01*
X8527271Y-15383662D01*
X8517748Y-15421757D01*
X8508224Y-15440805D01*
X8498700Y-15450329D01*
X8479652Y-15459853D01*
X8460605Y-15459853D01*
X8441557Y-15450329D01*
X8432033Y-15440805D01*
X8422510Y-15421757D01*
X8412986Y-15383662D01*
X8412986Y-15336043D01*
X8422510Y-15297948D01*
X8432033Y-15278900D01*
X8441557Y-15269377D01*
X8460605Y-15259853D01*
X8651081Y-15259853D02*
X8670129Y-15259853D01*
X8689176Y-15269377D01*
X8698700Y-15278900D01*
X8708224Y-15297948D01*
X8717748Y-15336043D01*
X8717748Y-15383662D01*
X8708224Y-15421757D01*
X8698700Y-15440805D01*
X8689176Y-15450329D01*
X8670129Y-15459853D01*
X8651081Y-15459853D01*
X8632033Y-15450329D01*
X8622510Y-15440805D01*
X8612986Y-15421757D01*
X8603462Y-15383662D01*
X8603462Y-15336043D01*
X8612986Y-15297948D01*
X8622510Y-15278900D01*
X8632033Y-15269377D01*
X8651081Y-15259853D01*
X8803462Y-15459853D02*
X8803462Y-15326519D01*
X8803462Y-15345567D02*
X8812986Y-15336043D01*
X8832033Y-15326519D01*
X8860605Y-15326519D01*
X8879652Y-15336043D01*
X8889176Y-15355091D01*
X8889176Y-15459853D01*
X8889176Y-15355091D02*
X8898700Y-15336043D01*
X8917748Y-15326519D01*
X8946319Y-15326519D01*
X8965367Y-15336043D01*
X8974890Y-15355091D01*
X8974890Y-15459853D01*
X9070129Y-15459853D02*
X9070129Y-15326519D01*
X9070129Y-15345567D02*
X9079652Y-15336043D01*
X9098700Y-15326519D01*
X9127271Y-15326519D01*
X9146319Y-15336043D01*
X9155843Y-15355091D01*
X9155843Y-15459853D01*
X9155843Y-15355091D02*
X9165367Y-15336043D01*
X9184414Y-15326519D01*
X9212986Y-15326519D01*
X9232033Y-15336043D01*
X9241557Y-15355091D01*
X9241557Y-15459853D01*
X9632033Y-15250329D02*
X9460605Y-15507472D01*
X9889176Y-15259853D02*
X9908224Y-15259853D01*
X9927271Y-15269377D01*
X9936795Y-15278900D01*
X9946319Y-15297948D01*
X9955843Y-15336043D01*
X9955843Y-15383662D01*
X9946319Y-15421757D01*
X9936795Y-15440805D01*
X9927271Y-15450329D01*
X9908224Y-15459853D01*
X9889176Y-15459853D01*
X9870129Y-15450329D01*
X9860605Y-15440805D01*
X9851081Y-15421757D01*
X9841557Y-15383662D01*
X9841557Y-15336043D01*
X9851081Y-15297948D01*
X9860605Y-15278900D01*
X9870129Y-15269377D01*
X9889176Y-15259853D01*
X10041557Y-15440805D02*
X10051081Y-15450329D01*
X10041557Y-15459853D01*
X10032033Y-15450329D01*
X10041557Y-15440805D01*
X10041557Y-15459853D01*
X10174890Y-15259853D02*
X10193938Y-15259853D01*
X10212986Y-15269377D01*
X10222510Y-15278900D01*
X10232033Y-15297948D01*
X10241557Y-15336043D01*
X10241557Y-15383662D01*
X10232033Y-15421757D01*
X10222510Y-15440805D01*
X10212986Y-15450329D01*
X10193938Y-15459853D01*
X10174890Y-15459853D01*
X10155843Y-15450329D01*
X10146319Y-15440805D01*
X10136795Y-15421757D01*
X10127271Y-15383662D01*
X10127271Y-15336043D01*
X10136795Y-15297948D01*
X10146319Y-15278900D01*
X10155843Y-15269377D01*
X10174890Y-15259853D01*
X10355843Y-15345567D02*
X10336795Y-15336043D01*
X10327271Y-15326519D01*
X10317748Y-15307472D01*
X10317748Y-15297948D01*
X10327271Y-15278900D01*
X10336795Y-15269377D01*
X10355843Y-15259853D01*
X10393938Y-15259853D01*
X10412986Y-15269377D01*
X10422510Y-15278900D01*
X10432033Y-15297948D01*
X10432033Y-15307472D01*
X10422510Y-15326519D01*
X10412986Y-15336043D01*
X10393938Y-15345567D01*
X10355843Y-15345567D01*
X10336795Y-15355091D01*
X10327271Y-15364615D01*
X10317748Y-15383662D01*
X10317748Y-15421757D01*
X10327271Y-15440805D01*
X10336795Y-15450329D01*
X10355843Y-15459853D01*
X10393938Y-15459853D01*
X10412986Y-15450329D01*
X10422510Y-15440805D01*
X10432033Y-15421757D01*
X10432033Y-15383662D01*
X10422510Y-15364615D01*
X10412986Y-15355091D01*
X10393938Y-15345567D01*
X10603462Y-15259853D02*
X10565367Y-15259853D01*
X10546319Y-15269377D01*
X10536795Y-15278900D01*
X10517748Y-15307472D01*
X10508224Y-15345567D01*
X10508224Y-15421757D01*
X10517748Y-15440805D01*
X10527271Y-15450329D01*
X10546319Y-15459853D01*
X10584414Y-15459853D01*
X10603462Y-15450329D01*
X10612986Y-15440805D01*
X10622510Y-15421757D01*
X10622510Y-15374138D01*
X10612986Y-15355091D01*
X10603462Y-15345567D01*
X10584414Y-15336043D01*
X10546319Y-15336043D01*
X10527271Y-15345567D01*
X10517748Y-15355091D01*
X10508224Y-15374138D01*
X10793938Y-15259853D02*
X10755843Y-15259853D01*
X10736795Y-15269377D01*
X10727271Y-15278900D01*
X10708224Y-15307472D01*
X10698700Y-15345567D01*
X10698700Y-15421757D01*
X10708224Y-15440805D01*
X10717748Y-15450329D01*
X10736795Y-15459853D01*
X10774890Y-15459853D01*
X10793938Y-15450329D01*
X10803462Y-15440805D01*
X10812986Y-15421757D01*
X10812986Y-15374138D01*
X10803462Y-15355091D01*
X10793938Y-15345567D01*
X10774890Y-15336043D01*
X10736795Y-15336043D01*
X10717748Y-15345567D01*
X10708224Y-15355091D01*
X10698700Y-15374138D01*
X10889176Y-15259853D02*
X10889176Y-15297948D01*
X10965367Y-15259853D02*
X10965367Y-15297948D01*
X11260605Y-15536043D02*
X11251081Y-15526519D01*
X11232033Y-15497948D01*
X11222509Y-15478900D01*
X11212986Y-15450329D01*
X11203462Y-15402710D01*
X11203462Y-15364615D01*
X11212986Y-15316996D01*
X11222509Y-15288424D01*
X11232033Y-15269377D01*
X11251081Y-15240805D01*
X11260605Y-15231281D01*
X11317748Y-15259853D02*
X11451081Y-15259853D01*
X11365367Y-15459853D01*
X11679652Y-15459853D02*
X11679652Y-15259853D01*
X11765367Y-15459853D02*
X11765367Y-15355091D01*
X11755843Y-15336043D01*
X11736795Y-15326519D01*
X11708224Y-15326519D01*
X11689176Y-15336043D01*
X11679652Y-15345567D01*
X11889176Y-15459853D02*
X11870128Y-15450329D01*
X11860605Y-15440805D01*
X11851081Y-15421757D01*
X11851081Y-15364615D01*
X11860605Y-15345567D01*
X11870128Y-15336043D01*
X11889176Y-15326519D01*
X11917748Y-15326519D01*
X11936795Y-15336043D01*
X11946319Y-15345567D01*
X11955843Y-15364615D01*
X11955843Y-15421757D01*
X11946319Y-15440805D01*
X11936795Y-15450329D01*
X11917748Y-15459853D01*
X11889176Y-15459853D01*
X12070128Y-15459853D02*
X12051081Y-15450329D01*
X12041557Y-15431281D01*
X12041557Y-15259853D01*
X12222509Y-15450329D02*
X12203462Y-15459853D01*
X12165367Y-15459853D01*
X12146319Y-15450329D01*
X12136795Y-15431281D01*
X12136795Y-15355091D01*
X12146319Y-15336043D01*
X12165367Y-15326519D01*
X12203462Y-15326519D01*
X12222509Y-15336043D01*
X12232033Y-15355091D01*
X12232033Y-15374138D01*
X12136795Y-15393186D01*
X12308224Y-15450329D02*
X12327271Y-15459853D01*
X12365367Y-15459853D01*
X12384414Y-15450329D01*
X12393938Y-15431281D01*
X12393938Y-15421757D01*
X12384414Y-15402710D01*
X12365367Y-15393186D01*
X12336795Y-15393186D01*
X12317748Y-15383662D01*
X12308224Y-15364615D01*
X12308224Y-15355091D01*
X12317748Y-15336043D01*
X12336795Y-15326519D01*
X12365367Y-15326519D01*
X12384414Y-15336043D01*
X12460605Y-15536043D02*
X12470128Y-15526519D01*
X12489176Y-15497948D01*
X12498700Y-15478900D01*
X12508224Y-15450329D01*
X12517748Y-15402710D01*
X12517748Y-15364615D01*
X12508224Y-15316996D01*
X12498700Y-15288424D01*
X12489176Y-15269377D01*
X12470128Y-15240805D01*
X12460605Y-15231281D01*
M02*
