M48
; DRILL file {KiCad 6.99.0-a9ca49a600~144~ubuntu20.04.1} date Пн 27 дек 2021 09:32:32
; FORMAT={-:-/ absolute / inch / decimal}
; #@! TF.CreationDate,2021-12-27T09:32:32+02:00
; #@! TF.GenerationSoftware,Kicad,Pcbnew,6.99.0-a9ca49a600~144~ubuntu20.04.1
; #@! TF.FileFunction,Plated,1,2,PTH
FMAT,2
INCH
; #@! TA.AperFunction,Plated,PTH,ViaDrill
T1C0.0157
; #@! TA.AperFunction,Plated,PTH,ComponentDrill
T2C0.0320
; #@! TA.AperFunction,Plated,PTH,ComponentDrill
T3C0.0394
; #@! TA.AperFunction,Plated,PTH,ComponentDrill
T4C0.0500
; #@! TA.AperFunction,Plated,PTH,ComponentDrill
T5C0.0512
; #@! TA.AperFunction,Plated,PTH,ComponentDrill
T6C0.0866
%
G90
G05
T1
X3.232Y-3.198
X3.232Y-3.868
X3.236Y-2.532
X3.2533Y-3.0059
X3.2533Y-3.6752
X3.2533Y-4.3445
X3.53Y-3.325
X3.532Y-3.198
X3.532Y-3.868
X3.5322Y-2.532
X3.632Y-3.696
X3.696Y-3.882
X3.7081Y-2.9193
X3.7081Y-3.5886
X3.7081Y-4.2579
X3.724Y-3.692
X3.94Y-2.73
X3.944Y-3.398
X3.948Y-2.058
X3.962Y-2.5335
X3.962Y-3.2028
X3.962Y-3.872
X4.24Y-2.73
X4.244Y-3.398
X4.248Y-2.058
X4.376Y-2.062
X4.382Y-3.41
X4.4Y-2.764
X4.4167Y-2.4469
X4.4167Y-3.1161
X4.4167Y-3.7854
X4.652Y-2.494
X4.652Y-3.162
X4.656Y-1.8208
X4.6646Y-3.7927
X4.6707Y-2.2972
X4.6707Y-2.9665
X4.6707Y-3.6358
X4.794Y-2.576
X4.9502Y-4.3008
X4.952Y-3.162
X4.9532Y-2.494
X4.9544Y-1.82
X5.082Y-3.184
X5.094Y-1.824
X5.098Y-2.506
X5.1246Y-4.688
X5.1254Y-2.2106
X5.1254Y-2.8799
X5.1254Y-3.5492
X5.3593Y-2.7513
X5.362Y-2.098
X5.3642Y-3.424
X5.3793Y-2.5579
X5.3793Y-3.2272
X5.3793Y-3.8967
X5.424Y-4.688
X5.454Y-2.864
X5.6586Y-2.752
X5.662Y-2.098
X5.6662Y-3.424
X5.796Y-3.976
X5.826Y-4.242
X5.828Y-2.104
X5.832Y-3.428
X5.8341Y-2.4713
X5.8341Y-3.1406
X5.8341Y-3.81
X5.8589Y-4.7423
X6.07Y-2.182
X6.0733Y-3.518
X6.082Y-2.854
X6.088Y-2.6516
X6.088Y-3.3209
X6.088Y-3.9902
X6.1494Y-4.8207
X6.191Y-4.539
X6.37Y-2.182
X6.374Y-3.518
X6.382Y-2.854
X6.532Y-3.52
X6.54Y-2.186
X6.54Y-2.908
X6.5427Y-2.565
X6.5427Y-3.2343
X6.5427Y-3.9035
X6.5681Y-4.114
X6.584Y-2.782
X6.61Y-2.225
X6.613Y-4.1134
X6.738Y-4.448
X6.768Y-3.64
X6.8053Y-3.1177
X6.8845Y-4.5195
X7.0Y-2.7177
X7.0Y-2.8177
X7.0Y-2.9177
X7.0Y-3.0177
X7.0Y-3.1177
X7.0Y-3.2177
X7.0Y-3.3177
X7.01Y-4.9274
X7.08Y-2.766
X7.08Y-2.866
X7.08Y-2.966
X7.08Y-3.066
X7.085Y-3.166
X7.085Y-3.266
X7.09Y-3.365
X7.16Y-4.67
X7.206Y-3.21
X7.23Y-3.59
X7.3Y-3.515
T2
X6.678Y-2.3177
X6.678Y-2.4177
X6.678Y-2.5177
X6.678Y-2.6177
X6.678Y-2.7177
X6.678Y-2.8177
X6.678Y-2.9177
X6.678Y-3.0177
X6.678Y-3.1177
X6.678Y-3.2177
X6.678Y-3.3177
X6.678Y-3.4177
X6.7302Y-2.2677
X6.7302Y-2.3677
X6.7302Y-2.4677
X6.7302Y-2.5677
X6.7302Y-2.6677
X6.7302Y-2.7677
X6.7302Y-2.8677
X6.7302Y-2.9677
X6.7302Y-3.0677
X6.7302Y-3.1677
X6.7302Y-3.2677
X6.7302Y-3.3677
X6.8476Y-3.5673
X6.9476Y-3.5673
X7.0476Y-3.5673
X7.1476Y-3.5673
X7.278Y-2.3177
X7.278Y-2.4177
X7.278Y-2.5177
X7.278Y-2.6177
X7.278Y-2.7177
X7.278Y-2.8177
X7.278Y-2.9177
X7.278Y-3.0177
X7.278Y-3.1177
X7.278Y-3.2177
X7.278Y-3.3177
X7.278Y-3.4177
X7.3294Y-2.2677
X7.3294Y-2.3677
X7.3294Y-2.4677
X7.3294Y-2.5677
X7.3294Y-2.6677
X7.3294Y-2.7677
X7.3294Y-2.8677
X7.3294Y-2.9677
X7.3294Y-3.0677
X7.3294Y-3.1677
X7.3294Y-3.2677
X7.3294Y-3.3677
T4
X3.1854Y-2.9213
X3.1854Y-3.5906
X3.1854Y-4.2598
X3.3823Y-3.0039
X3.3823Y-3.6732
X3.3823Y-4.3425
X3.5791Y-2.9213
X3.5791Y-3.5906
X3.5791Y-4.2598
X3.8941Y-2.4488
X3.8941Y-3.1181
X3.8941Y-3.7874
X4.0909Y-2.5315
X4.0909Y-3.2008
X4.0909Y-3.8701
X4.2878Y-2.4488
X4.2878Y-3.1181
X4.2878Y-3.7874
X4.6028Y-2.2126
X4.6028Y-2.8819
X4.6028Y-3.5512
X4.7996Y-2.2953
X4.7996Y-2.9646
X4.7996Y-3.6339
X4.9965Y-2.2126
X4.9965Y-2.8819
X4.9965Y-3.5512
X5.0791Y-4.2988
X5.276Y-4.2161
X5.3114Y-2.4732
X5.3114Y-3.1425
X5.3114Y-3.812
X5.4728Y-4.2988
X5.5083Y-2.5559
X5.5083Y-3.2252
X5.5083Y-3.8947
X5.7051Y-2.4732
X5.7051Y-3.1425
X5.7051Y-3.812
X5.9139Y-4.3549
X6.0004Y-3.9075
X6.0201Y-2.5669
X6.0201Y-3.2362
X6.1255Y-4.326
X6.1972Y-3.9902
X6.2169Y-2.6496
X6.2169Y-3.3189
X6.2942Y-4.4568
X6.3941Y-3.9075
X6.4138Y-2.5669
X6.4138Y-3.2362
X6.6484Y-4.7724
X6.6752Y-4.5606
X6.8452Y-4.4315
T5
X7.067Y-3.695
X7.323Y-3.695
T6
X3.7402Y-2.63
X3.7402Y-3.3
X4.88Y-4.1
X5.865Y-2.75
X6.575Y-4.345
X6.745Y-3.815
X7.3Y-4.19
T3
G00X6.9453Y-3.8823
M15
G01X6.9256Y-3.8823
M16
G05
G00X6.9453Y-3.9788
M15
G01X6.9256Y-3.9788
M16
G05
G00X7.0043Y-3.8134
M15
G01X6.9846Y-3.8134
M16
G05
G00X7.0043Y-4.0477
M15
G01X6.9846Y-4.0477
M16
G05
G00X7.1618Y-3.8134
M15
G01X7.1421Y-3.8134
M16
G05
G00X7.1618Y-4.0477
M15
G01X7.1421Y-4.0477
M16
G05
G00X7.2799Y-3.8134
M15
G01X7.2602Y-3.8134
M16
G05
G00X7.2799Y-4.0477
M15
G01X7.2602Y-4.0477
M16
G05
T0
M30
