M48
; DRILL file {KiCad 6.99.0-a9ca49a600~144~ubuntu20.04.1} date Пн 27 дек 2021 10:08:36
; FORMAT={-:-/ absolute / metric / decimal}
; #@! TF.CreationDate,2021-12-27T10:08:36+02:00
; #@! TF.GenerationSoftware,Kicad,Pcbnew,6.99.0-a9ca49a600~144~ubuntu20.04.1
; #@! TF.FileFunction,NonPlated,1,2,NPTH
FMAT,2
METRIC
; #@! TA.AperFunction,NonPlated,NPTH,ComponentDrill
T1C0.991
; #@! TA.AperFunction,NonPlated,NPTH,ComponentDrill
T2C1.200
; #@! TA.AperFunction,NonPlated,NPTH,ComponentDrill
T3C1.702
; #@! TA.AperFunction,NonPlated,NPTH,ComponentDrill
T4C3.429
%
G90
G05
T1
X80.69Y-66.2
X80.69Y-83.2
X80.69Y-100.2
X91.13Y-66.2
X91.13Y-83.2
X91.13Y-100.2
X98.69Y-54.2
X98.69Y-71.2
X98.69Y-88.2
X109.13Y-54.2
X109.13Y-71.2
X109.13Y-88.2
X116.69Y-48.2
X116.69Y-65.2
X116.69Y-82.2
X127.13Y-48.2
X127.13Y-65.2
X127.13Y-82.2
X128.79Y-117.19
X134.69Y-54.82
X134.69Y-71.82
X134.69Y-88.825
X139.23Y-117.19
X145.13Y-54.82
X145.13Y-71.82
X145.13Y-88.825
X147.931Y-118.286
X152.19Y-91.25
X152.69Y-57.2
X152.69Y-74.2
X158.015Y-120.988
X162.63Y-91.25
X163.13Y-57.2
X163.13Y-74.2
X175.687Y-125.411
X180.907Y-116.369
T2
X179.46Y-98.961
X179.46Y-100.711
X186.46Y-98.961
X186.46Y-100.711
T3
X80.41Y-70.4
X80.41Y-87.4
X80.41Y-104.4
X91.41Y-70.4
X91.41Y-87.4
X91.41Y-104.4
X98.41Y-58.4
X98.41Y-75.4
X98.41Y-92.4
X109.41Y-58.4
X109.41Y-75.4
X109.41Y-92.4
X116.41Y-52.4
X116.41Y-69.4
X116.41Y-86.4
X127.41Y-52.4
X127.41Y-69.4
X127.41Y-86.4
X128.51Y-112.99
X134.41Y-59.02
X134.41Y-76.02
X134.41Y-93.025
X139.51Y-112.99
X145.41Y-59.02
X145.41Y-76.02
X145.41Y-93.025
X148.747Y-114.156
X151.91Y-95.45
X152.41Y-61.4
X152.41Y-78.4
X159.373Y-117.004
X162.91Y-95.45
X163.41Y-61.4
X163.41Y-78.4
X171.91Y-123.553
X177.41Y-114.027
T4
X85.91Y-70.4
X85.91Y-87.4
X85.91Y-104.4
X103.91Y-58.4
X103.91Y-75.4
X103.91Y-92.4
X121.91Y-52.4
X121.91Y-69.4
X121.91Y-86.4
X134.01Y-112.99
X139.91Y-59.02
X139.91Y-76.02
X139.91Y-93.025
X154.06Y-115.58
X157.41Y-95.45
X157.91Y-61.4
X157.91Y-78.4
X174.66Y-118.79
T0
M30
