M48
; DRILL file {KiCad 6.99.0-a9ca49a600~144~ubuntu20.04.1} date Чт 30 дек 2021 21:08:43
; FORMAT={-:-/ absolute / metric / decimal}
; #@! TF.CreationDate,2021-12-30T21:08:43+02:00
; #@! TF.GenerationSoftware,Kicad,Pcbnew,6.99.0-a9ca49a600~144~ubuntu20.04.1
; #@! TF.FileFunction,Plated,1,2,PTH
FMAT,2
METRIC
; #@! TA.AperFunction,Plated,PTH,ViaDrill
T1C0.400
; #@! TA.AperFunction,Plated,PTH,ComponentDrill
T2C0.813
; #@! TA.AperFunction,Plated,PTH,ComponentDrill
T3C1.000
; #@! TA.AperFunction,Plated,PTH,ComponentDrill
T4C1.270
; #@! TA.AperFunction,Plated,PTH,ComponentDrill
T5C1.300
; #@! TA.AperFunction,Plated,PTH,ComponentDrill
T6C2.200
%
G90
G05
T1
X82.093Y-81.229
X82.093Y-98.247
X82.194Y-64.313
X82.635Y-76.35
X82.635Y-93.35
X82.635Y-110.35
X89.662Y-84.455
X89.713Y-81.229
X89.713Y-98.247
X89.717Y-64.313
X92.253Y-93.878
X93.878Y-98.603
X94.185Y-74.15
X94.185Y-91.15
X94.185Y-108.15
X94.59Y-93.777
X100.076Y-69.342
X100.178Y-86.309
X100.279Y-52.273
X100.635Y-64.35
X100.635Y-81.35
X100.635Y-98.35
X107.696Y-69.342
X107.798Y-86.309
X107.899Y-52.273
X111.15Y-52.375
X111.303Y-86.614
X111.76Y-70.206
X112.185Y-62.15
X112.185Y-79.15
X112.185Y-96.15
X118.161Y-63.348
X118.161Y-80.315
X118.262Y-46.248
X118.48Y-96.334
X118.635Y-58.35
X118.635Y-75.35
X118.635Y-92.35
X121.768Y-65.43
X125.735Y-109.24
X125.781Y-80.315
X125.812Y-63.348
X125.842Y-46.228
X129.083Y-80.874
X129.388Y-46.33
X129.489Y-63.652
X130.165Y-119.075
X130.185Y-56.15
X130.185Y-73.15
X130.185Y-90.15
X136.127Y-69.883
X136.195Y-53.289
X136.25Y-86.97
X136.635Y-64.97
X136.635Y-81.97
X136.635Y-98.975
X137.77Y-119.075
X138.532Y-72.746
X143.729Y-69.901
X143.815Y-53.289
X143.92Y-86.97
X147.218Y-100.99
X147.98Y-107.747
X148.031Y-53.442
X148.133Y-87.071
X148.185Y-62.77
X148.185Y-79.77
X148.185Y-96.775
X148.815Y-120.455
X154.178Y-55.423
X154.263Y-89.357
X154.483Y-72.492
X154.635Y-67.35
X154.635Y-84.35
X154.635Y-101.35
X156.194Y-122.447
X157.251Y-115.291
X161.798Y-55.423
X161.9Y-89.357
X162.103Y-72.492
X165.913Y-89.408
X166.116Y-55.524
X166.116Y-73.863
X166.185Y-65.15
X166.185Y-82.15
X166.185Y-99.15
X166.83Y-104.496
X167.234Y-70.663
X167.894Y-56.515
X167.97Y-104.48
X171.145Y-112.979
X171.907Y-92.456
X172.855Y-79.19
X174.866Y-114.795
X177.8Y-69.03
X177.8Y-71.57
X177.8Y-74.11
X177.8Y-76.65
X177.8Y-79.19
X177.8Y-81.73
X177.8Y-84.268
X178.053Y-125.157
X179.832Y-70.256
X179.832Y-72.796
X179.832Y-75.336
X179.832Y-77.876
X179.959Y-80.416
X179.959Y-82.956
X180.086Y-85.471
X181.863Y-118.617
X183.032Y-81.534
X183.642Y-91.186
X185.42Y-89.281
T2
X169.62Y-58.87
X169.62Y-61.41
X169.62Y-63.95
X169.62Y-66.49
X169.62Y-69.03
X169.62Y-71.57
X169.62Y-74.11
X169.62Y-76.65
X169.62Y-79.19
X169.62Y-81.73
X169.62Y-84.27
X169.62Y-86.81
X170.946Y-57.6
X170.946Y-60.14
X170.946Y-62.68
X170.946Y-65.22
X170.946Y-67.76
X170.946Y-70.3
X170.946Y-72.84
X170.946Y-75.38
X170.946Y-77.92
X170.946Y-80.46
X170.946Y-83.0
X170.946Y-85.54
X173.93Y-90.608
X176.47Y-90.608
X179.01Y-90.608
X181.55Y-90.608
X184.86Y-58.87
X184.86Y-61.41
X184.86Y-63.95
X184.86Y-66.49
X184.86Y-69.03
X184.86Y-71.57
X184.86Y-74.11
X184.86Y-76.65
X184.86Y-79.19
X184.86Y-81.73
X184.86Y-84.27
X184.86Y-86.81
X186.166Y-57.6
X186.166Y-60.14
X186.166Y-62.68
X186.166Y-65.22
X186.166Y-67.76
X186.166Y-70.3
X186.166Y-72.84
X186.166Y-75.38
X186.166Y-77.92
X186.166Y-80.46
X186.166Y-83.0
X186.166Y-85.54
T4
X80.91Y-74.2
X80.91Y-91.2
X80.91Y-108.2
X85.91Y-76.3
X85.91Y-93.3
X85.91Y-110.3
X90.91Y-74.2
X90.91Y-91.2
X90.91Y-108.2
X98.91Y-62.2
X98.91Y-79.2
X98.91Y-96.2
X103.91Y-64.3
X103.91Y-81.3
X103.91Y-98.3
X108.91Y-62.2
X108.91Y-79.2
X108.91Y-96.2
X116.91Y-56.2
X116.91Y-73.2
X116.91Y-90.2
X121.91Y-58.3
X121.91Y-75.3
X121.91Y-92.3
X126.91Y-56.2
X126.91Y-73.2
X126.91Y-90.2
X129.01Y-109.19
X134.01Y-107.09
X134.91Y-62.82
X134.91Y-79.82
X134.91Y-96.825
X139.01Y-109.19
X139.91Y-64.92
X139.91Y-81.92
X139.91Y-98.925
X144.91Y-62.82
X144.91Y-79.82
X144.91Y-96.825
X150.214Y-110.615
X152.41Y-99.25
X152.91Y-65.2
X152.91Y-82.2
X155.587Y-109.881
X157.41Y-101.35
X157.91Y-67.3
X157.91Y-84.3
X159.873Y-113.204
X162.41Y-99.25
X162.91Y-65.2
X162.91Y-82.2
X168.869Y-121.22
X169.55Y-115.84
X173.869Y-112.56
T5
X179.503Y-93.853
X186.003Y-93.853
T6
X95.0Y-66.802
X95.0Y-83.82
X123.952Y-104.14
X148.971Y-69.85
X167.005Y-110.363
X171.323Y-96.901
X185.42Y-106.426
T3
X176.41Y-98.611G85X175.91Y-98.611
G05
X176.41Y-101.061G85X175.91Y-101.061
G05
X177.91Y-96.861G85X177.41Y-96.861
G05
X177.91Y-102.811G85X177.41Y-102.811
G05
X181.91Y-96.861G85X181.41Y-96.861
G05
X181.91Y-102.811G85X181.41Y-102.811
G05
X184.91Y-96.861G85X184.41Y-96.861
G05
X184.91Y-102.811G85X184.41Y-102.811
G05
T0
M30
