%FSLAX45Y45*%
G04 Gerber Fmt 4.5, Leading zero omitted, Abs format (unit mm)*
G04 Created by KiCad (PCBNEW 6.99.0-a9ca49a600~144~ubuntu20.04.1) date 2021-12-30 21:08:44*
%MOMM*%
%LPD*%
G01*
G04 APERTURE LIST*
%TA.AperFunction,Profile*%
%ADD10C,0.150000*%
%TD*%
%ADD11C,0.200000*%
%ADD12C,0.120000*%
%ADD13C,0.170180*%
%ADD14C,0.342900*%
G04 APERTURE END LIST*
D10*
X18762000Y-5380500D02*
X16733040Y-5381502D01*
X9451545Y-6202085D02*
X7741920Y-6197600D01*
X17576800Y-13365480D02*
X18821400Y-11201400D01*
X16047720Y-12598400D02*
X17428867Y-13395960D01*
X12537440Y-12124081D02*
X14315440Y-12125960D01*
X16685040Y-5345502D02*
G75*
G03*
X16636050Y-5305500I-48990J-9998D01*
G01*
X16685040Y-5345502D02*
G75*
G03*
X16733040Y-5381502I48000J14000D01*
G01*
X16636050Y-5305500D02*
X14929320Y-5306902D01*
X9451545Y-6202085D02*
G75*
G03*
X9501545Y-6152085I0J50000D01*
G01*
X9551712Y-5000682D02*
G75*
G03*
X9501712Y-5050682I0J-50000D01*
G01*
X13031000Y-4403620D02*
X11353000Y-4404955D01*
X13081000Y-5005340D02*
X13081000Y-4453620D01*
X14829320Y-5056902D02*
X13131000Y-5055340D01*
X14879320Y-5256902D02*
X14879320Y-5106902D01*
X9501712Y-5050682D02*
X9501545Y-6152085D01*
X11254712Y-5000682D02*
X9551712Y-5000682D01*
X11303000Y-4454955D02*
X11304712Y-4950682D01*
X11254712Y-5000682D02*
G75*
G03*
X11304712Y-4950682I0J50000D01*
G01*
X11353000Y-4404955D02*
G75*
G03*
X11303000Y-4454955I0J-50000D01*
G01*
X13081000Y-4453620D02*
G75*
G03*
X13031000Y-4403620I-50000J0D01*
G01*
X13081000Y-5005340D02*
G75*
G03*
X13131000Y-5055340I50000J0D01*
G01*
X14879320Y-5106902D02*
G75*
G03*
X14829320Y-5056902I-50000J0D01*
G01*
X14879320Y-5256902D02*
G75*
G03*
X14929320Y-5306902I50000J0D01*
G01*
X18812000Y-5430500D02*
G75*
G03*
X18762000Y-5380500I-50000J0D01*
G01*
X9545320Y-10086265D02*
X11262360Y-10086265D01*
X9479280Y-11074400D02*
X9484360Y-10147225D01*
X11329486Y-10129488D02*
G75*
G03*
X11262360Y-10086265I-67126J-30512D01*
G01*
X12501880Y-12110720D02*
G75*
G03*
X12537440Y-12124081I35560J40640D01*
G01*
X17428867Y-13395960D02*
G75*
G03*
X17576800Y-13365480I44003J160668D01*
G01*
X7701280Y-9377680D02*
X7701280Y-11074400D01*
X7696200Y-6243320D02*
X7701280Y-7670800D01*
X18812000Y-5430500D02*
X18821400Y-11201400D01*
X9479280Y-11211560D02*
X9479280Y-11074400D01*
X9545320Y-10086265D02*
G75*
G03*
X9484360Y-10147225I0J-60960D01*
G01*
X9413240Y-11277600D02*
G75*
G03*
X9479280Y-11211560I0J66040D01*
G01*
X7701280Y-11211560D02*
X7701280Y-11074400D01*
X7701280Y-7670800D02*
X7701280Y-9377680D01*
X11329486Y-10129488D02*
X12501880Y-12110720D01*
X7741920Y-6197600D02*
G75*
G03*
X7696200Y-6243320I0J-45720D01*
G01*
X7767320Y-11277600D02*
X9413240Y-11277600D01*
X14315440Y-12125960D02*
X16047720Y-12598400D01*
X7701280Y-11211560D02*
G75*
G03*
X7767320Y-11277600I66040J0D01*
G01*
D11*
D12*
X17886000Y-9836100D02*
X18006000Y-9956100D01*
X18006000Y-9836100D02*
X17886000Y-9956100D01*
X17886000Y-10011100D02*
X18006000Y-10131100D01*
X18006000Y-10011100D02*
X17886000Y-10131100D01*
X18586000Y-9836100D02*
X18706000Y-9956100D01*
X18706000Y-9836100D02*
X18586000Y-9956100D01*
X18586000Y-10011100D02*
X18706000Y-10131100D01*
X18706000Y-10011100D02*
X18586000Y-10131100D01*
D13*
X8126090Y-7040000D02*
G75*
G03*
X8126090Y-7040000I-85090J0D01*
G01*
X8126090Y-8740000D02*
G75*
G03*
X8126090Y-8740000I-85090J0D01*
G01*
X8126090Y-10440000D02*
G75*
G03*
X8126090Y-10440000I-85090J0D01*
G01*
X9226090Y-7040000D02*
G75*
G03*
X9226090Y-7040000I-85090J0D01*
G01*
X9226090Y-8740000D02*
G75*
G03*
X9226090Y-8740000I-85090J0D01*
G01*
X9226090Y-10440000D02*
G75*
G03*
X9226090Y-10440000I-85090J0D01*
G01*
X9926090Y-5840000D02*
G75*
G03*
X9926090Y-5840000I-85090J0D01*
G01*
X9926090Y-7540000D02*
G75*
G03*
X9926090Y-7540000I-85090J0D01*
G01*
X9926090Y-9240000D02*
G75*
G03*
X9926090Y-9240000I-85090J0D01*
G01*
X11026090Y-5840000D02*
G75*
G03*
X11026090Y-5840000I-85090J0D01*
G01*
X11026090Y-7540000D02*
G75*
G03*
X11026090Y-7540000I-85090J0D01*
G01*
X11026090Y-9240000D02*
G75*
G03*
X11026090Y-9240000I-85090J0D01*
G01*
X11726090Y-5240000D02*
G75*
G03*
X11726090Y-5240000I-85090J0D01*
G01*
X11726090Y-6940000D02*
G75*
G03*
X11726090Y-6940000I-85090J0D01*
G01*
X11726090Y-8640000D02*
G75*
G03*
X11726090Y-8640000I-85090J0D01*
G01*
X12826090Y-5240000D02*
G75*
G03*
X12826090Y-5240000I-85090J0D01*
G01*
X12826090Y-6940000D02*
G75*
G03*
X12826090Y-6940000I-85090J0D01*
G01*
X12826090Y-8640000D02*
G75*
G03*
X12826090Y-8640000I-85090J0D01*
G01*
X12936090Y-11299000D02*
G75*
G03*
X12936090Y-11299000I-85090J0D01*
G01*
X13526090Y-5902000D02*
G75*
G03*
X13526090Y-5902000I-85090J0D01*
G01*
X13526090Y-7602000D02*
G75*
G03*
X13526090Y-7602000I-85090J0D01*
G01*
X13526090Y-9302500D02*
G75*
G03*
X13526090Y-9302500I-85090J0D01*
G01*
X14036090Y-11299000D02*
G75*
G03*
X14036090Y-11299000I-85090J0D01*
G01*
X14626090Y-5902000D02*
G75*
G03*
X14626090Y-5902000I-85090J0D01*
G01*
X14626090Y-7602000D02*
G75*
G03*
X14626090Y-7602000I-85090J0D01*
G01*
X14626090Y-9302500D02*
G75*
G03*
X14626090Y-9302500I-85090J0D01*
G01*
X14959831Y-11415649D02*
G75*
G03*
X14959831Y-11415649I-85090J0D01*
G01*
X15276090Y-9545000D02*
G75*
G03*
X15276090Y-9545000I-85090J0D01*
G01*
X15326090Y-6140000D02*
G75*
G03*
X15326090Y-6140000I-85090J0D01*
G01*
X15326090Y-7840000D02*
G75*
G03*
X15326090Y-7840000I-85090J0D01*
G01*
X16022349Y-11700350D02*
G75*
G03*
X16022349Y-11700350I-85090J0D01*
G01*
X16376090Y-9545000D02*
G75*
G03*
X16376090Y-9545000I-85090J0D01*
G01*
X16426090Y-6140000D02*
G75*
G03*
X16426090Y-6140000I-85090J0D01*
G01*
X16426090Y-7840000D02*
G75*
G03*
X16426090Y-7840000I-85090J0D01*
G01*
X17276090Y-12355314D02*
G75*
G03*
X17276090Y-12355314I-85090J0D01*
G01*
X17826090Y-11402686D02*
G75*
G03*
X17826090Y-11402686I-85090J0D01*
G01*
D14*
X8591000Y-6868550D02*
X8591000Y-7211450D01*
X8419550Y-7040000D02*
X8762450Y-7040000D01*
X8591000Y-8568550D02*
X8591000Y-8911450D01*
X8419550Y-8740000D02*
X8762450Y-8740000D01*
X8591000Y-10268550D02*
X8591000Y-10611450D01*
X8419550Y-10440000D02*
X8762450Y-10440000D01*
X10391000Y-5668550D02*
X10391000Y-6011450D01*
X10219550Y-5840000D02*
X10562450Y-5840000D01*
X10391000Y-7368550D02*
X10391000Y-7711450D01*
X10219550Y-7540000D02*
X10562450Y-7540000D01*
X10391000Y-9068550D02*
X10391000Y-9411450D01*
X10219550Y-9240000D02*
X10562450Y-9240000D01*
X12191000Y-5068550D02*
X12191000Y-5411450D01*
X12019550Y-5240000D02*
X12362450Y-5240000D01*
X12191000Y-6768550D02*
X12191000Y-7111450D01*
X12019550Y-6940000D02*
X12362450Y-6940000D01*
X12191000Y-8468550D02*
X12191000Y-8811450D01*
X12019550Y-8640000D02*
X12362450Y-8640000D01*
X13401000Y-11127550D02*
X13401000Y-11470450D01*
X13229550Y-11299000D02*
X13572450Y-11299000D01*
X13991000Y-5730550D02*
X13991000Y-6073450D01*
X13819550Y-5902000D02*
X14162450Y-5902000D01*
X13991000Y-7430550D02*
X13991000Y-7773450D01*
X13819550Y-7602000D02*
X14162450Y-7602000D01*
X13991000Y-9131050D02*
X13991000Y-9473950D01*
X13819550Y-9302500D02*
X14162450Y-9302500D01*
X15406000Y-11386550D02*
X15406000Y-11729450D01*
X15234550Y-11558000D02*
X15577450Y-11558000D01*
X15741000Y-9373550D02*
X15741000Y-9716450D01*
X15569550Y-9545000D02*
X15912450Y-9545000D01*
X15791000Y-5968550D02*
X15791000Y-6311450D01*
X15619550Y-6140000D02*
X15962450Y-6140000D01*
X15791000Y-7668550D02*
X15791000Y-8011450D01*
X15619550Y-7840000D02*
X15962450Y-7840000D01*
X17466000Y-11707550D02*
X17466000Y-12050450D01*
X17294550Y-11879000D02*
X17637450Y-11879000D01*
D11*
X7946319Y-13719853D02*
X7946319Y-13519853D01*
X7993938Y-13519853D01*
X8022509Y-13529377D01*
X8041557Y-13548424D01*
X8051081Y-13567472D01*
X8060605Y-13605567D01*
X8060605Y-13634138D01*
X8051081Y-13672234D01*
X8041557Y-13691281D01*
X8022509Y-13710329D01*
X7993938Y-13719853D01*
X7946319Y-13719853D01*
X8146319Y-13719853D02*
X8146319Y-13586519D01*
X8146319Y-13624615D02*
X8155843Y-13605567D01*
X8165367Y-13596043D01*
X8184414Y-13586519D01*
X8203462Y-13586519D01*
X8270128Y-13719853D02*
X8270128Y-13586519D01*
X8270128Y-13519853D02*
X8260605Y-13529377D01*
X8270128Y-13538900D01*
X8279652Y-13529377D01*
X8270128Y-13519853D01*
X8270128Y-13538900D01*
X8393938Y-13719853D02*
X8374890Y-13710329D01*
X8365367Y-13691281D01*
X8365367Y-13519853D01*
X8498700Y-13719853D02*
X8479652Y-13710329D01*
X8470129Y-13691281D01*
X8470129Y-13519853D01*
X8727271Y-13719853D02*
X8727271Y-13519853D01*
X8793938Y-13662710D01*
X8860605Y-13519853D01*
X8860605Y-13719853D01*
X9041557Y-13719853D02*
X9041557Y-13615091D01*
X9032033Y-13596043D01*
X9012986Y-13586519D01*
X8974890Y-13586519D01*
X8955843Y-13596043D01*
X9041557Y-13710329D02*
X9022510Y-13719853D01*
X8974890Y-13719853D01*
X8955843Y-13710329D01*
X8946319Y-13691281D01*
X8946319Y-13672234D01*
X8955843Y-13653186D01*
X8974890Y-13643662D01*
X9022510Y-13643662D01*
X9041557Y-13634138D01*
X9136795Y-13586519D02*
X9136795Y-13786519D01*
X9136795Y-13596043D02*
X9155843Y-13586519D01*
X9193938Y-13586519D01*
X9212986Y-13596043D01*
X9222510Y-13605567D01*
X9232033Y-13624615D01*
X9232033Y-13681757D01*
X9222510Y-13700805D01*
X9212986Y-13710329D01*
X9193938Y-13719853D01*
X9155843Y-13719853D01*
X9136795Y-13710329D01*
X9317748Y-13700805D02*
X9327271Y-13710329D01*
X9317748Y-13719853D01*
X9308224Y-13710329D01*
X9317748Y-13700805D01*
X9317748Y-13719853D01*
X9317748Y-13596043D02*
X9327271Y-13605567D01*
X9317748Y-13615091D01*
X9308224Y-13605567D01*
X9317748Y-13596043D01*
X9317748Y-13615091D01*
D12*
X7568700Y-13989377D02*
X7688700Y-14109377D01*
X7688700Y-13989377D02*
X7568700Y-14109377D01*
D11*
X8051081Y-14139853D02*
X7936795Y-14139853D01*
X7993938Y-14139853D02*
X7993938Y-13939853D01*
X7974890Y-13968424D01*
X7955843Y-13987472D01*
X7936795Y-13996996D01*
X8136795Y-14120805D02*
X8146319Y-14130329D01*
X8136795Y-14139853D01*
X8127271Y-14130329D01*
X8136795Y-14120805D01*
X8136795Y-14139853D01*
X8222509Y-13958900D02*
X8232033Y-13949377D01*
X8251081Y-13939853D01*
X8298700Y-13939853D01*
X8317748Y-13949377D01*
X8327271Y-13958900D01*
X8336795Y-13977948D01*
X8336795Y-13996996D01*
X8327271Y-14025567D01*
X8212986Y-14139853D01*
X8336795Y-14139853D01*
X8460605Y-13939853D02*
X8479652Y-13939853D01*
X8498700Y-13949377D01*
X8508224Y-13958900D01*
X8517748Y-13977948D01*
X8527271Y-14016043D01*
X8527271Y-14063662D01*
X8517748Y-14101757D01*
X8508224Y-14120805D01*
X8498700Y-14130329D01*
X8479652Y-14139853D01*
X8460605Y-14139853D01*
X8441557Y-14130329D01*
X8432033Y-14120805D01*
X8422510Y-14101757D01*
X8412986Y-14063662D01*
X8412986Y-14016043D01*
X8422510Y-13977948D01*
X8432033Y-13958900D01*
X8441557Y-13949377D01*
X8460605Y-13939853D01*
X8651081Y-13939853D02*
X8670129Y-13939853D01*
X8689176Y-13949377D01*
X8698700Y-13958900D01*
X8708224Y-13977948D01*
X8717748Y-14016043D01*
X8717748Y-14063662D01*
X8708224Y-14101757D01*
X8698700Y-14120805D01*
X8689176Y-14130329D01*
X8670129Y-14139853D01*
X8651081Y-14139853D01*
X8632033Y-14130329D01*
X8622510Y-14120805D01*
X8612986Y-14101757D01*
X8603462Y-14063662D01*
X8603462Y-14016043D01*
X8612986Y-13977948D01*
X8622510Y-13958900D01*
X8632033Y-13949377D01*
X8651081Y-13939853D01*
X8803462Y-14139853D02*
X8803462Y-14006519D01*
X8803462Y-14025567D02*
X8812986Y-14016043D01*
X8832033Y-14006519D01*
X8860605Y-14006519D01*
X8879652Y-14016043D01*
X8889176Y-14035091D01*
X8889176Y-14139853D01*
X8889176Y-14035091D02*
X8898700Y-14016043D01*
X8917748Y-14006519D01*
X8946319Y-14006519D01*
X8965367Y-14016043D01*
X8974890Y-14035091D01*
X8974890Y-14139853D01*
X9070129Y-14139853D02*
X9070129Y-14006519D01*
X9070129Y-14025567D02*
X9079652Y-14016043D01*
X9098700Y-14006519D01*
X9127271Y-14006519D01*
X9146319Y-14016043D01*
X9155843Y-14035091D01*
X9155843Y-14139853D01*
X9155843Y-14035091D02*
X9165367Y-14016043D01*
X9184414Y-14006519D01*
X9212986Y-14006519D01*
X9232033Y-14016043D01*
X9241557Y-14035091D01*
X9241557Y-14139853D01*
X9632033Y-13930329D02*
X9460605Y-14187472D01*
X9889176Y-13939853D02*
X9908224Y-13939853D01*
X9927271Y-13949377D01*
X9936795Y-13958900D01*
X9946319Y-13977948D01*
X9955843Y-14016043D01*
X9955843Y-14063662D01*
X9946319Y-14101757D01*
X9936795Y-14120805D01*
X9927271Y-14130329D01*
X9908224Y-14139853D01*
X9889176Y-14139853D01*
X9870129Y-14130329D01*
X9860605Y-14120805D01*
X9851081Y-14101757D01*
X9841557Y-14063662D01*
X9841557Y-14016043D01*
X9851081Y-13977948D01*
X9860605Y-13958900D01*
X9870129Y-13949377D01*
X9889176Y-13939853D01*
X10041557Y-14120805D02*
X10051081Y-14130329D01*
X10041557Y-14139853D01*
X10032033Y-14130329D01*
X10041557Y-14120805D01*
X10041557Y-14139853D01*
X10174890Y-13939853D02*
X10193938Y-13939853D01*
X10212986Y-13949377D01*
X10222510Y-13958900D01*
X10232033Y-13977948D01*
X10241557Y-14016043D01*
X10241557Y-14063662D01*
X10232033Y-14101757D01*
X10222510Y-14120805D01*
X10212986Y-14130329D01*
X10193938Y-14139853D01*
X10174890Y-14139853D01*
X10155843Y-14130329D01*
X10146319Y-14120805D01*
X10136795Y-14101757D01*
X10127271Y-14063662D01*
X10127271Y-14016043D01*
X10136795Y-13977948D01*
X10146319Y-13958900D01*
X10155843Y-13949377D01*
X10174890Y-13939853D01*
X10412986Y-14006519D02*
X10412986Y-14139853D01*
X10365367Y-13930329D02*
X10317748Y-14073186D01*
X10441557Y-14073186D01*
X10498700Y-13939853D02*
X10632033Y-13939853D01*
X10546319Y-14139853D01*
X10698700Y-13958900D02*
X10708224Y-13949377D01*
X10727271Y-13939853D01*
X10774890Y-13939853D01*
X10793938Y-13949377D01*
X10803462Y-13958900D01*
X10812986Y-13977948D01*
X10812986Y-13996996D01*
X10803462Y-14025567D01*
X10689176Y-14139853D01*
X10812986Y-14139853D01*
X10889176Y-13939853D02*
X10889176Y-13977948D01*
X10965367Y-13939853D02*
X10965367Y-13977948D01*
X11260605Y-14216043D02*
X11251081Y-14206519D01*
X11232033Y-14177948D01*
X11222509Y-14158900D01*
X11212986Y-14130329D01*
X11203462Y-14082710D01*
X11203462Y-14044615D01*
X11212986Y-13996996D01*
X11222509Y-13968424D01*
X11232033Y-13949377D01*
X11251081Y-13920805D01*
X11260605Y-13911281D01*
X11422509Y-14006519D02*
X11422509Y-14139853D01*
X11374890Y-13930329D02*
X11327271Y-14073186D01*
X11451081Y-14073186D01*
X11679652Y-14139853D02*
X11679652Y-13939853D01*
X11765367Y-14139853D02*
X11765367Y-14035091D01*
X11755843Y-14016043D01*
X11736795Y-14006519D01*
X11708224Y-14006519D01*
X11689176Y-14016043D01*
X11679652Y-14025567D01*
X11889176Y-14139853D02*
X11870128Y-14130329D01*
X11860605Y-14120805D01*
X11851081Y-14101757D01*
X11851081Y-14044615D01*
X11860605Y-14025567D01*
X11870128Y-14016043D01*
X11889176Y-14006519D01*
X11917748Y-14006519D01*
X11936795Y-14016043D01*
X11946319Y-14025567D01*
X11955843Y-14044615D01*
X11955843Y-14101757D01*
X11946319Y-14120805D01*
X11936795Y-14130329D01*
X11917748Y-14139853D01*
X11889176Y-14139853D01*
X12070128Y-14139853D02*
X12051081Y-14130329D01*
X12041557Y-14111281D01*
X12041557Y-13939853D01*
X12222509Y-14130329D02*
X12203462Y-14139853D01*
X12165367Y-14139853D01*
X12146319Y-14130329D01*
X12136795Y-14111281D01*
X12136795Y-14035091D01*
X12146319Y-14016043D01*
X12165367Y-14006519D01*
X12203462Y-14006519D01*
X12222509Y-14016043D01*
X12232033Y-14035091D01*
X12232033Y-14054138D01*
X12136795Y-14073186D01*
X12308224Y-14130329D02*
X12327271Y-14139853D01*
X12365367Y-14139853D01*
X12384414Y-14130329D01*
X12393938Y-14111281D01*
X12393938Y-14101757D01*
X12384414Y-14082710D01*
X12365367Y-14073186D01*
X12336795Y-14073186D01*
X12317748Y-14063662D01*
X12308224Y-14044615D01*
X12308224Y-14035091D01*
X12317748Y-14016043D01*
X12336795Y-14006519D01*
X12365367Y-14006519D01*
X12384414Y-14016043D01*
X12460605Y-14216043D02*
X12470128Y-14206519D01*
X12489176Y-14177948D01*
X12498700Y-14158900D01*
X12508224Y-14130329D01*
X12517748Y-14082710D01*
X12517748Y-14044615D01*
X12508224Y-13996996D01*
X12498700Y-13968424D01*
X12489176Y-13949377D01*
X12470128Y-13920805D01*
X12460605Y-13911281D01*
X12822509Y-14216043D02*
X12812986Y-14206519D01*
X12793938Y-14177948D01*
X12784414Y-14158900D01*
X12774890Y-14130329D01*
X12765367Y-14082710D01*
X12765367Y-14044615D01*
X12774890Y-13996996D01*
X12784414Y-13968424D01*
X12793938Y-13949377D01*
X12812986Y-13920805D01*
X12822509Y-13911281D01*
X12898700Y-14006519D02*
X12898700Y-14139853D01*
X12898700Y-14025567D02*
X12908224Y-14016043D01*
X12927271Y-14006519D01*
X12955843Y-14006519D01*
X12974890Y-14016043D01*
X12984414Y-14035091D01*
X12984414Y-14139853D01*
X13108224Y-14139853D02*
X13089176Y-14130329D01*
X13079652Y-14120805D01*
X13070128Y-14101757D01*
X13070128Y-14044615D01*
X13079652Y-14025567D01*
X13089176Y-14016043D01*
X13108224Y-14006519D01*
X13136795Y-14006519D01*
X13155843Y-14016043D01*
X13165367Y-14025567D01*
X13174890Y-14044615D01*
X13174890Y-14101757D01*
X13165367Y-14120805D01*
X13155843Y-14130329D01*
X13136795Y-14139853D01*
X13108224Y-14139853D01*
X13232033Y-14006519D02*
X13308224Y-14006519D01*
X13260605Y-13939853D02*
X13260605Y-14111281D01*
X13270128Y-14130329D01*
X13289176Y-14139853D01*
X13308224Y-14139853D01*
X13527271Y-14006519D02*
X13527271Y-14206519D01*
X13527271Y-14016043D02*
X13546319Y-14006519D01*
X13584414Y-14006519D01*
X13603462Y-14016043D01*
X13612986Y-14025567D01*
X13622509Y-14044615D01*
X13622509Y-14101757D01*
X13612986Y-14120805D01*
X13603462Y-14130329D01*
X13584414Y-14139853D01*
X13546319Y-14139853D01*
X13527271Y-14130329D01*
X13736795Y-14139853D02*
X13717748Y-14130329D01*
X13708224Y-14111281D01*
X13708224Y-13939853D01*
X13898700Y-14139853D02*
X13898700Y-14035091D01*
X13889176Y-14016043D01*
X13870128Y-14006519D01*
X13832033Y-14006519D01*
X13812986Y-14016043D01*
X13898700Y-14130329D02*
X13879652Y-14139853D01*
X13832033Y-14139853D01*
X13812986Y-14130329D01*
X13803462Y-14111281D01*
X13803462Y-14092234D01*
X13812986Y-14073186D01*
X13832033Y-14063662D01*
X13879652Y-14063662D01*
X13898700Y-14054138D01*
X13965367Y-14006519D02*
X14041557Y-14006519D01*
X13993938Y-13939853D02*
X13993938Y-14111281D01*
X14003462Y-14130329D01*
X14022509Y-14139853D01*
X14041557Y-14139853D01*
X14184414Y-14130329D02*
X14165367Y-14139853D01*
X14127271Y-14139853D01*
X14108224Y-14130329D01*
X14098700Y-14111281D01*
X14098700Y-14035091D01*
X14108224Y-14016043D01*
X14127271Y-14006519D01*
X14165367Y-14006519D01*
X14184414Y-14016043D01*
X14193938Y-14035091D01*
X14193938Y-14054138D01*
X14098700Y-14073186D01*
X14365367Y-14139853D02*
X14365367Y-13939853D01*
X14365367Y-14130329D02*
X14346319Y-14139853D01*
X14308224Y-14139853D01*
X14289176Y-14130329D01*
X14279652Y-14120805D01*
X14270128Y-14101757D01*
X14270128Y-14044615D01*
X14279652Y-14025567D01*
X14289176Y-14016043D01*
X14308224Y-14006519D01*
X14346319Y-14006519D01*
X14365367Y-14016043D01*
X14441557Y-14216043D02*
X14451081Y-14206519D01*
X14470128Y-14177948D01*
X14479652Y-14158900D01*
X14489176Y-14130329D01*
X14498700Y-14082710D01*
X14498700Y-14044615D01*
X14489176Y-13996996D01*
X14479652Y-13968424D01*
X14470128Y-13949377D01*
X14451081Y-13920805D01*
X14441557Y-13911281D01*
D13*
X7688700Y-14313377D02*
G75*
G03*
X7688700Y-14313377I-85090J0D01*
G01*
D11*
X8051081Y-14403853D02*
X7936795Y-14403853D01*
X7993938Y-14403853D02*
X7993938Y-14203853D01*
X7974890Y-14232424D01*
X7955843Y-14251472D01*
X7936795Y-14260996D01*
X8136795Y-14384805D02*
X8146319Y-14394329D01*
X8136795Y-14403853D01*
X8127271Y-14394329D01*
X8136795Y-14384805D01*
X8136795Y-14403853D01*
X8212986Y-14203853D02*
X8346319Y-14203853D01*
X8260605Y-14403853D01*
X8460605Y-14203853D02*
X8479652Y-14203853D01*
X8498700Y-14213377D01*
X8508224Y-14222900D01*
X8517748Y-14241948D01*
X8527271Y-14280043D01*
X8527271Y-14327662D01*
X8517748Y-14365757D01*
X8508224Y-14384805D01*
X8498700Y-14394329D01*
X8479652Y-14403853D01*
X8460605Y-14403853D01*
X8441557Y-14394329D01*
X8432033Y-14384805D01*
X8422510Y-14365757D01*
X8412986Y-14327662D01*
X8412986Y-14280043D01*
X8422510Y-14241948D01*
X8432033Y-14222900D01*
X8441557Y-14213377D01*
X8460605Y-14203853D01*
X8603462Y-14222900D02*
X8612986Y-14213377D01*
X8632033Y-14203853D01*
X8679652Y-14203853D01*
X8698700Y-14213377D01*
X8708224Y-14222900D01*
X8717748Y-14241948D01*
X8717748Y-14260996D01*
X8708224Y-14289567D01*
X8593938Y-14403853D01*
X8717748Y-14403853D01*
X8803462Y-14403853D02*
X8803462Y-14270519D01*
X8803462Y-14289567D02*
X8812986Y-14280043D01*
X8832033Y-14270519D01*
X8860605Y-14270519D01*
X8879652Y-14280043D01*
X8889176Y-14299091D01*
X8889176Y-14403853D01*
X8889176Y-14299091D02*
X8898700Y-14280043D01*
X8917748Y-14270519D01*
X8946319Y-14270519D01*
X8965367Y-14280043D01*
X8974890Y-14299091D01*
X8974890Y-14403853D01*
X9070129Y-14403853D02*
X9070129Y-14270519D01*
X9070129Y-14289567D02*
X9079652Y-14280043D01*
X9098700Y-14270519D01*
X9127271Y-14270519D01*
X9146319Y-14280043D01*
X9155843Y-14299091D01*
X9155843Y-14403853D01*
X9155843Y-14299091D02*
X9165367Y-14280043D01*
X9184414Y-14270519D01*
X9212986Y-14270519D01*
X9232033Y-14280043D01*
X9241557Y-14299091D01*
X9241557Y-14403853D01*
X9632033Y-14194329D02*
X9460605Y-14451472D01*
X9889176Y-14203853D02*
X9908224Y-14203853D01*
X9927271Y-14213377D01*
X9936795Y-14222900D01*
X9946319Y-14241948D01*
X9955843Y-14280043D01*
X9955843Y-14327662D01*
X9946319Y-14365757D01*
X9936795Y-14384805D01*
X9927271Y-14394329D01*
X9908224Y-14403853D01*
X9889176Y-14403853D01*
X9870129Y-14394329D01*
X9860605Y-14384805D01*
X9851081Y-14365757D01*
X9841557Y-14327662D01*
X9841557Y-14280043D01*
X9851081Y-14241948D01*
X9860605Y-14222900D01*
X9870129Y-14213377D01*
X9889176Y-14203853D01*
X10041557Y-14384805D02*
X10051081Y-14394329D01*
X10041557Y-14403853D01*
X10032033Y-14394329D01*
X10041557Y-14384805D01*
X10041557Y-14403853D01*
X10174890Y-14203853D02*
X10193938Y-14203853D01*
X10212986Y-14213377D01*
X10222510Y-14222900D01*
X10232033Y-14241948D01*
X10241557Y-14280043D01*
X10241557Y-14327662D01*
X10232033Y-14365757D01*
X10222510Y-14384805D01*
X10212986Y-14394329D01*
X10193938Y-14403853D01*
X10174890Y-14403853D01*
X10155843Y-14394329D01*
X10146319Y-14384805D01*
X10136795Y-14365757D01*
X10127271Y-14327662D01*
X10127271Y-14280043D01*
X10136795Y-14241948D01*
X10146319Y-14222900D01*
X10155843Y-14213377D01*
X10174890Y-14203853D01*
X10412986Y-14203853D02*
X10374890Y-14203853D01*
X10355843Y-14213377D01*
X10346319Y-14222900D01*
X10327271Y-14251472D01*
X10317748Y-14289567D01*
X10317748Y-14365757D01*
X10327271Y-14384805D01*
X10336795Y-14394329D01*
X10355843Y-14403853D01*
X10393938Y-14403853D01*
X10412986Y-14394329D01*
X10422510Y-14384805D01*
X10432033Y-14365757D01*
X10432033Y-14318138D01*
X10422510Y-14299091D01*
X10412986Y-14289567D01*
X10393938Y-14280043D01*
X10355843Y-14280043D01*
X10336795Y-14289567D01*
X10327271Y-14299091D01*
X10317748Y-14318138D01*
X10498700Y-14203853D02*
X10632033Y-14203853D01*
X10546319Y-14403853D01*
X10746319Y-14203853D02*
X10765367Y-14203853D01*
X10784414Y-14213377D01*
X10793938Y-14222900D01*
X10803462Y-14241948D01*
X10812986Y-14280043D01*
X10812986Y-14327662D01*
X10803462Y-14365757D01*
X10793938Y-14384805D01*
X10784414Y-14394329D01*
X10765367Y-14403853D01*
X10746319Y-14403853D01*
X10727271Y-14394329D01*
X10717748Y-14384805D01*
X10708224Y-14365757D01*
X10698700Y-14327662D01*
X10698700Y-14280043D01*
X10708224Y-14241948D01*
X10717748Y-14222900D01*
X10727271Y-14213377D01*
X10746319Y-14203853D01*
X10889176Y-14203853D02*
X10889176Y-14241948D01*
X10965367Y-14203853D02*
X10965367Y-14241948D01*
X11260605Y-14480043D02*
X11251081Y-14470519D01*
X11232033Y-14441948D01*
X11222509Y-14422900D01*
X11212986Y-14394329D01*
X11203462Y-14346710D01*
X11203462Y-14308615D01*
X11212986Y-14260996D01*
X11222509Y-14232424D01*
X11232033Y-14213377D01*
X11251081Y-14184805D01*
X11260605Y-14175281D01*
X11317748Y-14203853D02*
X11441557Y-14203853D01*
X11374890Y-14280043D01*
X11403462Y-14280043D01*
X11422509Y-14289567D01*
X11432033Y-14299091D01*
X11441557Y-14318138D01*
X11441557Y-14365757D01*
X11432033Y-14384805D01*
X11422509Y-14394329D01*
X11403462Y-14403853D01*
X11346319Y-14403853D01*
X11327271Y-14394329D01*
X11317748Y-14384805D01*
X11612986Y-14203853D02*
X11574890Y-14203853D01*
X11555843Y-14213377D01*
X11546319Y-14222900D01*
X11527271Y-14251472D01*
X11517748Y-14289567D01*
X11517748Y-14365757D01*
X11527271Y-14384805D01*
X11536795Y-14394329D01*
X11555843Y-14403853D01*
X11593938Y-14403853D01*
X11612986Y-14394329D01*
X11622509Y-14384805D01*
X11632033Y-14365757D01*
X11632033Y-14318138D01*
X11622509Y-14299091D01*
X11612986Y-14289567D01*
X11593938Y-14280043D01*
X11555843Y-14280043D01*
X11536795Y-14289567D01*
X11527271Y-14299091D01*
X11517748Y-14318138D01*
X11870128Y-14403853D02*
X11870128Y-14203853D01*
X11955843Y-14403853D02*
X11955843Y-14299091D01*
X11946319Y-14280043D01*
X11927271Y-14270519D01*
X11898700Y-14270519D01*
X11879652Y-14280043D01*
X11870128Y-14289567D01*
X12079652Y-14403853D02*
X12060605Y-14394329D01*
X12051081Y-14384805D01*
X12041557Y-14365757D01*
X12041557Y-14308615D01*
X12051081Y-14289567D01*
X12060605Y-14280043D01*
X12079652Y-14270519D01*
X12108224Y-14270519D01*
X12127271Y-14280043D01*
X12136795Y-14289567D01*
X12146319Y-14308615D01*
X12146319Y-14365757D01*
X12136795Y-14384805D01*
X12127271Y-14394329D01*
X12108224Y-14403853D01*
X12079652Y-14403853D01*
X12260605Y-14403853D02*
X12241557Y-14394329D01*
X12232033Y-14375281D01*
X12232033Y-14203853D01*
X12412986Y-14394329D02*
X12393938Y-14403853D01*
X12355843Y-14403853D01*
X12336795Y-14394329D01*
X12327271Y-14375281D01*
X12327271Y-14299091D01*
X12336795Y-14280043D01*
X12355843Y-14270519D01*
X12393938Y-14270519D01*
X12412986Y-14280043D01*
X12422509Y-14299091D01*
X12422509Y-14318138D01*
X12327271Y-14337186D01*
X12498700Y-14394329D02*
X12517748Y-14403853D01*
X12555843Y-14403853D01*
X12574890Y-14394329D01*
X12584414Y-14375281D01*
X12584414Y-14365757D01*
X12574890Y-14346710D01*
X12555843Y-14337186D01*
X12527271Y-14337186D01*
X12508224Y-14327662D01*
X12498700Y-14308615D01*
X12498700Y-14299091D01*
X12508224Y-14280043D01*
X12527271Y-14270519D01*
X12555843Y-14270519D01*
X12574890Y-14280043D01*
X12651081Y-14480043D02*
X12660605Y-14470519D01*
X12679652Y-14441948D01*
X12689176Y-14422900D01*
X12698700Y-14394329D01*
X12708224Y-14346710D01*
X12708224Y-14308615D01*
X12698700Y-14260996D01*
X12689176Y-14232424D01*
X12679652Y-14213377D01*
X12660605Y-14184805D01*
X12651081Y-14175281D01*
X13012986Y-14480043D02*
X13003462Y-14470519D01*
X12984414Y-14441948D01*
X12974890Y-14422900D01*
X12965367Y-14394329D01*
X12955843Y-14346710D01*
X12955843Y-14308615D01*
X12965367Y-14260996D01*
X12974890Y-14232424D01*
X12984414Y-14213377D01*
X13003462Y-14184805D01*
X13012986Y-14175281D01*
X13089176Y-14270519D02*
X13089176Y-14403853D01*
X13089176Y-14289567D02*
X13098700Y-14280043D01*
X13117748Y-14270519D01*
X13146319Y-14270519D01*
X13165367Y-14280043D01*
X13174890Y-14299091D01*
X13174890Y-14403853D01*
X13298700Y-14403853D02*
X13279652Y-14394329D01*
X13270128Y-14384805D01*
X13260605Y-14365757D01*
X13260605Y-14308615D01*
X13270128Y-14289567D01*
X13279652Y-14280043D01*
X13298700Y-14270519D01*
X13327271Y-14270519D01*
X13346319Y-14280043D01*
X13355843Y-14289567D01*
X13365367Y-14308615D01*
X13365367Y-14365757D01*
X13355843Y-14384805D01*
X13346319Y-14394329D01*
X13327271Y-14403853D01*
X13298700Y-14403853D01*
X13422509Y-14270519D02*
X13498700Y-14270519D01*
X13451081Y-14203853D02*
X13451081Y-14375281D01*
X13460605Y-14394329D01*
X13479652Y-14403853D01*
X13498700Y-14403853D01*
X13717748Y-14270519D02*
X13717748Y-14470519D01*
X13717748Y-14280043D02*
X13736795Y-14270519D01*
X13774890Y-14270519D01*
X13793938Y-14280043D01*
X13803462Y-14289567D01*
X13812986Y-14308615D01*
X13812986Y-14365757D01*
X13803462Y-14384805D01*
X13793938Y-14394329D01*
X13774890Y-14403853D01*
X13736795Y-14403853D01*
X13717748Y-14394329D01*
X13927271Y-14403853D02*
X13908224Y-14394329D01*
X13898700Y-14375281D01*
X13898700Y-14203853D01*
X14089176Y-14403853D02*
X14089176Y-14299091D01*
X14079652Y-14280043D01*
X14060605Y-14270519D01*
X14022509Y-14270519D01*
X14003462Y-14280043D01*
X14089176Y-14394329D02*
X14070128Y-14403853D01*
X14022509Y-14403853D01*
X14003462Y-14394329D01*
X13993938Y-14375281D01*
X13993938Y-14356234D01*
X14003462Y-14337186D01*
X14022509Y-14327662D01*
X14070128Y-14327662D01*
X14089176Y-14318138D01*
X14155843Y-14270519D02*
X14232033Y-14270519D01*
X14184414Y-14203853D02*
X14184414Y-14375281D01*
X14193938Y-14394329D01*
X14212986Y-14403853D01*
X14232033Y-14403853D01*
X14374890Y-14394329D02*
X14355843Y-14403853D01*
X14317748Y-14403853D01*
X14298700Y-14394329D01*
X14289176Y-14375281D01*
X14289176Y-14299091D01*
X14298700Y-14280043D01*
X14317748Y-14270519D01*
X14355843Y-14270519D01*
X14374890Y-14280043D01*
X14384414Y-14299091D01*
X14384414Y-14318138D01*
X14289176Y-14337186D01*
X14555843Y-14403853D02*
X14555843Y-14203853D01*
X14555843Y-14394329D02*
X14536795Y-14403853D01*
X14498700Y-14403853D01*
X14479652Y-14394329D01*
X14470128Y-14384805D01*
X14460605Y-14365757D01*
X14460605Y-14308615D01*
X14470128Y-14289567D01*
X14479652Y-14280043D01*
X14498700Y-14270519D01*
X14536795Y-14270519D01*
X14555843Y-14280043D01*
X14632033Y-14480043D02*
X14641557Y-14470519D01*
X14660605Y-14441948D01*
X14670128Y-14422900D01*
X14679652Y-14394329D01*
X14689176Y-14346710D01*
X14689176Y-14308615D01*
X14679652Y-14260996D01*
X14670128Y-14232424D01*
X14660605Y-14213377D01*
X14641557Y-14184805D01*
X14632033Y-14175281D01*
X7588700Y-14503557D02*
X7588700Y-14703557D01*
X7488700Y-14603557D02*
X7688700Y-14603557D01*
X7927271Y-14494033D02*
X8051081Y-14494033D01*
X7984414Y-14570223D01*
X8012986Y-14570223D01*
X8032033Y-14579747D01*
X8041557Y-14589271D01*
X8051081Y-14608318D01*
X8051081Y-14655937D01*
X8041557Y-14674985D01*
X8032033Y-14684509D01*
X8012986Y-14694033D01*
X7955843Y-14694033D01*
X7936795Y-14684509D01*
X7927271Y-14674985D01*
X8136795Y-14674985D02*
X8146319Y-14684509D01*
X8136795Y-14694033D01*
X8127271Y-14684509D01*
X8136795Y-14674985D01*
X8136795Y-14694033D01*
X8317748Y-14560699D02*
X8317748Y-14694033D01*
X8270128Y-14484509D02*
X8222509Y-14627366D01*
X8346319Y-14627366D01*
X8412986Y-14513080D02*
X8422510Y-14503557D01*
X8441557Y-14494033D01*
X8489176Y-14494033D01*
X8508224Y-14503557D01*
X8517748Y-14513080D01*
X8527271Y-14532128D01*
X8527271Y-14551176D01*
X8517748Y-14579747D01*
X8403462Y-14694033D01*
X8527271Y-14694033D01*
X8622510Y-14694033D02*
X8660605Y-14694033D01*
X8679652Y-14684509D01*
X8689176Y-14674985D01*
X8708224Y-14646414D01*
X8717748Y-14608318D01*
X8717748Y-14532128D01*
X8708224Y-14513080D01*
X8698700Y-14503557D01*
X8679652Y-14494033D01*
X8641557Y-14494033D01*
X8622510Y-14503557D01*
X8612986Y-14513080D01*
X8603462Y-14532128D01*
X8603462Y-14579747D01*
X8612986Y-14598795D01*
X8622510Y-14608318D01*
X8641557Y-14617842D01*
X8679652Y-14617842D01*
X8698700Y-14608318D01*
X8708224Y-14598795D01*
X8717748Y-14579747D01*
X8803462Y-14694033D02*
X8803462Y-14560699D01*
X8803462Y-14579747D02*
X8812986Y-14570223D01*
X8832033Y-14560699D01*
X8860605Y-14560699D01*
X8879652Y-14570223D01*
X8889176Y-14589271D01*
X8889176Y-14694033D01*
X8889176Y-14589271D02*
X8898700Y-14570223D01*
X8917748Y-14560699D01*
X8946319Y-14560699D01*
X8965367Y-14570223D01*
X8974890Y-14589271D01*
X8974890Y-14694033D01*
X9070129Y-14694033D02*
X9070129Y-14560699D01*
X9070129Y-14579747D02*
X9079652Y-14570223D01*
X9098700Y-14560699D01*
X9127271Y-14560699D01*
X9146319Y-14570223D01*
X9155843Y-14589271D01*
X9155843Y-14694033D01*
X9155843Y-14589271D02*
X9165367Y-14570223D01*
X9184414Y-14560699D01*
X9212986Y-14560699D01*
X9232033Y-14570223D01*
X9241557Y-14589271D01*
X9241557Y-14694033D01*
X9632033Y-14484509D02*
X9460605Y-14741652D01*
X9889176Y-14494033D02*
X9908224Y-14494033D01*
X9927271Y-14503557D01*
X9936795Y-14513080D01*
X9946319Y-14532128D01*
X9955843Y-14570223D01*
X9955843Y-14617842D01*
X9946319Y-14655937D01*
X9936795Y-14674985D01*
X9927271Y-14684509D01*
X9908224Y-14694033D01*
X9889176Y-14694033D01*
X9870129Y-14684509D01*
X9860605Y-14674985D01*
X9851081Y-14655937D01*
X9841557Y-14617842D01*
X9841557Y-14570223D01*
X9851081Y-14532128D01*
X9860605Y-14513080D01*
X9870129Y-14503557D01*
X9889176Y-14494033D01*
X10041557Y-14674985D02*
X10051081Y-14684509D01*
X10041557Y-14694033D01*
X10032033Y-14684509D01*
X10041557Y-14674985D01*
X10041557Y-14694033D01*
X10241557Y-14694033D02*
X10127271Y-14694033D01*
X10184414Y-14694033D02*
X10184414Y-14494033D01*
X10165367Y-14522604D01*
X10146319Y-14541652D01*
X10127271Y-14551176D01*
X10308224Y-14494033D02*
X10432033Y-14494033D01*
X10365367Y-14570223D01*
X10393938Y-14570223D01*
X10412986Y-14579747D01*
X10422510Y-14589271D01*
X10432033Y-14608318D01*
X10432033Y-14655937D01*
X10422510Y-14674985D01*
X10412986Y-14684509D01*
X10393938Y-14694033D01*
X10336795Y-14694033D01*
X10317748Y-14684509D01*
X10308224Y-14674985D01*
X10612986Y-14494033D02*
X10517748Y-14494033D01*
X10508224Y-14589271D01*
X10517748Y-14579747D01*
X10536795Y-14570223D01*
X10584414Y-14570223D01*
X10603462Y-14579747D01*
X10612986Y-14589271D01*
X10622510Y-14608318D01*
X10622510Y-14655937D01*
X10612986Y-14674985D01*
X10603462Y-14684509D01*
X10584414Y-14694033D01*
X10536795Y-14694033D01*
X10517748Y-14684509D01*
X10508224Y-14674985D01*
X10746319Y-14494033D02*
X10765367Y-14494033D01*
X10784414Y-14503557D01*
X10793938Y-14513080D01*
X10803462Y-14532128D01*
X10812986Y-14570223D01*
X10812986Y-14617842D01*
X10803462Y-14655937D01*
X10793938Y-14674985D01*
X10784414Y-14684509D01*
X10765367Y-14694033D01*
X10746319Y-14694033D01*
X10727271Y-14684509D01*
X10717748Y-14674985D01*
X10708224Y-14655937D01*
X10698700Y-14617842D01*
X10698700Y-14570223D01*
X10708224Y-14532128D01*
X10717748Y-14513080D01*
X10727271Y-14503557D01*
X10746319Y-14494033D01*
X10889176Y-14494033D02*
X10889176Y-14532128D01*
X10965367Y-14494033D02*
X10965367Y-14532128D01*
X11260605Y-14770223D02*
X11251081Y-14760699D01*
X11232033Y-14732128D01*
X11222509Y-14713080D01*
X11212986Y-14684509D01*
X11203462Y-14636890D01*
X11203462Y-14598795D01*
X11212986Y-14551176D01*
X11222509Y-14522604D01*
X11232033Y-14503557D01*
X11251081Y-14474985D01*
X11260605Y-14465461D01*
X11441557Y-14694033D02*
X11327271Y-14694033D01*
X11384414Y-14694033D02*
X11384414Y-14494033D01*
X11365367Y-14522604D01*
X11346319Y-14541652D01*
X11327271Y-14551176D01*
X11555843Y-14579747D02*
X11536795Y-14570223D01*
X11527271Y-14560699D01*
X11517748Y-14541652D01*
X11517748Y-14532128D01*
X11527271Y-14513080D01*
X11536795Y-14503557D01*
X11555843Y-14494033D01*
X11593938Y-14494033D01*
X11612986Y-14503557D01*
X11622509Y-14513080D01*
X11632033Y-14532128D01*
X11632033Y-14541652D01*
X11622509Y-14560699D01*
X11612986Y-14570223D01*
X11593938Y-14579747D01*
X11555843Y-14579747D01*
X11536795Y-14589271D01*
X11527271Y-14598795D01*
X11517748Y-14617842D01*
X11517748Y-14655937D01*
X11527271Y-14674985D01*
X11536795Y-14684509D01*
X11555843Y-14694033D01*
X11593938Y-14694033D01*
X11612986Y-14684509D01*
X11622509Y-14674985D01*
X11632033Y-14655937D01*
X11632033Y-14617842D01*
X11622509Y-14598795D01*
X11612986Y-14589271D01*
X11593938Y-14579747D01*
X11870128Y-14694033D02*
X11870128Y-14494033D01*
X11955843Y-14694033D02*
X11955843Y-14589271D01*
X11946319Y-14570223D01*
X11927271Y-14560699D01*
X11898700Y-14560699D01*
X11879652Y-14570223D01*
X11870128Y-14579747D01*
X12079652Y-14694033D02*
X12060605Y-14684509D01*
X12051081Y-14674985D01*
X12041557Y-14655937D01*
X12041557Y-14598795D01*
X12051081Y-14579747D01*
X12060605Y-14570223D01*
X12079652Y-14560699D01*
X12108224Y-14560699D01*
X12127271Y-14570223D01*
X12136795Y-14579747D01*
X12146319Y-14598795D01*
X12146319Y-14655937D01*
X12136795Y-14674985D01*
X12127271Y-14684509D01*
X12108224Y-14694033D01*
X12079652Y-14694033D01*
X12260605Y-14694033D02*
X12241557Y-14684509D01*
X12232033Y-14665461D01*
X12232033Y-14494033D01*
X12412986Y-14684509D02*
X12393938Y-14694033D01*
X12355843Y-14694033D01*
X12336795Y-14684509D01*
X12327271Y-14665461D01*
X12327271Y-14589271D01*
X12336795Y-14570223D01*
X12355843Y-14560699D01*
X12393938Y-14560699D01*
X12412986Y-14570223D01*
X12422509Y-14589271D01*
X12422509Y-14608318D01*
X12327271Y-14627366D01*
X12498700Y-14684509D02*
X12517748Y-14694033D01*
X12555843Y-14694033D01*
X12574890Y-14684509D01*
X12584414Y-14665461D01*
X12584414Y-14655937D01*
X12574890Y-14636890D01*
X12555843Y-14627366D01*
X12527271Y-14627366D01*
X12508224Y-14617842D01*
X12498700Y-14598795D01*
X12498700Y-14589271D01*
X12508224Y-14570223D01*
X12527271Y-14560699D01*
X12555843Y-14560699D01*
X12574890Y-14570223D01*
X12651081Y-14770223D02*
X12660605Y-14760699D01*
X12679652Y-14732128D01*
X12689176Y-14713080D01*
X12698700Y-14684509D01*
X12708224Y-14636890D01*
X12708224Y-14598795D01*
X12698700Y-14551176D01*
X12689176Y-14522604D01*
X12679652Y-14503557D01*
X12660605Y-14474985D01*
X12651081Y-14465461D01*
X13012986Y-14770223D02*
X13003462Y-14760699D01*
X12984414Y-14732128D01*
X12974890Y-14713080D01*
X12965367Y-14684509D01*
X12955843Y-14636890D01*
X12955843Y-14598795D01*
X12965367Y-14551176D01*
X12974890Y-14522604D01*
X12984414Y-14503557D01*
X13003462Y-14474985D01*
X13012986Y-14465461D01*
X13089176Y-14560699D02*
X13089176Y-14694033D01*
X13089176Y-14579747D02*
X13098700Y-14570223D01*
X13117748Y-14560699D01*
X13146319Y-14560699D01*
X13165367Y-14570223D01*
X13174890Y-14589271D01*
X13174890Y-14694033D01*
X13298700Y-14694033D02*
X13279652Y-14684509D01*
X13270128Y-14674985D01*
X13260605Y-14655937D01*
X13260605Y-14598795D01*
X13270128Y-14579747D01*
X13279652Y-14570223D01*
X13298700Y-14560699D01*
X13327271Y-14560699D01*
X13346319Y-14570223D01*
X13355843Y-14579747D01*
X13365367Y-14598795D01*
X13365367Y-14655937D01*
X13355843Y-14674985D01*
X13346319Y-14684509D01*
X13327271Y-14694033D01*
X13298700Y-14694033D01*
X13422509Y-14560699D02*
X13498700Y-14560699D01*
X13451081Y-14494033D02*
X13451081Y-14665461D01*
X13460605Y-14684509D01*
X13479652Y-14694033D01*
X13498700Y-14694033D01*
X13717748Y-14560699D02*
X13717748Y-14760699D01*
X13717748Y-14570223D02*
X13736795Y-14560699D01*
X13774890Y-14560699D01*
X13793938Y-14570223D01*
X13803462Y-14579747D01*
X13812986Y-14598795D01*
X13812986Y-14655937D01*
X13803462Y-14674985D01*
X13793938Y-14684509D01*
X13774890Y-14694033D01*
X13736795Y-14694033D01*
X13717748Y-14684509D01*
X13927271Y-14694033D02*
X13908224Y-14684509D01*
X13898700Y-14665461D01*
X13898700Y-14494033D01*
X14089176Y-14694033D02*
X14089176Y-14589271D01*
X14079652Y-14570223D01*
X14060605Y-14560699D01*
X14022509Y-14560699D01*
X14003462Y-14570223D01*
X14089176Y-14684509D02*
X14070128Y-14694033D01*
X14022509Y-14694033D01*
X14003462Y-14684509D01*
X13993938Y-14665461D01*
X13993938Y-14646414D01*
X14003462Y-14627366D01*
X14022509Y-14617842D01*
X14070128Y-14617842D01*
X14089176Y-14608318D01*
X14155843Y-14560699D02*
X14232033Y-14560699D01*
X14184414Y-14494033D02*
X14184414Y-14665461D01*
X14193938Y-14684509D01*
X14212986Y-14694033D01*
X14232033Y-14694033D01*
X14374890Y-14684509D02*
X14355843Y-14694033D01*
X14317748Y-14694033D01*
X14298700Y-14684509D01*
X14289176Y-14665461D01*
X14289176Y-14589271D01*
X14298700Y-14570223D01*
X14317748Y-14560699D01*
X14355843Y-14560699D01*
X14374890Y-14570223D01*
X14384414Y-14589271D01*
X14384414Y-14608318D01*
X14289176Y-14627366D01*
X14555843Y-14694033D02*
X14555843Y-14494033D01*
X14555843Y-14684509D02*
X14536795Y-14694033D01*
X14498700Y-14694033D01*
X14479652Y-14684509D01*
X14470128Y-14674985D01*
X14460605Y-14655937D01*
X14460605Y-14598795D01*
X14470128Y-14579747D01*
X14479652Y-14570223D01*
X14498700Y-14560699D01*
X14536795Y-14560699D01*
X14555843Y-14570223D01*
X14632033Y-14770223D02*
X14641557Y-14760699D01*
X14660605Y-14732128D01*
X14670128Y-14713080D01*
X14679652Y-14684509D01*
X14689176Y-14636890D01*
X14689176Y-14598795D01*
X14679652Y-14551176D01*
X14670128Y-14522604D01*
X14660605Y-14503557D01*
X14641557Y-14474985D01*
X14632033Y-14465461D01*
M02*
